<?xml version="1.0" encoding="UTF-8"?>
<svg width="48mm" height="48mm" version="1.1" viewBox="0 0 48 48" xmlns="http://www.w3.org/2000/svg" xmlns:cc="http://creativecommons.org/ns#" xmlns:dc="http://purl.org/dc/elements/1.1/" xmlns:rdf="http://www.w3.org/1999/02/22-rdf-syntax-ns#">
 <metadata>
  <rdf:RDF>
   <cc:Work rdf:about="">
    <dc:format>image/svg+xml</dc:format>
    <dc:type rdf:resource="http://purl.org/dc/dcmitype/StillImage"/>
    <dc:title/>
   </cc:Work>
  </rdf:RDF>
 </metadata>
 <g display="none">
  <ellipse cx="24" cy="24" rx="22.561" ry="22.561" fill="none" stroke="#000" stroke-linejoin="round" stroke-width="2.8788" style="paint-order:normal"/>
 </g>
 <g display="none">
  <g transform="matrix(.18648 0 0 .18648 1.6996 8.157)">
   <g id="suitcase">
    <path id="left" class="body sides" d="m68.475 32v160h-44.475c-13.255 0-24-10.745-24-24v-112c0-13.255 10.745-24 24-24z"/>
    <rect id="middle" class="body" x="90.045" y="32" width="58.542" height="160" stroke-width=".63761"/>
    <path id="right" class="body sides" d="m171.53 32h44.475c13.255 0 24 10.745 24 24v112c0 13.255-10.745 24-24 24h-44.475z"/>
    <path id="handle" d="m70.322 24.268v-24.695c0-13.718 11.121-30.452 24.839-30.452h49.678c13.718 0 24.839 16.734 24.839 30.452v24.695h-22.173v-16.559c0-4.5727-3.7069-12.347-8.2796-12.347h-38.451c-4.5727 0-8.2796 7.7747-8.2796 12.347v16.559z" stroke-width="1.3799"/>
   </g>
  </g>
 </g>
 <g>
  <path transform="scale(.26458)" d="m45.873 26.338-43.75 19.984 18.854 37.33 24.896-6.1875v81.24h90.975v-81.24l24.896 6.1875 18.854-37.33s-35.887-19.984-44.859-19.984h-23.414c0 13.524-7.4806 17.485-21.267 17.485-13.787 0-20.658-3.9609-20.658-17.485z"/>
 </g>
</svg>
