<svg xmlns="http://www.w3.org/2000/svg" viewBox="0 0 15.125 20.993" fill="#FFFFFF"><path d="M.696 6.806l-.242.121-.363-.272Q.03 4.84.665 3.811q.121-.211.484-.665.394-.484.999-1.27l.574.09Q3.448.061 6.171.061h.212Q6.594.03 6.927 0h.454q.242 0 .393.03.484.03.787.212l-.182 1.603q-.696.06-1.482.212-.756.151-1.573.363l-.333-.272q-.393.423-.907 1.058-.484.605-1.15 1.422l-.302.514-.212.061q-.03.212-.06.393v.393q0 1.06.393 2.057.453 1.15.453 1.21.484.091 1.21.938.363.151.908.333.544.151 1.27.363v-.09q0-.364-.15-.606-.424.151-.545.091-.666-.303-1.785-1.664l-.09-.575-.394-.272q.06-.454.09-.907l.061-.938-.272-.242 1.18-1.603q.363-.515.786-.696.424-.182.847-.121.454-.363 1.513-.605l.544.363.514-.272q2.723.786 3.177 2.45l-.363.454.605-.273q.635.908.635 2.42 0 .394-.09.696l-.485.272.06.273.243.12q0 1.755-3.116 3.237.272.212.302.484l.394-.15q.302.21.726.513.423.273.968.605.393.152.756.424.363.242.635.665l.938 1.513-.303.484.575.151q.121.484.272 1.785.091 1.21.303 1.785-.666.332-1.724.332-.515 0-.817-.15-.272-1.06-.06-1.967l-.212-.212q-.242-1.361-1.15-2.39-.907-1.028-2.208-1.482l.03.393-.544.696-.273 1.513.424-.605q.242.393.242.786-.03-.363-.03-.12v1.965q0 .333-.03.575v.454q-.485.272-.938.363L7.38 20.6l-.666.182-.302-.273q-.09-.423-.151-1.18-.03-.756 0-1.845l.242-.302q.03-.06-.03-.212-.061-.151-.061-.212 0-.181-.03-.453-.03-.273-.06-.575 0-.303-.031-.575-.03-.302-.03-.484l-1.694.363.09.333-.846.968q-.454.544-1.029.696l.121.484q-.635 1.21-.363 2.873l-.393.484q-.272.03-.514.06H1.24q-.574 0-1.18-.12-.03-.575-.06-.908v-.423q0-1.12.303-1.906l.272-.12q-.06-.182-.06-.334 0-.786.907-1.936.756-1.028 1.633-1.482l.091.06q.514-.241.877-.392.393-.152.635-.212l1.029-.484-.605-.091Q3.6 12.04 3.085 11.525l.03-.181-.15.03q-.091.03-.273.03-.181-.03-.454-.06-.393-.394-.937-1.301Q.756 9.65.575 8.682q0-.06-.06-.454l-.092-1.15zm8.651-1.603l-.575-.212q.03.303.03.515.03.181.03.302 0 .787-.241 1.089.302.484.302 1.513 0 .332-.03.726-.03.363-.09.786.12-.06.272-.151.181-.121.423-.242l.151.151q.152-.484.363-.847.242-.363.484-.666-.03-.242.152-.635l.06-.03q-.12-.212-.212-.847-.03-.181-.181-.393-.121-.212-.272-.424-.152-.211-.303-.393-.12-.212-.151-.333zm-2.934.121l-.151.151q-.091.06-.212.182-.09.09-.212.242.091.181.091.393 0 .151-.09.514-.092.333-.092.484 0 .06.242.363.242.273.182.545l.423.211v-.181q.454-.212.454-.514 0 .03-.06-.152.03 0 .06.03.03.061.182.091-.182.091-.303.091-.423 0-.272-.907.03-.03.03-.182 0-.06-.06-.393-.03-.363-.091-1.059z"/></svg>
