<svg xmlns="http://www.w3.org/2000/svg" viewBox="0 0 21.039 17.806" fill="#FFFFFF"><path d="M11.642 12.779l-.538-.888c.03-.51-.23-.399-.362-.6l-.477-.787-1.167 2.305zM9.846.449c.2-.2.529-.35.988-.449.997 1.237 1.616 2.404 1.855 3.501l.479.15c.379.499.568.928.568 1.287 0 .22-.05.479-.15.778.16.1.34.22.54.36.219.139.468.318.748.538a623.734 623.734 0 012.903 5.237 514.18 514.18 0 013.262 5.866l-.45-.06c-.199-.04-.438-.05-.718-.03a25 25 0 00-.957.09c-.838.06-1.417.09-1.736.09-.698 0-1.267-.07-1.706-.21.04.06.06.1.06.12.02.02.02.01 0-.03-.02 0-.04-.01-.06-.03-.938.06-2.733.09-5.387.09-1.596.02-2.843.03-3.74.03-.878-.02-1.427-.02-1.646 0l-.36.03a52.224 52.224 0 00-4.339 0c.06-.58.429-1.397 1.107-2.455.699-1.097 1.277-1.685 1.736-1.765-.06-.44.409-1.536 1.407-3.292A648.072 648.072 0 005.596 7.87c.34-.579.529-.938.569-1.078l.658-.538c.1-.36.27-.778.51-1.257.238-.479.538-1.028.897-1.646a54.68 54.68 0 001.047-1.826c.28-.498.47-.858.569-1.077zm6.434 13.317h-.449c-.22-.259-.329-.409-.329-.449 0-.02.01-.04.03-.06-.02-.04-.15-.179-.389-.418-.04-.14-.12-.3-.24-.48-.12-.179-.179-.308-.179-.388 0-.1.03-.2.09-.3-.04-.18-.15-.359-.33-.538-.339-.46-.977-1.586-1.915-3.382-.758-1.476-1.486-2.534-2.184-3.172-.08.14-.759 1.267-2.035 3.382a23.138 23.138 0 00-1.108 1.945c-.279.578-.499 1.117-.658 1.616-.1.3-.33.558-.688.778-.48.28-.769.479-.868.598.08.54-.432 1.275-1.47 2.672.14.2.539.3 1.197.3h1.377c.08.039.14.059.18.059.1 0 .219-.07.359-.21l.15.51.269.239c-.06-.3-.06-.529 0-.689.379-.04 1.027-.09 1.945-.15.937-.06 2.154 0 3.65.18l.72.09.358.569c.2-.599.639-.898 1.317-.898l1.466.03h.719l-1.045-1.355zm-2.065.45c0 .02-.01.04-.03.06l-.06.059c-.02 0-.04.02-.06.06-.698 0-1.077.01-1.137.03-.16.06-.239.06-.239 0-.439-.12-1.317-.15-2.634-.09-.578.02-1.097.05-1.556.09-.439.04-.818.08-1.137.12-.12-.08-.22-.13-.3-.15l-.119.12-.12-.12-.12.12h-.06l1.51-2.908c1.003-.904.965-.721.496-.953L9.906 8.05l.688-.419-.09.12c.314.526.775 1.256.934 1.595-.556.262-.543.454.31.542.393.52.91 1.622 1.037 2.143.709.562.792 1.047 1.43 2.184z"/></svg>
