<svg xmlns="http://www.w3.org/2000/svg" viewBox="0 0 16.123 16.352" fill="#FFFFFF"><path d="M14.278 12.977q-.242.696-1.634 1.543-.181.242-.847.544-.635.333-.816.726-.152.242-.636.182-.484-.03-.665.242-.182.06-.363-.151-.182-.242-.303-.242-.09 0-.211.09-.182 0-.394-.211l-.907.635q-.272.06-.787-.09-.514-.182-.816-.092-.303-.12-.666-.574.091-.121.151-.605-.09-.152-.211-.152-.06 0-.242.121-.152.091-.242.091-.182.03-.424.09-.211.031-.484.152-.12-.272-.756-.575-.605-.332-.726-.605-.666-.786-1.603-2.45l.09-.726q-.544-.09-.605-.635.212-.212.182-.908-.06-.695.09-.937-.211-.182-.211-.515 0-.181.09-.574.091-.394.091-.575 0-.393-.211-.605Q0 5.959 0 5.778q0-.273.423-.696.454-.484.484-.696.303-.575.999-1.361.544-.696 1.119-1.3.272.03.817-.213.211-.483 1.089-.483.847-.03 1.089-.545l.302-.151q.151-.121.363.03 1.09-.544 2.087-.272l.726.756q.091.09.182.09.06 0 .181-.12.152-.121.242-.121l.726.242q.454.12 1.06.272.574.03 1.179.696.696.816.998 1.028 0 .06.363.545.242.393.242.635t-.181.423l.302.152q.182.09.333-.091.09.03.423.817l.091.453q.091.303.242.787.242.877.242 1.27 0 .575-.333 1.06-.06.18-.06.211 0 .151.121.423.151.273.151.424 0 .514-.665 1.543-.303.423-.575.786-.242.363-.484.605zm-6.262.605q-.333-.151-.696-.454-.06-.332-.393-.423-.06 0-.605-.696-.03-.09.212-.212.272-.15.242-.363-.151.061-.454 0-.181-.03-.242-.09-.03-.06-.03-.152v-.211q.03-.121-.03-.303-.333-.484-.333-.726 0-.12.181-.333.182-.211.152-.332-.333-.06-.636-.242-.03-.03-.09-.787Q5.203 7.14 5.203 7.2q0-.181.242-.514.151-.242.212-.363.09-.12.12-.212.061-.12.091-.211.03-.121.061-.303.09-.09.212-.12.12-.031.211-.061.121-.06.212-.152.121-.12.212-.363-.303-.12-.303-.393 0-.12.03-.302.03-.212.515-.666.181-.151.393-.333.212-.211.454-.423l.151.03q-1.512-.181-2.057.545-.423.242-1.452.09-.03.757-1.059 1.604-.847.665-.847 2.178 0 .272.091 1.3-.09.152-.06.878 0 .544-.333.695.242-.06.575.363.09.273.816.908.605.514.484 1.059.152.514.545.514.09 0 .302-.03t.303-.03q.333 0 .514.241.121-.09.303-.09.12 0 .302.09.182.091.363.212.182.091.363.212.182.09.303.09.151-.09.302-.06.182.06.242 0z"/></svg>
