<svg xmlns="http://www.w3.org/2000/svg" viewBox="0 0 11.949 20.738" fill="#FFFFFF"><path d="M11.767 5.263q-.272.121-.574.363-.273.242-.605.605-.363.424-.666.666-.272.242-.454.363-.393 0-.756.121.121.151.121.333 0 .332-.423.756l-.636.605-.151-.03q-.06.03-.242.181-.151.121-.454.424-.726.151-1.089.03.121.212.121.454 0 .574-1.421 1.633.211.151.635.635.423.515.726.605.181.303.272.605-.151.152-.181.333.12.151.242.333l.363.363q.12-.03.605-.03.574.302 2.268 2.238.03.151.152.454.302.09.877.605l.847.786.03.182q-.151.272-.726.817-.575.484-.665.937-.454.152-.605.091l-.545-.272q-.484-.998-.484-.938 0-.151.393-.847-.453.06-.998.272-.786-.332-.907-.937-.242-.152-.363-.575-.121-.484-.333-.545-.514.061-1.27-.665-.757-.726-.757-1.18.272-.12.575-.363l-.06-.06q-.273.06-1.543-.212-2.45-1.845-2.178-2.51l.937-.878q.605-.545 1.029-.696.03-.212-.06-.423-.636-.545-.636-.817 0-.212.121-.454 0-.181-.06-.363-.182-.06-.424.03l-.393.152Q1.149 8.288 0 6.988q.151-.152.393-.333.272-.212.605-.454l.212.091q.06-.303.151-.605.091-.333.363-.393.393.242 1.27 1.33.727.908 1.392 1.18l.272.363.182.03q.121-.211.907-.907l-.907-.847q-.303-.272-.424-.514-.12-.272-.15-.514-.455.06-1.423-1.059l-.03-.09q.091-.122.333-.273.06-.182.423-.333.394-.181.484-.393-.06-.454.212-.756.303.393.938.907.09.091.181.242.121.121.242.333l-.15.181-.061.03q0 .182.514.454.151-.272.333-.332.181.181.484.514.302.333.726.847.605-.151.695-.454-.211-.09-.242-.302l.454-.484q-.514-.394-.665-.999-.273.03-.908-.484-.575-.544-.786-.574l-.363-.817q.514-.938.847-.877Q6.746.15 7.018 0l.242.03 1.361 1.392q0 .211.212.393.665-.121.938.938l-.06.242.06.242q.151-.152.302-.152.272 0 .696.363.151.152.302.273.152.12.303.242.12.151.242.363.151.211.333.514-.06.242-.182.423z"/></svg>
