<svg xmlns="http://www.w3.org/2000/svg" viewBox="0 0 23.141 22.962" fill="#FFFFFF"><path d="M23.141 11.49l-.363 3.116c-.201.282-.454.807-.756 1.573-.262.726-.524 1.26-.787 1.603l-1.33 1.846c-.222.1-.545.292-.969.574-.403.263-.917.595-1.542.999a16.07 16.07 0 01-2.935 1.512h-.09c-.686 0-1.19.08-1.513.242-.755.072-.858-.47-1.368-.477-.344-.004 0 .524-1.203.477-.303-.141-.837-.272-1.603-.393-.746-.121-1.301-.272-1.664-.454-.282-.02-.887-.383-1.815-1.089a20.126 20.126 0 00-.968-.665 42.786 42.786 0 00-.998-.726 43.004 43.004 0 01-1.422-2.148c-.234-.182.314-.678.225-1.247-.267.075-.876.184-1.133-.387C.302 14.496 0 13.043 0 11.49 0 8.82.682 6.614 2.469 4.472c.68.143.922 1.035.583-.63.873-.965 1.932-1.874 3.18-2.727.08-.02.282-.081.604-.182L8.198.51C9.025.248 9.71.106 10.255.086c.428-.008.32.21.477.318.777-.133-.252-.555 2.638-.348.565.222 1.2.373 1.906.454l.393.302.575.03c.242.162.464.253.666.273.633.25 1.698.958 2.629 1.876.837.825 1.544 1.83 2.09 2.661.156.814-.226 1.275-.243 1.6-.012.25.597.05 1.03.608.463 1.27.695 2.168.695 2.693 0 .1-.02.211-.06.332zm-6.917-7.546c-.014-.036-.242-.188-.887-.41l-.908-.15c-.363-.081-.786-.172-1.27-.273l.171.42c.115.2.106.375-.182.487.21.129.44.135.608.555l.818 2c.247.395.005.569-.23.745.271.282.513.114.81.584.12.19.2.553.344 1.026l1.04 2.448c.156.576-.55.987-.55.987.307.254.797-.057 1.09.335l1.647 4.026c.275-.147.277-.218.453-.363.032.097.528.281.548.261-.207-.46-.276-.575-.124-.806l.302-.423c.384-1.291.648-2.564.575-3.812-.084-1.445-.003-1.632-.245-2.392-.19-.598-.442-.84-.728-1.379a16.265 16.265 0 00-1.072-1.685c-.638-.863-1.282-1.53-1.847-1.855-.21-.153.374-.378-.046-.404-.145-.016-.221.08-.317.078zm-4.699 1.708c-.126.354-.374.666-.554 1.144-.167.444-.262 1.047-.476 1.546-.15.35-.375.58-.527.978-.418.615-.779.351-.85.566-.07.21.41.3.562.697l-.57 1.467c-.235.605-.533 1.102-.798 1.776-.359 1.476-.753.707-.869 1.057-.131.396.566.01.062 1.26-.211.536-.454.994-.68 1.566-.103.261-.185.621-.291.89.565.303 1.447 1.15 3.176 1.452.579.148.658.357.75.37.47-.119.275-.287 1.407-.357.767 0 .515-.094 1.866-.376l1.694-.363c.061-.141.454-.383 1.18-.726l-1.221-3.063c-.215-.447 0-.464.221-.586.047-.255-.18-.271-.676-.573l-.917-2.632c-.2-.679.161-.915.046-1.305-.305-.19-.776.133-.9-.622l-.664-1.693c-.084-.288.136-.388.206-.58-.18-.088-.381.19-.537-.264zm-1.543-2.54c-1.431.362-2.208.503-2.329.423-1.152.506-2.106 1.458-3.072 2.699-.425.545-.882.29-1.014.51-.142.234.618.186.207.83-.75 1.179-1.06 2.548-1.263 3.916.1.142.151.283.151.424 0 .08-.02.202-.06.363.04.242.1.544.181.907.1.343.212.747.333 1.21l.423.666c.182.302.273.534.273.696 0 .06-.02.13-.061.211.444.323.665.575.665.757l.758-1.853.46-.868.402-1.24c.137-.416.324-.265.49-.357-.012-.254-.198-.479-.032-.763l.421-1.244.601-1.257.625-1.527.71-1.58.32-1.23z"/></svg>
