<svg xmlns="http://www.w3.org/2000/svg" viewBox="0 0 512 512" style="height:512px;width:512px" fill="#FFFFFF"><path d="M439 32v165h18V32h-18zm-18 13-93 35 93 35V45zm-255 58c-5 0-10 2-15 7-7 6-12 15-14 26-3 12-1 22 2 30 4 8 9 12 15 14 6 1 12-1 19-7 6-6 11-15 13-26 3-12 1-22-2-30-4-8-9-12-15-14h-3zm-38 79-11 4c-25 15-42 31-60 55-11 16-12 42-13 62l21 9c1-28 1-39 13-55 10-13 20-25 38-29 2 29-3 73-14 119 20 3 38 0 57-6 51-25 74-4 109 46l21-32c-25-29-49-75-117-58 5-27 5-45 8-72l1-36c-9 7-20 10-31 8-9-2-17-8-22-16zm144 7c-19 18-23 31-51 38l-22-24-2 39c10 9 19 16 23 15 31-9 40-20 61-42l-9-26zm137 26v96h-96v96h-96v78l270 2V215h-78zM141 364c-14 2-28 3-44 1-11 37-27 74-48 102l38 16c27-38 37-71 54-119z"/></svg>
