<svg xmlns="http://www.w3.org/2000/svg" viewBox="0 0 512 512" width="41" height="41" fill="#FFFFFF"><path d="M486 63a60 60 0 01-103 43A60 60 0 01425 3a60 60 0 0161 60zM151 82c13 0 26 5 37 13 4 4 8 8 10 13-17-4-35-5-53-7-4 0-10-1-14-3-3-2-1-5 0-7 4-7 12-9 20-9zm36-53l17 3c9 5 18 13 19 22-16-6-32-8-42-9l-9-4-1-2 3-4c3-4 8-6 13-6zm-80 107l13 1c17 3 35 12 43 25-25-3-47 0-61 0-7 0-13 0-16-2l-2-3v-7c1-7 6-10 12-13l11-1zm213-74c-28 1-56 19-77 37-39 37-66 88-68 143v143c-45 0-91-1-136 1-32 6-21 58 11 51h155c20-4 21-25 20-42v-98l102 64 1 133c5 34 57 22 50-10l-1-141c-2-19-24-25-37-35l-76-47c5-11 13-50 23-45l61 89c25 24 59-17 35-39l-62-90c7-5 30-32 33-21 1 19-1 38 3 56 9 21 33 16 50 18l78 3c32-4 24-57-8-52l-72-4c-2-23 6-44-13-52-22-10-38-31-41-55-13-8-19-7-31-7z"/></svg>
