<svg xmlns="http://www.w3.org/2000/svg" viewBox="0 -28 48 48" width="41" height="41" fill="#FFFFFF"><path d="M24.7-27.3c-6.6 0-12.1 5.1-14.4 11C8.3-11 8.3-5 10.2.2c-4 4.7-7 10.5-7.6 16.6.1 1.2-.6 3.9 1.4 3.4h42.5c1-5-1-9.8-3.2-14a35 35 0 00-4.1-6c3.2-8.5 1-19.3-6.6-24.8-2.3-1.6-5-2.6-8-2.6zm0 3.6c5.4 0 9.8 4.5 11.4 9.4.3 2 2.2 5.2-.4 6.1-3.1 0-2 3.3-2.6 5.4-.8 4-2.4 8.5-6.2 10.4-3 1.5-6.4-.6-8-3.2-2.2-3.5-3-7.7-3-11.8-2.4-.5-4.6-1.8-3.3-4.5 1-5.4 4.9-10.8 10.6-11.7l1.5-.1zm3.6 4.4c-2.5.7-2.2 4.3-.8 6 1.2 2 4.8 2.9 6 .4 0-2.5-3.8-3-4-5.6-.2-.4-.6-.8-1.2-.8zm-7.4 0c-1.9 1.2-2.1 4-4.6 4.8-1.8 2.5 2.6 4.2 4.3 2.4 2.2-1.4 3.4-5.3 1-7l-.4-.2zm3.8 8.8C22-10.5 21-7.4 21-5.2c.2 2.8.5 6 2.3 8.2 2.2 2 3.9-1.5 4.2-3.4.6-3 1.4-6.6-.8-9.2a3 3 0 00-2.1-.9z"/></svg>
