<svg viewBox="0 -28 48 48" xmlns="http://www.w3.org/2000/svg" fill="#FFFFFF"><path d="M13.6-24.1c-3.7 0-7 1.4-9.5 4.1A14.8 14.8 0 00.3-9.9c0 4 1.5 7.7 4.7 11.6 1.7 2 3.8 4 6.2 6.1l4.2-4.1L20 8.3 16 12l.7.6 5.4 4.6a2.8 2.8 0 003.7 0l5.4-4.6C36 8.7 40.2 5 43 1.7c3.2-4 4.7-7.6 4.7-11.6 0-3.9-1.3-7.5-3.7-10.1a12.7 12.7 0 00-9.5-4.1 12 12 0 00-7.5 2.5c-1 .9-2 2-3 3.2-.9-1.2-1.9-2.3-3-3.2a12 12 0 00-7.4-2.5zM16 12l-4.9-4.3-4 4a3.3 3.3 0 004.6 4.6l4.3-4.3zm21.5-30.3h.3c.4.2.7.5.8.8A19.3 19.3 0 0133.6 1l-9 9-7.8-7.7 20-20c.3-.3.6-.4.8-.4z"/></svg>
