<svg xmlns="http://www.w3.org/2000/svg" viewBox="0 -28 48 48" width="41" height="41" fill="#FFFFFF"><path d="M47-27.7h-1c-3.2 0-6.6-.1-9.4 1.7-1.6.3-2.6 3.3-4 2.5A20.1 20.1 0 0 0 9-24.2a20.3 20.3 0 0 0 9 36.9V20h6.4v-7.7c2.7-.6 5.4-1.7 7.6-3.4 1.3 1.3 3 3.5 5.4 3.7 3.5.2 7 0 10.5 0V9.2h-4.8c-2-.2-4.3.4-6.2-.4-2-1-2-3.3-1.9-5.1h3.4c1.8.4 3-2.2 1.5-3.3C38.7-.4 37 0 35.8 0c-1.5.4-.4-1.7-.9-2.4-.7-2.6-5 .2-5-2.8 1.4-3.5 3.1-5.7 4.4-10.2-.1-2.9 1-6 3.7-7.3 3-1.8 6.6-1 10-1.2v-3.5c-.2-.3-.5-.3-1-.2zm-33.3 5.1a7.8 7.8 0 0 1 3.7 7c.7 4 3 6 4.2 9 1.5 2-1.2 3.6-3.2 3-2 0-1.9 1.9-1.8 3.4-.5.3-1.6 0-2.4.1-2.3-1-4.7 2.5-1.9 3.6 1.4.2 2.8 0 4.2.1.3 1.2.3 3.3-.9 4.4l-.3.3A16.6 16.6 0 0 1 4-4.9c-1.2-7.3 3-14.9 9.8-17.7zm-3.8 7.8c-.4 0-.8.1-1.1.4-2.3 1.1-1.5 4.4 1 4.6 1.4.2 2.8-.3 3-1.7.6-1.8-1.2-3.4-2.9-3.3zm31.7 0c-.6 0-1.1 0-1.6.4-2 1.2-1.5 4.2.8 4.5 1.4.3 3-.1 3.4-1.5.5-1.8-1-3.3-2.6-3.4z"/></svg>
