<svg xmlns="http://www.w3.org/2000/svg" viewBox="0 0 512 512" style="height:512px;width:512px"><path d="M0 0h512v512H0z" fill="none"/><path d="m181 23-18 6 25 75 18-6-25-75zm74 79-105 35 10 30c8-10 18-17 28-23 7 27 17 54 28 80 13-6 26-11 40-14-7-27-16-53-26-79 11-2 23-1 35 0l-10-29zm191 88c-19 0-42 10-61 28l-14 19c-29-18-70-19-111-8v-1c-12 3-24 8-36 13-87 38-152 124-48 202H46l-29 52h280l-96-112c26-29 73-48 105-49 15 49 40 123 78 161h67c-47-51-84-119-89-196 1 4 4 7 6 10 21 20 61 13 91-17s37-71 17-91c-7-8-18-11-30-11z"/></svg>
