<svg xmlns="http://www.w3.org/2000/svg" viewBox="0 0 512 512" style="height:512px;width:512px"><path d="M0 0h512v512H0z" fill="none"/><path d="M256 44c-22 0-50 3-85 11l5 11c160-38 179 52 72 74-51 11-60-30-4-37 20-3 40-1 56 3 3-3 6-7 7-13-19-5-41-6-63-4-92 11-80 82 12 65 85-16 122-111 0-110zM123 56c-10 0-23 4-37 11-24 12-39 31-34 41l1 1 1-1c15-26 56-50 85-46-2-4-8-7-16-6zm-60 70c23 23 101-23 87-46-15-25-104 29-87 46zm275-19-8 13-2 2c20 18 21 48-11 88 57-46 52-82 21-103zm21 126c-30 34 21 70 21 70l-3 33-53-30s19 69 14 117a32 32 0 0 1-42 26l-21-7-1-9 9 1c6 1 13 0 18-4s8-9 9-15v-8c-2-2-3-3-5-3l-72-11 10 56h-1l70 25 47-7 27 24h105v-63l-43-28 3-59-23-53zm-108 9-26 31 84 9 2-16c0-4-1-9-4-12-3-4-7-6-12-7l-44-5zm-16 50-7 34 80 16 3-16c2-10-4-19-14-21l-62-13zm-3 50-7 33 76 16 4-16c2-9-4-18-14-20l-59-13z"/></svg>
