<svg xmlns="http://www.w3.org/2000/svg" viewBox="0 0 512 512" style="height:512px;width:512px"><path d="M0 0h512v512H0z" fill="none"/><path d="M256 41c-52 0-100 4-134 12-17 3-30 7-39 12l-9 5-1 2 1 2 9 6c9 4 22 8 39 11a696 696 0 0 0 268 0c17-3 30-7 39-12l9-5 1-2-1-2-9-5c-9-5-22-9-39-12-34-8-81-12-134-12zm183 31zm0 0zM73 96c0 31 2 54 11 79 5 12 12 25 23 39L73 96zm366 0-34 118c11-14 18-27 23-39 9-24 11-48 11-79zm-345 7 34 118 26-106a464 464 0 0 1-60-12zm324 0a264 264 0 0 1-60 12l27 106 33-118zm-253 13 43 130 36-125c-28 0-55-2-79-5zm182 0c-24 3-51 5-79 5l37 125 42-130zm-91 28-42 145a575 575 0 0 0 85 0l-43-145zm-95 18-23 90 27 28c7 3 20 6 35 8h3l-42-126zm190 0-42 126h3c15-2 28-5 35-8l27-28-23-91zM167 300l-6 35c23 10 59 16 95 16s72-6 95-16l-6-35a502 502 0 0 1-178 0zm-9 53-21 126 5 3a560 560 0 0 0 232-3l-20-126c-27 11-62 16-98 16s-71-5-98-16z"/></svg>
