<svg xmlns="http://www.w3.org/2000/svg" viewBox="0 0 512 512" style="height:512px;width:512px"><path d="M0 0h512v512H0z" fill="none"/><path d="M118 26a15 15 0 0 0-5 1c-5 2-10 7-12 16-3 8-2 20 1 32 4 12 11 21 18 26 8 6 14 7 20 6 6-2 10-7 13-16a61 61 0 0 0-20-59c-5-4-11-6-15-6zm184 13c-4 0-7 1-8 5l-14 25-27 32s-54-9-72-7a519 519 0 0 0-11 2c-4 13-12 24-24 28-12 3-24 0-34-7l-13 13c-18 14-26 25-42 35 3-15 11-30 19-42l13-13c8-14-8-41-23-15-2 2-8 18-9 21-15 29-24 47-16 76 3 10 31-5 56-22 26 37 59 48 78 63-23 83 10 147 29 208l-29 36c-9 10 49 13 52 0l8-33c-29-91-3-158 18-208 55-59 115-82 169-129l45-10c11-19 10-29-14-30l-45 17c-56 32-146 54-186 98-1-14-18-47-21-58 19 2 46 4 60-3 16-7 34-41 34-41l20-14c17-10-1-28-13-27z"/></svg>
