<svg xmlns="http://www.w3.org/2000/svg" viewBox="0 0 512 512" style="height:512px;width:512px"><path d="M0 0h512v512H0z" fill="none"/><path d="M400 16c-21 10-58 17-73 48A277 277 0 0 0 73 318l-1 4-2 2c-31 25-41 39-45 61-3 21 0 52 0 102h303c4-17 11-29 13-42 2-14 0-30-21-58-43-59-47-130-13-171-9-3-15-7-19-13-6-8-8-17-9-26l18-2c1 8 2 14 5 17 2 3 7 7 19 9l1-1 6 10c20 31 42 51 73 54l6 1 2 6c3 13 8 20 15 23 6 3 14 3 20 0 10-4 15-11 17-23 2-11 1-26-5-42-34-38-45-87-64-129-6-10-12-18-20-25 5-20 14-40 28-59zM214 35c-34 0-68 8-118 24 31 9 70 18 86 39l13-9c41-24 81-35 109-40-36-9-63-14-90-14zm-57 62h-3c-31 0-63 9-97 31 27 4 55 4 73 15 16-18 33-32 50-44-7-2-15-2-23-2zm211 31a13 13 0 0 1 13 13 13 13 0 0 1-13 13 13 13 0 0 1-13-13 13 13 0 0 1 13-13zm-239 16c-36 2-69 7-105 25 34 7 51 13 65 34 12-23 25-42 40-59zm-54 57c-21 1-38 12-59 23 28 0 46 4 59 12 4-12 9-23 14-33l-14-2zm-1 37c-18 6-36 7-54 23 17 4 34 9 41 22l13-45zm370 9h5l-2 18h-5l-1 6-18 2c-1-9 1-17 7-21 4-4 9-5 14-5zM52 291c-10 0-24 5-34 12 12 7 12 24 8 38 8-9 17-19 30-29l3-20-7-1z"/></svg>
