<svg xmlns="http://www.w3.org/2000/svg" viewBox="0 0 512 512" style="height:512px;width:512px"><path d="M0 0h512v512H0z" fill="none"/><path d="M262 18c-52 0-95 46-95 103 0 58 43 103 95 103s95-45 95-103c0-57-43-103-95-103zm-59 142c13 3 26 6 39 7v19c-14-2-29-4-44-8l5-18zm117 0 5 18c-14 4-29 6-44 8v-19c13-1 26-4 39-7zm-160 15A267 267 0 0 0 44 395a25 25 0 0 0 25 31h180V302c-26 5-46 29-46 63v9H103v-18h13c3-36 26-78 45-102l15 12c-16 19-37 62-41 90h50c4-42 35-73 73-73 35 0 69 29 74 73h56c-5-29-26-71-42-90l15-12c18 24 41 67 46 102h11v18H315l-1-9c-1-35-23-58-47-63v124h182a25 25 0 0 0 24-31c-6-93-39-166-111-217-19 39-57 65-100 65-45 0-83-28-102-68zm-20 270 10 47h220l9-47H140z"/></svg>
