<svg xmlns="http://www.w3.org/2000/svg" viewBox="0 0 512 512" style="height:512px;width:512px"><path d="M0 0h512v512H0z" fill="none"/><path d="M65 18a214 214 0 0 0 81 295l1-21A197 197 0 0 1 87 18H65zm69 0a159 159 0 0 0 20 233l6-19a141 141 0 0 1 1-214h-27zm211 0a141 141 0 0 1 4 211l5 20a160 160 0 0 0 17-231h-26zm73 0a195 195 0 0 1-58 273l1 21a216 216 0 0 0 79-294h-22zm-165 3a105 105 0 0 0-74 178c4-5 8-9 14-13a86 86 0 1 1 122-2l14 12a104 104 0 0 0-76-175zm-4 55c-22 3-41 28-41 60 0 18 6 34 15 45l10 12-16 3c-11 2-20 9-28 19-7 10-13 24-17 40-7 30-8 66-9 97h39l1 9 10 133h84l8-133 1-9h37c0-32 0-68-7-98-3-16-9-30-16-40-8-10-17-16-30-19l-16-2 10-13c9-11 15-26 15-44 0-34-22-60-46-60h-4z"/></svg>
