<svg xmlns="http://www.w3.org/2000/svg" viewBox="0 0 512 512" style="height:512px;width:512px"><path d="M0 0h512v512H0z" fill="none"/><path d="M253 21a243 243 0 0 0-115 31 235 235 0 1 0 352 196c-3 66-36 129-91 170a216 216 0 1 1 26-296l-32 23a174 174 0 0 0-139-67h-3a174 174 0 1 0 178 187c-13 46-43 87-86 115l-10 6a155 155 0 1 1 44-230l-39 28a106 106 0 0 0-134-24 106 106 0 1 0 150 131c-18 21-44 37-74 44a87 87 0 1 1 42-140l-41 29c-5-5-12-8-20-8a31 31 0 1 0 31 28l120-57 4-2 62-30 9-4-5-9-20-34-5-8-8 6-8 5c-46-59-117-91-188-90z"/></svg>
