<svg xmlns="http://www.w3.org/2000/svg" viewBox="0 0 512 512" style="height:512px;width:512px"><path d="M0 0h512v512H0z" fill="none"/><path d="M251 19c-42 0-80 25-109 68S95 189 95 255s18 126 47 169c29 42 67 67 109 67 43 0 81-25 110-67 29-43 47-103 47-169s-18-125-47-168-67-68-110-68zm-52 162a80 80 0 0 1 31 6l-7 17c-31-13-60-2-80 31l-16-10c17-28 43-44 72-44zm104 1c28 0 55 16 72 44l-17 10c-19-33-48-43-80-31l-7-17c10-4 20-6 30-6h2zm-51 64c53 0 96 50 96 111 0 62-43 112-96 112s-96-50-96-112c0-61 43-111 96-111zm-19 54 2 14 11 79c-7-3-14-4-21-4-21 0-37 11-35 26 2 14 21 26 42 26s37-12 35-26h1l-10-67 40 13 12 5v-45l-6-2-58-16-13-3z"/></svg>
