<svg xmlns="http://www.w3.org/2000/svg" viewBox="0 0 512 512" style="height:512px;width:512px"><path d="M0 0h512v512H0z" fill="none"/><path d="M420 20c38 49 20 88-39 91 15-24 18-51-2-73 16 38-14 63-50 68l-14-4c-60-15-114 23-137 79 0-34 10-68 30-102-50 35-76 89-73 166l-59-65 14 194 164 120 139-104 52-197-93 72c-23-26-13-55 34-50-38-22-65-3-76 24-6-28 18-63 50-59 77 11 152-107 60-160zM120 272l95 73-103-21 29-3-21-49zm255 12-10 26 27-1-12 24-96 14 91-63zm-171 76 43 63 11-44 18 32 56-48-7 24 52-21-55 62 10-30-76 71-48-55 3 28-74-78 61 30 6-34z"/></svg>
