<svg xmlns="http://www.w3.org/2000/svg" viewBox="0 0 512 512" style="height:512px;width:512px"><path d="M0 0h512v512H0z" fill="none"/><path d="M374 18c-16 0-28 5-33 15-23 50-49 87-79 117l9 4c13 7 25 18 35 31s18 28 21 44l1 11c39-24 85-41 141-51 15-3 24-29 21-59l-35-1 31-24c-4-15-11-29-21-41-16-18-37-31-57-39l-26 16 3-22-11-1zM247 167h-3c-12 10-25 20-38 28l3 1c14 7 27 17 38 31 13 16 24 37 26 58 10-11 21-20 32-29 5-7 5-14 4-24-3-11-9-24-18-36-8-11-19-20-29-25-6-3-11-5-15-4zm-62 43h-4a916 916 0 0 1-126 57c11 1 22 5 32 10l37-16-15 33 17 18a234 234 0 0 1 53 119c21-49 45-89 73-123 7-22-3-49-19-69a94 94 0 0 0-32-26l-16-3zm142 55-22 16c39 9 61 36 81 62 10 14 20 28 33 41 24 9 43 6 64-15-92-28-96-93-156-104zM49 285c-11 0-19 6-24 17-6 12-7 32 1 57 5 18 16 37 28 51 13 14 26 22 36 23 4 0 6-1 9-3h-1l3-2 2-5c3-7 3-18-2-33-7-19-19-32-33-34l-23-5 19-12 39-25a91 91 0 0 0-50-29h-4zm236 5-25 26c101 18 56 141 160 176l-25-57c33 16 67 22 98 12-136-42-97-127-208-157zm-170 39-26 16c14 8 24 22 30 39 2 7 4 14 4 21l24-23c-8-20-19-38-32-53zm39 72-42 42c-5 4-10 7-16 8 24 15 45 19 57 9 4-3 7-8 9-14-1-13-3-27-7-41l-1-4z"/></svg>
