<svg xmlns="http://www.w3.org/2000/svg" viewBox="0 0 512 512" style="height:512px;width:512px"><path d="M0 0h512v512H0z" fill="none"/><path d="M336 19c-41 0-76 36-89 51a412 412 0 0 0-135-1C89 51 65 37 39 32 13 45 21 66 27 87c34-3 68 8 103 24l22 16c10 36 15 72 17 107-25 5-74 20-88 59l57-8-61 30c-2 28 4 51 12 72l39-41-29 63c12 28 25 53 26 83l44-41-9-58 22 47c17-17 32-33 42-54l-37-56 45 30v-3c11-56-31-107-44-122-1-29-5-59-12-90 40 33 78 72 113 116-8 28-12 52-14 72l32-29-31 62c4 24 14 40 29 51l25-46-9 57c17 9 37 16 59 25v-48l18 55c18 8 38 18 57 32 3-29 3-57 0-84l-54-21 52 4c-4-26-11-50-21-70l-60-14 47-8c-22-30-52-48-95-48l-18 1A730 730 0 0 0 144 98l-13-13c39-5 77-3 115 4 7 18 24 52 52 69l-7-53 30 63 9 1c59 6 98-45 159-38-19-9-31-22-43-35h-68l52-20c-15-17-30-34-56-47l-49 30 26-39-15-1z"/></svg>
