<svg xmlns="http://www.w3.org/2000/svg" viewBox="0 0 19.63 18.82"><path d="M19.63 1.54q0 .49-.3 1.4-.24.09-.4.09-.14 0-.45-.1-.27-.09-.42-.09-.55 0-.94.3-.18-.02-.54.07-.34.06-.49.06-.3 0-.78-.03-.46-.06-1.06-.18-1.3-.25-1.82-.25-.18 0-.6.1-.4.05-.6.02l-.28.6.42.67q-.06.19-.06.55 0 .24.03.6.03.37.1.85l.09.85q.06.33.06.57l-.34.6q.1.25.1.55 0 .49-.19 1.06l.27.82q0 .27-.18.78-.15.52-.15.8 0 .17.03.44l.06.55.1.57q.05.25.05.43l.46-.58q.3-.33.72-.75l.58.03q1-1.85 2.15-2.82l.15.1q.18.69 1.33.63l.94 1.06-.16.45-1.36 1.18q-.84.7-1.48 1l-.4-.06-.3.67h-.6v.54q-1.03 1.42-3.39 3.15-1.51-.3-2.54-2.1l-.33.04q-.36 0-.76-.15-.36-.18-.66-.46-.3-.3-.52-.63-.18-.36-.18-.73l-.4-.3-.54-.42h-.51l-1.42-1.18q-.82-.64-1.06-1.49.7-.66 1.27-.87l.54.33.34-.42q.42.42 1.42.93l.45.82.27-.06q1.79.97 2.27 2.03l.55.12q.12-.27.12-.76 0-.18-.06-.45-.03-.3-.1-.58-.02-.3-.08-.57-.03-.3-.03-.49 0-.27.03-.66.03-.42.09-.94l.09-.9q.03-.43.03-.7l.36-.27 1 .51.45-.64-.3-.24-.9-.18-.52-.75.06-.3.15-.1q-.27-.4-.27-1.06l.03-.72q.06-.52.06-.76l-.21-.6-.79.12-.9-.1-.07-.24-.54.16q-.18 0-1.36-.34-1 .4-1.76.4h-.54q-.3 0-.73-.03-.78-.06-1.24 0l-.18-.4q.21-.72.21-1.09L0 .73.03.54q.3-.09 1-.18l.45.4q.94-.6 1.12-.6h4.18q-.3 0 1.24.26L8.2.7q.45-.3 1-.43l.2.1.76-.13.34.18-.18.52 1.33-.67.3.03q.27 0 .79-.15.54-.15.81-.15.3 0 .73.06.42.03 1 .1l1 .08q.42.03.72.03l.06.46 1.18-.49q.42 0 1.12.1l-.03.5q0 .1.15.37.15.24.15.33z"/></svg>
