<svg xmlns="http://www.w3.org/2000/svg" viewBox="0 0 27.355 17.797"><path d="M4.09 17.34l-.077-2.358-.001-1.903-.716-.083-1.388.001H.618L0 12.91l.083-.978L0 10.99c.39.012 1.225.214 1.621.215.272 0 .1-.19.385-.215h2.006l.037-2.063.272-.343-.272-.496.006-2.27-.011-1.968c.2-.285.14-.824-.033-1.02L4.013.046h.364l.365.304 2.16 2.04c-.109.1.131.42.135.635.004.207-.238.313.126.287.16-.011.114-.44.408-.498l2.55 1.008.838.266 1.26.07c.375.317.832.838.73-.04l.033-2.02.343-.205.082-.195-.259-.021-.156-.191.023-1.41.483-.077h.967l.484.077.033 2.022.033 2.02.73.04 1.275-.067.785-.26c.76-.217 1.445-.473 2.038-.824l.505.016.182-.422C21.38 2.1 22.066 1.44 22.72.78l.712.073.394-.228.072 2.346-.04 3.17.031 5.517 1.733.034 1.732.034v.405l-.077.97-.078.563h-1.017l-1.016-.304-.304-.304-.304.304-.365.304h-.365v2.067c-.435.613-.452.351 0 .447v1.62H21.91l-.087-1.338c-.096-.42-.205-.827-.33-1.22.393-.194.488.022-.106-.319a10.282 10.282 0 00-.527-1.257 6.295 6.295 0 00-1.472-2.086l-.302-.623-.363.035c-.946-.58-1.852-1.188-3.353-1.384-.858-.03-1.593-.132-2.736 0-1.258-.11-2.074.442-3.035 1.013-.556-.308-.448-.054-.48.37-1.078.728-1.768 1.703-2.365 2.736-.395.581-.54 1.287-.674 1.998l-.217 1.33-.141.494-.35-.083-.622.334-.659-.456zm4.663-8.126c.301-.188.57-.496.923-.526.5-.044.718-.22.877-.418.441-.547 1.72-.544 2.408-.737l-.014-.678v-.669c-2.136-.62-3.761-.464-6.504-2.005l-.63-.1-.007.9.057 2.604.041 3.523.539-.12 2.31-1.774zm13.038.276l.043-2.21-.004-1.036.466-.516-.47.037-.004-.916-.123-.584-1.234.581c-1.176.749-2.775 1.068-4.479 1.28h-1.033v1.459h.73c1.133.254 2.253.643 3.342 1.337l2.757 2.452.025-1.51c.564-.292.597-.066-.016-.374zm-9.512 3.505c-.162-.393.188-.94.546-1.311.358-.37 1.026-.7 1.52-.695.495.005.81.162 1.167.56.358.4.7 1.254.64 1.81-.059.555-.414.942-.751 1.22-.338.28-.628.456-1.117.422-.488-.035-1.34-.386-1.527-.84.145-.567-.097-.908-.478-1.166z"/></svg>
