<svg xmlns="http://www.w3.org/2000/svg" viewBox="0 0 19.814 20.615"><path d="M19.814 10.36q-.152.545-.152.908v.06q0 .454-.12.848-.061.363-.303 1.028-.242.726-.242 1.12-.212.423-.666.786l-.03.847q-.696 1.633-2.54 3.085-1.967 1.573-3.722 1.573-.514 0-.968-.181-.15-.242-.393-.242-.242 0-.635.181-.242.121-.393.152-.151.06-.182.09-1.059-.393-1.422-.393-.242 0-.453.09-.515-.18-.908-.302-.363-.12-.665-.181-.696-.484-1.21-.877l-.908-.696q-1.452-1.18-1.906-1.815l-.726-1.392Q0 13.204 0 10.603q0-1.936.726-4.387l1.15-1.663q.604-.908 1.451-1.331l.968.393-.393-.877q.151-.696.998-1.15Q6.201.923 6.322.802q.272-.03.575.302l.454.545q.03-.333.06-.726.06-.394.242-.545.363-.302 2.36-.363.817-.03 1.452 0 .635 0 1.089.06l.817.394q.06.272-.03.423 0 .303.362.333.303-.06.394-.151.937.786 1.815.998.484.393.998 1.09.514.695 1.12 1.663 1.39 2.299 1.39 3.69 0 .333-.09.605.06.242.181.575.151.303.303.666zm-3.177-.362q.03-.091.03-.303 0-.302-.271-.998-.242-.726-.242-.998 0-.242.09-.424l-1.028-1.24q-.635-.756-1.24-.998l-.878-.817q-.514-.514-.574-.998-.091.211-.303.484l-.181.06q-.424-.09-.878-.09-.181 0-1.391.09-.787.03-1.392-.06-.181.15-1.028.242-.605.03-.908.514-.605.423-1.3-.06.12 1.149-.454 1.451-.605 1.24-.817 1.543-.575.847-1.21 1.24l.303.726.242.121q.03.908-.212 1.12-.06.03-.212.03-.151 0-.393.03l1.15.514q-.091 1.24.998 4.114.363.121 3.66 1.997.12 0 .938-.091.302-.03.544-.03.273-.03.484-.03 1.3 0 1.906.635.12-.363.514-.877.363.03.847-.363.514-.424.817-.424.12 0 .212.03h.09q.212-.181.575-.847.394-.726.484-.816.787-.787.968-2.057.03-.273.03-.878.031-.605.031-1.542zm-3.6-.817q.273.877.273 1.573 0 .544-.181 1.12-.152.574-.152.695 0 .272.03.333.031.181.092.09l-.061-.09q-.12 0-.424.272-1.18 1.089-2.722 1.089-1.12 0-1.543-.242-.333-.242-.665-.514-.303-.273-.635-.545V12.6q-.091-.06-.212-.151-.091-.121-.212-.242l-.635-2.057q-.06-.182 0-.484.09-.303.242-.635.181-.333.423-.636.272-.332.605-.605 1.21-.968 2.511-.968-.06 0 .998.091.212.272.756.666.243.06.394.15l.302.152q.514.272.817 1.3zm-1.784 1.543q0-.696-.454-1.15-.423-.484-1.15-.484-.06 0-.12.06l-.06.243q-.878 0-1.271 1.028l.272.182q-.06.09-.121.574.06.121.786.847l.03-.06q.061.03.152.06.09.03.212.06l.03.031.09-.06q.031.06.213.03h.06l.394-.363q.181 0 .635-.182 0-.12.151-.393.151-.272.151-.423z"/></svg>
