<svg xmlns="http://www.w3.org/2000/svg" viewBox="0 0 14.278 14.242"><path d="M9.922 2.551q0 .756-.06.877-.061.545-.303.847-.06.03-.182.121-.12.091-.363.303-.332.272-.514.272-.12 0-.333-.09l-.06-.031q-.151 0-.151.09l.06.092q-.151.242-.454.272-.453.03-.514.09-.363-.06-.665-.181-.696-.242-1.029-.484-.09-.302-.696-.817-.06-.242-.12-.574-.061-.363-.122-.817 0-.545.303-.756.151.06.484-.03 0-.03-.212-.273-.212-.242-.151-.393l.423-.454.242-.181q.242-.121.636-.212.423-.09.937-.212.212-.03.515.03l.06.121q0 .091-.03.273 0 .15-.03.393.12.03.302-.272.242-.333.363-.242.151.12.363.332.212.212.484.454.575.545.454.908-.121.242-.121.211.484 0 .484.333zm4.235 10.043q-.09.212-.424.696-.332.151-.937.726-.152.151-1.18.211-.363 0-.998-.242-.242.061-.333.061-.393 0-1.059-.938-.12-.12-.12-.302.12-.273.15-.696-.211 0-.484-.182-.06-1.27.333-1.694.121-.423.968-1.028.575-.665 1.543-.544.242.06.212.09.06-.181.332-.06.878.363 1.09.937v.242q.03.121.06.273.06 0 .212-.06.15-.092.272-.061.423.393.484 1.3 0 .061-.03.394-.03.302-.091.877zM5.475 10.9q0 .817-.665 1.21.06.09.151.242.09.121.151.303 0 .03-.06.15-.091.061-.242.243-.152.151-.363.454-.303.423-.696.484-.545.363-1.15.211-.09-.12-.514-.272-.393-.121-.454-.242-.03-.151-.12-.423-.03.06-.122.181-.06.121-.181.272-.242-.06-.787-.877-.272-.756-.211-.998.393-.393.363-.605-.06-.151-.121-.151-.06 0-.303.15-.151.061-.151-.06 0-.151.03-.211l.454-1.21q.212-.545.756-.787.151-.06.363-.151.242-.091.575-.151.181 0 .363.211.121.363.302.393 0-.574.273-.635.06.03.242.091.181.06.453.212Q5.203 9.962 5.475 10.9z"/></svg>
