<svg xmlns="http://www.w3.org/2000/svg" viewBox="0 0 21.689 10.557"><path d="M21.659 5.415q.03.09.03.332 0 .454-.302 1.18-.303.726-.303 1.15-.06.181-.726.453-.635.273-.635.454 0 .121.09.242-.18.242-.665.514-.454.273-.605.394-.665.211-3.206.302-.03 0-.182-.242-.151-.242-.302-.242-.06 0-.273.121-.181.09-.302.09-.151 0-.696-.271-.514-.333-.696-.273-.302-.211-.726-.574-.393-.363-.907-.938-.666 0-.575-.03l-.635.695q-.303.363-.635.696-.847.756-1.755.817-.212 0-.665.12-.424.092-.636.092-.423 0-.635-.212l-.605.212q-.181.06-.272.06-.182 0-.303-.12-.665-.213-1.028-.334-.363-.12-.484-.181-.817-.363-1.18-.998-.968-.787-.968-1.392-.272 0-.696-.514Q0 5.898 0 5.173q0-.757.181-1.09.363-1.27 1.483-2.056.06.03.181.06t.272.06q.061-.12.061-.15 0-.091-.09-.273-.061-.212-.061-.333 0-.15 2.601-1.391l2.783.212.424.423q.272.272.423.272.182 0 .272-.03.999.514 2.27 2.45.362.03.907-.695l.847-1.15q.453-.635 1.21-.635.06 0 .181.03.151 0 .303.03.181.061.332-.06.152-.151.121-.333 1.27-.423 1.876-.423.605 0 1.15.272.09-.03.241-.03.363 0 .757.302l.09.726q.817-.09.999-.06.544.393.847.907l.756 1.18q.151.242.06 1.028-.09.787.182.999zm-2.42.695q-.03-.15-.272-.484.06-1.089-.454-1.905-.514-.817-1.573-.817-.666 0-2.148.454-.302.453-1.089 1.15-.847.755-1.059 1.179.091.302.666.665.575.363.665.545.152.181.878.665.756.484.937.908.212-.151.666-.242l.726-.151q.817-.575.847-.666.484-.333.423-.907.212-.394.787-.394zM9.408 5.9q.06-.182.06-.212 0-.121-.242-.363t-.272-.333q-.151-.12-.393-.302-.212-.212-.484-.545-.484-.605-.787-.817-.817.061-1.815-.907-.181.302-.938.756-.756.393-.907.696-.424.151-.968 1.391l.06.666q.091.423.485.423.332.666.453.847.333.424.847.454.152-.03.666.333.484.363.605.363.151 0 .393-.182Q7.502 7.895 9.408 5.9z"/></svg>
