<svg xmlns="http://www.w3.org/2000/svg" viewBox="0 0 20.947 18.695"><path d="M20.903 17.363q.12.424-.091 1.09-2.3.393-4.023-.122l-.363.333q-1.301.182-2.027-.696l-1.422.696q-2.843-.03-6.05-.09-3.206-.061-6.806-.122L0 18.18q.121-.151.393-.726l.787-1.573q.756-1.482 1.452-2.117.09.03.332.03.212 0 .303-.03-.242-1.24 1.966-5.052Q7.441 4.87 8.591 4.265l-.121-.484q.212-.635.968-2.057Q10.315.121 10.678 0q.605.393 1.452 1.936.847 1.482.847 2.36 0 .211-.03.302.635.272 2.178 2.904 1.815 3.146 2.087 3.448l.151.817q.757.877 1.815 2.723 1.301 2.329 1.725 2.873zm-4.78-1.663v-.212q-.363-.333-.665-1.21-.394-.968-.666-1.24-.212-.605.121-1.18-.242-.242-.726-.333-.151-.212-.575-.877-.393-.696-1.089-1.845-1.028-1.755-1.905-2.602-.152.303-.605.998-.454.696-1.21 1.755-1.15 1.694-1.543 2.934-.121.363-.575.666-.665.423-.786.544.151.726-1.24 2.541.241.242 1.058.242h1.21l.454.424.121-.121.242.211q-.03-.363 0-.574 1.028-.152 4.9.03l.636.635.302-.09q.272-.757 1.15-.757h.998l.363.03.12.03z"/></svg>
