<svg xmlns="http://www.w3.org/2000/svg" viewBox="0 0 17.663 18.222"><path fill="#fff" d="M7.558 0v1.094l.067.719c-.003 1.011.464 1.015.72 1.471.039.397-.799-.112-.787.91.046.443.124.911 0 1.212H6.514c-2.213.007-2.038.419-3.194 0H.721s-.584-.003-.645.07c-.084.1-.08 1.497-.073 2.057.04.117.23.401.44.437l1.186-.004c.152-.01.066-.33.188-.371.274-.095.773.088 1.535.371.497-.087 1.246-.06 2.066 0h1.159c.327-.085.91-.91.981-.254.04.657.128 1.625 0 2.088 0 .392.105.79.114 1.185.007.32-.076.64-.114.944.008.421.075.842.073 1.264 0 .257-.067.514-.073.771.08.748.069 1.404 0 2.004.087.924.042 1.382.018 2.085 0 .12.188.16.275.145.345-.06.537-.215.768-.22.583-.015.466.259 1.5.243-.018-.624-.04-1.237 0-2.033-.023-.888-.062-1.755 0-2.756-.602-.68-.417-.83-.023-.837l.023-2.294c-.065-.49-.02-.981 0-1.472v-.863c-.216-.393 1.23 0 1.844 0 .578-.051 1.15-.12 1.785 0l1.293-.188.68.188h1.942v-2.56h-1.254l-.217.388-1.38-.388c-.794.05-1.592.095-2.473 0l-1.148.033c-.36-.006-1.05.927-1.072-.033V4.382a6.103 6.103 0 010-1.033c-.623-.101-.01-1.328 0-2.004L9.94.011l-.975.1zM1.043 9.183l-.213.21.098 1.041-.092 1.338c.009.03.041.07.074.06.158-.054.64-.206.914-.142.114.027.283.207.283.207.684.003.916.207 1.416.466.448.167.019.546-.155.809 0 .415-.184.773-.479 1.003-.076.272-.443.296-.782.268l-1.134-.002-.165.173c.006.554.057 1.1 0 1.667.102.343.063.505.024.788l.148.11 1.127-.003c.195 0 .31-.302.498-.33.19-.029.452.215.633.16a4.028 4.028 0 001.422-.77c.087-.158.057-.528.181-.675.292-.343.784-.455.96-.88.193-.466.3-.977.3-1.51-.986-1.313.79-.28-.78-2.36a4.082 4.082 0 00-1.23-1.106c-.16-.067-.562.022-.74-.042-.448-.16-.719-.454-1.244-.5zm15.568.065l-1.075-.061c-.54.2-.97.081-1.422.261-.573.23-1.017.677-1.427 1.129-.541.418-.28.588-.455.852-.117.176-.372.253-.443.462-.019.463-.162.86-.214 1.281 0 .542.11 1.06.31 1.532.252.532.658.908 1.08 1.488a4.04 4.04 0 001.244.739c.425.157.883.244 1.36.246l1.299.002c-.026-.516-.136-.99 0-1.587v-1.15c-.457.049-.9.07-1.3.002a1.288 1.288 0 01-.8-.283c-.307-.2-.472-.567-.46-.988-.039-.323-.72-.709-.534-.928.248-.291 1.425-.365 1.795-.348l1.278-.032c-.13-.528-.28-1.065-.067-1.45l.025-.886-.194-.281z"/></svg>
