<svg xmlns="http://www.w3.org/2000/svg" viewBox="0 0 20.9 18.65" width="32" height="32" fill="#FFFFFF"><path d="M20.9.64q-.3.5-.72 1.33-.4.81-.91 1.96L19 4q-.12 0-.28.06.1.34-1 2.6-.42.94-.78 1.64l-.6 1.09q-.52.24-1.18 1.87-.64 1.49-1.12 1.36l-.19.25v.3q.03.12.03.21 0 .12.03.15 0 .06-1.17 1.82-.25.33-.58 1.03-.33.7-.76 1.72-.27.63-.84.54-.15-.51-.88-1.5-.7-1.04-.76-1.58-.7-.24-.54-.94.15-.88-.03-1.09.03-.85-.21-1.15l-.12.58q-.12.39-.37.39-1.33-1.42-1.24-2.51-.87-.67-1.7-1.76Q3.94 8 3.16 6.5L1.5 3.45Q0 .67 0 .6.03.54.03.45.06.36.13.27.53.21 1.17.54q.6-.63 2.09-.51.09.06 3 0 2.02 0 2.84.4l.33-.3 2.75-.04q.24 0 .64-.03.39-.06.54-.06.79 0 1.15.94.24-.03.85-.79l2.42.03q.12.18.27.21.09 0 .45-.18.28-.12.46-.09l.57-.03.58-.03q.75 0 .78.58zm-5.65 1.75q-.52-.06-1.34-.4-.9.34-2.87.34-1.54 0-1.81-.33l-.49-.58q-.51.7-1.42.88-.36.12-1.7.15.19.24.64.51.49.28.64.49.75.18 1.7.82l1.6 1.02q.15.1.69-.12.51-.2.76-.2.15 0 .2.02.1-.45 1.07-.97 1-.48 1.12-.78.24-.12.54-.34.3-.2.67-.51zm.6 2.72q-.42.33-1.36.82-.4-.24-.64-.15-.09.45-1.24 1.24-1.15.78-1.08 1.2.18 1.07.18.95 0 .39-.34.54.58.12.58.7v.3q-.03.15-.03.33 0 .27.15.52.33-.46 1.21-1.34l-.06-.2V9.8q0-.51.45-1.12.28-.03.52-.57l.2-.43.19-.27.18-.27q.12-.12.27-.36L15 6.56q.34-.24.85-1.45zm-6.11 6.63q.06-.34-.06-.67.24-.42.24-.85 0-.39-.33-1.15-.33-.75-.33-1.08 0-.3.12-.55-.4.06-.73-.3-.33-.36-.6-.73-.64-.12-1.52-.81-1-.88-1.39-1 .3.75 1.3 2.15-.03.12-.12.3-.06.18-.21.42h.33q.76.46 1.9 2.33 1.16 1.88 1.28 1.97z"/></svg>
