<svg xmlns="http://www.w3.org/2000/svg" viewBox="0 0 18.85 18.15"><path d="M18.85 3.12q0 .24-.19.57-.18.3-.18.42 0 .06.1.46l.08.48q0 .43-.39 1.18-.36.76-.76 1.06.03.15.03.27.04.1.04.18 0 1.03-1.94 2.42.06.43.09.82.06.4.06.76 0 1.33-.51 2.02-.28.1-.49.1.06 0-1.51-.37 0 .24.9.64.04-.12.19-.22.82.07.82.67 0 .82-1.37 1.94-1.33 1.12-2.26 1.12-.4 0-.55-.25-.27-.45-.36-.54-.12.24-.12 1.3h-1.7q-.09 0-.54-.18l-.52-.21-.51-.43H6.9q-.18 0-.49-.03-.9-.3-1.7-1.3-.8-1.03-.93-1.87-.09-.55-.09-.49v-.57l.3-.06q.18-.03.18-.3h-.75l.06-.04q-.03-.6-.06-.84v-.12q0-.82.18-1.82-1.51-1.06-2.45-2.7Q.27 5.6.27 4.2q0-.87.37-1.57Q0 2.33 0 1.75 0 1.24.51.27q.4 0 1-.09Q2.45 0 2.3 0h.54q.34.18.34.94 0 .4-.25 1.7-.12.6-.18.99l-.03.51q0 .22.55.8l.24.66.27.63q.3.76 1.09 1.3.18-.36.79-.97.63-.63 1-.63h.42q.21.18.33.57l.27.7h.03q.22-.33.4-.7l.36-.7q.33-.42 1.09-.42.15 0 .57.06.43.04 1.18.16.06.36.4.7.33.3.6.3.03 0 .18-.07.15-.09.21-.09.13 0 .64.43.51.42.73.42.15 0 .51-.6.21-.43.51-1.15.34-.76.76-1.79v-.09q0-.1.03-.24-.36-.33-.48-1.4-.15-1.11-.52-1.48 0-.12.03-.18V.24q.21-.09.4-.09l.9.18q.85.18.94.18-.03 0 1.15-.42.06.21.15.7.1.45.15 1.2 0 .22.12.67l.13.46z"/></svg>
