<svg xmlns="http://www.w3.org/2000/svg" viewBox="0 0 20.756 20.595" width="32" height="32" fill="#FFFFFF"><path d="M12.451 11.294c.04-.201.06-.352.06-.453 0-.443-.321-1.198-.965-2.265-.282-.282-.685-.423-1.208-.423-.161 0-.403.02-.725.06-.302.021-.534.03-.695.03-.704.605-1.006 1.179-.906 1.722-.08.08-.12.232-.12.453 0 .222-.04.373-.121.453-.02.181.01.433.09.755l.604.483c.202.141.403.292.604.453.484.322.957.463 1.42.423.04-.04.18-.04.422 0 .504-.262 1.017-.825 1.54-1.691zm3.715-9.15l.634.03c.1.1.15.232.15.393 0 .16-.04.332-.12.513.141.06.373.131.695.212.342.06.573.12.694.18.322.182.987 1.39 1.993 3.624l-.604.725h.514c.302.362.503.997.604 1.903.08.845 0 1.5-.242 1.962-.06.141-.211.302-.453.484-.221.18-.403.261-.544.241.101.302.111.634.03.997-.04.241-.08.443-.12.604-.02.16-.02.281 0 .362a9.2 9.2 0 00-.695.423l-.03.302c.161.221.242.443.242.664 0 .141-.05.312-.151.513-.725 1.41-1.943 2.487-3.654 3.232-1.41.624-3.02.986-4.832 1.087-.1-.202-.12-.473-.06-.816a.88.88 0 00.03-.211v-.211c0-.121-.02-.262-.06-.423-.484.282-.765.594-.846.936-.221.161-.403.242-.543.242a.562.562 0 01-.363-.121c-.201.12-.725.06-1.57-.181-.705-.202-1.238-.393-1.6-.574-.363-.201-.544-.473-.544-.816a3.047 3.047 0 01-.906-.362l-.483-.302c-.02-.181-.181-.473-.483-.876-.242-.322-.383-.624-.423-.906.403-.362.634-.744.694-1.147-.422 0-.805.171-1.147.513a2.735 2.735 0 01-.604-.513 3.402 3.402 0 01-.544-.846c-.362-.684-.493-1.238-.392-1.66C.17 11.737.04 11.244.04 10.84c0-.302.07-.524.212-.664C.05 9.895-.03 9.36.01 8.577c.08-1.31-.096-2.898.99-3.643.766-.524 1.315.417 1.516.175l.02-1.093.636-.437c-.201-.241-.182-.942-.142-1.042.14-.262 1.329-.806 3.563-1.631C8.284.302 9.633 0 10.64 0c.463 0 .845.06 1.147.181.1.161.212.312.332.453.121.141.252.282.393.423-.04.181-.08.352-.12.513-.021.161-.021.322 0 .483l.21-.302c.101-.2.212-.644.333-1.328.322.1.704.241 1.147.423.463.16 1.007.352 1.63.573z"/></svg>
