<svg xmlns="http://www.w3.org/2000/svg" viewBox="0 0 30.18 16.27" width="32" height="32" fill="#FFFFFF"><path d="M10.05 0l-.94 2.5.11 1.04-.56.12-1.61 4.26-2.13.2-2.47-.2c-.19.33.29.86-1.12 0H0l.1 1-.1 1.63h2.44l1.26-.18 1.97.18c.62-.56.44-.21.38 0l-.53 1.4-.2 1.52-1.44 2.8H6.7l.83-2.23c-.09-.35-.83-.91.33-.86l.97-2.63c1-.03 2.04-.05 3.08-.06.26 0 .5-.34.75-.34.99 0 .75.37 1.73.38 2 .02 5.2.02 6.96.02l1.14 2.68.64 1.78.57.13-.12 1.13h1.66l.67-.28-1.1-3-.67-2.44 3.72-.2 2.32.2-.2-1.31.13-1.29-.95.06-2.2-.09-.05.39-.14-.21-.8-.18h-2.83l-.84-2.2-.64-.38-.24-2.01L20.13 0h-.76l-.21.24c-.1.17-.48.1-.57.27l-.98 1.77c-.06.12.26.53.3.65.08.23-.72.12-.84.33l-1.74 3.15c-.04.07 0 .23.01.4s-.01.36-.05.43l-.43-.82-1.36-2.47c-.08-.14-.27-.16-.35-.3-.09-.16-.07-.44-.16-.6L11.32 0l-.51.2zm.93 4.83l.53.96c.91.59.85 1.4 1.18 2.13h-1.02c-.18.5-.43.05-.65 0h-1.2zm8.23 0c.5 1.16.86 2.16 1.15 3.1-.27.04-.56.06-.88.06-.12 0-.25.5-.38.5-.05 0-.25.13-.3.03-.07-.14 0-.54-.08-.54l-1.22-.06a27.56 27.56 0 011.7-3.09z"/></svg>
