<svg xmlns="http://www.w3.org/2000/svg" width="59.36" height="32" fill="#fff" viewBox="0 0 55.98 16.27"><path d="M18.65-6.94 16.91-2.3l.2 1.92-1.03.23-2.99 7.9-3.95.36-4.58-.37c-.35.61.54 1.6-2.07 0H.02L.21 9.6l-.19 3.02h4.53l2.33-.34 3.65.34c1.15-1.04.82-.4.7 0l-.97 2.6-.38 2.8-2.66 5.2h5.22l1.54-4.13c-.17-.65-1.54-1.7.61-1.6l1.8-4.87c1.85-.06 3.78-.1 5.71-.11.48 0 .93-.63 1.39-.63 1.83 0 1.39.68 3.2.7 3.71.04 9.65.04 12.9.04l2.12 4.96 1.19 3.3 1.05.24-.22 2.1h3.08l1.24-.52-2.04-5.56-1.24-4.52 6.9-.37 4.3.37-.38-2.43.25-2.4-1.77.12L50 7.74l-.1.72-.26-.38-1.48-.34h-5.24l-1.56-4.08-1.19-.7-.44-3.73-2.4-6.17h-1.4l-.4.45c-.18.31-.88.18-1.05.5l-1.81 3.28c-.12.22.48.98.55 1.2.15.43-1.33.22-1.56.61l-3.22 5.84c-.08.13 0 .43.02.74.02.32-.02.67-.1.8l-.8-1.52-2.5-4.58c-.15-.26-.5-.3-.65-.55-.17-.3-.13-.82-.3-1.12L21-6.94l-.94.37zm1.73 8.95.98 1.78c1.68 1.1 1.57 2.6 2.19 3.95h-1.9c-.33.93-.8.1-1.2 0h-2.22zm15.25 0c.93 2.15 1.6 4 2.13 5.75-.5.07-1.04.11-1.63.11-.22 0-.46.93-.7.93-.1 0-.47.24-.56.05-.13-.26 0-1-.15-1l-2.26-.1A51.09 51.09 0 0 1 35.61 2z" style="stroke-width:1.8536"/></svg>
