<svg xmlns="http://www.w3.org/2000/svg" viewBox="0 0 21.76 19.16"><path d="M21.72 11.36q-.95.3-1.21.22-.22-.15-.55-.48l-.6.4q-.5.33-.76.33-.08 0-.3-.07-.07.3-.14.74-.04.4 0 .91.03 1.22 0 1.66-.11.04-.3-.07-.15.18-.15.7v.29q0 .14.04.33.04-.04.15-.3.15-.25.22-.25t.15.33q.07.3 0 .4l-.11.59q0 .3.03.77.08.48.15 1.1-.07.08-.33.11-.48-.4-1.07-.4-.3 0-.44.04-.26.36-.7.36-.18 0-.55-.07-.33-.1-.51-.1l-.11-.34.07-3.38q.15-.11.37-.11.15 0 .22.04l.3.14q.14.04.29.11.07.08.14.08-.07-.37-.58-.85-.44-.04-.7-.37-.15-.8-.11-2.39-.04-.03-1.5-.33l-.23-.33q-.18.19-1.21.52-.11-.11-.88 0-.6.1-.63-.48.33-.37.26-.7-.19-.1-.66.22-.48.33-.67.26-.1.3-.4.7-.15-.04-.26-.04-.1-.04-.22-.04-.48 0-.84.3.03.37.03.95v1.36q-.25.04-.25.3l.03.22q.04.14.04.22 0 .18-.11.3l.07.58q.08.33.33.37.08.22.08.4 0 .22-.11.7-.08.44-.08.66 0 .48.26.74.07.25-.3.44-.1.03-.29-.04l-.4-.22q-.18-.1-.33-.22l-.15-.11q-.18 0-.4.3-.26-.26-.77-.04-.45.18-.7.25-.3 0-.52-.4.08-.37.08-.84 0-.48-.04-1.1l-.07-1.11q0-.51.03-.8.11-.2.26-.2.07 0 .26.12.18.07.3.07.06-.18-.23-.59-.3 0-.44-.44-.26-.51-.33-.59.07-.55-.11-1.5H3q.04-.08.04-.26 0-.22-.11-.55-.51.4-1.43.88-.19-.1-.37-.1-.11 0-.4.1-.26.07-.37.07-.22 0-.37-.14.33-.48.33-.85 0-.18-.04-.26l-.18-.14.07-2.28q.15-.11.33-.04.26.11.34.11.1 0 .22-.18.07-.04.18-.04.18 0 .4.26.22.26.33.26l.3-.3q.15-.1.26-.22.14-.1.29-.1l.33.03q.26.04.37.04.37 0 .59-.23-.19-.44-.26-1.36l-.07-1.47q-.04-.77.1-1.24.19-.52.37-.74-.47-.26-.47-1.03 0-.59.14-1.43.04-.19.26-.15l.37.11q.14-.1.3-.1.21 0 .62.25.44.26.62.26.3 0 .52-.56l.33-.07.44-.11q.03.15 0 .4 0 .23-.04.52-.07.73.07.95l-.07.34q0 .18-.04.36 0 .15-.1.3-.08.1-.3.03l-.07-.07q-.22.18-.19.51v.52q.44-.18.63-.18.14 0 .25.1-.1 1.51-.22 4.34.04.04.63-.03.44-.08.59.14.58-.22 1.1-.22.4 0 .7.19l3.9-.44.4.18q-.08-.22-.08-.26 0-.18.11-.51.15-.33.15-.48 0-.3-.3-.52-.14-.25-.14-.58 0-.26.15-.78.18-.55.18-.8 0-.19-.07-.4.3-.41.3-.6l-.38-.22q.11-.22.11-.55 0-.22-.07-.7-.07-.47-.07-.7 0-.84.95-.95.08 0 .19.04.14.03.22.03-.08.22.55.44.22.04.7-.1.51-.19.7-.19.22 0 .33.15-.04.22-.08.66 0 .44.04 1.1.04 1.07-.18 1.73 0 .04.07.22t.04.33q-.26.18-.6.15.04.22.37.51.34.26.4.4-.03 1.18.2 2.58.21 0 .5.04.34 0 .67.03l.59.08q.3.03.47.03.52 0 .81-.14.26.14.26.51 0 .18-.18.7-.15.48-.11.73-.08.22.1.63.23.37.23.48 0 .14-.04.22z"/></svg>
