<svg xmlns="http://www.w3.org/2000/svg" viewBox="0 0 20.66 20.63"><path d="M20.66 10.95l-.42.73.27.57q-.1.4-.79.45 0 .25.15.73.16.45.16.7 0 .54-2.27 3.45l-.91-.19.21.46q-.27.72-1.4 1.42-1.08.73-1.84.73-.24 0-.63-.19-.4-.18-.49-.36-.27.3-.84.48-.7.25-.91.37-.36-.27-.73-.43l-.27.13q-.33.63-1 .63-2.36 0-4.56-1.72-.94-.7-1.76-1.64-.78-.97-1.48-2.11.09-.13.27-.25.21-.12.43-.2l.42-.22q.21-.12.3-.21-.72-.43-1.2-.3-.61-.22-.55-.73-.3-.21-.58-1.48Q0 10.62 0 10.07q0-.6.45-.87-.15-.52-.09-.97l.03-.58q.21-.18.55-.81.33-.67.6-.82.46.18.85.18.24 0 .48-.09-.3-.54-1-.79.04-.66.7-1.63.6-.9 1.27-1.15 1.1-1.33 1.82-1.15Q5.9.88 6.9.45 7.9 0 8.53 0q.94 0 1.97.51 1.2.64 1.7.76l.8-.7.37.13q.21-.46.33-.46.52 0 3.12 2.4 2.9 2.68 3.08 4.26-.15.24-.27.51-.09.24-.15.52-.51.12-.94.36l.37.06q.24 0 1.33-.33z"/></svg>
