<svg xmlns="http://www.w3.org/2000/svg" viewBox="0 0 11.98 19.96"><path d="M4 19.87q.11-.66.08-1.33l.12-1.12.46-1.02-.46.18v-.73q-.06-.06-.09-.6-.06-.4.16-.73l-.22-.97q.06-.6.1-1.48l.12-2.09q0-.2.09-.6.12-.4.12-.6 0-.31-.18-.55l-.37.09-.45.15-.6.15q-.16 0-.61-.18-.42-.18-.67-.18-.57 0-.96.45H.48q-.09.03-.33-.06L0 8.6l.12-.54Q0 7.8 0 6.93q0-.67.1-1.67l.8-.03q.34 0 .67.46.03.03.12-.03.1-.06.16-.06.2 0 .42.3.03-.15.42-.73.21 0 .6.12.43.12.67.12.27 0 .58-.15l-.12-1.09-.03-3.14q0-.36.09-.9.57.02 1.51.6.45-.58 1.6-.73l.12.1q-.09.75.03 1.99.16 1.84-.15 2.81.67.4 2 .4.15 0 .4-.04l.54-.06.54-.06q.27-.06.46-.06.15 0 .24.03l.15.03q.06.18.06.43 0 1.12-.85 1.87l-.03.36q-.06.37.27.8-.36-.13-.78-.13l-.67-.18q-.36-.1-.97-.1-.57 0-1.42.04-.06.54-.09 3.02.03.15.03.4.03.2 0 .51 0 .48-.3.94.12.21.15.6l.06.94q0 .3-.03.76-.03.45-.12 1.06l-.12 1.05q-.03.46-.03.8 0 .26.21.75.21.45.21.66 0 .24-.3.24l-.1-.06q-.96-.36-1.3-.36l-.75.15q-.45.06-1.06.18z"/></svg>
