<svg xmlns="http://www.w3.org/2000/svg" viewBox="0 0 12.281 20.661"><path d="M12.221 3.328q-.635 0-1.361-.242l-.363.332q-.303.06-1.876.817l-.151.424q.151.211.302.544.152.303.303.756h.09q.727 1.906.727 2.48 0 .394-.091.787.272.696.272 1.573 0 1.301-.181 2.36-.182 1.058-.605 1.845l-.817 1.512.151.394q.605.242 1.24.423.636.182 1.331.242.787.091.878 1.09.06.423.03.816v.817l-.242.363q-.393-.06-1.15-.273-.816-.242-1.24-.242l-.363-.453q-.302.211-.786.211l-.454-.06-2.027-1.18q-1.24.908-2.45 1.27-.242.061-.938.212-.665.152-1.754.394-.484-.212-.393-1.06.03-.15.03-.271v-.212q0-.09-.152-.484L0 18.059l.06-.363q.182 0 .515.03t.514.03q.333 0 .908-.241l.665.302q.272-.575 1.028-1.028.091-.03.484-.273-.211-.332-.453-.816-.212-.484-.515-1.15l-.332-.212q-.212-.453-.333-1.36-.121-.939-.363-1.392l.454-.817-.635-.272q0-1.24.302-2.269.393-1.573 1.24-1.392l-.575-.786 1.06-2.057q-1.06-.393-1.271-.998-.635.211-1.15.211-.181 0-.453-.03-.243-.06-.575-.12Q.393 2.39.393 1.058q0-.393.091-.847Q1.18.06 1.694.06q1.391 0 2.269.786.605 0 2.39 1.059.211-.121 1.482-.938l.484.242.302-.605L9.952.242Q10.86 0 11.344 0q.453 0 .877.181l.06 2.057v.575q0 .272-.06.514zM6.625 7.472q0-.212-.605-.968-.877 1.603-.877 3.085 0 .152-.152.454-.12.303-.12.454 0 2.571 1.179 4.205.212-.333.514-.847.303-.545.696-1.24-.06-.303-.06-.485 0-.242.09-.726.121-.484.121-.726 0-2.329-.786-3.206z"/></svg>
