<svg xmlns="http://www.w3.org/2000/svg" width="70" height="32" fill="#fff" viewBox="0 0 59.19 10.37"><path d="m43.9-3.97-.25.26c.2 1.78.4 3.55-.01 5.57-2.37.15-4.71.48-7.2 0h-4.2c-.3.02-.56.45-.33.76.45.63.8 1.34 1.04 2.1v.02c.07.2.45.35.5.54 0 .04-.32.13-.31.17.09.45.14.92.14 1.4.25.95.38 1.6-.7 3.09a4.2 4.2 0 0 1-2.13 2.69 7.05 7.05 0 0 1-5.12 1.75c-1.63.24-3.1.01-4.13-1.08-1.68-.95-2.2-1.6-2.64-2.49-.88-1.3-1.49-2.87-1.17-3.96 0-.28-1.47-.56-.7-1 .2-.78.83-.4.9-.68.25-1.1.76-2.1 1.46-2.95.18-.23.03-.36-.32-.37h-4.5c-.7.05-1.33.4-2.04.41-.78.02-1.58-.22-2.37-.23-.3 0-.65.52-.95.51-1.16-.02-2.34-.65-3.51-.68H.03L.3 3.35 0 7.19l4.89-.2 3.14.08c.52-.19.8-.76 1.94.04l3.1.08c.03.96.18 1.9.43 2.8.12.39.4.72.55 1.1.13.31.13.69.28.99.2.37.4.72.62 1.06.33.5.98.76 1.39 1.2.43.5.62 1.17 1.13 1.58.63.48 1.51.54 2.3.93.57.28 1.02.92 1.65 1.13 1.23.41 2.54.67 3.9.71.38 0 1.16-.74 1.53-.77.35-.03.3.64.63.59a12.44 12.44 0 0 0 3.1-.98c1.47-.74 2.64-1.82 4.09-3.05l.91-1.19c.26-.57.17-.96.7-1.19.45-.2.42-.87.59-1.33.07-.2-.23-.49-.18-.69.06-.17.48-.26.52-.43.18-.72.3-1.46.34-2.22l-.34-1.3 1.05.63 1.9.35.2-.3.87.26 1.16.11 1.68-.74-.46 1.06.12 1.78.26.64-.28.55-.04 1.54c-.01.47.42.63 1.12.27l7.27-4.44.03-1.38 2.95-.43 3.41-2.09.7-.53-1.45-.35-1.82-1.09c-.8-.38-1.7-.12-2.3-.35-1.2-.44-1.95-1.34-3.61-2.72-.71.73-1.15-.06-1.6-.75l-4.5-2.12z" style="stroke-width:2.18563"/></svg>
