<svg xmlns="http://www.w3.org/2000/svg" viewBox="0 0 27.06 10.369" width="32" height="32" fill="#FFFFFF"><path d="M20.077 0l-.111.119c.09.813.181 1.625-.005 2.549-1.085.068-2.154.218-3.296 0l-1.918-.002c-.134.012-.258.208-.152.348.208.291.37.614.477.959l.003.011c.026.092.2.16.222.25.003.019-.143.057-.14.076.042.207.063.421.063.64.118.434.175.735-.317 1.415-.146.556-.48.953-.977 1.23-.545.51-1.37.838-2.341.802-.744.107-1.418.004-1.892-.497-.768-.432-1.005-.728-1.205-1.137-.404-.598-.682-1.314-.538-1.813 0-.125-.673-.256-.321-.46.094-.352.38-.177.41-.308.12-.5.352-.959.673-1.35.08-.104.011-.163-.146-.167H6.504c-.32.023-.607.178-.93.186-.359.009-.725-.102-1.086-.106-.137-.002-.297.237-.434.235-.533-.01-1.073-.3-1.607-.313H.007l.124.682L0 5.106l2.236-.09 1.437.035c.238-.086.368-.345.888.021l1.42.035c.013.441.081.869.197 1.277.052.182.18.331.25.505.06.145.058.316.13.455.086.168.18.33.283.487.15.231.449.345.633.55.198.222.285.533.517.721.29.219.693.246 1.05.423.264.13.47.422.761.52.559.186 1.161.305 1.782.324.175 0 .531-.338.702-.353.159-.015.133.295.287.268a5.692 5.692 0 001.422-.445c.671-.34 1.202-.834 1.866-1.397l.419-.543c.12-.26.075-.439.323-.546.202-.088.19-.4.266-.609.032-.088-.107-.223-.08-.314.025-.08.217-.118.238-.2.082-.328.134-.667.152-1.015l-.156-.59.483.284.867.16.097-.135.394.118.529.05.77-.34-.212.485.059.814.118.294-.13.254-.016.704c-.007.216.19.288.511.123l3.328-2.031.011-.634 1.349-.197 1.563-.954.316-.243-.659-.159-.832-.5c-.366-.172-.782-.056-1.058-.159-.543-.203-.889-.612-1.65-1.244-.325.333-.523-.03-.73-.345L20.076 0z"/></svg>
