<svg xmlns="http://www.w3.org/2000/svg" width="31.52" height="32" fill="#fff" viewBox="0 0 19.67 20.27"><path d="M19.82 10.2a2.25 2.25 0 0 1-.6.9c-.4.32-.83.72-1.3 1.18a47.3 47.3 0 0 0-1.58 1.67c-.08-.27-.18-.4-.3-.4-.09 0-.2.1-.34.27-.12.19-.18.3-.18.37 0 .18.25.45.76.81.14.1.26.22.36.34l.33.3.15.24.19.21c1.04 1.05 1.57 1.75 1.57 2.09 0 .1-.1.2-.27.27-.19.08-.3.17-.34.27-.22.43-.47.64-.75.64-.14 0-.24-.03-.3-.09l-1.37-1.54c-.34-.27-.9-.8-1.7-1.6l-.87 1.05c-.26.22-.58.52-.97.88l-1.3 1.24c-.36.46-.63.77-.81.9-.04.05-.2.07-.49.07H9.3a33.33 33.33 0 0 1-.7-.58 30.87 30.87 0 0 1-.87-.84c-.8-.8-1.17-1.32-1.15-1.58-.14.02-.39-.14-.73-.48l-.88-.88c-.28.3-.61.69-1 1.15-.38.44-.82.98-1.33 1.6-.04.08-.27.3-.7.64-.01.02-.07-.01-.17-.1-.08-.1-.14-.14-.18-.14-.3 0-.5-.1-.58-.3l-.42-.55c-.14-.2-.2-.34-.15-.42a23.87 23.87 0 0 1 1.33-1.54l.66-.76c.26-.3.6-.66 1-1.06-.24-.28-.36-.46-.36-.54 0-.1-.1-.18-.27-.22a5.77 5.77 0 0 1-.73-.63 12.54 12.54 0 0 1-.97-1.12c-.4-.5-.64-.82-.69-.95.24-.04-.04-.66-.04-.66s-.18.29-.28.2c-.14-.13-.17-.27-.22-.3v-.14l.99-1.3c1.07-1.17 1.33-.32 1.84-.8.1-.1-.76-.3-.4-.65.47-.43 1-.97 1.61-1.57L1.97 3.8A4.6 4.6 0 0 1 .46 2.2c.18-.12.27-.22.27-.3a1 1 0 0 1 .3-.67c.22-.22.43-.33.64-.33a.8.8 0 0 1 .39.12L5.4 4.37c.31.31.32.93.47 1.08.4-.18-.28-1.17.17-1.7a6.7 6.7 0 0 0 .7-.7A18.32 18.32 0 0 1 9.47.22c.14-.14.37-.21.7-.21a37 37 0 0 1 1.93 1.97c0 .28.04.49.12.63.08.02.17 0 .25-.09l1.02.94c.27.1.45.27.55.51l3.11-2.93c.04 0 .1-.02.19-.06l.18-.06c.18 0 .38.12.6.36.24.22.37.42.37.6 0 .45-.19.92-.55 1.43-.2.3-.43.46-.7.48l-1.72 1.79c.1.16.26.28.48.36.07.02.1.15.1.4 0 .21.04.35.12.42.16-.04.25-.1.27-.16l.9.82c.15.14.42.45.82.9.4.45.94 1.08 1.6 1.88zM14.7 8.16c-.12.04-.16.06-.12.06-.06-.08-.09-.24-.09-.49-.18-.18-.34-.27-.48-.27h-.12l-.06.03h-.03l-.06-.03s-.74.8-1.4 1.35c-.25.1-.52-.08-.9-.12-.07.34-.41.27-.7.42.46.18.64.3.64.59a2.94 2.94 0 0 1-.43.45c.37.23.8.6 1.3 1.15l1.79 1.88a39.63 39.63 0 0 0 1.36-1.3c.48-.47.99-.97 1.51-1.51zm-1.96-2.24L9.99 3.3l-.61.45c-.12.1-.27.25-.45.46a8.75 8.75 0 0 0-.67.87c-.04 0-.1-.04-.18-.12-.08-.1-.15-.15-.21-.15a7.67 7.67 0 0 1-.79 1.12L9.92 8.8zM6.57 8.08a9.54 9.54 0 0 0-.91-.91c-.07.4-.31.65-.55.85-.04.08-.2-.4-.2.06-.03.04-.3.33-.78.76 0 0-.5.22-.71.23-.01.12.05.07.1.3-.21.15-.31.24-.31.28-.06.12-.2.3-.42.54 0 0 .7.52.7.77 0 .24-.3.33-.3.33.07.2.45 0 .78.19.32.18 1 1.07 1 1.07.07-.04-.2.37-.12.3 0 .15.43-.1.57.16.32-.26.67-.59 1.06-.97.08-.2.33-.51.75-.94l.7-.7a4.35 4.35 0 0 1 .51-.45zm5.93 6.29L9.56 11.4l-2.84 2.97 1.2.9c-.07.27-.11.36-.11.28 0 .24.2.53.6.88l1.03.9 1.27-1.18 1.2.16-.63-.72z"/></svg>
