<svg xmlns="http://www.w3.org/2000/svg" viewBox="0 0 19.965 20.267" fill="#FFFFFF"><path d="M19.965 10.194a2.248 2.248 0 01-.605.908c-.383.322-.817.716-1.3 1.18a47.302 47.302 0 00-1.574 1.663c-.08-.262-.181-.393-.302-.393-.081 0-.192.09-.333.272-.121.182-.182.303-.182.363 0 .182.252.454.757.817.14.1.262.212.363.333.12.1.232.201.332.302.04.08.091.162.152.242.06.06.12.131.181.212 1.049 1.049 1.573 1.744 1.573 2.087 0 .101-.09.192-.272.272-.182.081-.292.172-.333.273-.222.423-.474.635-.756.635-.141 0-.242-.03-.303-.09l-1.36-1.544c-.344-.262-.908-.796-1.695-1.603l-.877 1.059c-.262.222-.585.514-.968.877-.363.343-.797.756-1.3 1.24-.364.464-.636.767-.818.908-.04.04-.201.06-.484.06h-.423a33.333 33.333 0 01-.696-.574 30.87 30.87 0 01-.877-.847c-.787-.787-1.17-1.311-1.15-1.573-.14.02-.383-.141-.726-.484l-.877-.878c-.282.303-.615.686-.998 1.15-.383.444-.827.978-1.331 1.603-.04.08-.272.293-.696.635-.02.02-.08-.01-.181-.09-.08-.101-.141-.152-.182-.152-.302 0-.494-.1-.575-.302l-.423-.545c-.141-.201-.192-.342-.151-.423.1-.161.262-.363.484-.605.222-.262.504-.575.847-.938.181-.201.403-.454.665-.756.262-.303.595-.655.998-1.059-.242-.282-.363-.464-.363-.544 0-.101-.09-.172-.272-.212a5.766 5.766 0 01-.726-.635 12.54 12.54 0 01-.968-1.12c-.41-.491-.637-.82-.69-.945.24-.041-.045-.668-.045-.668s-.176.292-.272.207c-.145-.128-.179-.27-.22-.296L0 10.073l.998-1.3c1.07-1.172 1.335-.327 1.84-.81.095-.096-.764-.29-.39-.64.462-.431.984-.97 1.605-1.576L2.117 3.811A4.595 4.595 0 01.605 2.208c.181-.12.272-.222.272-.302 0-.222.101-.444.303-.666.222-.222.433-.333.635-.333.121 0 .252.04.393.121 0 0 2.111 2.095 3.348 3.339.313.314.318.93.47 1.088.411-.184-.281-1.176.175-1.704.11-.121.212-.202.333-.303.121-.12.242-.252.363-.393A18.32 18.32 0 019.619.212C9.761.07 9.993 0 10.315 0c.04 0 .686.655 1.936 1.966 0 .283.04.494.121.635.08.02.162-.01.242-.09l1.029.937c.262.101.443.273.544.515l3.116-2.935c.04 0 .1-.02.181-.06.101-.04.162-.06.182-.06.181 0 .383.12.605.362.242.222.363.424.363.605 0 .444-.182.918-.545 1.422-.201.303-.433.464-.695.484l-1.725 1.785c.101.161.263.282.484.363.061.02.091.151.091.393 0 .222.04.363.121.424.162-.04.252-.091.272-.152l.908.817c.141.141.413.444.817.908.403.443.937 1.069 1.603 1.875zm-5.112-2.027c-.121.04-.162.061-.121.061-.06-.08-.091-.242-.091-.484-.182-.182-.343-.272-.484-.272h-.121c-.02.02-.04.03-.06.03h-.03l-.061-.03s-.74.791-1.39 1.343c-.256.102-.528-.072-.9-.112-.078.335-.416.27-.705.417.463.18.637.3.64.59a2.94 2.94 0 01-.428.454c.363.222.796.605 1.3 1.15l1.785 1.875a39.63 39.63 0 001.361-1.3c.484-.465.989-.969 1.513-1.513zM12.886 5.93l-2.752-2.632-.605.454c-.121.1-.273.252-.454.454a8.753 8.753 0 00-.666.877c-.04 0-.1-.04-.181-.121-.08-.1-.151-.151-.212-.151a7.671 7.671 0 01-.786 1.12l2.843 2.873zm-6.17 2.148a9.54 9.54 0 00-.908-.908c-.074.392-.314.646-.545.847-.04.08-.206-.395-.211.06-.02.041-.285.332-.773.767 0 0-.504.22-.713.23-.012.12.053.07.094.304-.201.142-.302.232-.302.273-.06.12-.202.302-.424.544 0 0 .7.515.704.763.003.247-.296.337-.296.337.063.198.447-.01.773.18s.997 1.08.997 1.08c.08-.04-.19.367-.109.286 0 .161.422-.095.563.167.323-.262.676-.584 1.059-.968.08-.201.332-.514.756-.937l.696-.696a4.35 4.35 0 01.514-.454zm5.928 6.292L9.71 11.404 6.867 14.37l1.21.907c-.081.262-.121.353-.121.272 0 .242.201.535.605.878l1.028.907 1.27-1.18 1.198.16-.632-.725z"/></svg>
