<svg xmlns="http://www.w3.org/2000/svg" viewBox="0 0 20.67 17.97" fill="#FFFFFF"><path d="M20.66 8.68q0 .33-.36.33-.49.06-.55.16-.12-.13-.45-.13-.12 0-.4.07-.27.06-.39.06-.45 0-.57-.46-.3.58-1.18.49-1.1-.12-1.36 0 .12.12.54.87.43.79.4 1.15.39.34.81 1.18.46.97.73 1.27-.1 1.27 1.51 2.54.48.85.48 1.12 0 .18-.09.3l-.63.13q-.36.06-.88.2-.97-.02-1.18-.08-.7-.15-1.06-.46-.24.52-.84.52h-.25l-.24-.06q-.06.03-.18.03.03 0-.03.03l-.21.03q-.12.03-.27-.12-.34-.34-.4-.34-.18 0-.3.1-.24.24-.94.24-.15 0-.4-.15-.02-.22-.23-.22-.12 0-.4.19-.09.18-.3.09l-.33-.06q-.12-.12-.4-.12-.18 0-.57.12-.36.12-.54.12-.1 0-.28-.06-2.17.09-3.99.09-1.36 0-2.54-.03L.24 17.7q-.12-.12-.12-.34 0-.24 1-1.78.4-.6.7-1.18.33-.58.57-1.15.33.06.85-.18-.12-.27-.12-.7 0-.4.15-.84.15-.46.54-.97L4.93 9.1q-.54.03-1.57-.19-.34.25-.82.25-.27 0-.79-.1-.48-.09-.72-.09-.52 0-.82.25Q0 8.98 0 8.65l.03-.24q.06-.21.12-.64.12-.48-.06-.81l.03-.55q1.66-.06 3.75.49.21-.55.85-.55.21 0 .9.12.76.06.82.03.21-.66.67-1.06.45-.39.42-.87.06-.18.43-.4.42-.24.42-.3 0-.15-.18-.33.03-.33.63-1.21.58-.85.55-1.27.06-.21.24-.45.21-.28.51-.61.52.1.79.7l.42.96q-.06.25.3.7.4.45.37.66.3.19.3.46 0 .15-.06.42-.06.24-.06.4 0 .33.58.3.09.09.81 1.75.18.15 1.18.18 1.03.06 1.24.34l.91-.28q.3 0 .48.25.43-.4 1.06-.4.21 0 .6.06l.58.03q.43 0 .7-.12.27.18.27.58 0 .2-.15.66-.06.06-.06.25 0 .15.15.54.15.12.12.24zm-9.65-2.42q-.21-.15-.45-.7-.21-.54-.43-.69-.33.42-.54 1.45.06.12.15.24.15.22.3.16.03-.1.18-.13.16-.06.3-.09l.3-.09q.16-.06.2-.15zm4.96 8.99q-1.03-1.88-1.84-2.7-.12-.39-.12-.66 0-.15.06-.21.24-.06.24-.6-.24.08-.33.08-.43 0-.73-.72-.27-.46-.6-.7.05-.42-.19-.51-.03-.03-.54.03-.52.06-1.15-.55-.3-.3-.67-.27l.3.42q-.18.37-.63.37-.18 0-.54-.06-.37-.1-.55-.1-.18 0-.27.04-.79.78-1.63 2.57-.1.24-.64.45-.57.24-.6.45.06.19.06.34 0 .33-.58 1.09-.54.72-.6 1.05l.75.06.97.1q.27.03.51.18.13.48.4.48.03 0 .54-.36.52-.36.76-.27.24.06.36.06l.3-.03.43-.06.45-.1q.21-.03.36-.03.34.16 1.06.19.82 0 1.12.2.15.34.37.34.15 0 .39-.06.24-.1.4-.1.23 0 .39.28.24-.45.87-.54z"/></svg>
