<svg xmlns="http://www.w3.org/2000/svg" width="31.54" height="32" fill="#fff" viewBox="0 0 18.18 18.72"><path d="M18.29 14.49q.03.27.03.51v.4l-.12.42q-.1.27.03.27l-.45 2.12h-.33q-.3-.03-1.03.15-.7.18-.97.18l-3.2.03-.2-.3-.4.27q-.22.18-.41.18-.4 0-.63-.12l-.33-.42q-.13.06-.25.18l-.2.21L5.79 18l-.12.36-.27.21-5.36.06q-.17-.12-.17-1.18 0-.54.18-1.63.22-1.02.22-1.62-.15-.34-.4-.55v-2.93q0-.3.1-1.18L0 8.87q.03-.3 0-.54.2-.12.15-.46l-.1-.6q0-.03.07-.12l.18-.21q.1-.12.15-.21.07-.13.04-.16l-.46.16V2.45l.36-.94Q.63.94.87.18h1.7q.1.18.5.18.22 0 .64-.09.43-.09.64-.09h1.78Q6.1.21 6.1.42l.15.25Q6.4.6 6.59.42l.5-.42.28.18h2.5q.22 0 .59-.09.4-.09.57-.09.18 0 .52.03l.66.06.67.06q.33.03.5.03l.22.33.52-.48 3.45.42.54 4.7q.03.23 0 .57 0 .33-.06.75l-.1.85v.48l-.57 1.55q.1.24.25.45l.33-.36v.03q0 .24.18.45l-.03.52v.54l.06 1.06zm-7.08 1.36.12.33.9.06q.22.03.59 0 .39-.06 1-.12.48-.06.87-.06.4 0 .7.03 0-.12.6-1.66l-.12-3.06-.12.03q.12 0 .12-.03 0-1.12.12-1.27l-.03-.24q0-.27.1-.79.08-.5.08-.78V6.23q-.18-.12-.36-.45 0-.18.06-.46l.12-.57.12-.58q.06-.27.06-.45 0-.15-.7-.94l-3.47-.27-.24.18-.4-.18h-.93l-2.27.36q-.12-.39-.7-.48l-.66.4-.21-.28h-2.2q-.3 0-.93.18-.67.18-.97.15-.21.43-.4 1.36l.19.4-.3.84q.03.85.09 1.76l.2 1.81q.4.1.4.3 0 .22-.18.61-.18.4-.21.58-.1.54-.1 1.78v3.96h3l.52-.3 1.66.3h3.3z"/></svg>
