<svg xmlns="http://www.w3.org/2000/svg" viewBox="0 0 24.321 14.943" fill="#FFFFFF"><path d="M24.079 7.109l.03 1.18.212 1.391q-.121.333-.212.635-.09.272-.181.514-.333.878-.605.999v.03q0 .151-.666.544-.665.394-.847.394h-.12q-.213-.212-.576-1.27-.363-1.09-.363-1.453 0-.423.242-.786.273-.363.363-.575.333-.151.575-.938l-.03-.272q0-.303.12-.575l-.786-2.178q-.211-.03-.302-.575-.06-.03-.182-.12-.12-.122-.332-.273l-.273.091q-.15-.06-.363-.182-.211-.15-.484-.302l-.242-.03q-.363-.06-.605.333-.332.514-.484.665l-1.27 2.813q-.968 2.148-1.422 2.511l-1.543 3.267q-.242 0-.242.272 0 .484-1.119 1.694l-.212.03-.12-.12q-.696-.696-2.572-4.236-.938-1.815-1.422-2.873-.484-1.09-.514-1.483-.242-.363-.514-.816-.242-.454-.575-1.029-.575-1.089-1.21-1.15-.09.031-.272.212-.242-.06-.575-.06-.181 0-.333.242-.786.605-1.18 1.361-.302.545-.604 1.815.211.787.12 1.21.364.484 1.21 1.301-.362 2.843-1.149 3.267-.272-.03-.544-.272-.666-.091-1.15-.817-.484-.756-.484-1.422 0-.212.03-.302L.03 9.468 0 9.166q.03-.121.09-1.12.091-.998.212-2.934l.817-2.208q0-.303.817-1.089L2.964.817Q3.418.605 4.447.363h.635q.393-.03.907-.06Q7.018.211 7.562.211L8.258.12q.575-.06.756.06L9.438 0q.181 0 .544.121.394.09.575.09v.091q0-.03.06-.09l3.6-.091q2.602-.06 3.66.09l.817.122.242-.121 1.27.423.485-.09q.242.423.423.544.363 0 .454.242 2.662 2.48 2.662 5.415zM15.85 3.146l-.333.212-.151-.333h-4.023q-.303 0-.847.03-.515.03-1.27.091l-.092.242-.12-.121-.152.03q.242.424.575 1.059.333.635.756 1.482.303.787.817 1.815.514.998 1.21 2.269l1.724-3.146.151-.09-.03-.061q0-.152.333-.575.09-.514.393-1.15.303-.665.575-.937v-.06q0-.424.544-1.12l.121.302z"/></svg>
