<svg xmlns="http://www.w3.org/2000/svg" viewBox="0 0 16.481 15.367" width="32" height="32" fill="#FFFFFF"><path d="M15.064 8.833q-.09 0-1.724-.424l-.423.303q-.182.121-.394.181l-.968-.15h-.937l1.421 1.24q.242.181.363.423l.303.484-.121.242.242.605q.212-.212.393-.333.726.908 1.361 1.815.03.363-1.028 1.15-.877.665-1.573.937-.242-.635-1.029-1.663-.393-.515-.665-.908-.242-.423-.363-.696.03-.211-.272-.393l-.091-.06q-.09-.03-.09-.152-.273-.12-.818-.635-.03-.151-.12-.363-.061-.242-.182-.544-.212.151-.484.514-.121.212-.272.393-.121.182-.273.272-.332-.03-.635.182l-.151.696q0-.06-.06.151l-.091.635q-.515.272-.999 1.301-.453 1.028-.847 1.33-.423-.21-.998-.695-.544-.484-1.3-1.24.241-.393.665-.968.423-.575 1.028-1.331l.484.181q.212-.574.091-1.089.03-.12.272-.393.152-.151.333-.363.212-.242.454-.544l-.817-.121-.484.181q-.454.151-.817.03-.06-.15-.272-.15h-.03q-.393 0-.484.06-.09.03-.272.181-.454-.09-1.755.182l-.272-.121Q0 7.986 0 7.32q0-.393.151-.756.212.03 1.24 0 .696-.03 1.301.06l.242.212.514-.393q-.03 0 .454.03l1.513.091q0-.12-.121-.272-.091-.182-.242-.333-.121-.151-.242-.272-.091-.121-.091-.182-.605-.272-.635-.937l-.091-.091q.181-.454.03-1.24-.544.423-.786.544-.696-.635-1.24-1.482l1.058-1.18Q3.781.454 4.356.242q.423.242.786.181L6.564 2.3q.242.454.666 1.089.423.635 1.028 1.452.242-.484.605-1.12.363-.665.877-1.482.424-.665.696-1.119.272-.484.333-.817L11.102 0q.998.454 1.452.726.665.423 1.27.998l-1.15 1.482-.03-.03q-.302-.211-.877-.181.272.242.363.393.121.121.151.242.061.09.061.212v.272l-.696.817q-.151.151-.272.302l-.242.303q-.333.423-.333.756 1.15-.272 2.269-.121.363-.151.575-.121l.544.424q.242-.394.575-.515.484.091 1.028-.12l.333.12q.454.666.333 2.571-.454.454-1.392.303z"/></svg>
