<svg xmlns="http://www.w3.org/2000/svg" viewBox="0 0 16.365 19.572" width="32" height="32" fill="#FFFFFF"><path d="M16.365 18.936q-.242.515-1.18.454-.635 0-1.18-.242-.362-.03-1.179.151-.393.061-.666.121-.272.03-.484.03-.544 0-1.028-.332-.393.12-1.392.181-.968.06-1.391.212-.121 0-.333-.06-.212-.06-.454-.121-.211-.091-.423-.152-.212-.06-.303-.06-.332-.03-.665.393-.303-.212-.696-.212-.181 0-.544.091-.363.06-.545.06-.423 0-.635-.18-.484.302-1.089.302-.424 0-1.27-.212 0-.333.423-.756.454-.484.484-.605.333-.152.877-1.543.514-1.3.938-1.331.181-.666 1.15-1.029-.212-.211-.212-.423.393-.545.816-1.452.03-.363.575-1.089.545-.726.575-.998l.302-.273q-.242-.242-.514-.635t-.575-.907q-.332-.545-.574-.908-.212-.393-.424-.635.091-.454-.333-.696-.574-.333-.695-.544-.908-1.604-.847-2.39-.091-.121-.182-.121-.151.181-.514.333L1.27 1.664Q.786.756.06.514 0 .333 0 .242 0 0 .333 0h.514Q2.208.514 3.66.575q.605 0 1.24-.091.152-.09.363.121l.212.242q.06 0 .151-.09.303.09.999-.092.635-.211.968-.211.332 0 .635.242.363-.091.665-.091.484 0 .696.212.151.242.303.242.332-.333.937-.454l5.022-.181q.484.06.333.665-.515.242-1.362 1.603-.877 1.392-1.36 1.604l-.697 1.663q-.242.454-.514.787-.242.332-.544.544-.06.182-.878 1.361-.635.968-.635 1.452 0 .454.363.847.242.091.424.938.181.847.574.968.03.03.484.03.242-.06.394.212.09.333.877 1.452.665.938.635 1.603.756.182 1.21.968l.877 1.452zM11.132 3.297q-.454-.09-1.331 0-.484.06-.817.091-.302.03-.514.03l-.605-.06q-.272-.06-.545-.182l-1.058.212q-.273-.303-.454-.303-.121 0-.151.091.06.484.574 1.059.636.696.696.938.03.484.575 1.119.333.423.544.696.212.242.273.363.393 0 .756-.666.454-.847.726-1.089.544-.242.877-.968zm.121 13.461q-.393-.695-.726-1.24-.303-.544-.545-.877-.877-1.3-1.633-1.785-.151.121-.424.484-.242.333-.635.938-.605.938-1.24.877.242.151.242.424 0 .242-.242.786-.06-.06-.151-.06-.363 0-.363.363 0 .211.181.332.182.03.514-.06.484.242 1.301.151.151-.03.272-.03h.303q.393 0 .635.09.726-.423 2.511-.393z"/></svg>
