<svg xmlns="http://www.w3.org/2000/svg" viewBox="0 0 20.09 20.21" width="32" height="32" fill="#FFFFFF"><path d="M20.06 11.95q-.46.72-.6 2-.25.06-.37.15-.18.3 0 .51.15.03.3.27l-.27.85q-.55.67-1.82 1.85-1.48 1.39-1.87 1.42-.18 0-1.12-.7.03.06.03.18v.24q0 .13.03.3.03.46-.18.58-.21.03-.52.12-.27.06-.66.21-.79.28-1.15.28-.43 0-.76-.25l-.36-.87-.4.94q-.5.18-1.05.18-.52 0-1.43-.18-.5-.13-.87-.16l-.6-.09Q1.17 16.91.5 13.1q-.2-.55-.45-1.48l-.06-.3v-.43q0-.7.12-1.82.15-1.11.4-2.69.15-.24.33-.6l.42-.85q.48-.18 1.12-1.51l.82-.36q.45-.22.45-.52 0-.09-.03-.15.6-1.18 2.24-1.82Q7.32 0 9.2 0q1.6 0 2.72.42l.63.6.3-.2.49-.28h.21q.27.28 1.1.67.78.36.96.73.4.27.63 1.24.28 1 .73 1.2.15.73.54.7.28-.12.61-.12 1.09 0 1.6 2.15.37 1.54.37 3.75v.6q0 .28-.03.49zm-3.57-3.12q-.25-1-.64-1.45-.54-1.63-.54-1.87 0-.19.06-.43l-.25.15-.27.15-.15-.03q-.24-.2-.66-.42-.4-.21-.97-.45-.58-.24-.97-.46-.4-.2-.64-.36-.15.03-.36-.03l-.45-.12q-.21-.1-.43-.15-.2-.1-.33-.1-.3 0-.51.19-.73.09-1.12-.67-.43 1.1-1.1 1.1-.5.39-.87.63l-.54.36q-.79.48-1.64.58l-.06.75.15.24q-.36.85-.66.88-.18 0-.6-.21l.81 1q-.36.6-.7 3.57.28.33 2.36 3.45l1.88.81q.6.24.9.6.31.37.43.76.15-.12.36-.24.22-.15.52-.3.15.12.42.12.18 0 .52-.06.33-.1.51-.1.33 0 .58.22l.06.03q.12-.03.27-.18.15-.15.27-.3l.27-.34q.12-.15.21-.18 2.24-.72 3.33-2.96.27-.27.43-1.4.09-1 .48-1.2zm-4.57.3q.09 1.12-.24 1.4.27.15.27.39 0 .42-.76.82-.75.42-1.42.42-.51 0-.79-.24-.24-.24-.39-1.03-.12-.64-.57-.88.06-.51.45-.94.4-.45.85-.45.39 0 .66.36l.1-.51q.02-.36.36-.36.54 0 1.48 1.03z"/></svg>
