<svg xmlns="http://www.w3.org/2000/svg" viewBox="0 0 18.543 11.51"><path d="M18.513 10.996q-.726.212-.938.181-.151-.12-.423-.363-.03 0-.515.333-.302.182-.514.182-.12 0-.242-.03l-3.66.03q-.06-.03-1.15-.212l-.181-.272q-.121.15-.938.393-.06-.06-.212-.06-.12 0-.363.06-.211.03-.302.03-.242 0-.333-.151.212-.242.151-.514-.15.12-.332.272-.182.12-.454.06-.03.06-.454.303-.605-.121-.998.151-.212.121-.817.121-.877 0-2.299-.242l-.695-.03H2.45q.091-.121-.06-.424-.333.212-1.09.484-.211-.15-.544-.03-.302.09-.514-.06.03.09.03-.515.03-.272-.211-.453Q0 10.21 0 10.028q0-.393.272-1.361.152-.121.363-.091.242.03.333 0 .09.03.484.181.242.091.393-.03.182-.242.484-.242.091 0 .242.03.182.03.273.03.272 0 .453-.18.726 0 1.906.392.333.03.756-.09-.817-.394-1.18-1.21-.937-.424-1.18-1.392-.423 0-.997-.575-.545-.574-.878-.635-.03-.151-.242-.454-.211-.302-.211-.484 0-.09.06-.15.09-.092.363-.515.212-.333.514-.272l.182-.484q.12-.242.363-.273l.272.03 1.543 1.543q0 .273.242.454.454-.06.756.424.393.695.514.786.03.182-.09.454-.091.272-.091.423 0 .121.06.242.091-.181.424-.211.333-.03.423-.091.182.09.666.726.363.514.575.454-.121-.545-.182-1.846-.03-1.3-.151-1.845 0-.12.151-.423t.151-.454q0-.272-.393-.424.121-.272.09-1.27 0-.756.394-1.18.484-.06 1.12.121l1.088.303q.242 1.27-.09 1.815h-.273q.394.937.515 2.57 0 .092-.091.122-.091 0-.212-.06-.03.15.182.302.211.12.15.333-.18 1.452-.09 1.603.06 0 .272-.242.121-.242.484-.545.273-.09.575-.181.333-.09.545.09.242.182.544.182.121-.06.121-.12l-.121-.092q-.121-.09-.121-.181-.121-.151-.484-.333-.03 0-.09.06-.031.03-.061.03-.242 0-.242-.06-.091-.423.514-.816.726-.545.817-.726.09-.06.12-.152.212-.03.515-.181l-.06-.333q.272-.12.816-.817.454-.574.787-.574.242 0 .544.242.03.09.182.272-.152.09.06.514.091.151.605.424.424.211.393.453-.635.757-2.117 1.846-.03.15-.242.393-.242 0-.424-.242-.09.151-.09.484.03.333 0 .454-.636.544-1.664 1.603-.121.151-.03.181.12 0 .514-.12.514.06.786.18.273.122.515.152.211-.242 1.603-.393.333.151 2.33.06.211.121.211.333 0 .151-.151.514-.121.363-.091.545-.06.181.09.454.182.242.182.332 0 .091-.03.182z"/></svg>
