<svg xmlns="http://www.w3.org/2000/svg" width="32" height="32" fill="#fff" viewBox="0 0 18.54 11.51"><path d="M18.51 14.44q-.72.2-.93.18-.16-.12-.43-.37-.03 0-.51.34-.3.18-.52.18-.12 0-.24-.03l-3.66.03q-.06-.03-1.15-.21l-.18-.27q-.12.15-.94.39-.06-.06-.21-.06-.12 0-.36.06l-.3.03q-.25 0-.34-.15.21-.24.15-.52l-.33.28q-.18.12-.45.06-.03.06-.46.3-.6-.12-1 .15-.2.12-.81.12-.88 0-2.3-.24l-.7-.03h-.39q.1-.12-.06-.43-.33.22-1.09.49-.21-.15-.54-.03-.3.09-.52-.06.03.09.03-.52.03-.27-.2-.45-.07-.03-.07-.21 0-.4.27-1.36.15-.12.36-.1.25.04.34 0l.48.19q.24.09.4-.03.18-.24.48-.24.09 0 .24.03l.27.03q.28 0 .46-.18.72 0 1.9.39.34.03.76-.1-.82-.39-1.18-1.2-.94-.43-1.18-1.4-.42 0-1-.57-.54-.57-.88-.63-.03-.16-.24-.46-.2-.3-.2-.48 0-.1.05-.15.1-.1.36-.52.22-.33.52-.27l.18-.48q.12-.25.36-.28l.28.03 1.54 1.55q0 .27.24.45.45-.06.76.42.39.7.51.8.03.17-.09.44-.1.28-.1.43 0 .12.07.24.09-.18.42-.21.34-.03.43-.1.18.1.66.73.37.52.58.46-.12-.55-.19-1.85-.03-1.3-.15-1.84 0-.12.16-.43.15-.3.15-.45 0-.27-.4-.42.12-.28.1-1.27 0-.76.39-1.18.48-.06 1.12.12l1.08.3q.25 1.27-.08 1.81h-.28q.4.94.52 2.57 0 .1-.1.13-.08 0-.2-.06-.04.15.18.3.2.12.15.33-.18 1.45-.1 1.6.07 0 .28-.24.12-.24.48-.54.28-.1.58-.18.33-.1.54.09.24.18.55.18.12-.06.12-.12l-.12-.1q-.12-.08-.12-.17-.13-.16-.49-.34-.03 0-.09.06-.03.03-.06.03-.24 0-.24-.06-.1-.42.51-.81.73-.55.82-.73.09-.06.12-.15.21-.03.51-.18l-.06-.34q.28-.12.82-.81.45-.58.79-.58.24 0 .54.25.03.09.18.27-.15.09.06.51.1.15.6.43.43.2.4.45-.63.76-2.12 1.84-.03.15-.24.4-.24 0-.42-.24-.1.15-.1.48.04.33 0 .45-.63.55-1.66 1.6-.12.16-.03.19.12 0 .52-.12.51.06.78.18.28.12.52.15.21-.24 1.6-.4.34.16 2.33.07.21.12.21.33 0 .15-.15.51-.12.37-.09.55-.06.18.1.45.17.24.17.33 0 .1-.03.19z"/></svg>
