<svg xmlns="http://www.w3.org/2000/svg" viewBox="0 0 17.697 19.09" width="32" height="32" fill="#FFFFFF"><path d="M17.697 7.958h-.544q.212 1.15.302 2.147.091.999.121 1.846 0 .514-.03.998-.03.454-.09.877l-.666.514q.877.757.756 2.209-.06.332-.121.907-.06.575-.12 1.361-.303.06-.576.06h-.302q-.212 0-.545-.03-1.089-.09-1.784.243l-.121-.06q-.121-.697-.182-1.423-.03-.726-.03-1.512 0-.696.03-1.392.06-.695.121-1.452l1.15-.786q-1.422-.514-1.301-2.42l.12-1.452q.061-.514.092-.877.03-.394.03-.636l.272-.453q-.332-.757-.514-1.573-.181-.817-.12-1.755l.18-3.116 1.09.091q.756.03.847.847.242-.151.605-.363.393-.242.907-.514l.182.06-.152 3.51.152.604q.09.363.15.847 0 .091-.06.847-.03.726-.15 2.118zM10.074.244q-.211.302-.393.968.605 0 .787.393 0 .121.03.212-.151.484-.121 1.815 0 1.089-.454 1.664.424 1.15.484 3.962.03 1.513-.06 2.874-.091 1.331-.273 2.602l-.211.06-.636.877q1.21-.09 1.331 1.664.121 1.724-.574 1.724h-.636q-.393 0-.907-.03T7.533 19q-.363-.03-.605-.03l-.15-1.362h.12l.151-1.391q.061-.514-.272-1.12.06-.15.091-.514.03-.363.06-.907.061-.817.847-1.482l-.907-.212-.121-.272q.333-.817.242-2.783-.09-1.876.424-2.814Q6.414 4.48 6.353 1q0-.877 1.483-.907.242-.03.787.03.574.03 1.451.12zM2.482 15.58q1.15.544 1.119 1.633 0 .121-.06.575-.061.454-.182 1.24-.242 0-1.331-.363-.908-.302-1.815.212-.151-.545-.212-1.936-.03-3.086.666-3.781l-.575-.363-.09-1.906q.03-1.12.725-1.997-.816-.786-.695-2.601.03-.393.15-1.12.122-.756.364-1.875l-.514-.544q0-.03.06-1.452 0-.908.393-1.301.847-.03 2.814.423.06.303.09.575.03.242.03.484 0 .514-.12.787h-.696q.938 1.905.968 4.114.03.665-.03 1.663-.061.968-.182 2.33.333.635.212 2.117-.06.998-.121 1.573-.03.545-.03.696z"/></svg>
