<svg xmlns="http://www.w3.org/2000/svg" viewBox="0 0 23.625 13.041"><path d="M18.12 2.878q-.666.09-1.815-.061-.938-.121-1.483-.09l-.181-.091-.575.332-.181-.06q-.121.212-.273.393-.15.182-.363.393l-.242-.12q-.15 1.633-1.573 3.962-2.147 3.418-2.268 3.72l-.636.152.212.424-.272 1.21-2.844-.243-.06-.211q0-.424.907-1.845.908-1.452 1.301-1.634l-.181-.272.695-1.301q.363-.696.999-.968-.03-.877.665-2.238.726-1.301.726-1.573-.454-.061-.998-.061-.545-.03-1.15 0l-.907.03q-.454.484-.514.484-.06.06-.636 0l-.665.152q.454.332.575.877-.242.696-1.18 1.815-.908 1.089-1.21 1.724l-2.602-.151q.878-1.452 1.331-1.603L2.36 5.78q.091-.363 1.846-2.903-.333-.03-.787-.03-.423 0-.968.06l-1.724.12L0 2.939.635.185l1.059.121q.181.424.272.424l.06-.121q.152-.06.364-.121l.484-.121q.242-.06.453-.091.212-.06.333-.06 1.12.03 2.783.06h3.933q.181.121.332.272.152.121.273.333.06 0 .302-.242l.06-.333q.273-.302 1.18-.302.394-.03 1.452.181 1.301.242 1.543.484l1.573-.393q1.573-.03 2.45.454.394-.303 1.24-.424.878-.151 2.24-.09l.604.03-.03 2.269q-.303-.03-.696-.061-.363-.03-.847-.06-1.028.06-1.15.332-.907 1.603-2.994 4.72l-2.874.241q.938-1.573 3.086-4.81z"/></svg>
