<svg xmlns="http://www.w3.org/2000/svg" viewBox="0 0 32.156 15.095"><path d="M32.125 9.498q-.09.03-.15.061h-.092q-.06.03-.09.03-.182 0-.636-.03-.453-.06-.695-.03-.121-.091-.424-.182-.151 0-.635.06-.454.061-.696.061-.393 0-.696-.09-.15-.242-.393-.242-.877 0-1.633.363l-.938-.273q-.272.152-.575.212-.272.06-.575.06h-.332l-.121-.272q.06-.181.272-.484l.03-.151q-.242.03-.575.363-.423.514-.453.514l-.484.03-.091 1.18-.303.303q.363.423.363 1.33 0 .424-.09 1.271-.091.817-.091 1.24-.212.121-.696.061h-.302q-.121-.03-.212-.03-.121 0-.182-.03-.393-.03-.756.272l-.272-.151q-.06-.757-.121-1.452-.03-.726-.03-1.422 0-1.09.09-2.148.212-.151.575-.605-.423-.121-.484-.333.03.182.03.03.03-.15.03-.665 0-.151-.06-.454-.06-.332-.06-.484 0-.272.181-.816.182-.545.182-.817l-.121-.151q-.363.242-.636.272.091.06.363.333l-.907 1.33q-.272.424-.605.666-.303.212-.605.333v.06q0 .908-1.27 2.088-.152 0-.394-.605l-.181.03q-.363 0-.605-.605v-.242l-.121.03q-.242 0-.454-.121-1.24-1.331-1.059-1.573-.12-.09-.333-.423l.061-.121-.09-.182-.243.03-.333-.03q-.12-.212-.332-.363v.121q.03.06.03.09 0 .061.03.061 0 .242-.03.605 0 .333-.03.817-.03.454-.06.787v.544q.15.363.15.817 0 .817-.272 1.663.151.515.212.968.06.454.06.878v.423q-.423.545-.907.545-.182 0-.454-.03-.242-.03-.514-.061-.272-.03-.514-.06t-.363-.03q-.06-.303-.06-.394 0-.333.12-.605.06-.03.151-.09.061-.061.152-.122.12-.06.272-.151l-.151-.272q-.303-.03-.394-.333-.03-.09-.06-.212 0-.151.03-.332v-.243q.03-.09.03-.15 0-.092.03-.152 0-.303-.03-.908t-.03-.907q-.423-.121-.817-.09-.272-.152-.514-.243l-.212.272q-.242-.03-.726 0-.332.03-.514.061h-.242q-.333 0-.635-.151-.303-.182-.393-.182l-.152-.09q-.211 0-.544.332-.393 0-1.24.091-.424.03-.726.06h-.515Q.665 9.861.03 9.65L0 9.438q0-.484.938-1.059.302-.484.484-.726.181-.272.242-.332.484-.575 1.028-.787v-.151q0-.152.152-.605l1.058-1.452.333.09.121-.181-.03-.242q0-.302.514-.665.514-.424.484-.726Q6.262 1.18 7.26.272h.09q.303 0 .303.636 0 .544-.211.756l.332.998q0 .968-.756 1.543h-.09q-.031-.03-.061-.03h-.182q-.12.393-.605 1.36-.302.061-.695.727-.363.575-.424.938.121.181.666.242.423 0 .756-.091.181.212.151.514.06-.03.242-.181.182-.182.514-.484h.273q.15 0 .453-.03.333-.061.787-.122l.665.121.121.152v-.394q0-.665.182-1.996-.182-.393-.182-.817 0-.514.303-.998-.333-.333-.333-1.936 0-.363.121-.756h.151q.454 0 1.029.847 1.119.695 1.21.756.726.544.726 1.15 0 .483.544.665.121.393.696.998l-.09.182q.09.12.544.302.211.333.544.756.363.424.877.938.303-.212.636-.817.151-.03.484-.272L17 5.748q0-.363.604-.636l.242.03v-.15q0-.606 1.15-2.058.151-.09.696-.574.12-.273.302-.545.151-.09.877-.968.575-.665 1.06-.665l.211.03q.212.212.212.423 0 .182-.06.484-.031.273-.092.605l-.06.605q-.03.273-.03.454 0 .303.06.847.091.545.091.817 0 1.27-.09 1.936h-.122q.03.09.06.302.031.182.061.484.242-.03.514-.03h1.12l-.091.272q.212.152.575.152h.272l.302-.061q-.242-.09-.453-.242.181-.09.453-.121.273-.06.545-.06h.484q.242 0 .363-.061.605.121.635.121h.091q-.06-.424-.575-.908-.514-.484-.575-.695-.03-.182-.09-.394-.06-.211-.242-.242l-.06.03q-.182 0-.485-.211-.12-.212-.12-.454-.394-.272-.455-1.059.03.636.03.363.03-.302.03-1.573 0-.211-.06-.635-.06-.423-.06-.635 0-.575.242-.726.272 0 1.24 1.361v.091q0 .212.545.756V2.3q0 .242.484.817l.15.544.182-.03q.394 0 .666.635l-.03.242h.09q.152-.03.515.121l1.18 1.513q0 .574.241.998.363-.151.575-.151.424.574.877 1.15.454.544.878 1.149z"/></svg>
