<svg xmlns="http://www.w3.org/2000/svg" width="67.77" height="32" fill="#fff" viewBox="0 0 68.1 15.1"><path d="M68.04 11.68q-.2.07-.32.13h-.2q-.12.07-.18.07-.39 0-1.35-.07-.96-.12-1.47-.06-.26-.2-.9-.39-.32 0-1.35.13-.96.13-1.47.13-.83 0-1.47-.19-.32-.51-.84-.51-1.85 0-3.45.77l-2-.58q-.57.32-1.2.45-.58.12-1.23.12h-.7l-.26-.57q.13-.38.58-1.03l.06-.32q-.5.07-1.21.77-.9 1.1-.96 1.1l-1.03.05-.2 2.5-.63.65q.77.9.77 2.81 0 .9-.2 2.7-.19 1.72-.19 2.62-.45.26-1.47.13h-.64q-.26-.06-.45-.06-.26 0-.39-.07-.83-.06-1.6.58l-.57-.32-.26-3.08q-.06-1.53-.06-3 0-2.32.19-4.56.45-.32 1.22-1.28-.9-.25-1.03-.7.06.38.06.06.07-.32.07-1.4 0-.33-.13-.97-.13-.7-.13-1.03 0-.57.39-1.72.38-1.16.38-1.73l-.25-.32q-.77.5-1.35.57.2.13.77.7l-1.92 2.82q-.58.9-1.28 1.41-.65.45-1.29.71v.13q0 1.92-2.69 4.42-.32 0-.83-1.28l-.38.06q-.77 0-1.29-1.28v-.51l-.25.06q-.51 0-.96-.25-2.63-2.82-2.25-3.34-.25-.19-.7-.9l.13-.25-.2-.38-.5.06-.71-.06q-.26-.45-.7-.77v.25q.06.13.06.2 0 .12.06.12 0 .52-.06 1.28 0 .71-.07 1.73l-.12 1.67v1.15q.31.77.31 1.73 0 1.73-.57 3.53.32 1.09.45 2.05.12.96.12 1.86v.9q-.9 1.15-1.92 1.15-.38 0-.96-.07l-1.09-.13-1.09-.12q-.5-.07-.76-.07-.13-.64-.13-.83 0-.7.25-1.28l.32-.2q.13-.12.32-.25.26-.13.58-.32l-.32-.58q-.64-.06-.83-.7-.07-.2-.13-.45 0-.32.06-.7v-.52q.07-.19.07-.32 0-.2.06-.32 0-.64-.06-1.92-.07-1.28-.07-1.92-.9-.26-1.73-.2-.57-.32-1.09-.5l-.45.57q-.5-.07-1.53 0-.7.06-1.1.13h-.5q-.7 0-1.35-.32-.64-.39-.83-.39l-.32-.19q-.45 0-1.16.7-.83 0-2.62.2-.9.06-1.54.12H4.74q-3.33 0-4.68-.44L0 11.56q0-1.03 1.99-2.25Q2.63 8.3 3 7.78q.39-.58.51-.7Q4.55 5.85 5.7 5.4v-.32q0-.32.32-1.28L8.26.73l.71.2.26-.4-.07-.5q0-.64 1.1-1.41 1.08-.9 1.02-1.54 1.98-3.01 4.1-4.94h.19q.64 0 .64 1.35 0 1.15-.45 1.6l.7 2.12q0 2.05-1.6 3.26h-.19q-.06-.06-.13-.06h-.38q-.26.83-1.28 2.88-.64.13-1.47 1.54-.77 1.22-.9 1.99.25.38 1.4.51.9 0 1.6-.2.4.46.33 1.1.13-.07.51-.39.39-.38 1.09-1.02h.58q.32 0 .96-.07.7-.13 1.66-.25l1.41.25.26.32v-.83q0-1.4.38-4.23-.38-.83-.38-1.73 0-1.09.64-2.11-.7-.7-.7-4.1 0-.77.25-1.6h.32q.96 0 2.18 1.79l2.56 1.6Q27.1-2.99 27.1-1.7q0 1.02 1.15 1.4.26.84 1.48 2.12l-.2.38q.2.26 1.16.64.45.71 1.15 1.6.77.9 1.86 2 .64-.46 1.35-1.74.32-.06 1.02-.57l-.06-.39q0-.77 1.27-1.34l.52.06v-.32q0-1.28 2.43-4.36.32-.19 1.48-1.21.25-.58.64-1.16.32-.19 1.85-2.05 1.22-1.4 2.25-1.4l.45.06q.45.45.45.9 0 .38-.13 1.02-.07.58-.2 1.28L46.9-3.5q-.07.58-.07.96 0 .64.13 1.8.2 1.15.2 1.73 0 2.69-.2 4.1h-.26q.07.19.13.64.07.38.13 1.02.51-.06 1.09-.06h2.37l-.2.57q.46.33 1.23.33h.57l.64-.13q-.51-.2-.96-.52.39-.19.96-.25.58-.13 1.16-.13h1.02q.51 0 .77-.13 1.28.26 1.34.26h.2q-.13-.9-1.22-1.92-1.09-1.03-1.22-1.48-.06-.38-.19-.83-.13-.45-.51-.51l-.13.06q-.38 0-1.03-.45-.25-.45-.25-.96-.83-.57-.96-2.24.06 1.35.06.77.06-.64.06-3.33 0-.45-.12-1.35-.13-.9-.13-1.34 0-1.22.51-1.54.58 0 2.63 2.88v.2q0 .44 1.15 1.6v.19q0 .51 1.03 1.73l.32 1.15.38-.06q.84 0 1.41 1.34l-.06.52h.19q.32-.07 1.09.25l2.5 3.2q0 1.22.5 2.12.78-.32 1.23-.32.9 1.22 1.85 2.44.97 1.15 1.86 2.43z"/></svg>
