<svg xmlns="http://www.w3.org/2000/svg" viewBox="0 0 24.184 16.352" width="32" height="32" fill="#FFFFFF"><path d="M0 3.916C.9 2.858 2.364 1.552 4.392 0L5.61.238c.582 1.2 1.561 2.337 2.937 3.413l.98 1.456 3.174.502c.477.124.997.23 1.562.318.564.07 1.214.33 1.885.384.276.257.668 1.508.668 1.508.966-1.453.096-1.079 1.257-.523.952 1.2 2.258 1.947 3.916 2.706l.502 1.72c.247.335.512.723.794 1.164.3.44.6.943.9 1.508l-.238 1.958h-2.7c-.317-.706-.881-1.358-1.693-1.958-1.164-3.704-3.854-5.654-8.07-5.848-3.325.177-5.041 1.949-5.148 5.316-.01.33-1.262-.582-1.638.175.606.77 1.483.56.912 2.315H1.958c.272-2.64.74-4.817 1.403-6.534.066-.173.813-.24 1.376-.6.33-.211.575-.674.643-.913.07-.25-1.73.697-1.348.053.64-1.08 1.324-1.93 2.16-2.484L4.576 3.493c-.635.352-1.287.705-1.958 1.058-.67.353-1.375.706-2.116 1.058z"/></svg>
