<svg xmlns="http://www.w3.org/2000/svg" width="47.33" height="32" fill="#fff" viewBox="0 0 35.77 16.35"><path d="M0 1.88C1.33.3 3.5-1.62 6.5-3.92l1.8.36a14.7 14.7 0 0 0 4.34 5.04l1.45 2.16 4.7.74c.7.18 1.47.34 2.3.47.84.1 1.8.49 2.8.57.4.38.98 2.23.98 2.23 1.43-2.15.14-1.6 1.86-.78 1.4 1.78 3.34 2.88 5.8 4l.73 2.55a33.15 33.15 0 0 1 2.51 3.95l-.35 2.9h-4a7.52 7.52 0 0 0-2.5-2.9c-1.72-5.48-5.7-8.36-11.94-8.65-4.91.26-7.45 2.89-7.6 7.87-.02.48-1.88-.87-2.43.25.9 1.14 2.2.83 1.35 3.43H2.9a38.1 38.1 0 0 1 2.07-9.67c.1-.25 1.2-.35 2.04-.88.48-.31.85-1 .95-1.35.1-.37-2.56 1.03-2 .08.95-1.6 1.96-2.86 3.2-3.68l-2.4-3.52c-.93.52-1.9 1.04-2.89 1.56A84.5 84.5 0 0 1 .74 4.38Z"/></svg>
