<svg xmlns="http://www.w3.org/2000/svg" viewBox="0 0 19.943 20.509" fill="#FFFFFF"><path d="M2.087 3.781l.787-.333.12-.635.938-.393.575-.817C5.495 1.12 6.797.655 8.41.212l.182.574.544-.363C9.56.141 10.083 0 10.708 0c1.392 0 2.34.585 2.844 1.754.181 0 .827.132 1.936.394l.302.786.303.06c.282-.16.544-.241.786-.241 1.11 0 1.957 1.361 2.541 4.083.444 2.118.605 3.893.484 5.324-.403.02-.695.04-.877.061h-.242c.08.242.323.454.726.635.08.162.121.373.121.635 0 .666-.282 1.412-.847 2.239-.544.827-1.079 1.361-1.603 1.603-.262.525-.555.948-.877 1.27-.222.081-.494.172-.817.273-.303.1-.666.212-1.09.333-.04-.06-.07-.091-.09-.091 0 .12-.01.212-.03.272-.04.162-.111.212-.212.151-.827.605-1.694.908-2.601.908-.303 0-.636-.05-.999-.151-.484.14-.877.211-1.18.211-.443 0-.766-.13-.967-.393a6.935 6.935 0 01-3.116-.665c-.968-.464-1.714-1.12-2.239-1.967l-.998-.816-.212-.333-.544.181C.403 14.4 0 12.332 0 10.316c0-.664.02-1.146.344-1.611.465-.67-.204-1.201.322-2.353zm14.4 10.376c.463-1.331.695-2.531.695-3.6 0-1.795-.676-3.62-2.027-5.475h-.696l-.514.03-.333-.544c-1.129-1.15-2.067-1.725-2.813-1.725-.443 0-.887.172-1.33.515a.954.954 0 00-.515-.152c-.262 0-.615.121-1.059.363-.887-.08-1.613.323-2.178 1.21l-.423.363-1.27.696a5.011 5.011 0 00-.455 1.029c-.14.1-.282.252-.423.453a3.733 3.733 0 00-.333.636c-.1.242-.181.494-.242.756-.06.242-.09.484-.09.726 0 .383.07.655.211.817 0 .363-.171.605-.514.726.12.847.524 2.006 1.21 3.478.847 1.755 1.654 2.632 2.42 2.632a.99.99 0 00.726-.302l.242.03.333.484c.403.02.726.03.968.03.242-.02.403-.04.484-.06.403.584.998.877 1.784.877.626 0 1.16-.192 1.604-.575v-.363l.544.393c.525-.262.998-.524 1.422-.786.423-.262.807-.524 1.15-.787.02-.12.08-.272.18-.453l.364-.545c.141-.181.292-.343.454-.484a6.54 6.54 0 01.423-.393z"/></svg>
