<svg xmlns="http://www.w3.org/2000/svg" viewBox="0 0 13.915 18.782"><path d="M13.915 18.15l-.09.484q-.213.212-.545.121-.212-.03-.363-.06-.121-.03-.182-.061-.393 0-1.059-.272-.181.151-.756.181-.605.06-.696.151-.484.091-1.18-1.058-.06-.182-.03-.333.03-.06.03-.121 0-.06.031-.182l-1.694-1.089q-.06-.181-.545-.635-.363-.393-.363-.726 0-.151.03-.242-.09-.151-.332-.151-.151.03-.272.03h-.121q-.091-.212-.878-.817-.665-.544-.665-.968.151-.272.817-.968.574-.605.665-1.028.272-.212.666-1.15.393-.937.726-1.119 0-.302-.363-.454-.121-.06-.303-.242l-.423-.423q-.03-.09-.03-.182 0-.12.03-.181.242-.212.302-.393-.06-.06-.12-.06-.122 0-.364.211-.242.181-.423.181-.726 0-1.392-.514-.363-.302-.544-.272-.152.09-.091.272.03.091.03.151 0 .061.03.121-.242.454-.211 1.029.09 1.724.09 1.059l-.03 2.813q-.242.06-.484.242.03.242.363.817.121.211.151.544.061.303.121.787.061.635.091.998.03.333.03.393 0 1.12.03 1.966.061.817.122 1.331.03.242-.212.303-.06 0-.424-.06-.363-.061-.998-.182-.151-.03-.272-.03h-.242q-.484 0-.877.302-.03.03-.152.03-.181 0-.363-.423.182-.635.273-1.997-.242-.332-.242-.695 0-.182.03-.515.06-.363.06-.544 0-.212-.03-.303L.091 10.95q.332-.332.302-.907-.06-.968-.03-.998.06-.182.06-.333 0-.212-.211-.605Q0 7.683 0 7.472q0-.152.06-.333-.03-.726.182-2.118.272 0 .726-.453.454-.484.605-.545 0-.06.09-.12.061-.061 0-.122-.362.151-1.24.091Q.062 3.6.092 2.934q.09-.938 0-1.059V.756q0-.272-.03.091Q.12.212.393 0l.363.09q.333.333.878.817.544.454 1.33 1.06.03.06.696.574.515.423.515.605 0 .181-.091.363l.09.09q.212 0 .606-.09.393-.121.574-.121.272 0 .968.484l1.18.817q.786.544.998.937.635.515.787 1.06.242.06.907.12.514 0 .726.393.121.091.121.242 0 .091-.242.394-.212.302-.212.453-.363.152-.665.424v.696q-.333.393-.787.998-.423.605-.998 1.482-.212.06-.423.303.574.695 1.119 1.33.575.636 1.12 1.21 0 .152-.334.333-.302.152-.332.212l1.18.272q.483.03 1.149.666.756.696 1.089.817z"/></svg>
