<svg xmlns="http://www.w3.org/2000/svg" viewBox="0 0 20.702 18.695" fill="#FFFFFF"><path d="M16.846 11.774c.336.277.653.692.95 1.246l.355.712c.119.237.247.465.386.682 0 .593.365 1.265 1.097 2.017.712.731 1.068 1.325 1.068 1.78v.237h-2.076c-1.009 0-1.632-.11-1.869-.327-.138.317-.336.475-.593.475-.08 0-.228-.02-.445-.06a2.64 2.64 0 00-.504-.059c-.08-.06-.228-.109-.445-.148l-.504-.09c-.771.218-1.256.327-1.454.327-.197 0-.405-.01-.622-.03a6.897 6.897 0 00-.683-.03c-.257-.019-.523-.029-.8-.029-.534 0-1.315.03-2.343.09-.514.039-.97.068-1.365.088-.395.02-.731.03-1.008.03-.573.02-1.354.01-2.343-.03-.989-.04-2.205-.099-3.648-.178.277-.455.603-1.038.979-1.75.395-.711.85-1.552 1.364-2.52l.95-.356-.12-.683c.159-.276.307-.543.445-.8.159-.257.297-.505.416-.742.593-1.166.949-2.036 1.067-2.61a6.8 6.8 0 00.682-1.008c.257-.415.524-.91.801-1.483.08-.158.326-.475.742-.95.316-.355.454-.711.415-1.067.435-.257.731-.514.89-.771l-.178-.445c.04-.099.118-.247.237-.445.138-.217.316-.494.534-.83.316-.495.464-.95.445-1.365L10.35 0c.316.277.652.84 1.008 1.69.317.732.682 1.256 1.098 1.572l-.149.86c.771.475 1.276 1.167 1.513 2.077.118.04.445.524.979 1.453.494.89.84 1.335 1.038 1.335.02.257.207.701.563 1.334.336.574.485 1.058.445 1.453zm-1.81 0c-.197-.731-.414-1.097-.652-1.097l-.089.089c-.296-.297-.721-.89-1.275-1.78-.237-.098-.633-.721-1.186-1.868-.574-1.167-1.058-1.81-1.454-1.928-.138.257-.365.623-.682 1.098a45.807 45.807 0 01-1.186 1.78c-.83 1.146-1.394 2.144-1.69 2.995-.139.395-.475.949-1.009 1.66-.534.732-.93 1.404-1.186 2.017.178-.158.375-.326.593-.504.217-.178.455-.376.712-.593l.83-.415a6.15 6.15 0 01-.178-.475c.277-.257.455-.445.534-.563.455-.08 1.127-.307 2.017-.683.079.02.207.03.385.03.139 0 .346-.02.623-.06.297-.039.514-.059.653-.059.296 0 .524.07.682.208.257.08.455.119.593.119.02 0 .05-.03.089-.09.06-.059.188-.088.386-.088.395 0 1.147.46 2.169 1.365a9.58 9.58 0 011.22 1.11c.076.089.152.204.276.303-.044-.161-.202-.354-.403-.732-.554-1.048-.81-1.66-.771-1.839zm-1.838 2.284c-.158-.02-.366-.05-.623-.089a8.155 8.155 0 01-.92-.207 3.925 3.925 0 00-.86-.178 3.994 3.994 0 00-.652-.06c-.633.04-1.068.218-1.305.534l-.118.03c-.139 0-.386-.06-.742-.178-.138.158-.287.405-.445.741l-1.008.83c-.415.416-.672.782-.771 1.098.138 0 .375.03.712.09.02.118.266.177.741.177.06 0 .158-.01.297-.03.138-.04.286-.079.444-.118.159-.06.307-.1.445-.119.159-.04.297-.06.416-.06.237 0 .504.01.8.03.317 0 .673.01 1.068.03.396.02.732.04 1.008.06h.772l.754-.13c.257 0 .54.169.817.01.02-.02.159-.01.416.03.158 0 1.275.015 1.335-.004l-.847-.982c-.138-.138-.695-.507-.893-.724-.178-.218-.623-.445-.841-.78z"/></svg>
