<svg xmlns="http://www.w3.org/2000/svg" viewBox="0 0 18.002 18.615"><path d="M17.862 17.974q-.557.64-1.17.64-.418 0-1.115-.083-.39-.056-.696-.084-.28-.027-.446-.027-1.031-.028-1.589-.697-.613.306-1.867.752-.585.084-1.449-.111-.975-.195-1.42-.195-.085-.14-.28-.14-.083 0-.39.14-.278.14-.418.14-.083 0-.25-.057-.28.28-.753.223l-.836-.083q-.53-.363-.808-.976-.362.864-.64.836l-.391.056h-.418q-.195 0-.53-.028-.334-.028-.808-.083-.947-.084-1.337-.056Q0 18.03 0 17.807q0-.14.084-.474.111-.335.083-.502-.028-1.42.167-4.291.084-.167.251-.279.195-.111.362-.167.196-.084.335-.14.167-.055.167-.083-.111-.111-.279-.111-.083 0-.278.055-.195.028-.307.028-.167 0-.306-.14-.028-.222.055-1.727.084-1.003-.083-1.728v-.947q0-.613.334-.92.028-.027.028-.139 0-.111-.167-.334-.167-.251-.167-.279 0-2.285.306-3.121Q.28 2.118.28 1.449V.697q0-.279-.028-.39.083-.28.306-.28.168 0 .307.112.195.335.669.335.446 0 .92-.335.139.028.417-.055Q3.15 0 3.26 0q.195 0 .335.167.055.39.055.976.028.585 0 1.337-.055.92-.055 1.505 0 .585.028.864 0 .14-.056.362-.056.195-.14.418l-.11.446q-.057.195-.057.306 0 .418.335.697.055.279.055.446 0 .167-.055.446-.056.278-.14.585l-.111.557q-.056.251-.056.418v.251q.028.112.056.25-.056 0-.14.391l.307.195q0 1.115.418 3.233-.167.891-.167.752 0 .279.25.474.419-.084.753-.084.585 0 .892.223.028 0 .195.39.167.362.334.362.056-.362.558-.557.557-.25.557-.557-.112-.251-.112-.585 0-.251.084-.725t.084-.725q0-.222-.028-.668-.028-.474-.028-.725 0-.808.64-1.449-.473-.223-.445-.446-.028-.111 0-.306.028-.223.028-.53.028-1.03-.279-1.477.084-.25 1.06-1.393.138 0 .417.084.307.055.697.195.669.25 1.114.139.251.279.223.975-.055.92.028 1.087-.028.028-.028.167 0 .112.028.363.056.223.056.362 0 .223-.195.418-.502-.14-.53-.14.028.251.056.446.028.168.056.279.111.474.418.585.056.279.056.585 0 .28-.028.586l-.112 1.17q-.25.167-.25.418 0 .084.167.446.195.362.195.557 0 .112-.028.167.028.056.752.112l.279.056q.279.055.669.195.39.139.864.39.055-.056.613-.279.53-.195.668-.474 0-.278-.055-.808-.028-.557-.028-.836 0-1.365.724-1.95l.084-.307q-.167.223-.474.14-.39-.084-.25-.419.139-.501.139-1.058 0-.28-.056-.836-.028-.586-.028-.864 0-.864.251-1.421-.223-.502-.223-.976 0-.585.39-1.198-.334-.307-.39-1.282-.028-.557-.084-.892-.055-.362-.111-.501l.195-.725q.112-.446.418-.585.223.084.53 0 .445-.084.473-.084.307 0 .474.223.78-.306.836-.306.14 0 .362.14l.195.25v2.647q-.25.195-.195.585.335.251.335.641 0 .084-.056.28-.028.194-.084.417l-.111.446q-.028.195-.028.334-.418.14-1.143.836.251-.083.558.168.223.139.334.222.14.056.195.084.167.752.167 1.728 0 .334-.027.836-.028.501-.084 1.17-.056.641-.084 1.143 0 .501.028.836.167.39.167.808 0 .585-.362 1.644.474 1.365.39 2.73z"/></svg>
