<svg xmlns="http://www.w3.org/2000/svg" viewBox="0 0 16.428 16.373" fill="#FFFFFF"><path d="M16.426 8.003q.03.696-.363 1.361-.121.091-.121.212 0 .09.09.272.121.182.121.273.091.605-.665 1.936-.151.09-.272.332-.121.212-.242.454l-.242.484q-.121.212-.303.303-.363.211-.968.665-.575.424-1.361 1.089-.393-.09-.787.303-.393.393-.786.302-.303.03-.787.303-.12.06-.211.06t-.273-.09q-.15-.091-.242-.091-.12 0-.272.15-.151 0-.423-.211-.273-.242-.454-.181-.333.635-1.27.363-.515-.212-.969-.363-.453-.152-.877-.212-.06-.272.242-.484l.454-.363-.06-.06q-.091.03-.515.15-.423.122-1.18.364-.09-.03-.272-.182-.151-.151-.333-.302-.181-.182-.393-.333-.181-.151-.363-.182-.423-.12-.726-.756-.333-.756-.484-.938-.302-.242-.393-.816-.333-.484-.333-.817 0-.242.121-.363Q.03 10.453 0 10.09q.03-.847.423-1.089-.03-.06-.03-.786 0-.484-.332-.666.211-.211.453-.847Q.303 6.218.272 5.25l.787-1.24q.151-.212.665-.696.545-.514 1.422-1.482l.363-.393q.181.09.302.09t.273-.09l.302-.242q.151-.121.272-.212.152-.09.303-.09l.907-.061q.454-.06.636-.454Q8.409-.134 9.559.047l.212.394q.151 0 .272.181.121.182.181.182.061 0 .152-.091l.242-.182q.151-.09.272.03l.121.182q.06.09.181.03.152-.06.424.121.272.152.393.152.484.242.817.423.333.182.484.303.665.453.938 1.119.998.907.907 1.452l-.302.423q.242 0 .514.121.181-.181.363-.09.12.03.09.242 0 .181.122.242.06.453.181 1.15.151.665.303 1.572z"/></svg>
