<svg xmlns="http://www.w3.org/2000/svg" viewBox="0 0 16.19 16.344" fill="#FFFFFF"><path d="M15.615 9.144q-.03.151.03.333l.121.363q.091.181.151.333.091.15.091.242 0 .211-.272.423-.03.182-.182.424l-.272.363q-.242.605-.877 1.24-.877.938-.998 1.12-.303.241-.696.544-.363.272-.877.574l-.787.484q-.393.242-.817.484-.15.091-.302.091-.151 0-.393-.12-.242-.152-.363-.152-.182 0-.333.12-.151 0-.272-.15-.121-.152-.182-.182-.302.635-.756.666-1.603-.182-2.51-.575 0-.151.211-.333.242-.212.242-.363 0-.12-.03-.151-.151-.151-.242-.151t-.363.15q-.242.122-.393.092-.605.363-.636.363-.09 0-.12-.03-.031-.061-.152-.152-.09-.09-.302-.181-.182-.121-.575-.242-.635-.182-.635-.666-.03-.09-.212-.181-.151-.091-.182-.182-.09-.393-.635-1.21-.484-.665-.484-1.18 0-.12.06-.363-.15-.211-.393-.332-.242-.152-.12-.454 0-.272.09-.756.121-.484.121-.726t-.03-.333l-.242-.121q-.121-.06-.091-.212 0-.242.09-.696.122-.484.122-.726 0-.363-.121-.605-.06-.242.12-.453.182-.242.334-.515.211-.453.484-.847.302-.423.574-.847.636-.998 1.392-1.482.333 0 .907-.423.575-.454.908-.454.212 0 .302.03Q6.691.16 8.506.07q.03-.12.363-.03l.515.665q.06 0 .211-.12.152-.152.212-.152.09 0 .151.09.182.092.575.152.393.06.575.182.12-.03.272.06.181.06.302.182.152.09.273.181.151.09.242.09.12 0 .211-.03.182.091.333.273.182.151.333.333l.333.332q.151.152.302.212.272.363.575.756.333.363.302.847-.12.363-.12.394.12.09.483.03.273-.09.424-.03.06.332.181.816.152.484.394 1.12-.03.09-.03.242 0 .211.12.635.152.423.152.665 0 .152-.06.394-.031.181-.303.393-.273.181-.212.393zm-2.299.09q.181-.392.181-.997 0-.847-.393-1.846-.06-.211-.151-.514-.06-.333-.151-.756-.212-.03-.363-.333-.121-.423-.182-.484-.363-.181-.454-.786-.09-.696-.332-.938-.03.09-.03.212-.03.09-.03.242 0 .15-.031.332-.09.091-.212.091-.151 0-.423-.151-.272-.182-.424-.182-.03-.03-.12-.15-.091-.152-.243-.122-.151.121-.363.121-.12 0-.423-.09-.272-.091-.424-.091-.242 0-.453.09.211-.06.484.242.302.273.544.636.363.09.484.574.06.242-.302.545.181.242.393.242.242-.03.302.302.273.363-.272.636 0 .12.151.211.182.06.333.121-.09.303.333.303l-.06.847q.393.544.332.938-.03.12-.151.302-.091.151-.06.424-.152.332-.273.847-.09.332-.847.211 0 .091.09.212l.212.212q.121.09.212.181.121.091.121.121-.06.212-.302.454-.242.242-.303.514-.151.424-.786.817 0 .182-.091.303-.06.09-.212.181-.12.06-.272.182-.121.09-.212.272.393.03 1.12-.151.423-.121.695-.152.272-.06.424-.09.181-.06.423-.182.272-.151.605-.333.212-.15.484-.302.303-.182.726-.393.091-.121.03-.363-.09-.212-.03-.394.363-.302.454-1.028.121-.787.242-1.09z"/></svg>
