<svg xmlns="http://www.w3.org/2000/svg" viewBox="0 0 16.365 16.305" fill="#FFFFFF"><path d="M16.365 8.046q0 .03-.09.121-.091.091-.212.242-.091.121-.182.273-.06.12-.06.242 0 .242.12.635.122.363.122.575 0 .181-.03.272-.243.484-.696 1.18-.454.665-1.12 1.603-.242.605-1.089 1.089-1.028.544-1.24.907-.393-.03-.847.333-.393.363-.847.303-.09.03-.212.242-.09.181-.242.181-.03-.212-.302-.514-.09-.03-.303.06-.181.061-.242.061-.12 0-.211-.182-.152-.03-.273.061-.12.09-.242.212-.09.12-.211.242-.091.12-.182.12-.151 0-.333-.09-.181-.242-.544-.242-.09 0-.272.03-.182.03-.273.03-.393 0-.574-.272-.454 0-.454-.12.03-.122.06-.273.03-.151.091-.333-.242-.09-.454.121-.211.182-.302.182-.06 0-.182-.06-.544.18-.604-.061-.03-.363-.515-.545-.211-.06-.363-.12-.12-.061-.211-.122l-.182-.09q-.151-.303-.635-.696-.484-.394-.545-.847l-.423-.817q-.272-.484-.272-.847 0-.121.06-.363-.575-.182-.575-.545 0-.12.03-.211.03-.152.122-.575.09-.454.09-.666 0-.211-.06-.453-.393 0-.393-.333 0-.09.03-.151.242-.152.272-.484.06-.333.09-.666-.09-.12-.211-.272-.09-.182-.242-.424.151-.15.302-.423.152-.303.303-.726.514-1.059 2.601-2.965.424 0 .605-.332.847-.121 1.18-.635.182.09.333.09.272 0 .786-.393.484-.302.847-.212.152 0 .484-.272.273.09.636 0Q8.53 0 8.65 0q.212 0 .363.151.212.303.938.636-.03-.212.303-.212.181.06 1.028.212.605.06.938.423.212.333 1.089.938.847.574 1.12 1.089.302.877-.092 1.18-.06.15.182.211.03-.03.12-.03h.122q.09 0 .242-.03.302-.03.393.151.424.817.666 2.299.03.151.09.423.06.273.212.605zm-2.874.273q.061-.817-.181-1.785.09-.333-.121-.605-.212-.303-.424-.545.061-.181.061-.242 0-.211-.303-.363-.302-.181-.302-.423-.272-.272-.363-1.029-.09-.786-.484-.998l.181.666q.061.242-.181.332-.182.061-.363 0-.968-.605-1.452-.605-.151 0-.333.061-.12.212-.12.544 0 .242.06.696.09.454.09.666 0 .665-.665.877-.242.212-.03.393.665.272.665 1.029 0 .151-.03.514-.03.333-.03.484 0 .423.12.665.092.242-.15.454-.212.182-.212.363.333.605.333 1.513v.242q0 .151-.03.363v.574q0 .726.18 1.271.273.121.485-.09.181 0 .363-.092.212-.12.393-.242.212-.12.393-.242.182-.12.303-.15.333-.243.665-.455.363-.242.726-.15-.06-.182-.06-.334 0-.211.212-.574.211-.363.242-.545.06-.12.15-.817.061-.12.092-.332.03-.212.03-.424.03-.212.03-.393.03-.182.06-.272zm-6.08 1.21q-.211.06-.484-.03-.333-2.058.091-3.207-.303-.787-.03-2.602-.242-.09-.242-.453.03-.303.03-.424v-.12q-.182-.061-.242-.061-.09 0-.242.09-.121.091-.272.212-.121.091-.242.212-.121.09-.212.121-.151.181-.272.181-.091 0-.333-.15-.242-.182-.363-.122-.03.121-.06.333-.03.181-.061.454-.182.151-.424.695-.242.515-.544.636-.03.181-.605.695-.454.363-.363.817.272 1.513.09 2.874-.332.514-.332.575.302-.06.363-.06.544 0 .907.755.212.484.394.757.181.272.302.332.091.121.182.333l.211.424q.121.09.515-.121l.756.453q.544.242.847.212-.06-.302-.06-.454 0-.302.12-.907.152-.635.152-.938 0-.151-.06-.454.18-.574.483-1.058z"/></svg>
