<svg xmlns="http://www.w3.org/2000/svg" viewBox="0 0 20.139 19.602" width="32" height="32" fill="#FFFFFF"><path d="M19.904 15.579q-.03.726-.453 1.058-.091.575-1.21 1.392-.666.12-.726.605-.605.605-1.967.726-.332.06-2.178.09l-.12-.15q-.03 0-.152.12-.12.121-.181.121-1.21-.211-2.935-1.936-.12-1.028-.514-1.028-.06 0-.181.06-.545-.544-.847-2.178-.273-1.421-1.15-1.936-.514-.605-1.482-.605-.575 0-1.422.212-.877.424-1.27 1.513L2.6 15.669q.333.636 1.24 1.392.061.181.061.242 0 .181-.181.484l-.212.484q-.151.06-.333.272-.181.182-.423.484-.484.575-.878.575Q.363 17.999.363 17.363q0-.363.121-.635H.03Q0 16.244 0 15.821v-.817q0-1.482.181-2.087l.454-.212q-.181-.121-.181-.303 0-.03.332-.453.363-.394.303-.636.151.06.363-.181.212-.272.242-.272l.182.06q.514-1.482 3.297-1.694.03.333.272.908.121-.394.635-.908.121-.03.393-.03.182 0 .454.09.303.061.605.152.303.09.545.181.242.061.393.061l.847.605q1.331-.363 1.785-1.815l.786-2.541q.121-.363-.212-.998-.332-.787-.363-.968-1.663-1.059-3.236-.938-.121.212-1.029.575-.907.393-1.028.726-.152-.03-.756-.726-.545-.666-.999-.666-.211-.09-.211-.272.03-.06.09-.242.091-.182.242-.454.333-.302.817-.605.514-.333 1.15-.696.544-.302 1.27-.453Q7.835 0 8.047 0q.181 0 .574.212.394.181.575.181.151 0 .333-.06L9.8.544q.242-.332.605-.332.182 0 .575.181.393.151.575.151l1.149.726q.635.484.575 1.09.635.181.998 1.119.575 1.482.665 1.603-.15.151-.15.363 0 .121.302.938.03.907-1.27 3.297 0 .09-.122.212-.09.12-.242.211-.12.091-.242.152l-.09.06q0 .09.12.212-.15.514-1.028 1.573-.908 1.059-.908 1.573 0 .363.121.635l.636 1.15q.393.695.937.937.152.091.847.152.545.15.666.393l-.121.09q.181.122.302.091.152-.393.999-.786.877-.454 1.028-.787.333-.665.333-1.421 0-1.362-.847-2.39.06-.363.514-.787l.726-.665q0-.333.393-.908 1.21.787 1.815 2.178.636 1.362.424 2.814z"/></svg>
