<svg xmlns="http://www.w3.org/2000/svg" width="18.44" height="32" fill="#fff" viewBox="0 0 6.88 20.74"><path d="M9.23 5.26q-.27.12-.57.37-.27.24-.6.6-.37.42-.67.67-.27.24-.45.36-.4 0-.76.12.12.15.12.33 0 .34-.42.76l-.64.6-.15-.02q-.06.03-.24.18-.15.12-.46.42-.72.15-1.08.03.12.21.12.45 0 .58-1.42 1.64.2.15.63.63.42.52.73.6.18.31.27.61-.15.15-.18.34l.24.33.36.36q.12-.03.6-.03.58.3 2.28 2.24.03.15.15.45.3.1.87.6l.85.8.03.18q-.15.27-.72.81-.58.49-.67.94-.45.15-.6.1l-.55-.28q-.48-1-.48-.94 0-.15.39-.85-.45.06-1 .28-.78-.34-.9-.94-.25-.15-.37-.58-.12-.48-.33-.54-.52.06-1.27-.67-.76-.72-.76-1.18.27-.12.58-.36l-.06-.06q-.28.06-1.55-.21-2.45-1.85-2.17-2.51L-.7 11q.6-.54 1.03-.7.03-.2-.06-.42-.63-.54-.63-.82 0-.2.12-.45 0-.18-.06-.36-.19-.06-.43.03l-.39.15q-.27-.15-1.42-1.45.15-.15.4-.34l.6-.45.2.1q.07-.31.16-.61.09-.34.36-.4.4.25 1.27 1.33.73.91 1.4 1.18l.27.37.18.03q.12-.21.9-.91l-.9-.85q-.3-.27-.43-.51-.12-.27-.15-.52-.45.06-1.42-1.05l-.03-.1q.1-.12.33-.27.06-.18.43-.33.4-.18.48-.4-.06-.45.21-.75.3.4.94.9.1.1.18.25.12.12.24.33l-.15.18-.06.03q0 .19.52.46.15-.27.33-.33l.48.51q.3.33.73.85.6-.15.7-.46-.22-.09-.25-.3l.46-.48q-.52-.4-.67-1-.27.03-.9-.49-.58-.54-.8-.57l-.36-.82q.52-.93.85-.87.24-.55.52-.7l.24.03 1.36 1.4q0 .2.21.39.67-.13.94.93L7.18 3l.06.24q.15-.16.3-.16.27 0 .7.37.15.15.3.27l.3.24q.12.15.24.37.15.2.34.51-.06.24-.19.42z"/></svg>
