<svg xmlns="http://www.w3.org/2000/svg" width="23.2" height="32" fill="#fff" viewBox="0 0 11.64 22.16"><path d="M7.32 16.7q0 1.93-.6 3.2h.3q.2.3.2.88 0 .42-.08.97l-1.27.27q-.73.18-1.3.12-.46-.39-.46-1.18-.03-.51-.03-.81 0-.34-.06-.46.43-.15.43-.42 0-.12-.19-.42-.15-.34-.15-.43.03-.12.03-.24v-.27q0-.3-.09-.88-.06-.6-.06-.88 0-.81.49-1.2-.43-.58-.49-1.55v-.54q0-.4.03-1.06l.33-.21q-.45-.4-.45-1 0-.21.06-.67.1-.48.1-.7 0-.33-.04-.48-.15-.6-.15-.94 0-.63.36-.96.55.36.97.36.24 0 .73-.18.51-.21.78-.21.22 0 .3.03 0 .15.19 1.09.06.39.06.66.03.24 0 .4-.1.24-.21.45-.12.18-.49.36l.58.49q-.06.24-.06.45 0 .18.03.48l.06.64q.06.33.09.63.06.3.06.49 0 .51-.18.87.18 1.79.18 2.85zm5.66-6.66q-1.55.55-1.67.55-.66 0-2.36-.52.06-.36-.3-1.15-.33-.78.3-2.87.4-.33 1.27-.7.91-.36 1.42-.36.61 0 1.37 1.33l.63 1.12-.06.58q-.03.24-.09.42l.36.06q-.33 1-.87 1.54zM6.53 5.41l-.03.03q.12.13.03.16-.06.03-1.12.12-1.45-.46-2.24-1.1h-.36l.3-2.65q.25-.3.46-.6l.48-.61Q4.7 0 5.2 0q.21 0 .52.15.33.15.36.15h.24L6.5.27q.06-.03.12-.03.3 0 .67.36.4.03.76.46.36.4.36.75 0 .43-.27 1.37-.28.93-.49 1.24-.12.06-.3.18l-.42.21q-.06.06-.34.7zM-2.2 9.5V8.08q0-.79.3-1.3Q-1 5.23.21 5.23q.21 0 .64.15.45.12.72.1.67.42 1.27 1.72l-.03.57q0 .4-.03 1.1-.18.24-.42.42l.33.45-.85.15q-1.39.97-1.87.97-.18 0-.85-.36-.63-.34-.9-.4-.22-.2 0-.39zm13.89-2.4q-.19-.23-.8-.23-.2 0-.41.3l-.37.45-.12.97h.12q.49.45.88.45l.27-.02h.1l.02-.03q.15-.3.46-.46.27-.4.27-.94 0-.48-.42-.48zM6.05 1.86q-.1.03-.27-.03-.19-.06-.25-.06-.5 0-.81.57-.03.03-.1 1.06.07.09.13.21.88.3.7.3.14 0 .45-.2.33-.22.54-.22l-.12-.18q.12-.03.18-.15.03-.24.03-.4v-.24q0-.36-.48-.67zm-4.9 6.47.06-.45q-.33-.64-.55-.91Q.6 6.9.46 6.9q-.76 0-1 .42-.34.67-.16 1.1.12.23.15.44.94.3 1.52 0 .15-.12.3-.54Z"/></svg>
