<svg xmlns="http://www.w3.org/2000/svg" viewBox="0 0 16.063 22.158"><path d="M9.529 16.698q0 1.936-.605 3.206h.302q.212.303.212.878 0 .423-.09.968l-1.271.272q-.726.181-1.301.12-.454-.392-.454-1.179-.03-.514-.03-.817 0-.332-.06-.453.423-.152.423-.424 0-.12-.182-.423-.15-.333-.15-.424.03-.12.03-.242v-.272q0-.303-.091-.877-.06-.605-.06-.878 0-.816.483-1.21-.423-.574-.484-1.542v-.545q0-.393.03-1.059l.333-.211q-.454-.394-.454-.999 0-.211.06-.665.092-.484.092-.696 0-.333-.03-.484-.152-.605-.152-.938 0-.635.363-.968.545.363.968.363.242 0 .726-.181.514-.212.787-.212.211 0 .302.03 0 .152.182 1.09.06.393.06.665.03.242 0 .393-.09.242-.212.454-.12.181-.484.363l.575.484q-.06.242-.06.454 0 .181.03.484.03.302.06.635.061.333.091.635.06.303.06.484 0 .514-.18.877.18 1.785.18 2.844zm5.656-6.655q-1.542.544-1.663.544-.666 0-2.36-.514.06-.363-.302-1.15-.333-.786.302-2.873.393-.333 1.27-.696.908-.363 1.422-.363.605 0 1.362 1.331l.635 1.12q-.03.332-.06.574-.03.242-.091.424l.363.06q-.333.998-.878 1.543zM8.742 5.415l-.03.03q.121.121.03.151-.06.03-1.119.121-1.452-.454-2.239-1.089h-.363l.303-2.662q.242-.302.454-.605l.484-.605Q6.897 0 7.412 0q.211 0 .513.151.333.152.363.152h.242q.121-.03.182-.03.06-.031.121-.031.302 0 .665.363.394.03.757.454.363.393.363.756 0 .424-.273 1.361-.272.938-.484 1.24-.12.061-.302.182l-.424.212q-.06.06-.332.696zM0 9.498V8.077q0-.787.303-1.301.907-1.543 2.117-1.543.212 0 .635.152.454.12.726.09.666.424 1.27 1.724 0 .152-.03.575 0 .393-.03 1.09-.181.241-.423.423l.333.453-.847.152q-1.392.968-1.876.968-.181 0-.847-.363-.635-.333-.907-.394-.212-.211 0-.393zm13.885-2.39q-.182-.241-.787-.241-.212 0-.423.302l-.363.454-.121.968h.12q.485.454.878.454.12 0 .272-.03h.091l.03-.03q.151-.303.454-.455.272-.393.272-.937 0-.484-.423-.484zM8.258 1.846q-.09.03-.272-.03-.182-.06-.242-.06-.514 0-.817.574-.03.03-.09 1.059.06.09.12.212.878.302.696.302.151 0 .454-.211.333-.212.544-.212l-.12-.182q.12-.03.181-.151.03-.242.03-.393V2.51q0-.363-.484-.666zm-4.9 6.474l.06-.454q-.333-.635-.544-.908-.06-.06-.212-.06-.756 0-.998.423-.333.666-.151 1.09.12.241.15.453.939.303 1.513 0 .152-.12.303-.544z"/></svg>
