<svg xmlns="http://www.w3.org/2000/svg" width="26.15" height="32" fill="#fff" viewBox="0 0 15.57 23.32"><path d="m13.14 8.8.24-1.9q.15-.15.7-.91.45-.6.85-.6.15 0 .36.12.24.12.3.12h.24q.1-.03.21-.03.22 0 .49.27.24 0 .51.3t.27.55q0 .36-.2 1.02-.19.7-.34.94l-.54.3q-.1.06-.34.6.25 0-.78.1-1.12-.33-1.76-.88zm3.9 7.47-.48.06q-1.12.8-1.45.8-.1 0-.64-.28-.24-.15-.42-.21-.18-.1-.27-.12-.12-.1-.3-.19l-.4-.27q.09-1.03.64-2 .66-1.17 1.57-1.17.15 0 .48.12.37.12.58.09.45.27.9 1.27l-.03.42q0 .3-.03.82-.15.18-.36.36zM8.21 9.35q-.51.3-1.15.3l-1.15-.6q-.6-.37-.9-.97.42-.67.72-1.58.12-.45 1.33-1.09.4 0 1.3.43.88.42.88.82 0 .15-.49 1.96-.36.33-.72.49zM8.88.5q.93.12 1.81 1.06Q11.9 2.84 12.17 3l-.24 1.46q-.24.66-.9 1.15l-.34-.25h-.06q-.27.06-.6-.6-.3-.6-.58-.67-1.21-1.03-2.63-1.03-2.12 0-3.78.55Q.62 4.39.62 6.02v2.75q0 1.6 2.69 2.7 2.12.87 4.08.9.4-.24 1.27-.42.94-.21 1.3-.46.46-.66.64-.84.4-.34.97-.43.12.37.36 1.33l.24.28q-.09.24-.09.54 0 .36.24 1.18.25.82.25 1.18-.03.12-.25.49.22.39.22.6 0 .6-.52 1.63-.66 1.27-.76 1.58l.25.27q-.43.15-1.24 1.24-1.06 1.36-3.18 1.81-1.36.3-2.2.55-.85.21-1.22.42.03-.27-.03-.4l-.15-.11q-.6.15-.66.15-.19 0-.55-.4l-.36.4-.06-.58q-.82-.3-1.27-1.12-.46-.81-.46-1.72 0-.48.37-1.45.39-1.12.81-1.12l.34.18q.24.24.2.52-.08.78-.08.48 0 .57 1.54 1.33v.12l.45-.03q.3-.03.85.15.54.18.82.18.18 0 .7-.12.6-.15.66-.09l.27-.18.21.1q.49-.07 1.27-1.07.49-.6.82-.97.36-.36.57-.5v-3.28l-.51.37-.15-.03q-.15.12-.4.27l-.57.27q-.18 0-.57.21-.37.18-.58.18-.09 0-.27-.06l-.64.22q-1.24 0-2.72-.34-1.9-.45-2.24-1.24l.1.1-.4.08q-.48 0-1.24-.63-.76-.64-.76-1.12l.18-.64-.2-.45-.43.06-.15-.15-.12-.3V6.5q0-.6 1.06-2.3Q.4 2.48.98 2.18h.09q.36-.7 1.06-1.06.12-.06.48-.18L3.64.6q2-.6 2.54-.6 1.36 0 1.85.24l.33-.12q.15 0 .52.4z"/></svg>
