<svg xmlns="http://www.w3.org/2000/svg" viewBox="0 0 19.057 23.323" width="32" height="32" fill="#FFFFFF"><path d="M14.883 8.803l.242-1.906q.151-.151.696-.908.453-.605.847-.605.151 0 .363.121.242.121.302.121h.242q.091-.03.212-.03.212 0 .484.272.242 0 .514.303.272.302.272.544 0 .363-.211 1.029-.182.696-.333.938l-.545.302q-.09.06-.332.605.242 0-.787.09-1.119-.332-1.754-.876zm3.902 7.471l-.484.06q-1.119.787-1.452.787-.09 0-.635-.272-.242-.151-.424-.212-.181-.09-.272-.12-.12-.091-.302-.182-.152-.121-.394-.272.091-1.029.636-1.997.665-1.18 1.573-1.18.151 0 .484.121.363.121.574.091.454.272.908 1.27 0 .122-.03.424 0 .303-.03.817-.152.181-.364.363zM9.952 9.347q-.514.303-1.15.303-.513-.273-1.149-.605-.605-.363-.907-.968.423-.666.726-1.573.12-.454 1.33-1.09.394 0 1.301.424.878.424.878.817 0 .151-.484 1.966-.363.333-.726.484zm.666-8.833q.937.121 1.815 1.059 1.21 1.27 1.482 1.422l-.242 1.452q-.242.665-.908 1.15l-.332-.243h-.06q-.273.06-.606-.605-.302-.605-.575-.665-1.21-1.029-2.631-1.029-2.118 0-3.782.545-2.42.786-2.42 2.42v2.752q0 1.604 2.693 2.693 2.117.877 4.083.907.394-.242 1.271-.423.938-.212 1.3-.454.454-.666.636-.847.393-.333.968-.424.121.363.363 1.331l.242.273q-.09.242-.09.544 0 .363.241 1.18.242.817.242 1.18-.03.12-.242.484.212.393.212.605 0 .605-.514 1.633-.666 1.27-.757 1.573l.242.272q-.423.152-1.24 1.24-1.059 1.362-3.176 1.816-1.361.302-2.208.544-.847.212-1.21.424.03-.273-.03-.394l-.152-.12q-.605.15-.665.15-.182 0-.545-.393l-.363.394-.06-.575q-.817-.303-1.27-1.12-.454-.816-.454-1.724 0-.484.363-1.452.393-1.119.816-1.119l.333.182q.242.242.212.514-.091.786-.091.484 0 .575 1.543 1.33v.122l.453-.03q.303-.03.847.15.545.182.817.182.182 0 .696-.12.605-.152.665-.091l.273-.182.211.09q.484-.06 1.271-1.058.484-.605.817-.968.363-.363.574-.514v-3.267l-.514.363-.151-.03q-.151.12-.393.272-.242.121-.575.272-.182 0-.575.212-.363.181-.575.181-.09 0-.272-.06l-.635.212q-1.24 0-2.723-.333-1.905-.454-2.238-1.24l.09.09-.393.091q-.484 0-1.24-.635t-.756-1.12l.181-.635-.211-.453-.424.06-.151-.151L0 10.587V6.504q0-.605 1.059-2.3Q2.148 2.48 2.722 2.179h.091q.363-.696 1.059-1.059.121-.06.484-.181T5.384.605Q7.381 0 7.925 0q1.362 0 1.846.242l.332-.121q.152 0 .515.393z"/></svg>
