<svg xmlns="http://www.w3.org/2000/svg" viewBox="0 0 15.518 20.24"><path d="M15.155 20.088q-.635.121-1.12-.272-.241.151-.513.272-.242.091-.545.152-1.3-.454-1.996-1.785l.03-.454q-1.27-.605-1.482-.817-.273-.272-1.059-1.452l-.212-.06-.544.605q-.273.272-.696.423-.666.787-1.3.757l.06.605q-.424.332-.726.695-.273.363-.424.696l-.423.151q-.363.545-2.662.545-1.452 0-1.543-.333.121-.302.423-.605.484-.454.545-.544.484-.152.968-1.18.847.151 1.966-1.24 1.301-1.634 1.966-1.846l.333-.514q-.212-.575-.696-.696-.514-.998-1.512-1.754-.817-.575-1.361-2.148-.333.242-.666.333-.211-.242-.333-.424-.12-.181-.181-.242-.151-.15-.333-.272-.151-.151-.363-.212-.181-.726 1.059-2.238 1.27-1.543 1.966-1.452l.06-.665q.666-.303 3.48-3.993.362-.212.816-.061l1.029.998q.635.575.574 1.27.636.364 1.301 1.09l1.18 1.33.06.454q1.392.333 2.783 2.541-.06.605-.09.787-.091.393-.333.696-.333.06-.696.514-.393.423-.907.484 0 .544-1.21 1.664l-1.725 1.542q.575 1.271 2.632 3.146 1.12.968 1.785 1.755.696.756.998 1.27zM10.981 6.9q-.212.03-.424-.272-.302-.06-.605-.635l-.484-.847q-.302-.03-1.754-1.27l-.242.15q-.242.606-1.18 1.513-.454-.12-.998.182.09.272.09.514 0 .454-.514 1.059-.484.514-.484.847 0 .302.424.786.09.303.453.756l.212-.09 1.029.998q.847.786.877.998l.272.151.303-.03q.302-.575 1.36-1.361.152.151.303.181.03-.03.121-.15.121-.122.333-.364.333-.363.484-.333.06-.06.212-.272.181-.211.423-.605.484-.756.545-.998z"/></svg>
