<svg xmlns="http://www.w3.org/2000/svg" width="24.53" height="32" fill="#fff" viewBox="0 0 11.9 20.24"><path d="M13.34 20.09q-.63.12-1.12-.27-.24.15-.5.27-.25.09-.55.15-1.3-.45-2-1.79L9.2 18q-1.27-.6-1.48-.82-.27-.27-1.06-1.45l-.21-.06-.55.6q-.27.28-.7.43-.66.79-1.3.76l.07.6q-.43.33-.73.7-.27.36-.42.7l-.43.14q-.36.55-2.66.55-1.45 0-1.54-.33.12-.3.42-.6.49-.46.55-.55.48-.16.97-1.18.84.15 1.96-1.24 1.3-1.64 1.97-1.85l.33-.51q-.21-.58-.7-.7-.5-1-1.5-1.75-.82-.58-1.37-2.15-.33.24-.66.33-.22-.24-.34-.42-.12-.18-.18-.24-.15-.15-.33-.28-.15-.15-.36-.2-.19-.73 1.05-2.25Q1.27 4.7 1.97 4.78l.06-.66q.67-.3 3.48-4 .36-.2.82-.06l1.03 1q.63.58.57 1.27.64.36 1.3 1.1l1.18 1.32.06.45q1.4.34 2.78 2.55l-.09.78q-.09.4-.33.7-.33.06-.7.51-.39.43-.9.49 0 .54-1.21 1.66l-1.73 1.54q.58 1.27 2.63 3.15 1.12.97 1.79 1.75.7.76 1 1.27zM9.17 6.9q-.21.03-.42-.27-.3-.06-.6-.64l-.5-.84q-.3-.03-1.75-1.27l-.24.15q-.24.6-1.18 1.5-.45-.11-1 .2.1.26.1.5 0 .46-.52 1.06-.48.52-.48.85 0 .3.42.79.09.3.45.75l.21-.09 1.03 1q.85.79.88 1l.27.15.3-.03q.3-.58 1.37-1.36.15.15.3.18l.12-.15.33-.36q.34-.37.49-.34.06-.06.2-.27.19-.21.43-.6.49-.76.55-1z"/></svg>
