<svg xmlns="http://www.w3.org/2000/svg" viewBox="0 0 16.574 10.708" width="32" height="32" fill="#FFFFFF"><path d="M16.543 10.285q-.423.333-4.144.333-2.632 0-2.783-.242 0-.333.182-.515-.242.152-.605.363-.333.182-.847.424l-.363-.121-.424.181q-2.087-.15-4.326-.363-1.663.545-3.145.273-.273-3.298.302-4.78l.514-.242-.151-.363q.272-.817 1.12-1.815.423-.514.816-.877.423-.363.756-.605l.545.03-.091-.272Q4.141 1.18 5.381.605 6.561.091 7.105.091q.273 0 .363.756Q7.862 0 8.92 0q.515 0 .696.424l.424.09.484-.181q1.21.242 2.873 1.542 1.936 1.483 1.936 2.541 0 .424-.332.757.332.09.665.211.333.091.545.454-.06.212.12 1.09.243 1.118.243 1.602 0 .454-.152.817.212.303.121.938zm-3.146-2.299q-.06-.303-.211-.756-.121-.484-.303-1.09-.212-.544-.817-1.3-.605-.786-.907-1.422-.212-.03-.605-.09-.363-.061-.938-.212-1.15-.272-1.694-.272-.847 0-1.24.484-.151.03-1.12-.212.122.544-1.24 1.422-.725.453-1.18 3.388.364.242 1.906.272.121.12 2.239.03 2.238-.09 2.783.09 0 .243.242.333.272.061.454.061.363 0 1.058-.605h1.513z"/></svg>
