<svg xmlns="http://www.w3.org/2000/svg" viewBox="0 0 18.298 18.181" fill="#FFFFFF"><path d="M3.253.047l-.179.095-1.295.889-.3.405.584.865c.237.234.436.498.558.825l.81 1.2H2.274c-.224.075-.07.178-.13.333-.198.51-.93-.21-1.2-.334L0 4.386c.053.69.086 1.36.037 1.963-.009.116.1.23.085.34h1.282c.641-.234 1.342-.143 2.085 0h1.566c.196.099.658.665.74 1.04l.9.546c.147.183-.178.49-.042.675.395.536.745 1.08 1.07 1.627-.125.445-.483.704-.724 1.056-.301.441-.437.802-.864 1.315 0 0-.263.786-.585.795-.282.535-.593.97-.921 1.343-.4.597-.796 1.175-1.176 1.688-.022.04-.016.081.02.103l1.349.936.555.216c.05.013.077-.002.096-.017.26-.399.368-.604.653-1.005.075-.106-.373-.327-.237-.404.12-.068.56-.047.688-.18.367-.682.52-1.4 1.4-2.04.39-.754 1.002-1.72 1.18-1.718.115.042.374.492.621.77.53-.271 0 0 .338.628.712.693 1.194 1.49 1.605 2.337l.911 1.361.281.42c.125-.127.201-.322.433-.3l1.214-.841.233-.359c-.439-.534-.832-1.072-1.124-1.618-.132-.176-.234-.478-.45-.514-.07-.012-.458.338-.648-.03-.064-.124-.254-.078-.308-.2-.055-.125.612-.317.533-.432a9.165 9.165 0 01-.542-.885 26.756 26.756 0 01-1.665-2.425c.443-.777.673-1.553 1.6-2.33l.775-1.558c.777-.133 1.813-.012 2.57 0l.755-.335.391.335c.522-.022 1.01-.086 1.618 0l-.095-.663.095-1.53-.234-.162c-.89.286-1.862.162-2.844-.009-.283.131-.502.212-.339 0 .236-.373.468-.745.713-1.118.038-.057-.202-.33-.2-.466.001-.104.241-.078.27-.122.071-.104.274.079.347-.026.197-.278.406-.557.634-.838l-.121-.618c-.29-.16-.588-.304-.81-.598-.169.017-.247-.148-.351-.26L14.984 0l-.876 1.277c-.062.236-.13.449-.283.412l-.854 1.243c-.214.578-.52.824-.799 1.165l.095.22c-.77 0-1.608.113-2.313.003-.883.472-1.545.293-2.285.003l-1.544-.007c-1.717-.006-.494-.363-.612-.705-.07-.352-.296-.396-.267-.82-.612-.821-1.231-1.636-1.77-2.535-.054-.092-.17-.116-.223-.21zm4.238 6.605c.503-.023 1.218.009 1.757-.15.374-.111.82.15 1.145.186l-.58.843c-.166.39-.426.777-.657 1.08-.236-.256-.471-.79-.707-1.153-.316-.237-.788-.55-.958-.806z"/></svg>
