<svg xmlns="http://www.w3.org/2000/svg" viewBox="0 0 15.191 17.372" width="32" height="32" fill="#FFFFFF"><path d="M2.171.043l-.57.369c.06.252-.398.618-.667.519-.421.373-.464.427-.934.753l1.835 2.273c1.44.2-.153-.405.912 1.29.544.059.174.297 1.208 1.577.278.193.402.478.565.739.279.341.563.66.745.547.417-.26.513.065.17.646.293.218.47.529.643.842.133.267.022.639 0 .972.091.466.022.964 0 1.452.328.602.26 1.025 0 1.525.188.83.062 1.546.061 2.117 0 .708.004.893-.017 1.606.023-.004.153.099.175.095.944-.172 1.45-.021 2.194.007l.36-.202.031-2.998c-.166-.563-.77-.75-.401-1.558.027-.06.298.106.35.077.07-.042.02-1.434.051-2.157-.046-.312-.025-.624 0-.937.005-.834.405-.661.74-.966.37-.644.93-1.257 1.439-1.879-.127-.504.32-.565.594-.776.455-.61.9-1.237 1.378-1.8-.12-.789 1.438-1.717 2.158-2.575-.377-.286-.763-.32-1.131-.866-.295-.195-.59-.386-.884-.677l-.378.047c-.205.409-1.563 2.074-1.912 2.263-.247.456-.634.867-.987 1.289-.331.496.312.68-.331.496-.229.306-.457.551-.686.832-.008-.611-.123-1.204 0-1.837.112-1.178-.591-1.873-.044-2.263C8.845.52 8.86.2 8.89 0 7.958.003 7.23.091 6.252.028l-.166.195c.012.222.018.732.03 1.249.152.972 0 1.444-.038 1.731.07.651.078 1.495.027 2.049-.28-.311-.174-.656-.867-1.364-.858-.16-.805.636-.413-.477a6.323 6.323 0 01-.586-.827c-.31-.37-1.782-2.147-2.068-2.54z"/></svg>
