<svg xmlns="http://www.w3.org/2000/svg" width="27.98" height="32" fill="#fff" viewBox="0 0 13.28 17.37"><path d="M1.22.04.65.41c.06.25-.4.62-.67.52-.42.37-.46.43-.93.75L.88 3.96c1.44.2-.15-.4.91 1.29.55.06.18.3 1.21 1.57.28.2.4.48.57.74.28.34.56.66.74.55.42-.26.51.07.17.65.3.21.47.53.64.84.14.27.03.64 0 .97.1.47.03.96 0 1.45.33.6.26 1.03 0 1.53.2.83.07 1.54.07 2.11 0 .71 0 .9-.02 1.61.02 0 .15.1.17.1.95-.18 1.45-.03 2.2 0l.36-.2.03-3c-.17-.56-.77-.75-.4-1.56.02-.06.3.11.35.08.07-.04.02-1.43.05-2.16a4.14 4.14 0 0 1 0-.93c0-.84.4-.66.74-.97.37-.64.93-1.26 1.44-1.88-.13-.5.32-.56.6-.77.45-.61.9-1.24 1.37-1.8-.12-.8 1.44-1.72 2.16-2.58-.38-.28-.77-.32-1.13-.86-.3-.2-.6-.4-.89-.68l-.38.05c-.2.4-1.56 2.07-1.9 2.26-.25.45-.64.87-1 1.29-.33.5.32.68-.33.5-.22.3-.45.54-.68.83-.01-.62-.12-1.2 0-1.84.11-1.18-.6-1.87-.05-2.26.01-.37.03-.69.06-.89C7 0 6.28.1 5.3.03l-.17.2.03 1.24c.15.97 0 1.45-.04 1.73.07.65.08 1.5.03 2.05-.28-.3-.17-.65-.87-1.36-.85-.16-.8.63-.4-.48a6.32 6.32 0 0 1-.6-.83C2.99 2.21 1.5.44 1.23.04z"/></svg>
