<svg xmlns="http://www.w3.org/2000/svg" viewBox="0 0 20.406 21.084"><path d="M15.566 5.294q.06.151-1.391 2.36l-1.724 2.631q0 .635-.182 2.027.545.695.605 2.692v.726q0 .393-.03.817l-.06 1.33-.333.273q-.121.484.211.877l.424 2.057q-.817-.12-2.39-.605-.665.212-1.12.424l-.271-.303q.03-.635.272-2.057-.424-1.452-.424-2.238 0-.787.333-1.301.333-.03.393-.272.091-.182-.06-.333l-.03-.06v-.03q-.06-.182.06-.878l-.544.151q-.06-.605-.091-1.33-.03-.727-.03-1.574-.817-1.15-1.725-2.057L4.767 5.868q-.786-.786-1.33-1.542-.545-.787-.969-1.513l-.756-.695q-.06-.121-.363-.394-.272-.302-.756-.816Q-.103.182.018.182q.968-.061 1.3 0 .938.06 1.543.635Q3.83.424 4.344.424q.877 0 1.391 1.452.817.665 1.845 1.966-.06.302-.06.393 0 .877 1.089.877.09 0 .544.363l.091-.06h.242q.242.332.424.665.181.303.332.605 1.664-.756 3.267-2.995.273-.393.666-.937.333-.454.817-1.12.484-.695 1.18-1.633h1.058q.333 0 .635.09.303.092.575.212Q19.65.03 20.406.121q-.272.423-.847 1.15-.574.725-1.452 1.693-1.966 2.209-2.54 2.33z"/></svg>
