<svg xmlns="http://www.w3.org/2000/svg" width="30.97" height="32" fill="#fff" viewBox="0 0 19.75 21.08"><path d="M15.24 5.3q.06.14-1.4 2.35l-1.72 2.63q0 .64-.18 2.03.55.7.6 2.7v.72l-.02.82-.06 1.33-.34.27q-.12.48.21.88l.43 2.05q-.82-.12-2.4-.6-.66.21-1.11.42l-.27-.3q.03-.64.27-2.06-.43-1.45-.43-2.23 0-.8.34-1.3.33-.04.4-.28.08-.18-.07-.33l-.03-.06v-.03q-.06-.18.06-.88l-.54.15q-.06-.6-.1-1.33-.02-.73-.02-1.57-.82-1.15-1.73-2.06l-2.7-2.75q-.78-.79-1.32-1.54-.55-.8-.97-1.52l-.76-.7q-.06-.11-.36-.39L.26.91Q-.44.18-.3.18.66.12.99.18q.94.06 1.54.64.97-.4 1.49-.4.87 0 1.39 1.46.81.66 1.84 1.96-.06.3-.06.4 0 .87 1.1.87.08 0 .53.36l.1-.06h.24q.24.34.42.67.18.3.33.6 1.67-.75 3.27-2.99.27-.4.67-.94l.81-1.12q.49-.7 1.18-1.63h1.06q.33 0 .64.09l.57.21q1.21-.27 1.97-.18-.27.42-.85 1.15-.57.73-1.45 1.7-1.97 2.2-2.54 2.32z"/></svg>
