<svg xmlns="http://www.w3.org/2000/svg" viewBox="0 0 16.184 16.301" fill="#FFFFFF"><path d="M16.123 15.125q-.181.333-.393.12-.151-.09-.333-.271-.151-.182-.363-.424-.726-.181-.998-.786-.09-.091-.272-.152-.182-.09-.394-.181-.211-.09-.393-.182-.151-.09-.212-.242l-.786-.574q-.484-.363-.363-.847-.09 0-.182.181-.06.182-.15.182-.243-.212-.636-.454-.393-.272-.908-.605-.211.03-.12.272-.03.121 0 .333.03.151.03.242.03.06.03.12 0 .243-.242.334-.06.09.03.242.09.15.06.272l-.09.181q0 .06-.03.121-.03.06-.03.121.362.091.332.575 0 .817-.03.787.03.211.03.423v.424q0 .393-.423.544-.303.06-.484.06-.303 0-1.936-.483-.182-.242-.152-.696.03-.333.03-.514v-.242q.03-.333.333-.303.03 0 .636.363-.03-.03-.182-.212-.12-.181-.363-.574-.09-.424-.544-1.15.06-1.3-.03-1.452-.061.121-.273.121-.181 0-.272.09.03.061.03.182 0 .394-.635.666-.151 0-.242-.03.03.181-.121.635l-1.513 1.18q-.574 0-.998.242.212.484.151.544-.332.212-.756.514-.423.273-.938.666-.181.06-.332.484-.152.423-.484.302Q0 16.063 0 15.76q0-.09.03-.242.06-.181.091-.393.03-.212.03-.393.03-.212 0-.363.06 0 .212-.424-.121-2.087-.03-2.48.211-.121.211-.424 0-.09-.09-.393-.06-.303-.03-.484-.03-.212-.091-.393-.06-.212-.121-.363-.03-.182.12-.484.152-.303.152-.454 0-.151-.182-.333-.15-.181 0-.635 0-.06.121-.182.152-.12.121-.242.091-.09.091-.181 0-.09-.151-.272-.151-.212-.151-.273-.06-.816-.182-1.391.03-.545 0-1.331 0-.817-.06-1.876-.06-.423.151-.998.423-.09.696.182.03.181.242.363.242.181.302.363 1.059.726 1.15.816.302.242.514.515.212.242.333.544.211 0 .726.151.03.212.726.484l.363.363q.242.182.574.454 0 .212.242.272.333.03.394.091.06-.181.06-.363 0-.151-.06-.454-.06-.332-.06-.484 0-.332.271-.514.06-.181.454-.514.03-.121-.181-.121-.363-.151-.454-.545l-.182-.695q.091-.212.091-.666v-.12q0-.636.303-.848.06.03.242.06.181.031.453.061.394.06.636.273.302.03.665-.182Q9.105 0 9.377 0l.121.635q0 .514.03 1.27.061.757.122 1.755l-.06.635q-.061.424-.303.545 0 .06.15.272.182.182.182.333.091 0 .242-.151.152-.152.273-.152l.181.061q.03.03.151-.09.06-.152-.03-.334-.06-.181.03-.302.091-.121.242-.242l.363-.242q.182-.151.333-.272.151-.121.212-.273.181-.06.726-.484.363-.302.847-.242.03-.12.09-.242.061-.15.122-.363.03-.15.15-.242.152-.12.273-.211.151-.091.272-.182.152-.09.182-.212.393-.393 1.27-.907.182.03.242.242.212.938-.12 2.178.211.484.211 1.089.03.423.03.696 0 .272.06.423-.09.242-.12.575-.03.333-.03.726v1.361q.272 1.15.15 1.603-.03.152-.12.363-.06.182-.182.484.484.424.273 1.634.09 1.12-.091 1.482.333.242.333.666 0 .12-.06.423-.061.303-.061.454 0 .181.06.363zm-2.117-7.381q-.303-.272-.303-.847v-.968q.03-.182-.212-.484-.816.575-1.512 1.361-.877.454-1.543 1.331.151.242.666.575.12.212.544.423.454.212.575.454.06.303.333.666.12-.091.242-.091.211 0 .514.302.302.303.514.333.091-.242.03-.423.363-1.392.03-2.118.061-.302.091-.393.03-.09.03-.121zm-7.896.484l-1.633-1.27q-.06-.424-.484-.606-.424-.181-.817-.363-.09 0-.242-.15-.12-.152-.242-.152-.151.09-.181.272v.363q.03.151.03.242v.091q.03.333.06.847.03.484.091 1.18-.151 1.058-.06 1.27.06.182.06.212 0 .09-.12.333-.092.242-.031.393.423-.03.847-.454.272-.302.454-.454.181-.181.272-.242.03-.03.151-.03l.242-.06q.121-.03.182-.091.09-.06.09-.151.152-.273.757-.696.12 0 .242-.212.12-.212.211-.212t.121.03z"/></svg>
