<svg xmlns="http://www.w3.org/2000/svg" viewBox="0 0 23.917 21.539"><path d="M13.118.091c1.332-.27.933.492 1.144.42.221.08-.241-.535.761-.45.242.04.505.07.787.09l.12 1.604c-.1.303-.15.666-.15 1.09l-.03 1.088.09 1.755-.151.665s.847.067 1.047.078c.374.035.03.621.166.633.138.012.225-.527.422-.59.254.037.815.06.815.06.02-.403.01-.856-.03-1.36-.02-.525-.03-1.192-.03-1.725l.347-.423c.02-.081-.254-.188-.375-.29l-.027-.92c.362-.263.449-.417.085-.394V.333l.272-.272c.706-.1 1.513-.04 2.42.182-.06.363-.02.766.121 1.21l-.151.937v.424l-.03 1.482.12 1.059-.03.423v.394l.152.272c1.694.04 2.672.333 2.934.877a5.19 5.19 0 00-.968 1.876l-.817-.03-.938.12c-.706-.262-1.432-.232-2.178.091a2.004 2.004 0 00-1.33-.03c-.384.02-.928-.03-1.634-.151l-1.482.09H13.632c-.08.262-.04.575.12.938-.2.645-.221 1.412-.06 2.3-.02.14-.02.271 0 .392 0 0-.727.602-.664.887.049.216.664-.07.664-.07l-.03.666v.695l-.122.48-.076.544.168.58-.029.537c0 .498.129.99-.753.731-.117.398.48.486.48.486.18.222.261.494.241.817.02.484-.04 1.069-.181 1.754v.394l-.817.12a9.423 9.423 0 00-1.15-.06c-.423-.02-.897-.01-1.421.03.06-.343.03-.756-.09-1.24-.044-1.51.712-1.582.712-1.582-.031-.35-.639-.418-.655-.75l.154-1.691-.135-1.608-.077-.842c.04-.303.07-.636.09-.999.041-.383.021-.806-.06-1.27-.117-.795.06-1.831.515-2.986-.471.342-.9.95-1.506.967-.963.03-1.972.023-2.767.008-1.318-.024-2.922.068-3.358.06-.223-.003-.104-.651-.32-.62-.687.103-.755.63-.937.605-.373-.05-.843-.101-1.307-.121C.04 9.338-.04 8.5.02 6.928c.01-.41.02-.341.23-.349l.689-.023c.35.255.763.332.863.22.042-.048-.149-.025-.103-.215.238-.002.502.016.772.034.021-.833.14-1.623.06-2.39l.03-1.875c0-.262.431.017.452-.286.02-.323-.468-.722-.27-1.62l-.16-.388c.314 0 .809-.064 1.006-.022.151.36-.127.675.093.502.083-.065.727-.307.778-.486.23-.025.368-.014.619.007.064.005.169.217.232.222-.202.786-.138 1.809-.057 2.918l-.03 1.089v.423l-.03.514.15.273-.03.937c.726.162 1.533.182 2.42.06a5.8 5.8 0 00.06-.876c.021-.343.021-.726 0-1.15.081-.322.132-.665.152-1.028.146-.146.595-.19.659-.345.06-.145-.278-.057-.32-.217 0 0-.18-.197.058-.535.109-.155-.173-.046-.367-.174l.03-2.027c.605-.1 1.412-.13 2.42-.09.323 1.27.303 2.712-.06 4.325l.212 1.21v.696c.1.121.232.212.393.272a5.289 5.289 0 012.027.03l-.121-.816c.08-.222-.063-.624.181-.726.241-.101.43.059.465-.058.05-.168-.157-.62-.465-.82.06-.645.02-1.139-.12-1.482l.18-2.57z"/></svg>
