<svg xmlns="http://www.w3.org/2000/svg" viewBox="0 0 512 512" style="height:512px;width:512px"><path d="M220 90a219 219 0 0 0-33 3l-4 1 6 5a366 366 0 0 0 142 46c13 2 21-2 27-7 5-5 7-11 7-13 0-1-2-4-6-7s-11-7-20-10a417 417 0 0 0-116-19h-3zm-47 20-26 62 24 17c9-8 23-14 23-14l-12 21 36 20c9-11 29-20 29-20l-11 29a337 337 0 0 0 47 18c6-16 21-35 21-35l2 40c15 3 29 4 42 2 7-17 9-38 7-53 13 11 17 29 19 46l5-2c-3-25-7-60-9-91l-1 1c-9 8-22 14-39 13a376 376 0 0 1-156-54zm-58 73c-39-1-74 6-94 30-18 22 106 130 225 178 88 35 176 53 230-11 51-62-21-140-83-178l8 66v1c0 9-4 18-10 24-7 6-16 10-26 12-20 5-46 4-76-2-58-11-126-41-171-89l-3-3 1-5 7-23h-8zm25 6-6 17c10 10 22 19 34 27-3-8-5-19-5-28l-23-16zm36 24-2 24c15 10 31 19 48 27-3-9-7-20-8-30l-38-20zm56 30-3 23c19 8 38 14 56 18-2-7-4-16-4-23a253 253 0 0 1-49-18zm150 17-7 2c0 8-1 15-3 22l7-4c3-3 4-6 4-11l-1-9zm-80 6-8 20c27 5 51 5 67 2-2-7-4-14-8-20-16 2-33 1-50-2z"/></svg>
