<svg xmlns="http://www.w3.org/2000/svg" viewBox="0 0 512 512" style="height:512px;width:512px"><path d="m207 19 36 162 3 3 7 2 7-2 3-3 36-162h-92zm89 98-15 69c-2 6-6 11-11 14-6 3-11 4-17 4-5 0-11-1-16-4s-10-8-12-14l-14-67c-36 15-64 46-75 84l32 15c26 12 60 23 88 23s62-12 89-23l32-17c-12-40-42-71-81-84zm89 101a272 272 0 0 1-129 42c-32 0-68-12-96-24l-33-17c-1 71-4 139 9 189a106 106 0 0 0 85 83V330c-29 16-68 3-81-30 9-23 30-34 51-33 24 0 48 15 49 45v89h36v-89c0-30 24-45 49-45 20-1 42 10 50 33a58 58 0 0 1-81 30v161c20-4 35-11 47-21 18-15 29-36 36-63 13-50 9-119 8-189z"/></svg>
