<svg xmlns="http://www.w3.org/2000/svg" viewBox="0 0 512 512" style="height:512px;width:512px"><path d="m256 65-25 42a363 363 0 0 1 50 0l-25-42zM34 119l23 71a200 200 0 0 1 51-46l-74-25zm444 0-74 25a205 205 0 0 1 51 46l23-71zm-222 5c-77 0-134 24-171 62-36 36-54 84-56 138h454c-2-54-20-102-56-138-37-38-94-62-171-62zm-138 87a49 49 0 0 1 0 97 49 49 0 0 1 0-97zm138 0a49 49 0 0 1 0 97 49 49 0 0 1 0-97zm138 0a49 49 0 0 1 0 97 49 49 0 0 1 0-97zm-276 18c-17 0-31 14-31 31a30 30 0 1 0 61 0c0-17-13-31-30-31zm138 0c-17 0-30 14-30 31a30 30 0 1 0 60 0c0-17-13-31-30-31zm138 0c-17 0-30 14-30 31a30 30 0 1 0 61 0c0-17-14-31-31-31zM28 342v61h140v-61H28zm158 0v61h140v-61H186zm158 0v61h140v-61H344z"/></svg>
