<svg xmlns="http://www.w3.org/2000/svg" viewBox="0 0 512 512" style="height:512px;width:512px" fill="#FFFFFF"><path d="M256 16c-36 0-73 13-140 40h280c-67-27-104-40-140-40zM95 72 64 448c56 28 112 32 168 32V240H112v-48h288v48H280v240c56 0 112-4 168-32L417 72H95zm65 88a8 8 0 0 1 8 8 8 8 0 0 1-16 0 8 8 0 0 1 8-8zm48 0a8 8 0 0 1 8 8 8 8 0 0 1-16 0 8 8 0 0 1 8-8zm48 0a8 8 0 0 1 8 8 8 8 0 0 1-16 0 8 8 0 0 1 8-8zm48 0a8 8 0 0 1 8 8 8 8 0 0 1-16 0 8 8 0 0 1 8-8zm48 0a8 8 0 0 1 8 8 8 8 0 0 1-16 0 8 8 0 0 1 8-8zm-104 80v240h16V240h-16zm-120 48h16v16h-16v-16zm32 0h16v16h-16v-16zm32 0h16v16h-16v-16zm112 0h16v16h-16v-16zm32 0h16v16h-16v-16zm32 0h16v16h-16v-16zm-240 32h16v16h-16v-16zm32 0h16v16h-16v-16zm32 0h16v16h-16v-16zm112 0h16v16h-16v-16zm32 0h16v16h-16v-16zm32 0h16v16h-16v-16zm-240 32h16v16h-16v-16zm32 0h16v16h-16v-16zm32 0h16v16h-16v-16zm112 0h16v16h-16v-16zm32 0h16v16h-16v-16zm32 0h16v16h-16v-16z"/></svg>
