<svg xmlns="http://www.w3.org/2000/svg" viewBox="0 0 512 512" style="height:512px;width:512px"><path d="M144 37c-26 0-63 26-65 83l65 29 72-29c-3-56-46-83-72-83zm224 0c-26 0-69 27-72 83l72 29 65-29c-2-57-39-83-65-83zM77 137c-11 40-13 90-10 141 46 10 93 7 141 0 9-50 13-99 4-139l-65 26-3 1-3-1-64-28zm358 0-64 28-3 1-3-1-65-26c-9 40-5 89 4 139 48 7 95 10 141 0 3-51 1-101-10-141zM185 297c-32 4-63 5-95 1l35 36 7 6c18-12 36-26 53-43zm142 0c17 17 35 31 53 43l7-6 35-36c-32 4-63 3-95-1zm-259 2c1 25 4 49 6 73 15-6 29-14 44-23l-4-3-46-47zm376 0-46 47-4 3c15 9 29 17 44 23 2-24 5-48 6-73zm-240 2c-19 20-39 36-59 50 13 9 27 17 45 22l14-72zm104 0 14 72c18-5 32-13 45-22-20-14-40-30-59-50zm-177 59c-16 10-32 18-48 25 12 19 27 34 45 48 19-13 36-28 51-47-19-6-35-15-48-26zm250 0c-13 11-29 20-48 26 15 19 32 34 51 47 18-14 33-29 45-48-16-7-32-15-48-25zM76 403l4 64 34-24c-14-12-27-25-38-40zm360 0c-11 15-24 28-38 40l34 24 4-64zm-252 2c-13 15-28 27-43 39l35 24c1-19 4-40 8-63zm144 0c4 23 7 44 8 63l35-24c-15-12-30-24-43-39zm-201 49-39 27c26 13 53 11 79 0l-40-27zm258 0-40 27c26 11 53 13 79 0l-39-27z"/></svg>
