<svg xmlns="http://www.w3.org/2000/svg" viewBox="0 0 512 512" style="height:512px;width:512px" fill="#FFFFFF"><path d="m340 33 14 3-4 10c-6 14-14 29-20 35-5 5-20 10-33 12-12 1-23 4-34 4v16h-14V97c-12 0-24-3-34-4-13-2-28-7-33-12-6-6-14-21-20-35l-4-10 14-3c9 12 38 48 84 48s75-36 84-48zm32 7 32 6-30 75 33 49-10 66-6 4c-11 8-26 15-39 15-4 0-12-4-20-11a395 395 0 0 1-51-63v-18h11v-18h-11v-14h11v-18s39-8 50-19c11-10 18-26 24-41l6-13zm-232 0 6 13c6 15 13 31 24 41 15 13 50 19 50 19v18h11v14h-11v18h11v18a395 395 0 0 1-51 63c-8 7-16 10-20 10-13 1-28-6-39-14l-6-4-10-66 33-49-30-75zm123 91v14h-14v-14zm0 32v23l1 2 29 41c8 10 18 21 27 29 10 8 20 14 32 14 16 1 30-6 42-12l-2 15-55 40-81-98-81 98-55-41-2-14c12 6 26 13 42 13 12 0 22-7 32-15 9-8 19-19 27-29l29-41 1-2v-24zm-7 83 79 94 33-25-8 37c-13 3-64 15-104 15s-91-12-104-15l-8-37 33 25zm90 128 9 35a776 776 0 0 1-33 10l-6-40 30-5zm-180 0 30 5-6 40a402 402 0 0 1-33-10zm132 8 7 41c-14 4-28 6-40 7v-46l33-2zm-84 0 33 2v46c-12-1-26-3-40-7zm164 38 11 44s-56 20-86 24c-31 5-63 5-94 1-30-5-86-25-86-25l11-45a568 568 0 0 0 122 30 568 568 0 0 0 122-29z"/></svg>
