<svg xmlns="http://www.w3.org/2000/svg" viewBox="0 0 512 512" style="height:512px;width:512px" fill="#FFFFFF"><path d="M254 19C173 19 23 175 82 319c8 26 28 51 50 77 24 31 51 64 68 97h21c-18-39-49-76-75-108-27-35-49-65-49-88 1-9 3-18 6-26 23-62 114-120 149-135l3-2 4 1c61 21 129 67 154 136 4 11 6 18 6 27-1 16-25 55-55 89-29 32-63 67-80 106h20c17-32 46-64 73-94 24-26 46-50 55-75 53-124-99-305-178-305zm1 135c-39 22-85 52-114 88 10 83 59 146 118 146 60 0 109-62 119-145-29-42-78-73-123-89zm-58 83h2c13 0 26 3 39 7-17 41-59 43-78 1 12-5 24-8 37-8zm125 0c13 0 26 2 39 7-20 43-62 41-79 1 14-5 27-8 40-8z"/></svg>
