<svg xmlns="http://www.w3.org/2000/svg" viewBox="0 0 512 512" style="height:512px;width:512px"><path d="M256 23c-43 0-95 15-127 30-33 14-61 30-80 61-26 40-39 103-30 202 25 9 47 6 70-1-7-33-6-66 2-93 9-29 27-53 53-57l11-2 1 12v53c0 36-1 76-5 116 24 7 62 12 100 12h19c36-1 70-6 91-13-5-61-5-123-7-172v-14l13 4c26 6 44 30 53 60 9 27 10 60 3 93 18 6 36 7 54 5l18-3c4-78-6-156-26-193l-19-26c-19-23-44-35-73-46-28-15-77-28-121-28zm0 13c27 0 56 8 80 19-13 11-29 19-46 24l-33 72-28-71c-20-4-39-12-53-25 25-11 54-19 80-19zm2 119 15 22-15 21-14-21 14-22zm0 49 15 23-15 21-14-21 14-23zm0 49 15 23-15 21-14-21 14-23zm0 50 15 22-15 21-14-21 14-22zm105 57c-28 9-66 12-105 12-40 1-80-3-109-12l-2 23c25 9 68 14 110 14 43-1 85-6 108-15l-2-22zm6 38a376 376 0 0 1-147 13l-18-1c-22-2-43-6-60-12-4 23-8 45-14 66 9 5 18 9 28 12l17 4c66 16 150 9 207-14-6-21-10-44-13-68z"/></svg>
