<svg xmlns="http://www.w3.org/2000/svg" viewBox="0 0 512 512" style="height:512px;width:512px" fill="#FFFFFF"><path d="m205 29 7 22c15 13 30 20 44 20s28-6 44-20l7-22c-31 17-71 17-102 0zm-14 15-83 18-31 76c8 5 22 12 37 15 18 4 37 4 51-3-5-20-11-39-20-57l-10-20 21 7c47 16 80 31 100 48 20-17 53-32 101-48l20-7-10 20c-9 18-15 37-20 57 14 7 34 7 51 3 15-3 29-10 37-16l-31-75-83-18-5 17-2 2a84 84 0 0 1-58 26c-20 0-40-10-58-26l-1-2-6-17zm-22 60c26 63 27 130 27 165h120c0-35 2-102 27-165-38 14-64 28-78 40v65h-18v-65c-14-12-40-26-78-40zm20 183c-9 4-17 13-24 28s-13 35-19 58c-9 39-17 85-31 120h92c-9-24-9-56-12-111v-1l16-94h-22zm40 0-16 95c4 61 5 92 14 111h58c9-19 10-50 14-111l-16-95h-54zm72 0 16 94v1c-3 55-3 87-12 111h92c-14-35-22-81-31-120-6-23-11-43-19-58-7-15-15-24-24-28h-22z"/></svg>
