<svg xmlns="http://www.w3.org/2000/svg" viewBox="24 24 464 464" width="32" height="32" fill="#FFFFFF"><path d="M256 25c-38 0-76 11-108 29l17 34-31-26C86 93 48 139 33 190l42 17H28c-2 10-3 21-3 31h1l10 5a177 177 0 0 0 79 4c11-2 17-6 20-10 1-21 9-44 24-64l-31-29 41 16c19-20 44-36 73-40l14-72 14 72a122 122 0 0 1 73 40l41-16-30 29c14 20 22 43 23 64 3 4 9 8 20 10s26 3 40 2c15-1 29-3 39-6l10-5h1c0-10-1-21-3-31h-47l42-17c-15-51-52-97-101-128l-31 26 17-34c-32-18-69-29-108-29zm0 112c-29 0-55 15-73 35-16 18-27 40-29 59h14c6-6 13-12 20-16 4-10 10-18 18-25 13-14 31-23 50-23s37 9 50 23c8 7 14 15 17 25 8 4 15 10 21 16h14c-2-19-13-41-29-59-18-20-44-35-73-35zm0 80c-38 0-63 11-79 31a98 98 0 0 0-20 45c70 13 128 13 198 0-4-18-10-34-20-45-16-20-41-31-79-31zm-102 94-1 18c60 13 146 13 206 0l-1-18c-72 13-132 13-204 0zm-2 36-15 101c0 1 1 5 4 9 3 5 7 10 13 14 9 8 22 15 34 16l5-7c4-6 6-14 6-15 0-2-6-10-14-15l-13-10-15-9 15-7c15-7 21-14 23-19 2-6 2-11-1-18-6-18-12-29-16-35l-27-5zm209 0-27 5c-4 6-10 17-16 35-3 7-3 12-1 18 2 5 8 12 23 19l15 7-14 9-14 10c-8 5-14 13-14 15 0 1 2 9 6 14l5 8c12-2 25-8 34-16 6-4 10-9 13-14 3-4 4-8 4-9l-15-101z"/></svg>
