<svg xmlns="http://www.w3.org/2000/svg" viewBox="0 0 512 512" style="height:512px;width:512px"><path d="m70 400 30 33 30-33V133H70v267zm30-25a14 14 0 1 1-13 14 14 14 0 0 1 13-14zm282-242v267l30 33 30-33V133h-60zm30 269a14 14 0 1 1 13-13 14 14 0 0 1-13 13zM304 146v285l30 34 30-34V133h-47a78 78 0 0 1-13 13zm30 261a14 14 0 1 1-14 13 14 14 0 0 1 14-13zM226 157v295l30 34 30-34V157a77 77 0 0 1-60 0zm44 284a14 14 0 1 1-14-13 14 14 0 0 1 14 13zm-75-308h-47v298l30 34 30-34V146a78 78 0 0 1-13-13zm-17 301a14 14 0 1 1 14-14 14 14 0 0 1-14 14zM333 85a77 77 0 0 0-5-27h114v57H327a77 77 0 0 0 6-30zM70 58h114a77 77 0 0 0 1 57H70V58zm186 87a59 59 0 1 1 59-60 59 59 0 0 1-59 60z"/></svg>
