<svg xmlns="http://www.w3.org/2000/svg" viewBox="0 0 512 512" style="height:512px;width:512px"><path d="m335 181 7 18-12 14-21-32 2-3zm140-92-4-62-65 8c-68 9-80 15-83 17l-6 7c17 3 38 14 60 31l8 6-46 51 8 18 23 3 43-47 6 8c19 21 31 40 35 57l14-13v-1l1-2 1-1c1-1 8-11 5-80zM122 386l-8 9-29 31c-21-16-35-18-38-17 0 3 1 10 9 22s19 24 32 34c23 19 38 22 42 20 0-2-1-9-9-22a127 127 0 0 0-8-10l26-29h-1l6-7-2-26zm17-19-3 4 4 1zm39 13 26-29-25-27-24 26 3 26zm-17 19 3-4h-4zm143-240 14-15-14-31a9 9 0 1 1 17-7l10 23 27-30c-27-19-46-24-54-22l-35 45 24 35zM60 393a90 90 0 0 1 23 10l18-21-7-1a9 9 0 1 1 4-18l18 4 20-23-1-18a9 9 0 0 1 18-2v2l13-15-23-25zm378-193c1-9-6-28-26-51l-20 22 22 3a9 9 0 0 1-1 18 9 9 0 0 1-1 0l-35-5-13 15 13 31a9 9 0 1 1-16 7l-11-23-10 11 26 39zM199 384l9 2a9 9 0 1 1-4 18l-19-4-22 23 2 16a9 9 0 0 1-18 2l-11 12a86 86 0 0 1 9 18l92-85-20-22zm-6-345c-3-1-15-6-73-10l-58-3-16 53c-15 57-9 66-8 67l1 1v3l302 320c10-21 50-63 90-73zm173 425c-9 12-11 19-10 21 2 1 10 1 24-6l-13-16zm77-49c-3-1-14 0-33 11l16 19 7-9c9-11 10-19 10-21z"/></svg>
