<svg xmlns="http://www.w3.org/2000/svg" viewBox="62 17 386 478" width="32" height="32" fill="#FFFFFF"><path d="M230.1 18.2V247h49.3V18.2h-49.3zM78.8 21.4l-16 137c48.7 30 97.6 47.8 148.6 53V33.1A1490 1490 0 0 1 78.8 21.4zm349.4.3a1043 1043 0 0 1-130 12v175c46.7-7.5 95.7-24.4 148.4-50.9l-18.4-136zm-1.9 166.6a494.1 494.1 0 0 1-128.2 39V247h37v143.2h-37v8.7c0 34.4-20.5 56-43.2 56.3-22.8.2-43.5-21.4-43.5-56.3v-8.7h-37V247h37v-17.2a351.9 351.9 0 0 1-127.6-38c5 92.6 3.6 185.3-5.1 278 117.4 32 234.8 31 352.2 0-6.9-93.8-9.2-187.7-4.6-281.6zm-233.2 77.4v105.8h123.4V265.7H193zm20.5 18.1H296v67.5h-82.4v-67.5zm18.7 18.7v30.2h45v-30.2h-45zm-2.2 87.7v8.7c0 28.2 13.3 37.7 24.6 37.6 11.3-.1 24.7-10 24.7-37.6v-8.7h-49.3z"/></svg>
