<svg xmlns="http://www.w3.org/2000/svg" viewBox="0 0 512 512" style="height:512px;width:512px" fill="#FFFFFF"><path d="M256 23c-70 0-133 31-175.6 80H63v22.5A231.8 231.8 0 0 0 23 256c0 48.3 14.8 93.2 40 130.5V489h386V386.5a232.4 232.4 0 0 0 0-261V103h-17.4C389 54 326 23 256 23zm0 18c59 0 112.3 23.7 151.1 62H105c38.7-38.3 92-62 151-62zm-152.6 80h145.2c-2.8 1.5-5.5 4-7.9 7.4-4.5 6.4-7.7 15.9-7.7 26.6s3.2 20.2 7.7 26.6c4.5 6.4 9.9 9.4 15.3 9.4s10.8-3 15.3-9.4 7.7-15.9 7.7-26.6-3.2-20.2-7.7-26.6c-2.4-3.4-5-5.9-7.9-7.4h145.2l-100.4 62h36.4l85.7-53 .7 1v70H277.6a34 34 0 0 1-21.6 8c-8 0-15.4-3-21.6-8H81v-70l.7-1 85.7 53h36.4l-100.4-62zM63 161.1v189.8a215.3 215.3 0 0 1 0-189.8zm386 0a215.3 215.3 0 0 1 0 189.8V161.1zM81 223h136v244.5a213.5 213.5 0 0 1-57.3-19.2l39.3-59v-40.1l-59.6 87.5A215.8 215.8 0 0 1 81 381V223zm214 0h136v158a215.8 215.8 0 0 1-58.4 55.7L313 349.2v40l39.3 59a213.5 213.5 0 0 1-57.3 19.3V223zm-48 97h18v150.8a219.1 219.1 0 0 1-9 .2c-3 0-6 0-9-.2V320zM81 409.7a233.8 233.8 0 0 0 85.1 61.3H81v-61.3zm350 0V471h-85.1a234.5 234.5 0 0 0 85.1-61.3z"/></svg>
