<svg xmlns="http://www.w3.org/2000/svg" viewBox="0 0 512 512" style="height:512px;width:512px"><path d="M110 36 39 95h142l-71-59zm288 32-71 59h142l-71-59zM229 84l-109 91h218L229 84zM55 113v62h37l73-61v-1H55zm23 14h16v18H78v-18zm265 18v11l23 19v-16h16v18h-14l19 16h-44v14h78v-39h18v39h14v-62H343zm-194 48v20l24-20h-24zm28 0 105 88 27-23v-65H177zm74 14h36v34h-36v-34zm-76 8L30 335h289L175 215zm198 13-77 64 32 27h154l-109-91zm-23 109 19 16h-73v78h61v-64h50v64h46v-94H350zM71 353v123h126v-77h50v77h31V353H71zm30 30h50v50h-50v-50z"/></svg>
