<svg xmlns="http://www.w3.org/2000/svg" viewBox="0 0 512 512" style="height:512px;width:512px"><path d="M0 0h512v512H0z" fill="none"/><path d="m352.8 39.5-33.1 83.3 111.1 111.3 58.2-58.3L352.7 39.5zm-160.4 5.2C94.2 111.7 25.5 205.9 23 333.6 85.2 213.8 185.4 108.5 278.2 63.8l-85.8-19.1zM97.7 60.2 68.3 89.7 90 110.6a422.3 422.3 0 0 1 28.3-30L97.8 60.3zm353.9 0-26 25.8 28.8 28.8 26.7-25.1-29.5-29.5zm-264 89.7a634.9 634.9 0 0 0-28 27c25.2 24.2 50.5 48.4 75.7 72.8l26.1-26.1-73.8-73.7zM341 170.6 68 443.2l29.3 29.2c83.5-96.2 175.8-186.5 269.8-275.6L341 170.6zm-28.2 104.2-26 25.3A4105.6 4105.6 0 0 1 452 472.5l29.4-29.3-168.6-168.4z"/></svg>