<svg xmlns="http://www.w3.org/2000/svg" viewBox="0 0 512 512" style="height:512px;width:512px" fill="#FFFFFF"><path d="M247.8 18.7C138 17.6 19.8 97 19.8 244.5L41 193.1c-9.5 72.3-7.7 147.3 38.8 202.5l-41.7-18.2c39.2 69.7 126.3 91 200.9 92.5-115-40-171.2-127.6-175.2-223.4-6.7-211.8 260.7-217.7 340.8-75.8a288.3 288.3 0 0 0-15.6-56c77.4 89 59.3 214.8-21.3 253-24.3 3.9-49 12-61 19-58.5 33.7-6.2 126.5 53.3 92.1 9.4-5.4 23.4-17.3 36.4-31.3 64.4-59.5 98.1-118.3 93.2-189a281.7 281.7 0 0 1-35.7 84.7C517.2 196.4 462 79.3 309.2 42a135.5 135.5 0 0 1 33.9 23.3c-57.4-23.7-131.2-22.6-187 3.5a197.2 197.2 0 0 1 102.4-49.7l-10.6-.4zM228 179l-19.8 100.6a79 79 0 0 1-9 10l-25.7-49.2-22.7 12 31.4 61c4.4 11.4 10 20.6 15.1 28.4 28 42.8 64.6 35.3 95.3 9.6l87.3-48.5-12.7-22.4-66.2 36.9a94.9 94.9 0 0 0-5-9.5l67.8-65-17.5-18.7-66.5 63.8c-2.4-2.3-4.2-4.5-6.8-6.6l45.1-78-22.7-13.2-45.9 78.3a62 62 0 0 0-11.6-2.7l15.7-82L228 179z"/></svg>
