<svg xmlns="http://www.w3.org/2000/svg" viewBox="0 0 512 512"><path d="m375.5 251.2-110 51.2.2 183.4L477 266.3l-87-21.8zM362.7 360l-5.9 14.7-48.6-9 5-12.8a141.3 141.3 0 0 0 13.5-11.4 167.2 167.2 0 0 0 16.6-17.5 170.5 170.5 0 0 0 12.6-18 115.6 115.6 0 0 0 9.5-18l14 2.6q-9.3 22.3-30.3 44.4-13.3 13.7-20.6 18.7zM121.6 244.3l-84.7 21.8L246.5 486V302.4l-110-51.2zm19.2 50.9A28.7 28.7 0 0 1 165 302a53 53 0 0 1 11.2 14.2l-13 2.7a28.5 28.5 0 0 0-5.4-7.4q-5.2-4.9-11.3-3.9l-.5.1a6.5 6.5 0 0 0-5.1 4.5c-.9 2.3-.3 5.5 1.8 9.3q4 7.6 10.8 9a23.8 23.8 0 0 0 8.5-.1l1.9-.4 5.8 10.8q-6.4 1.5-8.2 3.3-3.2 3.2.4 10a17 17 0 0 0 6 6.6 10.4 10.4 0 0 0 7.5 1.6l.4-.1q4.7-1 5-4.8a17 17 0 0 0-2.7-9.5l12.4-2.5a49.2 49.2 0 0 1 4.1 11.2 20 20 0 0 1-.6 9.4 11.7 11.7 0 0 1-4 5.4 19.6 19.6 0 0 1-8 3.2l-1.2.3a28 28 0 0 1-17.5-2.7 32.2 32.2 0 0 1-14.1-14.1q-3.7-6.8-2.6-12.2a8.4 8.4 0 0 1 2.5-5h-.1q-1.8.3-7-2.5a32.1 32.1 0 0 1-13-13.6q-5.2-9.7-3.2-18.4 2-8.6 13.6-11zM27.2 248.9 136 132.6a7.1 7.1 0 0 1 1.4 0h.2q3 .3 2.8 3.7a19.4 19.4 0 0 1-3.3 8 39.4 39.4 0 0 1-9.7 10.5q-4 3-15 9.5-12.9 7.5-19.6 14.8a92.5 92.5 0 0 0-11.5 14.4l32.9 3.8 8.2-13-21-2.3a36.4 36.4 0 0 1 4.7-3.9q2.4-1.6 8.5-5.1l6.4-3.7a93 93 0 0 0 13-8.8 61.5 61.5 0 0 0 12.4-14.4q6.9-10.9 6.5-18c-.2-4-2-6.4-5.7-7.5L227 35.4 125 215l-5.8 10zm367.2-72q-3.8-5.5-3.7-8.5c0-2 1.2-3.2 3.5-3.5h.6a11.9 11.9 0 0 1 7 2.3 29.9 29.9 0 0 1 7.8 8q3.6 5.3 3.7 8.4c0 2.1-1.2 3.3-3.5 3.6h-.6a11.8 11.8 0 0 1-7-2.4 29.8 29.8 0 0 1-7.8-7.9zM285 35.4l84 89.6h-1.2l-1.5.1q-7.8.9-8.3 6.9-.5 6 5 13.7a53.8 53.8 0 0 0 6.4 7.4 37.9 37.9 0 0 0 10.1 6.9q-2 2.9-.7 8a37.3 37.3 0 0 0 5.6 11 55.1 55.1 0 0 0 15.3 14.9q8 5.2 16 5l1.7-.2q8.7-1 9.2-7.9a16.1 16.1 0 0 0-.5-4.8l58.7 62.6-91.6-22.9-6-10.7zm98.2 104.9 2.5 2.6 1.3 1.8c1.9 2.6 2.8 4.8 2.8 6.5 0 1.8-1 2.8-3.2 3h-.5a10.3 10.3 0 0 1-6-1.9 22.6 22.6 0 0 1-6.2-6.1c-2-2.9-3-5.1-3-6.9.1-1.7 1.2-2.7 3.3-2.9h.5a10.3 10.3 0 0 1 6 1.9 19.1 19.1 0 0 1 2.5 2zM256 26 137.5 231 256 286l118.6-55zm-1.2 208.5q-17.5 0-24.6-12.3-7-12.3-7-35t7-35q7-12.4 24.6-12.4 17.5 0 24.6 12.3 7 12.4 7 35 0 22.8-7 35-7 12.4-24.6 12.4zm10.5-71.8q2.5 8 2.5 24.5 0 15.8-2.5 24.2-2.5 8.4-10.5 8.3-8 0-10.6-8.3-2.6-8.3-2.6-24.2 0-16.6 2.6-24.5t10.6-8q8 0 10.5 8z"/></svg>
