<svg xmlns="http://www.w3.org/2000/svg" viewBox="0 0 512 512" style="height:512px;width:512px"><path d="M264.9 18.8a22 22 0 0 0-15.7 6c-.3.2-.4.1-.4 1.4s.4 3.8 1.7 7c2.6 6.3 8.4 15 16.2 24 13.8 16 34 33 53.4 44.9a46 46 0 0 0 6.1-32.5A60.3 60.3 0 0 0 306.7 37a72 72 0 0 0-32.9-17.3 49.6 49.6 0 0 0-8.9-.9zm-34 6.3a74.1 74.1 0 0 0-29.8 16.6 60.2 60.2 0 0 0-19.5 32.5 46 46 0 0 0 6.1 32.5 240 240 0 0 0 53.4-44.9l3.2-3.8c-4.4-6.1-8-12.1-10.4-18a35.4 35.4 0 0 1-3.1-14.1l.1-.8zm25 47.1-1.1 1.4a258.6 258.6 0 0 1-53.8 46.3v.1c0 31.8 20.2 57.3 46 62.1V157l-19.8 7.4-6.4-16.8 35.2-13.2 35.2 13.2-6.4 16.8L265 157v25.1c25.8-4.8 46-30.3 46-62.1v-2.1c-20.1-12.2-40-29-55.1-45.7zm-54.2 101.9C119 190.9 89.2 244.9 89 271.8c.2 4.3 2 6.8 9 9.7a81 81 0 0 0 33.9 3.6c26.1-1.7 61.9-10.7 101.8-28.5a195 195 0 0 0-30.6-5.7C185 249 168 249 160 249v-18c8 0 25.7 0 45 2.1 15.2 1.6 31.4 4.3 45.2 10l-21.6-48a74 74 0 0 1-26.9-21zm108.3.4a73.2 73.2 0 0 1-26.9 20.7l-6.8 15.3c14.6-2.5 30.1-4.1 45.5-4.4 14.2-.2 28.3.7 41.8 3 10.6 1.9 20.8 4.8 30.2 8.9-2.4-2.4-4.9-4.8-7.7-7.2a172.2 172.2 0 0 0-76.1-36.3zm14.8 49.7a291 291 0 0 0-57.5 6.4l-7.6 17.1.3.2c47.2 23.6 90.5 35.6 120.9 37.6 15.1 1 27-.6 33.9-3.5 6.4-2.7 8.1-4.9 8.2-9-7.4-27.1-30.9-40.6-62.6-46.1a190 190 0 0 0-31.7-2.7h-3.9zM256 266a392 392 0 0 1-96.7 33.7 211.2 211.2 0 0 1 19.5 33 104 104 0 0 1 9.3 30.9c59.6 22 110.6 9.3 151.7-8.4 5.1-16.5 9.4-34.9 12.9-55.3A401.9 401.9 0 0 1 256 266zm76.2 111.5c-39.9 14.6-89.2 23.2-144.3 4.9-.9 5-2.4 9.8-4.5 14.3-8.6 18.2-26.8 31.1-52 40.5-18.4 6.9-41 12.1-67.4 15.9 56.5 25.2 118.3 42.7 169.6 28.2 29.9-8.4 56.7-27.2 78.7-62.8a241 241 0 0 0 19.9-41z"/></svg>
