<svg xmlns="http://www.w3.org/2000/svg" viewBox="0 0 512 512" width="32" height="32" fill="#FFFFFF"><path d="M24.68 24.68c-3.54 3.54-5.85 9.78-5.85 16.26 0 4.4 1.12 8.6 2.9 12l23.41-7.8 7.8-23.4a26.22 26.22 0 0 0-12-2.9c-6.48 0-12.72 2.3-16.26 5.84zm17.13 40.55 42.68 40.59a72.87 72.87 0 0 1 9.49-11.84 72.93 72.93 0 0 1 11.84-9.49l-40.6-42.68-5.85 17.56zm64.9 41.47c-3.07 3.07-5.82 6.77-8.88 11.81l77.45 73.67c2.64-3.3 5.21-6.22 7.95-8.95a105.6 105.6 0 0 1 8.95-7.95L118.5 97.83c-5.04 3.06-8.74 5.8-11.8 8.88zm88.94 88.94c-9.12 9.12-17.08 22.45-35.67 50.6l11.09 11.1c34.16-51.62 34.65-52.11 86.27-86.27l-11.1-11.1c-28.15 18.6-41.48 26.56-50.6 35.68zm24.04 24.05c-4 4-7.58 8.54-11.86 14.66L450.7 471.93l42.47 21.24-21.24-42.48-237.58-242.86c-6.12 4.28-10.67 7.86-14.66 11.86z"/></svg>
