<svg xmlns="http://www.w3.org/2000/svg" viewBox="0 0 512 512" width="32" height="32" fill="#FFFFFF"><path d="M170 106c-2-14-29-30-42-30-2 0-4 0-5 2-22 24 14 81 14 81s36-29 33-53zm128 61s35-55 14-78l-6-2c-12 0-37 16-39 29-3 23 31 51 31 51zm-53-51c-2-14-27-29-39-29l-6 2c-21 23 14 78 14 78s34-28 31-51zM58 59a17 17 0 0 0-2 0c-87 9 12 286 41 304 0 0-17-151 3-244 7-34-24-60-42-60zm398 0a16 16 0 0 0-2 0c-18 0-49 26-42 60 20 93 3 244 3 244 29-18 128-295 41-304zm-72 17c-13 0-40 16-42 30-3 24 33 53 33 53s36-57 14-81c-1-2-3-2-5-2zM235 425c-2-12-25-36-25-36s-21 24-21 34c0 2-1 23 2 26s13 4 23 4c9 0 19-1 21-4 3-2 1-23 0-24zm-60-25c-12-20-19-51-23-73l-4-32c-15 12-44 138 2 138a30 30 0 0 0 5 0c5-1 11-5 15-10 6-6 10-15 5-23zm189-105-4 29c-4 23-11 55-23 76-4 7-2 14 2 20s12 12 18 13a30 30 0 0 0 4 0c47 0 18-126 3-138zm-41 128c0-10-21-34-21-34s-23 24-25 36c0 1-3 21 0 24 2 3 12 4 21 4 10 0 20-1 23-4 4-4 2-25 2-26zm-144 6v-1z"/></svg>
