<svg xmlns="http://www.w3.org/2000/svg" viewBox="0 0 512 512" width="32" height="32" fill="#FFFFFF"><path d="M89.6 18 78.8 28.9l27.6 333.6-83 93 33.2 33.2 90.2-80.5L483 433l.2.2.1-.2 10.6-10.6c-1.7-1.7-3.1-3.4-4.7-5.2-21.3-25.5-25.4-63.2-35.5-109-8.3-38-21.2-81.1-53-125.1l-38.1 50.8c29 36.1 46 67.8 59.7 96.3 15 31.2 26.1 59 44.5 83.7l-301.5-22.4 172.2-154 64.4-85.9-41.5-41.5-86 64.3-151.6 169.7L98.2 45.2c24.6 18.4 52.4 29.5 83.6 44.5a472.5 472.5 0 0 1 96.3 59.7l50.8-38c-44-32-87-44.8-125-53.1-46-10-83.6-14.2-109.2-35.5l-5-4.8zm317 .4a87.1 87.1 0 0 0-23 4 29 29 0 0 0-9.8 4.7 7.2 7.2 0 0 0-2.7 6.2l5 62.3a7.2 7.2 0 0 0 2 4.6l33.7 33.6a7.2 7.2 0 0 0 4.5 2l62.4 5.1a7.2 7.2 0 0 0 6.2-2.7c2.3-3 3.4-6 4.6-9.7a87 87 0 0 0 3.1-12.8c.8-4.6 1.2-9.2.9-13.7-.3-4.4-1-9-4.8-12.8l-66-65.9c-3.7-3.8-8.3-4.5-12.7-4.8h-3.4zm.1 14.4h2.3c2.4.2 3.7 1 3.7.8l65.7 65.7c-.2 0 .6 1.3.8 3.7.1 2.7-.1 6.5-.7 10.3a74 74 0 0 1-2.6 10.7c-.4 1.2-.6 1.2-1 2.2l-54.7-4.4-30-30-4.4-54.8 2.2-.9a74.2 74.2 0 0 1 18.7-3.3zm-48 120.4-18.9 31.6-204.5 204.5-8.8-.7-1.2-14.5 201.9-202 31.6-18.9z"/></svg>
