<svg xmlns="http://www.w3.org/2000/svg" viewBox="0 0 512 512" width="32" height="32" fill="#FFFFFF"><path d="M117.8 26.3a15.3 15.3 0 0 0-4.4.7c-5.6 1.9-10.1 7-12.6 15.7a56.3 56.3 0 0 0 1.7 32 56.5 56.5 0 0 0 17.9 26.8c7.1 5.4 13.9 7 19.5 5 5.6-1.8 10.2-7 12.6-15.7a56.3 56.3 0 0 0-1.7-32A56.5 56.5 0 0 0 133 32.1c-5.3-4.1-10.5-6-15-5.8zm184 12.3a9.1 9.1 0 0 0-8.3 5.4L280 68.7 253.2 101s-53.9-9.5-72-6.8a518.7 518.7 0 0 0-11.4 1.7 39.1 39.1 0 0 1-24.2 27.7 38.5 38.5 0 0 1-33.8-6.2 72 72 0 0 0-12.5 12.4c-18.7 14.6-26.4 24.7-42.1 34.9 3-14.9 10.7-29.7 19-41.9 1.4-2 11.5-10.5 12.9-12.4 7.5-14.7-8.5-41.2-23.5-15.8-1.4 2-7.3 18.8-8.8 21-14.6 29-23.7 47.9-15.5 76.4 2.8 9.6 31-5 55.3-22.2 26.4 37.4 59.3 48.6 78.3 63-23.2 83.5 10.3 147.4 29.3 207.8l-29.1 36.1c-8.9 10.6 48.7 13.1 52.4.7l7.7-33.8C206.4 353.1 232 286 252.8 236c55.2-59 115.2-82.3 169-128.8l45.2-9.6c10.9-20 10.2-29.8-13.8-30.7l-45 17.6c-56.6 31.8-146 53.3-186.5 98-.9-14.1-17.4-47.4-20.9-58.5 19.4 2.6 45.7 4.2 60.7-2.7 16-7.3 33.6-40.8 33.6-40.8L314.8 66c17-10-.7-27.8-13-27.3z"/></svg>
