<svg xmlns="http://www.w3.org/2000/svg" viewBox="0 0 512 512" width="32" height="32" fill="#FFFFFF"><path d="M62.5 17.3c-9.7.3-20.8 5.2-29.8 14.2-15.2 15.2-18.9 36.2-8.2 47 8 8 21.7 8 34.5 1.2 16.2 30 42.2 57.6 71.4 76.3a142 142 0 0 0-30 87.4h18.8c0-28.9 9.8-55.5 26.3-76.5l2.2 39.4C274.5 320.6 402 428.2 496 494.9c-65.6-95.3-177-224.6-288.7-348.4l-39-2c20.8-15.8 46.6-25 74.7-25v-18.8a142 142 0 0 0-85.8 28.8 213.4 213.4 0 0 0-76.5-71.7c6.7-12.7 6.7-26.4-1.2-34.4a22.6 22.6 0 0 0-17.1-6.1z"/></svg>
