<svg xmlns="http://www.w3.org/2000/svg" viewBox="67 15 387 482" width="32" height="32" fill="#FFFFFF"><path d="M248 16v32c-65 4-118 54-127 117a32 32 0 0 0-49 27c0 15 10 27 24 31l3 30c0 64 3 136-2 203-3-8-3-13-5-21l-12 2c2 14 5 27 13 39 24-10 30-61 37-94l-21-12 24-7 5-32-20-15h20v-13c0-13-11-42-23-48l-3-32 12-6c14 57 64 99 124 103v9c-9 4-16 13-16 23 0 12 8 21 19 24-12 3-25 19-23 26 8 41 14 88 30 93 20-20 22-59 26-97 0-5-12-19-23-22 11-3 19-12 19-24 0-10-7-19-16-23v-9c60-4 110-46 124-103 4 3 9 5 14 6l3 42c-12 6-22 21-22 33-1 22 1 46 5 70l23 10h-21l1 5 8 8-5 2c7 25 18 49 33 68l13-35-12-2-2 24c-5-59-5-128-5-184l-4-41c13-4 23-17 23-31a32 32 0 0 0-49-27c-9-63-62-113-127-117V16h-16zm8 48a120 120 0 1 1 0 240 120 120 0 0 1 0-240zm-5 15c-7 0-13 1-20 3-3 8-6 16-7 24-7-5-15-9-23-12l-16 12c14 3 27 10 37 20 1 10 3 21 7 31-10-4-21-6-31-6a82 82 0 0 1-20-38l-12 16c3 8 7 16 12 23-8 1-16 4-24 7-2 7-3 13-3 20 12-8 26-12 40-13 8 8 17 14 27 18-10 4-19 10-27 18-14-1-28-5-40-13 0 7 1 13 3 20 8 3 16 6 24 7-5 7-9 15-12 23l12 16c3-14 10-27 20-38 10 0 21-2 31-6-4 10-6 21-6 31a79 79 0 0 1-38 20l16 12c8-3 16-7 23-12 1 8 4 16 7 24 7 2 13 3 20 3-8-12-12-26-13-40 8-8 14-17 18-27 4 10 10 19 17 27 0 14-4 28-12 40 7 0 13-1 20-3 3-8 6-16 7-24 7 5 15 9 23 12l16-12c-14-3-27-10-37-20-1-10-3-21-7-31 10 4 21 6 31 7 10 10 17 23 20 37l12-16c-3-8-7-16-12-23 8-1 16-4 24-7 2-7 3-13 3-20-12 8-26 12-40 13-8-8-17-14-27-18 10-4 19-10 27-18 14 1 28 5 40 13 0-7-1-13-3-20-8-3-16-6-24-7 5-7 9-15 12-23l-12-16c-3 14-10 27-20 38-10 0-21 2-31 6 4-10 6-21 7-31 10-10 23-17 37-20l-16-12c-8 3-16 7-23 12-1-8-4-16-7-24-7-2-13-3-20-3 8 12 12 26 13 40-8 8-14 17-18 27-4-10-10-19-18-27 1-14 5-28 13-40zm5 81c13 0 24 11 24 24s-11 24-24 24-24-11-24-24 11-24 24-24zm-152 16c9 0 16 7 16 16s-7 16-16 16-16-7-16-16 7-16 16-16zm152 0c-4 0-8 4-8 8s4 8 8 8 8-3 8-8-3-8-8-8zm152 0c9 0 16 7 16 16s-7 16-16 16-16-7-16-16 7-16 16-16zM88 258c-10 6-19 15-19 23-2 42-1 90 9 145l14 6c-4-58-4-116-4-174zm344 10c-1 51 0 103-4 154l14-5c8-32 10-67 9-103h-14l14-9v-17c0-6-9-15-19-20zm-176 76c5 0 8 4 8 8s-3 8-8 8-8-3-8-8 4-8 8-8zm-4 32a20 20 0 0 0 8 0l-3 90-5-90z"/></svg>
