<svg xmlns="http://www.w3.org/2000/svg" viewBox="15 17 482 478" width="32" height="32" fill="#FFFFFF"><path d="M146 18v2c64 9 122 41 164 88-10-2-19-3-29-3 46 39 64 103 46 162 26-19 45-47 53-80-29-78-92-139-169-169zm268 0c28 78 19 160-19 228-1-10-3-19-6-28a154 154 0 0 1-141 93c25 19 57 30 91 28 94-75 135-203 95-321zm-165 86c-98 5-186 63-231 150v50c21-70 70-124 131-155l-12 26a155 155 0 0 1 171 3c-10-30-30-57-59-74zm-33 66c-32 1-64 13-89 38-27 103 7 216 92 286h31a260 260 0 0 1-113-191l21 20c-12-58 10-118 58-153zm41 12a55 55 0 1 0 55 55c0-30-24-55-55-55zm-76 63c-11 31-11 65 3 98 92 62 215 64 310 0v-23c-60 45-132 60-200 48l19-11c-61-7-114-51-131-112z"/></svg>
