<svg xmlns="http://www.w3.org/2000/svg" viewBox="0 0 512 512" width="32" height="32" fill="#FFFFFF"><path d="M119 31v66h18V31h-18zm256 0v66h18V31h-18zM73 89v30h366V89h-28v26h-54V89H155v26h-54V89H73zm0 48v302h366V137H73zm110 14h18v32h46v-32h18v32h46v-32h18v32h46v-32h18v32h32v18h-32v46h32v18h-32v46h32v18h-32v46h32v18H265v32h-18v-32h-46v32h-18v-32h-46v32h-18v-32H87v-18h32v-46H87v-18h32v-46H87v-18h32v-46H87v-18h96v-32zm-46 50v46h46v-46h-46zm64 0v46h46v-46h-46zm64 0v46h46v-46h-46zm64 0v46h46v-46h-46zm-192 64v46h46v-46h-46zm64 0v46h46v-46h-46zm64 0v13.3c2.5-6 7.3-10.8 13.3-13.3H265zm32.7 0c6 2.5 10.8 7.3 13.3 13.3V265h-13.3zm31.3 0v46h46v-46h-46zm-41 16c-4 0-7 3-7 7s3 7 7 7 7-3 7-7-3-7-7-7zm-23 16.7V311h13.3c-6-2.5-10.8-7.3-13.3-13.3zm46 0c-2.5 6-7.3 10.8-13.3 13.3H311v-13.3zM137 329v46h46v-46h-46zm64 0v46h46v-46h-46zm64 0v46h46v-46h-46zm64 0v46h46v-46h-46z"/></svg>
