<svg xmlns="http://www.w3.org/2000/svg" viewBox="0 0 512 512" width="32" height="32" fill="#FFFFFF"><path d="M255.2 123c-68.7 0-137.1 19-183 55.3.3 14.3 2 35.6 9.4 48.2a355.4 355.4 0 0 1 347 0c7.6-12.6 9.2-33.9 9.4-48.2-45.7-36.4-114.2-55.3-182.8-55.3zM455 199l-1.3 9.1c-2.2 13-6.2 26.5-16 36-14.4 18.7-40.8 30.5-72.8 38.6A456 456 0 0 1 255.2 295c-38.7 0-77.3-4-109.8-12.3-31.9-8-58.1-19.8-72.6-38.3-12-12-16.2-28.8-17.8-43.9-13.7 27.3-11.5 62.1.7 98.7C70 342 129.4 389 255.2 389c125.7 0 185.1-47 199.4-89.8l.1-.3.1-.3c15.2-36.7 15.6-72 .2-99.5z"/></svg>
