<svg xmlns="http://www.w3.org/2000/svg" viewBox="0 0 512 512" width="32" height="32" fill="#FFFFFF"><path d="M78.5 157.2c-23.8 0-43.9 21.4-50.3 50.6a32.8 32.8 0 0 0 .1 39.9c6.5 29 26.5 50 50.2 50 24.3 0 44.8-22.1 50.7-52.2H235v65.6h19.3v-44.2H273V311h20v-25h18.8v25h15v-65.5h18V212H129.7c-5.3-31.4-26.2-54.8-51.2-54.8zm346 12A58 58 0 0 0 387 271.5l-25.2 73-4.3 12.4h133.1l-4.3-12.5-25.2-72.9a57.8 57.8 0 0 0 20.5-44.3 57.6 57.6 0 0 0-57.3-57.8zm0 18.8a38.6 38.6 0 0 1 38.5 39c0 14.1-7 26.2-17.9 33l-6.2 4 2.4 7 23.2 67h-80.7l23.2-67 2.4-7-6.2-4a39.1 39.1 0 0 1 21.3-72.1zm-370 25.4c8 0 14.3 6.3 14.3 14.3s-6.3 14.2-14.3 14.2-14.3-6.2-14.3-14.2c0-8 6.3-14.3 14.3-14.3z"/></svg>
