<svg xmlns="http://www.w3.org/2000/svg" viewBox="0 0 512 512" style="height:512px;width:512px" fill="#FFFFFF"><path d="M192 40c-48 6-43 59-43 75l94 14c1-36 6-60 14-76 2-5 4-9 7-12zm107 2h-3c-9 1-16 5-23 19s-12 39-12 80v6l-6 2c-50 21-82 40-100 56-18 15-21 26-19 34s10 16 25 23 34 13 53 16l11 2-83 192 120-32 51-112 52 86 113-31-87-142 11-4c15-5 32-12 45-21 14-9 24-19 26-27 1-4 1-7-1-11s-7-9-15-14c-15-11-45-23-93-33l-7-2v-6c-1-13-7-36-17-54-10-15-22-26-37-27a39 39 0 0 0-4 0zm-170 87c-80 45-86 55-87 72-2 40 42 47 89 60-6-6-11-10-13-18-4-16 5-34 25-52 18-15 44-30 81-48zM93 272c-22 48-38 103-59 154l88 43 18-36 57-132zm223 95-16 34 43 13z"/></svg>
