<svg xmlns="http://www.w3.org/2000/svg" viewBox="0 0 512 512" style="height:512px;width:512px" fill="#FFFFFF"><path d="M486 204H310L256 37l-54 167H26l142 103-54 168 142-104 142 104-54-168zm-86 28-65 47-16-47h81zM256 128l25 76h-50zM112 232h81l-16 47zm55 169 25-76 40 29zm34-104 21-65h68l21 65-55 40zm144 104-65-47 40-29zm-38-264-11-32a183 183 0 0 1 115 81h-35a155 155 0 0 0-69-49zM129 371l-10 32a182 182 0 0 1-44-142l26 19v3a154 154 0 0 0 28 88zm177 58 27 20a182 182 0 0 1-154 0l27-20a155 155 0 0 0 100 0zM136 186h-35a183 183 0 0 1 115-81l-11 32a155 155 0 0 0-69 49zm303 97a182 182 0 0 1-46 120l-10-32a154 154 0 0 0 28-88v-3l26-19a184 184 0 0 1 2 22z"/></svg>
