<svg xmlns="http://www.w3.org/2000/svg" viewBox="0 0 512 512" width="32" height="32" fill="#FFFFFF"><path d="M262 17c-27 9-54 28-72 56 18 48 18 57 0 105 20 15 40 25 61 27-2-25-4-51 1-76-14-2-23-6-37-14V83c36 19 62 18 99 0v32c-14 6-22 11-35 13 3 26 3 51 1 77 19-4 37-12 55-27-14-48-14-57 0-105-17-28-47-47-73-56zm-129 8c-26 111-28 216-28 331-18-1-37-5-56-11v29h69c9 35 7 70-1 105h29c-8-35-9-70-1-105h69v-29c-19 5-38 9-57 11 1-115 3-223-24-331zm89 203c0 117 26 233 120 258 105-21 121-141 121-258H222z"/></svg>
