<svg xmlns="http://www.w3.org/2000/svg" viewBox="0 0 512 512" style="height:512px;width:512px" fill="#FFFFFF"><path d="m256 17 21 35 29-17-9 36h-82l-9-36 29 17zm64 35c14 10 23 25 23 44v65c-11-8-22-14-35-19 3-9 5-19 5-30l-1-19zm-128 0 8 41-1 19c0 11 2 21 5 30-13 5-24 11-35 19V96c0-19 9-34 23-44zm99 37a73 73 0 0 1-8 63c-8 10-17 15-27 15s-19-5-27-15a73 73 0 0 1-9-63zm9 70c25 9 50 29 65 44l-9 5c-5 3-8 8-11 13l-23-6-4 18 7 1 3 44c-6-6-13-13-22-15l-9-1c-10 1-19 5-27 8a164 164 0 0 0-14 8 164 164 0 0 0-14-8c-11-4-23-10-36-7-9 2-16 9-22 15l3-44 7-1-4-18-23 6c-3-5-6-10-11-13l-9-5c15-15 40-35 65-44a71 71 0 0 0 3 4c7 9 16 16 27 20l14 57 14-57c11-4 20-11 27-20a71 71 0 0 0 3-4zm84 58c7 0 13 2 17 5s6 7 6 10h-1l-22-1-22 1h-1c0-3 2-7 6-10s10-5 17-5zm-256 0c7 0 13 2 17 5s6 7 6 10h-1l-22-1-22 1h-1c0-3 2-7 6-10s10-5 17-5zm279 32v174h-46V249zm-256 0v174h-46V249zm149 32h2c3 0 11 7 17 14l8 12 11 89-11-11c-7-6-14-10-23-10-20 0-35 15-43 28a112 112 0 0 0-5 7 112 112 0 0 0-5-7c-8-13-22-28-43-28-9 0-16 4-23 10l-11 11 11-89 8-12c6-7 14-14 17-14 4-1 15 2 24 6l6 3 16 62 16-62 6-3c7-3 15-6 20-6a21 21 0 0 1 2 0zm4 112c2 0 7 2 11 5l14 15 7 10h-66l5-10c8-11 18-20 29-20zm-96 0c12 0 21 9 29 20l5 10h-66a164 164 0 0 1 21-25c4-3 9-5 11-5zm231 48v14H73v-14zm48 32v14H25v-14z"/></svg>
