<svg xmlns="http://www.w3.org/2000/svg" viewBox="0 0 512 512" style="height:512px;width:512px" fill="#FFFFFF"><path d="M254 16a240 240 0 1 0 0 479 240 240 0 0 0 0-479zm0 18a222 222 0 0 1 204 308l-42-35c-50 14-110 9-139-61l-42 153c-9-45-23-81-48-115-20 14-32 33-40 51l-58-98c-18 27-34 57-45 91a222 222 0 0 1 1-147 18 18 0 1 0 10-24c27-56 78-98 139-115a22 22 0 1 0 38-7l22-1zm19 27a12 12 0 1 0 0 23 12 12 0 0 0 0-23zm-75 29a73 73 0 1 0 67 104c-7 7-16 13-26 16a55 55 0 1 1 2-107c-13-8-28-13-43-13zm155 1a17 17 0 1 0 0 34 17 17 0 0 0 0-34zm-249 27a12 12 0 1 0 0 24 12 12 0 0 0 0-24zm276 41-1 30-28 10 28 10 1 30 18-24 29 8-17-24 17-25-29 9-18-24zm-72 12a12 12 0 1 0 0 23 12 12 0 0 0 0-23zm139 75a12 12 0 1 0 0 23 12 12 0 0 0 0-23zm-127 3a12 12 0 1 0 0 23 12 12 0 0 0 0-23z"/></svg>
