<svg xmlns="http://www.w3.org/2000/svg" viewBox="0 0 512 512" width="32" height="32" fill="#FFFFFF"><path d="m91 25 97 144-2-24-80-120zm40 0 156 123-5-42 122 130 31 251h52V25zm71 98 3 62c-5 7-24 33-57 37-4 0-7 4-7 8 0 0-1 37 46 83l34-56c-7-7-14-16-21-28l27-30c2-2 3-5 3-7l-12-71c-3-11-17-7-16 2zm-70 27c-10 0-17 4-21 10-7 12 0 30 16 39s34 7 41-4 0-30-16-39c-6-4-13-6-20-6zm155 76-42 33-13 80c13 3 26 4 39 2l22-3 46 51c2 2 5 3 7 2l30-4c11-3 7-16-2-16h-21l-31-66c-1-2-3-4-5-4l-39-11 23-20 52 19c5 2 9-1 11-5l10-34a8 8 0 0 0-15-6l-8 17-54-35c-3-2-7-1-10 0zm-63 59-24 39 16 10zm19 74 31 128h13l-31-127-13-1z"/></svg>
