<svg xmlns="http://www.w3.org/2000/svg" viewBox="0 0 512 512" width="32" height="32" fill="#FFFFFF"><path d="m406 79 24 24-330 330-24-24zM168 256a88 88 0 0 1 118-83l43-43a236 236 0 0 0-73-12 240 240 0 0 0-84 16 271 271 0 0 0-39 19 293 293 0 0 0-35 23 312 312 0 0 0-30 27 336 336 0 0 0-22 25l-5 6-4 5-6 9-4 6-1 2 1 2 4 6 6 8 4 6 5 5a336 336 0 0 0 22 26 312 312 0 0 0 30 26l15 11 60-61a88 88 0 0 1-5-29zm317-2-4-6-6-9-9-11a340 340 0 0 0-22-25 312 312 0 0 0-30-27 306 306 0 0 0-17-13l-60 59a88 88 0 0 1-114 115l-43 43a240 240 0 0 0 76 13 237 237 0 0 0 84-15 269 269 0 0 0 39-19 290 290 0 0 0 35-24 312 312 0 0 0 30-26 340 340 0 0 0 22-26 235 235 0 0 0 15-19l4-6 1-2z"/></svg>
