<svg xmlns="http://www.w3.org/2000/svg" viewBox="0 0 512 512" style="height:512px;width:512px" fill="#FFFFFF"><path d="m29 59-11 1 13 8c95 56 200 83 310 113l5 1a35 35 0 0 0 15-2l-12 46 18 5 16-60c26 1 51 7 74 16-1 12 3 22 10 24 9 2 19-9 23-24 2-5 2-10 2-14v-1c-1-9-4-16-10-17-7-2-15 4-20 14-25-4-49-11-72-24l16-61-18-5-12 46c-3-4-7-7-12-10C250 84 145 58 29 59zm162 45c55 0 105 12 159 27 9 0 15 7 15 16s-7 16-16 16l-6-1c-57-15-110-28-158-58h6zm-47 164v20H56c16 39 51 66 88 74v33h59c-12 31-33 56-58 78h-26v19h284v-19h-27c-29-22-50-47-62-78h64v-29c20-7 40-19 59-36-19-18-39-28-59-32v-30H144z"/></svg>
