<svg xmlns="http://www.w3.org/2000/svg" viewBox="0 0 512 512" style="height:512px;width:512px"><path d="M0 0h512v512H0z" fill="none"/><path d="M256 21c-3 4-26 32-36 48s-26 50-26 50-32-66-64-77C95 30 21 67 21 67s71 52 103 104a52 52 0 0 1 5 101c-7 15-17 29-28 40-13 13-51 20-51 20-9 4-17 8-17 18v22c0 9 7 17 17 17h54L21 491h109l64-96s16 23 26 34c10 12 34 31 36 33 2-2 26-21 36-33 10-11 26-34 26-34l64 96h109l-83-102h54c10 0 17-8 17-17v-22c0-10-8-14-17-18 0 0-38-7-51-20-11-11-21-25-28-40a52 52 0 0 1 5-101c32-52 103-104 103-104s-74-37-109-25c-32 11-64 77-64 77s-16-34-26-50-33-44-36-48zm-57 150h20c10 0 18 12 18 22v29c0 10-8 17-18 17h-20c-10 0-18-7-18-17v-29c0-10 8-22 18-22zm94 0h20c10 0 18 12 18 22v29c0 10-8 17-18 17h-20c-10 0-18-7-18-17v-29c0-10 8-22 18-22zm-177 13a38 38 0 1 0 0 77 38 38 0 0 0 0-77zm280 0a38 38 0 1 0 0 76c21 0 39-17 39-38s-18-38-39-38zm-140 72c10 0 17 11 17 23v4h39c20 0 35 11 35 24v16c0 14-15 24-35 24H200c-20 0-35-10-35-24v-16c0-13 15-24 35-24h39v-4c0-12 7-23 17-23z"/></svg>
