<svg xmlns="http://www.w3.org/2000/svg" viewBox="0 0 512 512" style="height:512px;width:512px"><path d="M0 0h512v512H0z" fill="none"/><path d="M249 18c-33 0-53 35-55 59l24 14 26-8s-1 22-6 22c-25 0-79 2-115 5-3 27-5 59-4 85l-42 9c5 8 28 19 55 17 8-25 20-62 19-86 22 5 44 9 67 8 4 22 4 43 11 64l63 20c8-27 11-54 15-83l85 1c4 0-1-92-1-92 20-4 29-11 40-22-21-5-38-3-57 2l-8 81c-21-6-59-11-90-10l-4-19c10 3 25 8 34 9 5-2 3-15 3-16-18-1-15 1-19-16h16c-8-27-35-43-57-44zm-16 209a667 667 0 0 0-28 70l-23 59 149-53-42-57-56-19zm104 93-46 17c9 15 15 31 29 44-3 18-4 27 1 38 10 21 49 48 49 48-1 6-8 19 0 27h60c5-6 2-11 1-16-46 4-65-57-83-92-1-23-5-45-11-66zm-113 40-55 20c-7 9-16 12-22 21-17 24-28 61-39 78-2 5-1 12 1 15h68c5 0-1-13-1-13-19 0-29-3-37-12 7-26 33-44 50-67 16-10 26-28 35-42z"/></svg>
