<svg xmlns="http://www.w3.org/2000/svg" viewBox="0 0 512 512" style="height:512px;width:512px" fill="#FFFFFF"><path d="M258 21A238 238 0 0 0 56 385c-21-59-5-137 44-205-27 55-24 120 8 172-16-45-3-104 36-156-22 41-21 91 4 131-14-38 2-93 43-134 44-44 103-59 142-41-40-28-93-31-135-8 54-40 117-51 161-30-52-36-120-41-177-15 72-49 154-63 212-35-41-28-88-43-136-43zm136 43zm-35 50zm94 9c28 58 14 140-36 212 27-57 22-125-15-177 22 44 10 107-29 161 22-43 19-95-9-135 19 39 4 98-40 141-42 42-96 58-134 44 39 24 90 26 130 4-51 38-111 51-155 35 52 33 117 36 171 9-68 49-146 65-204 44a238 238 0 0 0 321-338zm-88 61h-1zm37-26z"/></svg>
