<svg xmlns="http://www.w3.org/2000/svg" viewBox="0 0 512 512" width="32" height="32" fill="#FFFFFF"><path d="M256 23v18c8 0 13 0 15 3 3 2 8 12 8 36v167h18V80c1-17-3-39-13-49-7-7-15-8-22-8h-6zm192 0a25 25 0 0 0-18 42l-1 3c-4 6-6 15-6 24 0 8 2 17 6 23 2 5 6 8 10 11v118l9-1 9 1V126c4-3 8-6 10-10 4-7 6-15 6-24s-2-18-6-24l-1-3a25 25 0 0 0-18-42zm-68 1-48 24 32 16-27 14 22 22v115h18V92l-10-10 37-18-32-16 16-8-8-16zm-261 0v223h18V64l-18-40zm64 31v50h16v161l18-9V105h16V55h-50zM39 64v202l9 9 9-9v-97h23v-18H57v-14h23v-18H57v-14h23V87H57V64H39zm306 169v247c0 20 46 20 46 0V233h-46zm103 28c-11 0-23 7-23 27v192c0 20 46 20 46 0V288c0-20-11-27-23-27zm-343 4v215c0 20 46 20 46 0V265h-46zm160 0v215c0 20 46 20 46 0V265h-46zm-34 6-46 23v186c0 20 46 20 46 0V271zm-206 7v202c0 20 46 20 46 0V278l-23 23-23-23z"/></svg>
