<svg xmlns="http://www.w3.org/2000/svg" viewBox="0 0 512 512" style="height:512px;width:512px"><path d="M0 0h512v512H0z" fill="none"/><path d="M250 18c-25 4-47 33-47 70 0 20 7 38 18 51l10 12-16 3c-13 3-24 10-32 22-9 11-15 27-19 46-9 34-10 75-11 111h44l12 160h97l10-160h42c0-36 0-78-8-112-4-19-10-35-18-47-9-11-20-18-35-21l-16-2 10-13c10-12 17-30 17-50 0-40-25-69-52-69l-6-1zm179 2c-32-1-61 26-71 63-5 17-5 35-1 51-11 1-21 5-30 11 6 4 11 8 15 13 8-4 17-6 27-6l16 2-7-15c-5-12-7-33-2-51 8-30 31-50 53-50l4 1 4 1c24 6 39 38 29 72-4 18-15 35-27 43l-12 9 14 7c13 6 21 14 26 24 5 11 7 24 7 39-1 27-9 60-17 91l-37-10-51 154h-43l-1 19h57l50-150 38 10 2-9c9-33 20-71 21-105 0-17-2-33-9-47-5-10-13-19-23-26 11-12 19-28 24-44 11-42-7-86-43-95l-7-2h-6zM80 20l-14 2-1-1-6 3c-32 13-46 54-35 93 4 17 13 33 25 45-10 7-17 16-22 26-6 14-8 30-9 46 0 34 9 71 18 105l3 9 40-10 51 149h60l-1-19h-46L91 315l-39 10c-8-31-15-63-15-90 0-15 2-29 7-39 5-11 13-19 24-24l15-7-13-10c-12-8-23-25-28-43-9-32 4-62 24-71l5-1 9-1c21 0 44 19 52 49 5 17 4 38-2 51l-6 14 16-1c13-2 24 1 33 7 4-5 9-10 14-13l-2-2c-10-6-21-10-33-11 3-16 3-33-2-50-9-37-39-63-70-63z"/></svg>
