<svg xmlns="http://www.w3.org/2000/svg" viewBox="0 0 512 512" style="height:512px;width:512px" fill="#FFFFFF"><path d="M210 52a40 56 0 0 0-40 56 40 56 0 0 0 13 42c-40 21-48 97-54 164a97 97 0 0 1 8 2 396 396 0 0 0 47 2c9 0 16-3 17-4 10-10 19-30 28-48l2-4c2-17 4-34 3-51l26 11 77-52-1-3h-1l-11-19-64 47c-13-13-19-25-35-35a40 56 0 0 0 25-52 40 56 0 0 0-40-56zm144 121-15 12c52 18 105 33 157 27v-17c-45 7-93-5-142-22zm-88 72c-3 0-6 2-10 7l-13 21c-8 17-17 38-31 52-7 7-16 8-27 9l-15 1a97 97 0 0 1 24 118 262 262 0 0 0 119-11l2-26-91 6 35-43 3-3 54-4c1-37-2-65-8-85-4-16-11-26-17-32-7-7-15-10-25-10zm-159 82c-20 0-38 7-52 19l42 42a23 23 0 0 1 10-2l7 1 37-47c-12-8-28-13-44-13zm57 23-37 47a23 23 0 0 1 3 11l-2 10 42 42a81 81 0 0 0-6-110zm-120 7a81 81 0 0 0 6 110l37-47a23 23 0 0 1-3-12l2-9-42-42zm452 16-226 19-10 12 236-18v-13zm-380 56a23 23 0 0 1-9 2 23 23 0 0 1-7-1l-38 47a82 82 0 0 0 97-6l-43-42z"/></svg>
