<svg xmlns="http://www.w3.org/2000/svg" viewBox="0 0 512 512" style="height:512px;width:512px"><path d="M0 0h512v512H0z" fill="none"/><path d="m145 18 8 19c18 40 28 80 33 121-50 4-100 4-145 1l-21-1 14 16c42 52 93 83 148 111-12 70-40 134-77 186l-13 17 21-3c100-11 178-51 237-106 33 24 66 52 98 89l15 18 1-23c4-64-8-128-33-188 38-67 58-143 63-214l2-26-18 18c-35 36-86 62-143 78-47-47-105-85-170-106l-20-7zm83 65c10 0 23 5 39 15 17 12 32 25 47 39-35 9-72 15-109 19l-4-27c-1-31 8-46 27-46zm183 47c30-1 47 18 39 56-8 23-18 46-29 68-19-39-43-75-71-107l37-13c9-3 17-4 24-4zm-82 23c34 36 61 77 81 122a423 423 0 0 1-53 71c-22-6-44-15-61-23l-59-31-34-17c4-30 6-61 4-92l78-20 44-10zm-39 33h-3c-6 0-12 2-17 5-9 6-15 16-15 32 0 32 28 71 61 83 17 6 30 4 39-2s15-16 15-32c0-32-28-70-61-82-7-3-13-4-19-4zm-102 2c2 26 0 52-3 78l-24-13c-46-30-19-50 27-65zm11 106 29 15c35 17 71 36 106 60l-21 17c-66 33-115 3-118-70l4-22zm220 2 10 30c3 27-21 31-52 25a394 394 0 0 0 42-55z"/></svg>
