<svg xmlns="http://www.w3.org/2000/svg" viewBox="0 0 512 512" width="32" height="32" fill="#FFFFFF"><path d="M98 17C80 44 68 69 66 90l23 39 29-34c1-21-5-48-20-78zm375 3c-29 16-50 34-61 51l4 46 41-18c9-19 16-46 16-79zm-92 27c-10 21-17 41-20 58l18 58 20-34-7-63-11-19zM27 81c0 23 3 44 7 61l42 44 3-39-33-54-19-12zm133 10-24 11-39 46-3 40 51-39c6-16 12-36 15-58zm177 22c-24 58-16 98 8 108l21-36-19-62-10-10zm146 0h-13l-55 25-20 34 62-13c13-12 27-27 39-45l-13-1zm-226 9c-23 23-39 46-45 66l16 42 34-27c5-21 4-49-5-81zM16 159c4 63 28 95 54 95l4-43-45-47-13-5zm144 11-19 5-49 38-3 42c26 7 57-21 71-85zm16 2c-5 23-6 44-5 61l33 51 10-38-22-58-16-16zm267 9-60 13-21 36c20 19 60 6 100-45l-19-4zm-139 25-25 7-47 38-10 38 57-29c9-14 18-32 25-54zm156 26c-26 20-45 41-53 59l11 45 37-24c7-20 9-48 5-80zm-124 8c-34 78-59 159-63 253h19c3-91 28-169 61-245l-17-8zm-185 7c-8 62 10 99 36 103l10-41-34-54-12-8zm222 25c-7 22-11 42-12 60l26 55 15-37-15-61-14-17zm-303 1c-9 75-8 148 12 220h20c-21-71-22-143-13-218l-19-2zm220 11-19 1-55 29-11 40c24 12 60-10 85-70zm206 37-25 4-52 32-14 37 59-23c12-13 22-30 32-50zm-157 22c-16 61-2 99 23 106l16-39-28-58-11-9zm-156 26c-12 41-22 82-27 124h19c5-40 14-79 26-119l-18-5zm270 26-58 22-15 39c23 15 60-3 92-59l-19-2zm-96 74c-2 8-4 16-4 24h19c0-7 1-13 3-20l-18-4z"/></svg>
