<svg xmlns="http://www.w3.org/2000/svg" viewBox="0 0 512 512" style="height:512px;width:512px" fill="#FFFFFF"><path d="M256 73c-63 0-92 12-105 27-12 13-14 31-14 51h31c1-14 7-26 19-35 15-9 36-13 69-13s54 4 69 14c12 8 18 20 19 34h31c0-20-2-38-14-51-13-15-42-27-105-27zm-135 94v16h62v-16h-62zm208 0v16h62v-16h-62zM81 201c-13 0-28 7-38 17a55 55 0 0 0-18 38v192c0 15 3 24 9 30s16 9 30 9h384c15 0 24-3 30-9s9-15 9-30V256c0-13-7-27-17-38a56 56 0 0 0-38-17H81zm143 55h64v64h64v64h-64v64h-64v-64h-64v-64h64v-64z"/></svg>
