<svg xmlns="http://www.w3.org/2000/svg" viewBox="0 0 512 512" style="height:512px;width:512px" fill="#FFFFFF"><path d="m39 17-7 42c21 24 48 41 79 56-29-4-58-12-84-24-1 8-1 26 1 35 23 9 49 14 76 17-24 5-48 7-72 7l11 32c23-2 46-8 70-16-19 14-39 26-60 35l29 30 17-9-6 22c6 6 20 15 27 20l13-11v20c20 14 41 12 61 2l-1 20c-61 20-126 26-122 53l34 7-34 18c2 8 4 15 8 23l41-16-28 36 21 21 39-46-18 63 26 13 44-71-14 80c17 4 20 5 39 3l19-75 20 71 30-12-12-60 36 46c7-6 18-12 24-18l-18-37 32 18c25-17-45-57-87-100l16-25c19 28 44 40 75 30l-1-22 16 15c8-4 15-10 23-16l-7-19 19 8c12-6 22-17 33-27l-48-40c18 9 39 17 57 23l15-28c-19-4-39-11-58-21 23 3 46 3 66-1 3-9 10-23 12-31-24 7-50 9-75 7 28-9 55-21 75-40l-5-32c-85 76-174 31-210 84-5-1-11-2-15-1-15-80-139-53-222-159zm254 209-10 46-23-44c10 4 20 8 33-2z"/></svg>
