<svg xmlns="http://www.w3.org/2000/svg" viewBox="0 0 512 512" style="height:512px;width:512px"><path d="M0 0h512v512H0z" fill="none"/><path d="m316 21-22 1c-24 3-49 9-70 22a235 235 0 0 0-83 104c-9 21-17 66-17 66 14-22 43-26 43-26 12-1 33-2 38 9 0 0 4-68 41-95 25-17 60-34 87-23 28 12 46 46 45 79-13 82-131 164-131 164 12 0 24 2 33 10 10 7 12 16 14 28 0 0 115-95 142-165 9-42 9-73-9-111-19-34-37-43-62-54-15-7-32-9-49-9zM182 202a19 40 73 0 0-44 13 19 40 73 0 0-2 28 19 40 73 0 0 55-12 19 40 73 0 0 3-27 19 40 73 0 0-12-2zm56 132h-5l-28 26c13-1 23-1 33 8s12 16 13 30l27-25c-2-13-4-23-14-31-9-7-16-9-26-9zm-45 40L70 491h86l83-80c-2-13-3-20-13-28-10-7-21-9-33-9z"/></svg>
