<svg xmlns="http://www.w3.org/2000/svg" viewBox="0 0 512 512" style="height:512px;width:512px" fill="#FFFFFF"><path d="M113 380h296v19H113Z"/><g stroke-width="3.2" transform="matrix(-1.4268 0 0 1.73157 695 -215)"><rect width="12.1" height="33.8" x="172" y="340.9" rx="5.6" ry="4.6"/><rect ry="4.6" rx="5.6" y="340.9" x="186.3" height="27.3" width="11.8"/><rect ry="4.6" rx="5.6" y="340.9" x="158" height="26.6" width="12.1"/><rect width="11.9" height="18.7" x="144.2" y="340.9" rx="5.6" ry="4.6"/></g><path d="M255 163c-66 0-121 63-121 142 0 37 7 57 20 84 69 0 152 10 202 4 13-19 19-71 19-88 0-79-55-142-120-142zm-66 77c12 0 24 6 35 18l-11 9c-10-11-18-14-26-13-8 0-17 5-27 13l-10-10a63 63 0 0 1 39-17zm124 0h2c13 1 25 8 37 17l-10 10c-10-8-20-13-28-13-8-1-16 2-26 13l-11-9c11-12 23-18 36-18zm-122 36c10 0 19 3 27 8 7 5 12 13 12 21 0 9-5 17-12 22a50 50 0 0 1-54 0c-8-5-13-13-13-22 0-8 5-16 13-21 7-5 16-8 27-8zm128 0c10 0 19 3 27 8 7 5 12 13 12 21 0 9-5 17-12 22a50 50 0 0 1-54 0c-8-5-13-13-13-22 0-8 5-16 13-21 7-5 16-8 27-8zm-131 14c-6 0-12 2-16 5s-6 7-6 10c0 4 2 8 6 11 5 3 11 5 19 5 7 0 14-2 18-5s6-7 6-11c-3 4-7 6-12 6-9 0-16-7-16-15l1-6zm128 0c-6 0-12 2-16 5s-6 7-6 10c0 4 2 8 6 11 5 3 11 5 19 5 7 0 13-2 18-5 4-3 6-7 6-11-3 4-7 6-12 6-9 0-16-7-16-15l1-6zM1 380h25v19H1Zm492 0h20v19h-20z"/><g transform="matrix(1.44182 0 0 1.73157 -178 -214)" stroke-width="3.2"><rect ry="4.6" rx="5.5" y="340.9" x="172" height="33.8" width="12.1"/><rect width="11.8" height="27.3" x="186.3" y="340.9" rx="5.5" ry="4.6"/><rect width="12.1" height="26.6" x="158" y="340.9" rx="5.5" ry="4.6"/><rect ry="4.6" rx="5.5" y="340.9" x="144.2" height="18.7" width="11.9"/></g></svg>
