<svg xmlns="http://www.w3.org/2000/svg" viewBox="0 0 512 512" style="height:512px;width:512px" fill="#FFFFFF"><path d="M432 39a83 83 0 0 0-45 13v22l21-12c7-2 14-4 20-4 8 0 15 2 20 7 5 4 7 9 7 16 0 4-1 8-3 11l-9 12-11 10c-7 7-11 13-13 18s-4 11-4 19v18h23v-15a101 101 0 0 1 1-15l3-6 8-8 10-10 15-18c2-5 4-11 4-17 0-12-5-22-13-30-9-7-20-11-34-11zm-254 7C97 46 30 128 30 232c0 47 14 90 37 123 5-3 11-4 17-4 9 1 19 6 26 15 19 21 36 34 60 49 63-36 93-77 139-117l9-6c5-19 8-39 8-60 0-104-68-186-148-186zM97 146c15 0 30 8 44 24l-14 12c-12-14-22-19-32-18s-21 7-34 18l-12-13c14-13 29-22 45-23a44 44 0 0 1 3 0zm152 0a44 44 0 0 1 3 0c16 1 31 10 45 23l-12 13c-13-11-24-17-34-18s-20 4-32 18l-14-12c14-16 29-24 44-24zm166 40v29h23v-29h-23zm-316 7c13 0 25 4 34 11 8 6 15 16 15 28 0 11-7 21-15 28a62 62 0 0 1-67 0c-9-7-15-17-15-28 0-12 6-22 15-28 9-7 21-11 33-11zm157 0c13 0 25 4 33 11 9 6 16 16 16 28 0 11-7 21-16 28-8 6-20 10-33 10-12 0-24-4-33-10-9-7-15-17-15-28 0-12 6-22 15-28 9-7 21-11 33-11zM96 212c-7 0-14 3-19 6-5 4-8 9-8 14s3 9 8 13 13 7 22 7 17-3 23-7c5-4 8-8 8-13a20 20 0 0 1-16 7 20 20 0 0 1-19-19 20 20 0 0 1 1-8zm157 0c-8 0-14 3-19 6-5 4-8 9-8 14s3 9 8 13 13 7 22 7 17-3 23-7c5-4 8-8 8-13v-1a20 20 0 0 1-16 8 20 20 0 0 1-20-20 20 20 0 0 1 2-7zm83 92a11 11 0 0 0-1 0c-4 0-8 2-14 7-41 37-72 77-129 112l-40 27-10-15 12-9c-22-14-39-28-57-48-6-7-11-9-14-9-4 0-7 1-10 4-6 6-9 19-4 32 13 23 36 44 54 71l2 3-1 4a521 521 0 0 0-1 11h211v-4c0-4-3-10-8-14-5-5-12-7-15-7h-13l4-12c2-6 0-15-5-19-4-4-12-6-27 1l-11-14c28-31 66-68 88-102 3-5 1-12-3-16-2-2-5-3-8-3zm-122 37 7 16c-28 12-58 13-86 0l7-16c24 11 47 10 72 0z"/></svg>
