<svg xmlns="http://www.w3.org/2000/svg" viewBox="0 0 512 512" style="height:512px;width:512px"><path d="M0 0h512v512H0z" fill="none"/><path d="M18 18v30l36 31 40-8-46-53zm89 0 34 55c20 4 39 12 56 25l-30-80zm121 0 28 129 28-129zm117 0-30 80c17-13 36-21 56-25l34-55zm119 0-46 53 40 8 36-31V18zM119 88h-5c-28 1-63 10-96 23v143c3-8 8-15 13-20a44 44 0 0 1 32-14h2c8 1 14 5 18 11 5 5 8 11 11 17 6 12 9 23 9 23l-18 5-7-20-9-14-6-4c-5-1-13 2-19 8-6 7-10 15-11 21-2 23 8 37 19 46a68 68 0 0 0 22 13h2l-1 18-7-1-8-3c-6-3-13-7-20-13-9-8-18-19-22-34v134c24 27 51 51 81 62 13 5 29 4 41-2l1-4c1-5 2-13 10-18 6-5 12-5 15-6-3-8-11-27-6-49 4-16 16-29 30-36 7-3 15-5 23-3 4 0 8 2 12 4l8-11 4-5 4 2 6 2 1-1c0-1 2-10 0-21s-5-25-15-37l-14 1-10 3-13-12c4-4 8-6 12-7-5-2-10-3-16-2v-18c15-1 27 5 39 11l-19-21c-8-7-14-11-23-11-2 0-5 2-10 7-4 5-9 12-17 15l-7-17c2 0 6-5 11-10 5-6 12-13 23-13 14 0 26 7 35 16l15 16c5-24 10-47 8-70-31-65-71-95-115-103l-13-1zm274 0-13 1c-44 8-84 38-115 103-2 23 3 46 8 70l15-16c9-9 21-16 35-16 11 0 18 7 23 13 5 5 9 10 11 10l-7 17c-8-3-13-10-17-15-5-5-8-7-10-7-9 0-15 4-23 11l-19 21c12-6 24-12 39-11v18c-6-1-11 0-16 2 4 1 8 3 12 7l-13 12-10-3-14-1a85 85 0 0 0-15 37c-2 11 0 20 0 21l1 1 6-2 4-2 4 5 8 11c4-2 8-4 12-4 8-2 16 0 23 3 14 7 26 20 30 36 5 22-3 41-6 49 3 1 9 1 15 6 8 5 9 13 10 18l1 4c12 6 28 7 41 2 30-11 57-35 81-62V293c-4 15-13 26-22 34a85 85 0 0 1-28 16l-7 1-1-18h2l6-3c5-2 11-5 16-10 11-9 21-23 19-46-1-6-5-14-11-21-6-6-14-9-19-8l-6 4-9 14-7 20-18-5 9-23c3-6 6-12 11-17a28 28 0 0 1 20-11h3c11 0 21 6 29 14 5 5 10 12 13 20V111a311 311 0 0 0-101-23zM208 388a25 25 0 0 0-12 4l16 9 5-8c-2-3-4-4-7-4l-2-1zm96 0-2 1c-3 0-5 1-7 4l5 8 16-9-2-1c-3-2-7-3-10-3zm-127 39c1 14 6 26 7 26l8-3-15-23zm158 0-15 23 8 3c1 0 6-12 7-26zM18 455v39h49c-18-11-34-24-49-39zm476 0c-15 15-31 28-49 39h49z"/></svg>
