<svg xmlns="http://www.w3.org/2000/svg" viewBox="0 0 512 512" style="height:512px;width:512px" fill="#FFFFFF"><path d="M296 20c-15 0-30 16-37 30-8 16-14 43-6 59l-14 6c-5-4-46-13-63-11-28 7-53 21-79 34l12 27c23-10 43-29 70-30 22-2 35 11 51 18-1 69-17 101-54 161-27 16-61 17-94 22l13 29c40-6 80-11 108-27 59-42 86-62 149-93 30 10 41 40 55 62l24-23c-12-27-44-62-79-84-23 7-44 17-64 30 7-25 7-45-2-70 19 7 37 11 54 11 28-21 43-47 63-71l-19-15c-16 18-26 37-49 56-17-1-33-8-49-16l-2-8c15-7 30-24 35-39 7-18 2-50-17-57l-6-1zM18 384v110h142V384H18zm334 0v110h142V384H352z"/></svg>
