<svg xmlns="http://www.w3.org/2000/svg" viewBox="0 0 512 512" style="height:512px;width:512px" fill="#FFFFFF"><path d="M273 47h-6c-61 4-100 36-124 84-22 47-28 110-17 173l2 1-1 6c-4 14-1 31 4 46s15 27 21 31l5 3-1 6c-1 22 7 39 19 51 11 12 26 17 36 17 11-1 16-4 22-10 5-6 10-16 17-28 12-25 29-58 68-88 63-47 82-123 70-185-7-32-21-59-42-79a102 102 0 0 0-73-28zm-7 54h4c26 1 52 13 69 36a9 9 0 1 1-14 11c-26-34-69-38-104-13-19 13-35 35-44 65 13-14 28-27 45-36 10-5 20-8 31-8l12 1c15 3 29 12 42 29a9 9 0 1 1-15 11c-11-14-21-21-31-23s-20 1-31 6c-22 11-43 35-59 55-2 18-2 40 2 63 12 1 23 4 31 10 9 7 13 18 14 28 2 21-10 43-30 51a9 9 0 0 1-7-17c11-4 20-20 19-33 0-6-2-11-7-15s-14-7-28-6a9 9 0 0 1-9-8c-16-93 12-157 54-187 17-13 37-19 56-20z"/></svg>
