<svg xmlns="http://www.w3.org/2000/svg" viewBox="0 0 512 512" style="height:512px;width:512px"><path d="M0 0h512v512H0z" fill="none"/><path d="M263 19c-11 0-22 7-31 18-7 9-12 22-14 37 12-5 23-8 34-9v18c-11 2-22 5-33 11 2 13 7 24 13 32 9 11 20 17 31 17s23-6 32-17c6-8 10-19 12-31-12-6-24-11-36-12V65c13 1 25 4 37 10-1-15-6-29-13-38-9-11-20-18-32-18zm-46 118c-11 4-19 11-23 18l-42 64-50-22c-30-16-62 24-31 42l94 44 38-50c19 34 17 68-11 101l-24-1c-40 1-68 11-73 29-5 17 11 37 39 55 55 30 95 39 157 43h3l92 29-22-54-180-59 5-18 72 24 72-24 6 18-48 15 94 32c34-20 53-43 48-61-6-22-46-32-99-28a86 86 0 0 1-10-99l37 48 94-44c31-18-1-58-30-42l-51 22-41-64c-5-7-13-14-23-18h-1c-11 15-27 25-46 25s-34-10-46-25zm-64 311-17 40 70-22c-17-4-35-10-53-18z"/></svg>
