<svg xmlns="http://www.w3.org/2000/svg" viewBox="0 0 512 512" style="height:512px;width:512px" fill="#FFFFFF"><path d="M26 18v141c16 55 35 105 69 141 30 31 71 53 134 58l-4-69-31 8-4-18 34-8-1-56c-25-2-52-6-86-12v5h-18v-32h18v6l89-10c3-10 9-18 17-25 11-9 27-13 44-12h8l7 1 1 7 2 31c19 1 41 4 70 8v-6h18v32h-18v-5c-27 5-49 9-69 11 1 20 2 41 5 62l11 3-4 18-5-1 12 56c41-10 70-28 93-52 34-36 54-86 70-141V18H325c2 10 4 20 4 30h-18c0-9-2-19-4-30H205c-2 11-4 21-4 30h-18l3-30zm162 50 11 2c7 3 12 9 17 14 10 10 19 19 40 19s30-9 40-19c5-5 10-11 17-14 8-3 17-3 27 2 6 3 10 9 10 15 0 10-8 17-17 17s-16-6-17-15l-8 7c-10 10-25 25-52 25s-42-15-52-25l-8-7c-1 9-8 15-17 15s-17-7-17-17c0-6 4-12 10-15a37 37 0 0 1 16-4zm85 85c0 23 0 40 2 49 2 6 4 8 7 10l6 2c-1-21-1-42-3-61h-12zm-18 8h-1c-8 7-13 17-13 31 0 92 5 160 10 224l51 9 35 6c-36-72-45-139-48-198l-16-5c-8-5-12-12-15-21-4-12-3-28-3-46zM137 419c-6 7-11 20-15 35l-8 40h33c0-21 5-38 24-39 72 12 149 12 208 31l-3-12c-2-10-8-17-16-20-10-4-29-6-61-11s-76-13-140-30c-8-3-17 1-22 6zm-33 33-16 7c-12 8-22 19-22 31l1 4h29c2-14 4-28 8-42zm58 42h191c-29-9-83-14-178-21-11 0-14 15-13 21z"/></svg>
