<svg xmlns="http://www.w3.org/2000/svg" viewBox="0 0 512 512" width="32" height="32" fill="#FFFFFF"><path d="M58 16c-15 1-27 14-33 29-19 41 8 37 46 45 8-23 16-42 24-58L71 19l-13-3zm53 26L89 95c10 4 21 9 31 15 12-12 24-21 36-29-14-14-28-28-45-39zm57 54c-11 6-22 15-33 26 12 10 22 24 32 42 8-13 17-24 26-33l-25-35zm105 6c-22 10-43 21-60 35l-1 1c-13 12-25 27-36 48l-6 19c22 66 65 126 120 172 33 37 79 67 129 89a400 400 0 0 1-264-248c-13 6-28 11-42 11 78 186 257 319 382 239-161-55-192-205-257-326 13-9 27-16 42-23l-7-17z"/></svg>
