<svg xmlns="http://www.w3.org/2000/svg" viewBox="0 0 512 512" style="height:512px;width:512px" fill="#FFFFFF"><path d="m312 48-51 2-16 44-5-41-8 2c-9 2-15 7-20 15a617 617 0 0 0-33 105l17 15 31-17 34 26 52-20 61 25-7 16-55-21-54 20-32-25-15 9 56 51 14-6 34 16 31-13 25 23-13 13-16-15-27 12-33-16 20 19 2 2 19 77-8-6h-53l-38-18-42 15-6-17 49-17 41 19h25l-71-52c-20 5-39 3-58-3-4 44-6 85-7 118 0 11 3 23 8 33 4 9 11 15 15 16l37 5 13-39 19 42a890 890 0 0 0 135-3c16-2 30-6 41-10-12-5-22-11-29-17-11-9-18-19-17-31v1c5-97 10-189 30-286v-1c5-18 18-40 36-56l-43-6-23 26-2-28-57-3h-6zm148 20-13 13c12 8 21 24 22 37 0 8-2 15-8 21-6 7-15 13-31 16l3 18c19-4 33-12 42-21 9-10 12-23 12-34-1-20-11-38-27-50zM25 72v6c0 7 2 18 6 30l14 35c11-6 21-11 29-19-5 13-10 25-19 37l14 21c10-5 20-13 29-26-3 16-8 31-18 42 6 9 13 17 21 25 8-10 15-21 20-35 4 18 3 35-5 49 8 7 16 14 24 19 6-14 9-30 9-49 9 23 11 42 9 59 21 9 41 12 62 6l4-1 69 50-6-22C214 226 112 142 25 72zm288 52 33 14 31-10 6 17-38 12-33-14-29 8-5-17zm107 236h-2l-11 2 3 17c13-2 20 0 25 3 4 3 6 6 6 12 0 9-7 23-23 33l19 8c15-11 22-26 22-41 0-11-5-21-14-27-7-5-15-7-25-7z"/></svg>
