<svg xmlns="http://www.w3.org/2000/svg" viewBox="0 0 512 512" style="height:512px;width:512px" fill="#FFFFFF"><path d="M332 66c-29 0-55 14-68 41 21 2 16 55 16 55-12 17-25 33-36 50 0 0-99 132-179 168-28 23-33 37-44 53-5 9 9 14 12 13 22-11 25-21 47-36 13-5 24-16 32-11 35 21 107 44 118 39 18-9-6-44 16-89 32-4 59-1 88-12 4 50 11 54 7 107l71 1 1-15-42-11c12-56 12-79 5-128-1-6-54-8-81-4 24-24 40-45 47-68 8 16 31 34 36 37 28 11 38 8 63 4 5-1 27 25 45 10 2-21 16-21-5-33-5-3-27 7-32 7-20-3-31-5-58-13-10-13-33-56-56-60 7-14 29-53 74-66a99 99 0 0 0-77-39zm82 47c-46 19-58 50-58 50l10 8s10-5 48-58zm23 160-4 11 15 2c-13 31-24 60-28 93l-1 8 5-6c21-26 32-56 45-86l12 9 5-11-21-9-32 67 24-70-20-8z"/></svg>
