<svg xmlns="http://www.w3.org/2000/svg" viewBox="0 0 512 512" style="height:512px;width:512px" fill="#FFFFFF"><path d="m177 19-17 7a409 409 0 0 1 6 17 604 604 0 0 1 19 1 430 430 0 0 0-8-25zm172 28-18 6a308 308 0 0 1 7 22h18l-7-28zM164 62c-36-1-73 2-102 9 31 63 21 127 11 186l24-10c20-7 46-13 73-16a243 243 0 0 1 86 4c4-44 4-89-20-130l-6-9c15-6 32-11 46-14a278 278 0 0 0-8-10c-27-7-65-10-104-10zm186 31a307 307 0 0 0-93 13c25 50 21 104 14 152l16-7c17-6 37-11 58-13 20-3 41-2 60 3 11 3 22 9 30 17 6-20 13-38 15-58 3-25 0-54-22-92-18-10-47-15-78-15zM35 243c-2 20-8 38-9 56 0 16 2 33 7 51 10 30 28 61 57 75l-48 55 13 12 57-65 21 3-43 50 13 12 53-60 23 1-41 47 13 12 51-58h31l-41 47 14 12 51-59h24l-41 47 14 12 51-59h25l-42 47 14 12 52-59c51-2 94-6 132-20l-3-18c-34-1-51-29-43-54l14-16c12-16 15-38 5-57l-16 8c7 14 5 27-3 39-4 6-10 11-16 15-108 19-295 46-373 16-4-15-7-32-7-47l26-16zm170 4a273 273 0 0 0-17 0l-4 97 18-1 4-96h-1zm161 7-18 2-6 74 18-3 6-73zm21 103c15 1 37 18 37 23s-21 28-35 28c-15 0-39-16-39-21-1-4 21-29 36-30h1zm0 11a14 14 0 1 0 0 28 14 14 0 0 0 0-28z"/></svg>
