<svg xmlns="http://www.w3.org/2000/svg" viewBox="0 0 512 512" style="height:512px;width:512px" fill="#FFFFFF"><path d="M201 23v50a25 25 0 1 1 0 33v19c12 7 22 12 32 15l15-30 8-16 23 46c10-3 20-8 32-15v-19a25 25 0 1 1 0-33V23l-55 55-55-55zm19 60c-4 0-7 3-7 7s3 7 7 7 7-3 7-7-3-7-7-7zm72 0c-4 0-7 3-7 7s3 7 7 7 7-3 7-7-3-7-7-7zm-36 51-21 42 21 21 21-21-21-42zm-230 5c2 9 8 18 17 26l16 12 9-38H26zm61 0-12 48a225 225 0 0 0 47 18l11-66H87zm65 0-12 70c16 4 31 6 43 7v-77h-31zm177 0v77c12-1 27-3 43-7l-12-70h-31zm50 0 11 66 33-12a225 225 0 0 0 14-6l-12-48h-46zm65 0 9 38 16-12c9-8 15-17 17-26h-42zm-243 7v103h110V146l-23 11 11 22-43 43-43-43 11-22-23-11zm18 121 14 11 3-10 1-1h-18zm56 0 1 1 3 10 14-11h-18zm-19 1-3 6a104 104 0 0 0 0 57l3 6 3-6a106 106 0 0 0 0-57l-3-6zm-62 3a54 54 0 0 0-2 8 120 120 0 0 0 0 53 52 52 0 0 0 3 8l36-27a134 134 0 0 1 0-15l-37-27zm124 0-37 27a142 142 0 0 1 0 15l37 28a54 54 0 0 0 2-9 120 120 0 0 0-2-61zm-83 62-16 12h21l-4-8a72 72 0 0 1-1-4zm42 0a72 72 0 0 1-1 4l-4 8h21l-16-12zm-76 30v70l24-16-23-54h-1zm21 0 34 80 34-80h-68zm88 0-23 54 24 16v-70h-1zm-78 70-31 21v3h41l-10-24zm48 0-10 24h41v-3l-31-21zm-111 38v18h174v-18H169z"/></svg>
