<svg xmlns="http://www.w3.org/2000/svg" viewBox="0 0 512 512" style="height:512px;width:512px"><path d="M0 0h512v512H0z" fill="none"/><path d="M282 23c48 72-19 146-64 59 27 145-65 167-75 75-73 65-59 147-20 211l46-26c-12-19-18-43-16-67 26 40 107 10 97-60 11 32 38 29 66-20-38 103 22 169 62 139 2 11-3 25-11 38l47 12c56-47 80-136-3-175 39 60-14 105-61 41-39-72 82-113-68-227zM174 48c-64 32-15 61-14 92 44-38-4-53 14-92zm74 269L75 417c3 18 9 34 19 48l92-44-79 60 11 10 75-43v-2a68 68 0 0 1 97-61c-2-13-7-27-15-39l-95 40 83-57-15-12zm59 58 3 21v4a67 67 0 0 1 15 68l91 24c5-6 8-12 12-19l-63-25 70 7 2-9-97-34 99 16-1-18-131-35zm-46 22a49 49 0 1 0 0 98 49 49 0 1 0 0-98zm-5 12c43 0 58 71 0 71 26-23 29-47 0-71zm0 10c-22 17-20 35 0 51-43 0-32-51 0-51z"/></svg>
