<svg xmlns="http://www.w3.org/2000/svg" viewBox="0 0 512 512" style="height:512px;width:512px" fill="#FFFFFF"><path d="M164 21c-5 0-9 2-12 4-15 10-22 42 11 70-1 23 41 27 24-7 16-44-5-67-23-67zm255 10c-6 0-13 3-17 8-23 36 2 53 26 15 10-15 1-23-9-23zm-42 63c-63 57-111 139-248 81 19 54-6 71-31 77-9-7-17-15-25-25l-20-24 3 31c5 61 28 107 65 136s88 42 149 42c95 0 182-61 214-148l5-14-15 2h-13l31-61-44 21c2-14 6-30 13-51l10-29-24 19c-26 20-53 44-80 63-9-18-8-54 10-120zM33 140c-9 0-18 11-16 23 7 29 36 21 29-8-2-11-7-15-13-15zm402 45c-7 24-8 43-4 58a35 35 0 0 0 30 28c-30 20-74 6-54-47-85 115-174 126-202 39-15 87-105 67-126-2 22 18 47 27 71 22 15-3 30-12 40-27 6-9 11-20 14-32 13 21 28 35 45 43 23 10 47 6 71-4 40-16 79-49 115-78zm-6 180c11 7 18 16 18 25 0 32-86 59-191 59S66 422 66 390c0-9 7-17 17-25-39 13-64 31-64 51 0 41 106 74 237 74s238-33 238-74c0-20-25-38-65-51z"/></svg>
