<svg xmlns="http://www.w3.org/2000/svg" viewBox="0 0 512 512" style="height:512px;width:512px" fill="#FFFFFF"><path d="M415 26c-45 0-114 110-124 148-8 37 72 93 85-22 4-35 56-120 44-125l-1-1h-4zm58 22c-13-1-35 93-56 121-70 91 26 107 46 75 21-36 49-170 11-196h-1zM130 203C85 203 26 323 20 363c-4 38 81 84 83-31 0-35 43-125 30-129h-3zm58 16c-12-1-25 96-43 125-60 99 37 105 53 71 17-38 32-175-9-196s-1 0-1 0zm116 11c-9 0-17 4-20 10-5 11 4 26 21 35 17 8 35 6 40-5 6-10-3-26-20-34l-3-2c-6-2-12-4-18-4zm78 32c-12 0-22 5-25 13-4 12 8 26 26 31 18 6 36 1 39-10 4-11-6-24-22-30l-4-1-14-3zM42 417c-11 0-19 5-22 12-4 11 7 26 25 33 17 6 35 2 39-9 5-11-6-26-24-33l-3-1-15-2zm82 24c-14 0-26 6-28 16-2 11 11 24 29 28 19 4 36-3 38-15 3-11-9-23-25-27l-4-1-10-1z"/></svg>
