<svg xmlns="http://www.w3.org/2000/svg" viewBox="0 0 512 512" style="height:512px;width:512px" fill="#FFFFFF"><path d="M169 21v62h174V21H169zm17 82-2 5c-2 5-11 13-23 20l-43 24c-15 8-30 16-42 25-11 8-21 18-21 31v228c0 21 15 35 31 44 15 9 31 13 42 13h256c11 0 27-4 43-13 15-9 30-23 30-44V208c0-13-10-23-21-31-12-9-27-17-42-25l-42-24c-13-7-22-15-24-20l-2-5H186zm11 18h118c6 9 16 16 27 23l44 24 39 23c10 8 14 14 14 17H73c0-3 4-9 14-17l39-23 44-24c11-7 21-14 27-23zm27 151h64v48h48v64h-48v48h-64v-48h-48v-64h48v-48z"/></svg>
