<svg xmlns="http://www.w3.org/2000/svg" height="15" width="19" viewBox="0 0 452 355" fill="#FFF"><path d="M226.868 205.153c-12.397.783-21.006 3.416-27.162 9.57-9.687 9.688-10.833 33.886-2.315 44.616 5.945 7.488 14.585 11.446 28.257 16.132l184.51 26.277-162.198-91.544c-4.271-3.242-12.09-5.62-21.092-5.051zM226 0C101.397 0 0 101.398 0 226c0 47.864 14.975 92.293 40.465 128.876l29.79-19.86c-17.602-25.12-28.823-49.519-32.696-79.947h39.244v-26.102H36.115c-.07-2.14-.115-.812-.115-2.968 0-45.378 12.73-84.655 39.15-117.283l24.73 25.502 20.058-20.057-25.464-26.235c32.505-33.165 67.845-49.792 117.51-52.094l.772 41.181h28.803l-.772-41.179c49.665 2.302 83.462 19.316 115.967 52.481l-27.779 27.006 20.443 21.215 27.046-26.274C402.884 142.892 416 180.624 416 226.004c0 2.154-.044.442-.115 2.579h-38.373v25.716h36.928c-3.872 30.428-15.093 55.597-32.694 80.717l29.79 19.86C437.025 318.294 452 273.866 452 226.002c0-124.602-101.397-226-226-226Z"/></svg>