<svg xmlns="http://www.w3.org/2000/svg" viewBox="0 0 512 512" width="32" height="32"><rect fill="#ff6400" x="0" y="0" rx="50" ry="50" width="512" height="512"/><path fill="#fff" d="m365 38-2 2-17 22-46 74-41 70c34-32 68-68 105-100 11-24 14-39 14-48-1-10-7-15-13-20zm83 30c-63 36-116 94-171 146 21-5 43-7 67-11 16-10 52-37 78-66 13-15 24-31 28-43 4-11 3-19-2-26zm-173 2-10 35c-7 31-18 68-23 96l43-74a3848 3848 0 0 1 17-29c-2-15-15-25-27-28zm84 150c-53 6-92 11-135 26-60 56-119 119-164 184 25 36 57 47 92 44 43-7 82-25 114-44l93-10 68-40c-3-4-8-10-17-14-12-5-32-6-62 10-20 10-38 10-50 2-13-8-19-23-20-38-1-16 3-32 12-47 9-14 23-26 42-30l1-1c24-3 44 14 59 25 10 9 1 31 5 43 2 4 5 8 12 11 6 3 15 6 27 7l6-71c-20-22-54-44-83-57z"/></svg>
