<svg xmlns="http://www.w3.org/2000/svg" viewBox="0 0 512 512" width="32" height="32"><rect fill="#854906" x="0" y="0" rx="50" ry="50" width="512" height="512"/><path fill="#fff" d="M274 22c-24 0-51 5-81 17 143 13 150 130 84 133-85 5-53-57-134-103 57 132-49 121-122-10 13 86 24 117 78 154 163 110-4 135-62 33 14 93 68 132 132 139-43 25-100 33-143 26 51 42 131 41 193 9-37 36-97 70-117 74h174c241-88 254-262 179-370-3 27-10 50-26 71C411 92 360 22 274 22zm3 185 141 52 2-10c5-21 21-35 36-31 14 4 20 24 15 45-6 21-22 35-36 31l-2-1-61 49 71 20-140 85 66-69-31-7-151 122 158-196-137-42 137 6-68-54z"/></svg>
