<svg xmlns="http://www.w3.org/2000/svg" viewBox="0 0 512 512" width="32" height="32"><rect fill="#854906" x="0" y="0" rx="50" ry="50" width="512" height="512"/><path fill="#fff" d="m146 6 88 129-61-40 35 63L39 48c40 71 82 135 129 192l136-136c-45-37-97-70-158-98zm347 10L373 62 158 276l14 13L383 78l78-30-29 78-212 212 14 13 214-214 45-121zm-86 73L147 349a51 51 0 0 1 0-58l-31-31a94 94 0 0 0 0 120l-64 64a22 22 0 0 0-23 5c-9 9-9 23 0 32 8 9 23 9 31 0 7-7 9-16 6-24l64-64c34 29 85 29 119 0l-31-31a51 51 0 0 1-57 0l259-260-13-13zm-2 117L268 343c55 48 118 90 193 127l-62-119 103 69-118-164 87 43c-21-34-43-64-66-93z"/></svg>
