<svg xmlns="http://www.w3.org/2000/svg" viewBox="0 0 512 512" width="32" height="32"><rect fill="#854906" x="0" y="0" rx="50" ry="50" width="512" height="512"/><path fill="#fff" d="M227 22a97 97 0 0 0-45 11v73a253 253 0 0 1 77 9V28c-7-4-19-6-32-6zm81 9c-12 0-23 2-30 6v85c38 15 65 42 59 79l-1 5-6 2c-17 5-35 10-52 13v26c26-1 51-3 77-7V43a87 87 0 0 0-47-12zM143 46a96 96 0 0 0-16 1c-16 3-32 9-41 16v73c19-16 47-25 77-29V49c-4-1-12-3-20-3zm259 4c-11 0-21 2-27 4v184c25-4 50-10 75-17l2-158a89 89 0 0 0-50-13zm-223 74c-54 1-102 20-98 67 16-4 31-6 45-7 35 0 64 10 87 28 35-3 70-10 106-20 0-42-74-69-140-68zm-49 79h-4c-17 0-36 4-58 11 6 53 27 106 59 143l20 20c29 9 69 13 110 12 4-56-8-109-36-143-21-27-51-43-91-43zm129 22-28 4a139 139 0 0 1 14 18h30-16v-22zm192 15c-65 18-131 26-196 26 17 35 24 78 21 122 43-2 85-8 118-16 27-33 48-77 57-132zm-50 150c-39 9-88 16-137 17-48 2-95-2-130-15v79c27 13 77 20 127 20 52 0 105-7 139-20l1-81z"/></svg>
