<svg xmlns="http://www.w3.org/2000/svg" viewBox="0 0 512 512" width="32" height="32"><rect fill="#854906" x="0" y="0" rx="50" ry="50" width="512" height="512"/><path fill="#fff" d="M373 25c-9 0-18 4-27 10a94 94 0 0 0-30 45c-7 20-7 39-2 54s13 25 25 29c11 4 25 1 37-9 13-9 24-25 31-44 6-20 6-39 2-55-5-15-14-25-25-29a32 32 0 0 0-11-1zM217 95c-21 0-43 2-65 7-25 30-44 60-53 98l38 18c8-31 21-54 43-77 23-8 45-6 68 2-74 65-51 120-80 226-43 18-85 21-123 0l-22 47c59 27 126 29 191 0 20-44 27-89 25-133 56 72 84 115 100 216h58l-10-42c-22-92-47-139-100-198 10-36 22-60 53-74 11 19 30 36 51 49l97 1 1-41-87-2-21-18c-15 9-32 12-48 7-18-6-31-22-37-41-3-12-5-24-4-38-25-4-50-7-75-7z"/></svg>
