<svg xmlns="http://www.w3.org/2000/svg" viewBox="0 0 512 512" width="32" height="32"><path fill="#fff" d="M256 19c-44 0-85 26-115 68-30 43-49 103-49 169s19 126 49 169c30 42 71 68 115 68s85-26 115-68c30-43 49-103 49-169s-19-126-49-169c-30-42-71-68-115-68zm-52 195 15 10-20 30 30 20-10 15-30-20-20 30-15-10 20-30-30-20 10-15 30 20 20-30zm104 0 20 30 30-20 10 15-30 20 20 30-15 10-20-30-30 20-10-15 30-20-20-30 15-10zm-52 153c26 0 52 9 70 27l-12 12-11-8-1 4-3 18c-3 5-7 11-14 13-9 2-16-2-22-7l-12-18-10-22c-17 3-32 10-43 20l-12-12c18-18 44-27 70-27zm4 18 7 14 9 14c3 2 4 3 5 2l1-2 2-12 1-12c-8-2-17-4-25-4z"/></svg>
