<svg xmlns="http://www.w3.org/2000/svg" viewBox="0 0 512 512" width="32" height="32" fill="#FFFFFF"><path d="M163 22c-7 27-10 53-8 78-15 8-26 21-26 38 1 52 15 78 28 103 14 25-14 41-26 12-9-23-15-42-33-68-9-13-22-17-36-16-12-18-22-36-30-56-7 29-8 53-1 72a39 39 0 0 0-9 42c12 34 39 63 56 77 31 27 49 57 59 94l-15 46 23-12-15 47 17-11c-1 11-5 20-10 29h220c-7-11-13-21-17-32l18 14-12-59 15 17 1-48c17-24 40-46 59-61l12-10c16-14 34-35 50-65 8-15 4-30-5-42 7-20 10-40 10-61l-39 43c-17-5-36-2-48 13-15 19-21 36-33 52-14 19-31 7-22-10 14-26 29-58 32-109 1-21-12-35-30-42 1-24-8-50-17-75-5 22-13 47-21 70-20 3-37 13-42 33-12 46-7 80-6 103 1 31-33 23-31 0 2-33 9-57-1-104-4-18-19-27-36-30-6-25-18-48-31-72zm157 92c24 1 46 25 30 69-21 56-73 39-69-22 2-32 21-47 39-47zm-142 4c18 0 38 17 40 49 4 56-53 64-65 16-11-44 6-64 25-65zM65 191c10 0 21 6 28 19 30 54-17 80-40 41-22-37-6-59 12-60zm371 23c22-1 43 24 20 51-36 42-81 30-45-35 6-11 16-16 25-16zm-183 52c98 0 156 96 62 114-29 5-42-11-62-11-18 0-38 16-60 13-99-18-51-116 60-116z"/></svg>
