<svg xmlns="http://www.w3.org/2000/svg" viewBox="0 0 512 512" width="32" height="32" fill="#FFFFFF"><path d="M54 30a24 24 0 0 0-1 0c-4 0-8 2-10 4-3 3-5 7-3 15 1 8 5 18 15 29 68 79 133 156 184 212l34 37c12-32 34-54 63-65l-37-33C243 178 167 113 87 45a61 61 0 0 0-29-15 30 30 0 0 0-4 0zm296 246c-30 8-53 30-63 66a687 687 0 0 0 35 32 70 70 0 0 1 60-63 274 274 0 0 0-32-35zm36 52c-11 1-21 6-30 14a55 55 0 0 0-16 46c5 37 23 66 49 81 23 14 52 18 84 7-24-4-47-30-48-50 10 12 24 24 38 31-10-22-9-45-11-64-1-13-4-25-11-35-8-10-21-20-45-28a31 31 0 0 0-10-2z"/></svg>
