<svg xmlns="http://www.w3.org/2000/svg" viewBox="0 0 512 512" width="32" height="32" fill="#FFFFFF"><path d="m494 61-83 78 79 133 4-4V61zM18 63v225l15 1 27-1 53-133-95-92zm389 104-7 5-7 4-10 7-12 7-6 4c-20-11-42-20-68-26-32 9-66 24-100 37 14 17 30 22 45 23 19 0 38-8 51-17l7-5 7 11 116 83 45-30-61-103zm-281 3L81 285l17 13 31-35 2-3h8c10 0 20 2 26 8 5 5 9 11 11 18h2c12-1 23 1 31 8s11 18 12 30v1c7 1 12 3 17 7 8 7 12 18 12 30l1 3 2 1 2-3 5-8 3-4 7 5 60 43c6-2 10-4 12-7s3-8 3-15l-72-51-7-5 5-7 7-9 7 5 81 57c6-2 10-4 12-7s3-8 3-14l-93-66-7-5 10-15 8 6 92 65c7-1 10-4 13-7 2-3 3-7 2-14l-110-80c-15 9-34 16-54 16-23-1-49-12-67-40a9 9 0 0 1 4-14l40-15-93-7zm13 108-47 54c1 6 3 11 6 13 3 3 7 4 14 4l47-54c-1-6-3-11-6-13-2-3-7-4-14-4zm44 26-54 60c1 7 3 11 6 14 3 2 7 4 14 4l54-61c-1-7-3-11-6-13-3-3-8-4-14-4zm29 38-48 54c1 6 4 11 6 13 3 3 8 4 14 4l48-54c-1-6-3-11-6-13-3-3-7-4-14-4zm25 39-39 44c1 7 3 11 6 14 3 2 7 4 14 4l39-44c-1-7-3-11-6-14-3-2-7-4-14-4zm35 5c2 4 3 9 3 15v4l-8 9 27 19c6-1 10-4 12-7s3-7 3-14l-37-26z"/></svg>
