<svg xmlns="http://www.w3.org/2000/svg" viewBox="0 0 512 512" width="32" height="32" fill="#FFFFFF"><path d="m149 18 19 97-1 1-73-18 17 74-1 3-92-9 73 52-2 8-64 40 63 39 1 4-46 37 56-8c3 8 7 16 12 23l-17 73 64-16-9 76 52-58 24 7 37 61 37-60 17-5 30 31-6-40 23-13 67 17-16-68c6-8 11-17 15-27l48 7-39-31 3-13 59-36-60-37-6-23 59-47-74 17-5-9 16-69-70 17-18-10 4-63-38 51-7-2-39-63-39 64-14 4-60-78zm115 89a160 160 0 1 1 1 320 160 160 0 0 1-1-320zm49 44c-5 0-10 3-17 10l-6 7-7-7c-7-7-13-9-19-9s-13 3-21 10l-6 5-6-6c-9-8-16-10-24-10l-16 6 41 74c16 9 47 13 69 2l39-73c-7-3-14-7-20-8a35 35 0 0 0-7-1zm-90 97c-18 12-32 34-38 66-5 32 3 53 18 67 16 14 38 22 61 22 24-1 47-9 62-23 16-15 24-36 19-66s-18-52-35-65a93 93 0 0 1-87-1z"/></svg>
