<svg xmlns="http://www.w3.org/2000/svg" viewBox="0 0 512 512" width="32" height="32" fill="#FFFFFF"><path d="M281 19c-25 0-60 33-86 69l12 11c9 10 18 22 26 35 12-18 23-34 36-47 19-20 39-34 60-39-13-17-28-28-48-29zm63 46h-2c-18 0-39 12-60 34-21 23-42 55-62 94-29 58-54 130-71 205 5 10 12 20 20 30 5-18 14-38 32-52l11-8 3 13a167 167 0 0 0 34 60c14-16 21-44 29-62l4-11 9 7a137 137 0 0 1 36 50c13-15 21-33 28-51l-15-36c-7-19-12-38-13-56s2-36 13-51c8-11 19-18 31-18s24 6 35 17c18 18 37 49 56 95 1-55-3-114-17-161-9-30-22-56-39-73a81 81 0 0 0-62-26zM139 83l-13 2c-48 12-69 50-78 97-4 22-5 45-5 67h4l6-17c5-13 11-24 20-31 8-8 21-10 34-6 26 10 40 36 45 66 2 15 3 31 3 48a883 883 0 0 1 67-158c-8-15-18-29-28-39-16-17-33-28-50-29h-5zm232 148c-5 0-10 3-16 11l-3 5 21 30 12-2-4-41-10-3zM42 267c-13 0-23 10-23 23s10 23 23 23 23-10 23-23-10-23-23-23zm346 26c-13 0-23 10-23 23s10 23 23 23c12 0 23-11 23-23s-11-23-23-23zm82 56c-13 0-23 10-23 23s10 23 23 23 23-10 23-23-10-23-23-23zm-99 33c-9 24-21 49-42 68l-12 11-3-17c0-6-5-17-11-28l-13-17c-6 19-15 45-35 62l-6 5-5-5a197 197 0 0 1-41-61 91 91 0 0 0-19 48l-1 20-14-14c-19-18-31-37-40-57l-12 49v18c0 6 2 11 2 11 4 5 20 11 42 14a500 500 0 0 0 239-26c5-2 14-16 1-36z"/></svg>
