<svg xmlns="http://www.w3.org/2000/svg" viewBox="0 0 512 512" width="32" height="32" fill="#FFFFFF"><path d="M255 21c-31 0-59 33-59 75 0 43 28 75 59 75s58-32 58-75-27-75-58-75zm-32 52h18v46h-18V73zm43 0h19v46h-19V73zm44 88a71 71 0 0 1-55 29c-21 0-40-10-54-27-11 4-20 12-28 23-9 13-17 31-22 52-4 20-7 42-9 64 8 4 15 10 20 17 7 9 11 20 14 31 4-11 8-21 15-30 5-7 11-13 19-17-5-10-7-21-7-33 0-34 22-64 53-64s54 30 54 64c0 11-3 22-7 31 9 4 17 10 22 18 7 9 12 20 15 32 4-11 8-22 15-31 4-6 10-12 16-16-1-23-3-46-8-67-4-21-11-40-21-53-8-11-18-19-32-23zM90 225c-16 0-32 15-34 38h24v18H56c4 21 18 35 34 35 15 0 30-14 34-35H99v-18h25c-3-23-18-38-34-38zm166 0c-16 0-31 15-34 38h24v18h-24c3 16 12 28 23 32l-17 3c-9 1-16 6-22 15-6 8-11 19-14 33-6 24-7 53-7 79h23v-51h19v103h62V392h19v51h21c0-26 0-56-5-80-3-13-8-25-14-33s-13-13-23-15h-1l-18-2c11-5 19-17 22-32h-25v-18h26c-3-23-19-38-35-38zm166 0c-16 0-31 15-34 38h24v18h-24c4 21 19 35 34 35 16 0 30-14 34-35h-25v-18h26c-3-23-19-38-35-38zm-294 91a49 49 0 0 1-38 19c-14 0-26-6-35-16-5 2-9 6-13 12-6 8-11 19-14 33-6 24-7 53-7 79h23v-51h19v103h62V392h18v51h23c0-26-1-56-6-80-3-13-7-25-13-33-5-7-11-12-19-14zm331 1c-9 11-22 18-37 18-14 0-27-7-36-17-7 2-12 6-16 13-6 8-11 19-14 33-6 24-7 53-7 79h23v-51h18v103h62V392h19v51h23c0-26-1-56-6-80-3-14-7-25-13-33-5-6-10-10-16-13z"/></svg>
