<svg xmlns="http://www.w3.org/2000/svg" viewBox="0 0 512 512" width="32" height="32" fill="#FFFFFF"><path d="m114 18-25 2a755 755 0 0 1 249 250c3-54-19-109-53-154-14 5-32 0-44-11a42 42 0 0 1-11-44c-36-27-76-43-116-43zm380 20-71 78 31 125-56 9-19 81 74 39-42 56 30 44-89-28 17-44-77-33 13-85-111 58-5 78-112-27-33 104h450V38zM261 59h-1c-4 0-7 1-9 4-6 6-6 19 4 28 9 10 22 10 28 4s6-19-4-28c-5-6-12-8-18-8zm-64 69L25 299c5 12 11 21 26 26l171-172-25-25zm158 11 10 85 27-85h-37zm-132 75-20 36 93 7-73-43z"/></svg>
