<svg xmlns="http://www.w3.org/2000/svg" viewBox="0 0 512 512" width="32" height="32" fill="#FFFFFF"><path d="M256 33c-21 0-39 20-39 47s18 47 39 47 39-20 39-47-18-47-39-47zM110 55l-17 8c15 23 32 47 50 69 20 25 40 45 53 52l5 2v40a371 371 0 0 0 66 3l-13-13c-5-1-10-5-13-9a29 29 0 0 1 0-33c3-4 8-8 15-8s12 4 15 8c3 5 5 11 5 17s-2 11-5 16l7 7c6 5 15 10 25 13l8-1v-40l5-2c13-7 33-27 53-52 18-22 35-46 50-69l-17-8c-47 46-94 90-146 90s-99-44-146-90zm29 180 13 61c101 9 107 9 208 0l13-61a530 530 0 0 1-234 0zm40 81 13 107h128l13-107c-67 6-87 6-154 0zm-42 125v20h238v-20H137zM16 478v18h480v-18H16z"/></svg>
