<svg xmlns="http://www.w3.org/2000/svg" viewBox="0 0 512 512" width="32" height="32" fill="#FFFFFF"><path d="M352 16c-13 0-27 4-37 14-15 15-46 45-49 79l-14 10 5 19c9-6 17-13 26-18v-5c0-26 29-57 44-72 6-6 16-9 25-9 10 0 20 3 26 9 15 15 44 46 44 72v5c8 7 31 15 31 26 0 30-7 89-15 152-8 61-16 126-16 174-22 5-48 6-70 6-23 0-68 1-69-8l-18 6c2 7 8 11 13 13 24 6 52 7 74 7 27 0 64 2 82-11 3-2 6-5 6-10 0-46 7-112 15-175s16-121 16-154c-4-18-17-28-32-37-3-34-34-64-49-79a53 53 0 0 0-38-14zM112 42l8 23 30-9c-12-7-25-15-38-14zm-16 5c-13 8-18 21-23 33l30-10zm256 14-7 1 36 20c-6-13-17-21-29-21zm-184 7-19 6c9 7 17 16 22 24l20-6c-5-9-13-17-23-24zm161 6a43 43 0 0 0-7 32h61v-2zM124 84c-3-1-5 0-7 1-8 2-14 8-17 18-3 9-3 22 1 35s11 23 19 29c9 6 17 8 24 5 8-2 14-8 17-18s3-22-1-35-11-23-19-29c-6-4-12-6-17-6zM84 95l-19 6c-3 11-6 22-5 32l20-6c0-12 1-23 4-32zm113 13-20 7c5 15 5 31 1 45a54 54 0 0 1-5 10c10-5 34-15 36-25zm19 2 9 30c3 7 0 14-4 19l-4 5c6 24 4 49-2 68 19 0 30 26 34 36l15-4c-11-60-22-116-30-144-4-5-12-8-18-10zm112 14c6 8 15 13 24 13 10 0 19-5 24-13zM84 144l-19 6 11 37c11 6 32 2 44 0a54 54 0 0 1-10-6c-11-8-21-21-26-37zm296 1a45 45 0 0 1-55 0l-25 4 54 27 70-21-1-1-43-9zm-99 14c-2 10-2 23-1 39l49-15zm-231 3c-4 5-10 12-9 19 9 28 33 79 59 135l133-42c-3-8-7-20-16-24l-77 24-3-1c-21-11-45-36-56-66l-6-1c-7-2-13-7-16-14zm375 11-143 43 6 44 135-42a550 550 0 0 0 2-45zm-224 2c-32 17-66 30-101 32 10 22 28 40 42 48l52-16c7-16 11-41 7-64zm219 62-129 40 7 45 115-41 7-44zm-153 44-160 51a6142 6142 0 0 1 7 14l156-49a6137 6137 0 0 1-3-16zm143 20-26 9 21 19a25655 25655 0 0 1 5-28zm-137 13-38 12 40 128c9-4 18-7 26-13l1-1c-11-34-20-79-29-126zm92 3-64 22 7 47 91-39zm-147 15-43 13 41 129 43-14zm-59 19-38 12c19 42 37 85 48 119h1c11 0 20-2 29-4zm241 15-77 33 32 26 39-20 6-39zm-87 48 7 28 18-8zm79 12-60 30a87 87 0 0 0 49-3c12-4 10-17 11-27z"/></svg>
