<svg xmlns="http://www.w3.org/2000/svg" viewBox="0 0 512 512" width="32" height="32" fill="#FFFFFF"><path d="M252 19a237 237 0 1 0 55 468c-11-3-21-7-31-12-59 4-116-18-158-58l89-30-116-2c-10-14-18-30-24-47l138-5-148-37c-3-18-3-36 0-54l164 47-154-91c7-19 17-37 30-54l154 109-118-146c19-15 40-27 64-35l95 159-45-169a205 205 0 0 1 75 9l29 152 16-132c22 13 42 29 57 50l-17 102 38-70a208 208 0 0 1 19 139c4 12 7 25 8 38A236 236 0 0 0 252 19zm89 223 9 7c12 12 16 30 13 48-3 17-12 35-27 50a93 93 0 0 1-50 26c-17 3-35-1-47-13-7-7-11-15-13-25l-2 22a115 115 0 1 0 117-115zm-29 12h-7c-13 3-27 10-39 22a75 75 0 0 0-22 40c-2 13 1 24 8 31s18 10 31 8 28-9 40-22c12-12 19-26 22-39 2-13-1-24-8-32a31 31 0 0 0-25-8zm-13 20c4 0 8 1 12 5 7 7 5 22-6 32-10 10-25 13-32 5-8-7-5-22 5-32 6-6 14-10 21-10z"/></svg>
