<svg xmlns="http://www.w3.org/2000/svg" viewBox="0 0 512 512" width="32" height="32" fill="#FFFFFF"><path d="M283 19c21 6 36 15 40 29l-4 2c-25 6-53 19-81 34 21-4 37-4 48 4-6 10-11 22-15 36-22 68-126-81-189-5-41 47 11 93-55 175 35-4 45-9 62-36 10-16 28-22 45-21-13 11-26 30-39 60 20-19 45-39 72-40 1 6-2 13-12 21-62 49-139 86-135 199 5-12 11-21 17-29 6 29 29 54 93 40-47-6-76-59-45-82 63-47 129 1 270-76l7-3c-2 20-12 40-22 57 14-10 25-20 34-29 2 26-12 55-26 78 44-31 61-58 63-78 10 36-1 95-25 123 78-39 107-77 110-190 2-60-66-61-56-102 12-50 7-84-8-108-19-49-80-59-149-59zM90 48c-35 0-45 35-34 69 17-52 70-44 111-34-33-25-59-35-77-35zm254 30c19 22 30 43 10 66-26-17-26-39-10-66zm75 49 12 1c-1 31-14 33-46 32 8-22 14-33 34-33zm-85 40c10 0 20 3 31 9 44 27 22 74-4 75-15 1 1-24-16-38-16-13-39 12-46-6-8-23 11-40 35-40zm60 247c-24 27-58 60-99 31 17 46 69 70 99-31z"/></svg>
