<svg xmlns="http://www.w3.org/2000/svg" viewBox="0 0 512 512" width="32" height="32" fill="#FFFFFF"><path d="M251 19c-24 3-45 31-45 67 0 20 6 37 16 49l13 15-19 4c-13 2-23 9-31 20-8 12-15 27-19 46-8 32-10 72-10 108h44l12 160c30 7 63 7 92 0l11-160h41c0-36 0-77-8-110-4-18-10-34-18-45s-18-18-33-20l-19-3 12-15c10-12 16-30 16-49 0-39-24-67-50-67h-5zm145 3v42h-42v51h42v41h50v-42h42V65h-42V22h-50zM53 63v30H22v37h31v30h36v-30h31V93H89V63H53zm40 137v21H71v27h22v22h26v-22h22v-27h-22v-21H93zm355 62v22h-22v26h22v22h26v-22h22v-26h-22v-22h-26zm-308 99v16h-15v18h15v15h18v-15h15v-18h-15v-15h-18zm230 46v15h-15v18h15v15h18v-15h15v-18h-15v-15h-18zM49 432v15H34v18h15v15h18v-15h15v-18H67v-15H49z"/></svg>
