<svg xmlns="http://www.w3.org/2000/svg" viewBox="0 0 512 512" width="32" height="32" fill="#FFFFFF"><path d="M300 99h-4c-52 2-102 61-147 67-59 9-93 6-99 59-1 15-8 22-13 38-6 6-17 10-17 19 0 10-1 21 6 30l15-10c-1-23 5-33 14-53 4 30-4 57-12 88 3 26 9 52 21 76h36c-21-23-34-50-23-76 9-1 22-3 29-10 14 33 18 57 40 86h41c-20-26-51-36-44-91 31 1 43 7 89-6l-3 36c7 24 24 42 38 61h39c-17-19-45-30-41-69l9-24c22 32 42 65 78 93h36c-22-23-64-48-63-93 23 4 30 9 41 6 9 23 19 44 37 56 21-23 25-36 26-67l23 15c6 4 19-6 18-13l-3-31c5-12 12-24 25-34 3-26-10-51-25-76-5-9-32-7-50-12-47-27-77-65-117-65zm73 35 8 15c11 21 17 31 46 45 6 3 11 9 13 14 2 6 2 12 1 17-3 11-16 22-25 20-33-11-52-25-59-43-8-18-2-37 8-54zm0 38c-2 9-2 16 0 23 5 10 17 22 46 32 5-6 8-13 1-17-19-10-36-22-47-38zm84 67c-3 9-1 17 5 24-8-2-18 0-20-8-2-6 7-11 15-16z"/></svg>
