<svg xmlns="http://www.w3.org/2000/svg" viewBox="0 0 512 512" width="32" height="32"><rect fill="#854906" x="0" y="0" rx="50" ry="50" width="512" height="512"/><path fill="#fff" d="M246 19C134 19 55 57 41 99c-26 78 73 118 217 93 78-14 182 16 123 80 151-69 23-120-129-103-88 11-160 11-171-37-8-36 77-72 167-78 90-5 184 38 171 65-17 36-127 8-120-25 2-11 19-16 42-15-31-10-73-11-80 13-5 18 28 43 73 54 54 14 115 5 115-46 0-45-93-81-203-81zm-11 196c-54 0-100 27-111 70-7 28 1 57 20 81 2 3-1 8-4 11-52 48-12 90 25 52-17 47 25 66 47 24-2 48 42 54 52 9 12 50 67 35 47-33-1-5 1-10 5-11 34-10 59-33 67-63 6-21 3-43-8-62l-56 13 39-39a173 173 0 0 0-118-52h-5zm-37 65a43 43 0 0 1 41 53 42 42 0 1 1-41-53zm3 40a13 13 0 1 0 0 26 13 13 0 0 0 0-26zm96 18a31 31 0 0 1 29 39 31 31 0 1 1-29-39zm-52 24c9 24 16 66-17 57-31-9-1-41 17-57z"/></svg>
