<svg xmlns="http://www.w3.org/2000/svg" viewBox="0 0 512 512" width="32" height="32"><path fill="#fff" d="M107 18C85 149 18 175 18 267c0 46 45 80 89 80l5-1 3-18a69 69 0 0 1-78-71c0-39 31-70 69-70h2c-17 9-29 28-29 49 0 28 20 52 46 56a536 536 0 0 1 51-100c-21-45-54-89-69-174zm297 0c-15 86-50 127-71 172l13 24 1 2c12-18 33-29 56-29h2c-18 9-29 28-29 49 0 31 24 56 54 56 16 0 31-8 41-20a70 70 0 0 1-77 55l3 19 7 1c45 0 87-32 87-76 0-88-64-123-87-253zM257 52c-19 74-47 124-72 167-30 52-54 94-54 161 0 32 16 59 39 79a137 137 0 0 0 172 2c23-19 37-44 37-74 0-64-23-108-52-163-24-45-51-98-70-172zm-2 213 19 2c-31 9-54 38-54 73 0 42 33 77 74 77 29 0 53-18 65-43-1 57-47 103-104 103s-104-48-104-106c0-59 47-106 104-106z"/></svg>
