<svg xmlns="http://www.w3.org/2000/svg" style="height:512px;width:512px" viewBox="0 0 512 512"><rect fill="#854906" x="0" y="0" rx="50" ry="50" width="512" height="512"/><path fill="#fff" d="M488 24c-25 12-46 19-63 22l41 41c3-17 10-38 22-63zm-86 25c-33 11-60 12-85 4l-9-3-2 10c-11 51-19 83-37 122l61 61c39-18 71-26 122-37l10-2-3-9c-8-25-7-52 4-85zm2 18a79 79 0 0 1-56 20h-5l-3 5c-19 37-38 75-55 98 17-37 27-71 36-117 25 6 53 4 83-6zm8 16L304 195c17-24 33-57 50-90 25-2 43-10 58-22zm17 17a98 98 0 0 0-22 58c-33 17-66 33-90 50zm16 8c-10 30-12 58-6 83-46 9-80 19-117 36 23-17 61-36 98-55l5-3v-5c0-26 8-42 20-56zm-192 83-13 13 68 68 13-13-8-7-53-53zm-7 42-43 44 32 32 44-43zm-67 45-13 13 55 55 13-13zm-15 37-41 41 33 33 41-41zm-65 42-12 13 55 55 13-12zm-14 37-67 67v33h33l67-67z"/></svg>
