<svg xmlns="http://www.w3.org/2000/svg" viewBox="0 0 512 512" width="32" height="32"><rect fill="#854906" x="0" y="0" rx="50" ry="50" width="512" height="512"/><path fill="#fff" d="M58 23c-2 29-2 56-2 80a57 57 0 0 1 78 53 57 57 0 0 1-75 54c13 123 49 166 89 192 20 13 43 22 64 33 17 10 34 22 47 40 14-18 30-30 48-40 21-11 43-20 64-33 39-26 75-69 88-192l-17 2c-31 0-57-25-57-56s26-57 57-57c8 0 15 2 21 5l-2-81a1019 1019 0 0 1-403 0zm232 31a38 38 0 0 1 7 0 55 55 0 0 1 25 13 46 46 0 0 1 14 25 35 35 0 0 1-4 25c-15-9-30-22-41-34-6-7-10-14-12-18l-1-6v-1a17 17 0 0 1 12-4zm-26 4v1a27 27 0 0 0 3 11c1 4 4 9 7 13l-2 3a182 182 0 0 1-40 34 35 35 0 0 1-5-24 46 46 0 0 1 15-25 56 56 0 0 1 22-13zm19 36c12 13 27 25 42 35v1c0 24-15 44-35 47v-19l15 6 5-13-27-10-26 10 4 13 15-6v19c-19-3-34-23-34-47a196 196 0 0 0 40-35l1-1zm-41 77a56 56 0 0 0 21 16l16 37c-11-5-23-7-34-8-15-2-28-2-34-2v14l32 1a148 148 0 0 1 23 5c-30 13-57 20-77 21a61 61 0 0 1-25-2c-6-3-7-4-7-8 0-20 22-61 85-74zm82 1a130 130 0 0 1 58 27l6 6c-7-4-15-6-23-7a175 175 0 0 0-66 1l5-12a55 55 0 0 0 20-15zm11 37h3a144 144 0 0 1 24 2c24 4 42 15 48 35 0 3-2 5-6 7-6 2-15 3-26 3-23-2-56-11-92-29l6-13a220 220 0 0 1 43-5zm-52 32a305 305 0 0 0 74 26c-3 15-6 29-10 41-31 14-70 24-115 7a79 79 0 0 0-7-24 160 160 0 0 0-15-25 297 297 0 0 0 73-25zm58 84a183 183 0 0 1-15 31c-17 27-37 42-60 48-39 11-85-2-128-21 20-3 37-7 51-12 19-7 33-17 39-31l4-11c41 14 79 7 109-4z"/></svg>
