<svg xmlns="http://www.w3.org/2000/svg" style="height:512px;width:512px" viewBox="0 0 512 512"><rect fill="#854906" x="0" y="0" rx="50" ry="50" width="512" height="512"/><path fill="#fff" d="m227 19-20 69c-51 15-93 52-115 99l-73 10 58 43a183 183 0 0 0 13 95l-34 64 63-16c10 11 21 22 34 31l4 72 45-48 10 4v51h19v-48c9 2 19 2 29 2v46h19v-47c16-2 32-6 47-12l49 31 1 2v26h19v-32l-2-3-13-15-8-35c19-15 36-35 48-57l67 3-49-51a183 183 0 0 0-10-108l1 1 45-59-73 12c-34-42-85-68-141-68l-33-62zm32 80c19 0 37 4 54 10l4 40 35-21a164 164 0 0 1 71 125l-48 16 45 29c-9 42-34 79-69 103V217c-7-58-80-60-101-7-36-45-100-20-93 37 3 29 29 50 55 67v108c-55-16-98-60-113-117l30-25-35-21c1-32 11-61 27-86l42 4-16-34a164 164 0 0 1 112-44zm73 179v133c-16 9-34 14-53 16v-79c10-20 35-43 53-70zm-101 48 29 20v83c-10 0-20-1-29-3V326z"/></svg>
