<svg xmlns="http://www.w3.org/2000/svg" style="height:512px;width:512px" viewBox="0 0 512 512"><rect fill="#854906" x="0" y="0" rx="50" ry="50" width="512" height="512"/><path fill="#fff" d="M495 14c-31 32-73 64-115 87v22l77 67c23-50 38-108 38-176zm-134 96c-34 17-67 27-95 28 0 68-141 159-252 213v51c101-33 193-78 256-131 59-48 93-103 91-161zm16 35c-6 29-19 57-39 83l3 28 84-12 23-37-71-62zm-55 103a577 577 0 0 1-124 95l60 44c26-14 51-29 74-47l-10-92zm87 17-66 10 6 51c22-18 42-39 60-61zm-229 88-28 14 16 62c24-9 48-20 72-32l-60-44zm-45 22c-38 18-79 33-121 47v52c43-9 89-21 136-38l-15-61z"/></svg>
