<svg xmlns="http://www.w3.org/2000/svg" viewBox="0 0 512 512" width="32" height="32"><rect fill="#854906" x="0" y="0" rx="50" ry="50" width="512" height="512"/><path fill="#fff" d="M257 21c-49 0-94 25-126 68-33 43-54 102-54 168s21 126 54 169c32 42 77 68 126 68 48 0 93-26 125-68 33-43 54-103 54-169s-21-125-54-168c-32-43-77-68-125-68zm-55 148c14 0 29 9 33 28 10 42-43 82-43 108-11-20-81-32-91-72-9-39 34-62 63-33 6-20 22-30 38-31zm106 0c16 0 33 11 39 31 29-29 72-6 63 33-10 40-79 52-91 72 0-26-53-66-43-108 4-18 18-28 32-28zm-50 182c35 0 69 7 99 22l7 3-2 7s-3 18-18 36-42 34-86 34c-43 0-70-17-85-34-15-18-19-36-19-36l-2-7 7-3 8-4h1c28-12 59-18 90-18zm-73 54 2 1c12 14 32 28 71 28s59-14 71-28l2-1H185z"/></svg>
