<svg xmlns="http://www.w3.org/2000/svg" style="height:512px;width:512px" viewBox="0 0 512 512"><rect fill="#854906" x="0" y="0" rx="50" ry="50" width="512" height="512"/><path fill="#fff" d="M18 18v133c38-48 89-72 130-69-7-20-10-42-10-64H18zm121 82c-37 2-87 29-121 84 25 57 59 116 95 156 31-11 73-31 113-55-20-45-16-92 2-129-13 1-25-1-36-5a98 98 0 0 0-31 47l-18-3c5-22 16-40 32-54-6-4-12-9-17-15-20 9-40 32-43 50l-19-3c5-26 26-50 50-62l-7-11zm186 3c-12 0-24 4-37 11-44 27-76 99-42 170l7 7-10 6c-47 28-95 51-131 63l12 18c30-11 62-26 95-42 63 30 49 114-7 159h29c10-17 16-43 37-50 8-2 5 30 9 50h46c-3-13-2-35 3-35 11-1 19 21 27 35h51c-104-112-96-156-76-228 28-18 54-37 77-55-13-55-35-86-57-99-12-7-23-10-33-10zm-5 175c-9 22-17 50-24 49-15-3-20-11-23-20l47-29zm-60 36c6 19 14 46 9 50-7 5-19-23-30-39l21-11zm49 21c5-1 20 68 37 101 11 20-25 15-29 4-12-35-14-105-8-105zm-21 17c9 0 9 23 6 36-4 14-8 37-11 34-12-10-4-70 5-70zm10 78c4 1 9 13 10 20 1 8-2 24-5 24-5 1-7-17-8-26 0-6-4-17 2-18h1z"/></svg>
