<svg xmlns="http://www.w3.org/2000/svg" style="height:512px;width:512px" viewBox="0 0 512 512"><rect fill="#854906" x="0" y="0" rx="50" ry="50" width="512" height="512"/><path fill="#fff" d="M257 19a52 52 0 0 0-38 87l-111 79h297l-111-79a52 52 0 0 0-37-87zm0 19a33 33 0 0 1 22 58l-23-17-22 16c-7-6-11-14-11-24 0-18 15-33 34-33zM96 204l4 12 65 233 2 6h179l2-6 65-233 4-12H96zm25 19h271l-60 214H181l-60-214zm146 16c29 48-77 71-60 134 11 25 29 42 50 42 49 0 74-53 61-100-5 24-25 35-35 23-24-31 37-57-16-99zM127 474v18h259v-18H127z"/></svg>
