<svg xmlns="http://www.w3.org/2000/svg" style="height:512px;width:512px" viewBox="0 0 512 512"><rect fill="#854906" x="0" y="0" rx="50" ry="50" width="512" height="512"/><path fill="#fff" d="M396 17h-5c-22 0-42 19-49 47l75 13-78 13c0 16 5 31 13 42l54 10-41 7 1 1-16 2c-16 2-26 10-35 21l-7 12 91 13-101 14a198 198 0 0 0-6 31l116 14-118 15-1 27 114 16-113 17h40l3 32 82 12-81 11 3 38 75 11-74 11 3 44h96l12-159h44c0-36-2-78-10-111-5-19-11-35-19-47-9-11-19-19-33-21l-15-3 10-12c10-13 17-31 17-51 0-37-22-66-47-70zm-53 5L17 46l305 22c3-18 10-34 21-46zm-23 62L17 106l312 23c-6-13-9-27-9-42v-3zm-2 61L17 167l270 20c3-9 8-18 13-25 5-6 11-12 18-17zm-38 63L17 227l256 19a303 303 0 0 1 7-38zm-9 58L17 285l253 18 1-37zm-1 61L17 345l297 22-1-17h-43v-23zm45 57L17 406l301 21-3-43zm4 60L17 466l305 22-3-44z"/></svg>
