<svg xmlns="http://www.w3.org/2000/svg" viewBox="0 0 512 512" width="32" height="32"><rect fill="#854906" x="0" y="0" rx="50" ry="50" width="512" height="512"/><path fill="#fff" d="M426 74c-9 0-17 7-19 15-8 4-15 10-19 19-5 11-7 24-7 39 0 25 3 54 5 79-2 15-5 29-9 41 2 18 3 37 0 56-5 38-36 61-70 68-31 6-65 0-87-20-35 23-77 29-113 17-42 16-74 39-87 61h321c103 0 138-108 112-225-6-41 1-71 14-89a19 19 0 0 0 25-18 19 19 0 1 0-37 3c-21 25-29 66-19 118-10 5-21 3-31-7-2-28-6-59-5-84 0-13 2-24 5-31 2-5 4-8 8-9a19 19 0 1 0 13-33zm-233 32h-6c-35 2-70 16-99 42-57 50-60 144-10 201 39 38 107 35 152-10 38-38 41-95 9-127a60 60 0 0 0-86 1c-6 6-9 16-9 27s4 22 10 29c3 4 10 9 18 11l14 1c13 0 26-9 26-27 0-16-10-24-22-26 8-1 15 0 21 4 8 4 14 13 15 21 4 17-5 37-25 44h-1c-10 4-22 3-33 1-11-3-21-9-28-17-9-11-14-26-14-41 0-14 4-29 14-40 32-33 84-31 113-1 40 40 35 109-9 153l-8 8c17 12 44 17 69 12 28-5 51-22 55-52 9-72-34-147-72-179-28-23-61-35-94-35z"/></svg>
