<svg xmlns="http://www.w3.org/2000/svg" style="height:512px;width:512px" viewBox="0 0 512 512"><rect fill="#854906" x="0" y="0" rx="50" ry="50" width="512" height="512"/><path fill="#fff" d="M256 16c-25 24-100 72-150 72v96c0 96 75 240 150 312 75-72 150-216 150-312V88c-50 0-125-48-150-72zm22 55c36 0 68 6 78 31 8 13 11 31 5 57-6 22 30 22 29 54-1 59-17 79-58 100 13-15 19-46 13-65-1 11-10 25-33 41 8-12 15-27 14-41l-18 15c5-9 11-19 12-30l-4 2c-74 40-109 15-142 40-16 12-1 40 24 43-34 7-46-6-49-21-3 4-7 9-9 15-2-59 38-79 71-104 5-5 7-8 6-11-14 0-27 11-38 21 7-16 14-26 21-32-9-1-19 3-24 11-9 14-14 17-33 19 35-43 8-67 29-92 33-40 88 38 100 3 2-8 4-14 8-19-6-5-15-5-26-2 15-8 30-15 43-18l2-1c-2-8-10-13-21-16zM177 87c9 0 23 5 40 18-22-5-49-9-58 18-6-18-1-36 18-36zm133 15c-8 15-8 26 5 35 11-12 5-23-5-35zm40 26c-11 0-14 6-18 17 17 1 23 0 24-16l-6-1zm-45 21c-13 0-23 9-19 21 4 10 16-3 25 3 9 8 0 21 8 20 14 0 25-25 2-39-6-3-11-5-16-5zm31 130c-15 53-43 41-52 16 22 16 40-2 52-16z"/></svg>
