<svg xmlns="http://www.w3.org/2000/svg" viewBox="0 0 512 512" style="height:512px;width:512px"><path d="M0 0h512v512H0z" fill="none"/><path d="M256 25c-62.1 0-111.2 19.1-145.3 57-32.8 36.4-52 91.2-53.4 165h53.9c.1-9.7.5-20.3 1.4-31.4l-.6-.7c-7.8-8.8-11-21.8-9-39.7.9-10.6 6.4-19.9 15-23.6a30 30 0 0 1 9.7-2.4 154.2 154.2 0 0 1 4.3-9.2 127 127 0 0 1 3-5.7V103h25.1c21.9-19.3 53-32 95.9-32s74 12.7 95.9 32H377v31.3a127 127 0 0 1 3 5.7 154.2 154.2 0 0 1 4.3 9.2c3.3.2 6.6 1 9.8 2.4 8.5 3.7 14 13 14.9 23.6 2 17.9-1.2 30.9-9 39.7l-.6.7c1 11 1.3 21.7 1.4 31.4h54c-1.6-73.8-20.7-128.6-53.5-165-34.1-37.9-83.2-57-145.3-57zm-103 96v14h206v-14H153zm0 32v62h14v-24.9c-.4-1.3 0-2.1 0-2.6V153h-14zm32 0v7.4a39 39 0 0 1 12-7.4h-12zm32.9 0a20 20 0 0 1 5 3.2c4 3.3 6 7.5 7.2 11.4a52 52 0 0 1 2.2 12l.2-.4 5-7.4 15 10-5 7.5-11.3 16.7a41.5 41.5 0 0 0 39.6 0l-11.3-16.7-5-7.5 15-10 5 7.4.2.4a52 52 0 0 1 2.2-12c1.2-3.9 3.3-8.1 7.1-11.4a20 20 0 0 1 5.1-3.2H218zm97 0a39 39 0 0 1 12.1 7.4V153h-12zm30.1 0v34.5c0 .5.4 1.3 0 2.6V215h14v-62h-14zm-213.7 14.2c-2.8 0-4.9.3-6.1.8-2.5 1.1-3.7 2.1-4.2 8.7v.3c-1.8 15.2.6 21.6 4.5 26 2.1 2.5 5.4 4.6 9.5 6.8v-42.3l-3.7-.3zm249.4 0-3.7.3v42.3c4-2.2 7.4-4.3 9.5-6.7 4-4.5 6.3-10.9 4.6-26v-.4c-.6-6.6-1.8-7.6-4.3-8.7-1.2-.5-3.3-.8-6.1-.8zM208 169c-5.6 0-11 4.2-15.6 9.6l21.5.2a29 29 0 0 0-1-5.8 7.2 7.2 0 0 0-1.7-3.2c-.5-.4-.9-.8-3.2-.8zm96 0c-2.3 0-2.7.4-3.2.8s-1.2 1.3-1.7 3.2a29 29 0 0 0-1 5.8l21.5-.2c-4.5-5.4-10-9.6-15.6-9.6zm-119 27.5V233h-30l42.4 31.8c34.7 26 86.7 22.9 117.2 0L357 233h-30v-36.5l-35.6.4 8.2 12.2-5.2 5.3C284.2 224.4 270 229 256 229s-28.2-4.5-38.4-14.6l-5.2-5.3 8.2-12.2-35.6-.4zm7 40.5h128v18H192v-18zm-58 2.8-13 64.7 6 70.5h120v-35.3l-8.8-8.8-28 14.1H167v-60.7l11.3-11.3-44.3-33.2zm244 0L333.7 273l11.3 11.3V345h-43.1l-28.1-14-8.8 8.7V375h120l6-70.5-13-64.7zm-59 43.9a120 120 0 0 1-126 0l-8 8V327h20.9l35.9-18 14.2 14.3 14.2-14.2 36 17.9H327v-35.3l-8-8zM128.3 393l7.9 94H215v-52.3L187.2 393h-58.8zm80.4 0 20 30h54.4l20-30h-94.4zm116 0L297 434.7V487h78.7l7.9-94h-58.8zM233 441v46h46v-46h-46z"/></svg>