<svg xmlns="http://www.w3.org/2000/svg" viewBox="0 0 512 512" style="height:512px;width:512px"><path d="M0 0h512v512H0z" fill="none"/><path d="M417.2 30.7c13 11.2 42.6 56.4 39.3 97.7-1 43.4-8 83.1-20.3 115.9L382.7 308c-11.5 28-20.4 60.4-33 84.7l-16-8.4c13.4-29.7 23.8-60 33.2-85.5l53.4-63.7c27.7-74.7 20.9-130.9 2.7-166-46.8-89.7-131.5 12.9-167.7 64.8l-96 132.6 16.1 19.2c14.9-20.4 67.2-89.8 104.8-133.7 27.6-32.2 72-85.8 102-69.4 8.8 4.7 9.3 9.8 14.4 27.3s5 106.2-14.2 145.1l-30.5 38.7-31.2 97.5 21.2 17.4 20-3.5 51.7-71.8-16.4 59.6-7.4 27.4-10 4.7 27 5.4 5.4-5.6c8.5-13.5 35.3-53.3 44.1-83.3l4.4-82.3c27.9-64 50-167.2-21.4-219.4-11-7-11-7-22.1-9zm-55.8 73C338.3 114 322 131 294.7 162.5c-44 51 0 0-104.4 133.4 8.9 3.5 21.7 9 21.7 9C257.6 255.5 325.5 108 396.6 110a21.8 21.8 0 0 0-6.6-8.4c-9.1-5.9-20-2-28.6 2.3zm-211.7 175L18 460.7V494h57.5L204 316.3l-32.3-11.5z"/></svg>