<svg xmlns="http://www.w3.org/2000/svg" viewBox="0 0 512 512" style="height:512px;width:512px" fill="#FFFFFF"><path d="m258.4 21.4-17.5 64a19.3 19.3 0 1 0 36.6 6v-.2a24 24 0 0 0-1.5-5.4l-17.6-64.4zm118.2 31.5-46.2 45.7a19.3 19.3 0 0 0 11.1 36.1 147.9 147.9 0 0 1 0 245h-2a19.3 19.3 0 0 0-9.9 35.7l46.7 46.3-18.5-70.6c6.4-4.8 12.6-10.1 18.5-16l6.6-6.6-.3-.3c3.2-3.7 6.3-7.4 9.2-11.2l71 18.6-51.6-52c6.5-15.2 10.8-31 12.6-47l70.6-19.4L424 238c-1.8-16-6-31.7-12.4-46.6l51.3-51.8-70.3 18.5a167.2 167.2 0 0 0-34.5-34.5l18.6-70.7zm-236.3 0 17.1 65c.2 1.8.7 3.5 1.3 5.1l.2.6a167.6 167.6 0 0 0-34.4 34.5L54 139.6l51.3 51.8C99 206.4 94.8 222.1 93 238l-70.6 19.2L93 276.5c1.8 16.1 6 32 12.5 47.1l-51.5 52 71-18.6a167.2 167.2 0 0 0 34 34c-1 2.2-1.6 4.7-1.7 7.2l-16.7 63.5 48.9-48.5a19.2 19.2 0 0 0-14.2-33.5 147.8 147.8 0 0 1 0-245l1.2.1a19.3 19.3 0 0 0 11.7-34.5L140.3 53zm127.4 89.8v49l33.6 19.4 46.2-25-79.8-43.4zm-18.7.4-79.7 43 46.3 24.9 33.4-19v-49zM160 202v114l46.3-24.9v-64l-46.3-25zm197 0-46.4 25.2V291l46.4 25.2v-114zm-98.4 6L225 227v64.4l33.6 19.1 33.4-19.1v-64.3L258.5 208zm43.1 99.3-34 19.7v47l78.3-42.4-44.4-24zm-86.2.1-44.5 24 78.1 42.1v-46.9l-33.6-19.2zm43 94.3a19.3 19.3 0 0 0-17.7 27l17.7 64.6 17.8-65a19 19 0 0 0 1.2-4.5v-.2l.2-2.7c0-10.6-8.6-19.2-19.2-19.2z"/></svg>
