<svg xmlns="http://www.w3.org/2000/svg" viewBox="0 0 512 512" style="height:512px;width:512px"><path d="M0 0h512v512H0z" fill="none"/><path d="M413.3 123c-46.5.3-107.2 20-157.5 20-56.8 0-124.1-23.7-171-19.2-23.4 2.3-40.6 10.2-52.2 31-11.7 20.8-17.3 56.3-11 113.2 8.6 77.9 73.2 119 128.7 99.4 11.5-4 31-25.3 49-46.1 9-10.5 18-20.7 27-28.8 9-8 18.2-14.6 29.5-14.6 11.4 0 20.5 6.6 29.6 14.6 9 8 18 18.3 27 28.8 18 20.8 37.5 42 49 46 55.5 19.7 119-21.6 128.7-99.5 7.1-57 1.7-92.5-10-113.3-11.6-20.7-29.3-28.6-53.2-30.9a129.2 129.2 0 0 0-13.6-.5zM135 181.8c22.3-.2 44.7 10.6 67 30.8-43.3 54.7-108.4 37-130.1 0 21-20.7 42-30.6 63-30.8zm234.6 0h2c21.1.2 42.2 10 63.2 30.8-21.7 37-86.8 54.7-130.2 0 21.6-19.6 43.3-30.3 65-30.8z"/></svg>