<svg xmlns="http://www.w3.org/2000/svg" viewBox="0 0 512 512" style="height:512px;width:512px" fill="#FFFFFF"><path d="m337.6 24.2-86 88 61.3-21.3 6.8 81.8-18.6 1.6c-8.5 8.3-17 16.9-25.5 25.4l25.8 25.8 25.2-25.1 2.4-17.6c29.2 3.8 57.9 7.9 87.1 11.5l-19.7 44.5 94.9-68c-38.3-8-76.6-15.6-114.9-23.3l3.7-18.3 22.9 4.6 16.2-57.3-53.3 19.6 3.3 28.1-18.6 2.2-3.8-33-9.2-69.2zm-106 104L183.1 211l66-42.7 24.4 7 25.6-25.5-.3-3-67.2-18.6zm117.5 76.1-19.2 19.2 4.5 11-49.3 73.6 90.3-55.2-17-47.4zM270 220.6c-2.7 43.5-37.2 77.4-79.1 77.3-54.3 0-98 45.8-98 101.6A81.4 81.4 0 0 1 20.7 482v13.1h25.9a101.7 101.7 0 0 0 64.8-95.6c0-46.1 35.6-82.9 79.4-82.9a99.1 99.1 0 0 0 95.7-79.5L270 220.6z"/></svg>
