<svg xmlns="http://www.w3.org/2000/svg" viewBox="0 0 512 512" style="height:512px;width:512px" fill="#FFFFFF"><path d="M260.7 29.4c-25.7.2-51.1 2.2-73.1 5.3l10.2 37.2c41.9-8.6 85.7-5.8 129.7.1l7.8-36c-23-4.8-48.9-6.6-74.6-6.6zm-88.4 16.3a292.7 292.7 0 0 0-30 9.3c-8.2 3-13.3 9.6-19.1 18.2a257.7 257.7 0 0 0-17.9 32 1046.8 1046.8 0 0 0-36.9 88.6 2654.8 2654.8 0 0 0-29.2 83c6-4.8 13.6-7.9 21.6-7.7 7-20.4 15.3-44.5 24.5-69 11.6-31.2 24.4-62.8 36.2-87a237.7 237.7 0 0 1 16.6-29.8A46 46 0 0 1 148.5 72c9.1-3.4 18.6-6.3 28.4-8.7zM350.5 51l-3.9 17.8c11.3 4 22 8.8 32 14.5a54 54 0 0 1 14.2 17 290 290 0 0 1 17.7 36.4 1090 1090 0 0 1 35.3 101.5l9.1 30.7a36.2 36.2 0 0 1 22 12c-4.3-15.3-8.9-31.5-13.9-47.9a1074.7 1074.7 0 0 0-35.9-103.3A305 305 0 0 0 408.2 91a63 63 0 0 0-20.6-23.3A224.1 224.1 0 0 0 350.5 51zm-32.2 155.6L192 207.7l-.5.1c-30.3 3.2-53.4 30.5-57.7 66l18 .8c3.8-27.8 21.4-46.7 41.5-48.9l123.3-1.1c15.6 2.6 32.3 18.6 36.6 48.9l18-.8c-4.9-37.5-26.5-62-52.2-66zm131.9 80.1c-26.5 1.4-51.7 2.8-76 3.9 15.8 61 15.1 122.6 15 183.2 29.1-2.8 59-6.1 90-9.8.6-.1 2.2-.7 4.5-5.1a68.4 68.4 0 0 0 5.9-20.2 259 259 0 0 0 .7-65.2c-2.6-23.6-8.1-47-15.7-63.4a58.5 58.5 0 0 0-12.3-18.4c-4.3-3.8-7.9-5.2-12.1-5zm-390.9.4c-3.4.1-6.4 1.5-10 4.8-4 3.7-8.2 10.1-12 18.3a228 228 0 0 0-15.2 64.2 300 300 0 0 0-.4 66.5c1.2 9 3 16.5 5 21 1.9 4.6 3.5 4.9 2.3 4.7 30.4 5.1 60 8.8 89.2 11.4a572.4 572.4 0 0 1 11.9-186.4 2098 2098 0 0 1-69.3-4.4l-1.5-.1zm296.5 4.3c-70.4 3-134.8 4.1-207.5 1.1a552 552 0 0 0-11.9 187c77.8 5.6 153.6 3.1 234.8-4.1.1-62.6.8-124.4-15.4-184z"/></svg>
