<svg xmlns="http://www.w3.org/2000/svg" viewBox="0 0 512 512" width="32" height="32" fill="#FFFFFF"><path d="m314 29.7-11.4 11.4 32.5 32.5 11.4-11.4L314 29.7zm38.3 2.8c-3.5 0-6.8 0-9.6.4h-.1l61.9 61.8L435.3 64a133.7 133.7 0 0 0-83-31.4zM301.2 65l-236 236.2 43.7 43.7 4.9-4.9 6.4-6.3 58 58-11.3 11.3 43.8 43.8 236.2-236.1L301.2 65.1zm58.1 9.9-11.4 11.4 77.7 77.7 11.4-11.4L359.3 75zm88.8 1.7-30.8 30.8 61.9 62v-.2c.8-7.6.5-17.9-1.5-29.1a134.3 134.3 0 0 0-29.6-63.5zm1.7 88.8-11.4 11.4 32.5 32.5 11.4-11.4-32.5-32.5zm-227.7 11.3 33.9 33.9 33.9-33.9 45.3 45.3-33.9 33.9 33.9 33.9-45.3 45.3-33.9-33.9-33.9 33.9-45.3-45.3 33.9-33.9-33.9-33.9 45.3-45.3zM40.9 302.6 29.7 314l55.1 55.1 11.4-11.3-55.3-55.2zm-8 40v.1A132 132 0 0 0 70 441.9a132.3 132.3 0 0 0 99.2 37.3h.2L130 439.8l-9.9 9.9-58-57.9 10-9.9-39.3-39.3zm87.3 16.6-32.5 32.6 32.5 32.5 32.6-32.5-32.6-32.6zm34 56.6-11.4 11.3 55.2 55.2 11.4-11.3-55.2-55.2z"/></svg>
