<svg xmlns="http://www.w3.org/2000/svg" viewBox="0 0 512 512" style="height:512px;width:512px" fill="#FFFFFF"><path d="M257.5 23.4a119.7 119.7 0 0 0-120.2 119.3 118 118 0 0 0 12.3 52.6h-.1l2 3.5.6 1.2 45.3 84.2-89.5-47.6v214.5l61.3-32.6 77.4-162.1c-17.1-32.8-48.5-96.2-48.5-120 0-32.6 26.6-59 59.4-59a59.2 59.2 0 0 1 59.4 59c0 30.7-52 126.7-58.2 138.1L197 403.8l.4-.3-2.9 5.4-39.9 83.6h210.8l-47.9-89 89.6 47.6V236.6l-61.7 32.8-96.6 166.7h42v18.6h-74.4l8.1-14 122.7-211.6 15.9-29.5 2.3-4.3a118.1 118.1 0 0 0 12.2-52.6c0-65.9-53.8-119.3-120.1-119.3zm0 72.8a39.6 39.6 0 1 0 0 79.1 39.6 39.6 0 1 0 0-79.1z"/></svg>
