<svg xmlns="http://www.w3.org/2000/svg" viewBox="0 0 512 512" style="height:512px;width:512px"><path d="M0 0h512v512H0z" fill="none"/><path d="M400 16c-21.3 9.7-58.2 17.3-73 48.2-22.4 2-72.8 10.7-122.3 40.3-58.1 34.7-116 97.4-131.8 213.7l-.5 3.5-2.7 2.3c-31 25-40.7 39-44.5 61.1-3.5 21-.7 51.5-.3 101.9h303.5c3.4-16.9 10.4-29.2 12.4-41.6 2.4-14.1.2-29.9-20.8-58.5-43-58.7-46.8-129.5-12.9-171.3-8.7-2.8-15-6.9-19.5-12.5-6-8-7.4-17-8.5-26l17.8-2.3c1.1 8.5 2.4 13.9 5 17.3 2.6 3.3 7.3 6.4 19.5 8.4v.1l.2-.1 6 9.4c20 31.4 42.8 51.3 73.3 54.4l6.5.7 1.4 6.4c2.7 12.8 8.6 19.1 15.1 22.3a25.2 25.2 0 0 0 20.5.2c9.3-4.1 14.5-11.4 16.7-22.8 2.1-11 .5-25.8-5.1-42-33.6-38.3-44.5-87.3-64-128.8-6-10-12.4-18.6-20.3-24.9A177.6 177.6 0 0 1 400 16zM214 35c-34.4 0-68 8-118 23.6 31.1 9.9 70.4 18.9 86 39A318.2 318.2 0 0 1 303.6 49c-35.8-9.5-63-14.1-89.5-14zm-56.8 61.7h-3.4c-30.4.4-63.1 9.8-96.7 31.3 27.2 3.7 54.7 3.7 72.6 15.4 15.9-18 33.1-32.6 50.7-44.7-7.6-1.2-15.3-2-23.2-2zM368 128a13.2 13.2 0 0 1 13.2 13.2 13.2 13.2 0 0 1-13.2 13.2 13.2 13.2 0 0 1-13.2-13.2A13.2 13.2 0 0 1 368 128zm-239 16c-36.3 1.6-68.8 6.6-104.7 24.8 33.3 7.1 51 13.5 65 33.9 11.6-22.6 25.1-42 39.8-58.6zm-54.5 57.5c-21 .2-37.9 11.6-58.5 22.5 27.9 0 46 3.9 58.7 12 4.3-11.6 9.2-22.6 14.4-32.9-5.1-1.2-10-1.7-14.6-1.6zm-.6 36.8c-18 5.8-35.5 7.1-54.2 22.3 17.6 4.6 34.8 9.6 41.4 22 3.5-15.8 7.8-30.5 12.8-44.3zm370.1 8.5c1.7 0 3.3 0 4.8.2l-1.6 18c-4-.4-5.5.4-5.6.4 0 0-1 .7-.6 6l-18 1.3c-.6-8.4 1.3-16.2 7-21 4.2-3.6 9.2-4.7 14-4.9zm-391.8 44A76.1 76.1 0 0 0 17.6 303c12.1 6.8 12.3 23.4 8.9 37.6 7.3-9 16.9-18.3 29.2-28.5 1-7 2.1-13.9 3.5-20.5-2.1-.7-4.5-1-7-1z"/></svg>