<svg xmlns="http://www.w3.org/2000/svg" viewBox="0 0 512 512" width="32" height="32" fill="#FFFFFF"><path d="M250.3 20.2c-19.9.4-40.1 3.1-59.8 7.9C138 40.7 88.7 67.9 57.3 106.5c-19.6 24.1-24.2 54.9-22.5 85.7 1 20.1 4.8 40.4 9 59.6-4 33.4-.5 66.9 13.7 95.7 22.3 45.5 85.6 73 142.7 91.5 24.7 8 48.5 14.1 67.5 18.4l-.2-4.6c0-4.7.6-9.2 1.6-13.5a760 760 0 0 1-63.3-17.4c-55.6-18-114.8-47.1-132.2-82.4C70 332 67.2 324 65 315.6a128 128 0 0 0 41.7 42.2c26.5 16.8 59.1 25.9 94.1 30.2 59.7 7.4 126.7.7 182.2-8.1-1-4.2-1.5-8.6-1.5-13.1l.2-4.9c-55 8.7-121.2 15.3-178.7 8.2-33.2-4.1-63.3-12.7-86.6-27.5a106.3 106.3 0 0 1-48.1-65.2c-2-8.5-4.2-17.4-6.2-26.5a226.6 226.6 0 0 1 61.5-127.3 155.2 155.2 0 0 1 46.8-30.7 388.8 388.8 0 0 0-7.2 53.9c-2.5 43.6 4.6 88.1 37.7 112.5 31.7 23.5 78.1 26 120.6 15.1 42.5-10.8 82-35.2 98.8-70.9 13.7-29 7.4-63.8-8.1-94.1C396.7 79 371.8 52.4 344 39a203.7 203.7 0 0 0-87.5-18.8h-6.2zm6.1 18c28.7.2 56.3 5.6 79.8 17 22.9 11 46.1 35.2 59.9 62.3 13.9 27.2 18.3 56.5 8 78.4-13.4 28.4-48.4 51.2-87.1 61.1-38.7 9.9-80.2 6.5-105.5-12.1-25.5-18.8-32.6-56.1-30.3-97.1a380 380 0 0 1 9.3-62.3c9.3-2.8 19-5 28.6-6.4-1.9 8.8-3.8 18.2-5.3 28-3.2 20.7-5 42.7-2.8 62.7s8.3 38.5 22.7 50.3c20.4 16.6 50.9 19.5 78.9 13.8 28-5.8 54.7-20.5 64.9-45 9.9-23.7.7-49.6-14.7-71a147 147 0 0 0-59.1-48 157 157 0 0 0-61.1-11.3c3-10.7 5-17.1 6-20.2l7.8-.1zm-27 1.5c-1.6 5.2-3.5 12-5.6 20-9.5 1-18.9 2.7-28.2 5l5.9-20.5c9.3-2 18.6-3.5 27.9-4.5zm-48.2 9.6c-2 6.8-3.9 14-5.8 21.7-24.5 9-46.9 22.6-64.4 39.8a237.7 237.7 0 0 0-57 95.1c-.5-4.9-1-9.8-1.2-14.6-1.5-28.5 2.8-54.2 18.5-73.4 25.5-31.4 65.9-55.5 109.9-68.6zM245.1 77c18.3 0 36 3 51.6 9.5a131.7 131.7 0 0 1 51.5 42c13.4 18.4 19.1 37.9 12.7 53.4-6.8 16.3-27.8 29.4-51.9 34.3-24.1 5-50 1.3-63.9-10.1-9-7.3-14.3-20.8-16.2-38.3-1.9-17.4-.4-38.2 2.7-57.9a462 462 0 0 1 6.4-32.6l7.1-.3zm203.1 252a105 105 0 0 1 12.6 69.8 38.9 38.9 0 0 0-12.6-69.8zm-20.9.4a39 39 0 0 0 11.2 76.4l2.3-.1c7.4-25.1 4.6-49.6-13.5-76.3zm-108.5 84.8a39 39 0 0 0-16.3 70.8c13.2-23.5 22.9-45.4 16.3-70.8zm18.8 1.9c5.1 28.1-5.6 52.9-18.1 75.4a39 39 0 0 0 18.1-75.4z"/></svg>
