<svg xmlns="http://www.w3.org/2000/svg" viewBox="0 0 512 512" style="height:512px;width:512px" fill="#FFFFFF"><path d="M262 16.3c-44.2 0-84.1 5.3-113.8 14.3A125.4 125.4 0 0 0 111.8 47c-9.2 6.6-16.2 15.3-16.2 26 0 13.3 1 26.3 3 39a28.2 28.2 0 0 1 14.9-2.3 43 43 0 0 1 28.7 19.2c7.2 10 12 22.7 13.4 36.3 1.4 13.7-1 26.1-7 35.6a34 34 0 0 1-10 10C169 252 212.6 278 262 278c48.7 0 92-25.5 122.3-66-5-2.5-9.2-6.5-12.2-11.3-6-9.5-8.4-21.9-7-35.6a75.5 75.5 0 0 1 13.4-36.3 43 43 0 0 1 30.9-19.4 27.7 27.7 0 0 1 15.7 4 252 252 0 0 0 3.3-40.5c0-10.7-7-19.4-16.3-26-9.2-6.6-21.5-12-36.3-16.4-29.7-9-69.6-14.3-113.8-14.3zM152.7 48.7c-4.5 3.7-7 7.8-7 12 0 19.3 52 35 116.1 35S378 80 378 60.7c0-4.2-2.5-8.3-7-12 13.2 4 23.7 8.8 30.2 13.5 6.6 4.7 8.4 8.5 8.4 10.8 0 2.4-1.8 6.1-8.4 10.9-6.6 4.7-17.4 9.6-31 13.7A393.7 393.7 0 0 1 262 111c-42.6 0-81.1-5.3-108.3-13.5a111 111 0 0 1-31-13.7c-6.5-4.8-8.3-8.5-8.3-10.9 0-2.3 1.8-6 8.4-10.8 6.5-4.6 17-9.4 30-13.5zm-43.3 79.4-1.5.1c-2.9.4-5.1 2.2-7.5 5.9a38.6 38.6 0 0 0-4.2 23.7c.8 8.3 3.5 16.2 7.1 22.7a18 18 0 0 1 33.8-6c.2-2.4 0-4.8-.2-7.4a57.8 57.8 0 0 0-10-27.3c-5.1-7.1-11.2-11-15.8-11.6h-1.7zm301.5 0c-.5 0-1 0-1.6.2-4.6.5-10.7 4.4-15.8 11.5a57.9 57.9 0 0 0-10.3 31.9 18 18 0 0 1 32.2 10.9v.7c4.5-7 7.8-16 8.8-25.5 1-10.3-1.1-18.8-4.3-23.7-2.3-3.7-4.5-5.5-7.5-5.9H411zM262.1 140c11.9 0 22.1 7 28.8 16.6 6.6 9.5 10.4 22 10.4 35.5 0 13.6-3.8 26-10.4 35.6A35.7 35.7 0 0 1 262 244a36 36 0 0 1-28.7-16.5A62.2 62.2 0 0 1 223 192c0-13.5 3.7-26 10.4-35.5a35.7 35.7 0 0 1 28.7-16.6zm0 18.7c-4.6 0-9.3 2.6-13.4 8.6a48.7 48.7 0 0 0-5.3 37.8 18 18 0 0 1 35.3 6.2c2.4-5.3 3.9-12 3.9-19.2 0-10-3-19-7-24.8-4.2-6-8.9-8.6-13.5-8.6zM223 287.3l-4 17.9 1.5.5a136 136 0 0 0 40.2 5.4c15.7 0 30-2.1 39.7-5.3-1.5-5.4-3-11-4.3-16.6a156.9 156.9 0 0 1-73-1.9zm-8.7 36c-11.7 42.7-26.9 77.2-44.6 95.4.5 1.1 1.6 2.7 4.1 4.7a64.1 64.1 0 0 0 18.7 9.4c16.9 5.8 41.2 9.6 68.2 9.6 26.9 0 51.3-3.8 68.1-9.6 8.4-2.9 15-6.3 18.7-9.4 3.2-2.6 4.2-4.4 4.4-5.6-17.2-18.3-33.2-52.2-46.2-94a152 152 0 0 1-45 6 150 150 0 0 1-46-6.4h-.4zm152.6 106.3c-2 3.1-4.6 6-7.6 8.3a79.5 79.5 0 0 1-24.4 12.6 235.6 235.6 0 0 1-74.2 10.6c-28.7 0-54.6-3.9-74.2-10.6-9.8-3.4-18-7.4-24.5-12.6-2.9-2.3-5.4-5-7.4-8.1l-1.2.5c-11.8 4.8-21 11.4-23.5 21.5-4.5 19 58.9 38.4 131.9 38.4S394 472.9 394 451.8c0-8.6-11.4-13.3-27.3-22.2z"/></svg>
