<svg xmlns="http://www.w3.org/2000/svg" viewBox="0 0 512 512" style="height:512px;width:512px" fill="#FFFFFF"><path d="M257.3 23.4A75.6 75.6 0 0 0 197 144.2c-34.4 29.6-75 52.5-118 72.9h356.3c-44.2-20.3-85.1-43.2-118.7-72a75.6 75.6 0 0 0-59.4-121.8zm0 18.7a56.6 56.6 0 0 1 45.5 90.6c-18-17.5-33.4-37-45.5-59.1-13 22-28.7 41-46.3 58A56.6 56.6 0 0 1 257.3 42zm-104 193.5v203.8h208V235.6h-208zm103.4 18h2.9a86.3 86.3 0 0 1 72.3 129.2 86.3 86.3 0 0 1-117.7 31.6 86.3 86.3 0 0 1 42.5-160.8zm9.3 19.2v36.7h51.7a67.3 67.3 0 0 0-51.7-36.7zm-18.7.2a67.3 67.3 0 0 0-50.4 36.5h50.4V273zm-56.6 55.2a67.3 67.3 0 0 0 1 28h55.6v-28h-56.6zm75.3 0v28h56.7a67.2 67.2 0 0 0 1.1-28H266zm-66.4 46.6a67.4 67.4 0 0 0 47.7 31.7v-31.7h-47.7zm66.4 0v31.9a67.2 67.2 0 0 0 48.9-31.9H266zm-144.5 83.3v38.6H393V458H121.5z"/></svg>
