<svg xmlns="http://www.w3.org/2000/svg" viewBox="0 0 512 512" width="32" height="32" fill="#FFFFFF"><path d="M108.7 35a81.8 81.8 0 0 0-47 15.9 52.8 52.8 0 0 0-21.2 34.4l.6-.4a30.9 30.9 0 1 0 59.5 17l.1-.4c.5-2 .8-4 1-5.8v-1.9l-.3-4.5c-1.4-8-6.8-12.1-12.6-13.7-8.5-2.3-19 .6-23.8 18.1h-.4C62 74 72.2 63.8 83.9 60.6c2.5-.6 5-1 7.7-.9 9 .1 18.4 4.9 24.6 17.1l.2.6c5.2 15.2 2.1 43.3-3.3 57.6-7.3 18.7-22.4 40.5-47.7 65.5C7 258.3 4 329.8 40 388.8s112 104.8 214.4 104.8c102.3 0 178.5-45.8 214.5-104.8 35.9-58.8 33-130.2-25-187.8l-.4-.4c-25.4-25-40.4-46.8-47.7-65.5-5.3-16.5-9.1-43-2.7-57.6l.2-.4v-.2c6.2-12.2 15.6-17 24.6-17a25 25 0 0 1 7.7.9c11.7 3 21.9 13.3 19.3 32.8l-.4.1c-4.7-17.5-15.2-20.4-23.8-18.1a16.7 16.7 0 0 0-11 8.6 31 31 0 1 0 57.8-2.7A53.2 53.2 0 0 0 447.3 51a81.6 81.6 0 0 0-50-15.8A57.7 57.7 0 0 0 364 45.6a39.4 39.4 0 0 0-8.8 9.4c-69.5 35.5-139 38.7-208.4-7.8l-2-1.6a57.7 57.7 0 0 0-36.1-10.5zm52.7 53.2c6.4 2.6 12.7 5 19 7v313c-30.7-8.2-57.9-22-77.3-41.2a93 93 0 0 1-29-63.6c-.8-25 8.3-52.7 29-82.7 41.3-59.7 57.2-103.6 58.3-132.5zm186 1.4c1.7 29 17.7 72.4 58.3 131.2 20.7 29.9 29.8 57.6 29 82.6a93 93 0 0 1-29 63.6 171.7 171.7 0 0 1-75.1 40.7V94.8a372 372 0 0 0 16.9-5.2zm-35.5 10V412c-8.2 1.7-16.6 2.9-25.2 3.8V104.1a295 295 0 0 0 25.2-4.5zm-112.8.8c8.5 2 17 3.4 25.4 4.4v311.4c-8.6-.9-17-2-25.4-3.7V100.4zm69 5.5v311.4a313.2 313.2 0 0 1-25 .1V106.3c8.3.3 16.7.2 25-.4z"/></svg>
