<svg xmlns="http://www.w3.org/2000/svg" viewBox="0 0 512 512" style="height:512px;width:512px" fill="#FFFFFF"><path d="M21 19v145.7L40 178l74.3-17.6c-4.2-3.7-7.2-6.5-8.5-8a51 51 0 1 1 74.5-69.5c19.1 20.6 260.9 354.3 260.9 354.3l-27.5-23v.1l-24.2 5.8 105.4 73-67.5-97.5 5.3-15.5-12.3-20.7-.3-.1-6 17.2-11.2-16.3 6.7-19-12.4-20.8-7.4 20.9-13.4-19.4 8.3-22.6-12.3-20.7-9 24.5-15.7-22.5 9.7-27.3-12.4-21-10.4 29.4L315 233l11.5-32-12.3-20.7-12.3 33.9-23-33.4 13.3-37.4-12.3-20.9-14.1 39.4-37.3-53.6 17.4-43-12-20.1-18 44.7L166.5 19H21zm124 68.6a24.3 24.3 0 1 0 0 48.7 24.3 24.3 0 0 0 0-48.7zm41.5 54a18 18 0 0 0-11.5 4.8c-7.4 7-7.3 19 0 26.7 7.5 7.8 128.6 108 128.6 108s-94.4-125.4-101.9-133.3a20 20 0 0 0-15.2-6.2zm-55.2 33.9-70.8 16.7 62.3 43.1 61.4-14.5c-21-17.8-39.1-33.4-52.9-45.3zm70.5 60.4-58.3 13.8 39.6 27.4 52.7-12.5-34-28.7zm51.7 43.7-49.8 11.8L238 315l45-10.6-29.4-24.8zm47.2 39.8-42.1 10 27.3 18.8 38.4-9-23.6-19.8zm41.4 34.8-35.6 8.4 23.7 16.3 32.3-7.6-20.4-17.1zm38.3 32-29.6 7 18 12.4 27-6.4-15.4-13z"/></svg>
