<svg xmlns="http://www.w3.org/2000/svg" viewBox="0 0 512 512" style="height:512px;width:512px" fill="#FFFFFF"><path d="M383.7 70.2h-3.4c-16.7.4-33.5 5-48.8 14-148.6 86.7-101.7 58.6-253.6 146.3l-4.6 2.7v.3a103.3 103.3 0 0 0 108 175.9C332.7 321.1 285.7 349 434.8 263a103.5 103.5 0 0 0-51-192.8zm1.4 16.5a73.9 73.9 0 0 1 63 36.8c1.9 3.2 2.8 7 4.1 10.2a74.6 74.6 0 0 0-93-15c-64.4 37.4-83.6 48.9-105.6 61.9a201.4 201.4 0 0 1 54.2 82c-56.7 32.8-51.6 30.7-148.8 87a74.6 74.6 0 0 1-93-15c1.3 3.4 2.3 7.1 4.1 10.3a74.6 74.6 0 0 0 102 26.7c93-54 91.9-53.8 141.2-82.3.5 9.6-1 18.1-5 24.9-28.9 16.5-53.4 30.6-136.4 79a84.4 84.4 0 0 1-115.6-31 84.5 84.5 0 0 1 31-115.5L92 244c73.2-42.3 98.6-56.7 125.8-72.3 37-21.5 44.1-26 128.4-74.9A75 75 0 0 1 385 86.7z"/></svg>
