<svg xmlns="http://www.w3.org/2000/svg" viewBox="0 0 512 512" style="height:512px;width:512px" fill="#FFFFFF"><path d="m341.2 18-3 6.3 6.6 13.1-9.6-7-8.3 17.1 6 13.1-10-4.8-3.6 7.3 17.3 29.7-33.9 69.6a416.5 416.5 0 0 0 18.4 3.4l31.7-65.1 22-45.1 8.3-17.2-16.2-7.8-8.3 17L341.2 18zM55.6 35h-2c-5 .3-10 1.8-14.6 4.6a18.9 18.9 0 0 0-7.8 10.8 68 68 0 0 0-3.1 14 282 282 0 0 0-1.5 40.7c.7 32.4 4.3 74.4 10 118.4 8.7 69.4 22 143 36.5 191.8l1.8 6 1 3.4a67.9 67.9 0 0 0 6 13.9 15 15 0 0 0 5.2 5.4c1.4.7 2.4 1 5.5 0 1.7-.7 1.7-.6 2.3-3.3.6-2.6.5-7.6-.5-13.6-1-6.2-3-13.4-5-20.9-13.2-46.5-26.6-118.3-35-185-5.6-43.5-9.2-85.1-9.8-116.4-.3-15.7.1-28.8 1.3-38 .6-4.6 1.5-8.1 2.2-10.3.4-1 .8-1.6 1-1.9 4.1-2.3 7.7-2.4 13.2-.4a69.3 69.3 0 0 1 21 14.7c15.6 14.7 33.2 38 51 61 17.8 23 35.8 45.8 54.3 60.5 6 4.8 12 8.7 18.4 11.4 2.6.7 6 1.4 9.4 2 3.6.4 7.3.5 9.5 0 1.6-.2 2-.5 2-.6 3.5-6.1 2-8-1.3-11.4-3.3-3.4-10.1-6-12.4-6.1v-.4a63.4 63.4 0 0 1-14.4-9c-15.8-12.5-33.6-34.5-51.3-57.4-17.7-23-35.4-46.6-52.9-63.1a83.2 83.2 0 0 0-27-18.4 37 37 0 0 0-13-2.4zm191.1 4-8.1 24.1 9.3 21.1-13.7-8.2-3.5 10.5 21 27.3-10.5 30.8c5.7 2 11.4 4 17 5.8l10.5-30.8 16-47.6 6.1-18-17-5.8-6.1 18-21-27.2zm162 12-12.5 1.7-12 24.7 18.3-13.5 6.3-13zM318 63.2l-12.3 3.3-16 47.5 12.3-3.3 16-47.5zm106.8 5.5L416 80.8l2.2 28.6-9.6-18.4-13.2 18.3 12 32.2-21.8 30c7.3.1 14.8 0 22.4-.2l13.9-19.2 29.4-40.6 11.2-15.4-14.6-10.6-11.2 15.4-12-32.2zm-29 9L382.5 81l-8.1 16.7 12.5-1.7 9-18.4zm77.1 34.7L468 119l12.8.4 4.7-6.5-12.7-.5zm-5.7 7.9L443.4 153l12.7.5 6.4-8.9-6-3.6 9.4-1 11-15.1-9.8-4.6zM229 159l-5.1 10.3c5.5 1.8 10.9 5 15.6 9.9 7.1 7.3 11 20.5 4.2 32.7-3.3 6-9.5 8.6-14.7 9.6-5.2 1-10.3.6-15 0a99 99 0 0 1-14.6-3.2l-4.3 8.4c50.8 27 109.5 22.8 167.4 10.6 12-15.7 24-31.7 35.9-48-63 .8-117.1-10.7-169.4-30.3zm-42.2 83.7c-26 50-52.8 98.2-83.2 146.8 2.9 11 6.6 23.2 8.5 34.4 1.3 7.2 1.9 14 .4 20.7a22.7 22.7 0 0 1-13.9 16.2c-6.8 2.4-14 2-19.6-.8a31.4 31.4 0 0 1-12.3-12l-.7-1-7 10.2a72 72 0 0 0 62.2 36.7A1534.5 1534.5 0 0 0 346 259c-53.4 9.2-109 10.4-159-16.2z"/></svg>
