<svg xmlns="http://www.w3.org/2000/svg" viewBox="0 0 512 512" width="32" height="32" fill="#FFFFFF"><path d="M255.6 19.3c-8.6.2-18 4.4-28.3 13l-73.6 105.6 77.7 36.7-35.3-31.9c49.4-102.8 72-101 117.8 0l-34.8 31.6 77.3-36.4-73.8-106c-9.7-9.4-18.4-12.8-27-12.6zm82.6 147.8-79.4 37.4-4 1.9-4-1.9-76.6-36.3L69.3 291.1l18.8 14.1 66 15 29-118.1 17.2 8.1-69.6 284h93l15.5-265.5 15.6 7.3 17.8-8.3L288.2 494h93l-69.8-284.7 17.3-8.1 29.2 119.2 71.7-16.4 14.4-13-105.8-124zM103 327.8a30.6 30.6 0 0 0 28.8 41.6c3.7 0 7.3-.7 10.7-2l7-29-46.5-10.6zm306.8 0-47.6 10.9 7 28.3a30.6 30.6 0 0 0 42.6-28.4 30 30 0 0 0-2-10.8z"/></svg>
