<svg xmlns="http://www.w3.org/2000/svg" viewBox="0 0 512 512" style="height:512px;width:512px" fill="#FFFFFF"><path d="M311.9 48c-17.6 0-34.6.7-50.7 2.4l-16.6 43.1-4.9-40-7.5 1.4c-9.1 2-15.1 7.3-20.3 14.9a118 118 0 0 0-12.1 26.6 617.3 617.3 0 0 0-21.4 78.6l17.9 15.4 30.7-17.6 33.8 26.1 51.9-19.7 61 24.5-6.8 16.7-54.4-21.8-54.7 20.7-32.2-24.9-14.9 8.5c19.6 17.3 38.6 34.4 56.5 51.2l14-6.4 33.9 16.1 31.2-13.1 24.2 23.3-12.4 13-15.8-15.1-27.6 11.7-33-15.8 20.1 19.7 1.7 1.8 19.5 76.3-7.8-5.7-53 .4-38.1-17.8-42.4 14.6-5.8-17 49.2-17 41.1 19.2 24.7-.2-70.7-51.7a103.5 103.5 0 0 1-58.1-3.7c-4.2 44.4-5.9 85.7-7 118.7-.4 10.7 2.7 23 7.5 32.5 4.9 9.5 11.7 15.4 15 16.1a402 402 0 0 0 37.7 5.1l12.4-39 19.1 41.7c16.7 1.2 35 2 53.5 2.2 28.2.3 57.1-.9 82-4.7 15.8-2.3 29.6-6 40.7-10.4a128.3 128.3 0 0 1-29.1-16.6c-11.1-8.9-18.2-19.3-17.3-30.9v.2c5.4-96.4 10.8-188.8 30.3-286l.1-.4.1-.4A125.8 125.8 0 0 1 443.2 59c-13.9-2-28.6-4-43.7-5.7l-22.3 25.3L375 51c-19-1.6-38.4-2.7-57.4-3h-5.7zm148.5 20.4A99 99 0 0 0 447.1 81a50.3 50.3 0 0 1 21.8 37 29 29 0 0 1-7.7 21.4 57.3 57.3 0 0 1-31.6 15.8l3.8 17.6a75.2 75.2 0 0 0 41.2-21.4c9-9.9 12.7-22.2 12.3-34a65.2 65.2 0 0 0-26.5-49.1zm-435 3.5a45 45 0 0 0-.3 5.6c0 7.7 2 18.2 5.8 30.2 3.4 10.7 8.3 22.5 14.3 34.8 10.7-5.3 20.6-11 28.4-18.1a143.8 143.8 0 0 1-18.5 36.5c4 7.2 8.6 14.4 13.4 21.5A74.2 74.2 0 0 0 98 156.3a89.5 89.5 0 0 1-18.3 41.8c6.6 8.5 13.5 16.8 20.8 24.5 8.7-9.3 15.6-21 20.7-34.9 3.8 18.5 2.6 35.3-5.7 49.4a189 189 0 0 0 24.8 19.1c6.1-14 8.9-30.6 8.5-49.7a126 126 0 0 1 9.6 59.5 86.8 86.8 0 0 0 61.3 6.1l4.2-1.3 69.3 50.6-5.9-22.8c-73-72.8-175.4-156.7-261.9-226.7zm287.4 52 33.2 13.8 31.3-9.9 5.4 17.2-37.5 11.9-33.6-14-28.8 8.1-4.8-17.4zm107.3 236.2-2 .1c-3.5.1-7.2.5-11.1 1.3l3.4 17.6c12.2-2.3 20-.4 24.5 2.5 4.4 2.9 6.3 6.8 6.4 12.5.1 9.3-7 23-23.3 32.5 5.4 2.9 11.9 5.9 19.3 8.7a54 54 0 0 0 22-41.4 33 33 0 0 0-14.6-27.4 44 44 0 0 0-24.6-6.4z"/></svg>
