<svg xmlns="http://www.w3.org/2000/svg" viewBox="0 0 512 512" style="height:512px;width:512px"><path d="M0 0h512v512H0z" fill="none"/><path d="M264.4 95c-35.6 0-80.2 11.2-124.2 34.1C96.2 152 61.5 182 41 211.3c-20.4 29.2-26 56.4-16 75.8 10.2 19.3 35.6 30.4 71.3 30.4 35.7.1 80.3-11.2 124.2-34 44-22.9 78.8-53 99.2-82.2 20.5-29.2 25.9-56.4 15.9-75.8-10.1-19.3-35.5-30.5-71.2-30.5zm91.9 70.3a135 135 0 0 1-21.8 46.3c-22.6 32.3-59.5 63.8-105.7 87.8-46.2 24.1-93.1 36.2-132.5 36.2-18.6 0-35.8-2.8-50.4-8.7l10.6 20.4c10.1 19.4 35.5 30.5 71.2 30.5s80.3-11.2 124.2-34.1c44-22.8 78.8-52.9 99.2-82.2 20.4-29.2 26-56.4 15.9-75.7zm28.8 16.8c11.2 26.7 2.2 59.2-19.2 89.7a281.5 281.5 0 0 1-83.6 75.4c11.1 1.2 22.7 1.8 34.5 1.8 49.5 0 94.3-10.6 125.9-27.1 31.7-16.5 49.1-38.1 49.1-59.9 0-21.8-17.4-43.4-49.1-59.9a230 230 0 0 0-57.6-20zm106.7 124.8a136.4 136.4 0 0 1-40.7 31c-35 18.2-82.2 29.1-134.3 29.1-21.2 0-41.6-1.8-60.7-5.2a340.4 340.4 0 0 1-68.9 26.1l3.7 2c31.6 16.5 76.4 27.1 125.9 27.1s94.3-10.6 125.9-27.1c31.7-16.5 49.1-38.1 49.1-59.9z"/></svg>