<svg xmlns="http://www.w3.org/2000/svg" viewBox="0 -28 48 48" width="41" height="41" fill="#FFFFFF"><path d="M13.5-24.1c-1.6 0-3.3.3-4.8 1-6.4 2.4-9.6 10-8 16.5C2 0 7.4 4.4 12 8.7l10.4 8.9c1.4.9 3 .2 4-.9 5.8-5 11.9-9.6 16.8-15.4 3.2-3.9 5.2-9 4.2-14C47-15.5 45.8-18 44-20c-4.4-5-13.2-5.6-18-.7-1 1-2 3.3-3 1a12.1 12.1 0 0 0-9.5-4.4zM28.3-17c4.8.9 9 4.6 10.2 9.5V3.6H10V-7.9l18.3-9zm.2 2L15-8.2h21.4a11 11 0 0 0-7.8-6.8zM12-6.4c-.3.5 0 1.6-.1 2.3.6 1 3.3 1 4.7 1.5 2.3.4 4.5-.8 6.7-1 2.3-.3 4.4.6 6.6 1 2.3.4 4.5-.8 6.7-1v-2.8H12zm12.4 4.6c-2.1 0-4 1-6.2 1-2.2.4-4.2-.7-6.3-1v3.6h24.7v-3c-.3-1.5-3.3.9-4.8.5-2.2.3-4.3-.7-6.5-1l-1-.1z"/></svg>
