<svg xmlns="http://www.w3.org/2000/svg" width="28.17" height="32" fill="#fff" viewBox="0 0 15.98 20.63"><path d="M14.85 18.36q-.42.33-.82.9-.48.31-1.11.55-.64.22-1.5.43-1.47.39-2.77.39-1.06 0-1.72-.45-.25-.15-.85-.82-.4-.4-.7-.36-.72.09-.54.09-.3 0-.7-.3-.54-.43-.66-.46-.27-.36-.64-.7-.33-.36-.66-.66l-.58-.57q-.27-.28-.4-.46-.41-.63-.78-2.06l.3-.33q-1.11-.33-1.33-.75v-.13q0-.3-.2-.81-.22-.55-.22-.82 0-.3.15-.6-.21-.44-.21-.94 0-1.06.97-2.21.09-1.21.36-1.33l1.12-.36-.18-.19q-.24-.06-.55-.06l-.27-.03Q.2 5.12.2 4.93q.64-1.63 2.6-2.9Q3.99 1.27 6.4.3q-.03.3.2.37h.3q.12 0 .24-.03.12.18.09.36h.06q.24 0 1.09-.94.15-.03.33-.03.18-.03.4-.03 1.78 0 3.65.73 2.27.84 2.73 2.3-.06.18-.25.39l-.36.4-.36.42q-.15.18-.21.33l-.37.09q-1.45-1.09-3.41-1.6-.25-.34-.34-.82-.24.06-.36.27l-.3.36q-.6.1-2.1.73-1.26.57-2.14.57-.42.46-.66.43h-.1q-.18-.18-.5-.18.05.3.05.48 0 .67-.42 1.33L2.9 7.47q-.15.24-.24.7l-.21 1.09q-.24 1.15-.64 1.7.55.14.73.96l.27 1.3q.15.15.49.57l.84 1q.43.52.79.88.4.33.73.54.15.22.15.46 0 .24-.18.81 1.02-.63 1.3-.63.15 0 .45.12.33.12.54.12.25 0 .73-.09.5-.12.76-.12.3 0 .48.09.03.27.15.54.4-.5.58-.75.2-.27.24-.3.5-.6 1.03-.73.15-.3.54-.6l.36.09q-.06-.19-.06-.3 0-.43.49-1 .5-.67.5-1 0-.3-.17-.58l-.03-.36q-.03-.67.36-.94-.12-.03-.3.03l-.27.03-.21-.06q-.3-.6-1.18-1.03-.82-.33-1.58-.33-.81 0-1.5.7l-.43 1.36q0 .33.3.6.06.18 0 .24-.18.73-.97.88-1.15.21-1.4.36-.47-.12-.71-.42-.6-2.09-.6-2.51 0-.67.38-1.15.12-.4.4-.66.3 0 .57-.1-.06-.15-.24-.27-.18-.15-.18-.3v-.06q1.72-1.63 4.1-1.88.04 0 .68.67l.2-.03.22-.58q1.88.16 2.48.8-.06.3-.03.5v.37h.06q.18 0 .43-.3.24-.3.45-.3.27 0 .6.23.37.25.7.76l.97 1.45v.1q-.03.39.09 1.11l.09.64q.06.27.06.42 0 .64-.33 1.15l.2.9-1.75 2.88q-.12.06-.3.18l-.36.25v.09q0 .15.15.36.15.18.18.24z"/></svg>
