<svg xmlns="http://www.w3.org/2000/svg" width="33.38" height="32" fill="#fff" viewBox="0 0 20.47 18.82"><path d="M20.46 1.2q0 .51-.31 1.46-.25.1-.42.1-.14 0-.47-.11-.28-.1-.43-.1-.58 0-.98.32-.2-.02-.57.07-.35.06-.5.06-.32 0-.82-.03-.48-.06-1.1-.19-1.36-.26-1.9-.26-.19 0-.63.1-.42.06-.62.03l-.3.62.44.7q-.06.2-.06.58 0 .25.03.62.03.39.1.89l.1.88q.06.35.06.6l-.35.62q.1.26.1.58 0 .5-.2 1.1l.28.86q0 .28-.18.81-.16.54-.16.83 0 .18.03.46l.06.58.1.59q.06.26.06.45l.48-.6q.31-.35.75-.79l.6.03q1.05-1.93 2.25-2.94l.15.1q.2.73 1.39.66l.98 1.1-.17.48-1.42 1.23q-.87.73-1.54 1.04l-.41-.06-.32.7h-.62v.56q-1.08 1.48-3.54 3.28-1.57-.31-2.64-2.19l-.35.05q-.37 0-.8-.16-.37-.19-.68-.48-.31-.31-.54-.66-.19-.37-.19-.76l-.42-.31-.56-.44H3.7l-1.48-1.23q-.85-.67-1.1-1.55.72-.69 1.32-.9l.56.34.36-.44q.43.44 1.48.97l.47.85.28-.06q1.86 1.01 2.36 2.12l.58.12q.12-.28.12-.8 0-.18-.06-.46-.03-.31-.1-.6-.03-.32-.09-.6-.03-.31-.03-.51 0-.28.03-.69.03-.44.1-.98l.09-.94q.03-.44.03-.73L9 7.89l1.04.53.47-.66-.32-.25-.93-.2-.55-.77.07-.32.15-.1q-.28-.42-.28-1.1l.03-.75q.07-.55.07-.8l-.22-.62-.83.12-.94-.1-.07-.25-.56.16q-.19 0-1.42-.35-1.04.42-1.83.42H2.3q-.3 0-.76-.03-.81-.07-1.29 0L.06 2.4q.22-.75.22-1.14L0 .36l.03-.2q.31-.1 1.04-.19l.47.42q.98-.63 1.17-.63h4.36q-.32 0 1.29.27l.19.3Q9.02 0 9.59-.13l.2.1.8-.13.36.18-.2.54 1.4-.7.3.04q.29 0 .83-.16.56-.16.84-.16.32 0 .77.07.43.03 1.04.1l1.04.09q.44.03.75.03l.06.48 1.23-.51q.44 0 1.17.1l-.03.52q0 .1.16.39.15.25.15.34z" style="stroke-width:1.04242"/></svg>
