<svg xmlns="http://www.w3.org/2000/svg" width="35.86" height="32" fill="#fff" viewBox="0 0 23.42 18.65"><path d="M23.4-.4q-.34.55-.8 1.48-.45.9-1.02 2.2l-.3.07q-.14 0-.32.07.11.38-1.12 2.91-.47 1.05-.87 1.84l-.67 1.22q-.59.27-1.33 2.1-.71 1.66-1.25 1.51l-.21.28v.34q.03.14.03.24 0 .13.03.16 0 .07-1.3 2.04-.29.37-.66 1.15-.36.79-.85 1.93-.3.7-.94.6-.16-.57-.98-1.67-.79-1.17-.85-1.77-.79-.27-.6-1.06.16-.98-.04-1.22.03-.95-.24-1.28l-.13.65q-.13.43-.41.43-1.5-1.59-1.4-2.8-.97-.76-1.9-1.98-.86-1.2-1.73-2.89L1.68 2.74Q0-.37 0-.46q.03-.06.03-.16.04-.1.12-.2.44-.07 1.16.3.67-.7 2.34-.57.1.07 3.36 0 2.26 0 3.18.45l.37-.34 3.08-.04q.27 0 .71-.04.44-.06.6-.06.9 0 1.3 1.05.26-.04.95-.89l2.7.04q.14.2.31.23.1 0 .5-.2.32-.13.52-.1l.64-.03.65-.04q.84 0 .87.65zm-6.33 1.95q-.58-.07-1.5-.45-1 .38-3.2.38-1.73 0-2.04-.37L9.8.46q-.58.79-1.6.99-.4.13-1.9.17.22.27.72.57.55.31.72.55.84.2 1.9.92l1.79 1.14q.17.11.77-.14.57-.22.85-.22.17 0 .23.02.11-.5 1.2-1.08 1.12-.54 1.25-.88.27-.13.6-.38.34-.22.75-.57zm.68 3.05q-.47.37-1.53.91-.44-.26-.71-.16-.1.5-1.4 1.38-1.28.88-1.2 1.35.2 1.2.2 1.06 0 .44-.38.6.65.14.65.8v.33q-.03.16-.03.37 0 .3.16.58.37-.52 1.36-1.5l-.07-.23v-.24q0-.57.5-1.26.32-.03.59-.63l.22-.49.21-.3.2-.3q.14-.14.3-.4l-.03-.25q.39-.27.96-1.62zm-6.84 7.42q.06-.38-.07-.75.27-.47.27-.95 0-.44-.37-1.29-.37-.84-.37-1.2 0-.34.13-.62-.45.06-.82-.34-.36-.4-.67-.82-.71-.13-1.7-.9-1.12-.99-1.56-1.12.34.84 1.46 2.4-.03.14-.13.34-.07.2-.24.47h.37q.85.51 2.13 2.6 1.3 2.11 1.43 2.21z" style="stroke-width:1.11965"/></svg>
