<svg xmlns="http://www.w3.org/2000/svg" width="33.23" height="32" fill="#fff" viewBox="0 0 19.58 18.15"><path d="M19.53 2.88q0 .25-.2.6-.19.3-.19.43 0 .06.1.47l.1.5q0 .45-.41 1.22-.38.8-.8 1.1.04.16.04.28.04.1.04.19 0 1.07-2 2.5l.09.85q.06.42.06.8 0 1.37-.53 2.08-.3.1-.5.1.05 0-1.57-.38 0 .25.93.67.04-.13.2-.23.85.07.85.7 0 .84-1.42 2-1.38 1.16-2.34 1.16-.42 0-.57-.26-.28-.46-.38-.55-.12.24-.12 1.34H9.15q-.1 0-.56-.18l-.54-.22-.53-.45h-.37q-.19 0-.51-.03-.93-.3-1.76-1.34-.83-1.07-.96-1.94-.1-.57-.1-.51v-.59l.31-.06q.19-.03.19-.31h-.78l.07-.04q-.04-.63-.07-.87v-.13q0-.85.19-1.88-1.56-1.1-2.54-2.8Q.28 5.45.28 4q0-.9.38-1.63-.66-.3-.66-.9Q0 .92.53-.08q.41 0 1.03-.1.98-.18.82-.18h.56q.35.19.35.97 0 .42-.25 1.76l-.2 1.03-.02.53q0 .23.57.83l.25.68.28.65q.3.8 1.13 1.35.18-.37.81-1 .66-.66 1.04-.66h.43q.22.19.35.6l.28.72h.03q.22-.34.41-.73l.37-.72q.35-.44 1.13-.44.16 0 .6.07.44.04 1.22.16.06.37.41.73.34.3.62.3.03 0 .19-.07.15-.09.22-.09.13 0 .66.45.53.43.76.43.15 0 .52-.62.22-.45.53-1.2.35-.78.79-1.85v-.09q0-.1.03-.25-.37-.34-.5-1.45Q15.8.6 15.41.21q0-.12.04-.19V-.1q.21-.1.41-.1l.93.2q.88.18.98.18-.03 0 1.19-.44.06.22.15.73.1.46.16 1.24 0 .23.12.7z" style="stroke-width:1.03594"/></svg>
