<svg xmlns="http://www.w3.org/2000/svg" width="32.25" height="32" fill="#fff" viewBox="0 0 20.92 20.59"><path d="M12.54 11.3c.04-.2.06-.36.06-.46 0-.44-.32-1.2-.97-2.28a1.65 1.65 0 0 0-1.21-.43 10.66 10.66 0 0 1-1.43.1c-.71.6-1.02 1.18-.92 1.73-.08.08-.12.23-.12.46 0 .22-.04.37-.12.45-.02.18 0 .44.09.76l.6.49c.21.14.41.3.62.46.48.32.96.46 1.43.42.04-.04.18-.04.42 0a4.35 4.35 0 0 0 1.55-1.7zm3.75-9.22.64.03c.1.1.15.23.15.4 0 .16-.04.33-.12.51.14.06.37.13.7.22.34.06.57.12.7.18.32.18.99 1.4 2 3.65l-.6.73h.51c.3.36.5 1 .61 1.92.08.85 0 1.5-.24 1.97-.06.14-.22.3-.46.49-.22.18-.4.26-.55.24.1.3.11.64.03 1a8.1 8.1 0 0 1-.12.62c-.02.16-.02.28 0 .36a9.27 9.27 0 0 0-.7.43l-.03.3c.16.22.25.45.25.67 0 .14-.06.31-.16.52a7.14 7.14 0 0 1-3.68 3.25c-1.42.63-3.04 1-4.87 1.1-.1-.2-.12-.48-.06-.82a.89.89 0 0 0 .03-.22v-.2c0-.13-.02-.27-.06-.44-.48.29-.77.6-.85.95-.22.16-.4.24-.55.24a.57.57 0 0 1-.36-.12c-.2.12-.73.06-1.58-.18a9.9 9.9 0 0 1-1.62-.58c-.36-.2-.54-.48-.54-.82a3.07 3.07 0 0 1-.92-.37l-.48-.3a2.29 2.29 0 0 0-.49-.88 2.04 2.04 0 0 1-.43-.92c.41-.36.64-.75.7-1.15-.42 0-.8.17-1.15.51a2.76 2.76 0 0 1-.61-.51A3.43 3.43 0 0 1 .83 14c-.36-.68-.5-1.24-.4-1.67a3.78 3.78 0 0 1-.39-1.49c0-.3.07-.53.21-.67-.2-.28-.28-.82-.24-1.6.08-1.33-.1-2.93 1-3.68.77-.53 1.32.42 1.52.18l.02-1.1.65-.44c-.2-.25-.2-.95-.15-1.05.15-.28 1.35-.82 3.6-1.65 1.7-.6 3.05-.91 4.07-.91.47 0 .85.06 1.16.18a5.16 5.16 0 0 0 .73.88l-.13.52a2 2 0 0 0 0 .49l.22-.3a6 6 0 0 0 .33-1.34 222.27 222.27 0 0 1 2.8 1z" style="stroke-width:1.00747"/></svg>
