<svg xmlns="http://www.w3.org/2000/svg" width="49.18" height="32" fill="#fff" viewBox="0 0 42.04 17.8"><path d="m6.29 21.87-.12-3.62v-2.93l-1.1-.12H.95L0 15.06l.13-1.5L0 12.11c.6.02 1.88.33 2.5.33.4 0 .14-.29.58-.33h3.09l.05-3.17.42-.52-.42-.77.01-3.49-.01-3.02c.3-.44.21-1.27-.06-1.57V-4.7h.57l.56.47L10.6-1.1c-.17.15.2.64.2.97.01.32-.36.48.2.44.24-.01.17-.67.63-.76l3.91 1.55 1.3.4 1.93.11c.58.49 1.28 1.3 1.12-.06l.05-3.1.53-.32.13-.3-.4-.03-.24-.3.03-2.16.74-.12h1.5l.73.12.06 3.1.05 3.11 1.12.06 1.96-.1 1.2-.4C28.53.78 29.6.38 30.5-.16l.77.03.28-.65c1.3-.77 2.36-1.78 3.37-2.8l1.1.11.6-.35.1 3.6-.05 4.88.04 8.48 2.67.05 2.66.05v.63l-.12 1.49-.12.86h-1.56l-1.56-.46-.47-.47-.47.47-.56.46h-.56v3.18c-.67.94-.7.54 0 .69v2.49h-2.95l-.13-2.06c-.15-.65-.32-1.27-.5-1.88.6-.3.74.04-.17-.49a15.8 15.8 0 0 0-.81-1.93 9.67 9.67 0 0 0-2.26-3.2l-.47-.96-.55.05c-1.46-.89-2.85-1.82-5.16-2.12-1.32-.05-2.45-.2-4.2 0-1.94-.17-3.2.68-4.67 1.55-.85-.47-.69-.08-.74.57a12.05 12.05 0 0 0-3.63 4.2 8.2 8.2 0 0 0-1.04 3.08l-.33 2.04-.22.76-.53-.13-.96.52-1.01-.7Zm7.16-12.49c.46-.29.88-.76 1.42-.8.77-.07 1.1-.34 1.35-.65.68-.84 2.64-.83 3.7-1.13l-.02-1.04V4.73c-3.28-.95-5.78-.71-10-3.08l-.97-.16v1.39l.08 4 .06 5.41.83-.18zm20.04.43.07-3.4-.01-1.6.72-.78-.73.05v-1.4l-.2-.9-1.89.89c-1.8 1.15-4.26 1.64-6.88 1.97h-1.59v2.24h1.12c1.74.39 3.47.99 5.14 2.05l4.24 3.77.03-2.32c.87-.45.92-.1-.02-.57zm-14.62 5.38c-.25-.6.29-1.44.84-2.01a3.71 3.71 0 0 1 2.34-1.07c.76 0 1.24.25 1.79.86.55.62 1.08 1.93.98 2.78a2.84 2.84 0 0 1-1.15 1.88c-.52.43-.97.7-1.72.65-.75-.06-2.06-.6-2.34-1.3.22-.87-.15-1.39-.74-1.79z"/></svg>
