<svg xmlns="http://www.w3.org/2000/svg" width="36.34" height="32" fill="#fff" viewBox="0 0 24.71 19.16"><path d="M24.62 11.57q-1.08.34-1.37.25-.25-.17-.63-.54l-.68.45q-.56.37-.86.37-.09 0-.34-.08-.08.34-.15.84-.05.45 0 1.03.03 1.38 0 1.88-.13.05-.34-.08-.17.2-.17.8v.33q0 .15.04.37.05-.05.17-.34.17-.28.25-.28.08 0 .17.37.08.34 0 .45l-.12.67q0 .34.03.87.09.55.17 1.25-.08.1-.37.13-.55-.46-1.22-.46-.34 0-.5.05-.29.4-.79.4-.2 0-.62-.07-.38-.12-.58-.12l-.12-.38.08-3.83q.17-.13.41-.13.17 0 .25.05l.34.16q.16.04.33.12.08.1.16.1-.08-.43-.66-.97-.5-.05-.79-.42-.17-.9-.12-2.7-.05-.04-1.7-.38l-.26-.38q-.2.22-1.37.6-.13-.13-1 0-.68.1-.72-.55.38-.42.3-.8-.22-.1-.75.26-.54.37-.76.3-.11.33-.45.78-.17-.04-.3-.04-.1-.05-.24-.05-.55 0-.96.34.04.42.04 1.08v1.54q-.29.05-.29.34l.04.25q.04.16.04.25 0 .2-.12.34l.08.66q.09.37.37.41.1.25.1.46 0 .25-.13.8-.1.49-.1.74 0 .54.3.84.08.28-.34.5-.11.03-.33-.05l-.45-.25q-.2-.11-.37-.25l-.17-.12q-.2 0-.46.34-.3-.3-.87-.05-.5.2-.8.29-.33 0-.58-.46.09-.42.09-.95 0-.54-.05-1.25l-.07-1.25q0-.58.03-.91.12-.23.3-.23.07 0 .29.14.2.08.34.08.07-.2-.26-.67-.34 0-.5-.5-.3-.58-.37-.67.07-.62-.13-1.7h-.6q.05-.09.05-.3 0-.24-.13-.61-.58.45-1.62 1-.21-.12-.42-.12-.12 0-.45.11-.3.08-.42.08-.25 0-.42-.16.37-.54.37-.96 0-.2-.04-.3l-.2-.15.07-2.59q.17-.12.38-.04.3.12.38.12.12 0 .25-.2.08-.05.2-.05.21 0 .46.3t.37.3l.34-.35q.17-.1.3-.25.16-.1.33-.1l.37.03q.3.04.42.04.42 0 .67-.26-.22-.5-.3-1.54L4.3 4.27q-.04-.87.12-1.4.21-.59.42-.84-.54-.3-.54-1.17 0-.66.16-1.62.05-.21.3-.17l.42.13q.15-.11.34-.11.23 0 .7.28.5.3.7.3.34 0 .59-.64l.37-.08.5-.13q.04.17 0 .46 0 .26-.04.59-.08.82.08 1.07l-.08.39q0 .2-.05.4 0 .18-.11.35-.1.1-.34.03l-.08-.08q-.25.2-.22.58v.59q.5-.2.72-.2.16 0 .28.1-.11 1.72-.25 4.92.05.05.72-.03.5-.1.66.16.66-.25 1.25-.25.45 0 .8.21l4.41-.5.45.21q-.09-.25-.09-.3 0-.2.13-.57.17-.38.17-.55 0-.34-.34-.59-.16-.28-.16-.65 0-.3.17-.89.2-.62.2-.9 0-.22-.08-.46.34-.46.34-.68L16.48 2q.13-.25.13-.63 0-.25-.08-.8-.08-.52-.08-.78 0-.96 1.08-1.08.09 0 .21.05.16.03.25.03-.09.25.62.5.25.04.8-.12.57-.21.79-.21.25 0 .37.17l-.09.75q0 .5.05 1.24.04 1.22-.2 1.96 0 .05.07.25.08.2.05.38-.3.2-.68.17.04.25.42.57.38.3.45.46-.03 1.33.23 2.92.24 0 .57.05.38 0 .75.03l.67.09q.34.03.54.03.58 0 .91-.15.3.15.3.57 0 .2-.2.8-.18.54-.13.82-.1.25.11.72.26.42.26.54 0 .16-.04.25z" style="stroke-width:1.13293"/></svg>
