<svg xmlns="http://www.w3.org/2000/svg" width="19.02" height="32" fill="#fff" viewBox="0 0 7.3 20.66"><path d="M9.73 3.33q-.63 0-1.36-.24L8 3.42q-.3.06-1.88.81l-.15.43q.15.21.3.54.15.3.3.76h.1q.72 1.9.72 2.48 0 .4-.09.79.27.7.27 1.57 0 1.3-.18 2.36-.18 1.06-.6 1.84l-.82 1.52.15.39q.6.24 1.24.42.64.19 1.33.25.79.09.88 1.09.06.42.03.81v.82l-.24.36q-.4-.06-1.15-.27-.82-.24-1.24-.24l-.37-.46q-.3.21-.78.21l-.46-.06-2.02-1.18Q2.1 19.57.9 19.93l-.94.22-1.75.39q-.49-.21-.4-1.06.03-.15.03-.27V19q0-.1-.15-.49l-.18-.45.06-.36q.18 0 .51.03.34.03.52.03.33 0 .9-.25l.67.3q.27-.57 1.03-1.02.09-.03.48-.27-.2-.34-.45-.82l-.51-1.15-.34-.21q-.2-.45-.33-1.36-.12-.94-.36-1.4l.45-.81-.63-.27q0-1.24.3-2.27.4-1.57 1.24-1.4l-.58-.78 1.06-2.06Q.47 3.6.26 3q-.63.22-1.15.22-.18 0-.45-.03-.24-.06-.58-.12-.18-.67-.18-2 0-.4.1-.85.69-.15 1.2-.15 1.4 0 2.27.79.6 0 2.4 1.06L5.33.97l.49.24.3-.6L7.46.23Q8.36 0 8.86 0q.45 0 .87.18l.06 2.06v.57q0 .27-.06.52zm-5.6 4.14q0-.21-.6-.97-.88 1.6-.88 3.09 0 .15-.15.45-.12.3-.12.46 0 2.57 1.18 4.2l.51-.84.7-1.24q-.06-.3-.06-.49 0-.24.09-.73.12-.48.12-.72 0-2.33-.79-3.2z"/></svg>
