<svg xmlns="http://www.w3.org/2000/svg" width="36.79" height="32" fill="#fff" viewBox="0 0 23.76 17.97"><path d="M23.75 8.63q0 .38-.42.38-.56.06-.63.18-.14-.15-.52-.15-.13 0-.46.08-.3.07-.44.07-.52 0-.66-.53-.34.67-1.36.56-1.26-.13-1.56 0 .14.14.62 1 .5.91.46 1.33.45.39.93 1.35.53 1.12.84 1.46-.11 1.46 1.74 2.92.55.98.55 1.29 0 .2-.1.34l-.73.15q-.41.07-1.01.23-1.12-.02-1.36-.09-.8-.17-1.22-.53-.27.6-.96.6h-.29l-.27-.07q-.07.04-.21.04.03 0-.04.03l-.24.03q-.13.04-.3-.13-.4-.4-.47-.4-.2 0-.34.12-.28.28-1.08.28-.17 0-.46-.18-.02-.25-.27-.25-.13 0-.46.22-.1.2-.34.1L12.3 19q-.14-.13-.46-.13-.2 0-.66.13-.4.14-.62.14-.11 0-.32-.07-2.5.1-4.58.1-1.57 0-2.92-.03L.28 19q-.14-.13-.14-.39 0-.27 1.15-2.04.46-.7.8-1.36.38-.67.66-1.32.38.07.97-.2-.13-.32-.13-.81 0-.46.17-.97.17-.53.62-1.11l1.29-1.7q-.62.03-1.8-.22-.4.29-.95.29-.31 0-.9-.12-.56-.1-.84-.1-.6 0-.94.29Q0 8.97 0 8.59l.03-.27q.07-.25.14-.74.14-.55-.07-.93l.04-.63q1.9-.07 4.3.56.25-.63.99-.63.24 0 1.03.14.87.07.94.03.24-.76.77-1.22.52-.45.48-1 .07-.2.5-.46.48-.27.48-.34 0-.17-.2-.38.03-.38.72-1.4.67-.97.63-1.45.07-.24.28-.52.24-.32.58-.7.6.11.91.8l.48 1.1q-.06.3.35.81.46.52.42.76.35.22.35.53 0 .17-.07.48-.07.28-.07.46 0 .38.67.35.1.1.93 2 .2.18 1.35.22 1.19.06 1.43.39l1.05-.33q.34 0 .55.3.5-.47 1.22-.47.24 0 .69.07l.66.04q.5 0 .8-.14.32.2.32.66 0 .23-.18.76-.06.07-.06.29 0 .17.17.62.17.14.14.28zm-11.1-2.78q-.24-.18-.51-.8-.24-.63-.5-.8-.38.48-.62 1.66.07.14.17.28.18.25.35.18.03-.11.2-.15l.35-.1.35-.1q.18-.07.23-.17zm5.7 10.33q-1.18-2.16-2.1-3.1-.15-.45-.15-.76 0-.18.07-.25.28-.06.28-.68-.28.09-.38.09-.5 0-.84-.83-.31-.53-.69-.8.06-.49-.22-.6-.03-.03-.62.04-.6.07-1.32-.63-.35-.34-.77-.3l.34.47q-.2.43-.72.43-.2 0-.62-.07-.43-.12-.63-.12-.21 0-.31.05-.91.9-1.88 2.95-.11.28-.73.52-.66.28-.7.52.08.22.08.39 0 .38-.67 1.25-.62.83-.69 1.21l.86.07 1.12.11q.3.04.58.21.15.55.46.55.04 0 .62-.41.6-.42.88-.31.27.07.41.07l.35-.04.49-.07.52-.11q.24-.04.41-.04.4.19 1.22.22.94 0 1.29.23.17.4.42.4.17 0 .45-.08.28-.11.46-.11.26 0 .45.32.27-.52 1-.62z"/></svg>
