<svg xmlns="http://www.w3.org/2000/svg" width="52" height="32" fill="#fff" viewBox="0 0 39.52 14.92"><path d="m39.11 6.87.05 1.91.34 2.26q-.2.54-.34 1.03-.15.45-.3.84-.53 1.42-.98 1.62v.05q0 .25-1.08.88-1.08.64-1.37.64h-.2q-.34-.34-.93-2.06-.6-1.77-.6-2.36 0-.69.4-1.27.44-.6.59-.94.54-.24.93-1.52l-.05-.44q0-.5.2-.94l-1.28-3.53q-.34-.05-.49-.94-.1-.05-.3-.2-.19-.19-.53-.44l-.44.15q-.25-.1-.6-.3-.34-.24-.78-.48l-.4-.05q-.58-.1-.98.54-.53.83-.78 1.08l-2.06 4.57q-1.58 3.48-2.31 4.07l-2.5 5.3q-.4 0-.4.45 0 .79-1.82 2.75l-.34.05-.2-.2q-1.13-1.13-4.17-6.87-1.53-2.95-2.31-4.67-.79-1.77-.84-2.4-.4-.6-.83-1.33-.4-.74-.94-1.67Q9.54.68 8.51.58q-.15.05-.44.34-.4-.1-.94-.1-.29 0-.54.4-1.27.98-1.91 2.2-.5.9-.98 2.96.34 1.27.2 1.96.58.79 1.96 2.11-.6 4.62-1.87 5.3-.44-.04-.88-.43-1.08-.15-1.87-1.33-.79-1.23-.79-2.3 0-.35.05-.5l-.44-.5-.05-.48q.05-.2.15-1.82Q.3 6.77.5 3.63L1.83.04q0-.5 1.33-1.77l1.66-1.62q.74-.34 2.41-.74h1.03l1.48-.1q1.67-.14 2.55-.14l1.13-.15q.93-.1 1.23.1l.69-.3q.3 0 .88.2.64.15.93.15v.15q0-.05.1-.15l5.85-.15q4.22-.1 5.94.15l1.33.2.39-.2 2.06.69.79-.15q.4.69.69.88.59 0 .73.4 4.33 4.02 4.33 8.79zM25.75.43l-.54.35-.25-.54h-6.53q-.5 0-1.37.05-.84.04-2.07.14l-.15.4-.2-.2-.24.05q.4.69.94 1.72.54 1.03 1.22 2.4.5 1.28 1.33 2.95.83 1.62 1.96 3.69l2.8-5.11.25-.15-.05-.1q0-.24.54-.93.15-.84.64-1.87.5-1.08.93-1.52v-.1q0-.69.89-1.82l.2.5z"/></svg>
