<svg xmlns="http://www.w3.org/2000/svg" width="34.32" height="32" fill="#fff" viewBox="0 0 17.68 15.37"><path d="M16.15 8.92q-.1 0-1.84-.46l-.46.33q-.2.13-.42.19l-1.04-.16h-1l1.52 1.33q.26.2.39.45l.32.52-.12.26.25.65q.23-.23.43-.36.77.98 1.46 1.95.03.39-1.1 1.23-.95.72-1.7 1-.25-.67-1.1-1.78-.42-.55-.71-.97-.26-.45-.39-.75.03-.22-.3-.42l-.09-.06q-.1-.03-.1-.17-.29-.12-.87-.68-.03-.16-.13-.39-.07-.25-.2-.58-.22.16-.52.55-.13.23-.29.42-.13.2-.29.3-.36-.04-.68.2l-.16.74q0-.07-.07.16l-.1.68q-.55.3-1.07 1.4-.48 1.1-.9 1.42-.46-.22-1.07-.74-.59-.52-1.4-1.33.26-.42.71-1.04.46-.62 1.1-1.43l.53.2q.22-.62.1-1.17.03-.13.29-.42l.35-.4q.23-.25.49-.58l-.88-.13-.52.2q-.48.16-.87.03-.07-.16-.3-.16h-.03q-.42 0-.52.06-.1.04-.29.2-.48-.1-1.88.2l-.3-.14Q0 8.01 0 7.3q0-.42.16-.8.23.02 1.33 0 .75-.04 1.4.06l.26.22.55-.42.48.03 1.63.1q0-.13-.13-.29-.1-.2-.26-.36-.13-.16-.26-.29-.1-.13-.1-.2-.65-.29-.68-1l-.1-.1q.2-.48.03-1.33-.58.46-.84.59-.75-.68-1.33-1.6L3.28.65q.77-.71 1.4-.94.45.26.83.2L7.04 1.9q.26.49.71 1.17.46.68 1.1 1.55l.65-1.2q.4-.71.95-1.59.45-.7.74-1.2.3-.51.36-.87l.36-.33q1.07.49 1.55.78.72.46 1.36 1.07L13.6 2.9l-.03-.04q-.32-.23-.94-.2.3.26.39.43.13.13.16.26.07.1.07.22v.3l-.75.87-.3.32-.25.33q-.36.45-.36.81 1.23-.3 2.43-.13.4-.16.62-.13l.58.46q.26-.43.62-.56.52.1 1.1-.13l.36.13q.49.72.36 2.76-.49.49-1.5.33z"/></svg>
