<svg xmlns="http://www.w3.org/2000/svg" width="26.76" height="32" fill="#fff" viewBox="0 0 13.68 19.57"><path d="M15.02 18.94q-.24.51-1.18.45-.63 0-1.18-.24-.36-.03-1.17.15-.4.06-.67.12-.27.03-.48.03-.55 0-1.03-.33-.4.12-1.4.18-.96.06-1.39.21-.12 0-.33-.06l-.45-.12q-.21-.1-.43-.15-.2-.06-.3-.06-.33-.03-.66.4-.3-.22-.7-.22-.18 0-.54.09-.37.06-.55.06-.42 0-.63-.18-.49.3-1.1.3-.42 0-1.26-.21 0-.33.42-.76.45-.48.48-.6.34-.15.88-1.54.52-1.3.94-1.33.18-.67 1.15-1.03-.21-.21-.21-.43.39-.54.81-1.45.03-.36.58-1.09.54-.72.57-1l.3-.27q-.24-.24-.5-.63-.28-.4-.58-.91-.34-.55-.58-.9-.21-.4-.42-.64.09-.46-.33-.7-.58-.33-.7-.54-.9-1.6-.85-2.4-.09-.11-.18-.11-.15.18-.51.33l-.91-1.7Q-.55.76-1.28.51q-.06-.18-.06-.27 0-.24.33-.24h.52Q.87.51 2.3.58q.61 0 1.25-.1.15-.09.36.13l.21.24q.06 0 .16-.1.3.1 1-.08.63-.22.96-.22.33 0 .64.25.36-.1.66-.1.49 0 .7.22.15.24.3.24.33-.33.94-.45L14.5.42q.48.06.33.67-.51.24-1.36 1.6-.88 1.4-1.36 1.6l-.7 1.67q-.24.45-.51.79-.24.33-.54.54-.06.18-.88 1.36-.64.97-.64 1.45 0 .46.37.85.24.1.42.94.18.85.57.97.03.03.49.03.24-.06.4.2.08.34.87 1.46.66.94.63 1.6.76.19 1.21.97l.88 1.45zM9.8 3.3q-.45-.1-1.33 0l-.82.09q-.3.03-.51.03l-.6-.06q-.28-.06-.55-.18l-1.06.2q-.27-.3-.45-.3-.12 0-.15.1.06.48.57 1.06.64.7.7.93.03.49.57 1.12l.55.7q.2.24.27.36.4 0 .75-.66.46-.85.73-1.1.54-.24.88-.96zm.12 13.46-.72-1.24q-.3-.55-.55-.88-.88-1.3-1.63-1.78-.15.12-.43.48-.24.33-.63.94-.6.94-1.24.88.24.15.24.42 0 .24-.24.79-.06-.06-.15-.06-.36 0-.36.36 0 .2.18.33.18.03.51-.06.48.24 1.3.15.15-.03.27-.03h.3q.4 0 .64.1.73-.43 2.51-.4z"/></svg>
