<svg xmlns="http://www.w3.org/2000/svg" width="30.76" height="32" fill="#fff" viewBox="0 0 19.04 20.61"><path d="M19.43 10.36q-.15.55-.15.9v.07q0 .45-.12.85-.06.36-.3 1.02-.25.73-.25 1.12-.21.43-.66.79l-.03.85q-.7 1.63-2.54 3.08-1.97 1.58-3.73 1.58-.51 0-.96-.19-.15-.24-.4-.24-.24 0-.63.18-.24.12-.4.16-.15.06-.18.09-1.06-.4-1.42-.4-.24 0-.45.1-.52-.19-.91-.31-.36-.12-.66-.18-.7-.48-1.21-.88l-.91-.7q-1.45-1.17-1.9-1.8l-.73-1.4Q-.38 13.2-.38 10.6q0-1.93.72-4.38L1.5 4.55q.6-.9 1.45-1.33l.97.4-.4-.88q.16-.7 1-1.15Q5.82.92 5.95.8q.27-.03.57.3l.46.55.06-.73q.06-.4.24-.54.36-.3 2.36-.36.82-.03 1.45 0 .64 0 1.09.06l.82.39q.06.27-.03.42 0 .3.36.34.3-.06.4-.16.93.79 1.8 1 .5.4 1 1.1.52.69 1.13 1.66 1.39 2.3 1.39 3.69 0 .33-.1.6l.19.58q.15.3.3.66zM16.25 10q.03-.1.03-.3 0-.3-.27-1-.24-.73-.24-1 0-.24.09-.43l-1.03-1.24q-.63-.75-1.24-1l-.88-.81q-.51-.51-.57-1-.1.21-.3.49l-.18.06q-.43-.1-.88-.1-.18 0-1.4.1Q8.6 3.8 8 3.7q-.18.15-1.02.24-.6.03-.91.51-.6.42-1.3-.06.12 1.15-.46 1.45Q3.7 7.1 3.5 7.4q-.58.84-1.21 1.24l.3.72.24.12q.03.91-.21 1.12-.06.03-.21.03t-.4.03l1.16.52q-.1 1.24 1 4.11.36.12 3.65 2 .12 0 .94-.1l.55-.02q.27-.03.48-.03 1.3 0 1.9.63.13-.36.52-.88.36.03.85-.36.51-.42.81-.42.12 0 .22.03h.09q.2-.18.57-.85.4-.73.48-.82.8-.78.97-2.05.03-.28.03-.88.03-.6.03-1.54zm-3.6-.82q.28.88.28 1.57 0 .55-.19 1.12-.15.58-.15.7 0 .27.03.33.03.18.1.1l-.07-.1q-.12 0-.42.27-1.18 1.1-2.72 1.1-1.12 0-1.55-.25-.33-.24-.66-.51-.3-.28-.64-.55v-.36l-.2-.15-.22-.24-.63-2.06q-.06-.18 0-.48.09-.3.24-.64.18-.33.42-.63.27-.34.6-.61 1.22-.97 2.52-.97l1 .1q.2.27.75.66.24.06.4.15l.3.15q.51.27.81 1.3zm-1.78 1.54q0-.7-.46-1.15Q10 9.1 9.26 9.1q-.06 0-.12.06l-.06.24q-.87 0-1.27 1.03l.28.18q-.06.1-.13.58.06.12.79.84l.03-.06.15.06.21.06.03.04.1-.06q.03.06.2.03h.07l.4-.37q.17 0 .63-.18 0-.12.15-.4.15-.27.15-.42z"/></svg>
