<svg xmlns="http://www.w3.org/2000/svg" width="29.67" height="32" fill="#fff" viewBox="0 0 16.41 19.09"><path d="M17 7.96h-.54q.2 1.15.3 2.15.09 1 .12 1.84 0 .52-.03 1-.03.45-.09.88l-.67.51q.88.76.76 2.21-.06.33-.12.9l-.12 1.37q-.3.06-.58.06h-.3q-.21 0-.54-.03-1.1-.1-1.79.24l-.12-.06q-.12-.7-.18-1.42-.03-.73-.03-1.51 0-.7.03-1.4l.12-1.45 1.15-.78q-1.42-.52-1.3-2.42l.12-1.46.1-.87.02-.64.27-.45q-.33-.76-.51-1.58-.18-.81-.12-1.75l.18-3.12 1.09.1q.75.02.85.84l.6-.36.9-.52.19.06-.15 3.51.15.6q.09.37.15.86l-.06.84q-.03.73-.15 2.12zM9.38.24q-.21.3-.4.97.61 0 .8.4 0 .12.02.2-.15.5-.12 1.82 0 1.1-.45 1.67.42 1.15.48 3.96.03 1.51-.06 2.87-.09 1.33-.27 2.6l-.21.06-.64.88q1.21-.09 1.33 1.67.12 1.72-.57 1.72h-.64q-.4 0-.9-.03-.52-.03-.91-.03-.37-.03-.6-.03l-.16-1.36h.12l.15-1.4q.06-.5-.27-1.11.06-.15.1-.52l.05-.9q.06-.82.85-1.49l-.9-.2-.13-.28q.33-.82.24-2.78-.09-1.88.43-2.82-1-1.63-1.06-5.1 0-.89 1.48-.92.24-.03.79.03.57.03 1.45.12zm-7.6 15.34q1.16.54 1.12 1.63 0 .12-.06.58l-.18 1.24q-.24 0-1.33-.36-.9-.3-1.81.2-.15-.54-.22-1.93-.03-3.08.67-3.78l-.57-.36-.1-1.9q.04-1.13.73-2-.82-.8-.7-2.6.04-.4.16-1.13.12-.75.36-1.87l-.51-.55.06-1.45q0-.9.39-1.3.85-.03 2.81.42l.1.58.02.48q0 .52-.12.8h-.7q.94 1.9.97 4.1.03.67-.03 1.67-.06.97-.18 2.33.34.63.21 2.11-.06 1-.12 1.58l-.03.7z"/></svg>
