<svg xmlns="http://www.w3.org/2000/svg" width="23.06" height="32" fill="#fff" viewBox="0 0 10.9 20.99"><path d="m-1.42 6.8-.24.13-.36-.28q-.06-1.81.57-2.84.12-.21.49-.66l1-1.27.57.09Q1.33.07 4.06.07h.2q.22-.04.55-.07h.46q.24 0 .39.03.48.03.79.21l-.18 1.6q-.7.06-1.49.22-.75.15-1.57.36l-.33-.27q-.4.42-.91 1.06L.82 4.63l-.3.51-.21.06-.06.4v.39q0 1.06.39 2.06.45 1.15.45 1.2.49.1 1.21.94.37.16.91.34l1.27.36v-.09q0-.36-.15-.6-.42.15-.54.09-.67-.3-1.79-1.67l-.09-.57-.4-.28q.07-.45.1-.9l.06-.94-.27-.24 1.18-1.6q.36-.52.78-.7.43-.18.85-.12.45-.37 1.51-.6l.55.36.5-.28q2.73.79 3.19 2.45l-.37.46.6-.28q.64.91.64 2.42 0 .4-.09.7l-.48.27.06.28.24.12q0 1.75-3.11 3.23.27.21.3.49l.4-.15.72.5q.42.28.97.61.39.16.75.43.36.24.64.66l.93 1.52-.3.48.58.15q.12.49.27 1.79.09 1.2.3 1.78-.66.33-1.72.33-.52 0-.82-.15-.27-1.06-.06-1.96l-.21-.22q-.24-1.36-1.15-2.39-.9-1.02-2.21-1.48l.03.4-.54.7-.28 1.5.43-.6q.24.4.24.79-.03-.37-.03-.12v1.96q0 .33-.03.58v.45q-.49.27-.94.36l-.45-.21-.67.18-.3-.27q-.1-.42-.15-1.18-.03-.76 0-1.85l.24-.3q.03-.06-.03-.21t-.06-.21q0-.18-.03-.45l-.06-.58q0-.3-.03-.57-.03-.3-.03-.49l-1.7.36.1.34-.85.97q-.46.54-1.03.7l.12.48q-.64 1.2-.36 2.87l-.4.48-.51.06h-.4q-.57 0-1.17-.12l-.06-.9v-.43q0-1.12.3-1.9l.27-.12q-.06-.19-.06-.34 0-.78.9-1.93.76-1.03 1.64-1.49l.1.06q.5-.24.87-.39.4-.15.63-.21l1.03-.48-.6-.1q-1.48-.54-2-1.05l.03-.19-.15.03q-.09.03-.27.03l-.46-.06q-.39-.39-.93-1.3-.55-.39-.73-1.36l-.06-.45-.1-1.15zm8.65-1.6L6.66 5q.03.3.03.5.03.19.03.3 0 .8-.24 1.1.3.48.3 1.51 0 .33-.03.73-.03.36-.1.78l.28-.15q.18-.12.42-.24l.16.15q.15-.48.36-.85.24-.36.48-.66-.03-.25.15-.64l.06-.03q-.12-.21-.2-.85-.04-.18-.19-.39-.12-.21-.27-.42l-.3-.4q-.12-.2-.15-.33zm-2.93.12-.15.15q-.1.06-.21.19-.1.09-.22.24.1.18.1.4 0 .14-.1.5-.09.34-.09.49 0 .06.25.36.24.28.18.55l.42.2v-.17q.45-.21.45-.52 0 .03-.06-.15.03 0 .06.03.03.06.19.1-.19.08-.3.08-.43 0-.28-.9.03-.03.03-.19l-.06-.39-.09-1.06z"/></svg>
