<svg xmlns="http://www.w3.org/2000/svg" viewBox="0 0 15.774 16.38" width="32" height="32" fill="#FFFFFF"><path d="M15.774 2.859q-.787.363-1.936.363-.273 0-.817-.03-.514-.03-.756-.03-.726 0-1.09.18.03 1.06.364 2.632l.332.091q.212.635.545 1.543.333.907.847 2.087l-.151.454q-.091.272-.182.665l.06-.03.243-.12q.211-.092.272 0l2.178 5.353-.212.363q-.333-.302-.635-.363-.242.03-.454.091l-.363.121q-.786-.333-1.361.151-.484-.272-.847-1.905l.09-.273q-.18-.03-.302-.211l.303-.424q-.333-.12-.666-.363-1.391-3.932-1.361-4.477l.363-.423-.363-.212-.393.03q-.182-.212-.424-.726t-.484-1.3l-.726-2.24-.605.031q-.302.303-.302.666l-.273.181.152.393q-.242.545-.575 1.362-.333.816-.726 1.936-.182.514-.605.877-.393.333-.424.454.06.06.121.06.091 0 .152-.06l.242.484q-.03.15-.121.393-.06.212-.212.514l-.272.09-.121.243q.211 1.24-1.483 4.78-.242-.03-.605-.091-.332-.091-.786-.212-.242.242-.635.302-.394.03-.757.06-.06-.332.152-.786.12-.242.181-.423.091-.182.121-.272.06-.091.151-.454.121-.363.333-.968.514.212.575.12-.09-.302-.09-.695 0-.756.332-1.724.151-.424.272-.817l.303-.847q.302-.272.484-.575-.03-.393.181-1.21.121-.423.242-.695.121-.303.242-.515l.514-.242-.393-.211.908-2.874-.363-.212q-.484.06-.999.09-.484 0-.998-.03-.03-.15-.151-.453l-.09.06q-.122.394-.757.424-.03.03-.998-.03Q.044 2.768.044.076q.242-.06 2.813-.06 2.632 0 2.783.09.151.06.484.484.333.363.393.575l.212.12L6.517.47 6.79.076q.242-.06.787-.06.575-.031 1.452 0l.696.513q.12-.15.272-.272.151-.12.333-.242.665.182 2.45.182 1.815.03 2.48-.182l.273.09q0 .455.06 1.15.06.666.182 1.604z"/></svg>
