<svg xmlns="http://www.w3.org/2000/svg" width="23.71" height="32" fill="#fff" viewBox="0 0 10.31 18.78"><path d="m12.11 18.15-.09.48q-.21.22-.54.13l-.37-.07-.18-.06q-.4 0-1.06-.27-.18.15-.75.18-.6.06-.7.15-.48.1-1.18-1.05-.06-.19-.03-.34.03-.06.03-.12l.03-.18-1.7-1.09q-.05-.18-.54-.63-.36-.4-.36-.73 0-.15.03-.24-.09-.15-.33-.15-.15.03-.27.03h-.12q-.1-.21-.88-.82-.67-.54-.67-.97.15-.27.82-.97.57-.6.66-1.02.28-.22.67-1.15.4-.94.73-1.12 0-.3-.37-.46-.12-.06-.3-.24l-.42-.42q-.03-.1-.03-.18 0-.12.03-.18.24-.22.3-.4-.06-.06-.12-.06-.12 0-.36.21-.25.18-.43.18-.72 0-1.39-.51-.36-.3-.54-.27-.16.09-.1.27.04.1.04.15 0 .06.03.12-.25.46-.22 1.03.1 1.73.1 1.06l-.04 2.81q-.24.06-.48.25.03.24.36.81.12.21.15.55.07.3.13.78l.09 1 .03.4q0 1.11.03 1.96.06.82.12 1.33.03.24-.21.3l-.43-.06-1-.18q-.15-.03-.27-.03h-.24q-.48 0-.88.3-.03.03-.15.03-.18 0-.36-.42.18-.63.27-2-.24-.33-.24-.7 0-.17.03-.5.06-.37.06-.55 0-.21-.03-.3l-.18-3.27q.33-.33.3-.9-.06-.97-.03-1 .06-.19.06-.34 0-.21-.21-.6-.21-.43-.21-.64 0-.15.06-.33-.03-.73.18-2.12.27 0 .73-.45.45-.49.6-.55 0-.06.09-.12.06-.06 0-.12-.36.15-1.24.1-.36-.28-.33-.95.09-.93 0-1.05V.76q0-.28-.03.09.06-.64.33-.85l.36.09.88.82 1.33 1.06q.03.06.7.57.51.42.51.6 0 .19-.09.37l.1.09q.2 0 .6-.1.39-.11.57-.11.27 0 .97.48l1.18.82q.79.54 1 .94.63.51.78 1.06.25.06.91.12.52 0 .73.39.12.09.12.24 0 .1-.24.4-.22.3-.22.45-.36.15-.66.42v.7q-.33.4-.79 1-.42.6-1 1.48-.2.06-.42.3l1.12 1.33 1.12 1.21q0 .15-.33.33-.3.16-.34.22l1.18.27q.49.03 1.15.66.76.7 1.1.82z"/></svg>
