<svg xmlns="http://www.w3.org/2000/svg" viewBox="0 0 20.934 20.971" width="32" height="32" fill="#FFFFFF"><path d="M20.934 10.3q-.482.704-1.667.63-.334-.333-.853-.556l-.407.297-1.445.11q-.482.038-.815-.036-.334-.074-.593-.185-1.593.259-3.15 0-.11.222-.333 1.185-.222.964-.222 1.186 0 .556 1.519.963 1.778.408 2.038.89 0 .407-.111.74l.185.371q.296-.074.63-.148.333-.074.667-.222.185.185.481.37.297.185.704.37.26.593 1.297 1.52.593.592.815 1.333.297.964.556 1.408l-.333.37q-.334-.147-.89-.073-.74.111-.889.111-.74 0-.963-.963-.111-.408-1.408-1.557-.741-.63-1.149-1.074-.407-.445-.556-.63-3.482-.63-3.556-.63-.297 0-.704.074-.371.037-.816.112l-.815.148q-.407.037-.667.037h-.296q-.148 0-.296-.037-.149.037.148.63-.186.11-.556.407l-.852.667q-.741.63-1.52.926l.297.556q-.185.704-.445 1.297l-.666.074q-.334 0-.927-.074t-1.037-.037q-.074-.297-.074-.37-.037-.075-.037-.149 0-1.223.778-2.334.185-.296.593-.704.407-.445 1.037-1.075l.852.186q.185-.556.63-1.075.482-.518 1.334-.889l2.594-1.111.037-2.557q-.371-.26-1.668-.26-.074 0-.333.038-.223 0-.63.037-.26.037-.482.037l-.37-.074q-.445-.037-.927-.408-.852.519-1.963.519h-.482q-.26-.037-.63-.074-.407-.037-.704-.037-.26-.037-.407-.037l-.223-.556.074.037.075-.222q0-.26-.186-.741Q.037 8.52 0 8.337q.26-.371 1.445-.371 2.038 0 2.89.963.408-.555.89-.926l.666.111q.222 0 .556-.037l.667-.074q.37-.074.704-.111.37-.074.593-.074-.37-.334-.778-.667-.37-.37-.704-.778-.334-.408-.556-.89-.185-.481-.185-1.074v-.185q.481-.111.778-.334-.482 0-.704-.407Q6.817 1.63 8.04.778l.185.074Q8.966 0 10.411 0q1.668 0 2.742 1 .037.186.074.408.037.185.074.482.816.704.964 1 .333.519.333 1.37 0 1.52-.518 2.039-1 1-1.075 1.111l-.519.26q.223.074 1.408.074.778 0 1.445.963.037-.482.593-.89h.556q1.704 0 2.26.408.593-.37 2.112-.481v1.074q.037.63.074 1.482zm-10.67-7.855q-.334 0-.668.186-.296.148-.555.444-.26.26-.445.593-.148.297-.148.63 0 .296.296.408.148.666.963 1 1.038.407 1.26.593v-.074q0-.334.556-.778.593-.445.593-.741 0-1.445-.556-1.779-.815-.482-1.297-.482z"/></svg>
