<svg xmlns="http://www.w3.org/2000/svg" viewBox="0 0 16.123 16.352" width="32" height="32" fill="#FFFFFF"><path d="M15.972 10.224q-.514 1.513-1.694 2.753-.242.696-1.634 1.543-.181.242-.847.544-.635.333-.816.726-.152.242-.636.182-.484-.03-.665.242-.182.06-.363-.151-.182-.242-.303-.242-.09 0-.211.09-.182 0-.394-.211l-.907.635q-.272.06-.787-.09-.514-.182-.816-.092-.303-.12-.666-.574.09-.121.151-.605-.09-.152-.211-.152-.06 0-.242.121-.152.091-.242.091-.182.03-.424.091-.212.03-.484.151-.12-.272-.756-.575-.605-.332-.726-.605-.666-.786-1.603-2.45l.09-.726q-.544-.09-.605-.635.212-.212.182-.908-.06-.695.09-.937-.211-.182-.211-.515 0-.181.09-.574.091-.394.091-.575 0-.393-.211-.605Q0 5.959 0 5.778q0-.273.423-.696.454-.484.484-.696.303-.575.999-1.361.544-.696 1.119-1.3.272.03.817-.213.211-.483 1.089-.483.847-.03 1.089-.545l.302-.151q.151-.121.363.03 1.09-.544 2.087-.272l.726.756q.091.09.182.09.06 0 .181-.12.152-.121.242-.121l.726.242q.454.12 1.06.272.574.03 1.179.696.696.816.998 1.028 0 .06.363.545.242.393.242.635t-.181.423l.302.152q.182.09.333-.091.09.03.423.817l.091.453q.091.303.242.787.242.877.242 1.27 0 .575-.333 1.06-.06.18-.06.211 0 .151.151.484.151.333.091.544zm-7.835.575q-.212-.212-.302-.665.15-.515.09-1.301-.03-.756-.06-1.059v-.242l.151-.302q.06-.182.06-.303 0-.09-.12-.242-.091-.181-.212-.363-.121-.212-.212-.393-.09-.182-.09-.333.06-.423.393-.514.181-.393.181-1.12V2.814q-1.512-.181-2.057.545-.423.242-1.452.09-.03.757-1.059 1.604-.847.665-.847 2.178 0 .272.091 1.3-.09.152-.06.878 0 .544-.333.695.242-.06.575.363.09.273.816.908.605.514.484 1.059.152.514.545.514.09 0 .302-.03t.303-.03q.333 0 .514.241.121-.09.303-.09.12 0 .302.09.182.091.363.212.182.091.363.212.182.09.303.09.09-.06.332-.03.242 0 .273-.211-.152-.454-.152-.878 0-.332.091-.877.121-.605.121-.847z"/></svg>
