<svg xmlns="http://www.w3.org/2000/svg" width="32.88" height="32" fill="#fff" viewBox="0 0 20.69 19.6"><path d="M20.45 15.74q-.03.74-.47 1.08-.1.6-1.24 1.43-.68.13-.75.62-.62.63-2.02.75-.34.06-2.23.1l-.13-.16q-.03 0-.15.12-.13.13-.19.13-1.24-.22-3.02-2-.12-1.05-.52-1.05-.07 0-.19.06-.56-.56-.87-2.23-.28-1.46-1.18-2-.53-.61-1.52-.61-.6 0-1.46.21-.9.44-1.3 1.56l-.54 2.08q.34.65 1.27 1.43.07.18.07.25 0 .18-.19.5l-.22.5q-.15.05-.34.27-.18.19-.43.5-.5.59-.9.59-1.56-1.65-1.56-2.3 0-.37.13-.65H.03q-.03-.5-.03-.94v-.83Q0 13.62.19 13l.46-.22q-.18-.12-.18-.3 0-.04.34-.47.37-.4.3-.66.16.07.38-.18.22-.28.25-.28l.19.06q.53-1.52 3.38-1.74.04.34.28.93.13-.4.66-.93.12-.03.4-.03.19 0 .47.1.3.05.62.15l.56.18q.25.07.4.07l.87.62q1.37-.38 1.84-1.87l.8-2.6q.13-.38-.22-1.03-.34-.81-.37-1-1.7-1.09-3.32-.96-.13.22-1.06.59-.93.4-1.06.75-.15-.04-.77-.75-.56-.68-1.03-.68-.22-.1-.22-.28.04-.07.1-.25l.25-.47q.34-.3.84-.62.52-.34 1.18-.72.56-.3 1.3-.46.22-.22.44-.22.18 0 .59.22.4.19.59.19.15 0 .34-.07l.28.22q.25-.34.62-.34.19 0 .59.19.4.15.6.15l1.17.75q.65.5.6 1.12.64.18 1.02 1.15.59 1.52.68 1.64-.15.16-.15.38 0 .12.3.96.04.93-1.3 3.39 0 .09-.12.21-.1.13-.25.22-.13.1-.25.16l-.1.06q0 .1.13.22-.15.52-1.06 1.61-.93 1.09-.93 1.62 0 .37.13.65l.65 1.18q.4.72.96.96.16.1.87.16.56.15.69.4l-.13.1q.19.12.31.09.16-.4 1.03-.8.9-.47 1.05-.82.35-.68.35-1.46 0-1.4-.87-2.45.06-.37.52-.8l.75-.7q0-.33.4-.93 1.25.81 1.87 2.24.65 1.4.43 2.9z"/></svg>
