<svg xmlns="http://www.w3.org/2000/svg" viewBox="0 0 21.114 15.579" width="32" height="32" fill="#FFFFFF"><path d="M19.632 8.046q0 .424-.635.908-.756.575-.847.817-1.24.937-2.723 2.783-.03.03-.15.03-.061 0-.213-.121-.15-.121-.211-.121l-.06.06-.092.091q0 .696-.574 1.27l-1.422 1.513-.303-.272q-.15-.121-.242-.575-.06-.484-.12-1.028 0-.06-.122-.152-.12-.09-.12-.15 0-.243-.545-1.21-.212.06-.635.513-.212.242-.394.333-.15.091-.272.151-.12.03-.242.091-.09.06-.181.212l-.152.302q-.453.212-1.573 1.755h-.12q-.152 0-.394-.151-.242-.545-.393-.999-.151-.453-.182-.816l.182-.273.03-.12q.03-.152.06-.333.061-.182.091-.363.061-.182.061-.273 0-.242-.121-.242-.182 0-.575.303l-.454.333q-.12.151-.302.363-.151.181-.393.423l-.091-.06q-.121 0-.514.302-.394.303-.484.303l-.091-.091v-.03h-.03l-.091.09q-.03.03-.272.152-.06.06-.06.09t.09.152q.09.12.09.151.031.544-1.119 1.24H2.33q-.272 0-.847.091-.575.09-.847.09-.393 0-.635-.332.03-.303.514-.787.484-.484.575-.665.121-.121.454-.484.363-.363.968-.998.423-.484.816-.817.394-.363.787-.605.393-.09.393.303.03.211.182.302.181-.151.514-.938l.302-1.028q.424-.091.424-.605l.484-.636q.333-.423.635-.514.605 0 .696.605.181.877.212.938.12.242.332.605.212.363.545.786.09-.03.181-.15l.242-.243q.121-.12.212-.242.121-.12.182-.151.242-.03.393-.03.181-.03.333-.03.302 0 .363.06.302-.212.302-.333 0-.03-.151-.06-.151-.06-.212-.121l-.423.03q-.03-.303.484-.756.544-.484.574-.696l.424-.363q.212-.212.454-.212.09 0 .211.06l.212.636.303 1.27q-.091.091-.091.333.212.091.484.605t.363.545q.272-.03.605-.454.333-.454.423-.484.03.03.666-.03.272-.03.635.12.09-.06.03-.12l-.12-.152q-.091-.06-.303-.332 0-.121.242-.363.272-.273.302-.363.091-.515 1.12-.999.181-.06.302-.06.242 0 .666.121.453.12.665.12.242 0 .393-.09.152-.06.333.272zM2.692 6.927q0-.12-.09-.212-.061-.12-.061-.15 0-.122.212-.273.211-.182.514-.514 1.24-.938 2.722-2.783.03-.03.152-.03.06 0 .211.12.152.121.212.121l.06-.06.091-.09q0-.636.575-1.271L8.44.545l.272-.061q.151-.03.302.06.454.303.666 1.604-.06.181-.06.302 0 .272.544 1.21.212-.06.605-.484.212-.242.393-.333.182-.12.303-.15.12-.061.211-.122.121-.06.212-.212l.151-.302q.696-.333 1.876-2.057-.06.06.12.907.061 0 .031-.272l.06-.181q.122.272.212.786.121.514.182 1.301l.393.484q.212.302.514.212.121-.152.273-.333.181-.212.423-.454.121.182.454.363-.03-.09-.03-.242 0-.484.574-.877.03-.09.333-.272.303-.182.363-.273-.03-.484.877-.998h.394q.242 0 .847-.09.211-.03.332.09.152.121.212.121.393 0 .635.333-.06.333-.514.786l-.605.636-1.089 1.21q-.847.937-1.603 1.421-.393.091-.393-.302-.03-.212-.182-.303-.12.091-.212.938L15.73 6.02l-.666.907-.695.847q-.333-.575-.908-1.543-.03-.211-.181-.544-.152-.333-.394-.847-.302.09-.726.393-.302.363-.393.393l-.605.484q.03.303-.484.787-.544.454-.575.665l-.423.363q-.212.212-.454.212-.09 0-.212-.06l-.211-.636-.303-1.27q.091-.09.091-.333-.212-.09-.484-.575-.303-.544-.363-.574-.333.06-.635.453-.152.212-.242.333-.091.121-.152.151-.12-.12-.332-.09-.212.03-.212.181 0 .06.03.09.03.061-.03.092-.06.03-.151.09-.091.03-.182.091-.06.03-.06.09 0 .061-.091.152-.06.09-.151.212-.091.09-.182.212-.09.09-.09.12-.091.515-1.12.999-.181.06-.302.06-.303 0-.666-.12-.151-.03-.272-.152-.121-.12-.182-.12-.12 0 .121-.182l.182-.182q-.151.06-.333-.242z"/></svg>
