<?xml version="1.0" encoding="UTF-8" standalone="no"?>
<!-- Created with Inkscape (http://www.inkscape.org/) -->

<svg
   xmlns:dc="http://purl.org/dc/elements/1.1/"
   xmlns:cc="http://creativecommons.org/ns#"
   xmlns:rdf="http://www.w3.org/1999/02/22-rdf-syntax-ns#"
   xmlns:svg="http://www.w3.org/2000/svg"
   xmlns="http://www.w3.org/2000/svg"
   xmlns:sodipodi="http://sodipodi.sourceforge.net/DTD/sodipodi-0.dtd"
   xmlns:inkscape="http://www.inkscape.org/namespaces/inkscape"
   width="18.149979mm"
   height="20.630392mm"
   viewBox="0 0 18.149979 20.630392"
   version="1.1"
   id="svg11471"
   inkscape:version="0.92.3 (2405546, 2018-03-11)"
   sodipodi:docname="rune_air.svg">
  <defs
     id="defs11465" />
  <sodipodi:namedview
     id="base"
     pagecolor="#ffffff"
     bordercolor="#666666"
     borderopacity="1.0"
     inkscape:pageopacity="0.0"
     inkscape:pageshadow="2"
     inkscape:zoom="0.35"
     inkscape:cx="-462.84369"
     inkscape:cy="38.986568"
     inkscape:document-units="mm"
     inkscape:current-layer="layer1"
     showgrid="false"
     inkscape:window-width="1920"
     inkscape:window-height="1024"
     inkscape:window-x="-4"
     inkscape:window-y="-4"
     inkscape:window-maximized="1" />
  <metadata
     id="metadata11468">
    <rdf:RDF>
      <cc:Work
         rdf:about="">
        <dc:format>image/svg+xml</dc:format>
        <dc:type
           rdf:resource="http://purl.org/dc/dcmitype/StillImage" />
        <dc:title></dc:title>
      </cc:Work>
    </rdf:RDF>
  </metadata>
  <g
     inkscape:label="Layer 1"
     inkscape:groupmode="layer"
     id="layer1"
     transform="translate(-96.758344,-138.51814)">
    <g
       aria-label="g"
       style="font-style:normal;font-variant:normal;font-weight:normal;font-stretch:normal;font-size:10.58333302px;line-height:1.25;font-family:'Glorantha Core Runes';-inkscape-font-specification:'Glorantha Core Runes';letter-spacing:0px;word-spacing:0px;fill:#000000;fill-opacity:1;stroke:none;stroke-width:0.26458332"
       id="text963"
       transform="matrix(2.858258,0,0,2.858258,-42.642697,73.749477)">
      <path
         d="m 54.348733,29.084257 q -0.148167,0.116416 -0.28575,0.3175 -0.169334,0.105833 -0.391584,0.1905 -0.22225,0.07408 -0.518583,0.148166 -0.518583,0.137584 -0.973667,0.137584 -0.370416,0 -0.60325,-0.15875 -0.08467,-0.05292 -0.296333,-0.28575 -0.137583,-0.137584 -0.243417,-0.127 -0.254,0.03175 -0.1905,0.03175 -0.105833,0 -0.243416,-0.105834 -0.1905,-0.148166 -0.232834,-0.15875 -0.09525,-0.127 -0.22225,-0.243416 -0.116416,-0.127 -0.232833,-0.232833 -0.105833,-0.105834 -0.201083,-0.201084 -0.09525,-0.09525 -0.137584,-0.15875 -0.148166,-0.22225 -0.275166,-0.719666 l 0.105833,-0.116417 Q 49.014733,27.28509 48.940649,27.136924 v -0.04233 q 0,-0.105833 -0.07408,-0.28575 -0.07408,-0.1905 -0.07408,-0.28575 0,-0.105833 0.05292,-0.211666 -0.07408,-0.148167 -0.07408,-0.328084 0,-0.370416 0.338667,-0.772583 0.03175,-0.423333 0.127,-0.465667 l 0.391583,-0.127 -0.0635,-0.0635 q -0.08467,-0.02117 -0.1905,-0.02117 l -0.09525,-0.01058 q -0.05292,-0.07408 -0.05292,-0.137583 0.22225,-0.5715 0.910167,-1.016 0.41275,-0.264583 1.259417,-0.60325 -0.01058,0.105833 0.07408,0.127 0.05292,0 0.09525,0 0.04233,0 0.08467,-0.01058 0.04233,0.0635 0.03175,0.127 h 0.02117 q 0.08467,0 0.381,-0.328084 0.05292,-0.01058 0.116417,-0.01058 0.0635,-0.01058 0.137583,-0.01058 0.624417,0 1.280584,0.254 0.79375,0.296333 0.952499,0.804333 -0.02117,0.0635 -0.08467,0.137583 -0.05292,0.0635 -0.127,0.137584 -0.0635,0.07408 -0.127,0.148166 -0.05292,0.0635 -0.07408,0.116417 l -0.127,0.03175 q -0.508,-0.381 -1.195917,-0.560917 -0.08467,-0.116416 -0.116417,-0.28575 -0.08467,0.02117 -0.127,0.09525 l -0.105833,0.127 q -0.211667,0.03175 -0.73025,0.254 -0.4445,0.201084 -0.751417,0.201084 -0.148166,0.15875 -0.232833,0.148166 h -0.03175 q -0.0635,-0.0635 -0.179917,-0.0635 0.02117,0.105834 0.02117,0.169334 0,0.232833 -0.148167,0.465666 l -0.264583,0.433917 q -0.05292,0.08467 -0.08467,0.243417 -0.03175,0.148166 -0.07408,0.381 -0.08467,0.402166 -0.22225,0.592666 0.1905,0.05292 0.254,0.338667 l 0.09525,0.455083 q 0.05292,0.05292 0.169333,0.201084 0.116417,0.137583 0.296334,0.34925 0.148166,0.179916 0.275166,0.306916 0.137584,0.116417 0.254,0.1905 0.05292,0.07408 0.05292,0.15875 0,0.08467 -0.0635,0.28575 0.359833,-0.22225 0.455083,-0.22225 0.05292,0 0.15875,0.04233 0.116417,0.04233 0.1905,0.04233 0.08467,0 0.254,-0.03175 0.179917,-0.04233 0.264584,-0.04233 0.105833,0 0.169333,0.03175 0.01058,0.09525 0.05292,0.190499 0.137583,-0.179916 0.201083,-0.264583 0.07408,-0.09525 0.08467,-0.105833 0.179916,-0.211667 0.359833,-0.254 0.05292,-0.105833 0.1905,-0.211667 l 0.127,0.03175 q -0.02117,-0.0635 -0.02117,-0.105833 0,-0.148167 0.169334,-0.34925 0.179916,-0.232833 0.179916,-0.34925 0,-0.105833 -0.0635,-0.201083 l -0.01058,-0.127 q -0.01058,-0.232834 0.127,-0.328084 -0.04233,-0.01058 -0.105833,0.01058 -0.0635,0.01058 -0.09525,0.01058 -0.01058,0 -0.07408,-0.02117 -0.105833,-0.211666 -0.41275,-0.359833 -0.28575,-0.116417 -0.550333,-0.116417 -0.28575,0 -0.529167,0.243417 -0.148166,0.47625 -0.148166,0.47625 0,0.116417 0.105833,0.211667 0.02117,0.0635 0,0.08467 -0.0635,0.254 -0.338667,0.306917 -0.402166,0.07408 -0.486833,0.127 -0.169333,-0.04233 -0.254,-0.148167 -0.211667,-0.73025 -0.211667,-0.878416 0,-0.232834 0.137584,-0.402167 0.04233,-0.137583 0.137583,-0.232833 0.105833,0 0.201083,-0.03175 -0.02117,-0.05292 -0.08467,-0.09525 -0.0635,-0.05292 -0.0635,-0.105834 v -0.02117 q 0.60325,-0.5715 1.439333,-0.656167 0.01058,0 0.232833,0.232833 l 0.07408,-0.01058 0.07408,-0.201083 q 0.656167,0.05292 0.867833,0.275166 -0.02117,0.105834 -0.01058,0.179917 v 0.127 h 0.02117 q 0.0635,0 0.148166,-0.105833 0.08467,-0.105834 0.15875,-0.105834 0.09525,0 0.211667,0.08467 0.127,0.08467 0.243416,0.264583 l 0.338667,0.508 v 0.03175 q -0.01058,0.137584 0.03175,0.391584 0.02117,0.127 0.03175,0.22225 0.02117,0.09525 0.02117,0.148166 0,0.22225 -0.116417,0.402167 l 0.07408,0.3175 -0.613833,1.005416 q -0.04233,0.02117 -0.105833,0.0635 -0.05292,0.03175 -0.127,0.08467 v 0.03175 q 0,0.05292 0.05292,0.127 0.05292,0.0635 0.0635,0.08467 z"
         style="stroke-width:0.26458332"
         id="path4057"
         inkscape:connector-curvature="0" />
    </g>
  </g>
</svg>
