<?xml version="1.0" encoding="UTF-8" standalone="no"?>
<!-- Created with Inkscape (http://www.inkscape.org/) -->

<svg
   xmlns:dc="http://purl.org/dc/elements/1.1/"
   xmlns:cc="http://creativecommons.org/ns#"
   xmlns:rdf="http://www.w3.org/1999/02/22-rdf-syntax-ns#"
   xmlns:svg="http://www.w3.org/2000/svg"
   xmlns="http://www.w3.org/2000/svg"
   xmlns:sodipodi="http://sodipodi.sourceforge.net/DTD/sodipodi-0.dtd"
   xmlns:inkscape="http://www.inkscape.org/namespaces/inkscape"
   width="20.90267mm"
   height="18.645277mm"
   viewBox="0 0 20.90267 18.645277"
   version="1.1"
   id="svg25139"
   inkscape:version="0.92.3 (2405546, 2018-03-11)"
   sodipodi:docname="rune_beast.svg">
  <defs
     id="defs25133" />
  <sodipodi:namedview
     id="base"
     pagecolor="#ffffff"
     bordercolor="#666666"
     borderopacity="1.0"
     inkscape:pageopacity="0.0"
     inkscape:pageshadow="2"
     inkscape:zoom="0.35"
     inkscape:cx="-457.64175"
     inkscape:cy="35.23517"
     inkscape:document-units="mm"
     inkscape:current-layer="layer1"
     showgrid="false"
     inkscape:window-width="1920"
     inkscape:window-height="1024"
     inkscape:window-x="-4"
     inkscape:window-y="-4"
     inkscape:window-maximized="1" />
  <metadata
     id="metadata25136">
    <rdf:RDF>
      <cc:Work
         rdf:about="">
        <dc:format>image/svg+xml</dc:format>
        <dc:type
           rdf:resource="http://purl.org/dc/dcmitype/StillImage" />
        <dc:title></dc:title>
      </cc:Work>
    </rdf:RDF>
  </metadata>
  <g
     inkscape:label="Layer 1"
     inkscape:groupmode="layer"
     id="layer1"
     transform="translate(-95.381999,-139.5107)">
    <g
       aria-label="B"
       style="font-style:normal;font-variant:normal;font-weight:normal;font-stretch:normal;font-size:10.58333302px;line-height:1.25;font-family:'Glorantha Core Runes';-inkscape-font-specification:'Glorantha Core Runes';letter-spacing:0px;word-spacing:0px;fill:#000000;fill-opacity:1;stroke:none;stroke-width:0.26458332"
       id="text1453"
       transform="matrix(2.858258,0,0,2.858258,-52.51839,-88.970869)">
      <path
         d="m 59.05802,80.159588 q -0.105833,0.179917 -0.254,0.465667 -0.137583,0.28575 -0.317499,0.687916 -0.05292,0.01058 -0.09525,0.02117 -0.04233,0 -0.09525,0.02117 0.03175,0.116416 -0.34925,0.910166 -0.148167,0.328084 -0.275167,0.5715 -0.127,0.232834 -0.211667,0.381 -0.179916,0.08467 -0.41275,0.656167 -0.22225,0.518583 -0.391583,0.47625 l -0.0635,0.08467 q 0,0.0635 0,0.105833 0.01058,0.04233 0.01058,0.07408 0,0.04233 0.01058,0.05292 0,0.02117 -0.41275,0.635 -0.08467,0.116417 -0.201084,0.359833 -0.116416,0.243417 -0.264583,0.60325 -0.09525,0.22225 -0.296333,0.1905 -0.05292,-0.179916 -0.306917,-0.529166 -0.243417,-0.359834 -0.264583,-0.550334 -0.243417,-0.08467 -0.1905,-0.328083 0.05292,-0.306917 -0.01058,-0.381 0.01058,-0.296333 -0.07408,-0.402167 l -0.04233,0.201084 q -0.04233,0.137583 -0.127,0.137583 -0.465667,-0.497417 -0.433917,-0.878417 -0.306917,-0.232833 -0.592667,-0.613833 -0.275166,-0.381 -0.550333,-0.899583 l -0.5715,-1.068917 Q 51.74494,80.17018 51.74494,80.149014 q 0.01058,-0.02117 0.01058,-0.05292 0.01058,-0.03175 0.03175,-0.0635 0.148166,-0.02117 0.370416,0.09525 0.211667,-0.22225 0.73025,-0.179916 0.03175,0.02117 1.04775,0 0.709084,0 0.994834,0.137583 l 0.116416,-0.105833 0.963084,-0.01058 q 0.08467,0 0.22225,-0.01058 0.137583,-0.02117 0.1905,-0.02117 0.275166,0 0.402166,0.328083 0.08467,-0.01058 0.296334,-0.275166 l 0.846666,0.01058 q 0.04233,0.0635 0.09525,0.07408 0.03175,0 0.15875,-0.0635 0.09525,-0.04233 0.15875,-0.03175 0.0635,0 0.201084,-0.01058 0.148166,-0.01058 0.201083,-0.01058 0.264583,0 0.275166,0.201083 z m -1.979083,0.613833 q -0.179916,-0.02117 -0.465666,-0.137583 -0.3175,0.116417 -1.005417,0.116417 -0.53975,0 -0.635,-0.116417 l -0.169333,-0.201083 q -0.179917,0.243416 -0.497417,0.306916 -0.127,0.04233 -0.592667,0.05292 0.0635,0.08467 0.22225,0.179917 0.169334,0.09525 0.22225,0.169333 0.264584,0.0635 0.592667,0.28575 l 0.560917,0.359833 q 0.05292,0.03175 0.243416,-0.04233 0.179917,-0.07408 0.264584,-0.07408 0.05292,0 0.07408,0.01058 0.03175,-0.15875 0.370417,-0.338667 0.34925,-0.169333 0.391583,-0.275166 0.08467,-0.04233 0.1905,-0.116417 0.105833,-0.07408 0.232833,-0.179917 z m 0.211667,0.9525 q -0.148167,0.116417 -0.47625,0.28575 -0.137583,-0.08467 -0.22225,-0.05292 -0.03175,0.15875 -0.433917,0.433916 -0.402166,0.275167 -0.381,0.423334 0.0635,0.370416 0.0635,0.328083 0,0.137583 -0.116416,0.1905 0.201083,0.04233 0.201083,0.243417 v 0.105833 q -0.01058,0.05292 -0.01058,0.116417 0,0.09525 0.05292,0.179916 0.116417,-0.15875 0.423334,-0.465666 -0.01058,-0.04233 -0.02117,-0.07408 0,-0.03175 0,-0.07408 0,-0.179917 0.15875,-0.391583 0.09525,-0.01058 0.179917,-0.201084 0.04233,-0.09525 0.07408,-0.148166 0.03175,-0.05292 0.0635,-0.09525 0.03175,-0.05292 0.0635,-0.09525 0.04233,-0.04233 0.09525,-0.127 l -0.01058,-0.07408 q 0.116416,-0.08467 0.296333,-0.508 z m -2.137833,2.31775 q 0.02117,-0.116416 -0.02117,-0.232833 0.08467,-0.148167 0.08467,-0.296333 0,-0.137584 -0.116417,-0.402167 -0.116417,-0.264583 -0.116417,-0.381 0,-0.105833 0.04233,-0.1905 -0.137584,0.02117 -0.254,-0.105833 -0.116417,-0.127 -0.211667,-0.254 -0.22225,-0.04233 -0.529167,-0.28575 -0.34925,-0.306917 -0.486833,-0.34925 0.105833,0.264583 0.455083,0.751416 -0.01058,0.04233 -0.04233,0.105834 -0.02117,0.0635 -0.07408,0.148166 h 0.116416 q 0.264584,0.15875 0.66675,0.814917 0.402167,0.656167 0.4445,0.687917 z"
         style="stroke-width:0.26458332"
         id="path3970"
         inkscape:connector-curvature="0" />
    </g>
  </g>
</svg>
