<?xml version="1.0" encoding="UTF-8" standalone="no"?>
<!-- Created with Inkscape (http://www.inkscape.org/) -->

<svg
   xmlns:dc="http://purl.org/dc/elements/1.1/"
   xmlns:cc="http://creativecommons.org/ns#"
   xmlns:rdf="http://www.w3.org/1999/02/22-rdf-syntax-ns#"
   xmlns:svg="http://www.w3.org/2000/svg"
   xmlns="http://www.w3.org/2000/svg"
   xmlns:sodipodi="http://sodipodi.sourceforge.net/DTD/sodipodi-0.dtd"
   xmlns:inkscape="http://www.inkscape.org/namespaces/inkscape"
   width="20.755764mm"
   height="20.594662mm"
   viewBox="0 0 20.755764 20.594662"
   version="1.1"
   id="svg27490"
   inkscape:version="0.92.3 (2405546, 2018-03-11)"
   sodipodi:docname="rune_cold.svg">
  <defs
     id="defs27484" />
  <sodipodi:namedview
     id="base"
     pagecolor="#ffffff"
     bordercolor="#666666"
     borderopacity="1.0"
     inkscape:pageopacity="0.0"
     inkscape:pageshadow="2"
     inkscape:zoom="0.35"
     inkscape:cx="39.223488"
     inkscape:cy="38.919046"
     inkscape:document-units="mm"
     inkscape:current-layer="layer1"
     showgrid="false"
     inkscape:window-width="1920"
     inkscape:window-height="1024"
     inkscape:window-x="-4"
     inkscape:window-y="-4"
     inkscape:window-maximized="1" />
  <metadata
     id="metadata27487">
    <rdf:RDF>
      <cc:Work
         rdf:about="">
        <dc:format>image/svg+xml</dc:format>
        <dc:type
           rdf:resource="http://purl.org/dc/dcmitype/StillImage" />
        <dc:title></dc:title>
      </cc:Work>
    </rdf:RDF>
  </metadata>
  <g
     inkscape:label="Layer 1"
     inkscape:groupmode="layer"
     id="layer1"
     transform="translate(36.080262,-138.536)">
    <g
       transform="matrix(2.853305,0,0,2.853305,-158.73577,8.3980539)"
       id="g26841"
       style="font-style:normal;font-variant:normal;font-weight:normal;font-stretch:normal;font-size:10.58333302px;line-height:1.25;font-family:'Glorantha Core Runes';-inkscape-font-specification:'Glorantha Core Runes';letter-spacing:0px;word-spacing:0px;fill:#000000;fill-opacity:1;stroke:none;stroke-width:0.26458332"
       aria-label="MQ0">
      <path
         inkscape:connector-curvature="0"
         id="path26837"
         style="stroke-width:0.26458332"
         d="m 47.351037,49.567711 c 0.01411,-0.07056 0.02117,-0.123473 0.02117,-0.15875 0,-0.155223 -0.112889,-0.419806 -0.338666,-0.79375 -0.09878,-0.09878 -0.239889,-0.148167 -0.423334,-0.148167 -0.05645,0 -0.141113,0.0071 -0.253999,0.02117 -0.105833,0.0071 -0.186972,0.01058 -0.243417,0.01058 -0.246945,0.211667 -0.352778,0.41275 -0.3175,0.60325 -0.02822,0.02822 -0.04233,0.08114 -0.04233,0.15875 0,0.07761 -0.01411,0.130528 -0.04233,0.15875 -0.0071,0.0635 0.0035,0.151694 0.03175,0.264583 0.07056,0.05645 0.141112,0.112891 0.211667,0.169334 0.07055,0.04939 0.141111,0.102303 0.211667,0.15875 0.169333,0.112889 0.335138,0.162277 0.497416,0.148166 0.01411,-0.01411 0.0635,-0.01411 0.148167,0 0.176389,-0.09172 0.356305,-0.289277 0.53975,-0.592666 z m 1.30175,-3.20675 0.22225,0.01058 c 0.03528,0.03528 0.05292,0.08114 0.05292,0.137584 0,0.05645 -0.01411,0.116419 -0.04233,0.179916 0.04939,0.02117 0.130526,0.04586 0.243417,0.07408 0.119944,0.02117 0.201083,0.04233 0.243416,0.0635 0.112889,0.0635 0.345723,0.486833 0.6985,1.27 l -0.211666,0.254 h 0.179916 c 0.105833,0.127 0.176389,0.34925 0.211667,0.66675 0.02822,0.296333 -3e-6,0.525639 -0.08467,0.687917 -0.02117,0.04939 -0.07408,0.105831 -0.15875,0.169333 -0.07761,0.0635 -0.141111,0.09172 -0.1905,0.08467 0.03528,0.105833 0.03881,0.22225 0.01058,0.34925 -0.01411,0.08467 -0.02822,0.155222 -0.04233,0.211667 -0.0071,0.05645 -0.0071,0.09878 0,0.127 -0.07761,0.04233 -0.158749,0.09172 -0.243416,0.148166 l -0.01058,0.105834 c 0.05645,0.07761 0.08467,0.155222 0.08467,0.232833 0,0.04939 -0.01764,0.109359 -0.05292,0.179917 -0.254,0.493889 -0.680861,0.871361 -1.280583,1.132416 -0.493889,0.218723 -1.058333,0.345723 -1.693333,0.381 -0.03528,-0.07055 -0.04234,-0.165805 -0.02117,-0.28575 0.0071,-0.02822 0.01058,-0.05291 0.01058,-0.07408 v -0.07408 c 0,-0.04233 -0.0071,-0.09172 -0.02117,-0.148167 -0.169333,0.09878 -0.268111,0.208139 -0.296333,0.328083 -0.07761,0.05645 -0.141111,0.08467 -0.1905,0.08467 -0.04939,0 -0.09172,-0.01411 -0.127,-0.04233 -0.07056,0.04233 -0.254001,0.02117 -0.550334,-0.0635 -0.246944,-0.07056 -0.433916,-0.137584 -0.560916,-0.201084 -0.127,-0.07055 -0.1905,-0.165805 -0.1905,-0.28575 -0.119945,-0.02822 -0.225778,-0.07055 -0.3175,-0.127 L 44.15487,51.832544 c -0.0071,-0.0635 -0.0635,-0.165806 -0.169333,-0.306917 -0.08467,-0.112889 -0.134056,-0.218722 -0.148167,-0.3175 0.141111,-0.127 0.22225,-0.261055 0.243417,-0.402166 -0.148167,0 -0.282222,0.05997 -0.402167,0.179916 -0.07055,-0.04233 -0.141111,-0.102305 -0.211666,-0.179916 -0.07056,-0.07761 -0.134056,-0.176389 -0.1905,-0.296334 -0.127,-0.239889 -0.172861,-0.433916 -0.137584,-0.582083 -0.09172,-0.204611 -0.137583,-0.377472 -0.137583,-0.518583 0,-0.105833 0.02469,-0.183445 0.07408,-0.232834 -0.07055,-0.09878 -0.09878,-0.285749 -0.08467,-0.560916 0.02822,-0.458611 -0.03376,-1.015493 0.347238,-1.276549 0.268111,-0.183444 0.460627,0.146144 0.531182,0.06148 l 0.0071,-0.383015 0.222752,-0.153206 c -0.07056,-0.08467 -0.06401,-0.330096 -0.0499,-0.365374 0.04939,-0.09172 0.465664,-0.282222 1.248833,-0.5715 0.592667,-0.211667 1.065389,-0.3175 1.418167,-0.3175 0.162277,0 0.296333,0.02117 0.402166,0.0635 0.03528,0.05645 0.07409,0.109363 0.116417,0.15875 0.04233,0.04939 0.08819,0.09878 0.137583,0.148167 -0.01411,0.0635 -0.02822,0.123472 -0.04233,0.179917 -0.0071,0.05645 -0.0071,0.112891 0,0.169333 l 0.07408,-0.105833 c 0.03528,-0.07056 0.07409,-0.225778 0.116417,-0.465667 0.112889,0.03528 0.246944,0.08467 0.402167,0.148167 0.162277,0.05645 0.352777,0.123474 0.5715,0.201083 z"
         sodipodi:nodetypes="cscscccsccccccccccscccccccccccccccsccccssccsccccccccccsccsccccccccscccccccccc" />
    </g>
  </g>
</svg>
