<?xml version="1.0" encoding="UTF-8" standalone="no"?>
<!-- Created with Inkscape (http://www.inkscape.org/) -->

<svg
   xmlns:dc="http://purl.org/dc/elements/1.1/"
   xmlns:cc="http://creativecommons.org/ns#"
   xmlns:rdf="http://www.w3.org/1999/02/22-rdf-syntax-ns#"
   xmlns:svg="http://www.w3.org/2000/svg"
   xmlns="http://www.w3.org/2000/svg"
   xmlns:sodipodi="http://sodipodi.sourceforge.net/DTD/sodipodi-0.dtd"
   xmlns:inkscape="http://www.inkscape.org/namespaces/inkscape"
   width="27.354946mm"
   height="17.796961mm"
   viewBox="0 0 27.354946 17.796961"
   version="1.1"
   id="svg30113"
   inkscape:version="0.92.3 (2405546, 2018-03-11)"
   sodipodi:docname="rune_combine.svg">
  <defs
     id="defs30107" />
  <sodipodi:namedview
     id="base"
     pagecolor="#ffffff"
     bordercolor="#666666"
     borderopacity="1.0"
     inkscape:pageopacity="0.0"
     inkscape:pageshadow="2"
     inkscape:zoom="0.35"
     inkscape:cx="-445.44852"
     inkscape:cy="33.632038"
     inkscape:document-units="mm"
     inkscape:current-layer="layer1"
     showgrid="false"
     inkscape:window-width="1920"
     inkscape:window-height="1024"
     inkscape:window-x="-4"
     inkscape:window-y="-4"
     inkscape:window-maximized="1" />
  <metadata
     id="metadata30110">
    <rdf:RDF>
      <cc:Work
         rdf:about="">
        <dc:format>image/svg+xml</dc:format>
        <dc:type
           rdf:resource="http://purl.org/dc/dcmitype/StillImage" />
        <dc:title></dc:title>
      </cc:Work>
    </rdf:RDF>
  </metadata>
  <g
     inkscape:label="Layer 1"
     inkscape:groupmode="layer"
     id="layer1"
     transform="translate(-92.155873,-139.93485)">
    <path
       style="fill:#000000;stroke-width:0.12157281"
       d="m 96.245463,157.27565 -0.0767,-2.35873 -0.001,-1.90284 -0.71621,-0.0831 -1.38818,9e-4 -1.28974,-9e-4 -0.61776,-0.0851 0.0827,-0.97771 -0.0827,-0.94464 c 0.39092,0.0124 1.22462,0.21408 1.62129,0.21497 0.27123,6.1e-4 0.10039,-0.18951 0.38466,-0.21497 h 2.00595 l 0.0368,-2.06248 0.27277,-0.34328 -0.27286,-0.4958 0.006,-2.27046 -0.0107,-1.9677 c 0.200971,-0.28455 0.139911,-0.8242 -0.0332,-1.02067 l 0.002,-2.78116 h 0.364721 l 0.36471,0.30394 2.15924,2.03987 c -0.10819,0.10029 0.1318,0.41916 0.13611,0.63511 0.004,0.20646 -0.23843,0.31316 0.12553,0.28706 0.15983,-0.0115 0.11408,-0.43988 0.40777,-0.49766 l 2.550026,1.00766 0.83782,0.26585 1.26024,0.0698 c 0.37537,0.3176 0.83183,0.83792 0.72944,-0.0389 l 0.0333,-2.02127 0.34388,-0.20454 0.0817,-0.19491 -0.2588,-0.0213 -0.15667,-0.19124 0.0232,-1.4093 0.48342,-0.0773 h 0.96683 l 0.48343,0.0773 0.0333,2.02126 0.0333,2.02127 0.72943,0.0389 1.27543,-0.0663 0.78505,-0.26062 c 0.7599,-0.21702 1.44528,-0.47294 2.03818,-0.82357 l 0.50478,0.0154 0.18187,-0.42143 c 0.85076,-0.50313 1.53579,-1.16172 2.19127,-1.82288 l 0.71226,0.0729 0.39325,-0.22866 0.0722,2.34643 -0.0405,3.17044 0.0317,5.51687 1.73241,0.0337 1.73241,0.0337 v 0.4052 l -0.0773,0.96925 -0.0773,0.56404 h -1.01685 l -1.01684,-0.30393 -0.30393,-0.30393 -0.30393,0.30393 -0.36472,0.30393 h -0.36472 v 2.06674 c -0.43541,0.61307 -0.45256,0.35123 0,0.44702 v 1.61972 h -0.95929 -0.9593 l -0.0874,-1.33731 c -0.0962,-0.42046 -0.20544,-0.82787 -0.33008,-1.2199 0.39241,-0.1946 0.48767,0.0217 -0.1061,-0.31912 -0.15344,-0.44149 -0.32813,-0.86173 -0.52765,-1.25715 -0.3552,-0.80183 -0.84401,-1.5029 -1.47193,-2.08623 l -0.30185,-0.62285 -0.36249,0.0345 c -0.94591,-0.58008 -1.85216,-1.18761 -3.35346,-1.38318 -0.85809,-0.031 -1.5924,-0.13273 -2.73538,-9.2e-4 -1.25843,-0.11047 -2.07482,0.44218 -3.03494,1.01355 -0.5566,-0.30848 -0.44845,-0.0536 -0.48047,0.3707 -1.07826,0.72738 -1.767818,1.70212 -2.365407,2.73538 -0.394131,0.58123 -0.538951,1.28711 -0.673911,1.99792 l -0.21632,1.32923 -0.14139,0.49453 -0.349409,-0.0832 -0.62235,0.33433 -0.659231,-0.4559 z m 4.663297,-8.1264 c 0.30151,-0.18814 0.57091,-0.49594 0.92344,-0.52659 0.49902,-0.0434 0.71733,-0.21947 0.87695,-0.41759 0.44073,-0.54706 1.72052,-0.54395 2.40802,-0.73756 l -0.0141,-0.67751 v -0.66865 c -2.13634,-0.62049 -3.76163,-0.46479 -6.504147,-2.00595 l -0.6293,-0.0992 -0.008,0.89926 0.0575,2.604 0.0412,3.52343 0.5384,-0.1194 2.309877,-1.77422 z m 13.03829,0.27524 0.0425,-2.20899 -0.004,-1.03636 0.46682,-0.51584 -0.47082,0.0366 -0.004,-0.91589 -0.12232,-0.58378 -1.23435,0.58094 c -1.1761,0.74824 -2.77481,1.06728 -4.47883,1.27935 h -1.03337 v 0.72944 0.72944 h 0.72943 c 1.1336,0.25397 2.25361,0.64386 3.34326,1.3373 l 2.75655,2.4526 0.0252,-1.51063 c 0.56333,-0.29199 0.59648,-0.0662 -0.0161,-0.37418 z m -9.51267,3.50493 c -0.16144,-0.39305 0.18856,-0.94051 0.54673,-1.31097 0.35817,-0.37046 1.02566,-0.69977 1.52,-0.69498 0.49434,0.005 0.80928,0.16257 1.16694,0.56116 0.35766,0.39859 0.6989,1.25281 0.63995,1.80846 -0.059,0.55565 -0.41377,0.94297 -0.7515,1.22163 -0.33773,0.27866 -0.62812,0.4555 -1.11618,0.42065 -0.48805,-0.0349 -1.34057,-0.38601 -1.52711,-0.84017 0.14451,-0.566 -0.0969,-0.90688 -0.47883,-1.16578 z"
       id="path29272"
       inkscape:connector-curvature="0"
       sodipodi:nodetypes="cccccccccsccccccccccccssccccccccccccccccccccccccccccccccccccccccccccccccscccccccccccccccsscccccccccccccccccccccccccccccczzzzzzcc" />
  </g>
</svg>
