<?xml version="1.0" encoding="UTF-8" standalone="no"?>
<!-- Created with Inkscape (http://www.inkscape.org/) -->

<svg
   xmlns:dc="http://purl.org/dc/elements/1.1/"
   xmlns:cc="http://creativecommons.org/ns#"
   xmlns:rdf="http://www.w3.org/1999/02/22-rdf-syntax-ns#"
   xmlns:svg="http://www.w3.org/2000/svg"
   xmlns="http://www.w3.org/2000/svg"
   xmlns:sodipodi="http://sodipodi.sourceforge.net/DTD/sodipodi-0.dtd"
   xmlns:inkscape="http://www.inkscape.org/namespaces/inkscape"
   width="11.978976mm"
   height="19.964903mm"
   viewBox="0 0 11.978976 19.964903"
   version="1.1"
   id="svg6350"
   inkscape:version="0.92.3 (2405546, 2018-03-11)"
   sodipodi:docname="rune_death.svg">
  <defs
     id="defs6344" />
  <sodipodi:namedview
     id="base"
     pagecolor="#ffffff"
     bordercolor="#666666"
     borderopacity="1.0"
     inkscape:pageopacity="0.0"
     inkscape:pageshadow="2"
     inkscape:zoom="0.35"
     inkscape:cx="-1234.5054"
     inkscape:cy="-279.4139"
     inkscape:document-units="mm"
     inkscape:current-layer="layer1"
     showgrid="false"
     inkscape:window-width="1920"
     inkscape:window-height="1024"
     inkscape:window-x="-4"
     inkscape:window-y="-4"
     inkscape:window-maximized="1" />
  <metadata
     id="metadata6347">
    <rdf:RDF>
      <cc:Work
         rdf:about="">
        <dc:format>image/svg+xml</dc:format>
        <dc:type
           rdf:resource="http://purl.org/dc/dcmitype/StillImage" />
        <dc:title></dc:title>
      </cc:Work>
    </rdf:RDF>
  </metadata>
  <g
     inkscape:label="Layer 1"
     inkscape:groupmode="layer"
     id="layer1"
     transform="translate(-300.92718,-54.940168)">
    <g
       aria-label="t"
       style="font-style:normal;font-variant:normal;font-weight:normal;font-stretch:normal;font-size:10.58333302px;line-height:1.25;font-family:'Glorantha Core Runes';-inkscape-font-specification:'Glorantha Core Runes';letter-spacing:0px;word-spacing:0px;fill:#000000;fill-opacity:1;stroke:none;stroke-width:0.26458332"
       id="text923"
       transform="matrix(2.858258,0,0,2.858258,229.46634,22.776542)">
      <path
         d="m 26.398547,18.206133 q 0.04233,-0.232834 0.03175,-0.465667 l 0.04233,-0.391583 0.15875,-0.359834 -0.15875,0.0635 v -0.254 q -0.02117,-0.02117 -0.03175,-0.211666 -0.02117,-0.137584 0.05292,-0.254 l -0.07408,-0.338667 q 0.02117,-0.211667 0.03175,-0.518583 0.02117,-0.3175 0.04233,-0.73025 0,-0.07408 0.03175,-0.211667 0.04233,-0.137583 0.04233,-0.211667 0,-0.105833 -0.0635,-0.1905 l -0.127,0.03175 q -0.0635,0.02117 -0.15875,0.05292 -0.09525,0.02117 -0.211667,0.05292 -0.05292,0 -0.211666,-0.0635 -0.148167,-0.0635 -0.232834,-0.0635 -0.201083,0 -0.338666,0.15875 h -0.05292 q -0.03175,0.01058 -0.116417,-0.02117 l -0.05292,-0.02117 0.04233,-0.1905 q -0.04233,-0.08467 -0.04233,-0.391583 0,-0.232833 0.03175,-0.582083 l 0.28575,-0.01058 q 0.116416,0 0.232833,0.15875 0.01058,0.01058 0.04233,-0.01058 0.03175,-0.02117 0.05292,-0.02117 0.07408,0 0.148167,0.105834 0.01058,-0.05292 0.148166,-0.254 0.07408,0 0.211667,0.04233 0.148167,0.04233 0.232833,0.04233 0.09525,0 0.201084,-0.05292 l -0.04233,-0.381 -0.01058,-1.100667 q 0,-0.127 0.03175,-0.3175 0.201083,0.01058 0.529167,0.211667 0.15875,-0.201084 0.560916,-0.254 l 0.04233,0.03175 q -0.03175,0.264583 0.01058,0.6985 0.05292,0.645583 -0.05292,0.98425 0.232834,0.137583 0.6985,0.137583 0.05292,0 0.137583,-0.01058 0.09525,-0.01058 0.1905,-0.02117 0.105834,-0.01058 0.1905,-0.02117 0.09525,-0.02117 0.15875,-0.02117 0.05292,0 0.08467,0.01058 l 0.05292,0.01058 q 0.02117,0.0635 0.02117,0.148167 0,0.391583 -0.296333,0.656167 l -0.01058,0.127 q -0.02117,0.127 0.09525,0.275166 -0.127,-0.04233 -0.275167,-0.04233 L 28.47288,14.1527 q -0.127,-0.03175 -0.338667,-0.03175 -0.201083,0 -0.497416,0.01058 -0.02117,0.1905 -0.03175,1.058334 0.01058,0.05292 0.01058,0.137583 0.01058,0.07408 0,0.179917 0,0.169333 -0.105833,0.328083 0.04233,0.07408 0.05292,0.211667 0.01058,0.127 0.02117,0.328083 0,0.105833 -0.01058,0.264583 -0.01058,0.15875 -0.04233,0.370417 -0.02117,0.211667 -0.04233,0.370417 -0.01058,0.15875 -0.01058,0.275166 0,0.09525 0.07408,0.264584 0.07408,0.15875 0.07408,0.232833 0,0.08467 -0.105833,0.08467 l -0.03175,-0.02117 q -0.338667,-0.127 -0.455083,-0.127 -0.105834,0.02117 -0.264584,0.05292 -0.15875,0.02117 -0.370416,0.0635 z"
         style="stroke-width:0.26458332"
         id="path4087"
         inkscape:connector-curvature="0" />
    </g>
  </g>
</svg>
