<?xml version="1.0" encoding="UTF-8" standalone="no"?>
<!-- Created with Inkscape (http://www.inkscape.org/) -->

<svg
   xmlns:dc="http://purl.org/dc/elements/1.1/"
   xmlns:cc="http://creativecommons.org/ns#"
   xmlns:rdf="http://www.w3.org/1999/02/22-rdf-syntax-ns#"
   xmlns:svg="http://www.w3.org/2000/svg"
   xmlns="http://www.w3.org/2000/svg"
   xmlns:sodipodi="http://sodipodi.sourceforge.net/DTD/sodipodi-0.dtd"
   xmlns:inkscape="http://www.inkscape.org/namespaces/inkscape"
   width="27.06035mm"
   height="10.36931mm"
   viewBox="0 0 27.06035 10.36931"
   version="1.1"
   id="svg34656"
   inkscape:version="0.92.3 (2405546, 2018-03-11)"
   sodipodi:docname="rune_dispel.svg">
  <defs
     id="defs34650" />
  <sodipodi:namedview
     id="base"
     pagecolor="#ffffff"
     bordercolor="#666666"
     borderopacity="1.0"
     inkscape:pageopacity="0.0"
     inkscape:pageshadow="2"
     inkscape:zoom="0.35"
     inkscape:cx="-446.00519"
     inkscape:cy="19.595591"
     inkscape:document-units="mm"
     inkscape:current-layer="layer1"
     showgrid="false"
     inkscape:window-width="1920"
     inkscape:window-height="1024"
     inkscape:window-x="-4"
     inkscape:window-y="-4"
     inkscape:window-maximized="1" />
  <metadata
     id="metadata34653">
    <rdf:RDF>
      <cc:Work
         rdf:about="">
        <dc:format>image/svg+xml</dc:format>
        <dc:type
           rdf:resource="http://purl.org/dc/dcmitype/StillImage" />
        <dc:title></dc:title>
      </cc:Work>
    </rdf:RDF>
  </metadata>
  <g
     inkscape:label="Layer 1"
     inkscape:groupmode="layer"
     id="layer1"
     transform="translate(-92.303159,-143.64869)">
    <path
       style="opacity:1;fill:#000000;fill-opacity:1;stroke:none;stroke-width:1.8914175;stroke-miterlimit:4;stroke-dasharray:none;stroke-opacity:1"
       d="m 112.37993,143.64897 -0.11094,0.11827 c 0.0897,0.81318 0.18122,1.62565 -0.005,2.54903 -1.08494,0.0684 -2.15359,0.21823 -3.29585,0 l -1.91786,-0.002 c -0.13434,0.0129 -0.25854,0.20794 -0.15234,0.34865 0.20792,0.29114 0.36975,0.61387 0.47697,0.95874 6.9e-4,0.003 0.003,0.008 0.003,0.0114 0.0265,0.0919 0.20059,0.16029 0.22253,0.24963 0.003,0.0189 -0.14367,0.057 -0.13988,0.0758 0.0411,0.20759 0.0626,0.4215 0.0626,0.6402 0.1175,0.43416 0.1751,0.73503 -0.31679,1.41546 -0.146,0.5552 -0.48048,0.95212 -0.97701,1.22884 -0.54569,0.50989 -1.36941,0.83895 -2.34122,0.80305 -0.74358,0.10644 -1.41844,0.004 -1.89152,-0.49711 -0.76805,-0.4318 -1.00594,-0.72836 -1.20504,-1.13681 -0.4044,-0.59885 -0.68204,-1.31419 -0.53844,-1.81343 -6.4e-4,-0.12545 -0.673221,-0.25594 -0.321421,-0.46084 0.0948,-0.35156 0.380121,-0.17664 0.411021,-0.30668 0.11875,-0.49974 0.35127,-0.95918 0.6721,-1.35137 0.0811,-0.10317 0.0117,-0.16191 -0.1461,-0.16626 h -2.061121 c -0.32006,0.0235 -0.60719,0.17818 -0.93096,0.18596 -0.35831,0.009 -0.72437,-0.10193 -1.08568,-0.10603 -0.13662,-0.002 -0.29694,0.23762 -0.43384,0.23494 -0.53293,-0.0105 -1.07326,-0.29882 -1.607,-0.3128 -0.81333,-6e-5 -1.62665,-2.5e-4 -2.4394,-2.5e-4 l 0.12359,0.68257 -0.13117,1.75706 2.23615,-0.0909 1.43667,0.0351 c 0.23798,-0.0858 0.36777,-0.34465 0.88836,0.0217 l 1.41963,0.0347 c 0.0132,0.44109 0.0812,0.86864 0.19745,1.27671 0.0519,0.18231 0.17964,0.33179 0.25026,0.50579 0.0589,0.14508 0.0579,0.31603 0.12902,0.45467 0.086,0.16754 0.18059,0.33016 0.28333,0.4873 0.15094,0.23088 0.44911,0.3443 0.63313,0.54987 0.19821,0.22142 0.284781,0.53282 0.516821,0.72076 0.29068,0.21864 0.69333,0.24626 1.05087,0.42312 0.26373,0.13045 0.46917,0.42211 0.76071,0.51962 0.55817,0.18667 1.16065,0.305 1.78193,0.32457 0.17509,0 0.5308,-0.33838 0.70209,-0.35381 0.15834,-0.0143 0.13255,0.29548 0.28701,0.26857 0.49894,-0.0869 0.97608,-0.23835 1.42143,-0.4452 0.67122,-0.34073 1.20215,-0.8341 1.86633,-1.39681 l 0.41843,-0.54342 c 0.12019,-0.25968 0.0753,-0.43839 0.32294,-0.54559 0.20267,-0.0877 0.19015,-0.3995 0.26637,-0.60857 0.0324,-0.0889 -0.10673,-0.22323 -0.0791,-0.31423 0.0246,-0.081 0.21658,-0.11847 0.23735,-0.20101 0.0823,-0.32727 0.13391,-0.66631 0.15144,-1.01418 l -0.15554,-0.58998 0.48296,0.28403 0.86738,0.16049 0.0963,-0.13561 0.39467,0.11788 0.52849,0.0507 0.77019,-0.34144 -0.21194,0.48591 0.0589,0.8138 0.11766,0.29416 -0.13012,0.25381 -0.016,0.70449 c -0.007,0.21531 0.1899,0.28768 0.51159,0.12261 l 3.32737,-2.03116 0.0117,-0.63403 1.34876,-0.19646 1.56314,-0.95421 0.31622,-0.24328 -0.65932,-0.15873 -0.83214,-0.4994 c -0.36544,-0.17254 -0.78163,-0.0567 -1.05781,-0.15968 -0.54332,-0.20269 -0.88887,-0.61181 -1.64964,-1.24406 -0.32495,0.33307 -0.52322,-0.0306 -0.73047,-0.3449 -0.68505,-0.32333 -1.3701,-0.64667 -2.05516,-0.97 z"
       id="rect29374"
       inkscape:connector-curvature="0"
       sodipodi:nodetypes="ccccccccccccccccccccccsssccccccccscscscsscsscccsccccccccccccccccccccccccscccc" />
  </g>
</svg>
