<?xml version="1.0" encoding="UTF-8" standalone="no"?>
<!-- Created with Inkscape (http://www.inkscape.org/) -->

<svg
   xmlns:dc="http://purl.org/dc/elements/1.1/"
   xmlns:cc="http://creativecommons.org/ns#"
   xmlns:rdf="http://www.w3.org/1999/02/22-rdf-syntax-ns#"
   xmlns:svg="http://www.w3.org/2000/svg"
   xmlns="http://www.w3.org/2000/svg"
   xmlns:sodipodi="http://sodipodi.sourceforge.net/DTD/sodipodi-0.dtd"
   xmlns:inkscape="http://www.inkscape.org/namespaces/inkscape"
   width="18.452436mm"
   height="18.724646mm"
   viewBox="0 0 18.452436 18.724646"
   version="1.1"
   id="svg5781"
   inkscape:version="0.92.3 (2405546, 2018-03-11)"
   sodipodi:docname="rune_earth.svg">
  <defs
     id="defs5775" />
  <sodipodi:namedview
     id="base"
     pagecolor="#ffffff"
     bordercolor="#666666"
     borderopacity="1.0"
     inkscape:pageopacity="0.0"
     inkscape:pageshadow="2"
     inkscape:zoom="0.35"
     inkscape:cx="-462.27211"
     inkscape:cy="35.385166"
     inkscape:document-units="mm"
     inkscape:current-layer="layer1"
     showgrid="false"
     inkscape:window-width="1920"
     inkscape:window-height="1024"
     inkscape:window-x="-4"
     inkscape:window-y="-4"
     inkscape:window-maximized="1" />
  <metadata
     id="metadata5778">
    <rdf:RDF>
      <cc:Work
         rdf:about="">
        <dc:format>image/svg+xml</dc:format>
        <dc:type
           rdf:resource="http://purl.org/dc/dcmitype/StillImage" />
        <dc:title></dc:title>
      </cc:Work>
    </rdf:RDF>
  </metadata>
  <g
     inkscape:label="Layer 1"
     inkscape:groupmode="layer"
     id="layer1"
     transform="translate(-96.607116,-139.47101)">
    <g
       aria-label="e"
       style="font-style:normal;font-variant:normal;font-weight:normal;font-stretch:normal;font-size:10.58333302px;line-height:1.25;font-family:'Glorantha Core Runes';-inkscape-font-specification:'Glorantha Core Runes';letter-spacing:0px;word-spacing:0px;fill:#000000;fill-opacity:1;stroke:none;stroke-width:0.26458332"
       id="text919"
       transform="matrix(2.858258,0,0,2.858258,55.531247,107.9769)">
      <path
         d="m 20.816198,16.088041 q 0.01058,0.09525 0.01058,0.179917 0,0.07408 0,0.137583 l -0.04233,0.148167 q -0.03175,0.09525 0.01058,0.09525 l -0.15875,0.740833 h -0.116417 q -0.105833,-0.01058 -0.359833,0.05292 -0.243417,0.0635 -0.338667,0.0635 l -1.121833,0.01058 -0.0635,-0.105833 -0.137583,0.09525 q -0.08467,0.0635 -0.148167,0.0635 -0.137583,0 -0.22225,-0.04233 l -0.116417,-0.148167 q -0.04233,0.02117 -0.08467,0.0635 -0.03175,0.03175 -0.07408,0.07408 l -1.407583,-0.201083 -0.04233,0.127 -0.09525,0.07408 -1.87325,0.02117 q -0.0635,-0.04233 -0.0635,-0.41275 0,-0.1905 0.0635,-0.5715 0.07408,-0.359833 0.07408,-0.5715 -0.05292,-0.116417 -0.137583,-0.1905 v -1.026583 q 0,-0.105834 0.03175,-0.41275 0.01058,-0.137584 0.01058,-0.232834 0.01058,-0.105833 0,-0.1905 0.07408,-0.04233 0.05292,-0.15875 l -0.03175,-0.211666 q 0,-0.01058 0.02117,-0.04233 0.03175,-0.04233 0.0635,-0.07408 0.03175,-0.04233 0.05292,-0.07408 0.02117,-0.04233 0.01058,-0.05292 l -0.15875,0.05292 v -1.49225 q 0.05292,-0.137584 0.127,-0.328084 0.08467,-0.201083 0.169334,-0.465666 h 0.592666 q 0.04233,0.0635 0.179917,0.0635 0.07408,0 0.22225,-0.03175 0.148167,-0.03175 0.22225,-0.03175 h 0.624417 q -0.01058,0.01058 -0.01058,0.08467 l 0.05292,0.08467 q 0.05292,-0.02117 0.116417,-0.08467 0.07408,-0.0635 0.179916,-0.148166 l 0.09525,0.0635 h 0.878417 q 0.07408,0 0.201083,-0.03175 0.137584,-0.03175 0.201084,-0.03175 0.0635,0 0.179916,0.01058 0.116417,0.01058 0.232834,0.02117 0.116416,0.01058 0.232833,0.02117 0.116417,0.01058 0.179917,0.01058 l 0.07408,0.116416 0.179917,-0.169333 1.2065,0.148167 0.1905,1.640416 q 0.01058,0.08467 0,0.201084 0,0.116416 -0.02117,0.264583 -0.02117,0.179917 -0.03175,0.296333 0,0.116417 0,0.169334 l -0.201083,0.53975 q 0.03175,0.08467 0.08467,0.15875 l 0.116417,-0.127 v 0.01058 q 0,0.08467 0.0635,0.15875 l -0.01058,0.179917 q 0,0.05292 0,0.1905 0.01058,0.137583 0.02117,0.370416 z m -2.4765,0.47625 0.04233,0.116417 0.3175,0.02117 q 0.07408,0.01058 0.201083,0 0.137584,-0.02117 0.34925,-0.04233 0.169334,-0.02117 0.306917,-0.02117 0.137583,0 0.243417,0.01058 0,-0.04233 0.211666,-0.582083 l -0.04233,-1.068917 -0.04233,0.01058 q 0.04233,0 0.04233,-0.01058 0,-0.391583 0.04233,-0.4445 l -0.01058,-0.08467 q 0,-0.09525 0.03175,-0.275166 0.03175,-0.179917 0.03175,-0.275167 v -0.719667 q -0.0635,-0.04233 -0.127,-0.15875 0,-0.0635 0.02117,-0.15875 0.02117,-0.09525 0.04233,-0.201083 0.02117,-0.105833 0.04233,-0.201083 0.02117,-0.09525 0.02117,-0.15875 0,-0.05292 -0.243417,-0.328084 l -1.217083,-0.09525 -0.08467,0.0635 -0.137583,-0.0635 h -0.328083 l -0.79375,0.127 q -0.04233,-0.137583 -0.243417,-0.169333 l -0.232833,0.137583 -0.07408,-0.09525 h -0.762 q -0.105833,0 -0.328083,0.0635 -0.232833,0.0635 -0.338667,0.05292 -0.07408,0.148167 -0.137583,0.47625 l 0.0635,0.137583 -0.105833,0.296334 q 0.01058,0.296333 0.03175,0.613833 0.03175,0.306917 0.07408,0.635 0.137583,0.03175 0.137583,0.105833 0,0.07408 -0.0635,0.211667 -0.0635,0.137583 -0.07408,0.201083 -0.03175,0.1905 -0.03175,0.624417 v 1.386417 h 1.04775 l 0.179917,-0.105834 0.582083,0.105834 h 1.153583 z"
         style="stroke-width:0.26458332"
         id="path4090"
         inkscape:connector-curvature="0" />
    </g>
  </g>
</svg>
