<?xml version="1.0" encoding="UTF-8" standalone="no"?>
<!-- Created with Inkscape (http://www.inkscape.org/) -->

<svg
   xmlns:dc="http://purl.org/dc/elements/1.1/"
   xmlns:cc="http://creativecommons.org/ns#"
   xmlns:rdf="http://www.w3.org/1999/02/22-rdf-syntax-ns#"
   xmlns:svg="http://www.w3.org/2000/svg"
   xmlns="http://www.w3.org/2000/svg"
   xmlns:sodipodi="http://sodipodi.sourceforge.net/DTD/sodipodi-0.dtd"
   xmlns:inkscape="http://www.inkscape.org/namespaces/inkscape"
   width="24.320904mm"
   height="14.943447mm"
   viewBox="0 0 24.320904 14.943447"
   version="1.1"
   id="svg3763"
   inkscape:version="0.92.3 (2405546, 2018-03-11)"
   sodipodi:docname="rune_eternal_battle.svg">
  <defs
     id="defs3757" />
  <sodipodi:namedview
     id="base"
     pagecolor="#ffffff"
     bordercolor="#666666"
     borderopacity="1.0"
     inkscape:pageopacity="0.0"
     inkscape:pageshadow="2"
     inkscape:zoom="0.35"
     inkscape:cx="-276.89638"
     inkscape:cy="-68.903286"
     inkscape:document-units="mm"
     inkscape:current-layer="layer1"
     showgrid="false"
     fit-margin-top="0"
     fit-margin-left="0"
     fit-margin-right="0"
     fit-margin-bottom="0"
     inkscape:window-width="1920"
     inkscape:window-height="1024"
     inkscape:window-x="-4"
     inkscape:window-y="-4"
     inkscape:window-maximized="1" />
  <metadata
     id="metadata3760">
    <rdf:RDF>
      <cc:Work
         rdf:about="">
        <dc:format>image/svg+xml</dc:format>
        <dc:type
           rdf:resource="http://purl.org/dc/dcmitype/StillImage" />
        <dc:title></dc:title>
      </cc:Work>
    </rdf:RDF>
  </metadata>
  <g
     inkscape:label="Layer 1"
     inkscape:groupmode="layer"
     id="layer1"
     transform="translate(-47.559787,-115.65922)">
    <g
       aria-label="V"
       style="font-style:normal;font-variant:normal;font-weight:normal;font-stretch:normal;font-size:10.58333302px;line-height:1.25;font-family:'Glorantha Core Runes';-inkscape-font-specification:'Glorantha Core Runes';letter-spacing:0px;word-spacing:0px;fill:#000000;fill-opacity:1;stroke:none;stroke-width:0.26458332"
       id="text1449"
       transform="matrix(2.858258,0,0,2.858258,-53.044878,-115.07162)">
      <path
         d="m 43.62223,83.211373 0.01058,0.41275 0.07408,0.486833 q -0.04233,0.116417 -0.07408,0.22225 -0.03175,0.09525 -0.0635,0.179917 -0.116416,0.306916 -0.211666,0.349249 v 0.01058 q 0,0.05292 -0.232834,0.1905 -0.232833,0.137583 -0.296333,0.137583 h -0.04233 q -0.07408,-0.07408 -0.201084,-0.4445 -0.127,-0.381 -0.127,-0.508 0,-0.148166 0.08467,-0.275166 0.09525,-0.127 0.127,-0.201084 0.116417,-0.05292 0.201083,-0.328083 l -0.01058,-0.09525 q 0,-0.105833 0.04233,-0.201083 l -0.275166,-0.762 q -0.07408,-0.01058 -0.105834,-0.201084 -0.02117,-0.01058 -0.0635,-0.04233 -0.04233,-0.04233 -0.116416,-0.09525 l -0.09525,0.03175 q -0.05292,-0.02117 -0.127,-0.0635 -0.07408,-0.05292 -0.169334,-0.105833 l -0.08467,-0.01058 q -0.127,-0.02117 -0.211667,0.116417 -0.116417,0.179917 -0.169333,0.232833 l -0.4445,0.98425 q -0.338667,0.751417 -0.497417,0.878417 l -0.53975,1.143 q -0.08467,0 -0.08467,0.09525 0,0.169333 -0.391584,0.592666 l -0.07408,0.01058 -0.04233,-0.04233 q -0.243417,-0.243416 -0.899584,-1.481666 -0.328083,-0.635 -0.497416,-1.005417 -0.169334,-0.381 -0.179917,-0.518583 -0.08467,-0.127 -0.179917,-0.28575 -0.08467,-0.15875 -0.201083,-0.359833 -0.201083,-0.381 -0.423333,-0.402167 -0.03175,0.01058 -0.09525,0.07408 -0.08467,-0.02117 -0.201084,-0.02117 -0.0635,0 -0.116416,0.08467 -0.275167,0.211667 -0.41275,0.47625 -0.105834,0.1905 -0.211667,0.635 0.07408,0.275167 0.04233,0.423334 0.127,0.169333 0.423334,0.455083 -0.127,0.994833 -0.402167,1.143 -0.09525,-0.01058 -0.1905,-0.09525 -0.232833,-0.03175 -0.402167,-0.28575 -0.169333,-0.264583 -0.169333,-0.497417 0,-0.07408 0.01058,-0.105833 l -0.09525,-0.105833 -0.01058,-0.105834 q 0.01058,-0.04233 0.03175,-0.391583 0.03175,-0.34925 0.07408,-1.026583 l 0.28575,-0.772584 q 0,-0.105833 0.28575,-0.381 l 0.359834,-0.34925 q 0.15875,-0.07408 0.518583,-0.15875 0.08467,0 0.22225,0 0.137583,-0.01058 0.3175,-0.02117 0.359833,-0.03175 0.550333,-0.03175 l 0.243417,-0.03175 q 0.201083,-0.02117 0.264583,0.02117 l 0.148167,-0.0635 q 0.0635,0 0.1905,0.04233 0.137583,0.03175 0.201083,0.03175 v 0.03175 q 0,-0.01058 0.02117,-0.03175 l 1.259416,-0.03175 q 0.910167,-0.02117 1.280584,0.03175 l 0.28575,0.04233 0.08467,-0.04233 0.4445,0.148166 0.169334,-0.03175 q 0.08467,0.148167 0.148166,0.1905 0.127,0 0.15875,0.08467 0.931334,0.867833 0.931334,1.894417 z m -2.878667,-1.386417 -0.116416,0.07408 -0.05292,-0.116416 h -1.407583 q -0.105833,0 -0.296333,0.01058 -0.179917,0.01058 -0.4445,0.03175 l -0.03175,0.08467 -0.04233,-0.04233 -0.05292,0.01058 q 0.08467,0.148166 0.201083,0.370416 0.116417,0.22225 0.264583,0.518584 0.105834,0.275166 0.28575,0.635 0.179917,0.34925 0.423334,0.79375 l 0.603249,-1.100667 0.05292,-0.03175 -0.01058,-0.02117 q 0,-0.05292 0.116416,-0.201083 0.03175,-0.179917 0.137584,-0.402167 0.105833,-0.232833 0.201083,-0.328083 v -0.02117 q 0,-0.148166 0.1905,-0.391583 l 0.04233,0.105833 z"
         style="stroke-width:0.26458332"
         id="path3973"
         inkscape:connector-curvature="0" />
    </g>
  </g>
</svg>
