<?xml version="1.0" encoding="UTF-8" standalone="no"?>
<!-- Created with Inkscape (http://www.inkscape.org/) -->

<svg
   xmlns:dc="http://purl.org/dc/elements/1.1/"
   xmlns:cc="http://creativecommons.org/ns#"
   xmlns:rdf="http://www.w3.org/1999/02/22-rdf-syntax-ns#"
   xmlns:svg="http://www.w3.org/2000/svg"
   xmlns="http://www.w3.org/2000/svg"
   xmlns:sodipodi="http://sodipodi.sourceforge.net/DTD/sodipodi-0.dtd"
   xmlns:inkscape="http://www.inkscape.org/namespaces/inkscape"
   width="19.813673mm"
   height="20.615299mm"
   viewBox="0 0 19.813673 20.615299"
   version="1.1"
   id="svg22863"
   inkscape:version="0.92.3 (2405546, 2018-03-11)"
   sodipodi:docname="rune_fire_sky_2.svg">
  <defs
     id="defs22857" />
  <sodipodi:namedview
     id="base"
     pagecolor="#ffffff"
     bordercolor="#666666"
     borderopacity="1.0"
     inkscape:pageopacity="0.0"
     inkscape:pageshadow="2"
     inkscape:zoom="0.35"
     inkscape:cx="-459.69971"
     inkscape:cy="38.958048"
     inkscape:document-units="mm"
     inkscape:current-layer="layer1"
     showgrid="false"
     inkscape:window-width="1920"
     inkscape:window-height="1024"
     inkscape:window-x="-4"
     inkscape:window-y="-4"
     inkscape:window-maximized="1" />
  <metadata
     id="metadata22860">
    <rdf:RDF>
      <cc:Work
         rdf:about="">
        <dc:format>image/svg+xml</dc:format>
        <dc:type
           rdf:resource="http://purl.org/dc/dcmitype/StillImage" />
        <dc:title></dc:title>
      </cc:Work>
    </rdf:RDF>
  </metadata>
  <g
     inkscape:label="Layer 1"
     inkscape:groupmode="layer"
     id="layer1"
     transform="translate(-95.926502,-138.52568)">
    <g
       aria-label="L"
       style="font-style:normal;font-variant:normal;font-weight:normal;font-stretch:normal;font-size:10.58333302px;line-height:1.25;font-family:'Glorantha Core Runes';-inkscape-font-specification:'Glorantha Core Runes';letter-spacing:0px;word-spacing:0px;fill:#000000;fill-opacity:1;stroke:none;stroke-width:0.26458332"
       id="text1357"
       transform="matrix(2.858258,0,0,2.858258,-199.14179,-44.071102)">
      <path
         d="m 110.16569,67.508728 q -0.0529,0.1905 -0.0529,0.3175 v 0.02117 q 0,0.15875 -0.0423,0.296333 -0.0212,0.127 -0.10583,0.359833 -0.0847,0.254 -0.0847,0.391584 -0.0741,0.148166 -0.23283,0.275166 l -0.0106,0.296333 q -0.24342,0.5715 -0.889,1.0795 -0.68792,0.550334 -1.30175,0.550334 -0.17992,0 -0.33867,-0.0635 -0.0529,-0.08467 -0.13758,-0.08467 -0.0847,0 -0.22225,0.0635 -0.0847,0.04233 -0.13759,0.05292 -0.0529,0.02117 -0.0635,0.03175 -0.37041,-0.137584 -0.49741,-0.137584 -0.0847,0 -0.15875,0.03175 -0.17992,-0.0635 -0.3175,-0.105833 -0.127,-0.04233 -0.23284,-0.0635 -0.24341,-0.169333 -0.42333,-0.306917 -0.17992,-0.137583 -0.3175,-0.243416 -0.508,-0.41275 -0.66675,-0.635 l -0.254,-0.486833 q -0.4445,-0.645584 -0.4445,-1.55575 0,-0.677334 0.254,-1.534584 l 0.40217,-0.582083 q 0.21166,-0.3175 0.508,-0.465667 l 0.33866,0.137584 -0.13758,-0.306917 q 0.0529,-0.243417 0.34925,-0.402167 0.45508,-0.232833 0.49742,-0.275166 0.0952,-0.01058 0.20108,0.105833 l 0.15875,0.1905 q 0.0106,-0.116417 0.0212,-0.254 0.0212,-0.137583 0.0847,-0.1905 0.127,-0.105833 0.8255,-0.127 0.28575,-0.01058 0.508,0 0.22225,0 0.381,0.02117 l 0.28575,0.137583 q 0.0212,0.09525 -0.0106,0.148167 0,0.105833 0.127,0.116416 0.10583,-0.02117 0.13758,-0.05292 0.32809,0.275166 0.635,0.34925 0.16934,0.137583 0.34925,0.381 0.17992,0.243416 0.39159,0.582083 0.48683,0.804333 0.48683,1.291167 0,0.116416 -0.0318,0.211666 0.0212,0.08467 0.0635,0.201084 0.0529,0.105833 0.10583,0.232833 z m -1.11125,-0.127 q 0.0106,-0.03175 0.0106,-0.105833 0,-0.105834 -0.0952,-0.34925 -0.0847,-0.254 -0.0847,-0.34925 0,-0.08467 0.0318,-0.148167 l -0.35983,-0.433917 q -0.22225,-0.264583 -0.43392,-0.34925 l -0.30692,-0.28575 q -0.17991,-0.179916 -0.20108,-0.34925 -0.0318,0.07408 -0.10583,0.169334 l -0.0635,0.02117 q -0.14817,-0.03175 -0.30692,-0.03175 -0.0635,0 -0.48683,0.03175 -0.27517,0.01058 -0.48684,-0.02117 -0.0635,0.05292 -0.35983,0.08467 -0.21167,0.01058 -0.3175,0.179917 -0.21167,0.148167 -0.45508,-0.02117 0.0423,0.402167 -0.15875,0.508 -0.21167,0.433917 -0.28575,0.53975 -0.20109,0.296334 -0.42334,0.433917 l 0.10584,0.254 0.0847,0.04233 q 0.0106,0.3175 -0.0741,0.391584 -0.0212,0.01058 -0.0741,0.01058 -0.0529,0 -0.13759,0.01058 l 0.40217,0.179917 q -0.0318,0.433917 0.34925,1.439333 0.127,0.04233 1.28058,0.6985 0.0423,0 0.32809,-0.03175 0.10583,-0.01058 0.1905,-0.01058 0.0953,-0.01058 0.16933,-0.01058 0.45508,0 0.66675,0.22225 0.0423,-0.127 0.17992,-0.306916 0.127,0.01058 0.29633,-0.127 0.17992,-0.148167 0.28575,-0.148167 0.0423,0 0.0741,0.01058 h 0.0318 q 0.0741,-0.0635 0.20109,-0.296333 0.13758,-0.254 0.16933,-0.28575 0.27517,-0.275166 0.33867,-0.719666 0.0106,-0.09525 0.0106,-0.306917 0.0106,-0.211667 0.0106,-0.53975 z m -1.25941,-0.28575 q 0.0953,0.306917 0.0953,0.550333 0,0.1905 -0.0635,0.391584 -0.0529,0.201083 -0.0529,0.243416 0,0.09525 0.0106,0.116417 0.0106,0.0635 0.0318,0.03175 l -0.0212,-0.03175 q -0.0423,0 -0.14817,0.09525 -0.41275,0.381 -0.9525,0.381 -0.39158,0 -0.53975,-0.08467 -0.11642,-0.08467 -0.23283,-0.179916 -0.10584,-0.09525 -0.22225,-0.1905 v -0.127 q -0.0318,-0.02117 -0.0741,-0.05292 -0.0318,-0.04233 -0.0741,-0.08467 l -0.22225,-0.719666 q -0.0212,-0.0635 0,-0.169334 0.0318,-0.105833 0.0847,-0.22225 0.0635,-0.116416 0.14816,-0.22225 0.0952,-0.116416 0.21167,-0.211666 0.42333,-0.338667 0.87842,-0.338667 -0.0212,0 0.34925,0.03175 0.0741,0.09525 0.26458,0.232833 0.0847,0.02117 0.13758,0.05292 0.0635,0.03175 0.10584,0.05292 0.17991,0.09525 0.28575,0.455083 z m -0.62442,0.53975 q 0,-0.243417 -0.15875,-0.402167 -0.14817,-0.169333 -0.40217,-0.169333 -0.0212,0 -0.0423,0.02117 l -0.0212,0.08467 q -0.30691,0 -0.4445,0.359834 l 0.0952,0.0635 q -0.0212,0.03175 -0.0423,0.201083 0.0212,0.04233 0.27517,0.296333 l 0.0106,-0.02117 q 0.0212,0.01058 0.0529,0.02117 0.0318,0.01058 0.0741,0.02117 l 0.0106,0.01058 0.0318,-0.02117 q 0.0106,0.02117 0.0741,0.01058 h 0.0212 l 0.13759,-0.127 q 0.0635,0 0.22225,-0.0635 0,-0.04233 0.0529,-0.137583 0.0529,-0.09525 0.0529,-0.148167 z"
         style="stroke-width:0.26458332"
         id="path3982"
         inkscape:connector-curvature="0" />
    </g>
  </g>
</svg>
