<?xml version="1.0" encoding="UTF-8" standalone="no"?>
<!-- Created with Inkscape (http://www.inkscape.org/) -->

<svg
   xmlns:dc="http://purl.org/dc/elements/1.1/"
   xmlns:cc="http://creativecommons.org/ns#"
   xmlns:rdf="http://www.w3.org/1999/02/22-rdf-syntax-ns#"
   xmlns:svg="http://www.w3.org/2000/svg"
   xmlns="http://www.w3.org/2000/svg"
   xmlns:sodipodi="http://sodipodi.sourceforge.net/DTD/sodipodi-0.dtd"
   xmlns:inkscape="http://www.inkscape.org/namespaces/inkscape"
   width="20.085922mm"
   height="20.206959mm"
   viewBox="0 0 20.085922 20.206959"
   version="1.1"
   id="svg16015"
   inkscape:version="0.92.3 (2405546, 2018-03-11)"
   sodipodi:docname="rune_fire_sky.svg">
  <defs
     id="defs16009" />
  <sodipodi:namedview
     id="base"
     pagecolor="#ffffff"
     bordercolor="#666666"
     borderopacity="1.0"
     inkscape:pageopacity="0.0"
     inkscape:pageshadow="2"
     inkscape:zoom="0.35"
     inkscape:cx="-133.47092"
     inkscape:cy="398.18636"
     inkscape:document-units="mm"
     inkscape:current-layer="layer1"
     showgrid="false"
     inkscape:window-width="1920"
     inkscape:window-height="1024"
     inkscape:window-x="-4"
     inkscape:window-y="-4"
     inkscape:window-maximized="1" />
  <metadata
     id="metadata16012">
    <rdf:RDF>
      <cc:Work
         rdf:about="">
        <dc:format>image/svg+xml</dc:format>
        <dc:type
           rdf:resource="http://purl.org/dc/dcmitype/StillImage" />
        <dc:title></dc:title>
      </cc:Work>
    </rdf:RDF>
  </metadata>
  <g
     inkscape:label="Layer 1"
     inkscape:groupmode="layer"
     id="layer1"
     transform="translate(-9.6118003,-233.97985)">
    <g
       aria-label="."
       style="font-style:normal;font-variant:normal;font-weight:normal;font-stretch:normal;font-size:10.58333302px;line-height:1.25;font-family:'Glorantha Core Runes';-inkscape-font-specification:'Glorantha Core Runes';letter-spacing:0px;word-spacing:0px;fill:#000000;fill-opacity:1;stroke:none;stroke-width:0.26458332"
       id="text1217"
       transform="matrix(2.858258,0,0,2.858258,-202.53935,132.57166)">
      <path
         d="m 81.240694,39.659444 q -0.15875,0.254 -0.211667,0.6985 -0.08467,0.02117 -0.127,0.05292 -0.0635,0.105834 0,0.179917 0.05292,0.01058 0.105833,0.09525 l -0.09525,0.296333 q -0.1905,0.232834 -0.635,0.645584 -0.518583,0.486833 -0.656166,0.497416 -0.0635,0 -0.391584,-0.243416 0.01058,0.02117 0.01058,0.0635 0,0.03175 0,0.08467 0,0.04233 0.01058,0.105834 0.01058,0.15875 -0.0635,0.201083 -0.07408,0.01058 -0.179917,0.04233 -0.09525,0.02117 -0.232833,0.07408 -0.275167,0.09525 -0.402167,0.09525 -0.148166,0 -0.264583,-0.08467 l -0.127,-0.306917 -0.137583,0.328084 q -0.179917,0.0635 -0.370417,0.0635 -0.179917,0 -0.497417,-0.0635 -0.179916,-0.04233 -0.306916,-0.05292 -0.127,-0.02117 -0.211667,-0.03175 -1.820333,-1.005417 -2.053167,-2.338917 -0.07408,-0.1905 -0.15875,-0.518583 -0.01058,-0.05292 -0.02117,-0.105833 0,-0.0635 0,-0.148167 0,-0.243417 0.04233,-0.635 0.05292,-0.391583 0.137583,-0.941917 0.05292,-0.08467 0.116417,-0.211666 0.0635,-0.127 0.148167,-0.296334 0.169333,-0.0635 0.391583,-0.529166 0.137583,-0.0635 0.28575,-0.127 0.15875,-0.07408 0.15875,-0.179917 0,-0.03175 -0.01058,-0.05292 0.211666,-0.41275 0.783166,-0.635 0.508,-0.201083 1.164167,-0.201083 0.560917,0 0.9525,0.148167 l 0.22225,0.211666 q 0.04233,-0.03175 0.105833,-0.07408 0.07408,-0.04233 0.169334,-0.09525 h 0.07408 q 0.09525,0.09525 0.381,0.232833 0.275167,0.127 0.338667,0.254 0.137583,0.09525 0.22225,0.433917 0.09525,0.34925 0.254,0.423333 0.05292,0.254 0.1905,0.243417 0.09525,-0.04233 0.211666,-0.04233 0.381,0 0.560917,0.751416 0.127,0.53975 0.127,1.312334 0,0.116416 0,0.211666 0,0.09525 -0.01058,0.169334 z M 79.99186,38.56936 q -0.08467,-0.34925 -0.22225,-0.508 -0.1905,-0.5715 -0.1905,-0.656166 0,-0.0635 0.02117,-0.148167 -0.03175,0.02117 -0.08467,0.05292 -0.04233,0.02117 -0.09525,0.05292 l -0.05292,-0.01058 q -0.08467,-0.07408 -0.232834,-0.148167 -0.137583,-0.07408 -0.338666,-0.15875 -0.201084,-0.08467 -0.338667,-0.15875 -0.137583,-0.07408 -0.22225,-0.127 -0.05292,0.01058 -0.127,-0.01058 -0.07408,-0.02117 -0.15875,-0.04233 -0.07408,-0.03175 -0.148167,-0.05292 -0.07408,-0.03175 -0.116416,-0.03175 -0.105834,0 -0.179917,0.0635 -0.254,0.03175 -0.391583,-0.232833 -0.148167,0.381 -0.381,0.381 -0.179917,0.137583 -0.306917,0.22225 -0.127,0.08467 -0.1905,0.127 -0.275167,0.169333 -0.5715,0.201083 l -0.02117,0.264583 0.05292,0.08467 q -0.127,0.296333 -0.232833,0.306917 -0.0635,0 -0.211667,-0.07408 l 0.28575,0.34925 q -0.127,0.211667 -0.243417,1.248834 0.09525,0.116416 0.8255,1.2065 l 0.656167,0.28575 q 0.211667,0.08467 0.3175,0.211666 0.105833,0.127 0.148167,0.264584 0.05292,-0.04233 0.127,-0.08467 0.07408,-0.05292 0.179916,-0.105833 0.05292,0.04233 0.148167,0.04233 0.0635,0 0.179917,-0.02117 0.116416,-0.03175 0.179916,-0.03175 0.116417,0 0.201084,0.07408 l 0.02117,0.01058 q 0.04233,-0.01058 0.09525,-0.0635 0.05292,-0.05292 0.09525,-0.105833 0.05292,-0.0635 0.09525,-0.116417 0.04233,-0.05292 0.07408,-0.0635 0.783166,-0.254 1.164166,-1.037167 0.09525,-0.09525 0.148167,-0.486833 0.03175,-0.34925 0.169333,-0.423333 z m -1.598083,0.105834 q 0.03175,0.391583 -0.08467,0.486833 0.09525,0.05292 0.09525,0.137583 0,0.148167 -0.264583,0.28575 -0.264583,0.148167 -0.497417,0.148167 -0.179916,0 -0.275166,-0.08467 -0.08467,-0.08467 -0.137584,-0.359833 -0.04233,-0.22225 -0.201083,-0.306917 0.02117,-0.179916 0.15875,-0.328083 0.137583,-0.15875 0.296333,-0.15875 0.137584,0 0.232834,0.127 l 0.03175,-0.179917 q 0.01058,-0.127 0.127,-0.127 0.1905,0 0.518583,0.359834 z"
         style="stroke-width:0.26458332"
         id="path4027"
         inkscape:connector-curvature="0" />
    </g>
  </g>
</svg>
