<?xml version="1.0" encoding="UTF-8" standalone="no"?>
<!-- Created with Inkscape (http://www.inkscape.org/) -->

<svg
   xmlns:dc="http://purl.org/dc/elements/1.1/"
   xmlns:cc="http://creativecommons.org/ns#"
   xmlns:rdf="http://www.w3.org/1999/02/22-rdf-syntax-ns#"
   xmlns:svg="http://www.w3.org/2000/svg"
   xmlns="http://www.w3.org/2000/svg"
   xmlns:sodipodi="http://sodipodi.sourceforge.net/DTD/sodipodi-0.dtd"
   xmlns:inkscape="http://www.inkscape.org/namespaces/inkscape"
   width="24.183783mm"
   height="16.351837mm"
   viewBox="0 0 24.183783 16.351837"
   version="1.1"
   id="svg14877"
   inkscape:version="0.92.3 (2405546, 2018-03-11)"
   sodipodi:docname="rune_horse.svg">
  <defs
     id="defs14871" />
  <sodipodi:namedview
     id="base"
     pagecolor="#ffffff"
     bordercolor="#666666"
     borderopacity="1.0"
     inkscape:pageopacity="0.0"
     inkscape:pageshadow="2"
     inkscape:zoom="0.35"
     inkscape:cx="-805.72694"
     inkscape:cy="42.32968"
     inkscape:document-units="mm"
     inkscape:current-layer="layer1"
     showgrid="false"
     inkscape:window-width="1920"
     inkscape:window-height="1024"
     inkscape:window-x="-4"
     inkscape:window-y="-4"
     inkscape:window-maximized="1" />
  <metadata
     id="metadata14874">
    <rdf:RDF>
      <cc:Work
         rdf:about="">
        <dc:format>image/svg+xml</dc:format>
        <dc:type
           rdf:resource="http://purl.org/dc/dcmitype/StillImage" />
        <dc:title></dc:title>
      </cc:Work>
    </rdf:RDF>
  </metadata>
  <g
     inkscape:label="Layer 1"
     inkscape:groupmode="layer"
     id="layer1"
     transform="translate(-187.47954,-143.68122)">
    <g
       aria-label="n"
       style="font-style:normal;font-variant:normal;font-weight:normal;font-stretch:normal;font-size:10.58333302px;line-height:1.25;font-family:'Glorantha Core Runes';-inkscape-font-specification:'Glorantha Core Runes';letter-spacing:0px;word-spacing:0px;fill:#000000;fill-opacity:1;stroke:none;stroke-width:0.26458332"
       id="text999"
       transform="matrix(2.5000894,0,0,2.5000894,68.710953,56.207556)">
      <path
         d="m 47.505735,36.55455 c 0.359833,-0.423333 0.945445,-0.945445 1.756834,-1.566334 l 0.486833,0.09525 c 0.232833,0.479778 0.624417,0.934861 1.17475,1.36525 l 0.391583,0.582084 1.27,0.201083 c 0.1905,0.04939 0.398639,0.09172 0.624417,0.127 0.225778,0.02822 0.485951,0.132285 0.754062,0.153452 0.110373,0.103015 0.267238,0.60318 0.267238,0.60318 0.386261,-0.58106 0.03835,-0.431378 0.5027,-0.208951 0.381,0.479778 0.903111,0.77876 1.566333,1.082149 l 0.201083,0.687917 c 0.09878,0.134055 0.204611,0.289278 0.3175,0.465667 0.119945,0.176389 0.239889,0.377472 0.359834,0.60325 l -0.09525,0.783166 h -1.0795 c -0.127,-0.282222 -0.352778,-0.543277 -0.677333,-0.783166 -0.465667,-1.481667 -1.541639,-2.261306 -3.227917,-2.338917 -1.330252,0.07069 -2.016649,0.779383 -2.059189,2.126078 -0.0042,0.131858 -0.504848,-0.232859 -0.655413,0.06998 0.242522,0.307794 0.59352,0.224019 0.365102,0.926029 h -0.677333 -0.783167 c 0.108626,-1.055703 0.295643,-1.926858 0.561053,-2.613465 0.02668,-0.06902 0.325249,-0.09621 0.5506,-0.2402 0.131938,-0.0843 0.230085,-0.269507 0.256948,-0.365078 0.02804,-0.09976 -0.691723,0.27905 -0.538869,0.02131 0.256204,-0.432005 0.52934,-0.771598 0.863601,-0.993569 l -0.645583,-0.9525 c -0.254,0.141111 -0.515056,0.282223 -0.783167,0.423334 -0.268111,0.141111 -0.550333,0.282222 -0.846666,0.423333 z"
         style="stroke-width:0.26458332"
         id="path4033"
         inkscape:connector-curvature="0"
         sodipodi:nodetypes="ccccccccccccccccccsccccssssccscc" />
    </g>
  </g>
</svg>
