<?xml version="1.0" encoding="UTF-8" standalone="no"?>
<!-- Created with Inkscape (http://www.inkscape.org/) -->

<svg
   xmlns:dc="http://purl.org/dc/elements/1.1/"
   xmlns:cc="http://creativecommons.org/ns#"
   xmlns:rdf="http://www.w3.org/1999/02/22-rdf-syntax-ns#"
   xmlns:svg="http://www.w3.org/2000/svg"
   xmlns="http://www.w3.org/2000/svg"
   xmlns:sodipodi="http://sodipodi.sourceforge.net/DTD/sodipodi-0.dtd"
   xmlns:inkscape="http://www.inkscape.org/namespaces/inkscape"
   width="14.277933mm"
   height="14.241756mm"
   viewBox="0 0 14.277933 14.241756"
   version="1.1"
   id="svg8057"
   inkscape:version="0.92.3 (2405546, 2018-03-11)"
   sodipodi:docname="rune_illusion.svg">
  <defs
     id="defs8051" />
  <sodipodi:namedview
     id="base"
     pagecolor="#ffffff"
     bordercolor="#666666"
     borderopacity="1.0"
     inkscape:pageopacity="0.0"
     inkscape:pageshadow="2"
     inkscape:zoom="0.35"
     inkscape:cx="-470.16094"
     inkscape:cy="26.91356"
     inkscape:document-units="mm"
     inkscape:current-layer="layer1"
     showgrid="false"
     inkscape:window-width="1920"
     inkscape:window-height="1024"
     inkscape:window-x="-4"
     inkscape:window-y="-4"
     inkscape:window-maximized="1" />
  <metadata
     id="metadata8054">
    <rdf:RDF>
      <cc:Work
         rdf:about="">
        <dc:format>image/svg+xml</dc:format>
        <dc:type
           rdf:resource="http://purl.org/dc/dcmitype/StillImage" />
        <dc:title></dc:title>
      </cc:Work>
    </rdf:RDF>
  </metadata>
  <g
     inkscape:label="Layer 1"
     inkscape:groupmode="layer"
     id="layer1"
     transform="translate(-98.694367,-141.71246)">
    <g
       aria-label="i"
       style="font-style:normal;font-variant:normal;font-weight:normal;font-stretch:normal;font-size:10.58333302px;line-height:1.25;font-family:'Glorantha Core Runes';-inkscape-font-specification:'Glorantha Core Runes';letter-spacing:0px;word-spacing:0px;fill:#000000;fill-opacity:1;stroke:none;stroke-width:0.26458332"
       id="text935"
       transform="matrix(2.858258,0,0,2.858258,-63.091205,100.21299)">
      <path
         d="m 60.074182,15.411662 q 0,0.264583 -0.02117,0.306917 -0.02117,0.1905 -0.105833,0.296333 -0.02117,0.01058 -0.0635,0.04233 -0.04233,0.03175 -0.127,0.105834 -0.116417,0.09525 -0.179917,0.09525 -0.04233,0 -0.116417,-0.03175 l -0.02117,-0.01058 q -0.05292,0 -0.05292,0.03175 l 0.02117,0.03175 q -0.05292,0.08467 -0.15875,0.09525 -0.15875,0.01058 -0.179917,0.03175 -0.127,-0.02117 -0.232833,-0.0635 -0.243417,-0.08467 -0.359834,-0.169333 -0.03175,-0.105833 -0.243416,-0.28575 -0.02117,-0.08467 -0.04233,-0.201083 -0.02117,-0.127 -0.04233,-0.28575 0,-0.1905 0.105833,-0.264584 0.05292,0.02117 0.169334,-0.01058 0,-0.01058 -0.07408,-0.09525 -0.07408,-0.08467 -0.05292,-0.137583 l 0.148166,-0.15875 0.08467,-0.0635 q 0.08467,-0.04233 0.22225,-0.07408 0.148167,-0.03175 0.328083,-0.07408 0.07408,-0.01058 0.179917,0.01058 l 0.02117,0.04233 q 0,0.03175 -0.01058,0.09525 0,0.05292 -0.01058,0.137583 0.04233,0.01058 0.105833,-0.09525 0.08467,-0.116417 0.127,-0.08467 0.05292,0.04233 0.127,0.116417 0.07408,0.07408 0.169334,0.15875 0.201083,0.1905 0.15875,0.3175 -0.04233,0.08467 -0.04233,0.07408 0.169334,0 0.169334,0.116417 z m 1.481666,3.513667 q -0.03175,0.07408 -0.148166,0.243416 -0.116417,0.05292 -0.328084,0.254 -0.05292,0.05292 -0.41275,0.07408 -0.127,0 -0.34925,-0.08467 -0.08467,0.02117 -0.116416,0.02117 -0.137584,0 -0.370417,-0.328084 -0.04233,-0.04233 -0.04233,-0.105833 0.04233,-0.09525 0.05292,-0.243417 -0.07408,0 -0.169333,-0.0635 -0.02117,-0.4445 0.116417,-0.592666 0.04233,-0.148167 0.338666,-0.359834 0.201084,-0.232833 0.53975,-0.1905 0.08467,0.02117 0.07408,0.03175 0.02117,-0.0635 0.116416,-0.02117 0.306917,0.127 0.381,0.328083 0,0.03175 0,0.08467 0.01058,0.04233 0.02117,0.09525 0.02117,0 0.07408,-0.02117 0.05292,-0.03175 0.09525,-0.02117 0.148167,0.137584 0.169334,0.455084 0,0.02117 -0.01058,0.137583 -0.01058,0.105833 -0.03175,0.306917 z m -3.037416,-0.592667 q 0,0.28575 -0.232834,0.423333 0.02117,0.03175 0.05292,0.08467 0.03175,0.04233 0.05292,0.105833 0,0.01058 -0.02117,0.05292 -0.03175,0.02117 -0.08467,0.08467 -0.05292,0.05292 -0.127,0.15875 -0.105833,0.148166 -0.243416,0.169333 -0.1905,0.127 -0.402167,0.07408 -0.03175,-0.04233 -0.179917,-0.09525 -0.137583,-0.04233 -0.15875,-0.08467 -0.01058,-0.05292 -0.04233,-0.148167 -0.01058,0.02117 -0.04233,0.0635 -0.02117,0.04233 -0.0635,0.09525 -0.08467,-0.02117 -0.275167,-0.306917 -0.09525,-0.264583 -0.07408,-0.34925 0.137583,-0.137583 0.127,-0.211666 -0.02117,-0.05292 -0.04233,-0.05292 -0.02117,0 -0.105833,0.05292 -0.05292,0.02117 -0.05292,-0.02117 0,-0.05292 0.01058,-0.07408 l 0.15875,-0.423334 q 0.07408,-0.1905 0.264583,-0.275166 0.05292,-0.02117 0.127,-0.05292 0.08467,-0.03175 0.201083,-0.05292 0.0635,0 0.127,0.07408 0.04233,0.127 0.105834,0.137583 0,-0.201083 0.09525,-0.22225 0.02117,0.01058 0.08467,0.03175 0.0635,0.02117 0.15875,0.07408 0.486834,0.359834 0.582084,0.687917 z"
         style="stroke-width:0.26458332"
         id="path4078"
         inkscape:connector-curvature="0" />
    </g>
  </g>
</svg>
