<?xml version="1.0" encoding="UTF-8" standalone="no"?>
<!-- Created with Inkscape (http://www.inkscape.org/) -->

<svg
   xmlns:dc="http://purl.org/dc/elements/1.1/"
   xmlns:cc="http://creativecommons.org/ns#"
   xmlns:rdf="http://www.w3.org/1999/02/22-rdf-syntax-ns#"
   xmlns:svg="http://www.w3.org/2000/svg"
   xmlns="http://www.w3.org/2000/svg"
   xmlns:sodipodi="http://sodipodi.sourceforge.net/DTD/sodipodi-0.dtd"
   xmlns:inkscape="http://www.inkscape.org/namespaces/inkscape"
   width="20.946672mm"
   height="18.695311mm"
   viewBox="0 0 20.946672 18.695311"
   version="1.1"
   id="svg930"
   inkscape:version="0.92.3 (2405546, 2018-03-11)"
   sodipodi:docname="rune_law.svg">
  <defs
     id="defs924" />
  <sodipodi:namedview
     id="base"
     pagecolor="#ffffff"
     bordercolor="#666666"
     borderopacity="1.0"
     inkscape:pageopacity="0.0"
     inkscape:pageshadow="2"
     inkscape:zoom="0.7"
     inkscape:cx="-35.87576"
     inkscape:cy="-431.72464"
     inkscape:document-units="mm"
     inkscape:current-layer="layer1"
     showgrid="false"
     inkscape:window-width="1920"
     inkscape:window-height="1024"
     inkscape:window-x="-4"
     inkscape:window-y="-4"
     inkscape:window-maximized="1"
     fit-margin-top="0"
     fit-margin-left="0"
     fit-margin-right="0"
     fit-margin-bottom="0" />
  <metadata
     id="metadata927">
    <rdf:RDF>
      <cc:Work
         rdf:about="">
        <dc:format>image/svg+xml</dc:format>
        <dc:type
           rdf:resource="http://purl.org/dc/dcmitype/StillImage" />
        <dc:title></dc:title>
      </cc:Work>
    </rdf:RDF>
  </metadata>
  <g
     inkscape:label="Layer 1"
     inkscape:groupmode="layer"
     id="layer1"
     transform="translate(-6.1576207,-4.1702057)">
    <g
       aria-label="a"
       style="font-style:normal;font-variant:normal;font-weight:normal;font-stretch:normal;font-size:10.58333302px;line-height:1.25;font-family:'Glorantha Core Runes';-inkscape-font-specification:'Glorantha Core Runes';letter-spacing:0px;word-spacing:0px;fill:#000000;fill-opacity:1;stroke:none;stroke-width:0.26458332"
       id="text947"
       transform="matrix(2.858258,0,0,2.858258,-2.497039,-60.354154)">
      <path
         d="m 10.341032,28.649548 q 0.04233,0.148166 -0.03175,0.381 -0.8043335,0.137583 -1.4075835,-0.04233 l -0.127,0.116417 q -0.4550833,0.0635 -0.7090833,-0.243417 L 7.5681986,29.104631 Q 6.5733653,29.094048 5.451532,29.072881 4.3296987,29.051714 3.0702821,29.030548 l -0.042333,-0.09525 q 0.042333,-0.05292 0.1375834,-0.254 0.1058333,-0.211667 0.2751666,-0.550333 0.2645833,-0.518584 0.508,-0.740834 0.03175,0.01058 0.1164167,0.01058 0.074083,0 0.1058333,-0.01058 -0.084667,-0.433916 0.6879166,-1.767416 0.7725833,-1.344084 1.17475,-1.55575 L 5.991282,23.897631 q 0.074083,-0.22225 0.3386666,-0.719666 0.3069167,-0.560917 0.4339167,-0.60325 0.2116666,0.137583 0.508,0.677333 0.2963333,0.518583 0.2963333,0.8255 0,0.07408 -0.010583,0.105833 0.2222499,0.09525 0.7619999,1.016 0.635,1.100667 0.73025,1.2065 l 0.052917,0.28575 q 0.2645833,0.306917 0.635,0.9525 0.4550835,0.814917 0.6032495,1.005417 z M 8.6688652,28.067465 v -0.07408 q -0.127,-0.116416 -0.2328333,-0.423333 -0.1375833,-0.338667 -0.2328333,-0.433917 -0.074083,-0.211666 0.042333,-0.41275 -0.084667,-0.08467 -0.254,-0.116416 -0.052917,-0.07408 -0.2010833,-0.306917 -0.1375834,-0.243417 -0.381,-0.645583 -0.3598333,-0.613834 -0.66675,-0.910167 -0.052917,0.105833 -0.2116667,0.34925 -0.1587499,0.243417 -0.4233333,0.613833 -0.4021666,0.592667 -0.53975,1.026584 -0.042333,0.127 -0.2010833,0.232833 -0.2328333,0.148167 -0.2751666,0.1905 0.052917,0.254 -0.4339167,0.889 0.084667,0.08467 0.3704167,0.08467 H 5.451532 l 0.15875,0.148166 0.042333,-0.04233 0.084667,0.07408 q -0.010583,-0.127 0,-0.201083 0.3598333,-0.05292 1.7144999,0.01058 l 0.22225,0.22225 0.1058333,-0.03175 q 0.09525,-0.264583 0.4021667,-0.264583 h 0.34925 l 0.127,0.01058 0.042333,0.01058 z"
         style="stroke-width:0.26458332"
         id="path4069"
         inkscape:connector-curvature="0" />
    </g>
  </g>
</svg>
