<?xml version="1.0" encoding="UTF-8" standalone="no"?>
<!-- Created with Inkscape (http://www.inkscape.org/) -->

<svg
   xmlns:dc="http://purl.org/dc/elements/1.1/"
   xmlns:cc="http://creativecommons.org/ns#"
   xmlns:rdf="http://www.w3.org/1999/02/22-rdf-syntax-ns#"
   xmlns:svg="http://www.w3.org/2000/svg"
   xmlns="http://www.w3.org/2000/svg"
   xmlns:sodipodi="http://sodipodi.sourceforge.net/DTD/sodipodi-0.dtd"
   xmlns:inkscape="http://www.inkscape.org/namespaces/inkscape"
   width="19.94331mm"
   height="20.50943mm"
   viewBox="0 0 19.94331 20.50943"
   version="1.1"
   id="svg19439"
   inkscape:version="0.92.3 (2405546, 2018-03-11)"
   sodipodi:docname="rune_light.svg">
  <defs
     id="defs19433" />
  <sodipodi:namedview
     id="base"
     pagecolor="#ffffff"
     bordercolor="#666666"
     borderopacity="1.0"
     inkscape:pageopacity="0.0"
     inkscape:pageshadow="2"
     inkscape:zoom="0.35"
     inkscape:cx="-476.59757"
     inkscape:cy="304.47226"
     inkscape:document-units="mm"
     inkscape:current-layer="layer1"
     showgrid="false"
     inkscape:window-width="1920"
     inkscape:window-height="1024"
     inkscape:window-x="-4"
     inkscape:window-y="-4"
     inkscape:window-maximized="1" />
  <metadata
     id="metadata19436">
    <rdf:RDF>
      <cc:Work
         rdf:about="">
        <dc:format>image/svg+xml</dc:format>
        <dc:type
           rdf:resource="http://purl.org/dc/dcmitype/StillImage" />
        <dc:title></dc:title>
      </cc:Work>
    </rdf:RDF>
  </metadata>
  <g
     inkscape:label="Layer 1"
     inkscape:groupmode="layer"
     id="layer1"
     transform="translate(-100.39739,-208.88219)">
    <g
       aria-label="O"
       style="font-style:normal;font-variant:normal;font-weight:normal;font-stretch:normal;font-size:10.58333302px;line-height:1.25;font-family:'Glorantha Core Runes';-inkscape-font-specification:'Glorantha Core Runes';letter-spacing:0px;word-spacing:0px;fill:#000000;fill-opacity:1;stroke:none;stroke-width:0.26458332"
       id="text1255"
       transform="matrix(2.858258,0,0,2.858258,-128.79961,68.464563)">
      <path
         d="m 80.917902,50.449912 0.275167,-0.116417 0.04233,-0.22225 0.328083,-0.137583 0.201084,-0.28575 c 0.345722,-0.169333 0.800805,-0.331611 1.36525,-0.486833 l 0.0635,0.201083 0.1905,-0.127 c 0.148167,-0.09878 0.331611,-0.148167 0.550333,-0.148167 0.486833,0 0.818444,0.204611 0.994833,0.613834 0.0635,0 0.289278,0.04586 0.677334,0.137583 l 0.105833,0.275167 0.105833,0.02117 c 0.09878,-0.05645 0.1905,-0.08467 0.275167,-0.08467 0.388055,0 0.684389,0.47625 0.889,1.42875 0.155222,0.740833 0.211666,1.361722 0.169333,1.862666 -0.141111,0.0071 -0.243416,0.01411 -0.306916,0.02117 h -0.08467 c 0.02822,0.08467 0.112887,0.15875 0.254,0.22225 0.02822,0.05645 0.04233,0.13053 0.04233,0.22225 0,0.232833 -0.09878,0.493889 -0.296333,0.783167 -0.1905,0.289277 -0.377472,0.476249 -0.560917,0.560916 -0.09172,0.183445 -0.194027,0.331611 -0.306916,0.4445 -0.07761,0.02822 -0.172861,0.05997 -0.28575,0.09525 -0.105833,0.03528 -0.232833,0.07409 -0.381,0.116417 -0.01411,-0.02117 -0.0247,-0.03175 -0.03175,-0.03175 0,0.04233 -0.0035,0.07408 -0.01058,0.09525 -0.01411,0.05645 -0.03881,0.07409 -0.07408,0.05292 -0.289278,0.211667 -0.592667,0.3175 -0.910167,0.3175 -0.105833,0 -0.22225,-0.01764 -0.34925,-0.05292 -0.169333,0.04939 -0.306917,0.07408 -0.41275,0.07408 -0.155222,0 -0.268111,-0.04586 -0.338666,-0.137583 -0.381,0.0071 -0.744361,-0.07056 -1.090084,-0.232834 -0.338667,-0.162277 -0.599722,-0.391583 -0.783166,-0.687916 l -0.34925,-0.28575 -0.07408,-0.116417 -0.1905,0.0635 c -0.282222,-0.740833 -0.423333,-1.464028 -0.423333,-2.169583 0,-0.232092 0.0073,-0.400603 0.120363,-0.563388 0.162716,-0.234348 -0.0715,-0.420233 0.11247,-0.823029 z m 5.037667,3.630083 c 0.162277,-0.465667 0.243416,-0.885472 0.243416,-1.259416 0,-0.627945 -0.236361,-1.266473 -0.709083,-1.915584 h -0.243417 l -0.179916,0.01058 -0.116417,-0.1905 c -0.395111,-0.402167 -0.723195,-0.60325 -0.98425,-0.60325 -0.155222,0 -0.310444,0.05997 -0.465667,0.179916 -0.05645,-0.03528 -0.116419,-0.05292 -0.179916,-0.05292 -0.09172,0 -0.215195,0.04233 -0.370417,0.127 -0.310445,-0.02822 -0.564445,0.112891 -0.762,0.423333 l -0.148174,0.127 -0.4445,0.243417 c -0.05645,0.09172 -0.109363,0.211666 -0.15875,0.359833 -0.04939,0.03528 -0.09877,0.0882 -0.148166,0.15875 -0.04233,0.0635 -0.08114,0.137583 -0.116417,0.22225 -0.03528,0.08467 -0.0635,0.172861 -0.08467,0.264583 -0.02117,0.08467 -0.03175,0.169333 -0.03175,0.254 0,0.134056 0.02469,0.229306 0.07408,0.28575 0,0.127 -0.05997,0.211667 -0.179917,0.254 0.04233,0.296333 0.183444,0.702028 0.423333,1.217084 0.296333,0.613833 0.578556,0.92075 0.846667,0.92075 0.09878,0 0.183445,-0.03528 0.254,-0.105834 l 0.08467,0.01058 0.116416,0.169333 c 0.141111,0.0071 0.254,0.01058 0.338667,0.01058 0.08467,-0.0071 0.141111,-0.01411 0.169333,-0.02117 0.141111,0.204611 0.34925,0.306916 0.624417,0.306916 0.218722,0 0.405694,-0.06703 0.560917,-0.201083 v -0.127 l 0.1905,0.137583 c 0.183444,-0.09172 0.349249,-0.183444 0.497416,-0.275166 0.148167,-0.09172 0.282222,-0.183445 0.402167,-0.275167 0.0071,-0.04233 0.02822,-0.09525 0.0635,-0.15875 l 0.127,-0.1905 c 0.04939,-0.0635 0.102303,-0.119944 0.15875,-0.169333 0.05645,-0.05645 0.105836,-0.102308 0.148167,-0.137584 z"
         style="stroke-width:0.26458332"
         id="path4006"
         inkscape:connector-curvature="0"
         sodipodi:nodetypes="ccccccccsccccscccccsccccccccscsccccccsscccsccccscsccccccccscccscccccscccccccccc" />
    </g>
  </g>
</svg>
