<?xml version="1.0" encoding="UTF-8" standalone="no"?>
<!-- Created with Inkscape (http://www.inkscape.org/) -->

<svg
   xmlns:dc="http://purl.org/dc/elements/1.1/"
   xmlns:cc="http://creativecommons.org/ns#"
   xmlns:rdf="http://www.w3.org/1999/02/22-rdf-syntax-ns#"
   xmlns:svg="http://www.w3.org/2000/svg"
   xmlns="http://www.w3.org/2000/svg"
   xmlns:sodipodi="http://sodipodi.sourceforge.net/DTD/sodipodi-0.dtd"
   xmlns:inkscape="http://www.inkscape.org/namespaces/inkscape"
   width="21.038546mm"
   height="17.806461mm"
   viewBox="0 0 21.038546 17.806461"
   version="1.1"
   id="svg28059"
   inkscape:version="0.92.3 (2405546, 2018-03-11)"
   sodipodi:docname="rune_malkion.svg">
  <defs
     id="defs28053" />
  <sodipodi:namedview
     id="base"
     pagecolor="#ffffff"
     bordercolor="#666666"
     borderopacity="1.0"
     inkscape:pageopacity="0.0"
     inkscape:pageshadow="2"
     inkscape:zoom="0.35"
     inkscape:cx="39.757885"
     inkscape:cy="33.650005"
     inkscape:document-units="mm"
     inkscape:current-layer="layer1"
     showgrid="false"
     inkscape:window-width="1920"
     inkscape:window-height="1024"
     inkscape:window-x="-4"
     inkscape:window-y="-4"
     inkscape:window-maximized="1" />
  <metadata
     id="metadata28056">
    <rdf:RDF>
      <cc:Work
         rdf:about="">
        <dc:format>image/svg+xml</dc:format>
        <dc:type
           rdf:resource="http://purl.org/dc/dcmitype/StillImage" />
        <dc:title></dc:title>
      </cc:Work>
    </rdf:RDF>
  </metadata>
  <g
     inkscape:label="Layer 1"
     inkscape:groupmode="layer"
     id="layer1"
     transform="translate(36.221655,-139.9301)">
    <g
       aria-label="MQ0"
       style="font-style:normal;font-variant:normal;font-weight:normal;font-stretch:normal;font-size:10.58333302px;line-height:1.25;font-family:'Glorantha Core Runes';-inkscape-font-specification:'Glorantha Core Runes';letter-spacing:0px;word-spacing:0px;fill:#000000;fill-opacity:1;stroke:none;stroke-width:0.26458332"
       id="g26849"
       transform="matrix(2.8277299,0,0,2.8277299,-181.37334,8.384925)">
      <path
         d="M 55.448444,51.038794 55.258358,50.72474 c 0.01053,-0.179983 -0.08145,-0.140881 -0.128176,-0.21177 l -0.168572,-0.278509 -0.41275,0.814916 z m -0.635,-4.360333 c 0.07056,-0.07055 0.186972,-0.123472 0.34925,-0.15875 0.352777,0.437444 0.571499,0.850194 0.656166,1.23825 l 0.169334,0.05292 c 0.134055,0.176389 0.201083,0.328084 0.201083,0.455084 0,0.07761 -0.01764,0.169333 -0.05292,0.275166 0.05645,0.03528 0.119947,0.07761 0.1905,0.127 0.07761,0.04939 0.165806,0.112887 0.264584,0.1905 0.324555,0.578556 0.66675,1.195917 1.026583,1.852084 0.366889,0.649111 0.751416,1.340555 1.153583,2.074333 l -0.15875,-0.02117 c -0.07055,-0.01411 -0.155222,-0.01764 -0.254,-0.01058 -0.09878,0.0071 -0.211666,0.01764 -0.338666,0.03175 -0.296333,0.02117 -0.500945,0.03175 -0.613834,0.03175 -0.246944,0 -0.448027,-0.02469 -0.60325,-0.07408 0.01411,0.02117 0.02117,0.03528 0.02117,0.04233 0.0071,0.0071 0.0071,0.0035 0,-0.01058 -0.0071,0 -0.01411,-0.0035 -0.02117,-0.01058 -0.331611,0.02117 -0.966611,0.03175 -1.905,0.03175 -0.564444,0.0071 -1.005416,0.01058 -1.322916,0.01058 -0.310445,-0.0071 -0.504473,-0.0071 -0.582084,0 l -0.127,0.01058 c -0.4445,-0.02117 -0.956028,-0.02117 -1.534583,0 0.02117,-0.204611 0.151695,-0.493889 0.391584,-0.867833 0.246944,-0.388056 0.451555,-0.596195 0.613833,-0.624417 -0.02117,-0.155222 0.144639,-0.543278 0.497416,-1.164167 0.204611,-0.366889 0.363361,-0.652639 0.47625,-0.85725 0.119945,-0.204611 0.186973,-0.331611 0.201084,-0.381 l 0.232833,-0.1905 c 0.03528,-0.127 0.09525,-0.275167 0.179917,-0.4445 0.08467,-0.169333 0.1905,-0.363361 0.3175,-0.582083 0.155222,-0.261055 0.278694,-0.47625 0.370416,-0.645583 0.09878,-0.176389 0.165806,-0.303389 0.201084,-0.381 z m 2.275416,4.709583 h -0.15875 c -0.07761,-0.09172 -0.116416,-0.144639 -0.116416,-0.15875 0,-0.0071 0.0035,-0.01411 0.01058,-0.02117 -0.0071,-0.01411 -0.05291,-0.0635 -0.137583,-0.148166 -0.01411,-0.04939 -0.04234,-0.105831 -0.08467,-0.169334 -0.04233,-0.0635 -0.0635,-0.109361 -0.0635,-0.137583 0,-0.03528 0.01058,-0.07056 0.03175,-0.105833 -0.01411,-0.0635 -0.05292,-0.127 -0.116417,-0.1905 -0.119944,-0.162278 -0.345722,-0.560917 -0.677333,-1.195917 -0.268111,-0.522111 -0.525639,-0.896056 -0.772583,-1.121833 -0.02822,0.04939 -0.268109,0.448025 -0.719667,1.195916 -0.155222,0.246945 -0.28575,0.47625 -0.391583,0.687917 -0.09878,0.204611 -0.176389,0.395111 -0.232834,0.5715 -0.03528,0.105833 -0.116419,0.197556 -0.243416,0.275167 -0.169333,0.09878 -0.271639,0.169333 -0.306917,0.211666 0.02822,0.1905 -0.152809,0.450824 -0.519696,0.944713 0.04939,0.07055 0.190498,0.105833 0.423333,0.105833 h 0.486834 c 0.02822,0.01411 0.04939,0.02117 0.0635,0.02117 0.03528,0 0.07761,-0.02469 0.127,-0.07408 l 0.05292,0.179917 0.09525,0.08467 c -0.02117,-0.105833 -0.02117,-0.186972 0,-0.243417 0.134056,-0.01411 0.363362,-0.03175 0.687917,-0.05292 0.331611,-0.02117 0.762,0 1.291167,0.0635 l 0.254,0.03175 0.127,0.201084 c 0.07055,-0.211667 0.225777,-0.3175 0.465666,-0.3175 l 0.518584,0.01058 h 0.254 l -0.369304,-0.479046 z m -0.73025,0.15875 c 0,0.0071 -0.0035,0.01411 -0.01058,0.02117 l -0.02117,0.02117 c -0.0071,0 -0.01411,0.0071 -0.02117,0.02117 -0.246945,0 -0.381,0.0035 -0.402167,0.01058 -0.05645,0.02117 -0.08467,0.02117 -0.08467,0 -0.155222,-0.04233 -0.465666,-0.05292 -0.931333,-0.03175 -0.204611,0.0071 -0.388056,0.01764 -0.550333,0.03175 -0.155223,0.01411 -0.289278,0.02822 -0.402167,0.04233 -0.04233,-0.02822 -0.07761,-0.04586 -0.105833,-0.05292 l -0.04233,0.04233 -0.04233,-0.04233 -0.04233,0.04233 h -0.02117 l 0.534007,-1.028164 c 0.354309,-0.319723 0.340886,-0.255132 0.175076,-0.337086 l 0.4445,-0.92075 0.243417,-0.148166 -0.03175,0.04233 c 0.110983,0.186166 0.27384,0.444163 0.330225,0.563946 -0.196794,0.0929 -0.191971,0.160784 0.109636,0.191765 0.138799,0.183848 0.321725,0.573758 0.366541,0.757935 0.250887,0.198507 0.280154,0.370187 0.505931,0.772354 z"
         style="stroke-width:0.26458332"
         id="path26847"
         inkscape:connector-curvature="0"
         sodipodi:nodetypes="ccccccccccsccccccccsccccccccccccccccccccccscccsccccccccccscscccccccccccccsccccccccccccccccccccccs" />
    </g>
  </g>
</svg>
