<?xml version="1.0" encoding="UTF-8" standalone="no"?>
<!-- Created with Inkscape (http://www.inkscape.org/) -->

<svg
   xmlns:dc="http://purl.org/dc/elements/1.1/"
   xmlns:cc="http://creativecommons.org/ns#"
   xmlns:rdf="http://www.w3.org/1999/02/22-rdf-syntax-ns#"
   xmlns:svg="http://www.w3.org/2000/svg"
   xmlns="http://www.w3.org/2000/svg"
   xmlns:sodipodi="http://sodipodi.sourceforge.net/DTD/sodipodi-0.dtd"
   xmlns:inkscape="http://www.inkscape.org/namespaces/inkscape"
   width="20.934mm"
   height="20.97105mm"
   viewBox="0 0 20.934 20.97105"
   version="1.1"
   id="svg15446"
   inkscape:version="0.92.3 (2405546, 2018-03-11)"
   sodipodi:docname="rune_man.svg">
  <defs
     id="defs15440" />
  <sodipodi:namedview
     id="base"
     pagecolor="#ffffff"
     bordercolor="#666666"
     borderopacity="1.0"
     inkscape:pageopacity="0.0"
     inkscape:pageshadow="2"
     inkscape:zoom="0.35"
     inkscape:cx="-1091.8683"
     inkscape:cy="625.34462"
     inkscape:document-units="mm"
     inkscape:current-layer="layer1"
     showgrid="false"
     inkscape:window-width="1920"
     inkscape:window-height="1024"
     inkscape:window-x="-4"
     inkscape:window-y="-4"
     inkscape:window-maximized="1" />
  <metadata
     id="metadata15443">
    <rdf:RDF>
      <cc:Work
         rdf:about="">
        <dc:format>image/svg+xml</dc:format>
        <dc:type
           rdf:resource="http://purl.org/dc/dcmitype/StillImage" />
        <dc:title></dc:title>
      </cc:Work>
    </rdf:RDF>
  </metadata>
  <g
     inkscape:label="Layer 1"
     inkscape:groupmode="layer"
     id="layer1"
     transform="translate(-263.18776,-293.31805)">
    <g
       aria-label=","
       style="font-style:normal;font-variant:normal;font-weight:normal;font-stretch:normal;font-size:10.58333302px;line-height:1.25;font-family:'Glorantha Core Runes';-inkscape-font-specification:'Glorantha Core Runes';letter-spacing:0px;word-spacing:0px;fill:#000000;fill-opacity:1;stroke:none;stroke-width:0.26458332"
       id="text1213"
       transform="matrix(3.5009079,0,0,3.5009079,41.674084,165.18446)">
      <path
         d="m 69.252795,39.542271 q -0.137583,0.201083 -0.47625,0.179916 -0.09525,-0.09525 -0.243417,-0.15875 l -0.116416,0.08467 -0.41275,0.03175 q -0.137584,0.01058 -0.232834,-0.01058 -0.09525,-0.02117 -0.169333,-0.05292 -0.455083,0.07408 -0.899583,0 -0.03175,0.0635 -0.09525,0.338667 -0.0635,0.275166 -0.0635,0.338666 0,0.15875 0.433916,0.275167 0.508,0.116417 0.582084,0.254 0,0.116417 -0.03175,0.211667 l 0.05292,0.105833 q 0.08467,-0.02117 0.179917,-0.04233 0.09525,-0.02117 0.1905,-0.0635 0.05292,0.05292 0.137583,0.105833 0.08467,0.05292 0.201084,0.105833 0.07408,0.169334 0.370416,0.433917 0.169334,0.169333 0.232834,0.381 0.08467,0.275167 0.15875,0.402167 l -0.09525,0.105833 q -0.09525,-0.04233 -0.254,-0.02117 -0.211667,0.03175 -0.254,0.03175 -0.211667,0 -0.275167,-0.275166 -0.03175,-0.116417 -0.402167,-0.4445 -0.211666,-0.179917 -0.328083,-0.306917 -0.116417,-0.127 -0.15875,-0.179917 -0.994833,-0.179916 -1.016,-0.179916 -0.08467,0 -0.201083,0.02117 -0.105834,0.01058 -0.232834,0.03175 -0.116416,0.02117 -0.232833,0.04233 -0.116416,0.01058 -0.1905,0.01058 -0.04233,0 -0.08467,0 -0.04233,0 -0.08467,-0.01058 -0.04233,0.01058 0.04233,0.179916 -0.05292,0.03175 -0.15875,0.116417 -0.09525,0.07408 -0.243416,0.1905 -0.211667,0.179917 -0.433917,0.264583 l 0.08467,0.15875 q -0.05292,0.201084 -0.127,0.370417 l -0.1905,0.02117 q -0.09525,0 -0.264584,-0.02117 -0.169333,-0.02117 -0.296333,-0.01058 -0.02117,-0.08467 -0.02117,-0.105834 -0.01058,-0.02117 -0.01058,-0.04233 0,-0.34925 0.22225,-0.66675 0.05292,-0.08467 0.169333,-0.201083 0.116417,-0.127 0.296334,-0.306917 l 0.243416,0.05292 q 0.05292,-0.15875 0.179917,-0.306917 0.137583,-0.148167 0.381,-0.254 l 0.740833,-0.3175 0.01058,-0.73025 q -0.105833,-0.07408 -0.476249,-0.07408 -0.02117,0 -0.09525,0.01058 -0.0635,0 -0.179917,0.01058 -0.07408,0.01058 -0.137583,0.01058 -0.05292,-0.01058 -0.105834,-0.02117 -0.127,-0.01058 -0.264583,-0.116417 -0.243417,0.148167 -0.560917,0.148167 -0.05292,0 -0.137583,0 -0.07408,-0.01058 -0.179917,-0.02117 -0.116416,-0.01058 -0.201083,-0.01058 -0.07408,-0.01058 -0.116417,-0.01058 l -0.0635,-0.15875 0.02117,0.01058 0.02117,-0.0635 q 0,-0.07408 -0.05292,-0.211667 -0.05292,-0.148166 -0.0635,-0.201083 0.07408,-0.105833 0.41275,-0.105833 0.582083,0 0.8255,0.275166 0.116417,-0.15875 0.254,-0.264583 l 0.1905,0.03175 q 0.0635,0 0.15875,-0.01058 0.09525,-0.01058 0.1905,-0.02117 0.105833,-0.02117 0.201083,-0.03175 0.105834,-0.02117 0.169334,-0.02117 -0.105834,-0.09525 -0.22225,-0.1905 -0.105834,-0.105834 -0.201084,-0.22225 -0.09525,-0.116417 -0.15875,-0.254 -0.05292,-0.137584 -0.05292,-0.306917 v -0.05292 q 0.137583,-0.03175 0.22225,-0.09525 -0.137584,0 -0.201084,-0.116416 0.15875,-0.529167 0.508,-0.772584 l 0.05292,0.02117 q 0.211666,-0.243417 0.624416,-0.243417 0.47625,0 0.783167,0.28575 0.01058,0.05292 0.02117,0.116417 0.01058,0.05292 0.02117,0.137583 0.232834,0.201084 0.275167,0.28575 0.09525,0.148167 0.09525,0.391584 0,0.433916 -0.148167,0.582083 -0.28575,0.28575 -0.306916,0.3175 l -0.148167,0.07408 q 0.0635,0.02117 0.402167,0.02117 0.22225,0 0.41275,0.275166 0.01058,-0.137583 0.169333,-0.253999 h 0.15875 q 0.486833,0 0.645583,0.116416 0.169334,-0.105833 0.60325,-0.137583 0,0.116416 0,0.306916 0.01058,0.179917 0.02117,0.423334 z m -3.048,-2.243667 q -0.09525,0 -0.1905,0.05292 -0.08467,0.04233 -0.15875,0.127 -0.07408,0.07408 -0.127,0.169333 -0.04233,0.08467 -0.04233,0.179917 0,0.08467 0.08467,0.116417 0.04233,0.1905 0.275167,0.28575 0.296333,0.116416 0.359833,0.169333 v -0.02117 q 0,-0.09525 0.15875,-0.22225 0.169334,-0.127 0.169334,-0.211666 0,-0.41275 -0.15875,-0.508 -0.232834,-0.137584 -0.370417,-0.137584 z"
         style="stroke-width:0.26458332"
         id="path4030"
         inkscape:connector-curvature="0" />
    </g>
  </g>
</svg>
