<?xml version="1.0" encoding="UTF-8" standalone="no"?>
<!-- Created with Inkscape (http://www.inkscape.org/) -->

<svg
   xmlns:dc="http://purl.org/dc/elements/1.1/"
   xmlns:cc="http://creativecommons.org/ns#"
   xmlns:rdf="http://www.w3.org/1999/02/22-rdf-syntax-ns#"
   xmlns:svg="http://www.w3.org/2000/svg"
   xmlns="http://www.w3.org/2000/svg"
   xmlns:sodipodi="http://sodipodi.sourceforge.net/DTD/sodipodi-0.dtd"
   xmlns:inkscape="http://www.inkscape.org/namespaces/inkscape"
   width="16.427855mm"
   height="16.37322mm"
   viewBox="0 0 16.427855 16.37322"
   version="1.1"
   id="svg1798"
   inkscape:version="0.92.3 (2405546, 2018-03-11)"
   sodipodi:docname="rune_moon_black.svg">
  <defs
     id="defs1792" />
  <sodipodi:namedview
     id="base"
     pagecolor="#ffffff"
     bordercolor="#666666"
     borderopacity="1.0"
     inkscape:pageopacity="0.0"
     inkscape:pageshadow="2"
     inkscape:zoom="0.35"
     inkscape:cx="1442.4734"
     inkscape:cy="-1077.6299"
     inkscape:document-units="mm"
     inkscape:current-layer="layer1"
     showgrid="false"
     inkscape:window-width="1920"
     inkscape:window-height="1024"
     inkscape:window-x="-4"
     inkscape:window-y="-4"
     inkscape:window-maximized="1" />
  <metadata
     id="metadata1795">
    <rdf:RDF>
      <cc:Work
         rdf:about="">
        <dc:format>image/svg+xml</dc:format>
        <dc:type
           rdf:resource="http://purl.org/dc/dcmitype/StillImage" />
        <dc:title></dc:title>
      </cc:Work>
    </rdf:RDF>
  </metadata>
  <g
     inkscape:label="Layer 1"
     inkscape:groupmode="layer"
     id="layer1"
     transform="translate(407.35679,152.6628)">
    <g
       aria-label="1"
       style="font-style:normal;font-variant:normal;font-weight:normal;font-stretch:normal;font-size:10.58333302px;line-height:1.25;font-family:'Glorantha Core Runes';-inkscape-font-specification:'Glorantha Core Runes';letter-spacing:0px;word-spacing:0px;fill:#000000;fill-opacity:1;stroke:none;stroke-width:0.26458332"
       id="text817"
       transform="matrix(2.858258,0,0,2.858258,-411.94034,-155.29572)">
      <path
         d="m 7.350367,3.7211452 q 0.010583,0.2434167 -0.127,0.47625 -0.042333,0.03175 -0.042333,0.074083 0,0.03175 0.03175,0.09525 0.042333,0.0635 0.042333,0.09525 0.03175,0.2116667 -0.2328333,0.6773334 -0.052917,0.03175 -0.09525,0.1164166 -0.042333,0.074083 -0.084667,0.15875 -0.042333,0.084667 -0.084667,0.1693333 -0.042333,0.074083 -0.1058334,0.1058334 -0.127,0.074083 -0.3386666,0.2328333 -0.2010833,0.1481667 -0.47625,0.381 Q 5.6993664,6.2717282 5.561783,6.4093115 5.4241997,6.5468948 5.2866164,6.5151448 5.1807831,6.5257278 5.0114497,6.6209782 q -0.042333,0.021167 -0.074083,0.021167 -0.03175,0 -0.09525,-0.03175 -0.052917,-0.03175 -0.084667,-0.03175 -0.042333,0 -0.09525,0.052917 -0.052917,0 -0.1481666,-0.074083 -0.09525,-0.084667 -0.15875,-0.0635 -0.1164167,0.22225 -0.4445,0.127 -0.1799167,-0.074083 -0.3386667,-0.127 -0.15875,-0.052917 -0.3069166,-0.074083 -0.021167,-0.09525 0.084667,-0.1693333 l 0.15875,-0.127 -0.021167,-0.021167 q -0.03175,0.010583 -0.1799167,0.052917 -0.1481667,0.042333 -0.41275,0.127 -0.03175,-0.010583 -0.09525,-0.0635 -0.052917,-0.052917 -0.1164166,-0.1058333 -0.0635,-0.0635 -0.1375834,-0.1164167 -0.0635,-0.052917 -0.127,-0.0635 -0.1481666,-0.042333 -0.254,-0.2645833 Q 2.0481172,5.4038952 1.9952005,5.3403952 1.8893672,5.2557285 1.8576172,5.0546452 1.7412005,4.8853119 1.7412005,4.7688952 q 0,-0.084667 0.042333,-0.127 -0.1693334,-0.0635 -0.1799167,-0.1905 0.010583,-0.2963333 0.1481667,-0.381 -0.010583,-0.021167 -0.010583,-0.2751666 0,-0.1693334 -0.1164166,-0.2328334 0.074083,-0.074083 0.15875,-0.2963333 -0.074083,-0.1693333 -0.084667,-0.508 L 1.9740338,2.3241453 q 0.052917,-0.074083 0.2328334,-0.2434167 0.1905,-0.1799166 0.4974166,-0.5185833 l 0.127,-0.1375833 q 0.0635,0.03175 0.1058334,0.03175 0.042333,0 0.09525,-0.03175 0.052917,-0.042333 0.1058334,-0.084667 0.052917,-0.042333 0.09525,-0.074083 0.052917,-0.03175 0.1058333,-0.03175 0.15875,-0.010583 0.3175,-0.021167 0.15875,-0.021167 0.22225,-0.15875 0.66675,-0.17991665 1.0689166,-0.11641665 L 5.0220338,1.075312 q 0.052917,0 0.09525,0.0635 0.042333,0.0635 0.0635,0.0635 0.021167,0 0.052917,-0.03175 0.042333,-0.03175 0.084667,-0.0635 0.052917,-0.03175 0.09525,0.010583 0.021167,0.03175 0.042333,0.0635 0.021167,0.03175 0.0635,0.010583 0.052917,-0.021167 0.1481667,0.042333 0.09525,0.052917 0.1375833,0.052917 0.1693333,0.084667 0.28575,0.1481667 0.1164167,0.0635 0.1693333,0.1058333 0.2328333,0.15875 0.3280833,0.3915834 0.34925,0.3174999 0.3175,0.5079999 L 6.8000337,2.5887286 q 0.084667,0 0.1799167,0.042333 0.0635,-0.0635 0.127,-0.03175 0.042333,0.010583 0.03175,0.084667 0,0.0635 0.042333,0.084667 0.021167,0.15875 0.0635,0.4021666 0.052917,0.2328333 0.1058336,0.550333 z"
         style="stroke-width:0.26458332"
         id="path3949"
         inkscape:connector-curvature="0" />
    </g>
  </g>
</svg>
