<?xml version="1.0" encoding="UTF-8" standalone="no"?>
<!-- Created with Inkscape (http://www.inkscape.org/) -->

<svg
   xmlns:dc="http://purl.org/dc/elements/1.1/"
   xmlns:cc="http://creativecommons.org/ns#"
   xmlns:rdf="http://www.w3.org/1999/02/22-rdf-syntax-ns#"
   xmlns:svg="http://www.w3.org/2000/svg"
   xmlns="http://www.w3.org/2000/svg"
   xmlns:sodipodi="http://sodipodi.sourceforge.net/DTD/sodipodi-0.dtd"
   xmlns:inkscape="http://www.inkscape.org/namespaces/inkscape"
   width="20.13888mm"
   height="19.601891mm"
   viewBox="0 0 20.13888 19.601891"
   version="1.1"
   id="svg4332"
   inkscape:version="0.92.3 (2405546, 2018-03-11)"
   sodipodi:docname="rune_movement_change.svg">
  <defs
     id="defs4326" />
  <sodipodi:namedview
     id="base"
     pagecolor="#ffffff"
     bordercolor="#666666"
     borderopacity="1.0"
     inkscape:pageopacity="0.0"
     inkscape:pageshadow="2"
     inkscape:zoom="0.35"
     inkscape:cx="586.62917"
     inkscape:cy="-257.24277"
     inkscape:document-units="mm"
     inkscape:current-layer="layer1"
     showgrid="false"
     fit-margin-top="0"
     fit-margin-left="0"
     fit-margin-right="0"
     fit-margin-bottom="0"
     inkscape:window-width="1920"
     inkscape:window-height="1024"
     inkscape:window-x="-4"
     inkscape:window-y="-4"
     inkscape:window-maximized="1" />
  <metadata
     id="metadata4329">
    <rdf:RDF>
      <cc:Work
         rdf:about="">
        <dc:format>image/svg+xml</dc:format>
        <dc:type
           rdf:resource="http://purl.org/dc/dcmitype/StillImage" />
        <dc:title></dc:title>
      </cc:Work>
    </rdf:RDF>
  </metadata>
  <g
     inkscape:label="Layer 1"
     inkscape:groupmode="layer"
     id="layer1"
     transform="translate(180.91468,-61.169293)">
    <g
       aria-label="s"
       style="font-style:normal;font-variant:normal;font-weight:normal;font-stretch:normal;font-size:10.58333302px;line-height:1.25;font-family:'Glorantha Core Runes';-inkscape-font-specification:'Glorantha Core Runes';letter-spacing:0px;word-spacing:0px;fill:#000000;fill-opacity:1;stroke:none;stroke-width:0.26458332"
       id="text951"
       transform="matrix(2.858258,0,0,2.858258,-228.10198,-6.1462216)">
      <path
         d="m 23.472937,29.001645 q -0.01058,0.254 -0.15875,0.370417 -0.03175,0.201083 -0.423334,0.486833 -0.232833,0.04233 -0.254,0.211667 -0.211666,0.211667 -0.687916,0.254 -0.116417,0.02117 -0.762,0.03175 l -0.04233,-0.05292 q -0.01058,0 -0.05292,0.04233 -0.04233,0.04233 -0.0635,0.04233 -0.423333,-0.07408 -1.026583,-0.677333 -0.04233,-0.359834 -0.179917,-0.359834 -0.02117,0 -0.0635,0.02117 -0.1905,-0.1905 -0.296333,-0.762 -0.09525,-0.497417 -0.402167,-0.677333 -0.179917,-0.211667 -0.518583,-0.211667 -0.201084,0 -0.497417,0.07408 -0.306917,0.148167 -0.4445,0.529167 l -0.179917,0.709083 q 0.116417,0.22225 0.433917,0.486834 0.02117,0.0635 0.02117,0.08467 0,0.0635 -0.0635,0.169334 l -0.07408,0.169333 q -0.05292,0.02117 -0.116416,0.09525 -0.0635,0.0635 -0.148167,0.169333 -0.169333,0.201084 -0.306917,0.201084 -0.529166,-0.560917 -0.529166,-0.783167 0,-0.127 0.04233,-0.22225 h -0.15875 q -0.01058,-0.169333 -0.01058,-0.3175 0,-0.148167 0,-0.28575 0,-0.518583 0.0635,-0.73025 l 0.15875,-0.07408 q -0.0635,-0.04233 -0.0635,-0.105834 0,-0.01058 0.116416,-0.15875 0.127,-0.137583 0.105834,-0.22225 0.05292,0.02117 0.127,-0.0635 0.07408,-0.09525 0.08467,-0.09525 0,0 0.0635,0.02117 0.179917,-0.518583 1.153584,-0.592666 0.01058,0.116416 0.09525,0.3175 0.04233,-0.137584 0.22225,-0.3175 0.04233,-0.01058 0.137583,-0.01058 0.0635,0 0.15875,0.03175 0.105833,0.02117 0.211667,0.05292 0.105833,0.03175 0.1905,0.0635 0.08467,0.02117 0.137583,0.02117 l 0.296333,0.211666 q 0.465667,-0.127 0.624417,-0.635 l 0.275167,-0.889 q 0.04233,-0.127 -0.07408,-0.34925 -0.116416,-0.275166 -0.127,-0.338666 -0.582083,-0.370417 -1.132416,-0.328084 -0.04233,0.07408 -0.359834,0.201084 -0.3175,0.137583 -0.359833,0.254 -0.05292,-0.01058 -0.264583,-0.254 -0.1905,-0.232834 -0.34925,-0.232834 -0.07408,-0.03175 -0.07408,-0.09525 0.01058,-0.02117 0.03175,-0.08467 0.03175,-0.0635 0.08467,-0.15875 0.116417,-0.105834 0.28575,-0.211667 0.179917,-0.116417 0.402167,-0.243417 0.1905,-0.105833 0.4445,-0.15875 0.07408,-0.07408 0.148166,-0.07408 0.0635,0 0.201084,0.07408 0.137583,0.0635 0.201083,0.0635 0.05292,0 0.116417,-0.02117 l 0.09525,0.07408 q 0.08467,-0.116417 0.211666,-0.116417 0.0635,0 0.201084,0.0635 0.137583,0.05292 0.201083,0.05292 l 0.402167,0.254 q 0.22225,0.169333 0.201083,0.381 0.22225,0.0635 0.34925,0.391583 0.201083,0.518584 0.232833,0.560917 -0.05292,0.05292 -0.05292,0.127 0,0.04233 0.105833,0.328083 0.01058,0.3175 -0.4445,1.153584 0,0.03175 -0.04233,0.07408 -0.03175,0.04233 -0.08467,0.07408 -0.04233,0.03175 -0.08467,0.05292 -0.03175,0.02117 -0.03175,0.02117 0,0.03175 0.04233,0.07408 -0.05292,0.179916 -0.359834,0.550333 -0.3175,0.370417 -0.3175,0.550333 0,0.127 0.04233,0.22225 l 0.22225,0.402167 q 0.137583,0.243417 0.328083,0.328083 0.05292,0.03175 0.296333,0.05292 0.1905,0.05292 0.232834,0.137583 l -0.04233,0.03175 q 0.0635,0.04233 0.105834,0.03175 0.05292,-0.137583 0.349249,-0.275166 0.306917,-0.15875 0.359834,-0.275167 0.116416,-0.232833 0.116416,-0.497417 0,-0.47625 -0.296333,-0.836083 0.02117,-0.127 0.179917,-0.275167 l 0.254,-0.232833 q 0,-0.116416 0.137583,-0.3175 0.423333,0.275167 0.635,0.762 0.22225,0.47625 0.148167,0.98425 z"
         style="stroke-width:0.26458332"
         id="path4066"
         inkscape:connector-curvature="0" />
    </g>
  </g>
</svg>
