<?xml version="1.0" encoding="UTF-8" standalone="no"?>
<!-- Created with Inkscape (http://www.inkscape.org/) -->

<svg
   xmlns:dc="http://purl.org/dc/elements/1.1/"
   xmlns:cc="http://creativecommons.org/ns#"
   xmlns:rdf="http://www.w3.org/1999/02/22-rdf-syntax-ns#"
   xmlns:svg="http://www.w3.org/2000/svg"
   xmlns="http://www.w3.org/2000/svg"
   xmlns:sodipodi="http://sodipodi.sourceforge.net/DTD/sodipodi-0.dtd"
   xmlns:inkscape="http://www.inkscape.org/namespaces/inkscape"
   width="16.062687mm"
   height="22.158054mm"
   viewBox="0 0 16.062687 22.158054"
   version="1.1"
   id="svg9195"
   inkscape:version="0.92.3 (2405546, 2018-03-11)"
   sodipodi:docname="rune_plant.svg">
  <defs
     id="defs9189" />
  <sodipodi:namedview
     id="base"
     pagecolor="#ffffff"
     bordercolor="#666666"
     borderopacity="1.0"
     inkscape:pageopacity="0.0"
     inkscape:pageshadow="2"
     inkscape:zoom="0.35"
     inkscape:cx="-466.78817"
     inkscape:cy="41.873472"
     inkscape:document-units="mm"
     inkscape:current-layer="layer1"
     showgrid="false"
     inkscape:window-width="1920"
     inkscape:window-height="1024"
     inkscape:window-x="-4"
     inkscape:window-y="-4"
     inkscape:window-maximized="1" />
  <metadata
     id="metadata9192">
    <rdf:RDF>
      <cc:Work
         rdf:about="">
        <dc:format>image/svg+xml</dc:format>
        <dc:type
           rdf:resource="http://purl.org/dc/dcmitype/StillImage" />
        <dc:title></dc:title>
      </cc:Work>
    </rdf:RDF>
  </metadata>
  <g
     inkscape:label="Layer 1"
     inkscape:groupmode="layer"
     id="layer1"
     transform="translate(-97.80199,-137.7543)">
    <g
       aria-label="p"
       style="font-style:normal;font-variant:normal;font-weight:normal;font-stretch:normal;font-size:10.58333302px;line-height:1.25;font-family:'Glorantha Core Runes';-inkscape-font-specification:'Glorantha Core Runes';letter-spacing:0px;word-spacing:0px;fill:#000000;fill-opacity:1;stroke:none;stroke-width:0.26458332"
       id="text943"
       transform="matrix(2.858258,0,0,2.858258,-130.97828,105.53739)">
      <path
         d="m 83.375604,17.113523 q 0,0.677334 -0.211666,1.121834 h 0.105833 q 0.07408,0.105833 0.07408,0.306916 0,0.148167 -0.03175,0.338667 l -0.4445,0.09525 q -0.254,0.0635 -0.455083,0.04233 -0.15875,-0.137583 -0.15875,-0.41275 -0.01058,-0.179916 -0.01058,-0.28575 0,-0.116416 -0.02117,-0.15875 0.148167,-0.05292 0.148167,-0.148166 0,-0.04233 -0.0635,-0.148167 -0.05292,-0.116417 -0.05292,-0.148167 0.01058,-0.04233 0.01058,-0.08467 0,-0.04233 0,-0.09525 0,-0.105834 -0.03175,-0.306917 -0.02117,-0.211667 -0.02117,-0.306917 0,-0.28575 0.169333,-0.423333 -0.148167,-0.201083 -0.169333,-0.53975 0,-0.05292 0,-0.1905 0,-0.137583 0.01058,-0.370417 l 0.116417,-0.07408 q -0.15875,-0.137583 -0.15875,-0.34925 0,-0.07408 0.02117,-0.232833 0.03175,-0.169334 0.03175,-0.243417 0,-0.116417 -0.01058,-0.169333 -0.05292,-0.211667 -0.05292,-0.328083 0,-0.22225 0.127,-0.338667 0.1905,0.127 0.338667,0.127 0.08467,0 0.254,-0.0635 0.179917,-0.07408 0.275167,-0.07408 0.07408,0 0.105833,0.01058 0,0.05292 0.0635,0.381 0.02117,0.137583 0.02117,0.232833 0.01058,0.08467 0,0.137583 -0.03175,0.08467 -0.07408,0.15875 -0.04233,0.0635 -0.169333,0.127 l 0.201083,0.169334 q -0.02117,0.08467 -0.02117,0.15875 0,0.0635 0.01058,0.169333 0.01058,0.105833 0.02117,0.22225 0.02117,0.116417 0.03175,0.22225 0.02117,0.105833 0.02117,0.169333 0,0.179917 -0.0635,0.306917 0.0635,0.624417 0.0635,0.994833 z m 1.979084,-2.328333 q -0.53975,0.1905 -0.582084,0.1905 -0.232833,0 -0.8255,-0.179917 0.02117,-0.127 -0.105833,-0.402166 -0.116417,-0.275167 0.105833,-1.005417 0.137584,-0.116416 0.4445,-0.243416 0.3175,-0.127 0.497417,-0.127 0.211667,0 0.47625,0.465666 l 0.22225,0.391584 q -0.01058,0.116416 -0.02117,0.201083 -0.01058,0.08467 -0.03175,0.148166 l 0.127,0.02117 q -0.116416,0.34925 -0.306916,0.53975 z m -2.25425,-1.61925 -0.01058,0.01058 q 0.04233,0.04233 0.01058,0.05292 -0.02117,0.01058 -0.391584,0.04233 -0.508,-0.15875 -0.783166,-0.381 h -0.127 l 0.105833,-0.931334 q 0.08467,-0.105833 0.15875,-0.211666 0.08467,-0.105834 0.169333,-0.211667 0.22225,-0.264583 0.402167,-0.264583 0.07408,0 0.179917,0.05292 0.116416,0.05292 0.127,0.05292 h 0.08467 q 0.04233,-0.01058 0.0635,-0.01058 0.02117,-0.01058 0.04233,-0.01058 0.105833,0 0.232833,0.127 0.137583,0.01058 0.264583,0.15875 0.127,0.137584 0.127,0.264584 0,0.148166 -0.09525,0.47625 -0.09525,0.328083 -0.169333,0.433916 -0.04233,0.02117 -0.105833,0.0635 -0.0635,0.03175 -0.148167,0.07408 -0.02117,0.02117 -0.116417,0.243416 z m -3.058584,1.42875 v -0.497417 q 0,-0.275166 0.105834,-0.455083 0.3175,-0.53975 0.740833,-0.53975 0.07408,0 0.22225,0.05292 0.15875,0.04233 0.254,0.03175 0.232833,0.148167 0.4445,0.60325 0,0.05292 -0.01058,0.201083 0,0.137583 -0.01058,0.381 -0.0635,0.08467 -0.148166,0.148167 l 0.116416,0.15875 -0.296333,0.05292 q -0.486833,0.338667 -0.656167,0.338667 -0.0635,0 -0.296333,-0.127 -0.22225,-0.116417 -0.3175,-0.137583 -0.07408,-0.07408 0,-0.137584 z m 4.85775,-0.836083 q -0.0635,-0.08467 -0.275166,-0.08467 -0.07408,0 -0.148167,0.105834 l -0.127,0.15875 -0.04233,0.338666 h 0.04233 q 0.169333,0.15875 0.306917,0.15875 0.04233,0 0.09525,-0.01058 h 0.03175 l 0.01058,-0.01058 q 0.05292,-0.105833 0.15875,-0.15875 0.09525,-0.137583 0.09525,-0.328083 0,-0.169333 -0.148167,-0.169333 z m -1.9685,-1.8415 q -0.03175,0.01058 -0.09525,-0.01058 -0.0635,-0.02117 -0.08467,-0.02117 -0.179917,0 -0.28575,0.201083 -0.01058,0.01058 -0.03175,0.370417 0.02117,0.03175 0.04233,0.07408 0.306917,0.105834 0.243417,0.105834 0.05292,0 0.15875,-0.07408 0.116416,-0.07408 0.1905,-0.07408 l -0.04233,-0.0635 q 0.04233,-0.01058 0.0635,-0.05292 0.01058,-0.08467 0.01058,-0.137583 0,-0.0635 0,-0.08467 0,-0.127 -0.169334,-0.232833 z m -1.7145,2.264833 0.02117,-0.15875 q -0.116417,-0.22225 -0.1905,-0.3175 -0.02117,-0.02117 -0.07408,-0.02117 -0.264584,0 -0.34925,0.148166 -0.116417,0.232834 -0.05292,0.381 0.04233,0.08467 0.05292,0.15875 0.328083,0.105833 0.529166,0 0.05292,-0.04233 0.105834,-0.1905 z"
         style="stroke-width:0.26458332"
         id="path4072"
         inkscape:connector-curvature="0" />
    </g>
  </g>
</svg>
