<?xml version="1.0" encoding="UTF-8" standalone="no"?>
<!-- Created with Inkscape (http://www.inkscape.org/) -->

<svg
   xmlns:dc="http://purl.org/dc/elements/1.1/"
   xmlns:cc="http://creativecommons.org/ns#"
   xmlns:rdf="http://www.w3.org/1999/02/22-rdf-syntax-ns#"
   xmlns:svg="http://www.w3.org/2000/svg"
   xmlns="http://www.w3.org/2000/svg"
   xmlns:sodipodi="http://sodipodi.sourceforge.net/DTD/sodipodi-0.dtd"
   xmlns:inkscape="http://www.inkscape.org/namespaces/inkscape"
   width="19.057478mm"
   height="23.322657mm"
   viewBox="0 0 19.057478 23.322657"
   version="1.1"
   id="svg17153"
   inkscape:version="0.92.3 (2405546, 2018-03-11)"
   sodipodi:docname="rune_sartar.svg">
  <defs
     id="defs17147" />
  <sodipodi:namedview
     id="base"
     pagecolor="#ffffff"
     bordercolor="#666666"
     borderopacity="1.0"
     inkscape:pageopacity="0.0"
     inkscape:pageshadow="2"
     inkscape:zoom="0.35"
     inkscape:cx="-461.12872"
     inkscape:cy="44.074312"
     inkscape:document-units="mm"
     inkscape:current-layer="layer1"
     showgrid="false"
     inkscape:window-width="1920"
     inkscape:window-height="1024"
     inkscape:window-x="-4"
     inkscape:window-y="-4"
     inkscape:window-maximized="1" />
  <metadata
     id="metadata17150">
    <rdf:RDF>
      <cc:Work
         rdf:about="">
        <dc:format>image/svg+xml</dc:format>
        <dc:type
           rdf:resource="http://purl.org/dc/dcmitype/StillImage" />
        <dc:title></dc:title>
      </cc:Work>
    </rdf:RDF>
  </metadata>
  <g
     inkscape:label="Layer 1"
     inkscape:groupmode="layer"
     id="layer1"
     transform="translate(-96.304594,-137.17201)">
    <g
       aria-label="G"
       style="font-style:normal;font-variant:normal;font-weight:normal;font-stretch:normal;font-size:10.58333302px;line-height:1.25;font-family:'Glorantha Core Runes';-inkscape-font-specification:'Glorantha Core Runes';letter-spacing:0px;word-spacing:0px;fill:#000000;fill-opacity:1;stroke:none;stroke-width:0.26458332"
       id="text1349"
       transform="matrix(2.858258,0,0,2.858258,-46.904879,-42.898906)">
      <path
         d="m 55.310771,66.079978 0.08467,-0.66675 q 0.05292,-0.05292 0.243417,-0.3175 0.15875,-0.211667 0.296333,-0.211667 0.05292,0 0.127,0.04233 0.08467,0.04233 0.105834,0.04233 h 0.08467 q 0.03175,-0.01058 0.07408,-0.01058 0.07408,0 0.169333,0.09525 0.08467,0 0.179917,0.105833 0.09525,0.105833 0.09525,0.1905 0,0.127 -0.07408,0.359833 -0.0635,0.243417 -0.116416,0.328084 l -0.1905,0.105833 q -0.03175,0.02117 -0.116417,0.211667 0.08467,0 -0.275167,0.03175 -0.391583,-0.116417 -0.613833,-0.306917 z m 1.36525,2.614083 -0.169334,0.02117 q -0.391583,0.275167 -0.508,0.275167 -0.03175,0 -0.22225,-0.09525 -0.08467,-0.05292 -0.148166,-0.07408 -0.0635,-0.03175 -0.09525,-0.04233 -0.04233,-0.03175 -0.105834,-0.0635 -0.05292,-0.04233 -0.137583,-0.09525 0.03175,-0.359833 0.22225,-0.6985 0.232833,-0.41275 0.550333,-0.41275 0.05292,0 0.169334,0.04233 0.127,0.04233 0.201083,0.03175 0.15875,0.09525 0.3175,0.4445 0,0.04233 -0.01058,0.148167 0,0.105833 -0.01058,0.28575 -0.05292,0.0635 -0.127,0.127 z m -3.090333,-2.423583 q -0.179917,0.105833 -0.402167,0.105833 -0.179917,-0.09525 -0.402167,-0.211666 -0.211666,-0.127 -0.3175,-0.338667 0.148167,-0.232833 0.254,-0.550333 0.04233,-0.15875 0.465667,-0.381 0.137583,0 0.455083,0.148166 0.306917,0.148167 0.306917,0.28575 0,0.05292 -0.169334,0.687917 -0.126999,0.116417 -0.253999,0.169333 z m 0.232833,-3.090333 q 0.328083,0.04233 0.635,0.370416 0.423333,0.4445 0.518583,0.497417 l -0.08467,0.508 q -0.08467,0.232833 -0.3175,0.402167 l -0.116416,-0.08467 h -0.02117 q -0.09525,0.02117 -0.211667,-0.211667 -0.105833,-0.211666 -0.201083,-0.232833 -0.423333,-0.359833 -0.92075,-0.359833 -0.740833,0 -1.322916,0.1905 -0.846667,0.275166 -0.846667,0.846666 v 0.963084 q 0,0.560916 0.941917,0.941916 0.740833,0.306917 1.42875,0.3175 0.137583,-0.08467 0.444499,-0.148166 0.328084,-0.07408 0.455084,-0.15875 0.15875,-0.232834 0.22225,-0.296334 0.137583,-0.116416 0.338666,-0.148166 0.04233,0.127 0.127,0.465666 l 0.08467,0.09525 q -0.03175,0.08467 -0.03175,0.1905 0,0.127 0.08467,0.41275 0.08467,0.28575 0.08467,0.41275 -0.01058,0.04233 -0.08467,0.169334 0.07408,0.137583 0.07408,0.211666 0,0.211667 -0.179917,0.5715 -0.232833,0.4445 -0.264583,0.550333 l 0.08467,0.09525 q -0.148167,0.05292 -0.433917,0.433917 -0.370417,0.47625 -1.11125,0.635 -0.47625,0.105833 -0.772583,0.1905 -0.296333,0.07408 -0.423333,0.148167 0.01058,-0.09525 -0.01058,-0.137584 l -0.05292,-0.04233 q -0.211667,0.05292 -0.232834,0.05292 -0.0635,0 -0.1905,-0.137584 l -0.127,0.137584 -0.02117,-0.201084 q -0.28575,-0.105833 -0.4445,-0.391583 -0.15875,-0.28575 -0.15875,-0.60325 0,-0.169333 0.127,-0.508 0.137583,-0.391583 0.28575,-0.391583 l 0.116416,0.0635 q 0.08467,0.08467 0.07408,0.179917 -0.03175,0.275166 -0.03175,0.169333 0,0.201083 0.53975,0.465666 v 0.04233 l 0.15875,-0.01058 q 0.105833,-0.01058 0.296333,0.05292 0.1905,0.0635 0.28575,0.0635 0.0635,0 0.243417,-0.04233 0.211666,-0.05292 0.232833,-0.03175 l 0.09525,-0.0635 0.07408,0.03175 q 0.169334,-0.02117 0.4445,-0.370417 0.169333,-0.211666 0.28575,-0.338666 0.127,-0.127 0.201083,-0.179917 v -1.143 l -0.179916,0.127 -0.05292,-0.01058 q -0.05292,0.04233 -0.137583,0.09525 -0.08467,0.04233 -0.201083,0.09525 -0.0635,0 -0.201084,0.07408 -0.127,0.0635 -0.201083,0.0635 -0.03175,0 -0.09525,-0.02117 l -0.22225,0.07408 q -0.433917,0 -0.9525,-0.116417 -0.66675,-0.15875 -0.783167,-0.433917 l 0.03175,0.03175 -0.137583,0.03175 q -0.169333,0 -0.433917,-0.22225 -0.264583,-0.22225 -0.264583,-0.391583 l 0.0635,-0.22225 -0.07408,-0.15875 -0.148167,0.02117 -0.05292,-0.05292 -0.04233,-0.105833 v -1.42875 q 0,-0.211667 0.370417,-0.804334 0.381,-0.60325 0.582083,-0.709083 h 0.03175 q 0.127,-0.243417 0.370417,-0.370417 0.04233,-0.02117 0.169333,-0.0635 0.127,-0.04233 0.359833,-0.116416 0.6985,-0.211667 0.889,-0.211667 0.47625,0 0.645584,0.08467 l 0.116416,-0.04233 q 0.05292,0 0.179917,0.137584 z"
         style="stroke-width:0.26458332"
         id="path3988"
         inkscape:connector-curvature="0" />
    </g>
  </g>
</svg>
