<?xml version="1.0" encoding="UTF-8" standalone="no"?>
<!-- Created with Inkscape (http://www.inkscape.org/) -->

<svg
   xmlns:dc="http://purl.org/dc/elements/1.1/"
   xmlns:cc="http://creativecommons.org/ns#"
   xmlns:rdf="http://www.w3.org/1999/02/22-rdf-syntax-ns#"
   xmlns:svg="http://www.w3.org/2000/svg"
   xmlns="http://www.w3.org/2000/svg"
   xmlns:sodipodi="http://sodipodi.sourceforge.net/DTD/sodipodi-0.dtd"
   xmlns:inkscape="http://www.inkscape.org/namespaces/inkscape"
   width="17.663mm"
   height="18.221994mm"
   viewBox="0 0 17.663 18.221994"
   version="1.1"
   id="svg34075"
   inkscape:version="0.92.3 (2405546, 2018-03-11)"
   sodipodi:docname="rune_separate.svg">
  <defs
     id="defs34069" />
  <sodipodi:namedview
     id="base"
     pagecolor="#ffffff"
     bordercolor="#666666"
     borderopacity="1.0"
     inkscape:pageopacity="0.0"
     inkscape:pageshadow="2"
     inkscape:zoom="0.35"
     inkscape:cx="304.80747"
     inkscape:cy="188.72096"
     inkscape:document-units="mm"
     inkscape:current-layer="layer1"
     showgrid="false"
     inkscape:window-width="1920"
     inkscape:window-height="1024"
     inkscape:window-x="-4"
     inkscape:window-y="-4"
     inkscape:window-maximized="1" />
  <metadata
     id="metadata34072">
    <rdf:RDF>
      <cc:Work
         rdf:about="">
        <dc:format>image/svg+xml</dc:format>
        <dc:type
           rdf:resource="http://purl.org/dc/dcmitype/StillImage" />
        <dc:title></dc:title>
      </cc:Work>
    </rdf:RDF>
  </metadata>
  <g
     inkscape:label="Layer 1"
     inkscape:groupmode="layer"
     id="layer1"
     transform="translate(106.34936,-180.54376)">
    <path
       inkscape:connector-curvature="0"
       style="opacity:1;fill:#000000;fill-opacity:1;stroke:none;stroke-width:2.36767554;stroke-miterlimit:4;stroke-dasharray:none;stroke-opacity:1"
       d="m -98.790868,180.54376 v 1.0944 l 0.0664,0.7183 c -0.003,1.01128 0.46408,1.01554 0.7202,1.47172 0.0386,0.39664 -0.79905,-0.11291 -0.78662,0.90999 0.0459,0.44213 0.12339,0.91063 0,1.21171 h -1.0441 c -2.213322,0.007 -2.038072,0.41893 -3.193962,0 h -1.31516 -1.28384 c 0,0 -0.58427,-0.003 -0.6454,0.0703 -0.0836,0.10017 -0.0795,1.49678 -0.0728,2.05671 0.0392,0.11659 0.22902,0.40101 0.43983,0.43714 l 1.18645,-0.004 c 0.15112,-0.0102 0.0656,-0.32965 0.18714,-0.37171 0.27431,-0.095 0.77366,0.0889 1.53509,0.37171 0.49762,-0.0869 1.24673,-0.0596 2.06668,0 h 1.158592 c 0.32716,-0.0849 0.90999,-0.91119 0.98148,-0.25463 0.0399,0.65764 0.12721,1.62528 0,2.088 2.2e-4,0.39273 0.10448,0.78982 0.11318,1.18538 0.007,0.31945 -0.0756,0.63933 -0.11318,0.94392 0.008,0.4212 0.0745,0.8424 0.0726,1.2636 -0.001,0.25725 -0.0666,0.51451 -0.0726,0.77177 0.0794,0.74738 0.0681,1.40409 0,2.00404 0.0864,0.92376 0.0416,1.38151 0.0176,2.08453 8.46e-4,0.12089 0.1884,0.16047 0.27531,0.14537 0.34457,-0.0599 0.53673,-0.21542 0.76784,-0.22108 0.5824,-0.0143 0.46555,0.25958 1.49929,0.2442 -0.0177,-0.62462 -0.0394,-1.23751 0,-2.0338 -0.0229,-0.88798 -0.0617,-1.75477 0,-2.75557 -0.60108,-0.68058 -0.41689,-0.82995 -0.0222,-0.83689 l 0.0222,-2.29444 c -0.0641,-0.49057 -0.019,-0.98115 0,-1.47173 v -0.86265 c -0.21503,-0.39307 1.2296,0 1.8444,0 0.57778,-0.0515 1.15003,-0.11961 1.78485,0 l 1.29286,-0.1882 0.67988,0.1882 h 1.9425 v -2.56 h -1.25361 l -0.2174,0.38748 -1.37958,-0.38748 c -0.79459,0.05 -1.5924,0.0946 -2.47375,0 l -1.14751,0.0332 c -0.35926,-0.006 -1.04995,0.9266 -1.07264,-0.0332 v -1.02383 c -0.0226,-0.33313 -0.0358,-0.67101 0,-1.03334 -0.62217,-0.10139 -0.01,-1.32824 0,-2.00405 l -0.17713,-1.33382 -0.97538,0.0996 z m -6.515262,9.18303 -0.21289,0.21018 0.0978,1.04084 -0.0922,1.33842 c 0.009,0.0296 0.0411,0.07 0.0741,0.0604 0.15844,-0.0552 0.63911,-0.20638 0.91381,-0.14267 0.11385,0.0264 0.28344,0.20639 0.28344,0.20639 0.68398,0.003 0.91602,0.20774 1.41587,0.4661 0.44829,0.16761 0.0185,0.54586 -0.15468,0.80924 0,0.41463 -0.18488,0.77337 -0.4792,1.00311 -0.0766,0.27225 -0.44315,0.29596 -0.78199,0.26841 l -1.13442,-0.002 -0.16439,0.17254 c 0.006,0.55443 0.0563,1.09911 0,1.66744 0.10115,0.34234 0.0623,0.50501 0.0235,0.78737 l 0.14784,0.10932 1.12749,-0.002 c 0.19473,-5e-4 0.3104,-0.302 0.49804,-0.3303 0.18992,-0.0287 0.45171,0.21556 0.63231,0.16096 0.52666,-0.15928 1.00926,-0.42493 1.42213,-0.77146 0.0872,-0.15683 0.0569,-0.52777 0.18127,-0.67389 0.29243,-0.34364 0.78425,-0.45534 0.95982,-0.87991 0.19308,-0.46697 0.29985,-0.9771 0.29985,-1.5101 -0.98617,-1.31358 0.790612,-0.27953 -0.77894,-2.3598 -0.32953,-0.44769 -0.74934,-0.82585 -1.23138,-1.10654 -0.1595,-0.0674 -0.56103,0.0219 -0.7396,-0.0422 -0.44804,-0.16066 -0.71846,-0.45434 -1.2435,-0.49905 z m 15.567862,0.0648 -1.07544,-0.0608 c -0.54006,0.1992 -0.96963,0.0812 -1.42116,0.2611 -0.57377,0.22952 -1.01785,0.6771 -1.42791,1.12852 -0.54058,0.41879 -0.27915,0.58865 -0.45452,0.85209 -0.11703,0.17581 -0.37157,0.25301 -0.44342,0.46267 -0.0183,0.46292 -0.16193,0.85966 -0.21319,1.28101 0,0.54126 0.11009,1.05894 0.30888,1.53179 0.25256,0.53196 0.65866,0.90821 1.08042,1.48814 0.36415,0.31612 0.785,0.56833 1.24414,0.73836 0.42534,0.15751 0.88354,0.24449 1.35998,0.24642 l 1.29881,0.002 c -0.0256,-0.51611 -0.1358,-0.98989 0,-1.58669 v -1.15027 c -0.4569,0.0486 -0.90054,0.0707 -1.29881,0.002 -0.3077,-0.004 -0.58496,-0.10846 -0.80064,-0.28357 -0.30703,-0.19979 -0.47231,-0.56702 -0.46055,-0.98796 -0.0382,-0.3226 -0.71996,-0.70821 -0.53355,-0.92743 0.24788,-0.29152 1.42461,-0.36519 1.79474,-0.34786 l 1.2781,-0.0321 c -0.13057,-0.5286 -0.27983,-1.06499 -0.0665,-1.4503 l 0.0244,-0.88589 -0.19379,-0.28131 z"
       id="rect29417"
       sodipodi:nodetypes="ccccccccccscccscccccscscccssccccccccccccccccccccccccccccccscccccccccccsccsccccsccccccsccccccccccccscccccc" />
  </g>
</svg>
