<?xml version="1.0" encoding="UTF-8" standalone="no"?>
<!-- Created with Inkscape (http://www.inkscape.org/) -->

<svg
   xmlns:dc="http://purl.org/dc/elements/1.1/"
   xmlns:cc="http://creativecommons.org/ns#"
   xmlns:rdf="http://www.w3.org/1999/02/22-rdf-syntax-ns#"
   xmlns:svg="http://www.w3.org/2000/svg"
   xmlns="http://www.w3.org/2000/svg"
   xmlns:sodipodi="http://sodipodi.sourceforge.net/DTD/sodipodi-0.dtd"
   xmlns:inkscape="http://www.inkscape.org/namespaces/inkscape"
   width="15.518214mm"
   height="20.239697mm"
   viewBox="0 0 15.518214 20.239697"
   version="1.1"
   id="svg2068"
   inkscape:version="0.92.3 (2405546, 2018-03-11)"
   sodipodi:docname="rune_spirit.svg">
  <defs
     id="defs2062" />
  <sodipodi:namedview
     id="base"
     pagecolor="#ffffff"
     bordercolor="#666666"
     borderopacity="1.0"
     inkscape:pageopacity="0.0"
     inkscape:pageshadow="2"
     inkscape:zoom="0.35"
     inkscape:cx="-604.95994"
     inkscape:cy="-470.32319"
     inkscape:document-units="mm"
     inkscape:current-layer="layer1"
     showgrid="false"
     inkscape:window-width="1920"
     inkscape:window-height="1024"
     inkscape:window-x="-4"
     inkscape:window-y="-4"
     inkscape:window-maximized="1"
     fit-margin-top="0"
     fit-margin-left="0"
     fit-margin-right="0"
     fit-margin-bottom="0" />
  <metadata
     id="metadata2065">
    <rdf:RDF>
      <cc:Work
         rdf:about="">
        <dc:format>image/svg+xml</dc:format>
        <dc:type
           rdf:resource="http://purl.org/dc/dcmitype/StillImage" />
        <dc:title></dc:title>
      </cc:Work>
    </rdf:RDF>
  </metadata>
  <g
     inkscape:label="Layer 1"
     inkscape:groupmode="layer"
     id="layer1"
     transform="translate(-2.8242228,-4.1539611)">
    <g
       aria-label="b"
       style="font-style:normal;font-variant:normal;font-weight:normal;font-stretch:normal;font-size:10.58333302px;line-height:1.25;font-family:'Glorantha Core Runes';-inkscape-font-specification:'Glorantha Core Runes';letter-spacing:0px;word-spacing:0px;fill:#000000;fill-opacity:1;stroke:none;stroke-width:0.26458332"
       id="text995"
       transform="matrix(2.858258,0,0,2.858258,-88.457179,-94.25692)">
      <path
         d="m 37.238273,41.45858 q -0.22225,0.04233 -0.391583,-0.09525 -0.08467,0.05292 -0.179917,0.09525 -0.08467,0.03175 -0.1905,0.05292 -0.455083,-0.15875 -0.6985,-0.624416 l 0.01058,-0.15875 q -0.4445,-0.211667 -0.518584,-0.28575 -0.09525,-0.09525 -0.370416,-0.508 l -0.07408,-0.02117 -0.1905,0.211667 q -0.09525,0.09525 -0.243416,0.148166 -0.232834,0.275167 -0.455084,0.264584 l 0.02117,0.211666 q -0.148167,0.116417 -0.254,0.243417 -0.09525,0.127 -0.148167,0.243417 l -0.148166,0.05292 q -0.127,0.1905 -0.931334,0.1905 -0.508,0 -0.53975,-0.116416 0.04233,-0.105834 0.148167,-0.211667 0.169333,-0.15875 0.1905,-0.1905 0.169333,-0.05292 0.338667,-0.41275 0.296333,0.05292 0.687916,-0.433917 0.455084,-0.5715 0.687917,-0.645583 l 0.116417,-0.179917 q -0.07408,-0.201083 -0.243417,-0.243416 -0.179917,-0.34925 -0.529167,-0.613833 -0.28575,-0.201084 -0.47625,-0.751417 -0.116416,0.08467 -0.232833,0.116417 -0.07408,-0.08467 -0.116417,-0.148167 -0.04233,-0.0635 -0.0635,-0.08467 -0.05292,-0.05292 -0.116416,-0.09525 -0.05292,-0.05292 -0.127,-0.07408 -0.0635,-0.254 0.370416,-0.783167 0.4445,-0.53975 0.687917,-0.508 l 0.02117,-0.232833 q 0.232833,-0.105833 1.217083,-1.397 0.127,-0.07408 0.28575,-0.02117 0.01058,0.01058 0.359833,0.34925 0.22225,0.201084 0.201084,0.4445 0.22225,0.127 0.455083,0.381 l 0.41275,0.465667 0.02117,0.15875 q 0.486833,0.116417 0.973666,0.889 -0.02117,0.211667 -0.03175,0.275167 -0.03175,0.137583 -0.116416,0.243416 -0.116417,0.02117 -0.243417,0.179917 -0.137583,0.148167 -0.3175,0.169333 0,0.1905 -0.423333,0.582083 l -0.60325,0.53975 q 0.201083,0.4445 0.92075,1.100667 0.391583,0.338667 0.624416,0.613833 0.243417,0.264584 0.34925,0.4445 z m -1.4605,-4.614333 q -0.07408,0.01058 -0.148166,-0.09525 -0.105834,-0.02117 -0.211667,-0.22225 l -0.169333,-0.296334 q -0.105834,-0.01058 -0.613834,-0.4445 l -0.08467,0.05292 q -0.08467,0.211667 -0.41275,0.529167 -0.15875,-0.04233 -0.34925,0.0635 0.03175,0.09525 0.03175,0.179916 0,0.15875 -0.179917,0.370417 -0.169333,0.179917 -0.169333,0.296333 0,0.105834 0.148166,0.275167 0.03175,0.105833 0.15875,0.264583 l 0.07408,-0.03175 0.359833,0.34925 q 0.296333,0.275167 0.306917,0.34925 l 0.09525,0.05292 0.105833,-0.01058 q 0.105833,-0.201083 0.47625,-0.476249 0.05292,0.05292 0.105833,0.0635 0.01058,-0.01058 0.04233,-0.05292 0.04233,-0.04233 0.116416,-0.127 0.116417,-0.127 0.169334,-0.116417 0.02117,-0.02117 0.07408,-0.09525 0.0635,-0.07408 0.148167,-0.211666 0.169333,-0.264584 0.1905,-0.34925 z"
         style="stroke-width:0.26458332"
         id="path4036"
         inkscape:connector-curvature="0" />
    </g>
  </g>
</svg>
