<?xml version="1.0" encoding="UTF-8" standalone="no"?>
<!-- Created with Inkscape (http://www.inkscape.org/) -->

<svg
   xmlns:dc="http://purl.org/dc/elements/1.1/"
   xmlns:cc="http://creativecommons.org/ns#"
   xmlns:rdf="http://www.w3.org/1999/02/22-rdf-syntax-ns#"
   xmlns:svg="http://www.w3.org/2000/svg"
   xmlns="http://www.w3.org/2000/svg"
   xmlns:sodipodi="http://sodipodi.sourceforge.net/DTD/sodipodi-0.dtd"
   xmlns:inkscape="http://www.inkscape.org/namespaces/inkscape"
   width="18.29833mm"
   height="18.180799mm"
   viewBox="0 0 18.29833 18.180799"
   version="1.1"
   id="svg33509"
   inkscape:version="0.92.3 (2405546, 2018-03-11)"
   sodipodi:docname="rune_summon.svg">
  <defs
     id="defs33503" />
  <sodipodi:namedview
     id="base"
     pagecolor="#ffffff"
     bordercolor="#666666"
     borderopacity="1.0"
     inkscape:pageopacity="0.0"
     inkscape:pageshadow="2"
     inkscape:zoom="0.35"
     inkscape:cx="-1213.9919"
     inkscape:cy="-94.213997"
     inkscape:document-units="mm"
     inkscape:current-layer="layer1"
     showgrid="false"
     inkscape:window-width="1920"
     inkscape:window-height="1024"
     inkscape:window-x="-4"
     inkscape:window-y="-4"
     inkscape:window-maximized="1" />
  <metadata
     id="metadata33506">
    <rdf:RDF>
      <cc:Work
         rdf:about="">
        <dc:format>image/svg+xml</dc:format>
        <dc:type
           rdf:resource="http://purl.org/dc/dcmitype/StillImage" />
        <dc:title></dc:title>
      </cc:Work>
    </rdf:RDF>
  </metadata>
  <g
     inkscape:label="Layer 1"
     inkscape:groupmode="layer"
     id="layer1"
     transform="translate(-295.49964,-105.72508)">
    <path
       inkscape:connector-curvature="0"
       style="opacity:1;fill:#000000;fill-opacity:1;stroke:none;stroke-width:2.89669824;stroke-miterlimit:4;stroke-dasharray:none;stroke-opacity:1"
       d="m 298.75297,105.7719 -0.17899,0.095 -1.29566,0.88899 -0.30054,0.40537 0.58504,0.86513 c 0.2367,0.23409 0.43629,0.49785 0.55747,0.82435 l 0.81126,1.19964 h -1.15922 c -0.22325,0.0753 -0.0703,0.17895 -0.13022,0.33376 -0.19715,0.50963 -0.92866,-0.21016 -1.19929,-0.33376 l -0.94318,0.0609 c 0.0528,0.68886 0.0857,1.36059 0.0374,1.96274 -0.009,0.11589 0.10005,0.2292 0.0843,0.33956 h 1.28208 c 0.6413,-0.23315 1.34237,-0.14216 2.0855,0 h 1.56534 c 0.19678,0.0993 0.65796,0.66518 0.73948,1.04112 l 0.90027,0.54516 c 0.14787,0.18322 -0.1774,0.49036 -0.041,0.6755 0.39477,0.53604 0.74471,1.07955 1.06979,1.6272 -0.12525,0.44472 -0.48279,0.7036 -0.72432,1.0553 -0.30133,0.44118 -0.43654,0.80241 -0.86377,1.3155 0,0 -0.26286,0.78589 -0.58462,0.79474 -0.28233,0.53514 -0.5933,0.97002 -0.92191,1.34317 -0.40014,0.59633 -0.79577,1.17454 -1.17508,1.68754 -0.0224,0.0401 -0.0161,0.0813 0.0186,0.10349 l 1.34978,0.93578 0.55489,0.21556 c 0.0497,0.0132 0.0776,-0.002 0.096,-0.0161 0.2604,-0.39917 0.36821,-0.60492 0.65307,-1.00565 0.0752,-0.10576 -0.37237,-0.32723 -0.23675,-0.40396 0.1194,-0.0676 0.56043,-0.0464 0.68747,-0.17942 0.36765,-0.68216 0.52114,-1.40004 1.40096,-2.041 0.38904,-0.75322 1.00174,-1.72004 1.17871,-1.71724 0.1163,0.0418 0.37475,0.4923 0.62227,0.77055 0.52924,-0.27216 0,0 0.33753,0.62732 0.71156,0.69253 1.19418,1.48909 1.60492,2.33743 l 0.91145,1.36068 0.28108,0.41963 c 0.1245,-0.12717 0.20088,-0.32172 0.43206,-0.29954 l 1.21403,-0.84166 0.23325,-0.35832 c -0.43858,-0.53397 -0.83142,-1.07179 -1.1239,-1.61805 -0.13159,-0.17614 -0.2343,-0.47782 -0.44987,-0.51467 -0.0704,-0.012 -0.45851,0.33804 -0.6483,-0.0305 -0.0634,-0.12313 -0.25415,-0.0775 -0.30802,-0.19988 -0.0548,-0.12447 0.61274,-0.31638 0.53363,-0.43127 -0.18669,-0.27115 -0.36884,-0.56045 -0.54222,-0.88485 -0.62281,-0.79495 -1.15714,-1.60759 -1.66488,-2.42555 0.44318,-0.77626 0.67243,-1.55252 1.59895,-2.32878 l 0.77561,-1.55921 c 0.77709,-0.13277 1.81279,-0.0112 2.56932,0 l 0.75599,-0.33455 0.39104,0.33455 c 0.52199,-0.0218 1.01013,-0.0858 1.6182,0 l -0.0956,-0.66299 0.0956,-1.52938 -0.23462,-0.16207 c -0.89004,0.28596 -1.86211,0.16174 -2.84343,-0.009 -0.28341,0.1311 -0.50192,0.2123 -0.3389,0 0.23518,-0.37259 0.46729,-0.74499 0.71264,-1.11823 0.0375,-0.0571 -0.20161,-0.3289 -0.19984,-0.46611 10e-4,-0.10359 0.24088,-0.0781 0.27015,-0.12126 0.0707,-0.10429 0.27325,0.0781 0.34711,-0.0264 0.19678,-0.27836 0.40581,-0.55749 0.63378,-0.83782 l -0.12149,-0.61789 c -0.2897,-0.16009 -0.58731,-0.30434 -0.81002,-0.59841 -0.16875,0.0172 -0.24651,-0.14769 -0.35091,-0.25924 l -0.37863,-0.27972 -0.87665,1.2771 c -0.0612,0.23639 -0.13029,0.44889 -0.28263,0.41175 l -0.85357,1.24346 c -0.21482,0.57745 -0.52006,0.82338 -0.79934,1.16448 l 0.0953,0.21958 c -0.7712,0.001 -1.60871,0.11349 -2.31293,0.004 -0.88287,0.47116 -1.54579,0.29256 -2.28537,0.003 l -1.54368,-0.007 c -1.71754,-0.006 -0.49455,-0.36301 -0.6119,-0.70562 -0.0702,-0.35156 -0.29621,-0.39609 -0.26708,-0.81926 -0.61248,-0.82184 -1.23169,-1.63672 -1.76953,-2.5356 -0.0551,-0.092 -0.17011,-0.11544 -0.22338,-0.20934 z m 4.23721,6.60477 c 0.50339,-0.0224 1.21811,0.009 1.757,-0.15006 0.37464,-0.11065 0.81963,0.15015 1.14501,0.18692 l -0.5787,0.84259 c -0.16686,0.38908 -0.42695,0.77676 -0.65775,1.08059 -0.23578,-0.25685 -0.47155,-0.78978 -0.70732,-1.1536 -0.31554,-0.2366 -0.78744,-0.54918 -0.95824,-0.80645 z"
       id="rect29463"
       sodipodi:nodetypes="ccccccccsccsccccccsccccccccccssccccccccccccsssscccccccccccccsssscccccccccccccccscccscccccc" />
  </g>
</svg>
