<?xml version="1.0" encoding="UTF-8" standalone="no"?>
<!-- Created with Inkscape (http://www.inkscape.org/) -->

<svg
   xmlns:dc="http://purl.org/dc/elements/1.1/"
   xmlns:cc="http://creativecommons.org/ns#"
   xmlns:rdf="http://www.w3.org/1999/02/22-rdf-syntax-ns#"
   xmlns:svg="http://www.w3.org/2000/svg"
   xmlns="http://www.w3.org/2000/svg"
   xmlns:sodipodi="http://sodipodi.sourceforge.net/DTD/sodipodi-0.dtd"
   xmlns:inkscape="http://www.inkscape.org/namespaces/inkscape"
   width="15.19069mm"
   height="17.372009mm"
   viewBox="0 0 15.19069 17.372009"
   version="1.1"
   id="svg32943"
   inkscape:version="0.92.3 (2405546, 2018-03-11)"
   sodipodi:docname="rune_tap.svg">
  <defs
     id="defs32937" />
  <sodipodi:namedview
     id="base"
     pagecolor="#ffffff"
     bordercolor="#666666"
     borderopacity="1.0"
     inkscape:pageopacity="0.0"
     inkscape:pageshadow="2"
     inkscape:zoom="0.35"
     inkscape:cx="-1414.1503"
     inkscape:cy="29.971868"
     inkscape:document-units="mm"
     inkscape:current-layer="layer1"
     showgrid="false"
     inkscape:window-width="1920"
     inkscape:window-height="1024"
     inkscape:window-x="-4"
     inkscape:window-y="-4"
     inkscape:window-maximized="1" />
  <metadata
     id="metadata32940">
    <rdf:RDF>
      <cc:Work
         rdf:about="">
        <dc:format>image/svg+xml</dc:format>
        <dc:type
           rdf:resource="http://purl.org/dc/dcmitype/StillImage" />
        <dc:title></dc:title>
      </cc:Work>
    </rdf:RDF>
  </metadata>
  <g
     inkscape:label="Layer 1"
     inkscape:groupmode="layer"
     id="layer1"
     transform="translate(-348.45823,-139.39138)">
    <path
       style="opacity:1;fill:#000000;fill-opacity:1;stroke:none;stroke-width:2.25099897;stroke-miterlimit:4;stroke-dasharray:none;stroke-opacity:1"
       d="m 350.62953,139.43466 -0.57113,0.36865 c 0.0614,0.25229 -0.39668,0.61802 -0.6663,0.51865 -0.42134,0.37372 -0.46393,0.42781 -0.93387,0.75294 l 1.83537,2.27342 c 1.43915,0.20081 -0.15302,-0.4046 0.91153,1.28944 0.54382,0.0595 0.17373,0.29801 1.20817,1.57807 0.278,0.19231 0.40166,0.47725 0.56521,0.73826 0.27844,0.34147 0.56308,0.66035 0.74439,0.54753 0.4177,-0.25997 0.51287,0.0646 0.16946,0.64612 0.2937,0.21718 0.47013,0.52818 0.64404,0.84122 0.13316,0.26722 0.022,0.63914 0,0.97283 0.0912,0.46561 0.0223,0.9632 0,1.45148 0.32754,0.60258 0.26052,1.02509 0,1.52498 0.18811,0.83097 0.0617,1.54628 0.0611,2.1168 -7.2e-4,0.70827 0.004,0.89325 -0.017,1.60654 0.0227,-0.004 0.15264,0.0988 0.17493,0.0948 0.94352,-0.17178 1.45017,-0.0214 2.19398,0.007 l 0.36074,-0.2021 0.0303,-2.99783 c -0.16578,-0.56275 -0.76954,-0.75013 -0.40159,-1.55763 0.0276,-0.0606 0.29877,0.10581 0.35043,0.0767 0.0694,-0.0417 0.02,-1.43418 0.0512,-2.15699 -0.0466,-0.31227 -0.0254,-0.62457 0,-0.93685 0.005,-0.83418 0.40507,-0.6615 0.73946,-0.96589 0.37107,-0.64456 0.93104,-1.25765 1.43885,-1.87944 -0.12637,-0.50368 0.3211,-0.56463 0.59442,-0.77646 0.45468,-0.60899 0.90033,-1.23608 1.37775,-1.79962 -0.11923,-0.78846 1.43863,-1.71667 2.15795,-2.57501 -0.37708,-0.28568 -0.76224,-0.32026 -1.13097,-0.86588 -0.29461,-0.19497 -0.58921,-0.38637 -0.8838,-0.67662 l -0.37794,0.0465 c -0.20453,0.40861 -1.56335,2.07395 -1.91225,2.26273 -0.24672,0.45601 -0.63353,0.86714 -0.98681,1.28905 -0.33139,0.49651 0.3119,0.67938 -0.33139,0.49651 -0.22841,0.3057 -0.45684,0.55118 -0.68527,0.83153 -0.008,-0.61101 -0.12324,-1.20385 0,-1.83657 0.1115,-1.17815 -0.59129,-1.87309 -0.0446,-2.26307 0.007,-0.36473 0.0236,-0.68591 0.0535,-0.88507 -0.93329,0.003 -1.66165,0.0912 -2.63881,0.0275 l -0.16651,0.19524 c 0.012,0.22225 0.0179,0.73235 0.0299,1.24888 0.15242,0.97216 9.8e-4,1.44392 -0.0379,1.73157 0.071,0.65081 0.0785,1.49524 0.0275,2.04864 -0.27993,-0.31116 -0.17403,-0.65551 -0.86736,-1.36335 -0.85755,-0.16067 -0.80457,0.6352 -0.41259,-0.47764 -0.20578,-0.24987 -0.40455,-0.5173 -0.58634,-0.82712 -0.30994,-0.36963 -1.78231,-2.14623 -2.06814,-2.53999 z"
       id="rect29506"
       inkscape:connector-curvature="0"
       sodipodi:nodetypes="ccccccccscccccscscccscccccccccccccccccccccccccccc" />
  </g>
</svg>
