<?xml version="1.0" encoding="UTF-8" standalone="no"?>
<!-- Created with Inkscape (http://www.inkscape.org/) -->

<svg
   xmlns:dc="http://purl.org/dc/elements/1.1/"
   xmlns:cc="http://creativecommons.org/ns#"
   xmlns:rdf="http://www.w3.org/1999/02/22-rdf-syntax-ns#"
   xmlns:svg="http://www.w3.org/2000/svg"
   xmlns="http://www.w3.org/2000/svg"
   xmlns:sodipodi="http://sodipodi.sourceforge.net/DTD/sodipodi-0.dtd"
   xmlns:inkscape="http://www.inkscape.org/namespaces/inkscape"
   width="20.406357mm"
   height="21.084181mm"
   viewBox="0 0 20.406357 21.084181"
   version="1.1"
   id="svg6919"
   inkscape:version="0.92.3 (2405546, 2018-03-11)"
   sodipodi:docname="rune_truth.svg">
  <defs
     id="defs6913" />
  <sodipodi:namedview
     id="base"
     pagecolor="#ffffff"
     bordercolor="#666666"
     borderopacity="1.0"
     inkscape:pageopacity="0.0"
     inkscape:pageshadow="2"
     inkscape:zoom="0.35"
     inkscape:cx="895.70603"
     inkscape:cy="-1080.1559"
     inkscape:document-units="mm"
     inkscape:current-layer="layer1"
     showgrid="false"
     inkscape:window-width="1920"
     inkscape:window-height="1024"
     inkscape:window-x="-4"
     inkscape:window-y="-4"
     inkscape:window-maximized="1" />
  <metadata
     id="metadata6916">
    <rdf:RDF>
      <cc:Work
         rdf:about="">
        <dc:format>image/svg+xml</dc:format>
        <dc:type
           rdf:resource="http://purl.org/dc/dcmitype/StillImage" />
        <dc:title></dc:title>
      </cc:Work>
    </rdf:RDF>
  </metadata>
  <g
     inkscape:label="Layer 1"
     inkscape:groupmode="layer"
     id="layer1"
     transform="translate(262.69127,158.04209)">
    <g
       aria-label="y"
       style="font-style:normal;font-variant:normal;font-weight:normal;font-stretch:normal;font-size:10.58333302px;line-height:1.25;font-family:'Glorantha Core Runes';-inkscape-font-specification:'Glorantha Core Runes';letter-spacing:0px;word-spacing:0px;fill:#000000;fill-opacity:1;stroke:none;stroke-width:0.26458332"
       id="text927"
       transform="matrix(2.858258,0,0,2.858258,-360.26481,-190.73533)">
      <path
         d="m 39.583518,13.290254 q 0.02117,0.05292 -0.486834,0.8255 l -0.60325,0.92075 q 0,0.22225 -0.0635,0.709084 0.1905,0.243416 0.211667,0.941916 0,0.116417 0,0.254 0,0.137584 -0.01058,0.28575 l -0.02117,0.465667 -0.116417,0.09525 q -0.04233,0.169333 0.07408,0.306917 l 0.148166,0.719666 q -0.28575,-0.04233 -0.836083,-0.211666 -0.232833,0.07408 -0.391583,0.148166 l -0.09525,-0.105833 q 0.01058,-0.22225 0.09525,-0.719667 -0.148167,-0.508 -0.148167,-0.783166 0,-0.275167 0.116417,-0.455084 0.116416,-0.01058 0.137583,-0.09525 0.03175,-0.0635 -0.02117,-0.116416 l -0.01058,-0.02117 v -0.01058 q -0.02117,-0.0635 0.02117,-0.306917 l -0.1905,0.05292 q -0.02117,-0.211667 -0.03175,-0.465667 -0.01058,-0.254 -0.01058,-0.550333 -0.28575,-0.402167 -0.60325,-0.719667 l -0.941916,-0.963083 q -0.275167,-0.275167 -0.465667,-0.53975 -0.1905,-0.275167 -0.338667,-0.529167 l -0.264583,-0.243417 q -0.02117,-0.04233 -0.127,-0.137583 -0.09525,-0.105833 -0.264583,-0.28575 -0.243417,-0.254 -0.201084,-0.254 0.338667,-0.02117 0.455084,0 0.328083,0.02117 0.53975,0.22225 0.338666,-0.137583 0.518583,-0.137583 0.306917,0 0.486833,0.508 0.28575,0.232833 0.645584,0.687916 -0.02117,0.105834 -0.02117,0.137584 0,0.306916 0.381,0.306916 0.03175,0 0.1905,0.127 l 0.03175,-0.02117 h 0.08467 q 0.08467,0.116416 0.148166,0.232833 0.0635,0.105833 0.116417,0.211667 0.582083,-0.264584 1.143,-1.04775 0.09525,-0.137584 0.232833,-0.328084 0.116417,-0.15875 0.28575,-0.391583 0.169334,-0.243417 0.41275,-0.5715 h 0.370417 q 0.116417,0 0.22225,0.03175 0.105833,0.03175 0.201083,0.07408 0.423334,-0.09525 0.687917,-0.0635 -0.09525,0.148167 -0.296333,0.402167 -0.201084,0.254 -0.508,0.592667 -0.687917,0.772583 -0.889,0.814916 z"
         style="stroke-width:0.26458332"
         id="path4084"
         inkscape:connector-curvature="0" />
    </g>
  </g>
</svg>
