<?xml version="1.0" encoding="UTF-8" standalone="no"?>
<!-- Created with Inkscape (http://www.inkscape.org/) -->

<svg
   xmlns:dc="http://purl.org/dc/elements/1.1/"
   xmlns:cc="http://creativecommons.org/ns#"
   xmlns:rdf="http://www.w3.org/1999/02/22-rdf-syntax-ns#"
   xmlns:svg="http://www.w3.org/2000/svg"
   xmlns="http://www.w3.org/2000/svg"
   xmlns:sodipodi="http://sodipodi.sourceforge.net/DTD/sodipodi-0.dtd"
   xmlns:inkscape="http://www.inkscape.org/namespaces/inkscape"
   width="16.183701mm"
   height="16.301321mm"
   viewBox="0 0 16.183701 16.301321"
   version="1.1"
   id="svg7488"
   inkscape:version="0.92.3 (2405546, 2018-03-11)"
   sodipodi:docname="rune_undeath.svg">
  <defs
     id="defs7482" />
  <sodipodi:namedview
     id="base"
     pagecolor="#ffffff"
     bordercolor="#666666"
     borderopacity="1.0"
     inkscape:pageopacity="0.0"
     inkscape:pageshadow="2"
     inkscape:zoom="0.35"
     inkscape:cx="-466.55949"
     inkscape:cy="30.805635"
     inkscape:document-units="mm"
     inkscape:current-layer="layer1"
     showgrid="false"
     inkscape:window-width="1920"
     inkscape:window-height="1024"
     inkscape:window-x="-4"
     inkscape:window-y="-4"
     inkscape:window-maximized="1" />
  <metadata
     id="metadata7485">
    <rdf:RDF>
      <cc:Work
         rdf:about="">
        <dc:format>image/svg+xml</dc:format>
        <dc:type
           rdf:resource="http://purl.org/dc/dcmitype/StillImage" />
        <dc:title></dc:title>
      </cc:Work>
    </rdf:RDF>
  </metadata>
  <g
     inkscape:label="Layer 1"
     inkscape:groupmode="layer"
     id="layer1"
     transform="translate(-97.741484,-140.68267)">
    <g
       aria-label="u"
       style="font-style:normal;font-variant:normal;font-weight:normal;font-stretch:normal;font-size:10.58333302px;line-height:1.25;font-family:'Glorantha Core Runes';-inkscape-font-specification:'Glorantha Core Runes';letter-spacing:0px;word-spacing:0px;fill:#000000;fill-opacity:1;stroke:none;stroke-width:0.26458332"
       id="text931"
       transform="matrix(2.858258,0,0,2.858258,-31.743849,102.86184)">
      <path
         d="m 50.943102,18.523794 q -0.0635,0.116417 -0.137584,0.04233 -0.05292,-0.03175 -0.116416,-0.09525 -0.05292,-0.0635 -0.127,-0.148167 -0.254,-0.0635 -0.34925,-0.275167 -0.03175,-0.03175 -0.09525,-0.05292 -0.0635,-0.03175 -0.137584,-0.0635 -0.07408,-0.03175 -0.137583,-0.0635 -0.05292,-0.03175 -0.07408,-0.08467 l -0.275167,-0.201083 q -0.169333,-0.127 -0.127,-0.296334 -0.03175,0 -0.0635,0.0635 -0.02117,0.0635 -0.05292,0.0635 -0.08467,-0.07408 -0.22225,-0.15875 -0.137583,-0.09525 -0.3175,-0.211666 -0.07408,0.01058 -0.04233,0.09525 -0.01058,0.04233 0,0.116416 0.01058,0.05292 0.01058,0.08467 0.01058,0.02117 0.01058,0.04233 0,0.08467 -0.08467,0.116417 -0.02117,0.03175 0.01058,0.08467 0.03175,0.05292 0.02117,0.09525 -0.02117,0.04233 -0.03175,0.0635 0,0.02117 -0.01058,0.04233 -0.01058,0.02117 -0.01058,0.04233 0.127,0.03175 0.116417,0.201084 0,0.28575 -0.01058,0.275166 0.01058,0.07408 0.01058,0.148167 0,0.07408 0,0.148167 0,0.137583 -0.148167,0.1905 -0.105833,0.02117 -0.169333,0.02117 -0.105833,0 -0.677333,-0.169333 -0.0635,-0.08467 -0.05292,-0.243417 0.01058,-0.116416 0.01058,-0.179916 0,-0.0635 0,-0.08467 0.01058,-0.116417 0.116417,-0.105833 0.01058,0 0.22225,0.127 -0.01058,-0.01058 -0.0635,-0.07408 -0.04233,-0.0635 -0.127,-0.201083 -0.03175,-0.148167 -0.1905,-0.402167 0.02117,-0.455083 -0.01058,-0.508 -0.02117,0.04233 -0.09525,0.04233 -0.0635,0 -0.09525,0.03175 0.01058,0.02117 0.01058,0.0635 0,0.137583 -0.22225,0.232833 -0.05292,0 -0.08467,-0.01058 0.01058,0.0635 -0.04233,0.22225 l -0.529167,0.41275 q -0.201083,0 -0.34925,0.08467 0.07408,0.169334 0.05292,0.1905 -0.116417,0.07408 -0.264583,0.179917 -0.148167,0.09525 -0.328084,0.232833 -0.0635,0.02117 -0.116416,0.169334 -0.05292,0.148166 -0.169334,0.105833 -0.07408,-0.07408 -0.07408,-0.179917 0,-0.03175 0.01058,-0.08467 0.02117,-0.0635 0.03175,-0.137584 0.01058,-0.07408 0.01058,-0.137583 0.01058,-0.07408 0,-0.127 0.02117,0 0.07408,-0.148167 -0.04233,-0.73025 -0.01058,-0.867833 0.07408,-0.04233 0.07408,-0.148167 0,-0.03175 -0.03175,-0.137583 -0.02117,-0.105833 -0.01058,-0.169333 -0.01058,-0.07408 -0.03175,-0.137584 -0.02117,-0.07408 -0.04233,-0.127 -0.01058,-0.0635 0.04233,-0.169333 0.05292,-0.105833 0.05292,-0.15875 0,-0.05292 -0.0635,-0.116417 -0.05292,-0.0635 0,-0.22225 0,-0.02117 0.04233,-0.0635 0.05292,-0.04233 0.04233,-0.08467 0.03175,-0.03175 0.03175,-0.0635 0,-0.03175 -0.05292,-0.09525 -0.05292,-0.07408 -0.05292,-0.09525 -0.02117,-0.28575 -0.0635,-0.486833 0.01058,-0.1905 0,-0.465667 0,-0.28575 -0.02117,-0.656167 -0.02117,-0.148166 0.05292,-0.34925 0.148166,-0.03175 0.243416,0.0635 0.01058,0.0635 0.08467,0.127 0.08467,0.0635 0.105833,0.127 0.370417,0.254 0.402167,0.28575 0.105833,0.08467 0.179917,0.179917 0.07408,0.08467 0.116416,0.1905 0.07408,0 0.254,0.05292 0.01058,0.07408 0.254,0.169333 0.05292,0.05292 0.127,0.127 0.08467,0.0635 0.201084,0.15875 0,0.07408 0.08467,0.09525 0.116417,0.01058 0.137584,0.03175 0.02117,-0.0635 0.02117,-0.127 0,-0.05292 -0.02117,-0.15875 -0.02117,-0.116417 -0.02117,-0.169333 0,-0.116417 0.09525,-0.179917 0.02117,-0.0635 0.15875,-0.179917 0.01058,-0.04233 -0.0635,-0.04233 -0.127,-0.05292 -0.15875,-0.1905 l -0.0635,-0.243417 q 0.03175,-0.07408 0.03175,-0.232833 v -0.04233 q 0,-0.22225 0.105833,-0.296334 0.02117,0.01058 0.08467,0.02117 0.0635,0.01058 0.15875,0.02117 0.137583,0.02117 0.22225,0.09525 0.105833,0.01058 0.232833,-0.0635 0.127,-0.08467 0.22225,-0.08467 l 0.04233,0.22225 q 0,0.179917 0.01058,0.4445 0.02117,0.264583 0.04233,0.613833 0,0 -0.02117,0.22225 -0.02117,0.148167 -0.105834,0.1905 0,0.02117 0.05292,0.09525 0.0635,0.0635 0.0635,0.116417 0.03175,0 0.08467,-0.05292 0.05292,-0.05292 0.09525,-0.05292 0,0 0.0635,0.02117 0.01058,0.01058 0.05292,-0.03175 0.02117,-0.05292 -0.01058,-0.116416 -0.02117,-0.0635 0.01058,-0.105834 0.03175,-0.04233 0.08467,-0.08467 0.0635,-0.04233 0.127,-0.08467 0.0635,-0.05292 0.116417,-0.09525 0.05292,-0.04233 0.07408,-0.09525 0.0635,-0.02117 0.254,-0.169333 0.127,-0.105834 0.296333,-0.08467 0.01058,-0.04233 0.03175,-0.08467 0.02117,-0.05292 0.04233,-0.127 0.01058,-0.05292 0.05292,-0.08467 0.05292,-0.04233 0.09525,-0.07408 0.05292,-0.03175 0.09525,-0.0635 0.05292,-0.03175 0.0635,-0.07408 0.137584,-0.137583 0.4445,-0.3175 0.0635,0.01058 0.08467,0.08467 0.07408,0.328083 -0.04233,0.762 0.07408,0.169333 0.07408,0.381 0.01058,0.148166 0.01058,0.243416 0,0.09525 0.02117,0.148167 -0.03175,0.08467 -0.04233,0.201083 -0.01058,0.116417 -0.01058,0.254 v 0.47625 q 0.09525,0.402167 0.05292,0.560917 -0.01058,0.05292 -0.04233,0.127 -0.02117,0.0635 -0.0635,0.169333 0.169333,0.148167 0.09525,0.5715 0.03175,0.391583 -0.03175,0.518583 0.116416,0.08467 0.116416,0.232834 0,0.04233 -0.02117,0.148166 -0.02117,0.105834 -0.02117,0.15875 0,0.0635 0.02117,0.127 z m -0.740834,-2.582333 q -0.105833,-0.09525 -0.105833,-0.296333 v -0.338667 q 0.01058,-0.0635 -0.07408,-0.169333 -0.28575,0.201083 -0.529167,0.47625 -0.306917,0.15875 -0.53975,0.465666 0.05292,0.08467 0.232833,0.201084 0.04233,0.07408 0.1905,0.148166 0.15875,0.07408 0.201084,0.15875 0.02117,0.105834 0.116416,0.232834 0.04233,-0.03175 0.08467,-0.03175 0.07408,0 0.179917,0.105833 0.105833,0.105833 0.179916,0.116417 0.03175,-0.08467 0.01058,-0.148167 0.127,-0.486833 0.01058,-0.740833 0.02117,-0.105834 0.03175,-0.137584 0.01058,-0.03175 0.01058,-0.04233 z m -2.76225,0.169333 -0.5715,-0.444499 q -0.02117,-0.148167 -0.169333,-0.211667 -0.148167,-0.0635 -0.28575,-0.127 -0.03175,0 -0.08467,-0.05292 -0.04233,-0.05292 -0.08467,-0.05292 -0.05292,0.03175 -0.0635,0.09525 v 0.127 q 0.01058,0.05292 0.01058,0.08467 0,0.02117 0,0.03175 0.01058,0.116417 0.02117,0.296333 0.01058,0.169334 0.03175,0.41275 -0.05292,0.370417 -0.02117,0.4445 0.02117,0.0635 0.02117,0.07408 0,0.03175 -0.04233,0.116416 -0.03175,0.08467 -0.01058,0.137584 0.148167,-0.01058 0.296333,-0.15875 0.09525,-0.105834 0.15875,-0.15875 0.0635,-0.0635 0.09525,-0.08467 0.01058,-0.01058 0.05292,-0.01058 0.04233,-0.01058 0.08467,-0.02117 0.04233,-0.01058 0.0635,-0.03175 0.03175,-0.02117 0.03175,-0.05292 0.05292,-0.09525 0.264583,-0.243416 0.04233,0 0.08467,-0.07408 0.04233,-0.07408 0.07408,-0.07408 0.03175,0 0.04233,0.01058 z"
         style="stroke-width:0.26458332"
         id="path4081"
         inkscape:connector-curvature="0" />
    </g>
  </g>
</svg>
