<?xml version="1.0" encoding="UTF-8" standalone="no"?>
<!-- Created with Inkscape (http://www.inkscape.org/) -->

<svg
   xmlns:dc="http://purl.org/dc/elements/1.1/"
   xmlns:cc="http://creativecommons.org/ns#"
   xmlns:rdf="http://www.w3.org/1999/02/22-rdf-syntax-ns#"
   xmlns:svg="http://www.w3.org/2000/svg"
   xmlns="http://www.w3.org/2000/svg"
   xmlns:sodipodi="http://sodipodi.sourceforge.net/DTD/sodipodi-0.dtd"
   xmlns:inkscape="http://www.inkscape.org/namespaces/inkscape"
   width="19.632212mm"
   height="18.815504mm"
   viewBox="0 0 19.632212 18.815504"
   version="1.1"
   id="svg21715"
   inkscape:version="0.92.3 (2405546, 2018-03-11)"
   sodipodi:docname="rune_barntar.svg">
  <defs
     id="defs21709" />
  <sodipodi:namedview
     id="base"
     pagecolor="#ffffff"
     bordercolor="#666666"
     borderopacity="1.0"
     inkscape:pageopacity="0.0"
     inkscape:pageshadow="2"
     inkscape:zoom="0.35"
     inkscape:cx="-460.04262"
     inkscape:cy="35.556856"
     inkscape:document-units="mm"
     inkscape:current-layer="layer1"
     showgrid="false"
     inkscape:window-width="1920"
     inkscape:window-height="1024"
     inkscape:window-x="-4"
     inkscape:window-y="-4"
     inkscape:window-maximized="1" />
  <metadata
     id="metadata21712">
    <rdf:RDF>
      <cc:Work
         rdf:about="">
        <dc:format>image/svg+xml</dc:format>
        <dc:type
           rdf:resource="http://purl.org/dc/dcmitype/StillImage" />
        <dc:title></dc:title>
      </cc:Work>
    </rdf:RDF>
  </metadata>
  <g
     inkscape:label="Layer 1"
     inkscape:groupmode="layer"
     id="layer1"
     transform="translate(-96.017228,-139.42558)">
    <g
       aria-label="F"
       style="font-style:normal;font-variant:normal;font-weight:normal;font-stretch:normal;font-size:10.58333302px;line-height:1.25;font-family:'Glorantha Core Runes';-inkscape-font-specification:'Glorantha Core Runes';letter-spacing:0px;word-spacing:0px;fill:#000000;fill-opacity:1;stroke:none;stroke-width:0.26458332"
       id="text1341"
       transform="matrix(2.858258,0,0,2.858258,-6.62713,-41.338855)">
      <path
         d="m 42.780102,63.782645 q 0,0.169333 -0.105834,0.486833 -0.08467,0.03175 -0.137583,0.03175 -0.05292,0 -0.15875,-0.03175 -0.09525,-0.03175 -0.148167,-0.03175 -0.1905,0 -0.328083,0.105834 -0.0635,-0.01058 -0.1905,0.02117 -0.116417,0.02117 -0.169333,0.02117 -0.105834,0 -0.275167,-0.01058 -0.15875,-0.02117 -0.370417,-0.0635 -0.455083,-0.08467 -0.635,-0.08467 -0.0635,0 -0.211666,0.03175 -0.137584,0.02117 -0.211667,0.01058 l -0.09525,0.211667 0.148167,0.232833 q -0.02117,0.0635 -0.02117,0.1905 0,0.08467 0.01058,0.211667 0.01058,0.127 0.03175,0.296333 0.02117,0.169333 0.03175,0.296333 0.02117,0.116417 0.02117,0.201084 l -0.116417,0.211666 q 0.03175,0.08467 0.03175,0.1905 0,0.169334 -0.0635,0.370417 l 0.09525,0.28575 q 0,0.09525 -0.0635,0.275167 -0.05292,0.179916 -0.05292,0.275166 0,0.0635 0.01058,0.15875 0.01058,0.08467 0.02117,0.1905 0.02117,0.105834 0.03175,0.201084 0.02117,0.08467 0.02117,0.148166 0.0635,-0.08467 0.15875,-0.201083 0.105834,-0.116417 0.254,-0.264583 l 0.201084,0.01058 q 0.34925,-0.645583 0.751416,-0.98425 l 0.05292,0.03175 q 0.0635,0.243417 0.465667,0.22225 l 0.328083,0.370417 -0.05292,0.15875 -0.47625,0.41275 q -0.296333,0.243416 -0.518583,0.34925 l -0.137583,-0.02117 -0.105834,0.232833 h -0.211666 v 0.1905 q -0.359834,0.497417 -1.185334,1.100667 -0.529166,-0.105833 -0.889,-0.73025 l -0.116416,0.01058 q -0.127,0 -0.264584,-0.05292 -0.127,-0.0635 -0.232833,-0.15875 -0.105833,-0.105834 -0.179917,-0.22225 -0.0635,-0.127 -0.0635,-0.254 -0.05292,-0.04233 -0.137583,-0.105834 -0.08467,-0.0635 -0.1905,-0.148166 h -0.179917 l -0.497416,-0.41275 q -0.28575,-0.22225 -0.370417,-0.518584 0.243417,-0.232833 0.4445,-0.306916 l 0.1905,0.116416 0.116417,-0.148166 q 0.148166,0.148166 0.497416,0.328083 l 0.15875,0.28575 0.09525,-0.02117 q 0.624417,0.338667 0.79375,0.709084 l 0.1905,0.04233 q 0.04233,-0.09525 0.04233,-0.264583 0,-0.0635 -0.02117,-0.15875 -0.01058,-0.105834 -0.03175,-0.201084 -0.01058,-0.105833 -0.03175,-0.201083 -0.01058,-0.105833 -0.01058,-0.169333 0,-0.09525 0.01058,-0.232834 0.01058,-0.148166 0.03175,-0.328083 0.02117,-0.179917 0.03175,-0.3175 0.01058,-0.148167 0.01058,-0.243417 l 0.127,-0.09525 0.34925,0.179917 0.15875,-0.22225 -0.105833,-0.08467 -0.3175,-0.0635 -0.179917,-0.264583 0.02117,-0.105833 0.05292,-0.03175 q -0.09525,-0.137584 -0.09525,-0.370417 0,-0.08467 0.01058,-0.254 0.02117,-0.179917 0.02117,-0.264583 l -0.07408,-0.211667 -0.275166,0.04233 -0.3175,-0.03175 -0.02117,-0.08467 -0.1905,0.05292 q -0.0635,0 -0.47625,-0.116417 -0.34925,0.137583 -0.613833,0.137583 -0.07408,0 -0.1905,0 -0.105834,0 -0.254,-0.01058 -0.275167,-0.02117 -0.433917,0 l -0.0635,-0.137583 q 0.07408,-0.254 0.07408,-0.381 l -0.09525,-0.306917 0.01058,-0.0635 q 0.105833,-0.03175 0.34925,-0.0635 l 0.15875,0.137583 q 0.328083,-0.211666 0.391583,-0.211666 h 1.4605 q -0.105833,0 0.433917,0.09525 l 0.0635,0.09525 q 0.15875,-0.105834 0.34925,-0.148167 l 0.07408,0.03175 0.264583,-0.04233 0.116417,0.0635 -0.0635,0.179916 0.465667,-0.232833 0.105833,0.01058 q 0.09525,0 0.275167,-0.05292 0.1905,-0.05292 0.28575,-0.05292 0.105833,0 0.254,0.02117 0.148166,0.01058 0.34925,0.03175 0.201083,0.02117 0.34925,0.03175 0.148166,0.01058 0.254,0.01058 l 0.02117,0.15875 0.41275,-0.169333 q 0.148167,0 0.391584,0.03175 l -0.01058,0.179916 q 0,0.03175 0.05292,0.127 0.05292,0.08467 0.05292,0.116417 z"
         style="stroke-width:0.26458332"
         id="path3994"
         inkscape:connector-curvature="0" />
    </g>
  </g>
</svg>
