<?xml version="1.0" encoding="UTF-8" standalone="no"?>
<!-- Created with Inkscape (http://www.inkscape.org/) -->

<svg
   xmlns:dc="http://purl.org/dc/elements/1.1/"
   xmlns:cc="http://creativecommons.org/ns#"
   xmlns:rdf="http://www.w3.org/1999/02/22-rdf-syntax-ns#"
   xmlns:svg="http://www.w3.org/2000/svg"
   xmlns="http://www.w3.org/2000/svg"
   xmlns:sodipodi="http://sodipodi.sourceforge.net/DTD/sodipodi-0.dtd"
   xmlns:inkscape="http://www.inkscape.org/namespaces/inkscape"
   width="18.845684mm"
   height="18.149912mm"
   viewBox="0 0 18.845684 18.149912"
   version="1.1"
   id="svg25708"
   inkscape:version="0.92.3 (2405546, 2018-03-11)"
   sodipodi:docname="rune_chaos.svg">
  <defs
     id="defs25702" />
  <sodipodi:namedview
     id="base"
     pagecolor="#ffffff"
     bordercolor="#666666"
     borderopacity="1.0"
     inkscape:pageopacity="0.0"
     inkscape:pageshadow="2"
     inkscape:zoom="0.35"
     inkscape:cx="35.613888"
     inkscape:cy="34.299048"
     inkscape:document-units="mm"
     inkscape:current-layer="layer1"
     showgrid="false"
     inkscape:window-width="1920"
     inkscape:window-height="1024"
     inkscape:window-x="-4"
     inkscape:window-y="-4"
     inkscape:window-maximized="1" />
  <metadata
     id="metadata25705">
    <rdf:RDF>
      <cc:Work
         rdf:about="">
        <dc:format>image/svg+xml</dc:format>
        <dc:type
           rdf:resource="http://purl.org/dc/dcmitype/StillImage" />
        <dc:title></dc:title>
      </cc:Work>
    </rdf:RDF>
  </metadata>
  <g
     inkscape:label="Layer 1"
     inkscape:groupmode="layer"
     id="layer1"
     transform="translate(35.125222,-139.75838)">
    <g
       aria-label="?"
       style="font-style:normal;font-variant:normal;font-weight:normal;font-stretch:normal;font-size:10.58333302px;line-height:1.25;font-family:'Glorantha Core Runes';-inkscape-font-specification:'Glorantha Core Runes';letter-spacing:0px;word-spacing:0px;fill:#000000;fill-opacity:1;stroke:none;stroke-width:0.26458332"
       id="text1457"
       transform="matrix(2.858258,0,0,2.858258,-224.61921,-91.097808)">
      <path
         d="m 72.890436,81.858216 q 0,0.08467 -0.0635,0.201083 -0.0635,0.105833 -0.0635,0.148167 0,0.02117 0.03175,0.15875 0.03175,0.148166 0.03175,0.169333 0,0.148167 -0.137583,0.41275 -0.127,0.264583 -0.264584,0.370417 0.01058,0.05292 0.01058,0.09525 0.01058,0.03175 0.01058,0.0635 0,0.359833 -0.677333,0.846666 0.02117,0.148167 0.03175,0.28575 0.02117,0.137584 0.02117,0.264584 0,0.465666 -0.179916,0.709083 -0.09525,0.03175 -0.169334,0.03175 0.02117,0 -0.529166,-0.127 0,0.08467 0.3175,0.22225 0.01058,-0.04233 0.0635,-0.07408 0.28575,0.02117 0.28575,0.232833 0,0.28575 -0.47625,0.677333 -0.465667,0.391584 -0.79375,0.391584 -0.137584,0 -0.1905,-0.08467 -0.09525,-0.15875 -0.127,-0.1905 -0.04233,0.08467 -0.04233,0.455083 h -0.592666 q -0.03175,0 -0.1905,-0.0635 -0.179917,-0.07408 -0.179917,-0.07408 L 68.83702,86.832385 q -0.05292,0 -0.127,0 -0.0635,0 -0.169333,-0.01058 -0.3175,-0.105833 -0.592667,-0.455083 -0.28575,-0.359834 -0.328083,-0.656167 -0.03175,-0.1905 -0.03175,-0.169333 v -0.201084 q 0.04233,-0.01058 0.105833,-0.02117 0.0635,-0.01058 0.0635,-0.105834 h -0.264583 l 0.02117,-0.01058 q -0.01058,-0.211667 -0.02117,-0.296333 0,-0.09525 0,-0.04233 0,-0.28575 0.0635,-0.635 -0.529167,-0.370416 -0.85725,-0.941916 -0.306917,-0.560917 -0.306917,-1.04775 0,-0.306917 0.127,-0.550334 -0.22225,-0.105833 -0.22225,-0.306916 0,-0.179917 0.179917,-0.518584 0.137583,0 0.34925,-0.03175 0.328083,-0.0635 0.275167,-0.0635 h 0.1905 q 0.116416,0.0635 0.116416,0.328084 0,0.137583 -0.08467,0.592666 -0.04233,0.211667 -0.0635,0.34925 -0.01058,0.127 -0.01058,0.179917 0,0.07408 0.1905,0.275167 0.04233,0.116416 0.08467,0.232833 0.04233,0.105833 0.09525,0.22225 0.105833,0.264583 0.381,0.455083 0.0635,-0.127 0.275167,-0.338666 0.22225,-0.22225 0.34925,-0.22225 h 0.148166 q 0.07408,0.0635 0.116417,0.201083 0.05292,0.127 0.09525,0.243417 h 0.01058 q 0.07408,-0.116417 0.137584,-0.243417 0.0635,-0.127 0.127,-0.243417 0.116416,-0.148166 0.381,-0.148166 0.05292,0 0.201083,0.02117 0.148167,0.01058 0.41275,0.05292 0.02117,0.127 0.137583,0.243417 0.116417,0.105833 0.211667,0.105833 0.01058,0 0.0635,-0.02117 0.05292,-0.03175 0.07408,-0.03175 0.04233,0 0.22225,0.148167 0.179917,0.148167 0.254,0.148167 0.05292,0 0.179917,-0.211667 0.07408,-0.148167 0.179917,-0.402167 0.116416,-0.264583 0.264583,-0.624416 0,-0.01058 0,-0.03175 0,-0.03175 0.01058,-0.08467 -0.127,-0.116417 -0.169333,-0.486833 -0.05292,-0.391584 -0.179917,-0.518584 0,-0.04233 0.01058,-0.0635 v -0.04233 q 0.07408,-0.03175 0.137583,-0.03175 0.01058,0 0.3175,0.0635 0.296333,0.0635 0.328083,0.0635 -0.01058,0 0.402167,-0.148167 0.02117,0.07408 0.05292,0.243417 0.03175,0.15875 0.05292,0.423333 0,0.07408 0.04233,0.232834 0.04233,0.148166 0.04233,0.15875 z"
         style="stroke-width:0.26458332"
         id="path3967"
         inkscape:connector-curvature="0" />
    </g>
  </g>
</svg>
