<?xml version="1.0" encoding="UTF-8" standalone="no"?>
<!-- Created with Inkscape (http://www.inkscape.org/) -->

<svg
   xmlns:dc="http://purl.org/dc/elements/1.1/"
   xmlns:cc="http://creativecommons.org/ns#"
   xmlns:rdf="http://www.w3.org/1999/02/22-rdf-syntax-ns#"
   xmlns:svg="http://www.w3.org/2000/svg"
   xmlns="http://www.w3.org/2000/svg"
   xmlns:sodipodi="http://sodipodi.sourceforge.net/DTD/sodipodi-0.dtd"
   xmlns:inkscape="http://www.inkscape.org/namespaces/inkscape"
   width="21.757456mm"
   height="19.16033mm"
   viewBox="0 0 21.757456 19.16033"
   version="1.1"
   id="svg12040"
   inkscape:version="0.92.3 (2405546, 2018-03-11)"
   sodipodi:docname="rune_communication_trade.svg">
  <defs
     id="defs12034" />
  <sodipodi:namedview
     id="base"
     pagecolor="#ffffff"
     bordercolor="#666666"
     borderopacity="1.0"
     inkscape:pageopacity="0.0"
     inkscape:pageshadow="2"
     inkscape:zoom="0.35"
     inkscape:cx="-456.0264"
     inkscape:cy="36.208497"
     inkscape:document-units="mm"
     inkscape:current-layer="layer1"
     showgrid="false"
     inkscape:window-width="1920"
     inkscape:window-height="1024"
     inkscape:window-x="-4"
     inkscape:window-y="-4"
     inkscape:window-maximized="1" />
  <metadata
     id="metadata12037">
    <rdf:RDF>
      <cc:Work
         rdf:about="">
        <dc:format>image/svg+xml</dc:format>
        <dc:type
           rdf:resource="http://purl.org/dc/dcmitype/StillImage" />
        <dc:title></dc:title>
      </cc:Work>
    </rdf:RDF>
  </metadata>
  <g
     inkscape:label="Layer 1"
     inkscape:groupmode="layer"
     id="layer1"
     transform="translate(-94.954603,-139.25317)">
    <g
       aria-label="h"
       style="font-style:normal;font-variant:normal;font-weight:normal;font-stretch:normal;font-size:10.58333302px;line-height:1.25;font-family:'Glorantha Core Runes';-inkscape-font-specification:'Glorantha Core Runes';letter-spacing:0px;word-spacing:0px;fill:#000000;fill-opacity:1;stroke:none;stroke-width:0.26458332"
       id="text967"
       transform="matrix(3.4726867,0,0,3.4726867,-113.18144,55.882362)">
      <path
         d="m 66.189938,27.277823 q -0.275167,0.08467 -0.34925,0.0635 -0.0635,-0.04233 -0.15875,-0.137583 l -0.169333,0.116417 q -0.148167,0.09525 -0.22225,0.09525 -0.02117,0 -0.08467,-0.02117 -0.02117,0.08467 -0.04233,0.211667 -0.01058,0.116416 0,0.264583 0.01058,0.34925 0,0.47625 -0.03175,0.01058 -0.08467,-0.02117 -0.04233,0.05292 -0.04233,0.201084 0,0.04233 0,0.08467 0,0.04233 0.01058,0.09525 0.01058,-0.01058 0.04233,-0.08467 0.04233,-0.07408 0.0635,-0.07408 0.02117,0 0.04233,0.09525 0.02117,0.08467 0,0.116417 l -0.03175,0.169333 q 0,0.08467 0.01058,0.22225 0.02117,0.137583 0.04233,0.3175 -0.02117,0.02117 -0.09525,0.03175 -0.137583,-0.116417 -0.306916,-0.116417 -0.08467,0 -0.127,0.01058 -0.07408,0.105833 -0.201084,0.105833 -0.05292,0 -0.15875,-0.02117 -0.09525,-0.03175 -0.148166,-0.03175 l -0.03175,-0.09525 0.02117,-0.973666 q 0.04233,-0.03175 0.105834,-0.03175 0.04233,0 0.0635,0.01058 0.04233,0.02117 0.08467,0.04233 0.04233,0.01058 0.08467,0.03175 0.02117,0.02117 0.04233,0.02117 -0.02117,-0.105833 -0.169333,-0.243416 -0.127,-0.01058 -0.201083,-0.105834 -0.04233,-0.232833 -0.03175,-0.687916 -0.01058,-0.01058 -0.433917,-0.09525 l -0.0635,-0.09525 q -0.05292,0.05292 -0.34925,0.148166 -0.03175,-0.03175 -0.254,0 -0.169333,0.03175 -0.179916,-0.137583 0.09525,-0.105833 0.07408,-0.201083 -0.05292,-0.03175 -0.1905,0.0635 -0.137583,0.09525 -0.1905,0.07408 -0.03175,0.08467 -0.116417,0.201083 -0.04233,-0.01058 -0.07408,-0.01058 -0.03175,-0.01058 -0.0635,-0.01058 -0.137583,0 -0.243417,0.08467 0.01058,0.105834 0.01058,0.275167 0,0.15875 0,0.391583 -0.07408,0.01058 -0.07408,0.08467 0,0.02117 0.01058,0.0635 0.01058,0.04233 0.01058,0.0635 0,0.05292 -0.03175,0.08467 l 0.02117,0.169333 q 0.02117,0.09525 0.09525,0.105833 0.02117,0.0635 0.02117,0.116417 0,0.0635 -0.03175,0.201083 -0.02117,0.127 -0.02117,0.1905 0,0.137583 0.07408,0.211667 0.02117,0.07408 -0.08467,0.127 -0.03175,0.01058 -0.08467,-0.01058 -0.05292,-0.03175 -0.116417,-0.0635 -0.05292,-0.03175 -0.09525,-0.0635 -0.04233,-0.03175 -0.04233,-0.03175 -0.05292,0 -0.116417,0.08467 -0.07408,-0.07408 -0.22225,-0.01058 -0.127,0.05292 -0.201083,0.07408 -0.08467,0 -0.148167,-0.116417 0.02117,-0.105833 0.02117,-0.243416 0,-0.137584 -0.01058,-0.3175 -0.01058,-0.179917 -0.02117,-0.3175 0,-0.148167 0.01058,-0.232833 0.03175,-0.05292 0.07408,-0.05292 0.02117,0 0.07408,0.03175 0.05292,0.02117 0.08467,0.02117 0.02117,-0.05292 -0.0635,-0.169334 -0.08467,0 -0.127,-0.127 -0.07408,-0.148166 -0.09525,-0.169333 0.02117,-0.15875 -0.03175,-0.433917 H 60.803 q 0.01058,-0.02117 0.01058,-0.07408 0,-0.0635 -0.03175,-0.15875 -0.148167,0.116417 -0.41275,0.254 -0.05292,-0.03175 -0.105833,-0.03175 -0.03175,0 -0.116417,0.03175 -0.07408,0.02117 -0.105833,0.02117 -0.0635,0 -0.105834,-0.04233 0.09525,-0.137583 0.09525,-0.243416 0,-0.05292 -0.01058,-0.07408 l -0.05292,-0.04233 0.02117,-0.656167 q 0.04233,-0.03175 0.09525,-0.01058 0.07408,0.03175 0.09525,0.03175 0.03175,0 0.0635,-0.05292 0.02117,-0.01058 0.05292,-0.01058 0.05292,0 0.116416,0.07408 0.0635,0.07408 0.09525,0.07408 0.04233,-0.04233 0.08467,-0.08467 0.04233,-0.03175 0.07408,-0.0635 0.04233,-0.03175 0.08467,-0.03175 0.03175,0 0.09525,0.01058 0.07408,0.01058 0.105833,0.01058 0.105834,0 0.169334,-0.0635 -0.05292,-0.127 -0.07408,-0.391584 l -0.02117,-0.423333 q -0.01058,-0.22225 0.03175,-0.359833 0.05292,-0.148167 0.105833,-0.211667 -0.137583,-0.07408 -0.137583,-0.296333 0,-0.169334 0.04233,-0.41275 0.01058,-0.05292 0.07408,-0.04233 l 0.105834,0.03175 q 0.04233,-0.03175 0.08467,-0.03175 0.0635,0 0.179917,0.07408 0.127,0.07408 0.179917,0.07408 0.08467,0 0.148166,-0.15875 0.04233,-0.01058 0.09525,-0.02117 0.05292,-0.01058 0.127,-0.03175 0.01058,0.04233 0,0.116417 0,0.0635 -0.01058,0.148167 -0.02117,0.211666 0.02117,0.275166 -0.01058,0.03175 -0.02117,0.09525 0,0.05292 -0.01058,0.105834 0,0.04233 -0.03175,0.08467 -0.02117,0.03175 -0.08467,0.01058 l -0.02117,-0.02117 q -0.0635,0.05292 -0.05292,0.148167 v 0.148166 q 0.127,-0.05292 0.179916,-0.05292 0.04233,0 0.07408,0.03175 -0.03175,0.433916 -0.0635,1.248833 0.01058,0.01058 0.179916,-0.01058 0.127,-0.02117 0.169334,0.04233 0.169333,-0.0635 0.3175,-0.0635 0.116416,0 0.201083,0.05292 l 1.121833,-0.127 0.116417,0.05292 q -0.02117,-0.0635 -0.02117,-0.07408 0,-0.05292 0.03175,-0.148167 0.04233,-0.09525 0.04233,-0.137583 0,-0.08467 -0.08467,-0.148167 -0.04233,-0.07408 -0.04233,-0.169333 0,-0.07408 0.04233,-0.22225 0.05292,-0.15875 0.05292,-0.232833 0,-0.05292 -0.02117,-0.116417 0.08467,-0.116417 0.08467,-0.169333 l -0.105833,-0.0635 q 0.03175,-0.0635 0.03175,-0.15875 0,-0.0635 -0.02117,-0.201084 -0.02117,-0.137583 -0.02117,-0.201083 0,-0.243417 0.275166,-0.275167 0.02117,0 0.05292,0.01058 0.04233,0.01058 0.0635,0.01058 -0.02117,0.0635 0.15875,0.127 0.0635,0.01058 0.201083,-0.03175 0.148167,-0.05292 0.201084,-0.05292 0.0635,0 0.09525,0.04233 -0.01058,0.0635 -0.02117,0.1905 0,0.127 0.01058,0.3175 0.01058,0.306916 -0.05292,0.497416 0,0.01058 0.02117,0.0635 0.02117,0.05292 0.01058,0.09525 -0.07408,0.05292 -0.169334,0.04233 0.01058,0.0635 0.105834,0.148166 0.09525,0.07408 0.116416,0.116417 -0.01058,0.338667 0.05292,0.740833 0.0635,0 0.148167,0.01058 0.09525,0 0.1905,0.01058 0.09525,0.01058 0.169333,0.02117 0.08467,0.01058 0.137583,0.01058 0.148167,0 0.232834,-0.04233 0.07408,0.04233 0.07408,0.148166 0,0.05292 -0.05292,0.201084 -0.04233,0.137583 -0.03175,0.211666 -0.02117,0.0635 0.03175,0.179917 0.0635,0.105833 0.0635,0.137583 0,0.04233 -0.01058,0.0635 z"
         style="stroke-width:0.26458332"
         id="path4054"
         inkscape:connector-curvature="0" />
    </g>
  </g>
</svg>
