<?xml version="1.0" encoding="UTF-8" standalone="no"?>
<!-- Created with Inkscape (http://www.inkscape.org/) -->

<svg
   xmlns:dc="http://purl.org/dc/elements/1.1/"
   xmlns:cc="http://creativecommons.org/ns#"
   xmlns:rdf="http://www.w3.org/1999/02/22-rdf-syntax-ns#"
   xmlns:svg="http://www.w3.org/2000/svg"
   xmlns="http://www.w3.org/2000/svg"
   xmlns:sodipodi="http://sodipodi.sourceforge.net/DTD/sodipodi-0.dtd"
   xmlns:inkscape="http://www.inkscape.org/namespaces/inkscape"
   width="30.1838mm"
   height="16.27454mm"
   viewBox="0 0 30.1838 16.27454"
   version="1.1"
   id="svg29547"
   inkscape:version="0.92.3 (2405546, 2018-03-11)"
   sodipodi:docname="rune_command.svg">
  <defs
     id="defs29541" />
  <sodipodi:namedview
     id="base"
     pagecolor="#ffffff"
     bordercolor="#666666"
     borderopacity="1.0"
     inkscape:pageopacity="0.0"
     inkscape:pageshadow="2"
     inkscape:zoom="0.35"
     inkscape:cx="171.32597"
     inkscape:cy="473.61217"
     inkscape:document-units="mm"
     inkscape:current-layer="layer1"
     showgrid="false"
     inkscape:window-width="1920"
     inkscape:window-height="1024"
     inkscape:window-x="-4"
     inkscape:window-y="-4"
     inkscape:window-maximized="1" />
  <metadata
     id="metadata29544">
    <rdf:RDF>
      <cc:Work
         rdf:about="">
        <dc:format>image/svg+xml</dc:format>
        <dc:type
           rdf:resource="http://purl.org/dc/dcmitype/StillImage" />
        <dc:title></dc:title>
      </cc:Work>
    </rdf:RDF>
  </metadata>
  <g
     inkscape:label="Layer 1"
     inkscape:groupmode="layer"
     id="layer1"
     transform="translate(71.032376,-257.86868)">
    <path
       style="opacity:1;fill:#000000;fill-opacity:1;stroke:none;stroke-width:2.06355786;stroke-miterlimit:4;stroke-dasharray:none;stroke-opacity:1"
       d="m -60.981816,257.8692 -0.94504,2.49171 0.118721,1.04983 -0.562314,0.11976 -1.616407,4.26185 -2.130137,0.18709 -2.460424,-0.18709 c -0.192958,0.32267 0.285509,0.85559 -1.124479,0 h -1.33048 l 0.09922,0.99788 -0.09922,1.63287 h 2.436458 l 1.262849,-0.18709 1.971993,0.18709 c 0.615087,-0.56624 0.436125,-0.21436 0.3761,0 l -0.526811,1.38883 -0.196382,1.52544 -1.443687,2.79828 2.821544,0.007 0.83075,-2.23121 c -0.08975,-0.3518 -0.836998,-0.91279 0.322808,-0.867 l 0.976078,-2.62154 c 1.00444,-0.0384 2.038333,-0.0581 3.082081,-0.066 0.253051,-0.002 0.490145,-0.33384 0.744075,-0.33445 0.987798,-0.002 0.756437,0.36818 1.736869,0.37827 2.002024,0.0206 5.194644,0.0221 6.957384,0.0221 l 1.14194,2.67369 0.63747,1.78158 0.56392,0.13272 -0.11125,1.13241 1.65386,-0.005 0.66764,-0.28376 -1.08673,-2.99892 -0.68256,-2.433 3.720741,-0.21047 2.326659,0.21047 -0.202581,-1.31419 0.132302,-1.28762 -0.95209,0.0585 -2.198811,-0.0874 -0.0526,0.38295 -0.137638,-0.2108 -0.803652,-0.17215 h -2.83043 l -0.8341,-2.1992 -0.64598,-0.38621 -0.23465,-2.01226 -1.29031,-3.32548 -0.76574,0.005 -0.21092,0.23686 c -0.0911,0.16606 -0.47493,0.0987 -0.56664,0.2656 -0.3241,0.58965 -0.65119,1.18314 -0.97643,1.77231 -0.064,0.11603 0.26076,0.52714 0.2992,0.64569 0.0746,0.23005 -0.72461,0.12445 -0.84059,0.33421 -0.60841,1.10045 -1.20055,2.16916 -1.743658,3.15091 -0.03989,0.0721 0.0028,0.22579 0.01283,0.39583 0.01013,0.17128 -0.01234,0.35896 -0.05142,0.42965 -0.07639,-0.13918 -0.351301,-0.67519 -0.427859,-0.81428 -0.453621,-0.82414 -0.910023,-1.64685 -1.366514,-2.46947 -0.07936,-0.14301 -0.263958,-0.15739 -0.343306,-0.3004 -0.08816,-0.1589 -0.07107,-0.44642 -0.15919,-0.60533 -0.560806,-1.01141 -1.120253,-2.02344 -1.673339,-3.03858 l -0.510659,0.20627 z m 0.92775,4.83386 0.528475,0.95568 c 0.912863,0.5875 0.853221,1.40654 1.179845,2.13361 h -1.020864 c -0.179012,0.50347 -0.426764,0.0446 -0.644922,0 h -1.201694 z m 8.227069,0 c 0.50904,1.15242 0.86761,2.15438 1.15914,3.08929 -0.26982,0.0466 -0.56706,0.0658 -0.8798,0.0695 -0.12224,10e-4 -0.25854,0.49162 -0.38481,0.48903 -0.0541,-0.001 -0.24681,0.14278 -0.29909,0.0392 -0.0708,-0.14033 -10e-4,-0.53947 -0.0761,-0.54251 -0.40729,-0.0165 -0.82398,-0.0423 -1.22765,-0.0552 0.48828,-1.06108 1.07797,-2.08303 1.70832,-3.08929 z"
       id="rect29318"
       inkscape:connector-curvature="0"
       sodipodi:nodetypes="ccccccccccccccccccccccssscccccccccccccccccccccccccsssssscssssccccccccccccssssccc" />
  </g>
</svg>
