<?xml version="1.0" encoding="UTF-8" standalone="no"?>
<!-- Created with Inkscape (http://www.inkscape.org/) -->

<svg
   xmlns:dc="http://purl.org/dc/elements/1.1/"
   xmlns:cc="http://creativecommons.org/ns#"
   xmlns:rdf="http://www.w3.org/1999/02/22-rdf-syntax-ns#"
   xmlns:svg="http://www.w3.org/2000/svg"
   xmlns="http://www.w3.org/2000/svg"
   xmlns:sodipodi="http://sodipodi.sourceforge.net/DTD/sodipodi-0.dtd"
   xmlns:inkscape="http://www.inkscape.org/namespaces/inkscape"
   width="20.660677mm"
   height="20.630409mm"
   viewBox="0 0 20.660677 20.630409"
   version="1.1"
   id="svg8626"
   inkscape:version="0.92.3 (2405546, 2018-03-11)"
   sodipodi:docname="rune_darkness.svg">
  <defs
     id="defs8620" />
  <sodipodi:namedview
     id="base"
     pagecolor="#ffffff"
     bordercolor="#666666"
     borderopacity="1.0"
     inkscape:pageopacity="0.0"
     inkscape:pageshadow="2"
     inkscape:zoom="0.35"
     inkscape:cx="-458.09906"
     inkscape:cy="38.986609"
     inkscape:document-units="mm"
     inkscape:current-layer="layer1"
     showgrid="false"
     inkscape:window-width="1920"
     inkscape:window-height="1024"
     inkscape:window-x="-4"
     inkscape:window-y="-4"
     inkscape:window-maximized="1" />
  <metadata
     id="metadata8623">
    <rdf:RDF>
      <cc:Work
         rdf:about="">
        <dc:format>image/svg+xml</dc:format>
        <dc:type
           rdf:resource="http://purl.org/dc/dcmitype/StillImage" />
        <dc:title></dc:title>
      </cc:Work>
    </rdf:RDF>
  </metadata>
  <g
     inkscape:label="Layer 1"
     inkscape:groupmode="layer"
     id="layer1"
     transform="translate(-95.502995,-138.51813)">
    <g
       aria-label="o"
       style="font-style:normal;font-variant:normal;font-weight:normal;font-stretch:normal;font-size:10.58333302px;line-height:1.25;font-family:'Glorantha Core Runes';-inkscape-font-specification:'Glorantha Core Runes';letter-spacing:0px;word-spacing:0px;fill:#000000;fill-opacity:1;stroke:none;stroke-width:0.26458332"
       id="text939"
       transform="matrix(2.858258,0,0,2.858258,-95.220973,104.40674)">
      <path
         d="m 73.955761,15.765491 -0.148167,0.254 0.09525,0.201084 q -0.03175,0.137583 -0.275166,0.15875 0,0.08467 0.05292,0.254 0.05292,0.15875 0.05292,0.243416 0,0.1905 -0.79375,1.2065 l -0.3175,-0.0635 0.07408,0.15875 q -0.09525,0.254 -0.486833,0.497417 -0.381,0.254 -0.645583,0.254 -0.08467,0 -0.22225,-0.0635 -0.137584,-0.0635 -0.169334,-0.127 -0.09525,0.105833 -0.296333,0.169333 -0.243417,0.08467 -0.3175,0.127 -0.127,-0.09525 -0.254,-0.148166 l -0.09525,0.04233 q -0.116417,0.22225 -0.34925,0.22225 -0.8255,0 -1.598083,-0.60325 -0.328084,-0.243417 -0.613833,-0.5715 -0.275167,-0.338667 -0.518584,-0.740833 0.03175,-0.04233 0.09525,-0.08467 0.07408,-0.04233 0.148167,-0.07408 0.08467,-0.04233 0.148167,-0.07408 0.07408,-0.04233 0.105833,-0.07408 -0.254,-0.148167 -0.423333,-0.105833 -0.211667,-0.07408 -0.1905,-0.254 -0.105834,-0.07408 -0.201084,-0.518584 -0.08467,-0.402166 -0.08467,-0.592666 0,-0.211667 0.15875,-0.306917 -0.05292,-0.179917 -0.03175,-0.338667 l 0.01058,-0.201083 q 0.07408,-0.0635 0.1905,-0.28575 0.116417,-0.232833 0.211667,-0.28575 0.15875,0.0635 0.296333,0.0635 0.08467,0 0.169333,-0.03175 -0.105833,-0.1905 -0.34925,-0.275167 0.01058,-0.232833 0.243417,-0.5715 0.211666,-0.3175 0.4445,-0.402166 0.381,-0.465667 0.635,-0.402167 0.08467,-0.179917 0.433916,-0.328083 0.34925,-0.15875 0.5715,-0.15875 0.328084,0 0.687917,0.179916 0.423333,0.22225 0.592667,0.264584 l 0.28575,-0.243417 0.127,0.04233 q 0.07408,-0.15875 0.116416,-0.15875 0.179917,0 1.090084,0.836084 1.016,0.941916 1.0795,1.49225 -0.05292,0.08467 -0.09525,0.179916 -0.03175,0.08467 -0.05292,0.179917 -0.179917,0.04233 -0.328083,0.127 l 0.127,0.02117 q 0.08467,0 0.465666,-0.116417 z"
         style="stroke-width:0.26458332"
         id="path4075"
         inkscape:connector-curvature="0" />
    </g>
  </g>
</svg>
