<?xml version="1.0" encoding="UTF-8" standalone="no"?>
<!-- Created with Inkscape (http://www.inkscape.org/) -->

<svg
   xmlns:dc="http://purl.org/dc/elements/1.1/"
   xmlns:cc="http://creativecommons.org/ns#"
   xmlns:rdf="http://www.w3.org/1999/02/22-rdf-syntax-ns#"
   xmlns:svg="http://www.w3.org/2000/svg"
   xmlns="http://www.w3.org/2000/svg"
   xmlns:sodipodi="http://sodipodi.sourceforge.net/DTD/sodipodi-0.dtd"
   xmlns:inkscape="http://www.inkscape.org/namespaces/inkscape"
   width="12.281474mm"
   height="20.660728mm"
   viewBox="0 0 12.281474 20.660728"
   version="1.1"
   id="svg2637"
   inkscape:version="0.92.3 (2405546, 2018-03-11)"
   sodipodi:docname="rune_disorder.svg">
  <defs
     id="defs2631" />
  <sodipodi:namedview
     id="base"
     pagecolor="#ffffff"
     bordercolor="#666666"
     borderopacity="1.0"
     inkscape:pageopacity="0.0"
     inkscape:pageshadow="2"
     inkscape:zoom="0.35"
     inkscape:cx="-602.50523"
     inkscape:cy="-463.81324"
     inkscape:document-units="mm"
     inkscape:current-layer="layer1"
     showgrid="false"
     inkscape:window-width="1920"
     inkscape:window-height="1024"
     inkscape:window-x="-4"
     inkscape:window-y="-4"
     inkscape:window-maximized="1"
     fit-margin-top="0"
     fit-margin-left="0"
     fit-margin-right="0"
     fit-margin-bottom="0" />
  <metadata
     id="metadata2634">
    <rdf:RDF>
      <cc:Work
         rdf:about="">
        <dc:format>image/svg+xml</dc:format>
        <dc:type
           rdf:resource="http://purl.org/dc/dcmitype/StillImage" />
        <dc:title></dc:title>
      </cc:Work>
    </rdf:RDF>
  </metadata>
  <g
     inkscape:label="Layer 1"
     inkscape:groupmode="layer"
     id="layer1"
     transform="translate(-2.1747462,-5.4553501)">
    <g
       aria-label="j"
       style="font-style:normal;font-variant:normal;font-weight:normal;font-stretch:normal;font-size:10.58333302px;line-height:1.25;font-family:'Glorantha Core Runes';-inkscape-font-specification:'Glorantha Core Runes';letter-spacing:0px;word-spacing:0px;fill:#000000;fill-opacity:1;stroke:none;stroke-width:0.26458332"
       id="text971"
       transform="matrix(2.858258,0,0,2.858258,-205.89055,-59.655447)">
      <path
         d="m 77.070121,23.944073 q -0.22225,0 -0.47625,-0.08467 l -0.127,0.116416 q -0.105833,0.02117 -0.656166,0.28575 l -0.05292,0.148167 q 0.05292,0.07408 0.105833,0.1905 0.05292,0.105833 0.105834,0.264583 h 0.03175 q 0.254,0.66675 0.254,0.867834 0,0.137583 -0.03175,0.275166 0.09525,0.243417 0.09525,0.550334 0,0.455083 -0.0635,0.8255 -0.0635,0.370416 -0.211667,0.645583 l -0.28575,0.529167 0.05292,0.137583 q 0.211666,0.08467 0.433916,0.148166 0.22225,0.0635 0.465667,0.08467 0.275167,0.03175 0.306917,0.381 0.02117,0.148167 0.01058,0.28575 0,0.137583 0,0.28575 l -0.08467,0.127 q -0.137583,-0.02117 -0.402166,-0.09525 -0.28575,-0.08467 -0.433917,-0.08467 l -0.127,-0.15875 q -0.105833,0.07408 -0.275167,0.07408 l -0.15875,-0.02117 -0.709083,-0.41275 q -0.433917,0.3175 -0.85725,0.4445 -0.08467,0.02117 -0.328083,0.07408 -0.232833,0.05292 -0.613833,0.137584 -0.169334,-0.07408 -0.137584,-0.370417 0.01058,-0.05292 0.01058,-0.09525 0,-0.04233 0,-0.07408 0,-0.03175 -0.05292,-0.169334 l -0.0635,-0.15875 0.02117,-0.127 q 0.0635,0 0.179916,0.01058 0.116417,0.01058 0.179917,0.01058 0.116417,0 0.3175,-0.08467 l 0.232833,0.105834 q 0.09525,-0.201084 0.359834,-0.359834 0.03175,-0.01058 0.169333,-0.09525 -0.07408,-0.116417 -0.15875,-0.28575 -0.07408,-0.169334 -0.179917,-0.402167 l -0.116416,-0.07408 q -0.07408,-0.15875 -0.116417,-0.47625 -0.04233,-0.328084 -0.127,-0.486834 l 0.15875,-0.28575 -0.22225,-0.09525 q 0,-0.433916 0.105833,-0.79375 0.137584,-0.550333 0.433917,-0.486833 l -0.201083,-0.275167 0.370416,-0.719666 q -0.370416,-0.137584 -0.4445,-0.34925 -0.22225,0.07408 -0.402166,0.07408 -0.0635,0 -0.15875,-0.01058 -0.08467,-0.02117 -0.201084,-0.04233 -0.0635,-0.232833 -0.0635,-0.6985 0,-0.137583 0.03175,-0.296333 0.243417,-0.05292 0.423334,-0.05292 0.486833,0 0.793749,0.275167 0.211667,0 0.836084,0.370417 0.07408,-0.04233 0.518583,-0.328084 l 0.169333,0.08467 0.105834,-0.211667 0.465666,-0.127 q 0.3175,-0.08467 0.486834,-0.08467 0.15875,0 0.306916,0.0635 l 0.02117,0.719666 q 0,0.105834 0,0.201084 0,0.09525 -0.02117,0.179916 z m -1.957916,1.449917 q 0,-0.07408 -0.211667,-0.338667 -0.306917,0.560917 -0.306917,1.0795 0,0.05292 -0.05292,0.15875 -0.04233,0.105834 -0.04233,0.15875 0,0.899584 0.41275,1.471084 0.07408,-0.116417 0.179917,-0.296334 0.105833,-0.1905 0.243417,-0.433916 -0.02117,-0.105834 -0.02117,-0.169334 0,-0.08467 0.03175,-0.254 0.04233,-0.169333 0.04233,-0.254 0,-0.814916 -0.275166,-1.121833 z"
         style="stroke-width:0.26458332"
         id="path4051"
         inkscape:connector-curvature="0" />
    </g>
  </g>
</svg>
