<?xml version="1.0" encoding="UTF-8" standalone="no"?>
<!-- Created with Inkscape (http://www.inkscape.org/) -->

<svg
   xmlns:dc="http://purl.org/dc/elements/1.1/"
   xmlns:cc="http://creativecommons.org/ns#"
   xmlns:rdf="http://www.w3.org/1999/02/22-rdf-syntax-ns#"
   xmlns:svg="http://www.w3.org/2000/svg"
   xmlns="http://www.w3.org/2000/svg"
   xmlns:sodipodi="http://sodipodi.sourceforge.net/DTD/sodipodi-0.dtd"
   xmlns:inkscape="http://www.inkscape.org/namespaces/inkscape"
   width="20.665705mm"
   height="17.973478mm"
   viewBox="0 0 20.665705 17.973478"
   version="1.1"
   id="svg20577"
   inkscape:version="0.92.3 (2405546, 2018-03-11)"
   sodipodi:docname="rune_dragonewt.svg">
  <defs
     id="defs20571" />
  <sodipodi:namedview
     id="base"
     pagecolor="#ffffff"
     bordercolor="#666666"
     borderopacity="1.0"
     inkscape:pageopacity="0.0"
     inkscape:pageshadow="2"
     inkscape:zoom="0.35"
     inkscape:cx="-1158.0896"
     inkscape:cy="222.53706"
     inkscape:document-units="mm"
     inkscape:current-layer="layer1"
     showgrid="false"
     inkscape:window-width="1920"
     inkscape:window-height="1024"
     inkscape:window-x="-4"
     inkscape:window-y="-4"
     inkscape:window-maximized="1" />
  <metadata
     id="metadata20574">
    <rdf:RDF>
      <cc:Work
         rdf:about="">
        <dc:format>image/svg+xml</dc:format>
        <dc:type
           rdf:resource="http://purl.org/dc/dcmitype/StillImage" />
        <dc:title></dc:title>
      </cc:Work>
    </rdf:RDF>
  </metadata>
  <g
     inkscape:label="Layer 1"
     inkscape:groupmode="layer"
     id="layer1"
     transform="translate(-280.70882,-189.73945)">
    <g
       aria-label="A"
       style="font-style:normal;font-variant:normal;font-weight:normal;font-stretch:normal;font-size:10.58333302px;line-height:1.25;font-family:'Glorantha Core Runes';-inkscape-font-specification:'Glorantha Core Runes';letter-spacing:0px;word-spacing:0px;fill:#000000;fill-opacity:1;stroke:none;stroke-width:0.26458332"
       id="text1333"
       transform="matrix(2.858258,0,0,2.858258,266.80252,4.5563312)">
      <path
         d="m 12.093726,67.826228 q 0,0.116417 -0.127,0.116417 -0.169333,0.02117 -0.1905,0.05292 -0.04233,-0.04233 -0.15875,-0.04233 -0.04233,0 -0.137583,0.02117 -0.09525,0.02117 -0.137583,0.02117 -0.15875,0 -0.201084,-0.15875 -0.105833,0.201084 -0.41275,0.169334 -0.381,-0.04233 -0.47625,0 0.04233,0.04233 0.1905,0.306916 0.148167,0.275167 0.137584,0.402167 0.137583,0.116417 0.28575,0.41275 0.15875,0.338666 0.254,0.4445 -0.03175,0.4445 0.529166,0.889 0.169334,0.296333 0.169334,0.391583 0,0.0635 -0.03175,0.105833 -0.08467,0.01058 -0.22225,0.04233 -0.127,0.02117 -0.306917,0.07408 -0.338667,-0.01058 -0.41275,-0.03175 -0.243417,-0.05292 -0.370417,-0.15875 -0.08467,0.179917 -0.296333,0.179917 -0.04233,0 -0.08467,0 -0.03175,-0.01058 -0.08467,-0.02117 -0.021167,0.01058 -0.0635,0.01058 0.010583,0 -0.010583,0.01058 -0.021167,0 -0.074083,0.01058 -0.042333,0.01058 -0.09525,-0.04233 -0.1164166,-0.116417 -0.1375833,-0.116417 -0.0635,0 -0.1058333,0.03175 -0.084667,0.08467 -0.3280834,0.08467 -0.052917,0 -0.1375833,-0.05292 -0.010583,-0.07408 -0.084667,-0.07408 -0.042333,0 -0.1375833,0.0635 -0.03175,0.0635 -0.1058333,0.03175 l -0.1164167,-0.02117 q -0.042333,-0.04233 -0.1375833,-0.04233 -0.0635,0 -0.2010833,0.04233 -0.127,0.04233 -0.1905,0.04233 -0.03175,0 -0.09525,-0.02117 -0.762,0.03175 -1.397,0.03175 -0.47625,0 -0.889,-0.01058 -0.4127499,-0.02117 -0.7514166,-0.04233 -0.042333,-0.04233 -0.042333,-0.116417 0,-0.08467 0.34925,-0.624416 0.1375833,-0.211667 0.2434166,-0.41275 0.1164167,-0.201084 0.2010833,-0.402167 0.1164167,0.02117 0.2963334,-0.0635 -0.042333,-0.09525 -0.042333,-0.243416 0,-0.137584 0.052917,-0.296334 0.052917,-0.15875 0.1905,-0.338666 l 0.3915833,-0.508 q -0.1905,0.01058 -0.5503333,-0.0635 -0.1164167,0.08467 -0.28575,0.08467 -0.09525,0 -0.2751666,-0.03175 -0.1693334,-0.03175 -0.254,-0.03175 -0.1799167,0 -0.28575,0.08467 -0.074083,-0.08467 -0.074083,-0.201083 0,-0.01058 0.010583,-0.08467 0.021167,-0.07408 0.042333,-0.22225 0.042333,-0.169333 -0.021167,-0.28575 l 0.010583,-0.1905 q 0.5820833,-0.02117 1.3123333,0.169333 0.074083,-0.1905 0.2963333,-0.1905 0.074083,0 0.3175,0.04233 0.2645833,0.02117 0.28575,0.01058 0.074083,-0.232833 0.2328333,-0.370417 0.15875,-0.137583 0.1481667,-0.306916 0.021167,-0.0635 0.1481666,-0.137584 0.1481667,-0.08467 0.1481667,-0.105833 0,-0.05292 -0.0635,-0.116417 0.010583,-0.116416 0.22225,-0.423333 0.2010833,-0.296333 0.1905,-0.4445 0.021167,-0.07408 0.084667,-0.15875 0.074083,-0.09525 0.1799167,-0.211667 0.1799167,0.03175 0.2751667,0.243417 l 0.1481666,0.338667 q -0.021167,0.08467 0.1058333,0.243416 0.1375834,0.15875 0.127,0.232834 0.1058334,0.0635 0.1058334,0.15875 0,0.05292 -0.021167,0.148166 -0.021167,0.08467 -0.021167,0.137584 0,0.116416 0.2010834,0.105833 0.03175,0.03175 0.28575,0.613833 0.0635,0.05292 0.4127501,0.0635 0.359834,0.02117 0.433917,0.116417 l 0.3175,-0.09525 q 0.105833,0 0.169333,0.08467 0.148167,-0.137584 0.370417,-0.137584 0.07408,0 0.211667,0.02117 0.137583,0.01058 0.201083,0.01058 0.148167,0 0.243417,-0.04233 0.09525,0.0635 0.09525,0.201083 0,0.07408 -0.05292,0.232834 -0.02117,0.02117 -0.02117,0.08467 0,0.05292 0.05292,0.1905 0.05292,0.04233 0.04233,0.08467 z M 8.717643,66.979561 q -0.074083,-0.05292 -0.15875,-0.243416 -0.074083,-0.1905 -0.1481667,-0.243417 -0.1164167,0.148167 -0.1905,0.508 0.021167,0.04233 0.052917,0.08467 0.052917,0.07408 0.1058333,0.05292 0.010583,-0.03175 0.0635,-0.04233 0.052917,-0.02117 0.1058333,-0.03175 0.0635,-0.02117 0.1058334,-0.03175 0.052917,-0.02117 0.0635,-0.05292 z m 1.735667,3.14325 q -0.359834,-0.656167 -0.6455837,-0.941916 -0.042333,-0.137584 -0.042333,-0.232834 0,-0.05292 0.021167,-0.07408 0.084667,-0.02117 0.084667,-0.211667 -0.084667,0.03175 -0.1164167,0.03175 -0.1481667,0 -0.254,-0.254 -0.09525,-0.15875 -0.2116667,-0.243416 0.021167,-0.148167 -0.0635,-0.179917 -0.010583,-0.01058 -0.1905,0.01058 -0.1799166,0.02117 -0.4021666,-0.1905 Q 8.527143,67.730978 8.400143,67.741561 l 0.1058333,0.148167 q -0.0635,0.127 -0.22225,0.127 -0.0635,0 -0.1905,-0.02117 -0.127,-0.03175 -0.1905,-0.03175 -0.0635,0 -0.09525,0.01058 -0.2751666,0.275166 -0.5715,0.899583 -0.03175,0.08467 -0.22225,0.15875 -0.2010833,0.08467 -0.2116666,0.15875 0.021167,0.0635 0.021167,0.116417 0,0.116416 -0.2010833,0.380999 -0.1905,0.254 -0.2116666,0.370417 0.1164166,0.01058 0.2645833,0.02117 0.15875,0.01058 0.3386666,0.03175 0.09525,0.01058 0.1799167,0.0635 0.042333,0.169333 0.1375833,0.169333 0.010583,0 0.1905,-0.127 0.1799167,-0.127 0.2645833,-0.09525 0.084667,0.02117 0.127,0.02117 0.03175,0 0.1058334,-0.01058 0.074083,-0.01058 0.1481666,-0.02117 0.084667,-0.02117 0.15875,-0.03175 0.074083,-0.01058 0.127,-0.01058 0.1164167,0.05292 0.3704167,0.0635 0.28575,0 0.3915833,0.07408 0.052917,0.116416 0.127,0.116416 0.052917,0 0.1375833,-0.02117 0.084667,-0.03175 0.1375834,-0.03175 0.084667,0 0.1375833,0.09525 0.084667,-0.15875 0.306916,-0.1905 z"
         style="stroke-width:0.26458332"
         id="path4000"
         inkscape:connector-curvature="0" />
    </g>
  </g>
</svg>
