<?xml version="1.0" encoding="UTF-8" standalone="no"?>
<!-- Created with Inkscape (http://www.inkscape.org/) -->

<svg
   xmlns:dc="http://purl.org/dc/elements/1.1/"
   xmlns:cc="http://creativecommons.org/ns#"
   xmlns:rdf="http://www.w3.org/1999/02/22-rdf-syntax-ns#"
   xmlns:svg="http://www.w3.org/2000/svg"
   xmlns="http://www.w3.org/2000/svg"
   xmlns:sodipodi="http://sodipodi.sourceforge.net/DTD/sodipodi-0.dtd"
   xmlns:inkscape="http://www.inkscape.org/namespaces/inkscape"
   width="19.96493mm"
   height="20.267435mm"
   viewBox="0 0 19.96493 20.267435"
   version="1.1"
   id="svg10333"
   inkscape:version="0.92.3 (2405546, 2018-03-11)"
   sodipodi:docname="rune_dragon.svg">
  <defs
     id="defs10327" />
  <sodipodi:namedview
     id="base"
     pagecolor="#ffffff"
     bordercolor="#666666"
     borderopacity="1.0"
     inkscape:pageopacity="0.0"
     inkscape:pageshadow="2"
     inkscape:zoom="0.35"
     inkscape:cx="-459.41386"
     inkscape:cy="38.300665"
     inkscape:document-units="mm"
     inkscape:current-layer="layer1"
     showgrid="false"
     inkscape:window-width="1920"
     inkscape:window-height="1024"
     inkscape:window-x="-4"
     inkscape:window-y="-4"
     inkscape:window-maximized="1" />
  <metadata
     id="metadata10330">
    <rdf:RDF>
      <cc:Work
         rdf:about="">
        <dc:format>image/svg+xml</dc:format>
        <dc:type
           rdf:resource="http://purl.org/dc/dcmitype/StillImage" />
        <dc:title></dc:title>
      </cc:Work>
    </rdf:RDF>
  </metadata>
  <g
     inkscape:label="Layer 1"
     inkscape:groupmode="layer"
     id="layer1"
     transform="translate(-95.850868,-138.69962)">
    <g
       aria-label="d"
       style="font-style:normal;font-variant:normal;font-weight:normal;font-stretch:normal;font-size:10.58333302px;line-height:1.25;font-family:'Glorantha Core Runes';-inkscape-font-specification:'Glorantha Core Runes';letter-spacing:0px;word-spacing:0px;fill:#000000;fill-opacity:1;stroke:none;stroke-width:0.26458332"
       id="text955"
       transform="matrix(2.858258,0,0,2.858258,15.654054,73.034779)">
      <path
         d="m 35.042925,26.540308 c -0.04233,0.119945 -0.112889,0.225778 -0.211666,0.3175 -0.134056,0.112889 -0.285751,0.250472 -0.455084,0.41275 -0.162277,0.162278 -0.345722,0.356306 -0.550333,0.582083 -0.02822,-0.09172 -0.0635,-0.137583 -0.105833,-0.137583 -0.02822,0 -0.06703,0.03175 -0.116417,0.09525 -0.04233,0.0635 -0.0635,0.105833 -0.0635,0.127 0,0.0635 0.08819,0.15875 0.264583,0.28575 0.04939,0.03528 0.09172,0.07409 0.127,0.116417 0.04233,0.03528 0.08114,0.07056 0.116417,0.105833 0.01411,0.02822 0.03175,0.05644 0.05292,0.08467 0.02117,0.02117 0.04233,0.04586 0.0635,0.07408 0.366889,0.366889 0.550333,0.610305 0.550333,0.73025 0,0.03528 -0.03175,0.06703 -0.09525,0.09525 -0.0635,0.02822 -0.102306,0.05997 -0.116417,0.09525 -0.07761,0.148167 -0.165805,0.22225 -0.264583,0.22225 -0.04939,0 -0.08466,-0.01058 -0.105833,-0.03175 l -0.47625,-0.53975 c -0.119945,-0.09172 -0.3175,-0.278694 -0.592667,-0.560917 l -0.306916,0.370417 c -0.09172,0.07761 -0.204612,0.179917 -0.338667,0.306917 -0.127,0.119944 -0.278694,0.264583 -0.455083,0.433916 -0.127,0.162278 -0.22225,0.268111 -0.28575,0.3175 -0.01411,0.01411 -0.07056,0.02117 -0.169334,0.02117 h -0.148166 c -0.07056,-0.05645 -0.151695,-0.123474 -0.243417,-0.201083 -0.09172,-0.08467 -0.194028,-0.183445 -0.306917,-0.296334 -0.275167,-0.275167 -0.409222,-0.458611 -0.402166,-0.550333 -0.04939,0.0071 -0.134053,-0.04939 -0.254,-0.169333 l -0.306917,-0.306917 c -0.09878,0.105833 -0.215195,0.239889 -0.34925,0.402167 -0.134055,0.155222 -0.289278,0.342194 -0.465667,0.560916 -0.01411,0.02822 -0.09525,0.102303 -0.243416,0.22225 -0.0071,0.0071 -0.02822,-0.0035 -0.0635,-0.03175 -0.02822,-0.03528 -0.04939,-0.05292 -0.0635,-0.05292 -0.105833,0 -0.172861,-0.03528 -0.201084,-0.105834 l -0.148166,-0.1905 c -0.04939,-0.07055 -0.06703,-0.119944 -0.05292,-0.148166 0.03528,-0.05645 0.09172,-0.127002 0.169333,-0.211667 0.07761,-0.09172 0.176389,-0.201083 0.296334,-0.328083 0.0635,-0.07056 0.141111,-0.158751 0.232833,-0.264584 0.09172,-0.105833 0.208139,-0.229305 0.34925,-0.370416 -0.08467,-0.09878 -0.127,-0.162278 -0.127,-0.1905 0,-0.03528 -0.03175,-0.05997 -0.09525,-0.07408 -0.07056,-0.04939 -0.155222,-0.12347 -0.254,-0.22225 -0.09878,-0.09878 -0.211667,-0.229305 -0.338667,-0.391583 -0.143348,-0.172017 -0.223098,-0.286911 -0.241328,-0.330878 0.08402,-0.01436 -0.01602,-0.233532 -0.01602,-0.233532 0,0 -0.06143,0.101928 -0.09511,0.07226 -0.05082,-0.04477 -0.06253,-0.09406 -0.07685,-0.103605 l -0.0046,-0.04983 0.34925,-0.455084 c 0.373997,-0.409694 0.467144,-0.114195 0.643533,-0.283528 0.03336,-0.03336 -0.267091,-0.10097 -0.136354,-0.223273 0.161681,-0.15125 0.344339,-0.339854 0.561737,-0.551532 L 28.798767,24.307226 C 28.572989,24.159059 28.3966,23.972087 28.2696,23.746309 c 0.0635,-0.04233 0.09525,-0.07761 0.09525,-0.105833 0,-0.07761 0.03528,-0.155222 0.105834,-0.232833 0.07761,-0.07761 0.151694,-0.116417 0.22225,-0.116417 0.04233,0 0.08819,0.01411 0.137583,0.04233 0,0 0.738573,0.732916 1.171303,1.167879 0.109372,0.109937 0.111251,0.325614 0.164684,0.380839 0.143645,-0.06436 -0.09876,-0.411647 0.06102,-0.596218 0.03825,-0.04241 0.07409,-0.07056 0.116417,-0.105833 0.04233,-0.04233 0.08467,-0.08819 0.127,-0.137583 0.296333,-0.381 0.613833,-0.712611 0.9525,-0.994834 0.04939,-0.04939 0.130525,-0.07408 0.243416,-0.07408 0.01411,0 0.239891,0.229306 0.677334,0.687917 0,0.09878 0.01411,0.172861 0.04233,0.22225 0.02822,0.0071 0.05644,-0.0035 0.08467,-0.03175 l 0.359833,0.328083 c 0.09172,0.03528 0.155222,0.09525 0.1905,0.179917 l 1.09008,-1.026584 c 0.01411,0 0.03528,-0.0071 0.0635,-0.02117 0.03528,-0.01411 0.05645,-0.02117 0.0635,-0.02117 0.0635,0 0.134056,0.04233 0.211667,0.127 0.08467,0.07761 0.127,0.148167 0.127,0.211667 0,0.155222 -0.0635,0.321027 -0.1905,0.497416 -0.07056,0.105833 -0.151695,0.162278 -0.243417,0.169334 l -0.60325,0.624416 c 0.03528,0.05645 0.09172,0.09878 0.169333,0.127 0.02117,0.0071 0.03175,0.05291 0.03175,0.137584 0,0.07761 0.01411,0.126999 0.04233,0.148166 0.05645,-0.01411 0.0882,-0.03175 0.09525,-0.05292 l 0.3175,0.285749 c 0.04939,0.04939 0.144637,0.15522 0.28575,0.3175 0.141111,0.155223 0.328083,0.373945 0.560916,0.656167 z m -1.788583,-0.709083 c -0.04233,0.01411 -0.05644,0.02117 -0.04233,0.02117 -0.02117,-0.02822 -0.03175,-0.08466 -0.03175,-0.169333 -0.0635,-0.0635 -0.119944,-0.09525 -0.169333,-0.09525 h -0.04233 c -0.0071,0.0071 -0.01411,0.01058 -0.02117,0.01058 h -0.01058 l -0.02117,-0.01058 c 0,0 -0.258959,0.276901 -0.486166,0.469904 -0.08974,0.03559 -0.184921,-0.0251 -0.314652,-0.03899 -0.02761,0.117093 -0.145711,0.09441 -0.246844,0.145907 0.162019,0.06252 0.222801,0.104891 0.224035,0.20643 -0.05974,0.083 -0.15004,0.158668 -0.15004,0.158668 0.127,0.07761 0.278694,0.211666 0.455083,0.402166 l 0.624417,0.656167 c 0.155222,-0.141111 0.313972,-0.292806 0.47625,-0.455083 0.169333,-0.162278 0.345722,-0.338667 0.529166,-0.529167 z m -0.687916,-0.783167 -0.963084,-0.92075 -0.211666,0.15875 c -0.04233,0.03528 -0.09525,0.0882 -0.15875,0.15875 -0.0635,0.07056 -0.141111,0.172862 -0.232834,0.306917 -0.01411,0 -0.03528,-0.01411 -0.0635,-0.04233 -0.02822,-0.03528 -0.05291,-0.05292 -0.07408,-0.05292 -0.02822,0.04939 -0.0635,0.105831 -0.105833,0.169333 -0.04233,0.0635 -0.09878,0.137583 -0.169334,0.22225 l 0.994834,1.005417 z m -2.159,0.751417 c -0.07761,-0.09172 -0.183445,-0.197556 -0.3175,-0.3175 -0.02585,0.137 -0.109889,0.226028 -0.190503,0.296333 -0.01411,0.02822 -0.07207,-0.138288 -0.07408,0.02117 -0.0071,0.01411 -0.09959,0.11596 -0.270369,0.267934 0,0 -0.176239,0.07707 -0.249556,0.08033 -0.0039,0.04231 0.0188,0.02459 0.03309,0.106821 -0.07055,0.04939 -0.105833,0.08114 -0.105833,0.09525 -0.02117,0.04233 -0.07056,0.105833 -0.148167,0.1905 0,0 0.245117,0.180046 0.246219,0.266737 0.0011,0.08669 -0.103647,0.118174 -0.103647,0.118174 0.02222,0.069 0.156477,-0.0036 0.270605,0.0627 0.114129,0.06634 0.348823,0.377891 0.348823,0.377891 0.02822,-0.01411 -0.06629,0.128359 -0.03806,0.100139 0,0.05645 0.147422,-0.03311 0.196809,0.05861 0.112889,-0.09172 0.236361,-0.204611 0.370417,-0.338667 0.02822,-0.07056 0.116414,-0.179916 0.264583,-0.328083 l 0.243417,-0.243417 c 0.07056,-0.07055 0.130527,-0.123472 0.179916,-0.15875 z m 2.074333,2.201333 -1.026583,-1.037167 -0.994834,1.037167 0.423334,0.3175 c -0.02822,0.09172 -0.04233,0.123472 -0.04233,0.09525 0,0.08467 0.07056,0.186972 0.211667,0.306917 l 0.359833,0.3175 0.4445,-0.41275 0.418731,0.05582 -0.220913,-0.25364 z"
         style="stroke-width:0.26458332"
         id="path4063"
         inkscape:connector-curvature="0"
         sodipodi:nodetypes="ccccscscccccsscscccccccsccscccccccscccccscscccccsccccscccscscscccccscccccccscsccccscccccccccscscccccccccccccccccccccccccccccccczczcccccsccccccccccccc" />
    </g>
  </g>
</svg>
