<?xml version="1.0" encoding="UTF-8" standalone="no"?>
<!-- Created with Inkscape (http://www.inkscape.org/) -->

<svg
   xmlns:dc="http://purl.org/dc/elements/1.1/"
   xmlns:cc="http://creativecommons.org/ns#"
   xmlns:rdf="http://www.w3.org/1999/02/22-rdf-syntax-ns#"
   xmlns:svg="http://www.w3.org/2000/svg"
   xmlns="http://www.w3.org/2000/svg"
   xmlns:sodipodi="http://sodipodi.sourceforge.net/DTD/sodipodi-0.dtd"
   xmlns:inkscape="http://www.inkscape.org/namespaces/inkscape"
   width="16.481421mm"
   height="15.366947mm"
   viewBox="0 0 16.481421 15.366947"
   version="1.1"
   id="svg23432"
   inkscape:version="0.92.3 (2405546, 2018-03-11)"
   sodipodi:docname="rune_fate.svg">
  <defs
     id="defs23426" />
  <sodipodi:namedview
     id="base"
     pagecolor="#ffffff"
     bordercolor="#666666"
     borderopacity="1.0"
     inkscape:pageopacity="0.0"
     inkscape:pageshadow="2"
     inkscape:zoom="0.35"
     inkscape:cx="-465.99686"
     inkscape:cy="29.039899"
     inkscape:document-units="mm"
     inkscape:current-layer="layer1"
     showgrid="false"
     inkscape:window-width="1920"
     inkscape:window-height="1024"
     inkscape:window-x="-4"
     inkscape:window-y="-4"
     inkscape:window-maximized="1" />
  <metadata
     id="metadata23429">
    <rdf:RDF>
      <cc:Work
         rdf:about="">
        <dc:format>image/svg+xml</dc:format>
        <dc:type
           rdf:resource="http://purl.org/dc/dcmitype/StillImage" />
        <dc:title></dc:title>
      </cc:Work>
    </rdf:RDF>
  </metadata>
  <g
     inkscape:label="Layer 1"
     inkscape:groupmode="layer"
     id="layer1"
     transform="translate(-97.592623,-141.14986)">
    <g
       aria-label="X"
       style="font-style:normal;font-variant:normal;font-weight:normal;font-stretch:normal;font-size:10.58333302px;line-height:1.25;font-family:'Glorantha Core Runes';-inkscape-font-specification:'Glorantha Core Runes';letter-spacing:0px;word-spacing:0px;fill:#000000;fill-opacity:1;stroke:none;stroke-width:0.26458332"
       id="text1441"
       transform="matrix(2.858258,0,0,2.858258,81.765445,-88.76639)">
      <path
         d="m 10.807851,83.529625 q -0.03175,0 -0.60325,-0.148167 -0.07408,0.05292 -0.148167,0.105834 -0.0635,0.04233 -0.137583,0.0635 L 9.5801843,83.497875 H 9.252101 l 0.4974166,0.433917 q 0.084667,0.0635 0.127,0.148166 0.052917,0.08467 0.1058334,0.169333 l -0.042333,0.08467 0.084666,0.211667 q 0.07408,-0.07408 0.137584,-0.116417 0.254,0.3175 0.47625,0.635 0.01058,0.127 -0.359834,0.402167 -0.3069164,0.232833 -0.550333,0.328083 -0.084667,-0.22225 -0.3598334,-0.582083 -0.1375833,-0.179917 -0.2328333,-0.3175 -0.084667,-0.148167 -0.127,-0.243417 0.010583,-0.07408 -0.09525,-0.137583 l -0.03175,-0.02117 q -0.03175,-0.01058 -0.03175,-0.05292 -0.09525,-0.04233 -0.28575,-0.22225 -0.010583,-0.05292 -0.042333,-0.127 -0.021167,-0.08467 -0.0635,-0.190499 -0.074083,0.05292 -0.1693333,0.179916 -0.042333,0.07408 -0.09525,0.137583 -0.042333,0.0635 -0.09525,0.09525 -0.1164167,-0.01058 -0.22225,0.0635 l -0.052917,0.243417 q 0,-0.02117 -0.021167,0.05292 -0.010583,0.07408 -0.03175,0.22225 -0.1799167,0.09525 -0.34925,0.455083 -0.15875,0.359833 -0.2963334,0.465667 -0.1481666,-0.07408 -0.34925,-0.243417 -0.1904999,-0.169333 -0.4550833,-0.433917 0.084667,-0.137583 0.2328334,-0.338666 0.1481666,-0.201084 0.3598333,-0.465667 l 0.1693333,0.0635 q 0.074083,-0.201083 0.03175,-0.381 0.010583,-0.04233 0.09525,-0.137583 0.052917,-0.05292 0.1164167,-0.127 0.074083,-0.08467 0.15875,-0.1905 l -0.28575,-0.04233 -0.1693334,0.0635 q -0.15875,0.05292 -0.28575,0.01058 -0.021167,-0.05292 -0.09525,-0.05292 h -0.010583 q -0.1375833,0 -0.1693333,0.02117 -0.03175,0.01058 -0.09525,0.0635 -0.15875,-0.03175 -0.6138333,0.0635 l -0.09525,-0.04233 q -0.127,-0.41275 -0.127,-0.645584 0,-0.137583 0.052917,-0.264583 0.074083,0.01058 0.4339167,0 0.2434167,-0.01058 0.4550833,0.02117 l 0.084667,0.07408 0.1799166,-0.137583 q -0.010583,0 0.15875,0.01058 0.1693334,0.01058 0.5291667,0.03175 0,-0.04233 -0.042333,-0.09525 -0.03175,-0.0635 -0.084667,-0.116417 -0.042333,-0.05292 -0.084667,-0.09525 -0.03175,-0.04233 -0.03175,-0.0635 -0.2116666,-0.09525 -0.22225,-0.328083 l -0.03175,-0.03175 q 0.0635,-0.15875 0.010583,-0.433917 -0.1905,0.148167 -0.2751667,0.1905 Q 6.426351,81.539958 6.235851,81.243625 l 0.3704166,-0.41275 q 0.254,-0.232833 0.4550833,-0.306917 0.1481667,0.08467 0.2751667,0.0635 l 0.4974166,0.656167 q 0.084667,0.15875 0.2328334,0.381 0.1481666,0.22225 0.3598333,0.508 0.084667,-0.169333 0.2116667,-0.391583 0.127,-0.232834 0.3069166,-0.518584 0.1481667,-0.232833 0.2434167,-0.391583 0.09525,-0.169333 0.1164166,-0.28575 l 0.1164167,-0.105833 q 0.34925,0.15875 0.508,0.254 0.2328338,0.148166 0.4444998,0.34925 l -0.4021665,0.518583 -0.010583,-0.01058 q -0.1058333,-0.07408 -0.3069167,-0.0635 0.09525,0.08467 0.127,0.137583 0.042333,0.04233 0.052917,0.08467 0.021167,0.03175 0.021167,0.07408 0,0.03175 0,0.09525 l -0.2434167,0.28575 q -0.052917,0.05292 -0.09525,0.105833 -0.042333,0.05292 -0.084667,0.105834 -0.1164166,0.148166 -0.1164166,0.264583 0.4021666,-0.09525 0.7937505,-0.04233 0.127,-0.05292 0.201083,-0.04233 l 0.1905,0.148167 q 0.08467,-0.137583 0.201084,-0.179917 0.169333,0.03175 0.359833,-0.04233 l 0.116417,0.04233 q 0.15875,0.232834 0.116416,0.899584 -0.15875,0.15875 -0.486833,0.105833 z"
         style="stroke-width:0.26458332"
         id="path3979"
         inkscape:connector-curvature="0" />
    </g>
  </g>
</svg>
