<?xml version="1.0" encoding="UTF-8" standalone="no"?>
<!-- Created with Inkscape (http://www.inkscape.org/) -->

<svg
   xmlns:dc="http://purl.org/dc/elements/1.1/"
   xmlns:cc="http://creativecommons.org/ns#"
   xmlns:rdf="http://www.w3.org/1999/02/22-rdf-syntax-ns#"
   xmlns:svg="http://www.w3.org/2000/svg"
   xmlns="http://www.w3.org/2000/svg"
   xmlns:sodipodi="http://sodipodi.sourceforge.net/DTD/sodipodi-0.dtd"
   xmlns:inkscape="http://www.inkscape.org/namespaces/inkscape"
   width="16.365194mm"
   height="19.571676mm"
   viewBox="0 0 16.365194 19.571676"
   version="1.1"
   id="svg4901"
   inkscape:version="0.92.3 (2405546, 2018-03-11)"
   sodipodi:docname="rune_fertility.svg">
  <defs
     id="defs4895" />
  <sodipodi:namedview
     id="base"
     pagecolor="#ffffff"
     bordercolor="#666666"
     borderopacity="1.0"
     inkscape:pageopacity="0.0"
     inkscape:pageshadow="2"
     inkscape:zoom="0.35"
     inkscape:cx="96.640637"
     inkscape:cy="-348.72844"
     inkscape:document-units="mm"
     inkscape:current-layer="layer1"
     showgrid="false"
     fit-margin-top="0"
     fit-margin-left="0"
     fit-margin-right="0"
     fit-margin-bottom="0"
     inkscape:window-width="1920"
     inkscape:window-height="1024"
     inkscape:window-x="-4"
     inkscape:window-y="-4"
     inkscape:window-maximized="1" />
  <metadata
     id="metadata4898">
    <rdf:RDF>
      <cc:Work
         rdf:about="">
        <dc:format>image/svg+xml</dc:format>
        <dc:type
           rdf:resource="http://purl.org/dc/dcmitype/StillImage" />
        <dc:title></dc:title>
      </cc:Work>
    </rdf:RDF>
  </metadata>
  <g
     inkscape:label="Layer 1"
     inkscape:groupmode="layer"
     id="layer1"
     transform="translate(51.271883,-36.993924)">
    <g
       aria-label="x"
       style="font-style:normal;font-variant:normal;font-weight:normal;font-stretch:normal;font-size:10.58333302px;line-height:1.25;font-family:'Glorantha Core Runes';-inkscape-font-specification:'Glorantha Core Runes';letter-spacing:0px;word-spacing:0px;fill:#000000;fill-opacity:1;stroke:none;stroke-width:0.26458332"
       id="text987"
       transform="matrix(2.858258,0,0,2.858258,-63.609813,-61.954452)">
      <path
         d="m 10.042174,41.243595 q -0.084667,0.179917 -0.41275,0.15875 -0.2222499,0 -0.4127499,-0.08467 -0.127,-0.01058 -0.41275,0.05292 -0.1375834,0.02117 -0.2328334,0.04233 -0.09525,0.01058 -0.1693333,0.01058 -0.1905,0 -0.3598333,-0.116417 -0.1375833,0.04233 -0.4868333,0.0635 -0.3386667,0.02117 -0.4868333,0.07408 -0.042333,0 -0.1164167,-0.02117 -0.074083,-0.02117 -0.15875,-0.04233 -0.074083,-0.03175 -0.1481667,-0.05292 -0.074083,-0.02117 -0.1058333,-0.02117 -0.1164167,-0.01058 -0.2328333,0.137583 -0.1058333,-0.07408 -0.2434167,-0.07408 -0.0635,0 -0.1905,0.03175 -0.127,0.02117 -0.1905,0.02117 -0.1481666,0 -0.22225,-0.0635 -0.1693333,0.105833 -0.3809999,0.105833 -0.1481667,0 -0.4445,-0.07408 0,-0.116417 0.1481666,-0.264584 0.15875,-0.169333 0.1693334,-0.211666 0.1164166,-0.05292 0.3069166,-0.53975 0.1799167,-0.455084 0.3280833,-0.465667 0.0635,-0.232833 0.4021667,-0.359833 -0.074083,-0.07408 -0.074083,-0.148167 0.1375833,-0.1905 0.28575,-0.508 0.010583,-0.127 0.2010833,-0.381 0.1905,-0.254 0.2010833,-0.34925 l 0.1058333,-0.09525 q -0.084667,-0.08467 -0.1799166,-0.22225 -0.09525,-0.137583 -0.2010834,-0.3175 -0.1164166,-0.1905 -0.2010833,-0.3175 -0.074083,-0.137583 -0.1481666,-0.22225 0.03175,-0.15875 -0.1164167,-0.243417 -0.2010833,-0.116416 -0.2434167,-0.1905 -0.3175,-0.560916 -0.2963333,-0.836083 -0.03175,-0.04233 -0.0635,-0.04233 -0.052917,0.0635 -0.1799166,0.116416 l -0.3175,-0.592666 q -0.1693334,-0.3175 -0.4233334,-0.402167 -0.021167,-0.0635 -0.021167,-0.09525 0,-0.08467 0.1164166,-0.08467 h 0.1799167 q 0.47625,0.179917 0.98425,0.201084 0.2116666,0 0.4339166,-0.03175 0.052917,-0.03175 0.127,0.04233 l 0.074083,0.08467 q 0.021167,0 0.052917,-0.03175 0.1058333,0.03175 0.34925,-0.03175 0.22225,-0.07408 0.3386667,-0.07408 0.1164166,0 0.22225,0.08467 0.127,-0.03175 0.2328333,-0.03175 0.1693333,0 0.2434166,0.07408 0.052917,0.08467 0.1058334,0.08467 0.1164166,-0.116417 0.3280833,-0.15875 l 1.7568333,-0.0635 q 0.1693337,0.02117 0.1164166,0.232833 -0.1799166,0.08467 -0.4762499,0.560917 -0.3069167,0.486833 -0.47625,0.560917 l -0.2434167,0.582083 q -0.084667,0.15875 -0.1799167,0.275167 -0.084667,0.116416 -0.1904999,0.1905 -0.021167,0.0635 -0.3069167,0.47625 -0.22225,0.338666 -0.22225,0.508 0,0.15875 0.127,0.296333 0.084667,0.03175 0.1481667,0.328083 0.0635,0.296334 0.2010833,0.338667 0.010583,0.01058 0.1693333,0.01058 0.084667,-0.02117 0.1375833,0.07408 0.03175,0.116416 0.3069167,0.508 0.2328333,0.328083 0.22225,0.560916 0.2645833,0.0635 0.4233333,0.338667 l 0.3069167,0.508 z M 8.2112574,35.772012 q -0.15875,-0.03175 -0.4656666,0 -0.1693334,0.02117 -0.28575,0.03175 -0.1058334,0.01058 -0.1799167,0.01058 -0.1058333,-0.01058 -0.2116666,-0.02117 -0.09525,-0.02117 -0.1905,-0.0635 l -0.3704167,0.07408 q -0.09525,-0.105834 -0.15875,-0.105834 -0.042333,0 -0.052917,0.03175 0.021167,0.169334 0.2010834,0.370417 0.22225,0.243417 0.2434166,0.328083 0.010583,0.169334 0.2010834,0.391584 0.1164166,0.148166 0.1905,0.243416 0.074083,0.08467 0.09525,0.127 0.1375833,0 0.2645833,-0.232833 0.15875,-0.296333 0.254,-0.381 0.1905,-0.08467 0.3069166,-0.338667 z m 0.042333,4.709583 q -0.1375834,-0.243417 -0.254,-0.433917 -0.1058334,-0.1905 -0.1905,-0.306916 -0.3069167,-0.455084 -0.5715,-0.624417 -0.052917,0.04233 -0.1481667,0.169333 -0.084667,0.116417 -0.22225,0.328084 -0.2116666,0.328083 -0.4339166,0.306916 0.084667,0.05292 0.084667,0.148167 0,0.08467 -0.084667,0.275167 -0.021167,-0.02117 -0.052917,-0.02117 -0.127,0 -0.127,0.127 0,0.07408 0.0635,0.116417 0.0635,0.01058 0.1799167,-0.02117 0.1693333,0.08467 0.4550833,0.05292 0.052917,-0.01058 0.09525,-0.01058 0.052917,0 0.1058333,0 0.1375834,0 0.22225,0.03175 0.254,-0.148166 0.8784167,-0.137583 z"
         style="stroke-width:0.26458332"
         id="path4042"
         inkscape:connector-curvature="0" />
    </g>
  </g>
</svg>
