<?xml version="1.0" encoding="UTF-8" standalone="no"?>
<!-- Created with Inkscape (http://www.inkscape.org/) -->

<svg
   xmlns:dc="http://purl.org/dc/elements/1.1/"
   xmlns:cc="http://creativecommons.org/ns#"
   xmlns:rdf="http://www.w3.org/1999/02/22-rdf-syntax-ns#"
   xmlns:svg="http://www.w3.org/2000/svg"
   xmlns="http://www.w3.org/2000/svg"
   xmlns:sodipodi="http://sodipodi.sourceforge.net/DTD/sodipodi-0.dtd"
   xmlns:inkscape="http://www.inkscape.org/namespaces/inkscape"
   width="17.697437mm"
   height="19.089611mm"
   viewBox="0 0 17.697437 19.089611"
   version="1.1"
   id="svg13178"
   inkscape:version="0.92.3 (2405546, 2018-03-11)"
   sodipodi:docname="rune_harmony.svg">
  <defs
     id="defs13172" />
  <sodipodi:namedview
     id="base"
     pagecolor="#ffffff"
     bordercolor="#666666"
     borderopacity="1.0"
     inkscape:pageopacity="0.0"
     inkscape:pageshadow="2"
     inkscape:zoom="0.35"
     inkscape:cx="-463.69887"
     inkscape:cy="36.074854"
     inkscape:document-units="mm"
     inkscape:current-layer="layer1"
     showgrid="false"
     inkscape:window-width="1920"
     inkscape:window-height="1024"
     inkscape:window-x="-4"
     inkscape:window-y="-4"
     inkscape:window-maximized="1" />
  <metadata
     id="metadata13175">
    <rdf:RDF>
      <cc:Work
         rdf:about="">
        <dc:format>image/svg+xml</dc:format>
        <dc:type
           rdf:resource="http://purl.org/dc/dcmitype/StillImage" />
        <dc:title></dc:title>
      </cc:Work>
    </rdf:RDF>
  </metadata>
  <g
     inkscape:label="Layer 1"
     inkscape:groupmode="layer"
     id="layer1"
     transform="translate(-96.984611,-139.28853)">
    <g
       aria-label="l"
       style="font-style:normal;font-variant:normal;font-weight:normal;font-stretch:normal;font-size:10.58333302px;line-height:1.25;font-family:'Glorantha Core Runes';-inkscape-font-specification:'Glorantha Core Runes';letter-spacing:0px;word-spacing:0px;fill:#000000;fill-opacity:1;stroke:none;stroke-width:0.26458332"
       id="text979"
       transform="matrix(2.858258,0,0,2.858258,-175.33813,71.842651)">
      <path
         d="m 101.46746,26.380928 h -0.1905 q 0.0741,0.402166 0.10584,0.751416 0.0318,0.34925 0.0423,0.645584 0,0.179916 -0.0106,0.34925 -0.0106,0.15875 -0.0318,0.306916 l -0.23284,0.179917 q 0.30692,0.264583 0.26459,0.772583 -0.0212,0.116417 -0.0423,0.3175 -0.0212,0.201084 -0.0423,0.47625 -0.10583,0.02117 -0.20108,0.02117 -0.0212,0 -0.10584,0 -0.0741,0 -0.1905,-0.01058 -0.381,-0.03175 -0.62441,0.08467 l -0.0423,-0.02117 q -0.0423,-0.243417 -0.0635,-0.497417 -0.0106,-0.254 -0.0106,-0.529167 0,-0.243416 0.0106,-0.486833 0.0212,-0.243417 0.0423,-0.508 l 0.40216,-0.275167 q -0.49741,-0.179916 -0.45508,-0.846666 l 0.0423,-0.508 q 0.0212,-0.179917 0.0318,-0.306917 0.0106,-0.137583 0.0106,-0.22225 l 0.0953,-0.15875 q -0.11642,-0.264583 -0.17992,-0.550333 -0.0635,-0.28575 -0.0423,-0.613834 l 0.0635,-1.090083 0.381,0.03175 q 0.26458,0.01058 0.29633,0.296333 0.0847,-0.05292 0.21167,-0.127 0.13758,-0.08467 0.3175,-0.179916 l 0.0635,0.02117 -0.0529,1.227667 q 0.0212,0.08467 0.0529,0.211667 0.0318,0.127 0.0529,0.296333 0,0.03175 -0.0212,0.296333 -0.0106,0.254 -0.0529,0.740834 z m -2.666996,-2.69875 q -0.07408,0.105833 -0.137583,0.338666 0.211666,0 0.275166,0.137584 0,0.04233 0.01058,0.07408 -0.05292,0.169333 -0.04233,0.635 0,0.381 -0.15875,0.582083 0.148167,0.402167 0.169334,1.386417 0.01058,0.529167 -0.02117,1.005417 -0.03175,0.465666 -0.09525,0.910166 l -0.07408,0.02117 -0.22225,0.306917 q 0.423333,-0.03175 0.465666,0.582083 0.04233,0.60325 -0.201083,0.60325 -0.08467,0 -0.22225,0 -0.137583,0 -0.3175,-0.01058 -0.179917,-0.01058 -0.3175,-0.01058 -0.127,-0.01058 -0.211667,-0.01058 l -0.05292,-0.47625 h 0.04233 l 0.05292,-0.486833 q 0.02117,-0.179917 -0.09525,-0.391584 0.02117,-0.05292 0.03175,-0.179916 0.01058,-0.127 0.02117,-0.3175 0.02117,-0.28575 0.296334,-0.518584 l -0.3175,-0.07408 -0.04233,-0.09525 q 0.116417,-0.28575 0.08467,-0.973667 -0.03175,-0.656166 0.148167,-0.98425 -0.34925,-0.5715 -0.370417,-1.788583 0,-0.306917 0.518583,-0.3175 0.08467,-0.01058 0.275167,0.01058 0.201083,0.01058 0.508,0.04233 z m -2.656417,5.36575 q 0.402167,0.1905 0.391584,0.5715 0,0.04233 -0.02117,0.201083 -0.02117,0.15875 -0.0635,0.433917 -0.08467,0 -0.465667,-0.127 -0.3175,-0.105834 -0.635,0.07408 -0.05292,-0.1905 -0.07408,-0.677333 -0.01058,-1.0795 0.232833,-1.322917 l -0.201083,-0.127 -0.03175,-0.66675 q 0.01058,-0.391583 0.254,-0.6985 -0.28575,-0.275167 -0.243417,-0.910167 0.01058,-0.137583 0.05292,-0.391583 0.04233,-0.264583 0.127,-0.656167 l -0.179917,-0.1905 q 0,-0.01058 0.02117,-0.508 0,-0.3175 0.137583,-0.455083 0.296334,-0.01058 0.98425,0.148167 0.02117,0.105833 0.03175,0.201083 0.01058,0.08467 0.01058,0.169333 0,0.179917 -0.04233,0.275167 h -0.243416 q 0.328083,0.66675 0.338666,1.439333 0.01058,0.232834 -0.01058,0.582084 -0.02117,0.338666 -0.0635,0.814916 0.116417,0.22225 0.07408,0.740834 -0.02117,0.34925 -0.04233,0.550333 -0.01058,0.1905 -0.01058,0.243417 z"
         style="stroke-width:0.26458332"
         id="path4045"
         inkscape:connector-curvature="0" />
    </g>
  </g>
</svg>
