<?xml version="1.0" encoding="UTF-8" standalone="no"?>
<!-- Created with Inkscape (http://www.inkscape.org/) -->

<svg
   xmlns:dc="http://purl.org/dc/elements/1.1/"
   xmlns:cc="http://creativecommons.org/ns#"
   xmlns:rdf="http://www.w3.org/1999/02/22-rdf-syntax-ns#"
   xmlns:svg="http://www.w3.org/2000/svg"
   xmlns="http://www.w3.org/2000/svg"
   xmlns:sodipodi="http://sodipodi.sourceforge.net/DTD/sodipodi-0.dtd"
   xmlns:inkscape="http://www.inkscape.org/namespaces/inkscape"
   width="23.625189mm"
   height="13.041497mm"
   viewBox="0 0 23.625189 13.041497"
   version="1.1"
   id="svg17722"
   inkscape:version="0.92.3 (2405546, 2018-03-11)"
   sodipodi:docname="rune_heler.svg">
  <defs
     id="defs17716" />
  <sodipodi:namedview
     id="base"
     pagecolor="#ffffff"
     bordercolor="#666666"
     borderopacity="1.0"
     inkscape:pageopacity="0.0"
     inkscape:pageshadow="2"
     inkscape:zoom="0.35"
     inkscape:cx="530.36031"
     inkscape:cy="21.788206"
     inkscape:document-units="mm"
     inkscape:current-layer="layer1"
     showgrid="false"
     inkscape:window-width="1920"
     inkscape:window-height="1024"
     inkscape:window-x="-4"
     inkscape:window-y="-4"
     inkscape:window-maximized="1" />
  <metadata
     id="metadata17719">
    <rdf:RDF>
      <cc:Work
         rdf:about="">
        <dc:format>image/svg+xml</dc:format>
        <dc:type
           rdf:resource="http://purl.org/dc/dcmitype/StillImage" />
        <dc:title></dc:title>
      </cc:Work>
    </rdf:RDF>
  </metadata>
  <g
     inkscape:label="Layer 1"
     inkscape:groupmode="layer"
     id="layer1"
     transform="translate(166.02688,-141.55663)">
    <g
       aria-label="E"
       style="font-style:normal;font-variant:normal;font-weight:normal;font-stretch:normal;font-size:10.58333302px;line-height:1.25;font-family:'Glorantha Core Runes';-inkscape-font-specification:'Glorantha Core Runes';letter-spacing:0px;word-spacing:0px;fill:#000000;fill-opacity:1;stroke:none;stroke-width:0.26458332"
       id="text1239"
       transform="matrix(2.858258,0,0,2.858258,-216.96551,-3.6885342)">
      <path
         d="m 24.160993,51.822719 q -0.232833,0.03175 -0.635,-0.02117 -0.328083,-0.04233 -0.518583,-0.03175 l -0.0635,-0.03175 -0.201084,0.116416 -0.0635,-0.02117 q -0.04233,0.07408 -0.09525,0.137583 -0.05292,0.0635 -0.127,0.137583 l -0.08467,-0.04233 q -0.05292,0.5715 -0.550334,1.386417 -0.751416,1.195916 -0.79375,1.30175 l -0.22225,0.05292 0.07408,0.148167 -0.09525,0.423333 -0.994834,-0.08467 -0.02117,-0.07408 q 0,-0.148166 0.3175,-0.645583 0.3175,-0.508 0.455083,-0.5715 l -0.0635,-0.09525 0.243417,-0.455083 q 0.127,-0.243417 0.34925,-0.338667 -0.01058,-0.306917 0.232833,-0.783167 0.254,-0.455083 0.254,-0.550333 -0.15875,-0.02117 -0.34925,-0.02117 -0.1905,-0.01058 -0.402167,0 l -0.3175,0.01058 q -0.15875,0.169333 -0.179916,0.169333 -0.02117,0.02117 -0.22225,0 l -0.232834,0.05292 q 0.15875,0.116416 0.201084,0.306916 -0.08467,0.243417 -0.41275,0.635 -0.3175,0.381 -0.423333,0.60325 l -0.910167,-0.05292 q 0.306917,-0.508 0.465667,-0.560917 l -0.127,-0.08467 q 0.03175,-0.127 0.645583,-1.016 -0.116417,-0.01058 -0.275167,-0.01058 -0.148166,0 -0.338666,0.02117 l -0.60325,0.04233 -0.254,-0.03175 0.22225,-0.963083 0.370416,0.04233 q 0.0635,0.148167 0.09525,0.148167 l 0.02117,-0.04233 q 0.05292,-0.02117 0.127,-0.04233 0.08467,-0.02117 0.169333,-0.04233 0.08467,-0.02117 0.15875,-0.03175 0.07408,-0.02117 0.116417,-0.02117 0.391583,0.01058 0.973666,0.02117 0.582084,0 1.375834,0 0.0635,0.04233 0.116416,0.09525 0.05292,0.04233 0.09525,0.116416 0.02117,0 0.105834,-0.08467 l 0.02117,-0.116417 q 0.09525,-0.105833 0.41275,-0.105833 0.137584,-0.01058 0.508,0.0635 0.455084,0.08467 0.53975,0.169333 l 0.550334,-0.137583 q 0.550333,-0.01058 0.85725,0.15875 0.137583,-0.105834 0.433916,-0.148167 0.306917,-0.05292 0.783167,-0.03175 l 0.211667,0.01058 -0.01058,0.79375 q -0.105833,-0.01058 -0.243416,-0.02117 -0.127,-0.01058 -0.296334,-0.02117 -0.359833,0.02117 -0.402166,0.116417 -0.3175,0.560916 -1.04775,1.651 l -1.005417,0.08467 q 0.328083,-0.550333 1.0795,-1.68275 z"
         style="stroke-width:0.26458332"
         id="path4018"
         inkscape:connector-curvature="0" />
    </g>
  </g>
</svg>
