<?xml version="1.0" encoding="UTF-8" standalone="no"?>
<!-- Created with Inkscape (http://www.inkscape.org/) -->

<svg
   xmlns:dc="http://purl.org/dc/elements/1.1/"
   xmlns:cc="http://creativecommons.org/ns#"
   xmlns:rdf="http://www.w3.org/1999/02/22-rdf-syntax-ns#"
   xmlns:svg="http://www.w3.org/2000/svg"
   xmlns="http://www.w3.org/2000/svg"
   xmlns:sodipodi="http://sodipodi.sourceforge.net/DTD/sodipodi-0.dtd"
   xmlns:inkscape="http://www.inkscape.org/namespaces/inkscape"
   width="32.155693mm"
   height="15.094764mm"
   viewBox="0 0 32.155693 15.094764"
   version="1.1"
   id="svg24570"
   inkscape:version="0.92.3 (2405546, 2018-03-11)"
   sodipodi:docname="rune_hell.svg">
  <defs
     id="defs24564" />
  <sodipodi:namedview
     id="base"
     pagecolor="#ffffff"
     bordercolor="#666666"
     borderopacity="1.0"
     inkscape:pageopacity="0.0"
     inkscape:pageshadow="2"
     inkscape:zoom="0.35"
     inkscape:cx="-436.3762"
     inkscape:cy="28.525536"
     inkscape:document-units="mm"
     inkscape:current-layer="layer1"
     showgrid="false"
     inkscape:window-width="1920"
     inkscape:window-height="1024"
     inkscape:window-x="-4"
     inkscape:window-y="-4"
     inkscape:window-maximized="1" />
  <metadata
     id="metadata24567">
    <rdf:RDF>
      <cc:Work
         rdf:about="">
        <dc:format>image/svg+xml</dc:format>
        <dc:type
           rdf:resource="http://purl.org/dc/dcmitype/StillImage" />
        <dc:title></dc:title>
      </cc:Work>
    </rdf:RDF>
  </metadata>
  <g
     inkscape:label="Layer 1"
     inkscape:groupmode="layer"
     id="layer1"
     transform="translate(-89.755487,-141.28595)">
    <g
       aria-label="H"
       style="font-style:normal;font-variant:normal;font-weight:normal;font-stretch:normal;font-size:10.58333302px;line-height:1.25;font-family:'Glorantha Core Runes';-inkscape-font-specification:'Glorantha Core Runes';letter-spacing:0px;word-spacing:0px;fill:#000000;fill-opacity:1;stroke:none;stroke-width:0.26458332"
       id="text1345"
       transform="matrix(2.858258,0,0,2.858258,-98.735912,-43.169022)">
      <path
         d="m 77.185757,67.857228 q -0.03175,0.01058 -0.05292,0.02117 -0.01058,0 -0.03175,0 -0.02117,0.01058 -0.03175,0.01058 -0.0635,0 -0.22225,-0.01058 -0.15875,-0.02117 -0.243416,-0.01058 -0.04233,-0.03175 -0.148167,-0.0635 -0.05292,0 -0.22225,0.02117 -0.15875,0.02117 -0.243417,0.02117 -0.137583,0 -0.243416,-0.03175 -0.05292,-0.08467 -0.137584,-0.08467 -0.306916,0 -0.5715,0.127 l -0.328083,-0.09525 q -0.09525,0.05292 -0.201083,0.07408 -0.09525,0.02117 -0.201084,0.02117 h -0.116416 l -0.04233,-0.09525 q 0.02117,-0.0635 0.09525,-0.169333 l 0.01058,-0.05292 q -0.08467,0.01058 -0.201084,0.127 -0.148166,0.179917 -0.15875,0.179917 l -0.169333,0.01058 -0.03175,0.41275 -0.105833,0.105833 q 0.127,0.148167 0.127,0.465667 0,0.148167 -0.03175,0.4445 -0.03175,0.28575 -0.03175,0.433917 -0.07408,0.04233 -0.243417,0.02117 -0.0635,0 -0.105833,0 -0.04233,-0.01058 -0.07408,-0.01058 -0.04233,0 -0.0635,-0.01058 -0.137583,-0.01058 -0.264583,0.09525 l -0.09525,-0.05292 q -0.02117,-0.264583 -0.04233,-0.508 -0.01058,-0.254 -0.01058,-0.497417 0,-0.381 0.03175,-0.751416 0.07408,-0.05292 0.201084,-0.211667 -0.148167,-0.04233 -0.169334,-0.116417 0.01058,0.0635 0.01058,0.01058 0.01058,-0.05292 0.01058,-0.232834 0,-0.05292 -0.02117,-0.15875 -0.02117,-0.116416 -0.02117,-0.169333 0,-0.09525 0.0635,-0.28575 0.0635,-0.1905 0.0635,-0.28575 l -0.04233,-0.05292 q -0.127,0.08467 -0.22225,0.09525 0.03175,0.02117 0.127,0.116417 l -0.3175,0.465667 q -0.09525,0.148166 -0.211666,0.232833 -0.105834,0.07408 -0.211667,0.116417 v 0.02117 q 0,0.3175 -0.4445,0.73025 -0.05292,0 -0.137583,-0.211666 l -0.0635,0.01058 q -0.127,0 -0.211667,-0.211667 v -0.08467 l -0.04233,0.01058 q -0.08467,0 -0.15875,-0.04233 -0.433917,-0.465667 -0.370417,-0.550334 -0.04233,-0.03175 -0.116417,-0.148166 l 0.02117,-0.04233 -0.03175,-0.0635 -0.08467,0.01058 -0.116416,-0.01058 q -0.04233,-0.07408 -0.116417,-0.127 0,0.02117 0,0.04233 0.01058,0.02117 0.01058,0.03175 0,0.02117 0.01058,0.02117 0,0.08467 -0.01058,0.211667 0,0.116417 -0.01058,0.28575 -0.01058,0.15875 -0.02117,0.275167 0,0.116416 0,0.1905 0.05292,0.127 0.05292,0.28575 0,0.28575 -0.09525,0.582083 0.05292,0.179917 0.07408,0.338667 0.02117,0.15875 0.02117,0.306916 v 0.148167 q -0.148167,0.1905 -0.3175,0.1905 -0.0635,0 -0.15875,-0.01058 -0.08467,-0.01058 -0.179917,-0.02117 -0.09525,-0.01058 -0.179916,-0.02117 -0.08467,-0.01058 -0.127,-0.01058 -0.02117,-0.105833 -0.02117,-0.137583 0,-0.116417 0.04233,-0.211667 0.02117,-0.01058 0.05292,-0.03175 0.02117,-0.02117 0.05292,-0.04233 0.04233,-0.02117 0.09525,-0.05292 l -0.05292,-0.09525 q -0.105833,-0.01058 -0.137583,-0.116417 -0.01058,-0.03175 -0.02117,-0.07408 0,-0.05292 0.01058,-0.116417 0,-0.05292 0,-0.08467 0.01058,-0.03175 0.01058,-0.05292 0,-0.03175 0.01058,-0.05292 0,-0.105833 -0.01058,-0.3175 -0.01058,-0.211666 -0.01058,-0.3175 -0.148166,-0.04233 -0.28575,-0.03175 -0.09525,-0.05292 -0.179916,-0.08467 l -0.07408,0.09525 q -0.08467,-0.01058 -0.254,0 -0.116416,0.01058 -0.179916,0.02117 -0.0635,0 -0.08467,0 -0.116417,0 -0.22225,-0.05292 -0.105833,-0.0635 -0.137583,-0.0635 l -0.05292,-0.03175 q -0.07408,0 -0.1905,0.116416 -0.137583,0 -0.433917,0.03175 -0.148166,0.01058 -0.254,0.02117 -0.105833,0 -0.179916,0 -0.550333,0 -0.772583,-0.07408 l -0.01058,-0.07408 q 0,-0.169333 0.328084,-0.370416 0.105833,-0.169334 0.169333,-0.254 0.0635,-0.09525 0.08467,-0.116417 0.169334,-0.201083 0.359834,-0.275167 v -0.05292 q 0,-0.05292 0.05292,-0.211667 l 0.370417,-0.508 0.116417,0.03175 0.04233,-0.0635 -0.01058,-0.08467 q 0,-0.105833 0.179916,-0.232833 0.179917,-0.148167 0.169334,-0.254 0.328083,-0.497417 0.677333,-0.814917 h 0.03175 q 0.105833,0 0.105833,0.22225 0,0.1905 -0.07408,0.264584 0.116417,0.34925 0.116417,0.34925 0,0.338666 -0.264584,0.53975 -0.02117,0 -0.03175,0 -0.01058,-0.01058 -0.02117,-0.01058 h -0.02117 -0.04233 q -0.04233,0.137584 -0.211667,0.47625 -0.105833,0.02117 -0.243417,0.254 -0.127,0.201084 -0.148166,0.328084 0.04233,0.0635 0.232833,0.08467 0.148167,0 0.264583,-0.03175 0.0635,0.07408 0.05292,0.179917 0.02117,-0.01058 0.08467,-0.0635 0.0635,-0.0635 0.179916,-0.169333 h 0.09525 q 0.05292,0 0.15875,-0.01058 0.116417,-0.02117 0.275167,-0.04233 l 0.232833,0.04233 0.04233,0.05292 v -0.137583 q 0,-0.232834 0.0635,-0.6985 -0.0635,-0.137584 -0.0635,-0.28575 0,-0.179917 0.105833,-0.34925 -0.116417,-0.116417 -0.116417,-0.677334 0,-0.127 0.04233,-0.264583 h 0.05292 q 0.15875,0 0.359834,0.296333 0.391583,0.243417 0.423333,0.264584 0.254,0.1905 0.254,0.402166 0,0.169334 0.1905,0.232834 0.04233,0.137583 0.243417,0.34925 l -0.03175,0.0635 q 0.03175,0.04233 0.1905,0.105833 0.07408,0.116417 0.1905,0.264583 0.127,0.148167 0.306916,0.328084 0.105834,-0.07408 0.22225,-0.28575 0.05292,-0.01058 0.169334,-0.09525 l -0.01058,-0.0635 q 0,-0.127 0.211667,-0.22225 l 0.08467,0.01058 v -0.05292 q 0,-0.211666 0.402166,-0.719666 0.05292,-0.03175 0.243417,-0.201084 0.04233,-0.09525 0.105833,-0.1905 0.05292,-0.03175 0.306917,-0.338666 0.201083,-0.232834 0.370417,-0.232834 l 0.07408,0.01058 q 0.07408,0.07408 0.07408,0.148166 0,0.0635 -0.02117,0.169334 -0.01058,0.09525 -0.03175,0.211666 -0.01058,0.105834 -0.02117,0.211667 -0.01058,0.09525 -0.01058,0.15875 0,0.105833 0.02117,0.296333 0.03175,0.1905 0.03175,0.28575 0,0.4445 -0.03175,0.677334 h -0.04233 q 0.01058,0.03175 0.02117,0.105833 0.01058,0.0635 0.02117,0.169333 0.08467,-0.01058 0.179917,-0.01058 0.105833,0 0.22225,0 h 0.169333 l -0.03175,0.09525 q 0.07408,0.05292 0.201084,0.05292 0.04233,0 0.09525,0 0.05292,-0.01058 0.105833,-0.02117 -0.08467,-0.03175 -0.15875,-0.08467 0.0635,-0.03175 0.15875,-0.04233 0.09525,-0.02117 0.1905,-0.02117 0.09525,0 0.169333,0 0.08467,0 0.127,-0.02117 0.211667,0.04233 0.22225,0.04233 h 0.03175 q -0.02117,-0.148167 -0.201083,-0.3175 -0.179917,-0.169333 -0.201083,-0.243417 -0.01058,-0.0635 -0.03175,-0.137583 -0.02117,-0.07408 -0.08467,-0.08467 l -0.02117,0.01058 q -0.0635,0 -0.169333,-0.07408 -0.04233,-0.07408 -0.04233,-0.15875 -0.137584,-0.09525 -0.15875,-0.370416 0.01058,0.22225 0.01058,0.127 0.01058,-0.105834 0.01058,-0.550334 0,-0.07408 -0.02117,-0.22225 -0.02117,-0.148166 -0.02117,-0.22225 0,-0.201083 0.08467,-0.254 0.09525,0 0.433916,0.47625 v 0.03175 q 0,0.07408 0.1905,0.264584 v 0.03175 q 0,0.08467 0.169334,0.28575 l 0.05292,0.1905 0.0635,-0.01058 q 0.137584,0 0.232834,0.22225 l -0.01058,0.08467 h 0.03175 q 0.05292,-0.01058 0.179917,0.04233 l 0.41275,0.529167 q 0,0.201083 0.08467,0.34925 0.127,-0.05292 0.201083,-0.05292 0.148167,0.201084 0.306917,0.402167 0.15875,0.1905 0.306916,0.402167 z"
         style="stroke-width:0.26458332"
         id="path3991"
         inkscape:connector-curvature="0" />
    </g>
  </g>
</svg>
