<?xml version="1.0" encoding="UTF-8" standalone="no"?>
<!-- Created with Inkscape (http://www.inkscape.org/) -->

<svg
   xmlns:dc="http://purl.org/dc/elements/1.1/"
   xmlns:cc="http://creativecommons.org/ns#"
   xmlns:rdf="http://www.w3.org/1999/02/22-rdf-syntax-ns#"
   xmlns:svg="http://www.w3.org/2000/svg"
   xmlns="http://www.w3.org/2000/svg"
   xmlns:sodipodi="http://sodipodi.sourceforge.net/DTD/sodipodi-0.dtd"
   xmlns:inkscape="http://www.inkscape.org/namespaces/inkscape"
   width="21.689177mm"
   height="10.557196mm"
   viewBox="0 0 21.689177 10.557196"
   version="1.1"
   id="svg21146"
   inkscape:version="0.92.3 (2405546, 2018-03-11)"
   sodipodi:docname="rune_infinity.svg">
  <defs
     id="defs21140" />
  <sodipodi:namedview
     id="base"
     pagecolor="#ffffff"
     bordercolor="#666666"
     borderopacity="1.0"
     inkscape:pageopacity="0.0"
     inkscape:pageshadow="2"
     inkscape:zoom="0.35"
     inkscape:cx="-456.15544"
     inkscape:cy="19.950606"
     inkscape:document-units="mm"
     inkscape:current-layer="layer1"
     showgrid="false"
     inkscape:window-width="1920"
     inkscape:window-height="1024"
     inkscape:window-x="-4"
     inkscape:window-y="-4"
     inkscape:window-maximized="1" />
  <metadata
     id="metadata21143">
    <rdf:RDF>
      <cc:Work
         rdf:about="">
        <dc:format>image/svg+xml</dc:format>
        <dc:type
           rdf:resource="http://purl.org/dc/dcmitype/StillImage" />
        <dc:title></dc:title>
      </cc:Work>
    </rdf:RDF>
  </metadata>
  <g
     inkscape:label="Layer 1"
     inkscape:groupmode="layer"
     id="layer1"
     transform="translate(-94.988746,-143.55474)">
    <g
       aria-label="S"
       style="font-style:normal;font-variant:normal;font-weight:normal;font-stretch:normal;font-size:10.58333302px;line-height:1.25;font-family:'Glorantha Core Runes';-inkscape-font-specification:'Glorantha Core Runes';letter-spacing:0px;word-spacing:0px;fill:#000000;fill-opacity:1;stroke:none;stroke-width:0.26458332"
       id="text1337"
       transform="matrix(2.858258,0,0,2.858258,37.537717,-47.358632)">
      <path
         d="m 27.677685,68.688022 q 0.01058,0.03175 0.01058,0.116417 0,0.15875 -0.105833,0.41275 -0.105834,0.254 -0.105834,0.402167 -0.02117,0.0635 -0.253999,0.15875 -0.22225,0.09525 -0.22225,0.15875 0,0.04233 0.03175,0.08467 -0.0635,0.08467 -0.232834,0.179917 -0.15875,0.09525 -0.211666,0.137583 -0.232834,0.07408 -1.121834,0.105834 -0.01058,0 -0.0635,-0.08467 -0.05292,-0.08467 -0.105833,-0.08467 -0.02117,0 -0.09525,0.04233 -0.0635,0.03175 -0.105833,0.03175 -0.05292,0 -0.243417,-0.09525 -0.179917,-0.116417 -0.243417,-0.09525 -0.105833,-0.07408 -0.254,-0.201084 -0.137583,-0.127 -0.3175,-0.328083 -0.232833,0 -0.201083,-0.01058 -0.105833,0.116416 -0.22225,0.243416 -0.105833,0.127 -0.22225,0.243417 -0.296333,0.264583 -0.613833,0.28575 -0.07408,0 -0.232834,0.04233 -0.148166,0.03175 -0.22225,0.03175 -0.148166,0 -0.22225,-0.07408 l -0.211666,0.07408 q -0.0635,0.02117 -0.09525,0.02117 -0.0635,0 -0.105834,-0.04233 -0.232833,-0.07408 -0.359833,-0.116417 -0.127,-0.04233 -0.169333,-0.0635 -0.28575,-0.127 -0.41275,-0.34925 -0.338667,-0.275167 -0.338667,-0.486833 -0.09525,0 -0.243417,-0.179917 -0.0635,-0.391583 -0.0635,-0.645583 0,-0.264584 0.0635,-0.381 0.127,-0.4445 0.518584,-0.719667 0.02117,0.01058 0.0635,0.02117 0.04233,0.01058 0.09525,0.02117 0.02117,-0.04233 0.02117,-0.05292 0,-0.03175 -0.03175,-0.09525 -0.02117,-0.07408 -0.02117,-0.116417 0,-0.05292 0.910166,-0.486833 l 0.973667,0.07408 0.148167,0.148167 q 0.09525,0.09525 0.148166,0.09525 0.0635,0 0.09525,-0.01058 0.34925,0.179917 0.79375,0.85725 0.127,0.01058 0.3175,-0.243416 l 0.296334,-0.402167 q 0.15875,-0.22225 0.423333,-0.22225 0.02117,0 0.0635,0.01058 0.05292,0 0.105833,0.01058 0.0635,0.02117 0.116417,-0.02117 0.05292,-0.05292 0.04233,-0.116417 0.4445,-0.148166 0.656167,-0.148166 0.211667,0 0.402167,0.09525 0.03175,-0.01058 0.08467,-0.01058 0.127,0 0.264584,0.105834 l 0.03175,0.254 q 0.28575,-0.03175 0.34925,-0.02117 0.1905,0.137583 0.296333,0.3175 l 0.264583,0.41275 q 0.05292,0.08467 0.02117,0.359833 -0.03175,0.275167 0.0635,0.34925 z m -0.846667,0.243417 q -0.01058,-0.05292 -0.09525,-0.169333 0.02117,-0.381 -0.15875,-0.66675 -0.179916,-0.28575 -0.550333,-0.28575 -0.232833,0 -0.751417,0.15875 -0.105833,0.15875 -0.381,0.402166 -0.296333,0.264584 -0.370416,0.41275 0.03175,0.105834 0.232833,0.232834 0.201083,0.127 0.232833,0.1905 0.05292,0.0635 0.306917,0.232833 0.264583,0.169333 0.328083,0.3175 0.07408,-0.05292 0.232834,-0.08467 0.254,-0.05292 0.254,-0.05292 0.28575,-0.201084 0.296333,-0.232834 0.169333,-0.116416 0.148167,-0.3175 0.07408,-0.137583 0.275166,-0.137583 z m -3.439583,-0.07408 q 0.02117,-0.0635 0.02117,-0.07408 0,-0.04233 -0.08467,-0.127 -0.08467,-0.08467 -0.09525,-0.116416 -0.05292,-0.04233 -0.137583,-0.105834 -0.07408,-0.07408 -0.169334,-0.1905 -0.169333,-0.211666 -0.275166,-0.28575 -0.28575,0.02117 -0.635,-0.3175 -0.0635,0.105834 -0.328084,0.264584 -0.264583,0.137583 -0.3175,0.243416 -0.148166,0.05292 -0.338666,0.486834 l 0.02117,0.232833 q 0.03175,0.148167 0.169334,0.148167 0.116416,0.232833 0.15875,0.296333 0.116416,0.148167 0.296333,0.15875 0.05292,-0.01058 0.232833,0.116417 0.169334,0.127 0.211667,0.127 0.05292,0 0.137583,-0.0635 0.465667,-0.09525 1.132417,-0.79375 z"
         style="stroke-width:0.26458332"
         id="path3997"
         inkscape:connector-curvature="0" />
    </g>
  </g>
</svg>
