<?xml version="1.0" encoding="UTF-8" standalone="no"?>
<!-- Created with Inkscape (http://www.inkscape.org/) -->

<svg
   xmlns:dc="http://purl.org/dc/elements/1.1/"
   xmlns:cc="http://creativecommons.org/ns#"
   xmlns:rdf="http://www.w3.org/1999/02/22-rdf-syntax-ns#"
   xmlns:svg="http://www.w3.org/2000/svg"
   xmlns="http://www.w3.org/2000/svg"
   xmlns:sodipodi="http://sodipodi.sourceforge.net/DTD/sodipodi-0.dtd"
   xmlns:inkscape="http://www.inkscape.org/namespaces/inkscape"
   width="15.124927mm"
   height="20.993399mm"
   viewBox="0 0 15.124927 20.993399"
   version="1.1"
   id="svg10902"
   inkscape:version="0.92.3 (2405546, 2018-03-11)"
   sodipodi:docname="rune_lightbringers.svg">
  <defs
     id="defs10896" />
  <sodipodi:namedview
     id="base"
     pagecolor="#ffffff"
     bordercolor="#666666"
     borderopacity="1.0"
     inkscape:pageopacity="0.0"
     inkscape:pageshadow="2"
     inkscape:zoom="0.35"
     inkscape:cx="-468.56032"
     inkscape:cy="39.672564"
     inkscape:document-units="mm"
     inkscape:current-layer="layer1"
     showgrid="false"
     inkscape:window-width="1920"
     inkscape:window-height="1024"
     inkscape:window-x="-4"
     inkscape:window-y="-4"
     inkscape:window-maximized="1" />
  <metadata
     id="metadata10899">
    <rdf:RDF>
      <cc:Work
         rdf:about="">
        <dc:format>image/svg+xml</dc:format>
        <dc:type
           rdf:resource="http://purl.org/dc/dcmitype/StillImage" />
        <dc:title></dc:title>
      </cc:Work>
    </rdf:RDF>
  </metadata>
  <g
     inkscape:label="Layer 1"
     inkscape:groupmode="layer"
     id="layer1"
     transform="translate(-98.27087,-138.33663)">
    <g
       aria-label="f"
       style="font-style:normal;font-variant:normal;font-weight:normal;font-stretch:normal;font-size:10.58333302px;line-height:1.25;font-family:'Glorantha Core Runes';-inkscape-font-specification:'Glorantha Core Runes';letter-spacing:0px;word-spacing:0px;fill:#000000;fill-opacity:1;stroke:none;stroke-width:0.26458332"
       id="text959"
       transform="matrix(2.858258,0,0,2.858258,-14.583749,74.101238)">
      <path
         d="m 39.727116,24.854874 -0.08467,0.04233 -0.127,-0.09525 q -0.02117,-0.635 0.201084,-0.994834 0.04233,-0.07408 0.169333,-0.232833 0.137583,-0.169333 0.34925,-0.4445 l 0.201083,0.03175 q 0.254,-0.66675 1.2065,-0.66675 0.01058,0 0.07408,0 0.07408,-0.01058 0.1905,-0.02117 0.08467,0 0.15875,0 0.08467,0 0.137583,0.01058 0.169333,0.01058 0.275167,0.07408 l -0.0635,0.560917 q -0.243417,0.02117 -0.518584,0.07408 -0.264583,0.05292 -0.550333,0.127 l -0.116417,-0.09525 q -0.137583,0.148167 -0.3175,0.370417 -0.169333,0.211666 -0.402166,0.497416 l -0.105834,0.179917 -0.07408,0.02117 q -0.01058,0.07408 -0.02117,0.137583 0,0.0635 0,0.137583 0,0.370417 0.137584,0.719667 0.15875,0.402167 0.15875,0.423333 0.169333,0.03175 0.423333,0.328084 0.127,0.05292 0.3175,0.116416 0.1905,0.05292 0.4445,0.127 v -0.03175 q 0,-0.127 -0.05292,-0.211666 -0.148166,0.05292 -0.1905,0.03175 -0.232833,-0.105834 -0.624416,-0.582084 l -0.03175,-0.201083 -0.137584,-0.09525 q 0.02117,-0.15875 0.03175,-0.3175 0.01058,-0.15875 0.02117,-0.328083 l -0.09525,-0.08467 0.41275,-0.560917 q 0.127,-0.179916 0.275167,-0.243416 0.148166,-0.0635 0.296333,-0.04233 0.15875,-0.127 0.529167,-0.211666 l 0.1905,0.127 0.179916,-0.09525 q 0.9525,0.275166 1.11125,0.85725 l -0.127,0.15875 0.211667,-0.09525 q 0.22225,0.3175 0.22225,0.846666 0,0.137584 -0.03175,0.243417 l -0.169334,0.09525 0.02117,0.09525 0.08467,0.04233 q 0,0.613834 -1.090083,1.132417 0.09525,0.07408 0.105833,0.169333 l 0.137583,-0.05292 q 0.105833,0.07408 0.254,0.179916 0.148167,0.09525 0.338667,0.211667 0.137583,0.05292 0.264583,0.148167 0.127,0.08467 0.22225,0.232833 l 0.328083,0.529167 -0.105833,0.169333 0.201083,0.05292 q 0.04233,0.169333 0.09525,0.624416 0.03175,0.423333 0.105834,0.624417 -0.232834,0.116416 -0.60325,0.116416 -0.179917,0 -0.28575,-0.05292 -0.09525,-0.370417 -0.02117,-0.687917 l -0.07408,-0.07408 q -0.08467,-0.47625 -0.402167,-0.836083 -0.3175,-0.359834 -0.772583,-0.518584 l 0.01058,0.137584 -0.1905,0.243416 -0.09525,0.529167 0.148167,-0.211667 q 0.08467,0.137584 0.08467,0.275167 -0.01058,-0.127 -0.01058,-0.04233 0,0.07408 0,0.359833 v 0.328083 q 0,0.116417 -0.01058,0.201083 0,0.08467 0,0.15875 -0.169333,0.09525 -0.328083,0.127 l -0.15875,-0.07408 -0.232834,0.0635 -0.105833,-0.09525 q -0.03175,-0.148167 -0.05292,-0.41275 -0.01058,-0.264583 0,-0.645583 l 0.08467,-0.105833 q 0.01058,-0.02117 -0.01058,-0.07408 -0.02117,-0.05292 -0.02117,-0.07408 0,-0.0635 -0.01058,-0.15875 -0.01058,-0.09525 -0.02117,-0.201083 0,-0.105834 -0.01058,-0.201084 -0.01058,-0.105833 -0.01058,-0.169333 l -0.592666,0.127 0.03175,0.116417 -0.296334,0.338666 q -0.15875,0.1905 -0.359833,0.243417 l 0.04233,0.169333 q -0.22225,0.423333 -0.127,1.005417 l -0.137583,0.169333 q -0.09525,0.01058 -0.179917,0.02117 -0.07408,0 -0.137583,0 -0.201083,0 -0.41275,-0.04233 -0.01058,-0.201083 -0.02117,-0.3175 0,-0.116416 0,-0.148166 0,-0.391584 0.105834,-0.66675 l 0.09525,-0.04233 q -0.02117,-0.0635 -0.02117,-0.116417 0,-0.275167 0.3175,-0.677333 0.264583,-0.359834 0.5715,-0.518584 l 0.03175,0.02117 q 0.179917,-0.08467 0.306917,-0.137583 0.137583,-0.05292 0.22225,-0.07408 l 0.359833,-0.169333 -0.211667,-0.03175 q -0.518583,-0.1905 -0.6985,-0.370417 l 0.01058,-0.0635 -0.05292,0.01058 q -0.03175,0.01058 -0.09525,0.01058 -0.0635,-0.01058 -0.15875,-0.02117 -0.137583,-0.137583 -0.328083,-0.455083 -0.1905,-0.137583 -0.254,-0.47625 0,-0.02117 -0.02117,-0.15875 -0.01058,-0.137583 -0.03175,-0.402167 z m 3.026833,-0.560916 -0.201083,-0.07408 q 0.01058,0.105834 0.01058,0.179917 0.01058,0.0635 0.01058,0.105833 0,0.275167 -0.08467,0.381 0.105833,0.169334 0.105833,0.529167 0,0.116417 -0.01058,0.254 -0.01058,0.127 -0.03175,0.275167 0.04233,-0.02117 0.09525,-0.05292 0.0635,-0.04233 0.148167,-0.08467 l 0.05292,0.05292 q 0.05292,-0.169333 0.127,-0.296333 0.08467,-0.127 0.169333,-0.232834 -0.01058,-0.08467 0.05292,-0.22225 l 0.02117,-0.01058 q -0.04233,-0.07408 -0.07408,-0.296333 -0.01058,-0.0635 -0.0635,-0.137584 -0.04233,-0.07408 -0.09525,-0.148166 -0.05292,-0.07408 -0.105834,-0.137584 -0.04233,-0.07408 -0.05292,-0.116416 z m -1.026583,0.04233 -0.05292,0.05292 q -0.03175,0.02117 -0.07408,0.0635 -0.03175,0.03175 -0.07408,0.08467 0.03175,0.0635 0.03175,0.137584 0,0.05292 -0.03175,0.179916 -0.03175,0.116417 -0.03175,0.169334 0,0.02117 0.08467,0.127 0.08467,0.09525 0.0635,0.1905 l 0.148167,0.07408 v -0.0635 q 0.15875,-0.07408 0.15875,-0.179917 0,0.01058 -0.02117,-0.05292 0.01058,0 0.02117,0.01058 0.01058,0.02117 0.0635,0.03175 -0.0635,0.03175 -0.105833,0.03175 -0.148167,0 -0.09525,-0.3175 0.01058,-0.01058 0.01058,-0.0635 0,-0.02117 -0.02117,-0.137583 -0.01058,-0.127 -0.03175,-0.370417 z"
         style="stroke-width:0.26458332"
         id="path4060"
         inkscape:connector-curvature="0" />
    </g>
  </g>
</svg>
