<?xml version="1.0" encoding="UTF-8" standalone="no"?>
<!-- Created with Inkscape (http://www.inkscape.org/) -->

<svg
   xmlns:dc="http://purl.org/dc/elements/1.1/"
   xmlns:cc="http://creativecommons.org/ns#"
   xmlns:rdf="http://www.w3.org/1999/02/22-rdf-syntax-ns#"
   xmlns:svg="http://www.w3.org/2000/svg"
   xmlns="http://www.w3.org/2000/svg"
   xmlns:sodipodi="http://sodipodi.sourceforge.net/DTD/sodipodi-0.dtd"
   xmlns:inkscape="http://www.inkscape.org/namespaces/inkscape"
   width="15.773679mm"
   height="16.380285mm"
   viewBox="0 0 15.773679 16.380285"
   version="1.1"
   id="svg22294"
   inkscape:version="0.92.3 (2405546, 2018-03-11)"
   sodipodi:docname="rune_luck.svg">
  <defs
     id="defs22288" />
  <sodipodi:namedview
     id="base"
     pagecolor="#ffffff"
     bordercolor="#666666"
     borderopacity="1.0"
     inkscape:pageopacity="0.0"
     inkscape:pageshadow="2"
     inkscape:zoom="0.35"
     inkscape:cx="1046.9514"
     inkscape:cy="668.09771"
     inkscape:document-units="mm"
     inkscape:current-layer="layer1"
     showgrid="false"
     inkscape:window-width="1920"
     inkscape:window-height="1024"
     inkscape:window-x="-4"
     inkscape:window-y="-4"
     inkscape:window-maximized="1" />
  <metadata
     id="metadata22291">
    <rdf:RDF>
      <cc:Work
         rdf:about="">
        <dc:format>image/svg+xml</dc:format>
        <dc:type
           rdf:resource="http://purl.org/dc/dcmitype/StillImage" />
        <dc:title></dc:title>
      </cc:Work>
    </rdf:RDF>
  </metadata>
  <g
     inkscape:label="Layer 1"
     inkscape:groupmode="layer"
     id="layer1"
     transform="translate(302.70827,-309.22057)">
    <g
       aria-label="K"
       style="font-style:normal;font-variant:normal;font-weight:normal;font-stretch:normal;font-size:10.58333302px;line-height:1.25;font-family:'Glorantha Core Runes';-inkscape-font-specification:'Glorantha Core Runes';letter-spacing:0px;word-spacing:0px;fill:#000000;fill-opacity:1;stroke:none;stroke-width:0.26458332"
       id="text1353"
       transform="matrix(2.858258,0,0,2.858258,-548.36728,122.50974)">
      <path
         d="m 91.465706,66.323395 q -0.275167,0.127 -0.677333,0.127 -0.09525,0 -0.28575,-0.01058 -0.179917,-0.01058 -0.264584,-0.01058 -0.254,0 -0.381,0.0635 0.01058,0.370417 0.127,0.92075 l 0.116417,0.03175 q 0.07408,0.22225 0.1905,0.53975 0.116417,0.3175 0.296333,0.73025 -0.02117,0.0635 -0.05292,0.15875 -0.03175,0.09525 -0.0635,0.232833 l 0.02117,-0.01058 0.08467,-0.04233 q 0.07408,-0.03175 0.09525,0 l 0.762,1.873249 -0.07408,0.127 q -0.116417,-0.105833 -0.22225,-0.127 -0.08467,0.01058 -0.15875,0.03175 -0.0635,0.02117 -0.127,0.04233 -0.275167,-0.116417 -0.47625,0.05292 -0.169334,-0.09525 -0.296334,-0.66675 l 0.03175,-0.09525 q -0.0635,-0.01058 -0.105833,-0.07408 l 0.105833,-0.148167 q -0.116416,-0.04233 -0.232833,-0.127 -0.486833,-1.375833 -0.47625,-1.566333 l 0.127,-0.148166 -0.127,-0.07408 -0.137583,0.01058 q -0.0635,-0.07408 -0.148167,-0.254 -0.08467,-0.179917 -0.169333,-0.455084 l -0.254,-0.783166 -0.211667,0.01058 q -0.105833,0.105833 -0.105833,0.232833 l -0.09525,0.0635 0.05292,0.137584 q -0.08467,0.1905 -0.201083,0.47625 -0.116417,0.28575 -0.254,0.677333 -0.0635,0.179917 -0.211667,0.306917 -0.137583,0.116416 -0.148166,0.15875 0.02117,0.02117 0.04233,0.02117 0.03175,0 0.05292,-0.02117 l 0.08467,0.169333 q -0.01058,0.05292 -0.04233,0.137583 -0.02117,0.07408 -0.07408,0.179917 l -0.09525,0.03175 -0.04233,0.08467 q 0.07408,0.433916 -0.518583,1.672166 -0.08467,-0.01058 -0.211667,-0.03175 -0.116416,-0.03175 -0.275166,-0.07408 -0.08467,0.08467 -0.22225,0.105833 -0.137584,0.01058 -0.264584,0.02117 -0.02117,-0.116417 0.05292,-0.275167 0.04233,-0.08467 0.0635,-0.148167 0.03175,-0.0635 0.04233,-0.09525 0.02117,-0.03175 0.05292,-0.15875 0.04233,-0.127 0.116417,-0.338666 0.179916,0.07408 0.201083,0.04233 -0.03175,-0.105833 -0.03175,-0.243417 0,-0.264583 0.116417,-0.603249 0.05292,-0.148167 0.09525,-0.28575 0.05292,-0.148167 0.105833,-0.296334 0.105833,-0.09525 0.169333,-0.201083 -0.01058,-0.137583 0.0635,-0.423333 0.04233,-0.148167 0.08467,-0.243417 0.04233,-0.105833 0.08467,-0.179917 l 0.179916,-0.08467 -0.137583,-0.07408 0.3175,-1.005416 -0.127,-0.07408 q -0.169333,0.02117 -0.34925,0.03175 -0.169333,0 -0.34925,-0.01058 -0.01058,-0.05292 -0.05292,-0.15875 l -0.03175,0.02117 q -0.04233,0.137583 -0.264583,0.148166 -0.01058,0.01058 -0.34925,-0.01058 -0.04233,-0.07408 -0.04233,-1.016 0.08467,-0.02117 0.98425,-0.02117 0.92075,0 0.973666,0.03175 0.05292,0.02117 0.169334,0.169334 0.116416,0.127 0.137583,0.201083 l 0.07408,0.04233 -0.07408,-0.28575 0.09525,-0.137583 q 0.08467,-0.02117 0.275167,-0.02117 0.201083,-0.01058 0.508,0 l 0.243416,0.179917 q 0.04233,-0.05292 0.09525,-0.09525 0.05292,-0.04233 0.116417,-0.08467 0.232833,0.0635 0.85725,0.0635 0.635,0.01058 0.867833,-0.0635 l 0.09525,0.03175 q 0,0.15875 0.02117,0.402167 0.02117,0.232833 0.0635,0.560917 z"
         style="stroke-width:0.26458332"
         id="path3985"
         inkscape:connector-curvature="0" />
    </g>
  </g>
</svg>
