<?xml version="1.0" encoding="UTF-8" standalone="no"?>
<!-- Created with Inkscape (http://www.inkscape.org/) -->

<svg
   xmlns:dc="http://purl.org/dc/elements/1.1/"
   xmlns:cc="http://creativecommons.org/ns#"
   xmlns:rdf="http://www.w3.org/1999/02/22-rdf-syntax-ns#"
   xmlns:svg="http://www.w3.org/2000/svg"
   xmlns="http://www.w3.org/2000/svg"
   xmlns:sodipodi="http://sodipodi.sourceforge.net/DTD/sodipodi-0.dtd"
   xmlns:inkscape="http://www.inkscape.org/namespaces/inkscape"
   width="13.914951mm"
   height="18.7822mm"
   viewBox="0 0 13.914951 18.7822"
   version="1.1"
   id="svg1499"
   inkscape:version="0.92.3 (2405546, 2018-03-11)"
   sodipodi:docname="rune_magic.svg">
  <defs
     id="defs1493" />
  <sodipodi:namedview
     id="base"
     pagecolor="#ffffff"
     bordercolor="#666666"
     borderopacity="1.0"
     inkscape:pageopacity="0.0"
     inkscape:pageshadow="2"
     inkscape:zoom="0.35"
     inkscape:cx="-619.41833"
     inkscape:cy="-467.3632"
     inkscape:document-units="mm"
     inkscape:current-layer="layer1"
     showgrid="false"
     inkscape:window-width="1920"
     inkscape:window-height="1024"
     inkscape:window-x="-4"
     inkscape:window-y="-4"
     inkscape:window-maximized="1"
     fit-margin-top="0"
     fit-margin-left="0"
     fit-margin-right="0"
     fit-margin-bottom="0" />
  <metadata
     id="metadata1496">
    <rdf:RDF>
      <cc:Work
         rdf:about="">
        <dc:format>image/svg+xml</dc:format>
        <dc:type
           rdf:resource="http://purl.org/dc/dcmitype/StillImage" />
        <dc:title></dc:title>
      </cc:Work>
    </rdf:RDF>
  </metadata>
  <g
     inkscape:label="Layer 1"
     inkscape:groupmode="layer"
     id="layer1"
     transform="translate(-6.6496708,-6.3946196)">
    <g
       aria-label="R"
       style="font-style:normal;font-variant:normal;font-weight:normal;font-stretch:normal;font-size:10.58333302px;line-height:1.25;font-family:'Glorantha Core Runes';-inkscape-font-specification:'Glorantha Core Runes';letter-spacing:0px;word-spacing:0px;fill:#000000;fill-opacity:1;stroke:none;stroke-width:0.26458332"
       id="text1243"
       transform="matrix(2.858258,0,0,2.858258,-92.455472,-135.11844)">
      <path
         d="m 39.5416,55.860264 -0.03175,0.169333 q -0.07408,0.07408 -0.1905,0.04233 -0.07408,-0.01058 -0.127,-0.02117 -0.04233,-0.01058 -0.0635,-0.02117 -0.137583,0 -0.370416,-0.09525 -0.0635,0.05292 -0.264584,0.0635 -0.211666,0.02117 -0.243416,0.05292 -0.169334,0.03175 -0.41275,-0.370417 -0.02117,-0.0635 -0.01058,-0.116417 0.01058,-0.02117 0.01058,-0.04233 0,-0.02117 0.01058,-0.0635 l -0.592667,-0.381 q -0.02117,-0.0635 -0.1905,-0.22225 -0.127,-0.137583 -0.127,-0.254 0,-0.05292 0.01058,-0.08467 -0.03175,-0.05292 -0.116417,-0.05292 -0.05292,0.01058 -0.09525,0.01058 -0.03175,0 -0.04233,0 -0.03175,-0.07408 -0.306917,-0.28575 -0.232833,-0.1905 -0.232833,-0.338667 0.05292,-0.09525 0.28575,-0.338666 0.201083,-0.211667 0.232833,-0.359834 0.09525,-0.07408 0.232833,-0.402166 0.137584,-0.328084 0.254,-0.391584 0,-0.105833 -0.127,-0.15875 -0.04233,-0.02117 -0.105833,-0.08467 -0.0635,-0.0635 -0.148167,-0.148167 -0.01058,-0.03175 -0.01058,-0.0635 0,-0.04233 0.01058,-0.0635 0.08467,-0.07408 0.105834,-0.137583 -0.02117,-0.02117 -0.04233,-0.02117 -0.04233,0 -0.127,0.07408 -0.08467,0.0635 -0.148166,0.0635 -0.254,0 -0.486834,-0.179916 -0.127,-0.105834 -0.1905,-0.09525 -0.05292,0.03175 -0.03175,0.09525 0.01058,0.03175 0.01058,0.05292 0,0.02117 0.01058,0.04233 -0.08467,0.15875 -0.07408,0.359833 0.03175,0.60325 0.03175,0.370417 l -0.01058,0.98425 q -0.08467,0.02117 -0.169333,0.08467 0.01058,0.08467 0.127,0.28575 0.04233,0.07408 0.05292,0.1905 0.02117,0.105834 0.04233,0.275167 0.02117,0.22225 0.03175,0.34925 0.01058,0.116417 0.01058,0.137583 0,0.391584 0.01058,0.687917 0.02117,0.28575 0.04233,0.465667 0.01058,0.08467 -0.07408,0.105833 -0.02117,0 -0.148167,-0.02117 -0.127,-0.02117 -0.34925,-0.0635 -0.05292,-0.01058 -0.09525,-0.01058 -0.04233,0 -0.08467,0 -0.169333,0 -0.306916,0.105833 -0.01058,0.01058 -0.05292,0.01058 -0.0635,0 -0.127,-0.148167 0.0635,-0.22225 0.09525,-0.6985 -0.08467,-0.116417 -0.08467,-0.243417 0,-0.0635 0.01058,-0.179916 0.02117,-0.127 0.02117,-0.1905 0,-0.07408 -0.01058,-0.105834 l -0.0635,-1.143 q 0.116417,-0.116416 0.105833,-0.3175 -0.02117,-0.338666 -0.01058,-0.34925 0.02117,-0.0635 0.02117,-0.116416 0,-0.07408 -0.07408,-0.211667 -0.07408,-0.148167 -0.07408,-0.22225 0,-0.05292 0.02117,-0.116417 -0.01058,-0.254 0.0635,-0.740833 0.09525,0 0.254,-0.15875 0.15875,-0.169333 0.211666,-0.1905 0,-0.02117 0.03175,-0.04233 0.02117,-0.02117 0,-0.04233 -0.127,0.05292 -0.433916,0.03175 -0.127,-0.09525 -0.116417,-0.328083 0.03175,-0.328083 0,-0.370417 0,-0.306916 0,-0.391583 0,-0.09525 -0.01058,0.03175 0.02117,-0.22225 0.116416,-0.296333 l 0.127,0.03175 q 0.116417,0.116416 0.306917,0.28575 0.1905,0.15875 0.465667,0.370416 0.01058,0.02117 0.243416,0.201084 0.179917,0.148166 0.179917,0.211666 0,0.0635 -0.03175,0.127 l 0.03175,0.03175 q 0.07408,0 0.211667,-0.03175 0.137583,-0.04233 0.201083,-0.04233 0.09525,0 0.338667,0.169333 l 0.41275,0.28575 q 0.275166,0.1905 0.34925,0.328084 0.22225,0.179916 0.275166,0.370416 0.08467,0.02117 0.3175,0.04233 0.179917,0 0.254,0.137583 0.04233,0.03175 0.04233,0.08467 0,0.03175 -0.08467,0.137583 -0.07408,0.105833 -0.07408,0.15875 -0.127,0.05292 -0.232834,0.148167 v 0.243416 q -0.116416,0.137584 -0.275166,0.34925 -0.148167,0.211667 -0.34925,0.518584 -0.07408,0.02117 -0.148167,0.105833 0.201083,0.243417 0.391583,0.465667 0.201084,0.22225 0.391584,0.423333 0,0.05292 -0.116417,0.116417 -0.105833,0.05292 -0.116417,0.07408 l 0.41275,0.09525 q 0.169334,0.01058 0.402167,0.232833 0.264583,0.243417 0.381,0.28575 z"
         style="stroke-width:0.26458332"
         id="path4015"
         inkscape:connector-curvature="0" />
    </g>
  </g>
</svg>
