<?xml version="1.0" encoding="UTF-8" standalone="no"?>
<!-- Created with Inkscape (http://www.inkscape.org/) -->

<svg
   xmlns:dc="http://purl.org/dc/elements/1.1/"
   xmlns:cc="http://creativecommons.org/ns#"
   xmlns:rdf="http://www.w3.org/1999/02/22-rdf-syntax-ns#"
   xmlns:svg="http://www.w3.org/2000/svg"
   xmlns="http://www.w3.org/2000/svg"
   xmlns:sodipodi="http://sodipodi.sourceforge.net/DTD/sodipodi-0.dtd"
   xmlns:inkscape="http://www.inkscape.org/namespaces/inkscape"
   width="20.701624mm"
   height="18.694759mm"
   viewBox="0 0 20.701624 18.694759"
   version="1.1"
   id="svg26921"
   inkscape:version="0.92.3 (2405546, 2018-03-11)"
   sodipodi:docname="rune_maker.svg">
  <defs
     id="defs26915" />
  <sodipodi:namedview
     id="base"
     pagecolor="#ffffff"
     bordercolor="#666666"
     borderopacity="1.0"
     inkscape:pageopacity="0.0"
     inkscape:pageshadow="2"
     inkscape:zoom="0.35"
     inkscape:cx="39.121197"
     inkscape:cy="35.328679"
     inkscape:document-units="mm"
     inkscape:current-layer="layer1"
     showgrid="false"
     inkscape:window-width="1920"
     inkscape:window-height="1024"
     inkscape:window-x="-4"
     inkscape:window-y="-4"
     inkscape:window-maximized="1" />
  <metadata
     id="metadata26918">
    <rdf:RDF>
      <cc:Work
         rdf:about="">
        <dc:format>image/svg+xml</dc:format>
        <dc:type
           rdf:resource="http://purl.org/dc/dcmitype/StillImage" />
        <dc:title></dc:title>
      </cc:Work>
    </rdf:RDF>
  </metadata>
  <g
     inkscape:label="Layer 1"
     inkscape:groupmode="layer"
     id="layer1"
     transform="translate(36.053198,-139.48595)">
    <g
       aria-label="MQ0"
       style="font-style:normal;font-variant:normal;font-weight:normal;font-stretch:normal;font-size:10.58333302px;line-height:1.25;font-family:'Glorantha Core Runes';-inkscape-font-specification:'Glorantha Core Runes';letter-spacing:0px;word-spacing:0px;fill:#000000;fill-opacity:1;stroke:none;stroke-width:0.26458332"
       id="text26814"
       transform="matrix(2.8023767,0,0,2.8023767,-132.86697,10.009945)">
      <path
         d="m 40.558356,50.403794 c 0.119945,0.09878 0.232834,0.246945 0.338667,0.4445 l 0.127,0.254 c 0.04233,0.08467 0.08819,0.165806 0.137583,0.243417 0,0.211667 0.130528,0.451555 0.391584,0.719666 0.254,0.261056 0.381,0.472723 0.381,0.635 v 0.08467 h -0.740834 c -0.359833,0 -0.582083,-0.03881 -0.66675,-0.116417 -0.04939,0.112889 -0.119942,0.169334 -0.211666,0.169334 -0.02822,0 -0.08114,-0.0071 -0.15875,-0.02117 -0.07056,-0.01411 -0.130528,-0.02117 -0.179917,-0.02117 -0.02822,-0.02117 -0.08114,-0.03881 -0.15875,-0.05292 l -0.179917,-0.03175 c -0.275167,0.07761 -0.448028,0.116416 -0.518583,0.116416 -0.07055,0 -0.144639,-0.0035 -0.22225,-0.01058 -0.07056,-0.0071 -0.151694,-0.01058 -0.243417,-0.01058 -0.09172,-0.0071 -0.186972,-0.01058 -0.28575,-0.01058 -0.1905,0 -0.469194,0.01058 -0.836083,0.03175 -0.183444,0.01411 -0.345722,0.0247 -0.486833,0.03175 -0.141111,0.0071 -0.261056,0.01058 -0.359833,0.01058 -0.204611,0.0071 -0.483306,0.0035 -0.836084,-0.01058 -0.352777,-0.01411 -0.786694,-0.03528 -1.30175,-0.0635 0.09878,-0.162277 0.215195,-0.370416 0.34925,-0.624416 0.141111,-0.254 0.303389,-0.553861 0.486834,-0.899584 l 0.338666,-0.127 -0.04233,-0.243416 c 0.05645,-0.09878 0.109363,-0.194028 0.15875,-0.28575 0.05645,-0.09172 0.105836,-0.179917 0.148167,-0.264584 0.211667,-0.416277 0.338667,-0.726722 0.381,-0.931333 0.07761,-0.09172 0.158749,-0.211666 0.243416,-0.359833 0.09172,-0.148167 0.186973,-0.324556 0.28575,-0.529167 0.02822,-0.05645 0.116415,-0.169336 0.264584,-0.338667 0.112889,-0.127 0.162277,-0.254 0.148166,-0.381 0.155222,-0.09172 0.261055,-0.183444 0.3175,-0.275166 l -0.0635,-0.15875 c 0.01411,-0.03528 0.04234,-0.0882 0.08467,-0.15875 0.04939,-0.07761 0.112887,-0.176389 0.1905,-0.296334 0.112889,-0.176389 0.165805,-0.338666 0.15875,-0.486833 l 0.243416,-0.232833 c 0.112889,0.09878 0.232834,0.299861 0.359834,0.60325 0.112889,0.261055 0.243416,0.448027 0.391583,0.560916 l -0.05292,0.306917 c 0.275167,0.169333 0.455083,0.416278 0.53975,0.740833 0.04233,0.01411 0.15875,0.186975 0.34925,0.518584 0.176389,0.3175 0.299862,0.47625 0.370417,0.47625 0.0071,0.09172 0.07408,0.250472 0.201083,0.47625 0.119945,0.204611 0.172861,0.377472 0.15875,0.518583 z m -0.645583,0 c -0.07055,-0.261055 -0.148166,-0.391583 -0.232833,-0.391583 l -0.03175,0.03175 c -0.105833,-0.105833 -0.257528,-0.3175 -0.455084,-0.635 -0.08467,-0.03528 -0.225778,-0.25753 -0.423333,-0.66675 -0.204611,-0.416278 -0.377472,-0.645584 -0.518583,-0.687917 -0.04939,0.09172 -0.130526,0.22225 -0.243417,0.391583 -0.105833,0.169333 -0.246944,0.381 -0.423333,0.635 -0.296333,0.409223 -0.497417,0.765528 -0.60325,1.068917 -0.04939,0.141111 -0.169331,0.338667 -0.359833,0.592667 -0.1905,0.261055 -0.331611,0.500944 -0.423334,0.719666 0.0635,-0.05645 0.134056,-0.116419 0.211667,-0.179916 0.07761,-0.0635 0.162278,-0.134056 0.254,-0.211667 l 0.296333,-0.148167 c -0.02117,-0.04939 -0.04233,-0.105831 -0.0635,-0.169333 0.09878,-0.09172 0.162278,-0.15875 0.1905,-0.201083 0.162278,-0.02822 0.402167,-0.109359 0.719667,-0.243417 0.02822,0.0071 0.07408,0.01058 0.137583,0.01058 0.04939,0 0.12347,-0.0071 0.22225,-0.02117 0.105833,-0.01411 0.183444,-0.02117 0.232833,-0.02117 0.105833,0 0.186972,0.02469 0.243417,0.07408 0.09172,0.02822 0.162278,0.04233 0.211667,0.04233 0.0071,0 0.01764,-0.01058 0.03175,-0.03175 0.02117,-0.02117 0.06703,-0.03175 0.137583,-0.03175 0.141111,0 0.409563,0.164516 0.774062,0.487289 0.199337,0.152643 0.330341,0.284284 0.435117,0.395891 0.02735,0.03183 0.05448,0.07276 0.09875,0.108153 -0.01562,-0.05741 -0.07192,-0.126126 -0.143764,-0.261083 -0.197556,-0.373945 -0.289278,-0.592667 -0.275167,-0.656167 z m -0.656167,0.814917 c -0.05645,-0.0071 -0.13053,-0.01764 -0.22225,-0.03175 -0.09172,-0.01411 -0.201083,-0.03881 -0.328083,-0.07408 -0.112889,-0.03528 -0.215194,-0.05645 -0.306917,-0.0635 -0.08467,-0.01411 -0.162278,-0.02117 -0.232833,-0.02117 -0.225778,0.01411 -0.381,0.07761 -0.465667,0.1905 l -0.04233,0.01058 c -0.04939,0 -0.137581,-0.02117 -0.264583,-0.0635 -0.04939,0.05645 -0.102303,0.144641 -0.15875,0.264583 l -0.359833,0.296334 c -0.148167,0.148167 -0.239889,0.278694 -0.275167,0.391583 0.04939,0 0.134053,0.01058 0.254,0.03175 0.0071,0.04233 0.09525,0.0635 0.264583,0.0635 0.02117,0 0.05645,-0.0035 0.105834,-0.01058 0.04939,-0.01411 0.102303,-0.02822 0.158749,-0.04233 0.05645,-0.02117 0.109363,-0.03528 0.15875,-0.04233 0.05645,-0.01411 0.105836,-0.02117 0.148167,-0.02117 0.08467,0 0.179917,0.0035 0.28575,0.01058 0.112889,0 0.239889,0.0035 0.381,0.01058 0.141111,0.0071 0.261056,0.01411 0.359833,0.02117 h 0.275167 l 0.269266,-0.04618 c 0.09172,0 0.192873,0.06029 0.291651,0.0038 0.0071,-0.0071 0.05644,-0.0035 0.148166,0.01058 0.05645,0 0.455205,0.0054 0.47637,-0.0017 l -0.302105,-0.35027 c -0.04939,-0.04939 -0.24803,-0.180747 -0.318588,-0.258361 -0.0635,-0.07761 -0.222569,-0.158686 -0.30018,-0.27863 z"
         style="stroke-width:0.26458332"
         id="path26816"
         inkscape:connector-curvature="0"
         sodipodi:nodetypes="ccsccscscsccccsccscsccccccccccccccccccccccccccccccccccccccccccccccscscscsccccccccccccccccccscccscscccccccccc" />
    </g>
  </g>
</svg>
