<?xml version="1.0" encoding="UTF-8" standalone="no"?>
<!-- Created with Inkscape (http://www.inkscape.org/) -->

<svg
   xmlns:dc="http://purl.org/dc/elements/1.1/"
   xmlns:cc="http://creativecommons.org/ns#"
   xmlns:rdf="http://www.w3.org/1999/02/22-rdf-syntax-ns#"
   xmlns:svg="http://www.w3.org/2000/svg"
   xmlns="http://www.w3.org/2000/svg"
   xmlns:sodipodi="http://sodipodi.sourceforge.net/DTD/sodipodi-0.dtd"
   xmlns:inkscape="http://www.inkscape.org/namespaces/inkscape"
   width="18.001604mm"
   height="18.61466mm"
   viewBox="0 0 18.001604 18.61466"
   version="1.1"
   id="svg16584"
   inkscape:version="0.92.3 (2405546, 2018-03-11)"
   sodipodi:docname="rune_mastery.svg">
  <defs
     id="defs16578" />
  <sodipodi:namedview
     id="base"
     pagecolor="#ffffff"
     bordercolor="#666666"
     borderopacity="1.0"
     inkscape:pageopacity="0.0"
     inkscape:pageshadow="2"
     inkscape:zoom="0.35"
     inkscape:cx="-463.12408"
     inkscape:cy="35.177309"
     inkscape:document-units="mm"
     inkscape:current-layer="layer1"
     showgrid="false"
     inkscape:window-width="1920"
     inkscape:window-height="1024"
     inkscape:window-x="-4"
     inkscape:window-y="-4"
     inkscape:window-maximized="1" />
  <metadata
     id="metadata16581">
    <rdf:RDF>
      <cc:Work
         rdf:about="">
        <dc:format>image/svg+xml</dc:format>
        <dc:type
           rdf:resource="http://purl.org/dc/dcmitype/StillImage" />
        <dc:title></dc:title>
      </cc:Work>
    </rdf:RDF>
  </metadata>
  <g
     inkscape:label="Layer 1"
     inkscape:groupmode="layer"
     id="layer1"
     transform="translate(-96.832531,-139.526)">
    <g
       aria-label="W"
       style="font-style:normal;font-variant:normal;font-weight:normal;font-stretch:normal;font-size:10.58333302px;line-height:1.25;font-family:'Glorantha Core Runes';-inkscape-font-specification:'Glorantha Core Runes';letter-spacing:0px;word-spacing:0px;fill:#000000;fill-opacity:1;stroke:none;stroke-width:0.26458332"
       id="text1235"
       transform="matrix(2.633032,0,0,2.633032,84.213098,13.682214)">
      <path
         d="m 11.576655,54.6205 q -0.211667,0.243417 -0.4445,0.243417 -0.15875,0 -0.423334,-0.03175 -0.148166,-0.02117 -0.264583,-0.03175 -0.105833,-0.01058 -0.169333,-0.01058 Q 9.8833214,54.77925 9.6716547,54.52525 9.4388214,54.641667 8.9625714,54.811 q -0.22225,0.03175 -0.5503333,-0.04233 -0.3704167,-0.07408 -0.53975,-0.07408 -0.03175,-0.05292 -0.1058333,-0.05292 -0.03175,0 -0.1481667,0.05292 -0.1058333,0.05292 -0.15875,0.05292 -0.03175,0 -0.09525,-0.02117 -0.1058333,0.105834 -0.28575,0.08467 l -0.3175,-0.03175 q -0.2010833,-0.137583 -0.3069166,-0.370417 -0.1375834,0.328084 -0.2434167,0.3175 -0.074083,0.01058 -0.1481666,0.02117 -0.074083,0 -0.15875,0 -0.074083,0 -0.2010834,-0.01058 -0.127,-0.01058 -0.3069166,-0.03175 -0.3598334,-0.03175 -0.508,-0.02117 -0.09525,-0.04233 -0.09525,-0.127 0,-0.05292 0.03175,-0.179917 0.042333,-0.127 0.03175,-0.1905 -0.010583,-0.53975 0.0635,-1.629833 0.03175,-0.0635 0.09525,-0.105833 0.074083,-0.04233 0.1375833,-0.0635 0.074083,-0.03175 0.127,-0.05292 0.0635,-0.02117 0.0635,-0.03175 -0.042333,-0.04233 -0.1058333,-0.04233 -0.03175,0 -0.1058334,0.02117 -0.074083,0.01058 -0.1164166,0.01058 -0.0635,0 -0.1164167,-0.05292 -0.010583,-0.08467 0.021167,-0.656167 0.03175,-0.381 -0.03175,-0.656166 v -0.359834 q 0,-0.232833 0.127,-0.34925 0.010583,-0.01058 0.010583,-0.05292 0,-0.04233 -0.0635,-0.127 -0.0635,-0.09525 -0.0635,-0.105834 0,-0.867833 0.1164167,-1.185333 -0.1164167,-0.148166 -0.1164167,-0.402166 0,-0.179917 0,-0.28575 0,-0.105834 -0.010583,-0.148167 0.03175,-0.105833 0.1164167,-0.105833 0.0635,0 0.1164166,0.04233 0.074083,0.127 0.254,0.127 0.1693333,0 0.34925,-0.127 0.052917,0.01058 0.15875,-0.02117 0.1058333,-0.03175 0.1481667,-0.03175 0.074083,0 0.1269999,0.0635 0.021167,0.148167 0.021167,0.370417 0.010583,0.22225 0,0.508 -0.021167,0.34925 -0.021167,0.5715 0,0.22225 0.010583,0.328083 0,0.05292 -0.021167,0.137583 -0.021167,0.07408 -0.052917,0.15875 -0.021167,0.08467 -0.042333,0.169334 -0.021167,0.07408 -0.021167,0.116416 0,0.15875 0.1269999,0.264584 0.021167,0.105833 0.021167,0.169333 0,0.0635 -0.021167,0.169333 -0.021167,0.105834 -0.052917,0.22225 -0.021167,0.105834 -0.042333,0.211667 -0.021167,0.09525 -0.021167,0.15875 0,0.05292 0,0.09525 0.010583,0.04233 0.021167,0.09525 -0.021167,0 -0.052917,0.148167 l 0.1164166,0.07408 q 0,0.423333 0.15875,1.227667 -0.0635,0.338666 -0.0635,0.28575 0,0.105833 0.09525,0.179916 0.15875,-0.03175 0.28575,-0.03175 0.22225,0 0.3386667,0.08467 0.010583,0 0.074083,0.148167 0.0635,0.137583 0.127,0.137583 0.021167,-0.137583 0.2116667,-0.211667 0.2116666,-0.09525 0.2116666,-0.211666 -0.042333,-0.09525 -0.042333,-0.22225 0,-0.09525 0.03175,-0.275167 0.03175,-0.179917 0.03175,-0.275167 0,-0.08467 -0.010583,-0.254 -0.010583,-0.179916 -0.010583,-0.275166 0,-0.306917 0.2434167,-0.550334 -0.1799167,-0.08467 -0.1693333,-0.169333 -0.010583,-0.04233 0,-0.116417 0.010583,-0.08467 0.010583,-0.201083 0.010583,-0.391583 -0.1058333,-0.560917 0.03175,-0.09525 0.4021666,-0.529166 0.052917,0 0.15875,0.03175 0.1164167,0.02117 0.2645833,0.07408 0.254,0.09525 0.4233334,0.05292 0.09525,0.105833 0.084667,0.370416 -0.021167,0.34925 0.010583,0.41275 -0.010583,0.01058 -0.010583,0.0635 0,0.04233 0.010583,0.137584 0.021167,0.08467 0.021167,0.137583 0,0.08467 -0.074083,0.15875 -0.1905,-0.05292 -0.2010833,-0.05292 0.010583,0.09525 0.021167,0.169334 0.010583,0.0635 0.021167,0.105833 0.042333,0.179917 0.15875,0.22225 0.021167,0.105833 0.021167,0.22225 0,0.105833 -0.010583,0.22225 l -0.042333,0.4445 q -0.09525,0.0635 -0.09525,0.15875 0,0.03175 0.0635,0.169333 0.074083,0.137584 0.074083,0.211667 0,0.04233 -0.010583,0.0635 0.010583,0.02117 0.28575,0.04233 l 0.1058333,0.02117 q 0.1058334,0.02117 0.254,0.07408 0.1481667,0.05292 0.3280833,0.148167 0.021167,-0.02117 0.2328334,-0.105833 0.201084,-0.07408 0.254,-0.179917 0,-0.105833 -0.02117,-0.306917 -0.01058,-0.211666 -0.01058,-0.3175 0,-0.518583 0.275167,-0.740833 l 0.03175,-0.116417 q -0.0635,0.08467 -0.179917,0.05292 -0.148166,-0.03175 -0.09525,-0.15875 0.05292,-0.1905 0.05292,-0.402167 0,-0.105833 -0.02117,-0.3175 -0.01058,-0.22225 -0.01058,-0.328083 0,-0.328083 0.09525,-0.53975 -0.08467,-0.1905 -0.08467,-0.370417 0,-0.22225 0.148167,-0.455083 -0.127,-0.116416 -0.148167,-0.486833 -0.01058,-0.211667 -0.03175,-0.338667 -0.02117,-0.137583 -0.04233,-0.1905 l 0.07408,-0.275166 q 0.04233,-0.169334 0.15875,-0.22225 0.08467,0.03175 0.201084,0 0.169333,-0.03175 0.179916,-0.03175 0.116417,0 0.179917,0.08467 0.296333,-0.116416 0.3175,-0.116416 0.05292,0 0.137583,0.05292 l 0.07408,0.09525 v 1.005417 q -0.09525,0.07408 -0.07408,0.22225 0.127,0.09525 0.127,0.243416 0,0.03175 -0.02117,0.105834 -0.01058,0.07408 -0.03175,0.15875 -0.02117,0.08467 -0.04233,0.169333 -0.01058,0.07408 -0.01058,0.127 -0.15875,0.05292 -0.433917,0.3175 0.09525,-0.03175 0.211667,0.0635 0.08467,0.05292 0.127,0.08467 0.05292,0.02117 0.07408,0.03175 0.0635,0.28575 0.0635,0.656166 0,0.127 -0.01058,0.3175 -0.01058,0.1905 -0.03175,0.4445 -0.02117,0.243417 -0.03175,0.433917 0,0.1905 0.01058,0.3175 0.0635,0.148167 0.0635,0.306917 0,0.22225 -0.137583,0.624416 0.179917,0.518584 0.148167,1.037167 z"
         style="stroke-width:0.26458332"
         id="path4021"
         inkscape:connector-curvature="0" />
    </g>
  </g>
</svg>
