<?xml version="1.0" encoding="UTF-8" standalone="no"?>
<!-- Created with Inkscape (http://www.inkscape.org/) -->

<svg
   xmlns:dc="http://purl.org/dc/elements/1.1/"
   xmlns:cc="http://creativecommons.org/ns#"
   xmlns:rdf="http://www.w3.org/1999/02/22-rdf-syntax-ns#"
   xmlns:svg="http://www.w3.org/2000/svg"
   xmlns="http://www.w3.org/2000/svg"
   xmlns:sodipodi="http://sodipodi.sourceforge.net/DTD/sodipodi-0.dtd"
   xmlns:inkscape="http://www.inkscape.org/namespaces/inkscape"
   width="16.123232mm"
   height="16.35223mm"
   viewBox="0 0 16.123232 16.35223"
   version="1.1"
   id="svg2367"
   inkscape:version="0.92.3 (2405546, 2018-03-11)"
   sodipodi:docname="rune_moon_crescent_go.svg">
  <defs
     id="defs2361" />
  <sodipodi:namedview
     id="base"
     pagecolor="#ffffff"
     bordercolor="#666666"
     borderopacity="1.0"
     inkscape:pageopacity="0.0"
     inkscape:pageshadow="2"
     inkscape:zoom="0.35"
     inkscape:cx="30.4691"
     inkscape:cy="30.901868"
     inkscape:document-units="mm"
     inkscape:current-layer="layer1"
     showgrid="false"
     inkscape:window-width="1920"
     inkscape:window-height="1024"
     inkscape:window-x="-4"
     inkscape:window-y="-4"
     inkscape:window-maximized="1" />
  <metadata
     id="metadata2364">
    <rdf:RDF>
      <cc:Work
         rdf:about="">
        <dc:format>image/svg+xml</dc:format>
        <dc:type
           rdf:resource="http://purl.org/dc/dcmitype/StillImage" />
        <dc:title></dc:title>
      </cc:Work>
    </rdf:RDF>
  </metadata>
  <g
     inkscape:label="Layer 1"
     inkscape:groupmode="layer"
     id="layer1"
     transform="translate(33.763997,-140.65722)">
    <g
       aria-label="2"
       style="font-style:normal;font-variant:normal;font-weight:normal;font-stretch:normal;font-size:10.58333302px;line-height:1.25;font-family:'Glorantha Core Runes';-inkscape-font-specification:'Glorantha Core Runes';letter-spacing:0px;word-spacing:0px;fill:#000000;fill-opacity:1;stroke:none;stroke-width:0.26458332"
       id="text831"
       transform="matrix(2.858258,0,0,2.858258,-58.59157,138.99236)">
      <path
         d="m 13.681592,5.1227245 q -0.08467,0.2434166 -0.5715,0.53975 -0.0635,0.084667 -0.296333,0.1905 -0.22225,0.1164166 -0.28575,0.2539999 -0.05292,0.084667 -0.22225,0.0635 -0.169333,-0.010583 -0.232833,0.084667 -0.0635,0.021167 -0.127,-0.052917 -0.0635,-0.084667 -0.105833,-0.084667 -0.03175,0 -0.07408,0.03175 -0.0635,0 -0.137583,-0.074083 l -0.3175,0.22225 q -0.09525,0.021167 -0.275167,-0.03175 -0.179916,-0.0635 -0.28575,-0.03175 -0.105833,-0.042333 -0.232833,-0.2010833 0.03175,-0.042333 0.05292,-0.2116666 -0.03175,-0.052917 -0.07408,-0.052917 -0.02117,0 -0.08467,0.042333 -0.05292,0.03175 -0.08467,0.03175 -0.0635,0.010583 -0.148167,0.03175 -0.07408,0.010583 -0.169333,0.052917 Q 9.966843,5.8318075 9.7445926,5.7259745 9.5329259,5.6095578 9.4905926,5.5143078 9.2577593,5.2391411 8.9296759,4.6570578 l 0.03175,-0.254 q -0.1905,-0.03175 -0.2116666,-0.22225 0.074083,-0.074083 0.0635,-0.3175 -0.021167,-0.2434166 0.03175,-0.3280833 -0.074083,-0.0635 -0.074083,-0.1799166 0,-0.0635 0.03175,-0.2010834 0.03175,-0.1375833 0.03175,-0.2010833 0,-0.1375833 -0.074083,-0.2116667 -0.074083,-0.074083 -0.074083,-0.1375833 0,-0.09525 0.1481666,-0.2434166 0.15875,-0.1693334 0.1693334,-0.2434167 0.1058333,-0.2010833 0.3492499,-0.47625 0.1905,-0.2434166 0.3915834,-0.4550833 0.09525,0.010583 0.2857504,-0.074083 0.07408,-0.16933337 0.381,-0.16933337 0.296333,-0.0105833 0.381,-0.19049999 l 0.105833,-0.0529167 q 0.05292,-0.0423333 0.127,0.0105833 0.381,-0.1905 0.73025,-0.09525 l 0.254,0.26458332 q 0.03175,0.03175 0.0635,0.03175 0.02117,0 0.0635,-0.0423333 0.05292,-0.0423333 0.08467,-0.0423333 0.09525,0.03175 0.254,0.0846667 0.15875,0.0423333 0.370417,0.09525 0.201083,0.010583 0.41275,0.2434167 0.243417,0.28575 0.34925,0.3598333 0,0.021167 0.127,0.1905 0.08467,0.1375833 0.08467,0.22225 0,0.084667 -0.0635,0.1481667 l 0.105833,0.052917 q 0.0635,0.03175 0.116417,-0.03175 0.03175,0.010583 0.148166,0.28575 0.01058,0.052917 0.03175,0.15875 0.03175,0.1058333 0.08467,0.2751667 0.08467,0.3069166 0.08467,0.4445 0,0.2010833 -0.116417,0.3704166 -0.02117,0.0635 -0.02117,0.074083 0,0.052917 0.04233,0.1481667 0.05292,0.09525 0.05292,0.1481667 0,0.1799166 -0.232833,0.53975 -0.105833,0.1481666 -0.201083,0.2751666 -0.08467,0.127 -0.169334,0.2116667 z m -2.190749,0.2116666 q -0.116417,-0.052917 -0.243417,-0.15875 -0.02117,-0.1164166 -0.137583,-0.1481666 -0.02117,0 -0.211667,-0.2434167 -0.01058,-0.03175 0.07408,-0.074083 0.09525,-0.052917 0.08467,-0.127 -0.05292,0.021167 -0.15875,0 -0.0635,-0.010583 -0.08467,-0.03175 -0.01058,-0.021167 -0.01058,-0.052917 0,-0.03175 0,-0.074083 0.01058,-0.042333 -0.01058,-0.1058333 -0.116417,-0.1693334 -0.116417,-0.254 0,-0.042333 0.0635,-0.1164167 0.0635,-0.074083 0.05292,-0.1164167 -0.116417,-0.021167 -0.22225,-0.084667 -0.01058,-0.010583 -0.03175,-0.2751667 -0.03175,-0.3915833 -0.03175,-0.3704166 0,-0.0635 0.08467,-0.1799167 0.05292,-0.084667 0.07408,-0.127 0.03175,-0.042333 0.04233,-0.074083 0.02117,-0.042333 0.03175,-0.074083 0.01058,-0.042333 0.02117,-0.1058333 0.03175,-0.03175 0.07408,-0.042333 0.04233,-0.010583 0.07408,-0.021167 0.04233,-0.021167 0.07408,-0.052917 0.04233,-0.042333 0.07408,-0.127 -0.105833,-0.042333 -0.105833,-0.1375834 0,-0.042333 0.01058,-0.1058333 0.01058,-0.074083 0.179917,-0.2328333 0.0635,-0.052917 0.137583,-0.1164167 0.07408,-0.074083 0.15875,-0.1481667 l 0.05292,0.010583 q -0.529167,-0.0635 -0.719667,0.1905 -0.148167,0.084667 -0.508,0.03175 -0.01058,0.2645833 -0.3704168,0.5609166 -0.2963333,0.2328333 -0.2963333,0.762 0,0.09525 0.03175,0.4550833 -0.03175,0.052917 -0.021167,0.3069167 0,0.1905 -0.1164166,0.2434166 0.084667,-0.021167 0.2010833,0.127 0.03175,0.09525 0.28575,0.3175 0.2116674,0.1799167 0.1693334,0.3704167 0.05292,0.1799166 0.1905,0.1799166 0.03175,0 0.105834,-0.010583 0.07408,-0.010583 0.105833,-0.010583 0.116417,0 0.179917,0.084667 0.04233,-0.03175 0.105833,-0.03175 0.04233,0 0.105833,0.03175 0.0635,0.03175 0.127,0.074083 0.0635,0.03175 0.127,0.074083 0.0635,0.03175 0.105834,0.03175 0.05292,-0.03175 0.105833,-0.021167 0.0635,0.021167 0.08467,0 z"
         style="stroke-width:0.26458332"
         id="path3952"
         inkscape:connector-curvature="0" />
    </g>
  </g>
</svg>
