<?xml version="1.0" encoding="UTF-8" standalone="no"?>
<!-- Created with Inkscape (http://www.inkscape.org/) -->

<svg
   xmlns:dc="http://purl.org/dc/elements/1.1/"
   xmlns:cc="http://creativecommons.org/ns#"
   xmlns:rdf="http://www.w3.org/1999/02/22-rdf-syntax-ns#"
   xmlns:svg="http://www.w3.org/2000/svg"
   xmlns="http://www.w3.org/2000/svg"
   xmlns:sodipodi="http://sodipodi.sourceforge.net/DTD/sodipodi-0.dtd"
   xmlns:inkscape="http://www.inkscape.org/namespaces/inkscape"
   width="16.365208mm"
   height="16.304697mm"
   viewBox="0 0 16.365208 16.304697"
   version="1.1"
   id="svg3505"
   inkscape:version="0.92.3 (2405546, 2018-03-11)"
   sodipodi:docname="rune_moon_full.svg">
  <defs
     id="defs3499" />
  <sodipodi:namedview
     id="base"
     pagecolor="#ffffff"
     bordercolor="#666666"
     borderopacity="1.0"
     inkscape:pageopacity="0.0"
     inkscape:pageshadow="2"
     inkscape:zoom="0.35"
     inkscape:cx="-466.21648"
     inkscape:cy="30.812025"
     inkscape:document-units="mm"
     inkscape:current-layer="layer1"
     showgrid="false"
     inkscape:window-width="1920"
     inkscape:window-height="1024"
     inkscape:window-x="-4"
     inkscape:window-y="-4"
     inkscape:window-maximized="1" />
  <metadata
     id="metadata3502">
    <rdf:RDF>
      <cc:Work
         rdf:about="">
        <dc:format>image/svg+xml</dc:format>
        <dc:type
           rdf:resource="http://purl.org/dc/dcmitype/StillImage" />
        <dc:title></dc:title>
      </cc:Work>
    </rdf:RDF>
  </metadata>
  <g
     inkscape:label="Layer 1"
     inkscape:groupmode="layer"
     id="layer1"
     transform="translate(-97.650729,-140.68098)">
    <g
       aria-label="4"
       style="font-style:normal;font-variant:normal;font-weight:normal;font-stretch:normal;font-size:10.58333302px;line-height:1.25;font-family:'Glorantha Core Runes';-inkscape-font-specification:'Glorantha Core Runes';letter-spacing:0px;word-spacing:0px;fill:#000000;fill-opacity:1;stroke:none;stroke-width:0.26458332"
       id="text839"
       transform="matrix(2.858258,0,0,2.858258,31.189245,139.17684)">
      <path
         d="m 28.978032,3.3414115 q 0,0.010583 -0.03175,0.042333 -0.03175,0.03175 -0.07408,0.084667 -0.03175,0.042333 -0.0635,0.09525 -0.02117,0.042333 -0.02117,0.084667 0,0.084667 0.04233,0.22225 0.04233,0.127 0.04233,0.2010833 0,0.0635 -0.01058,0.09525 -0.08467,0.1693333 -0.243417,0.41275 -0.15875,0.2328333 -0.391583,0.5609166 -0.08467,0.2116667 -0.381,0.381 -0.359834,0.1905 -0.433917,0.3175 -0.137583,-0.010583 -0.296333,0.1164167 -0.137584,0.127 -0.296334,0.1058333 -0.03175,0.010583 -0.07408,0.084667 -0.03175,0.0635 -0.08467,0.0635 -0.01058,-0.074083 -0.105833,-0.1799167 -0.03175,-0.010583 -0.105833,0.021167 -0.0635,0.021167 -0.08467,0.021167 -0.04233,0 -0.07408,-0.0635 -0.05292,-0.010583 -0.09525,0.021167 -0.04233,0.03175 -0.08467,0.074083 -0.03175,0.042333 -0.07408,0.084667 -0.03175,0.042333 -0.0635,0.042333 -0.05292,0 -0.116417,-0.03175 -0.0635,-0.084667 -0.1905,-0.084667 -0.03175,0 -0.09525,0.010583 -0.0635,0.010583 -0.09525,0.010583 -0.137583,0 -0.201083,-0.09525 -0.15875,0 -0.15875,-0.042333 0.01058,-0.042333 0.02117,-0.09525 0.01058,-0.052917 0.03175,-0.1164166 -0.08467,-0.03175 -0.15875,0.042333 -0.07408,0.0635 -0.105833,0.0635 -0.02117,0 -0.0635,-0.021167 -0.1905,0.0635 -0.211667,-0.021167 -0.01058,-0.127 -0.179916,-0.1905 -0.07408,-0.021167 -0.127,-0.042333 -0.04233,-0.021167 -0.07408,-0.042333 l -0.0635,-0.03175 q -0.05292,-0.1058333 -0.22225,-0.2434167 -0.169333,-0.1375833 -0.1905,-0.2963333 l -0.148166,-0.28575 q -0.09525,-0.1693333 -0.09525,-0.2963333 0,-0.042333 0.02117,-0.127 -0.201083,-0.0635 -0.201083,-0.1905 0,-0.042333 0.01058,-0.074083 0.01058,-0.052917 0.04233,-0.2010833 0.03175,-0.15875 0.03175,-0.2328334 0,-0.074083 -0.02117,-0.15875 -0.137583,0 -0.137583,-0.1164166 0,-0.03175 0.01058,-0.052917 0.08467,-0.052917 0.09525,-0.1693333 0.02117,-0.1164167 0.03175,-0.2328334 -0.03175,-0.042333 -0.07408,-0.09525 -0.03175,-0.0635 -0.08467,-0.1481666 0.05292,-0.052917 0.105833,-0.1481667 0.05292,-0.1058333 0.105834,-0.254 0.179916,-0.3704166 0.910166,-1.0371666 0.148167,0 0.211667,-0.1164167 0.296333,-0.042333 0.41275,-0.22224996 0.0635,0.03175 0.116417,0.03175 0.09525,0 0.275166,-0.13758333 0.169334,-0.10583333 0.296334,-0.0740833 0.05292,0 0.169333,-0.09525 0.09525,0.03175 0.22225,0 0.15875,-0.0423333 0.201083,-0.0423333 0.07408,0 0.127,0.0529167 0.07408,0.10583333 0.328084,0.22224999 -0.01058,-0.0740833 0.105833,-0.0740833 0.0635,0.0211667 0.359833,0.0740833 0.211667,0.0211667 0.328084,0.14816666 0.07408,0.11641664 0.381,0.32808334 0.296333,0.2010833 0.391583,0.381 0.105833,0.3069166 -0.03175,0.41275 -0.02117,0.052917 0.0635,0.074083 0.01058,-0.010583 0.04233,-0.010583 0.02117,0 0.04233,0 0.03175,0 0.08467,-0.010583 0.105834,-0.010583 0.137584,0.052917 0.148166,0.28575 0.232833,0.8043333 0.01058,0.052917 0.03175,0.1481667 0.02117,0.09525 0.07408,0.2116666 z m -1.005416,0.09525 q 0.02117,-0.28575 -0.0635,-0.6244166 0.03175,-0.1164167 -0.04233,-0.2116667 -0.07408,-0.1058333 -0.148166,-0.1905 0.02117,-0.0635 0.02117,-0.084667 0,-0.074083 -0.105833,-0.127 -0.105833,-0.0635 -0.105833,-0.1481667 -0.09525,-0.09525 -0.127,-0.3598333 -0.03175,-0.2751667 -0.169334,-0.34925 l 0.0635,0.2328333 q 0.02117,0.084667 -0.0635,0.1164167 -0.0635,0.021167 -0.127,0 -0.338666,-0.2116667 -0.508,-0.2116667 -0.05292,0 -0.116416,0.021167 -0.04233,0.074083 -0.04233,0.1905 0,0.084667 0.02117,0.2434166 0.03175,0.15875 0.03175,0.2328334 0,0.2328333 -0.232833,0.3069166 -0.08467,0.074083 -0.01058,0.1375834 0.232834,0.09525 0.232834,0.3598333 0,0.052917 -0.01058,0.1799166 -0.01058,0.1164167 -0.01058,0.1693334 0,0.1481666 0.04233,0.2328333 0.03175,0.084667 -0.05292,0.15875 -0.07408,0.0635 -0.07408,0.127 0.116417,0.2116666 0.116417,0.5291666 0,0.03175 0,0.084667 0,0.052917 -0.01058,0.127 V 4.780745 q 0,0.254 0.0635,0.4445 0.09525,0.042333 0.169333,-0.03175 0.0635,0 0.127,-0.03175 0.07408,-0.042333 0.137583,-0.084667 0.07408,-0.042333 0.137584,-0.084667 0.0635,-0.042333 0.105833,-0.052917 0.116417,-0.084667 0.232833,-0.15875 0.127,-0.084667 0.254,-0.052917 -0.02117,-0.0635 -0.02117,-0.1164167 0,-0.074083 0.07408,-0.2010833 0.07408,-0.127 0.08467,-0.1905 0.02117,-0.042333 0.05292,-0.28575 0.02117,-0.042333 0.03175,-0.1164167 0.01058,-0.074083 0.01058,-0.1481666 0.01058,-0.074083 0.01058,-0.1375834 0.01058,-0.0635 0.02117,-0.09525 z m -2.12725,0.4233334 q -0.07408,0.021167 -0.169334,-0.010583 -0.116416,-0.7196666 0.03175,-1.1218333 -0.105833,-0.2751666 -0.01058,-0.9101666 -0.08467,-0.03175 -0.08467,-0.15875 0.01058,-0.1058333 0.01058,-0.1481667 0,-0.052917 0,-0.042333 -0.0635,-0.021167 -0.08467,-0.021167 -0.03175,0 -0.08467,0.03175 -0.04233,0.03175 -0.09525,0.074083 -0.04233,0.03175 -0.08467,0.074083 -0.04233,0.03175 -0.07408,0.042333 -0.05292,0.0635 -0.09525,0.0635 -0.03175,0 -0.116416,-0.052917 -0.08467,-0.0635 -0.127,-0.042333 -0.01058,0.042333 -0.02117,0.1164167 -0.01058,0.0635 -0.02117,0.15875 -0.0635,0.052917 -0.148166,0.2434166 -0.08467,0.1799167 -0.1905,0.22225 -0.01058,0.0635 -0.211667,0.2434167 -0.15875,0.127 -0.127,0.28575 0.09525,0.5291666 0.03175,1.0054166 -0.116417,0.1799167 -0.116417,0.2010833 0.105834,-0.021167 0.127,-0.021167 0.1905,0 0.3175,0.2645833 0.07408,0.1693333 0.137584,0.2645833 0.0635,0.09525 0.105833,0.1164167 0.03175,0.042333 0.0635,0.1164167 0.03175,0.0635 0.07408,0.1481666 0.04233,0.03175 0.179917,-0.042333 l 0.264583,0.15875 q 0.1905,0.084667 0.296334,0.074083 -0.02117,-0.1058333 -0.02117,-0.15875 0,-0.1058333 0.04233,-0.3175 0.05292,-0.22225 0.05292,-0.3280833 0,-0.052917 -0.02117,-0.15875 0.0635,-0.2010833 0.169334,-0.3704166 z"
         style="stroke-width:0.26458332"
         id="path3958"
         inkscape:connector-curvature="0" />
    </g>
  </g>
</svg>
