<?xml version="1.0" encoding="UTF-8" standalone="no"?>
<!-- Created with Inkscape (http://www.inkscape.org/) -->

<svg
   xmlns:dc="http://purl.org/dc/elements/1.1/"
   xmlns:cc="http://creativecommons.org/ns#"
   xmlns:rdf="http://www.w3.org/1999/02/22-rdf-syntax-ns#"
   xmlns:svg="http://www.w3.org/2000/svg"
   xmlns="http://www.w3.org/2000/svg"
   xmlns:sodipodi="http://sodipodi.sourceforge.net/DTD/sodipodi-0.dtd"
   xmlns:inkscape="http://www.inkscape.org/namespaces/inkscape"
   width="16.189741mm"
   height="16.343588mm"
   viewBox="0 0 16.189741 16.343588"
   version="1.1"
   id="svg4643"
   inkscape:version="0.92.3 (2405546, 2018-03-11)"
   sodipodi:docname="rune_moon_crescent_come.svg">
  <defs
     id="defs4637" />
  <sodipodi:namedview
     id="base"
     pagecolor="#ffffff"
     bordercolor="#666666"
     borderopacity="1.0"
     inkscape:pageopacity="0.0"
     inkscape:pageshadow="2"
     inkscape:zoom="0.35"
     inkscape:cx="-466.54807"
     inkscape:cy="30.885523"
     inkscape:document-units="mm"
     inkscape:current-layer="layer1"
     showgrid="false"
     inkscape:window-width="1920"
     inkscape:window-height="1024"
     inkscape:window-x="-4"
     inkscape:window-y="-4"
     inkscape:window-maximized="1" />
  <metadata
     id="metadata4640">
    <rdf:RDF>
      <cc:Work
         rdf:about="">
        <dc:format>image/svg+xml</dc:format>
        <dc:type
           rdf:resource="http://purl.org/dc/dcmitype/StillImage" />
        <dc:title></dc:title>
      </cc:Work>
    </rdf:RDF>
  </metadata>
  <g
     inkscape:label="Layer 1"
     inkscape:groupmode="layer"
     id="layer1"
     transform="translate(-97.738462,-140.66154)">
    <g
       aria-label="6"
       style="font-style:normal;font-variant:normal;font-weight:normal;font-stretch:normal;font-size:10.58333302px;line-height:1.25;font-family:'Glorantha Core Runes';-inkscape-font-specification:'Glorantha Core Runes';letter-spacing:0px;word-spacing:0px;fill:#000000;fill-opacity:1;stroke:none;stroke-width:0.26458332"
       id="text847"
       transform="matrix(2.858258,0,0,2.858258,-12.642698,139.16606)">
      <path
         d="m 44.081445,3.7224048 q -0.01058,0.052917 0.01058,0.1164167 0.02117,0.0635 0.04233,0.127 0.03175,0.0635 0.05292,0.1164167 0.03175,0.052917 0.03175,0.084667 0,0.074083 -0.09525,0.1481667 -0.01058,0.0635 -0.0635,0.1481667 l -0.09525,0.127 q -0.08467,0.2116666 -0.306916,0.4339166 -0.306917,0.3280833 -0.34925,0.3915833 -0.105834,0.084667 -0.243417,0.1905 -0.127,0.09525 -0.306917,0.2010833 -0.137583,0.084667 -0.275166,0.1693334 -0.137584,0.084667 -0.28575,0.1693333 -0.05292,0.03175 -0.105834,0.03175 -0.05292,0 -0.137583,-0.042333 -0.08467,-0.052917 -0.127,-0.052917 -0.0635,0 -0.116417,0.042333 -0.05292,0 -0.09525,-0.052917 -0.04233,-0.052917 -0.0635,-0.0635 -0.105833,0.22225 -0.264583,0.2328333 -0.560916,-0.0635 -0.878416,-0.2010833 0,-0.052917 0.07408,-0.1164167 0.08467,-0.074083 0.08467,-0.127 0,-0.042333 -0.01058,-0.052917 -0.05292,-0.052917 -0.08467,-0.052917 -0.03175,0 -0.127,0.052917 -0.08467,0.042333 -0.137584,0.03175 -0.211666,0.1269999 -0.22225,0.1269999 -0.03175,0 -0.04233,-0.010583 -0.01058,-0.021167 -0.05292,-0.052917 -0.03175,-0.03175 -0.105833,-0.0635 -0.0635,-0.042333 -0.201083,-0.084667 -0.22225,-0.0635 -0.22225,-0.2328333 -0.01058,-0.03175 -0.07408,-0.0635 -0.05292,-0.03175 -0.0635,-0.0635 -0.03175,-0.1375834 -0.22225,-0.4233334 -0.169333,-0.2328333 -0.169333,-0.4127499 0,-0.042333 0.02117,-0.127 -0.05292,-0.074083 -0.137584,-0.1164167 -0.08467,-0.052917 -0.04233,-0.15875 0,-0.09525 0.03175,-0.2645833 0.04233,-0.1693334 0.04233,-0.254 0,-0.084667 -0.01058,-0.1164167 -0.04233,-0.021167 -0.08467,-0.042333 -0.04233,-0.021167 -0.03175,-0.074083 0,-0.084667 0.03175,-0.2434167 0.04233,-0.1693333 0.04233,-0.254 0,-0.127 -0.04233,-0.2116667 -0.02117,-0.084667 0.04233,-0.15875 0.0635,-0.084667 0.116416,-0.1799166 0.07408,-0.15875 0.169334,-0.2963333 0.105833,-0.1481667 0.201083,-0.2963334 0.22225,-0.34925 0.486833,-0.5185833 0.116417,0 0.3175,-0.1481666 0.201084,-0.15875004 0.3175,-0.15875004 0.07408,0 0.105834,0.0105833 0.550333,-0.30691666 1.185333,-0.33866666 0.01058,-0.0423333 0.127,-0.0105833 l 0.179916,0.23283332 q 0.02117,0 0.07408,-0.0423333 0.05292,-0.0529167 0.07408,-0.0529167 0.03175,0 0.05292,0.03175 0.0635,0.03175 0.201083,0.0529167 0.137583,0.0211667 0.201083,0.0635 0.04233,-0.0105833 0.09525,0.0211667 0.0635,0.0211667 0.105834,0.0635 0.05292,0.03175 0.09525,0.0635 0.05292,0.03175 0.08467,0.03175 0.04233,0 0.07408,-0.0105834 0.0635,0.03175 0.116416,0.09525 0.0635,0.052917 0.116417,0.1164167 0.0635,0.0635 0.116417,0.1164167 0.05292,0.052917 0.105833,0.074083 0.09525,0.127 0.201083,0.2645833 0.116417,0.127 0.105834,0.2963333 -0.04233,0.127 -0.04233,0.1375834 0.04233,0.03175 0.169334,0.010583 0.09525,-0.03175 0.148166,-0.010583 0.02117,0.1164166 0.0635,0.28575 0.05292,0.1693333 0.137584,0.3915833 -0.01058,0.03175 -0.01058,0.084667 0,0.074083 0.04233,0.22225 0.05292,0.1481667 0.05292,0.2328334 0,0.052917 -0.02117,0.1375833 -0.01058,0.0635 -0.105834,0.1375833 -0.09525,0.0635 -0.07408,0.1375833 z m -0.804333,0.03175 q 0.0635,-0.1375833 0.0635,-0.3492499 0,-0.2963334 -0.137584,-0.6455834 -0.02117,-0.074083 -0.05292,-0.1799166 -0.02117,-0.1164167 -0.05292,-0.2645833 -0.07408,-0.010583 -0.127,-0.1164167 -0.04233,-0.1481667 -0.0635,-0.1693333 -0.127,-0.0635 -0.15875,-0.2751667 -0.03175,-0.2434167 -0.116417,-0.3280833 -0.01058,0.03175 -0.01058,0.074083 -0.01058,0.03175 -0.01058,0.084667 0,0.052917 -0.01058,0.1164166 -0.03175,0.03175 -0.07408,0.03175 -0.05292,0 -0.148167,-0.052917 -0.09525,-0.0635 -0.148166,-0.0635 -0.01058,-0.010583 -0.04233,-0.052917 -0.03175,-0.052917 -0.08467,-0.042333 -0.05292,0.042333 -0.127,0.042333 -0.04233,0 -0.148167,-0.03175 -0.09525,-0.03175 -0.148167,-0.03175 -0.08467,0 -0.15875,0.03175 0.07408,-0.021167 0.169334,0.084667 0.105833,0.09525 0.1905,0.22225 0.127,0.03175 0.169333,0.2010833 0.02117,0.084667 -0.105833,0.1905 0.0635,0.084667 0.137583,0.084667 0.08467,-0.010583 0.105833,0.1058333 0.09525,0.127 -0.09525,0.22225 0,0.042333 0.05292,0.074083 0.0635,0.021167 0.116417,0.042333 -0.03175,0.1058334 0.116416,0.1058334 l -0.02117,0.2963333 q 0.137583,0.1905 0.116416,0.3280833 -0.01058,0.042333 -0.05292,0.1058333 -0.03175,0.052917 -0.02117,0.1481667 -0.05292,0.1164167 -0.09525,0.2963333 -0.03175,0.1164167 -0.296333,0.074083 0,0.03175 0.03175,0.074083 0.03175,0.03175 0.07408,0.074083 0.04233,0.03175 0.07408,0.0635 0.04233,0.03175 0.04233,0.042333 -0.02117,0.074083 -0.105834,0.15875 -0.08467,0.084667 -0.105833,0.1799166 -0.05292,0.1481667 -0.275167,0.28575 0,0.0635 -0.03175,0.1058333 -0.02117,0.03175 -0.07408,0.0635 -0.04233,0.021167 -0.09525,0.0635 -0.04233,0.03175 -0.07408,0.09525 0.137583,0.010583 0.391583,-0.052917 0.148167,-0.042333 0.243417,-0.052917 0.09525,-0.021167 0.148166,-0.03175 0.0635,-0.021167 0.148167,-0.0635 0.09525,-0.052917 0.211667,-0.1164167 0.07408,-0.052917 0.169333,-0.1058333 0.105833,-0.0635 0.254,-0.1375833 0.03175,-0.042333 0.01058,-0.127 -0.03175,-0.074083 -0.01058,-0.1375833 0.127,-0.1058334 0.15875,-0.3598334 0.04233,-0.2751666 0.08467,-0.381 z"
         style="stroke-width:0.26458332"
         id="path3961"
         inkscape:connector-curvature="0" />
    </g>
  </g>
</svg>
