<?xml version="1.0" encoding="UTF-8" standalone="no"?>
<!-- Created with Inkscape (http://www.inkscape.org/) -->

<svg
   xmlns:dc="http://purl.org/dc/elements/1.1/"
   xmlns:cc="http://creativecommons.org/ns#"
   xmlns:rdf="http://www.w3.org/1999/02/22-rdf-syntax-ns#"
   xmlns:svg="http://www.w3.org/2000/svg"
   xmlns="http://www.w3.org/2000/svg"
   xmlns:sodipodi="http://sodipodi.sourceforge.net/DTD/sodipodi-0.dtd"
   xmlns:inkscape="http://www.inkscape.org/namespaces/inkscape"
   width="11.948696mm"
   height="20.738474mm"
   viewBox="0 0 11.948696 20.738474"
   version="1.1"
   id="svg24001"
   inkscape:version="0.92.3 (2405546, 2018-03-11)"
   sodipodi:docname="rune_odayla.svg">
  <defs
     id="defs23995" />
  <sodipodi:namedview
     id="base"
     pagecolor="#ffffff"
     bordercolor="#666666"
     borderopacity="1.0"
     inkscape:pageopacity="0.0"
     inkscape:pageshadow="2"
     inkscape:zoom="0.35"
     inkscape:cx="-474.56264"
     inkscape:cy="39.190818"
     inkscape:document-units="mm"
     inkscape:current-layer="layer1"
     showgrid="false"
     inkscape:window-width="1920"
     inkscape:window-height="1024"
     inkscape:window-x="-4"
     inkscape:window-y="-4"
     inkscape:window-maximized="1" />
  <metadata
     id="metadata23998">
    <rdf:RDF>
      <cc:Work
         rdf:about="">
        <dc:format>image/svg+xml</dc:format>
        <dc:type
           rdf:resource="http://purl.org/dc/dcmitype/StillImage" />
        <dc:title></dc:title>
      </cc:Work>
    </rdf:RDF>
  </metadata>
  <g
     inkscape:label="Layer 1"
     inkscape:groupmode="layer"
     id="layer1"
     transform="translate(-99.858985,-138.4641)">
    <g
       aria-label="C"
       style="font-style:normal;font-variant:normal;font-weight:normal;font-stretch:normal;font-size:10.58333302px;line-height:1.25;font-family:'Glorantha Core Runes';-inkscape-font-specification:'Glorantha Core Runes';letter-spacing:0px;word-spacing:0px;fill:#000000;fill-opacity:1;stroke:none;stroke-width:0.26458332"
       id="text1445"
       transform="matrix(2.858258,0,0,2.858258,37.306586,-86.309661)">
      <path
         d="m 26.001739,80.481625 q -0.09525,0.04233 -0.201083,0.127 -0.09525,0.08467 -0.211667,0.211667 -0.127,0.148166 -0.232833,0.232833 -0.09525,0.08467 -0.15875,0.127 -0.137584,0 -0.264584,0.04233 0.04233,0.05292 0.04233,0.116417 0,0.116417 -0.148167,0.264583 l -0.22225,0.211667 -0.05292,-0.01058 q -0.02117,0.01058 -0.08467,0.0635 -0.05292,0.04233 -0.15875,0.148166 -0.254,0.05292 -0.381,0.01058 0.04233,0.07408 0.04233,0.15875 0,0.201083 -0.497417,0.5715 0.07408,0.05292 0.22225,0.22225 0.148167,0.179916 0.254,0.211666 0.0635,0.105834 0.09525,0.211667 -0.05292,0.05292 -0.0635,0.116417 0.04233,0.05292 0.08467,0.116416 0.05292,0.05292 0.127,0.127 0.04233,-0.01058 0.211667,-0.01058 0.201083,0.105833 0.79375,0.783166 0.01058,0.05292 0.05292,0.15875 0.105834,0.03175 0.306917,0.211667 l 0.296333,0.275167 0.01058,0.0635 q -0.05292,0.09525 -0.254,0.28575 -0.201084,0.169333 -0.232834,0.328083 -0.15875,0.05292 -0.211666,0.03175 l -0.1905,-0.09525 q -0.169334,-0.34925 -0.169334,-0.328083 0,-0.05292 0.137584,-0.296334 -0.15875,0.02117 -0.34925,0.09525 -0.275167,-0.116416 -0.3175,-0.328083 -0.08467,-0.05292 -0.127,-0.201083 -0.04233,-0.169334 -0.116417,-0.1905 -0.179917,0.02117 -0.4445,-0.232834 -0.264583,-0.254 -0.264583,-0.412749 0.09525,-0.04233 0.201083,-0.127 l -0.02117,-0.02117 q -0.09525,0.02117 -0.53975,-0.07408 -0.85725,-0.645584 -0.762,-0.878417 l 0.328084,-0.306917 q 0.211666,-0.1905 0.359833,-0.243416 0.01058,-0.07408 -0.02117,-0.148167 -0.22225,-0.1905 -0.22225,-0.28575 0,-0.07408 0.04233,-0.15875 0,-0.0635 -0.02117,-0.127 -0.0635,-0.02117 -0.148167,0.01058 -0.137583,0.05292 -0.137583,0.05292 -0.09525,-0.05292 -0.497417,-0.508 0.05292,-0.05292 0.137584,-0.116417 0.09525,-0.07408 0.211666,-0.15875 l 0.07408,0.03175 q 0.02117,-0.105833 0.05292,-0.211666 0.03175,-0.116417 0.127,-0.137584 0.137584,0.08467 0.4445,0.465667 0.254,0.3175 0.486834,0.41275 l 0.09525,0.127 0.0635,0.01058 q 0.04233,-0.07408 0.3175,-0.3175 l -0.3175,-0.296333 q -0.105834,-0.09525 -0.148167,-0.179917 -0.04233,-0.09525 -0.05292,-0.179916 -0.15875,0.02117 -0.497416,-0.370417 l -0.01058,-0.03175 q 0.03175,-0.04233 0.116417,-0.09525 0.02117,-0.0635 0.148167,-0.116417 0.137583,-0.0635 0.169333,-0.137583 -0.02117,-0.15875 0.07408,-0.264583 0.105834,0.137583 0.328084,0.3175 0.03175,0.03175 0.0635,0.08467 0.04233,0.04233 0.08467,0.116417 l -0.05292,0.0635 -0.02117,0.01058 q 0,0.0635 0.179917,0.15875 0.05292,-0.09525 0.116416,-0.116416 0.0635,0.0635 0.169334,0.179916 0.105833,0.116417 0.254,0.296334 0.211666,-0.05292 0.243416,-0.15875 -0.07408,-0.03175 -0.08467,-0.105834 l 0.15875,-0.169333 q -0.179917,-0.137583 -0.232834,-0.34925 -0.09525,0.01058 -0.3175,-0.169333 -0.201083,-0.1905 -0.275166,-0.201084 l -0.127,-0.28575 q 0.179916,-0.328083 0.296333,-0.306916 0.08467,-0.1905 0.179917,-0.243417 l 0.08467,0.01058 0.47625,0.486834 q 0,0.07408 0.07408,0.137583 0.232833,-0.04233 0.328083,0.328083 l -0.02117,0.08467 0.02117,0.08467 q 0.05292,-0.05292 0.105833,-0.05292 0.09525,0 0.243417,0.127 0.05292,0.05292 0.105833,0.09525 0.05292,0.04233 0.105834,0.08467 0.04233,0.05292 0.08467,0.127 0.05292,0.07408 0.116417,0.179916 -0.02117,0.08467 -0.0635,0.148167 z"
         style="stroke-width:0.26458332"
         id="path3976"
         inkscape:connector-curvature="0" />
    </g>
  </g>
</svg>
