<?xml version="1.0" encoding="UTF-8" standalone="no"?>
<!-- Created with Inkscape (http://www.inkscape.org/) -->

<svg
   xmlns:dc="http://purl.org/dc/elements/1.1/"
   xmlns:cc="http://creativecommons.org/ns#"
   xmlns:rdf="http://www.w3.org/1999/02/22-rdf-syntax-ns#"
   xmlns:svg="http://www.w3.org/2000/svg"
   xmlns="http://www.w3.org/2000/svg"
   xmlns:sodipodi="http://sodipodi.sourceforge.net/DTD/sodipodi-0.dtd"
   xmlns:inkscape="http://www.inkscape.org/namespaces/inkscape"
   width="23.141176mm"
   height="22.961685mm"
   viewBox="0 0 23.141176 22.961685"
   version="1.1"
   id="svg12609"
   inkscape:version="0.92.3 (2405546, 2018-03-11)"
   sodipodi:docname="rune_shargash.svg">
  <defs
     id="defs12603" />
  <sodipodi:namedview
     id="base"
     pagecolor="#ffffff"
     bordercolor="#666666"
     borderopacity="1.0"
     inkscape:pageopacity="0.0"
     inkscape:pageshadow="2"
     inkscape:zoom="0.35"
     inkscape:cx="-453.41151"
     inkscape:cy="43.39216"
     inkscape:document-units="mm"
     inkscape:current-layer="layer1"
     showgrid="false"
     inkscape:window-width="1920"
     inkscape:window-height="1024"
     inkscape:window-x="-4"
     inkscape:window-y="-4"
     inkscape:window-maximized="1" />
  <metadata
     id="metadata12606">
    <rdf:RDF>
      <cc:Work
         rdf:about="">
        <dc:format>image/svg+xml</dc:format>
        <dc:type
           rdf:resource="http://purl.org/dc/dcmitype/StillImage" />
        <dc:title></dc:title>
      </cc:Work>
    </rdf:RDF>
  </metadata>
  <g
     inkscape:label="Layer 1"
     inkscape:groupmode="layer"
     id="layer1"
     transform="translate(-94.262747,-137.35249)">
    <g
       aria-label="k"
       style="font-style:normal;font-variant:normal;font-weight:normal;font-stretch:normal;font-size:10.58333302px;line-height:1.25;font-family:'Glorantha Core Runes';-inkscape-font-specification:'Glorantha Core Runes';letter-spacing:0px;word-spacing:0px;fill:#000000;fill-opacity:1;stroke:none;stroke-width:0.26458332"
       id="text975"
       transform="matrix(2.858258,0,0,2.858258,-137.27838,74.375315)">
      <path
         d="m 89.104029,26.053475 -0.127,1.090083 c -0.07055,0.09878 -0.15875,0.282222 -0.264583,0.550333 -0.09172,0.254 -0.183444,0.440972 -0.275167,0.560917 l -0.465666,0.645583 c -0.07761,0.03528 -0.1905,0.102308 -0.338667,0.201084 -0.141111,0.09172 -0.321028,0.208139 -0.53975,0.34925 -0.310445,0.204611 -0.652639,0.380999 -1.026583,0.529166 h -0.03175 c -0.239889,0 -0.416278,0.02822 -0.529167,0.08467 -0.264109,0.02522 -0.300394,-0.164781 -0.478712,-0.166829 -0.120343,-0.0014 0,0.183328 -0.420871,0.166829 -0.105833,-0.04939 -0.292806,-0.09525 -0.560917,-0.137583 -0.261055,-0.04233 -0.455083,-0.09525 -0.582083,-0.15875 -0.09878,-0.0071 -0.310445,-0.134053 -0.635,-0.381 -0.105833,-0.07761 -0.218722,-0.155223 -0.338667,-0.232834 -0.112889,-0.08467 -0.229305,-0.169333 -0.34925,-0.254 -0.197555,-0.282222 -0.363361,-0.532694 -0.497416,-0.751416 -0.08171,-0.06378 0.109999,-0.237225 0.07873,-0.436236 -0.09356,0.02615 -0.3064,0.06423 -0.396233,-0.135264 -0.211667,-0.472723 -0.3175,-0.980723 -0.3175,-1.524 0,-0.934702 0.238615,-1.706016 0.863759,-2.455602 0.238152,0.05007 0.322501,0.362235 0.20402,-0.220473 0.30532,-0.337392 0.676114,-0.655394 1.112387,-0.954008 0.02822,-0.0071 0.09878,-0.02822 0.211667,-0.0635 0.112889,-0.03528 0.271639,-0.08467 0.47625,-0.148167 0.289277,-0.09172 0.529166,-0.141111 0.719666,-0.148167 0.14981,-0.0028 0.112225,0.07372 0.167006,0.11114 0.271734,-0.04634 -0.08804,-0.19396 0.923081,-0.12172 0.197555,0.07761 0.419805,0.130528 0.66675,0.15875 l 0.137583,0.105833 0.201083,0.01058 c 0.08467,0.05645 0.162278,0.0882 0.232834,0.09525 0.221534,0.08746 0.594083,0.335116 0.919769,0.656373 0.292807,0.288825 0.540393,0.640527 0.731231,0.931127 0.05465,0.284621 -0.07904,0.445911 -0.08475,0.559638 -0.0044,0.08768 0.208669,0.01745 0.359916,0.212945 0.162278,0.4445 0.243417,0.758472 0.243417,0.941916 0,0.03528 -0.0071,0.07409 -0.02117,0.116417 z m -2.419957,-2.640128 c -0.0049,-0.01269 -0.08477,-0.06569 -0.310543,-0.143293 -0.08467,-0.01411 -0.1905,-0.03175 -0.3175,-0.05292 -0.127,-0.02822 -0.275167,-0.05997 -0.4445,-0.09525 l 0.06,0.14673 c 0.04023,0.07047 0.03701,0.131274 -0.06369,0.170421 0.07372,0.0452 0.153586,0.04731 0.212776,0.194182 l 0.286155,0.699835 c 0.08636,0.138355 0.0018,0.199003 -0.08033,0.260787 0.09467,0.09853 0.17917,0.0399 0.283105,0.204083 0.0422,0.06666 0.06992,0.193624 0.120509,0.359182 l 0.363764,0.856238 c 0.05462,0.201533 -0.192426,0.345488 -0.192426,0.345488 0.107473,0.08864 0.278973,-0.01991 0.381664,0.117322 l 0.57581,1.408231 c 0.09628,-0.05131 0.09711,-0.07622 0.15875,-0.127 0.01116,0.03415 0.184531,0.09858 0.191581,0.09153 -0.07236,-0.160729 -0.0966,-0.201309 -0.04342,-0.282032 l 0.105834,-0.148166 c 0.134055,-0.451556 0.226525,-0.896796 0.201083,-1.3335 -0.02946,-0.505707 -9.41e-4,-0.570971 -0.08575,-0.836821 -0.06679,-0.209351 -0.154527,-0.293699 -0.254801,-0.482378 -0.09461,-0.178014 -0.265183,-0.441222 -0.375032,-0.589832 -0.223142,-0.301877 -0.448418,-0.535015 -0.646033,-0.648748 -0.07367,-0.05348 0.130642,-0.132379 -0.01614,-0.141309 -0.05097,-0.0057 -0.07744,0.02785 -0.110866,0.02722 z m -1.644043,0.597545 c -0.04417,0.123681 -0.130984,0.233016 -0.193942,0.400299 -0.05843,0.155241 -0.09168,0.36617 -0.166569,0.540637 -0.05248,0.122272 -0.131198,0.20279 -0.184272,0.342355 -0.146267,0.214966 -0.272521,0.122897 -0.297658,0.197901 -0.02454,0.07323 0.143922,0.104805 0.196858,0.243891 -0.06277,0.16228 -0.129192,0.333363 -0.199269,0.51325 -0.08245,0.211652 -0.186628,0.385492 -0.279197,0.621517 -0.125749,0.516403 -0.26356,0.247259 -0.304121,0.369573 -0.04598,0.138652 0.198055,0.0037 0.02168,0.440855 -0.07394,0.187468 -0.158814,0.347898 -0.237972,0.547951 -0.03616,0.09139 -0.06453,0.217422 -0.101785,0.311437 0.197556,0.105833 0.506197,0.402255 1.11125,0.508 0.202475,0.0518 0.230012,0.124938 0.26258,0.1295 0.164024,-0.04167 0.096,-0.100522 0.492073,-0.125 0.268111,0 0.180208,-0.03272 0.652931,-0.131501 l 0.592666,-0.127 c 0.02117,-0.04939 0.15875,-0.134053 0.41275,-0.254 l -0.427323,-1.07159 c -0.07509,-0.156398 1.7e-5,-0.162572 0.0775,-0.20512 0.01632,-0.08928 -0.06288,-0.09495 -0.236633,-0.200283 l -0.320648,-0.920939 c -0.07005,-0.237555 0.05617,-0.320248 0.01589,-0.45659 -0.106732,-0.06681 -0.27136,0.04651 -0.314669,-0.21761 l -0.232487,-0.592287 c -0.02953,-0.100846 0.04742,-0.13578 0.07197,-0.20315 -0.06264,-0.03074 -0.133358,0.06636 -0.187913,-0.09222 z m -0.53975,-0.889 c -0.500944,0.127 -0.772583,0.176389 -0.814916,0.148166 -0.403295,0.177205 -0.736999,0.51008 -1.074938,0.944399 -0.148455,0.190795 -0.308333,0.101556 -0.354639,0.178103 -0.04971,0.08218 0.216098,0.06529 0.07242,0.290959 -0.262442,0.412207 -0.371083,0.891222 -0.442007,1.369956 0.03528,0.04939 0.05292,0.09877 0.05292,0.148166 0,0.02822 -0.0071,0.07055 -0.02117,0.127 0.01411,0.08467 0.03528,0.1905 0.0635,0.3175 0.03528,0.119945 0.07409,0.261056 0.116417,0.423334 l 0.148166,0.232833 c 0.0635,0.105833 0.09525,0.186972 0.09525,0.243417 0,0.02117 -0.0071,0.04586 -0.02117,0.07408 0.155222,0.112889 0.232833,0.201083 0.232833,0.264583 l 0.264966,-0.648012 0.160975,-0.303835 0.140615,-0.433748 c 0.04814,-0.145482 0.113502,-0.09292 0.171512,-0.124902 -0.0043,-0.08887 -0.06933,-0.167619 -0.01132,-0.266875 l 0.147391,-0.435466 0.210397,-0.439557 0.218478,-0.53432 0.248589,-0.552641 0.111572,-0.430763 z"
         style="stroke-width:0.26458332"
         id="path4048"
         inkscape:connector-curvature="0"
         sodipodi:nodetypes="ccccccccscscccccccccsccccccccccccscscscccccccccccscccccccccsssscccccccscccscscccccccccccccccccccsssccccscccccccccccccccc" />
    </g>
  </g>
</svg>
