<?xml version="1.0" encoding="UTF-8" standalone="no"?>
<!-- Created with Inkscape (http://www.inkscape.org/) -->

<svg
   xmlns:dc="http://purl.org/dc/elements/1.1/"
   xmlns:cc="http://creativecommons.org/ns#"
   xmlns:rdf="http://www.w3.org/1999/02/22-rdf-syntax-ns#"
   xmlns:svg="http://www.w3.org/2000/svg"
   xmlns="http://www.w3.org/2000/svg"
   xmlns:sodipodi="http://sodipodi.sourceforge.net/DTD/sodipodi-0.dtd"
   xmlns:inkscape="http://www.inkscape.org/namespaces/inkscape"
   width="16.573692mm"
   height="10.708481mm"
   viewBox="0 0 16.573692 10.708481"
   version="1.1"
   id="svg14308"
   inkscape:version="0.92.3 (2405546, 2018-03-11)"
   sodipodi:docname="rune_stasis.svg">
  <defs
     id="defs14302" />
  <sodipodi:namedview
     id="base"
     pagecolor="#ffffff"
     bordercolor="#666666"
     borderopacity="1.0"
     inkscape:pageopacity="0.0"
     inkscape:pageshadow="2"
     inkscape:zoom="0.35"
     inkscape:cx="-465.82249"
     inkscape:cy="20.2365"
     inkscape:document-units="mm"
     inkscape:current-layer="layer1"
     showgrid="false"
     inkscape:window-width="1920"
     inkscape:window-height="1024"
     inkscape:window-x="-4"
     inkscape:window-y="-4"
     inkscape:window-maximized="1" />
  <metadata
     id="metadata14305">
    <rdf:RDF>
      <cc:Work
         rdf:about="">
        <dc:format>image/svg+xml</dc:format>
        <dc:type
           rdf:resource="http://purl.org/dc/dcmitype/StillImage" />
        <dc:title></dc:title>
      </cc:Work>
    </rdf:RDF>
  </metadata>
  <g
     inkscape:label="Layer 1"
     inkscape:groupmode="layer"
     id="layer1"
     transform="translate(-97.546487,-143.47909)">
    <g
       aria-label="c"
       style="font-style:normal;font-variant:normal;font-weight:normal;font-stretch:normal;font-size:10.58333302px;line-height:1.25;font-family:'Glorantha Core Runes';-inkscape-font-specification:'Glorantha Core Runes';letter-spacing:0px;word-spacing:0px;fill:#000000;fill-opacity:1;stroke:none;stroke-width:0.26458332"
       id="text991"
       transform="matrix(2.858258,0,0,2.858258,46.315105,36.743399)">
      <path
         d="m 23.711937,40.941257 q -0.148167,0.116417 -1.449917,0.116417 -0.92075,0 -0.973666,-0.08467 0,-0.116416 0.0635,-0.179916 -0.08467,0.05292 -0.211667,0.127 -0.116417,0.0635 -0.296333,0.148166 l -0.127,-0.04233 -0.148167,0.0635 q -0.73025,-0.05292 -1.513417,-0.127 -0.582083,0.1905 -1.100666,0.09525 -0.09525,-1.153583 0.105833,-1.672166 l 0.179917,-0.08467 -0.05292,-0.127 q 0.09525,-0.28575 0.391583,-0.635 0.148167,-0.179917 0.28575,-0.306917 0.148167,-0.127 0.264584,-0.211666 l 0.1905,0.01058 -0.03175,-0.09525 q 0.08467,-0.179917 0.518583,-0.381 0.41275,-0.179917 0.60325,-0.179917 0.09525,0 0.127,0.264584 0.137583,-0.296334 0.508,-0.296334 0.179917,0 0.243417,0.148167 l 0.148166,0.03175 0.169334,-0.0635 q 0.423333,0.08467 1.005416,0.53975 0.677334,0.518583 0.677334,0.889 0,0.148167 -0.116417,0.264583 0.116417,0.03175 0.232833,0.07408 0.116417,0.03175 0.1905,0.15875 -0.02117,0.07408 0.04233,0.381 0.08467,0.391583 0.08467,0.560916 0,0.15875 -0.05292,0.28575 0.07408,0.105833 0.04233,0.328083 z M 22.61127,40.136924 q -0.02117,-0.105833 -0.07408,-0.264583 -0.04233,-0.169333 -0.105833,-0.381 -0.07408,-0.1905 -0.28575,-0.455083 -0.211667,-0.275167 -0.3175,-0.497417 -0.07408,-0.01058 -0.211667,-0.03175 -0.127,-0.02117 -0.328083,-0.07408 -0.402167,-0.09525 -0.592667,-0.09525 -0.296333,0 -0.433917,0.169333 -0.05292,0.01058 -0.391583,-0.07408 0.04233,0.1905 -0.433917,0.497416 -0.254,0.15875 -0.41275,1.185333 0.127,0.08467 0.66675,0.09525 0.04233,0.04233 0.783167,0.01058 0.783167,-0.03175 0.973667,0.03175 0,0.08467 0.08467,0.116416 0.09525,0.02117 0.15875,0.02117 0.127,0 0.370417,-0.211667 h 0.529167 z"
         style="stroke-width:0.26458332"
         id="path4039"
         inkscape:connector-curvature="0" />
    </g>
  </g>
</svg>
