<?xml version="1.0" encoding="UTF-8" standalone="no"?>
<!-- Created with Inkscape (http://www.inkscape.org/) -->

<svg
   xmlns:dc="http://purl.org/dc/elements/1.1/"
   xmlns:cc="http://creativecommons.org/ns#"
   xmlns:rdf="http://www.w3.org/1999/02/22-rdf-syntax-ns#"
   xmlns:svg="http://www.w3.org/2000/svg"
   xmlns="http://www.w3.org/2000/svg"
   xmlns:sodipodi="http://sodipodi.sourceforge.net/DTD/sodipodi-0.dtd"
   xmlns:inkscape="http://www.inkscape.org/namespaces/inkscape"
   width="21.114422mm"
   height="15.578741mm"
   viewBox="0 0 21.114422 15.578741"
   version="1.1"
   id="svg5212"
   inkscape:version="0.92.3 (2405546, 2018-03-11)"
   sodipodi:docname="rune_water.svg">
  <defs
     id="defs5206" />
  <sodipodi:namedview
     id="base"
     pagecolor="#ffffff"
     bordercolor="#666666"
     borderopacity="1.0"
     inkscape:pageopacity="0.0"
     inkscape:pageshadow="2"
     inkscape:zoom="0.35"
     inkscape:cx="-457.24159"
     inkscape:cy="29.44015"
     inkscape:document-units="mm"
     inkscape:current-layer="layer1"
     showgrid="false"
     inkscape:window-width="1920"
     inkscape:window-height="1024"
     inkscape:window-x="-4"
     inkscape:window-y="-4"
     inkscape:window-maximized="1" />
  <metadata
     id="metadata5209">
    <rdf:RDF>
      <cc:Work
         rdf:about="">
        <dc:format>image/svg+xml</dc:format>
        <dc:type
           rdf:resource="http://purl.org/dc/dcmitype/StillImage" />
        <dc:title></dc:title>
      </cc:Work>
    </rdf:RDF>
  </metadata>
  <g
     inkscape:label="Layer 1"
     inkscape:groupmode="layer"
     id="layer1"
     transform="translate(-95.276123,-141.04397)">
    <g
       aria-label="w"
       style="font-style:normal;font-variant:normal;font-weight:normal;font-stretch:normal;font-size:10.58333302px;line-height:1.25;font-family:'Glorantha Core Runes';-inkscape-font-specification:'Glorantha Core Runes';letter-spacing:0px;word-spacing:0px;fill:#000000;fill-opacity:1;stroke:none;stroke-width:0.26458332"
       id="text915"
       transform="matrix(2.858258,0,0,2.858258,88.385901,107.96201)">
      <path
         d="m 9.2792198,14.389336 q 0,0.148167 -0.22225,0.3175 -0.2645833,0.201084 -0.2963333,0.28575 -0.4339167,0.328084 -0.9525,0.973667 -0.010583,0.01058 -0.052917,0.01058 -0.021167,0 -0.074083,-0.04233 -0.052917,-0.04233 -0.074083,-0.04233 -0.010583,0.01058 -0.021167,0.02117 -0.010583,0.01058 -0.03175,0.03175 0,0.243417 -0.2010833,0.4445 L 6.8556365,16.91876 q 0,0 -0.1058333,-0.09525 -0.052917,-0.04233 -0.084667,-0.201083 -0.021167,-0.169334 -0.042333,-0.359834 0,-0.02117 -0.042333,-0.05292 -0.042333,-0.03175 -0.042333,-0.05292 0,-0.08467 -0.1905,-0.423333 -0.074083,0.02117 -0.2222499,0.179916 -0.074083,0.08467 -0.1375834,0.116417 -0.052917,0.03175 -0.09525,0.05292 -0.042333,0.01058 -0.084667,0.03175 -0.03175,0.02117 -0.0635,0.07408 l -0.052917,0.105833 q -0.15875,0.07408 -0.5503333,0.613834 h -0.042333 q -0.052917,0 -0.1375834,-0.05292 -0.084667,-0.1905 -0.1375833,-0.34925 -0.052917,-0.15875 -0.0635,-0.28575 l 0.0635,-0.09525 q 0,0 0.010583,-0.04233 0.010583,-0.05292 0.021167,-0.116417 0.021167,-0.0635 0.03175,-0.127 0.021167,-0.0635 0.021167,-0.09525 0,-0.08467 -0.042333,-0.08467 -0.0635,0 -0.2010833,0.105834 l -0.15875,0.116416 q -0.042333,0.05292 -0.1058333,0.127 -0.052917,0.0635 -0.1375834,0.148167 l -0.03175,-0.02117 q -0.042333,0 -0.1799166,0.105834 Q 3.91347,16.347253 3.88172,16.347253 l -0.03175,-0.03175 v -0.01058 H 3.839387 q -0.010583,0.01058 -0.03175,0.03175 -0.010583,0.01058 -0.09525,0.05292 -0.021167,0.02117 -0.021167,0.03175 0,0.01058 0.03175,0.05292 0.03175,0.04233 0.03175,0.05292 0.010583,0.1905 -0.3915834,0.433916 H 3.2255533 q -0.09525,0 -0.2963333,0.03175 -0.2010833,0.03175 -0.2963333,0.03175 -0.1375834,0 -0.22225,-0.116416 0.010583,-0.105834 0.1799166,-0.275167 0.1693334,-0.169333 0.2010834,-0.232833 0.042333,-0.04233 0.15875,-0.169334 0.1269999,-0.127 0.3386666,-0.34925 0.1481667,-0.169333 0.28575,-0.28575 0.1375833,-0.127 0.2751667,-0.211666 0.1375833,-0.03175 0.1375833,0.105833 0.010583,0.07408 0.0635,0.105833 0.0635,-0.05292 0.1799166,-0.328083 L 4.3368033,14.90792 q 0.1481666,-0.03175 0.1481666,-0.211667 l 0.1693334,-0.22225 q 0.1164166,-0.148167 0.22225,-0.179917 0.2116666,0 0.2434166,0.211667 0.0635,0.306917 0.074083,0.328083 0.042333,0.08467 0.1164166,0.211667 0.074083,0.127 0.1905,0.275167 0.03175,-0.01058 0.0635,-0.05292 0.042333,-0.04233 0.084667,-0.08467 0.042333,-0.04233 0.074083,-0.08467 0.042333,-0.04233 0.0635,-0.05292 0.084667,-0.01058 0.1375833,-0.01058 0.0635,-0.01058 0.1164167,-0.01058 0.1058333,0 0.127,0.02117 0.1058333,-0.07408 0.1058333,-0.116417 0,-0.01058 -0.052917,-0.02117 -0.052917,-0.02117 -0.074083,-0.04233 l -0.1481666,0.01058 q -0.010583,-0.105834 0.1693333,-0.264584 0.1905,-0.169333 0.2010833,-0.243416 l 0.1481667,-0.127 q 0.074083,-0.07408 0.15875,-0.07408 0.03175,0 0.074083,0.02117 l 0.074083,0.22225 0.1058334,0.4445 q -0.03175,0.03175 -0.03175,0.116417 0.074083,0.03175 0.1693333,0.211666 0.09525,0.179917 0.127,0.1905 0.09525,-0.01058 0.2116667,-0.15875 0.1164166,-0.15875 0.1481666,-0.169333 0.010583,0.01058 0.2328333,-0.01058 0.09525,-0.01058 0.22225,0.04233 0.03175,-0.02117 0.010583,-0.04233 l -0.042333,-0.05292 q -0.03175,-0.02117 -0.1058333,-0.116417 0,-0.04233 0.084667,-0.127 0.09525,-0.09525 0.1058333,-0.127 0.03175,-0.179916 0.3915833,-0.34925 0.0635,-0.02117 0.1058333,-0.02117 0.084667,0 0.2328334,0.04233 0.15875,0.04233 0.2328333,0.04233 0.084667,0 0.1375833,-0.03175 0.052917,-0.02117 0.1164167,0.09525 z M 3.3525533,13.997753 q 0,-0.04233 -0.03175,-0.07408 -0.021167,-0.04233 -0.021167,-0.05292 0,-0.04233 0.074083,-0.09525 0.074083,-0.0635 0.1799166,-0.179917 0.4339167,-0.328083 0.9525,-0.973666 0.010583,-0.01058 0.052917,-0.01058 0.021167,0 0.074083,0.04233 0.052917,0.04233 0.074083,0.04233 0.010583,-0.01058 0.021167,-0.02117 0.010583,-0.01058 0.03175,-0.03175 0,-0.22225 0.2010833,-0.4445 l 0.4021667,-0.433916 0.09525,-0.02117 q 0.052917,-0.01058 0.1058333,0.02117 0.15875,0.105833 0.2328333,0.560916 -0.021167,0.0635 -0.021167,0.105834 0,0.09525 0.1905,0.423333 0.074083,-0.02117 0.2116666,-0.169333 0.074083,-0.08467 0.1375833,-0.116417 0.0635,-0.04233 0.1058334,-0.05292 0.042333,-0.02117 0.074083,-0.04233 0.042333,-0.02117 0.074083,-0.07408 l 0.052917,-0.105834 q 0.2434167,-0.116416 0.6561667,-0.719666 -0.021167,0.02117 0.042333,0.3175 0.021167,0 0.010583,-0.09525 l 0.021167,-0.0635 q 0.042333,0.09525 0.074083,0.275166 0.042333,0.179917 0.0635,0.455084 L 7.6282178,12.6325 q 0.074083,0.105833 0.1799167,0.07408 0.042333,-0.05292 0.09525,-0.116416 0.0635,-0.07408 0.1481667,-0.15875 0.042333,0.0635 0.15875,0.127 -0.010583,-0.03175 -0.010583,-0.08467 0,-0.169333 0.2010834,-0.306917 0.010583,-0.03175 0.1164166,-0.09525 0.1058333,-0.0635 0.127,-0.09525 -0.010583,-0.169333 0.3069167,-0.34925 h 0.1375833 q 0.084667,0 0.2963333,-0.03175 0.074083,-0.01058 0.1164167,0.03175 0.052917,0.04233 0.074083,0.04233 0.1375833,0 0.22225,0.116416 -0.021167,0.116417 -0.1799166,0.275167 l -0.2116667,0.22225 -0.381,0.423333 q -0.2963333,0.328084 -0.5609166,0.497417 -0.1375834,0.03175 -0.1375834,-0.105833 -0.010583,-0.07408 -0.0635,-0.105834 -0.042333,0.03175 -0.074083,0.328084 l -0.2751667,0.359833 -0.2328333,0.3175 -0.2434167,0.296333 q -0.1164166,-0.201083 -0.3174999,-0.53975 -0.010583,-0.07408 -0.0635,-0.1905 -0.052917,-0.116416 -0.1375834,-0.296333 -0.1058333,0.03175 -0.254,0.137583 -0.1058333,0.127 -0.1375833,0.137584 L 6.3158849,13.71199 q 0.010583,0.105833 -0.1693333,0.275167 -0.1905,0.15875 -0.2010833,0.232833 l -0.1481667,0.127 q -0.074083,0.07408 -0.15875,0.07408 -0.03175,0 -0.074083,-0.02117 l -0.074083,-0.22225 -0.1058334,-0.4445 q 0.03175,-0.03175 0.03175,-0.116417 -0.074083,-0.03175 -0.1693333,-0.201083 -0.1058333,-0.1905 -0.127,-0.201084 -0.1164166,0.02117 -0.22225,0.15875 -0.052917,0.07408 -0.084667,0.116417 -0.03175,0.04233 -0.052917,0.05292 -0.042333,-0.04233 -0.1164167,-0.03175 -0.074083,0.01058 -0.074083,0.0635 0,0.02117 0.010583,0.03175 0.010583,0.02117 -0.010583,0.03175 -0.021167,0.01058 -0.052917,0.03175 -0.03175,0.01058 -0.0635,0.03175 -0.021167,0.01058 -0.021167,0.03175 0,0.02117 -0.03175,0.05292 -0.021167,0.03175 -0.052917,0.07408 -0.03175,0.03175 -0.0635,0.07408 -0.03175,0.03175 -0.03175,0.04233 -0.03175,0.179917 -0.3915833,0.34925 -0.0635,0.02117 -0.1058333,0.02117 -0.1058334,0 -0.2328334,-0.04233 -0.052917,-0.01058 -0.09525,-0.05292 -0.042333,-0.04233 -0.0635,-0.04233 -0.042333,0 0.042333,-0.0635 l 0.0635,-0.0635 q -0.052917,0.02117 -0.1164167,-0.08467 z"
         style="stroke-width:0.26458332"
         id="path4093"
         inkscape:connector-curvature="0" />
    </g>
  </g>
</svg>
