<?xml version="1.0" encoding="UTF-8" standalone="no"?>
<!-- Created with Inkscape (http://www.inkscape.org/) -->

<svg
   xmlns:dc="http://purl.org/dc/elements/1.1/"
   xmlns:cc="http://creativecommons.org/ns#"
   xmlns:rdf="http://www.w3.org/1999/02/22-rdf-syntax-ns#"
   xmlns:svg="http://www.w3.org/2000/svg"
   xmlns="http://www.w3.org/2000/svg"
   xmlns:sodipodi="http://sodipodi.sourceforge.net/DTD/sodipodi-0.dtd"
   xmlns:inkscape="http://www.inkscape.org/namespaces/inkscape"
   width="23.916796mm"
   height="21.538527mm"
   viewBox="0 0 23.916796 21.538527"
   version="1.1"
   id="svg18301"
   inkscape:version="0.92.3 (2405546, 2018-03-11)"
   sodipodi:docname="rune_yinkin.svg">
  <defs
     id="defs18295" />
  <sodipodi:namedview
     id="base"
     pagecolor="#ffffff"
     bordercolor="#666666"
     borderopacity="1.0"
     inkscape:pageopacity="0.0"
     inkscape:pageshadow="2"
     inkscape:zoom="0.35"
     inkscape:cx="-451.94576"
     inkscape:cy="40.702726"
     inkscape:document-units="mm"
     inkscape:current-layer="layer1"
     showgrid="false"
     inkscape:window-width="1920"
     inkscape:window-height="1024"
     inkscape:window-x="-4"
     inkscape:window-y="-4"
     inkscape:window-maximized="1" />
  <metadata
     id="metadata18298">
    <rdf:RDF>
      <cc:Work
         rdf:about="">
        <dc:format>image/svg+xml</dc:format>
        <dc:type
           rdf:resource="http://purl.org/dc/dcmitype/StillImage" />
        <dc:title></dc:title>
      </cc:Work>
    </rdf:RDF>
  </metadata>
  <g
     inkscape:label="Layer 1"
     inkscape:groupmode="layer"
     id="layer1"
     transform="translate(-93.874936,-138.06407)">
    <g
       aria-label="Y"
       style="font-style:normal;font-variant:normal;font-weight:normal;font-stretch:normal;font-size:10.58333302px;line-height:1.25;font-family:'Glorantha Core Runes';-inkscape-font-specification:'Glorantha Core Runes';letter-spacing:0px;word-spacing:0px;fill:#000000;fill-opacity:1;stroke:none;stroke-width:0.26458332"
       id="text1247"
       transform="matrix(2.858258,0,0,2.858258,-45.847138,-2.5235998)">
      <path
         d="m 53.473046,49.218461 c 0.466017,-0.09489 0.326531,0.171943 0.400192,0.14675 0.07761,0.02822 -0.08424,-0.187185 0.266558,-0.15734 0.08467,0.01411 0.176389,0.0247 0.275167,0.03175 l 0.04233,0.560916 c -0.03528,0.105833 -0.05292,0.232833 -0.05292,0.381 l -0.01058,0.381 0.03175,0.613833 -0.05292,0.232834 c 0,0 0.296322,0.0234 0.366424,0.02714 0.13085,0.01242 0.01009,0.21746 0.05815,0.221585 0.04807,0.0041 0.07873,-0.184406 0.147388,-0.20636 0.08891,0.01276 0.285283,0.02113 0.285283,0.02113 0.0071,-0.141111 0.0035,-0.299861 -0.01058,-0.47625 -0.0071,-0.183445 -0.01041,-0.416762 -0.01058,-0.60325 l 0.121496,-0.148167 c 0.0071,-0.02822 -0.08869,-0.06576 -0.131025,-0.101036 l -0.0097,-0.322297 c 0.126785,-0.0919 0.157209,-0.145832 0.02978,-0.137583 v -0.381 l 0.09525,-0.09525 c 0.246945,-0.03528 0.529167,-0.01411 0.846667,0.0635 -0.02117,0.127 -0.0071,0.268111 0.04233,0.423333 l -0.05292,0.328083 v 0.148167 l -0.01058,0.518583 0.04233,0.370417 -0.01058,0.148166 v 0.137584 l 0.05292,0.09525 c 0.592667,0.01411 0.934861,0.116419 1.026583,0.306916 -0.155222,0.1905 -0.268111,0.409222 -0.338666,0.656167 l -0.28575,-0.01058 -0.328084,0.04233 c -0.246944,-0.09172 -0.500944,-0.08114 -0.762,0.03175 -0.148167,-0.05645 -0.303389,-0.05997 -0.465666,-0.01058 -0.134056,0.0071 -0.324556,-0.01059 -0.5715,-0.05292 l -0.518584,0.03175 h -0.137583 -0.1905 c -0.02822,0.09172 -0.01411,0.201083 0.04233,0.328083 -0.07055,0.225778 -0.07761,0.493889 -0.02117,0.804334 -0.0071,0.04939 -0.0071,0.09525 0,0.137583 0,0 -0.2546,0.210672 -0.232271,0.310161 0.01699,0.0757 0.232271,-0.02441 0.232271,-0.02441 l -0.01058,0.232833 v 0.243417 l -0.04269,0.167644 -0.02659,0.1905 0.05869,0.202773 -0.01007,0.187943 c 3.6e-5,0.174395 0.04502,0.346222 -0.263541,0.25585 -0.04075,0.139368 0.16778,0.17004 0.16778,0.17004 0.0635,0.07761 0.09172,0.172861 0.08467,0.28575 0.0071,0.169333 -0.01411,0.373944 -0.0635,0.613833 V 56.6797 l -0.28575,0.04233 c -0.112889,-0.01411 -0.246944,-0.02117 -0.402166,-0.02117 -0.148167,-0.0071 -0.313972,-0.0035 -0.497417,0.01058 0.02117,-0.119945 0.01058,-0.264584 -0.03175,-0.433917 -0.01509,-0.528067 0.249588,-0.553316 0.249588,-0.553316 -0.01108,-0.122335 -0.223648,-0.146486 -0.229268,-0.262588 l 0.05376,-0.591679 -0.04727,-0.562611 -0.02681,-0.294639 c 0.01411,-0.105833 0.0247,-0.22225 0.03175,-0.34925 0.01411,-0.134056 0.0071,-0.282223 -0.02117,-0.4445 -0.04102,-0.278072 0.02076,-0.64064 0.180231,-1.044638 -0.164989,0.119806 -0.31473,0.332218 -0.527128,0.338507 -0.33689,0.01 -0.6897,0.0079 -0.968085,0.0027 -0.461164,-0.0086 -1.022227,0.0236 -1.17475,0.02117 -0.07803,-0.0012 -0.03649,-0.228075 -0.111843,-0.216891 -0.240494,0.0357 -0.264223,0.219865 -0.328,0.211246 -0.130587,-0.01765 -0.294781,-0.03528 -0.457058,-0.04233 -0.07761,-0.03528 -0.105835,-0.328086 -0.08467,-0.878417 0.0033,-0.143493 0.0071,-0.119383 0.08056,-0.121903 l 0.240681,-0.0083 c 0.122883,0.0893 0.26694,0.116296 0.302106,0.07692 0.01472,-0.01648 -0.05202,-0.0087 -0.03601,-0.0752 0.0831,-5.65e-4 0.175387,0.0059 0.269913,0.01202 0.0076,-0.291322 0.04939,-0.567972 0.02117,-0.836083 l 0.01058,-0.656166 c 0,-0.09172 0.150775,0.0059 0.157855,-0.09997 0.0071,-0.112889 -0.163495,-0.252724 -0.09436,-0.566782 l -0.05625,-0.135618 c 0.110186,-7.6e-5 0.283301,-0.02242 0.352215,-0.0077 0.05293,0.126069 -0.04431,0.236143 0.0327,0.175481 0.02905,-0.02288 0.254096,-0.107277 0.271923,-0.170047 0.08054,-0.0088 0.128881,-0.0049 0.216633,0.0024 0.0224,0.0018 0.0592,0.07604 0.08131,0.07768 -0.07056,0.275167 -0.04833,0.632813 -0.02011,1.020868 l -0.01058,0.381 v 0.148166 l -0.01058,0.179917 0.05292,0.09525 -0.01058,0.328083 c 0.254,0.05645 0.536222,0.0635 0.846667,0.02117 0.01411,-0.09172 0.02117,-0.194028 0.02117,-0.306917 0.0071,-0.119944 0.0071,-0.253999 0,-0.402166 0.02822,-0.112889 0.04586,-0.232833 0.05292,-0.359833 0.05105,-0.05104 0.208226,-0.06653 0.230584,-0.120735 0.02093,-0.05074 -0.09714,-0.01983 -0.112009,-0.07573 0,0 -0.06304,-0.06906 0.02035,-0.187357 0.03808,-0.05401 -0.06063,-0.01609 -0.128347,-0.06068 l 0.01058,-0.709084 c 0.211667,-0.03528 0.493889,-0.04586 0.846667,-0.03175 0.112889,0.4445 0.105832,0.948972 -0.02117,1.513417 l 0.07408,0.423333 v 0.243417 c 0.03528,0.04233 0.08114,0.07408 0.137584,0.09525 0.225777,-0.04233 0.462138,-0.03881 0.709083,0.01058 l -0.04233,-0.28575 c 0.02822,-0.07761 -0.02209,-0.218137 0.0635,-0.254 0.08432,-0.03533 0.15067,0.02055 0.162773,-0.02041 0.01733,-0.05865 -0.0551,-0.217024 -0.162773,-0.28651 0.02117,-0.225778 0.0071,-0.398639 -0.04233,-0.518584 l 0.0635,-0.899583 z"
         style="stroke-width:0.26458332"
         id="path4012"
         inkscape:connector-curvature="0"
         sodipodi:nodetypes="ccccccccccccccccccccccccccccccccccccccccccccccccccccccccccccscccccccsssssccscsccccccccscscccccccccccssscccccccccsscccc" />
    </g>
  </g>
</svg>
