<svg xmlns="http://www.w3.org/2000/svg" viewBox="0 0 512 512" style="height:512px;width:512px"><path d="M0 0h512v512H0z" fill="none"/><path d="m145.8 19.8-38 96.2 43 32 48.9-97-54-31.2zm77 26.9-70.3 139.8 86.4 50L327.5 107 222.8 46.7zM335 129l-72.6 106.2c17.4 28.9 29 63.7 35.4 103.1A314.6 314.6 0 0 0 433 185.7L335 129zm114.4 66a331.1 331.1 0 0 1-149 163c2 18.2 3 37.2 3 57 71.1-23.5 159.6-92.4 188-195.8l-42-24.2zm-289.1 17.5c-39.7 79.3-78.2 159.6-138 237.2v44.7h44.4c41.4-88 93.7-170 145.6-252l-52-30z"/></svg>
