<svg xmlns="http://www.w3.org/2000/svg" viewBox="0 0 512 512" width="32" height="32" fill="#FFFFFF"><path d="m246.5 16.3 43.7 86 40.7-43-84.4-43zM426.3 40l-13.5 13.5 46.8 46.8 13.5-13.5L426.3 40zm-52.4 1-260 274.6 81.6 81.6L471.8 139l-98-98zm-3.1 50.5a50.4 50.4 0 0 1 35.7 86.3 50.7 50.7 0 0 1-71.4 0 50.7 50.7 0 0 1 35.7-86.3zM167.4 105l42.1 82.5 38.9-41-81-41.5zm203.4 5.2c-8.1 0-16.3 3.1-22.5 9.4a31.7 31.7 0 0 0 0 45 31.7 31.7 0 0 0 45 0 31.7 31.7 0 0 0 0-45 31.8 31.8 0 0 0-22.5-9.4zm-84 67a49 49 0 0 1 34.8 83.4 49 49 0 0 1-69.3-69.3c9.5-9.5 22-14.2 34.6-14.2zm166.7 4.5L410 222.3l86.6 44.1-43.1-84.7zM88.9 195l40 77.7 36.4-38.5L89 195zm198 .8a30 30 0 0 0-21.1 51.5 30 30 0 1 0 42.4-42.5c-6-6-13.6-9-21.3-9zm-84.3 67.6a47.2 47.2 0 0 1 33.5 80 47 47 0 0 1-66.6-66.5c9.1-9 21.1-13.6 33.1-13.5zm163.4.2-41.9 39.2 83.8 42.8-41.9-82zM202.6 282c-7.2 0-14.4 2.7-19.9 8.1a28 28 0 0 0 .4 39.9 28 28 0 0 0 39.8.3 28 28 0 0 0-.3-39.9 28.5 28.5 0 0 0-20-8.4zm75.3 64-39.7 37 79.8 41-40.1-78zM119 347.3 19 447.5v47.4h45.7l101.1-101-46.6-46.6z"/></svg>
