<svg xmlns="http://www.w3.org/2000/svg" viewBox="0 0 512 512" style="height:512px;width:512px" fill="#FFFFFF"><path d="M19.7 20.7V57l53.8 54c6.5-15 18-27.3 32.3-34.8L50.3 20.7H19.6zM139 86.6a52.8 52.8 0 0 0-21.5 101.2 71.7 71.7 0 0 1 70.7-67.9A52.7 52.7 0 0 0 139 86.6zm214 44.2-41 14.7 97 253.4 7.6 19.6L397 411l-253.3-97.6-14.3 41 362.9 140L353 130.7zm-164 7.8a52.7 52.7 0 0 0-14.3 103.7 71.7 71.7 0 0 1 65.2-65.1 52.7 52.7 0 0 0-50.9-38.6zM302.6 173l-23.9 100.6-1.3 5.6-5.6 1.3-100.1 23.6L384.2 386l-81.6-213zm-56.5 22.5a52.7 52.7 0 0 0-44 82.2l59.8-14 14-59a52.6 52.6 0 0 0-29.8-9.2z"/></svg>
