<svg xmlns="http://www.w3.org/2000/svg" viewBox="0 0 512 512" width="32" height="32" fill="#FFFFFF"><path d="M124.8 389a60.7 60.7 0 0 0 16.6 11.5l-34.1 34.6a48.8 48.8 0 0 0-28.4-28l34.2-34.6a61 61 0 0 0 11.7 16.4zm209.6-276.5c-32.7 33.1-57.8 79-103 124.8a2332 2332 0 0 1-58.3 53.6l49.2 48.6c16-18.2 43.7-49.7 52.9-59 45.1-45.7 90.8-71.4 123.6-104.4C452.7 121.5 481 28.5 481 28.5s-92.7 29.4-146.6 84zm-250.7 318a31 31 0 1 0 .2 43.8 30.8 30.8 0 0 0-.2-43.7zm91-40.5c11.2 0 21-2.8 24.6-6.6l20.9-21-70-69.1-20.7 21.1c-8 8-11.3 43 7.8 62a53.4 53.4 0 0 0 37.5 13.6z"/></svg>
