<svg xmlns="http://www.w3.org/2000/svg" viewBox="0 0 512 512" style="height:512px;width:512px" fill="#FFFFFF"><path d="M240 19.6c-56.6.4-110.8 29-151.5 72.3-53.4 56.8-82 138-61 210.1a297 297 0 0 1 49-21.3c-6.4-123.2 89.2-211 200-210.4a245.3 245.3 0 0 1 18-41.9 168.8 168.8 0 0 0-54.4-8.8zM271.4 89c-97.6 1.7-180 77-176.4 186.3 11-2.8 21.8-4.6 32.3-5.5 14.6-1.1 28.7-.4 41.8 2.5l109.3-109.4c-5.2-12-8.5-25-9.3-38.7-.7-11.3.1-23 2.6-35.2h-.3zm60.8 60.7-16.9 16.9 30.6 30.4 16.8-16.8-30.5-30.5zm-37.1 23L175.6 292l44.7 44.5 119.3-119.3-44.6-44.6zm189.9 46a246.4 246.4 0 0 1-41.6 18.1c.7 111-87.3 206.8-210.7 200.3a311.9 311.9 0 0 1-21.3 48.7c72.2 21 153.3-7.6 210.1-61 57-53.6 88.5-130.7 63.5-206zm-136 15.7L240.7 342.6c3.2 13.6 4 28.3 2.8 43.5-.8 10.6-2.7 21.5-5.5 32.6 109.6 3.7 185.1-79 186.6-177a135.2 135.2 0 0 1-35.5 2.7c-14.3-.9-27.7-4.3-40.2-10zm-179.4 78L20.1 461.6V494h28.6L200 342.8l-30.4-30.5z"/></svg>
