<svg xmlns="http://www.w3.org/2000/svg" viewBox="0 0 512 512" style="height:512px;width:512px"><path d="M0 0h512v512H0z" fill="none"/><path d="M487.7 24.3a286.7 286.7 0 0 1-63.2 22l41.3 41.2a286.7 286.7 0 0 1 21.9-63.2zm-86.1 24.4c-32.1 11.5-60 12.8-84.4 4.7l-9.7-3.3-2 10c-10.1 50.6-18.9 83.3-36.7 121.7l61.4 61.4c38.4-17.8 71-26.6 121.7-36.7l10-2-3.3-9.7c-8-24.3-6.8-52.3 4.7-84.4zm2 18.2a79.4 79.4 0 0 1-55.3 20h-5.6l-2.5 5c-18.7 37.5-37.8 74.8-55.5 98.2 17.5-37.6 26.9-71 36.4-117.1 25.2 6 52.8 3.8 82.5-6.1zm8 16.3L303.5 195c17.4-24.4 33.8-57.2 50.3-90.4a98.3 98.3 0 0 0 57.6-21.4zm17.2 17.3a98.3 98.3 0 0 0-21.4 57.6c-33.2 16.5-66 32.9-90.4 50.3zm16.3 7.9c-10 29.7-12.2 57.3-6.1 82.5-46 9.5-79.5 19-117 36.4 23.3-17.7 60.6-36.8 98.2-55.5l5-2.5v-5.6c0-25.5 8.2-41.5 19.9-55.3zm-192.3 83L240.1 204l67.9 68 12.7-12.8-7.7-7.7-52.5-52.5zm-6.4 41.6-43.8 44 32.5 32.5 43.9-43.8zm-67.8 45.3L165.8 291l55.2 55.2 12.7-12.8zM164.4 315l-41 41 32.5 32.6 41-41zm-65 42.5-12.8 12.7 55.2 55.2 12.7-12.8zm-14.2 36.7L18 461.5V494h32.5l67.3-67.2z"/></svg>
