<svg xmlns="http://www.w3.org/2000/svg" viewBox="0 0 512 512" style="height:512px;width:512px"><path d="M0 0h512v512H0z" fill="none"/><path d="m34.2 19.8-12.4.2v30l178 177.5c5-9 13-16.1 22.4-20.1L34.3 19.8zm205.5 202.8c-15 0-26.9 12-26.9 26.9s12 26.8 26.9 26.8a26.7 26.7 0 0 0 26.8-26.8c0-15-11.9-27-26.8-27zm150.8 15.7a121 121 0 0 1-47.4 21.5c29.2 39.6 49.9 71.5 62.2 96a131.5 131.5 0 0 1 13 34.6c1.7 9.8.8 19.4-5.9 26-6.6 6.4-16.2 7.1-26 5.4-10-1.6-21.5-5.8-35.3-12.4a737.8 737.8 0 0 1-99.2-60.9 120.2 120.2 0 0 1-19 47.5c64 43.6 163.4 83.8 246.4 88.8 3.6-85.2-42.3-181-88.8-246.5zM285 255a45.8 45.8 0 0 1-36.7 39.3c3 11 4.8 21.8 5.1 32.4 44.7 31.8 80.3 53.8 105.8 66 13 6 23.3 9.6 30.3 10.8 7 1.2 9.6-.1 10-.5.4-.4 1.6-2.5.4-9.2-1.2-6.8-4.8-16.9-11.1-29.4-12.4-24.7-35-59.2-67.5-102.6-12-.3-24-2.6-36.3-6.8z"/></svg>
