<svg xmlns="http://www.w3.org/2000/svg" viewBox="0 0 512 512" style="height:512px;width:512px"><path d="M0 0h512v512H0z" fill="none"/><path d="M257.3 15.7 207 103.2l28.2-8.5L257.4 56l22.4 38.8 28.1 8.4-50.6-87.5zm-139 77.7 18.6 99.3 14.1-22-9.4-50.7 49 17.3 23-10.1-95.2-33.8zm278.8 0-95.3 33.8 23.9 10.5 49.9-17.7-9.9 52.7 12.9 20L397 93.4zm-139.7 2-9.4 3v104.4l9.7 11.3 9-10.5V98.3l-9.3-2.8zm81.2 52.1-54.3 63.7.3.3-14.6 17 12 14 71.2-83.3-4.8-7.4-9.8-4.3zm-161.3.5-8.5 3.8-5.5 8.5 255.5 299.5 14.2-12.1-8-9.5 22.6-10 11.5-5-8.2-9.6-44.1-51.8-2.3-2.7-3.6-.5-49.6-6.6-174-204zm56.1 123.3-62.2 72.6h-.1l-6.7 7.7-49.7 6.7-3.5.5-2.4 2.7-44.2 52-8.2 9.5 11.5 5 22.8 10-8.2 9.7 14.2 12.1 148.9-174.5-12.2-14zm24.4 28-9.8 11.4v178.7h18.7v-15l24.9 7.4 12 3.5v-87l-2.3-2.6-34.6-38.5v-47.5l-9-10.3zM146.3 373l-43 50.4L87 416l33.9-39.7 25.5-3.4zm223.2.4 25.4 3.4 33.7 39.5-16.3 7.2-42.8-50.1zm-140 4.3-16 18.1-2.4 2.7v87l12-3.7 6.4-1.9V377.6zm37.2 7.6 18.2 20.3v54.8l-18.2-5.5v-69.6zm-87.7 5.4-64.6 74.7 3.5 5.4 6.8 10.6 8.2-9.6 44.3-52 2.3-2.6-.1-3.6-.4-22.9zm157.9.1-.5 23v3.6l2.3 2.7 44 51.7 8.3 9.6 6.8-10.6 3.5-5.5-64.4-74.4z"/></svg>
