<svg xmlns="http://www.w3.org/2000/svg" viewBox="0 0 512 512" style="height:512px;width:512px"><path d="m183 18-30 112-64-65-18 19 410 410h12v-24L265 241l29-112-17-17-17 37V95l-24-24-12 20-2-34-39-39zm237 63-18 66-35-35-15 15 141 141v-30l-21-21 18-66-70-70zm-305 73-93 25 17 16 51-1-38 15 40 40 33 2-13 8 21 2-17 11 17 18 93-25-111-111zm253 15-49 13 25 26 32 2-18 11 31 31 49-13-70-70zM123 316l-18 67-35-36-15 16 131 131h30l-41-41 18-67-14-14-12 20-3-34-41-42zm189 52-11 41-24-24-13 14 23 23-40 11 45 45 40-11 28 28h27l-41-41 10-41-19-19-8 7-4-19-13-14zM70 405l-48 13 54 54h34l-17 15 47-12-70-70z"/></svg>
