<svg xmlns="http://www.w3.org/2000/svg" viewBox="0 0 512 512" style="height:512px;width:512px" fill="#FFFFFF"><path d="m281.3 15.3-4.7 7.5-56.3 90.4c-7.3-18.5-21.6-30.9-37-30.4l-2 .1c-21.2 2.1-36 27.9-33 57.5 1 10 4 19 8.1 26.7-44.6 1.2-76.5 11.6-92.8 38.2 20.3 19.1 59.8 23 91.8 18.7l4.9 3 .1.2 19 51.4-52.9 212.7h34.2l61.1-169 110.2 169h33.6L261.4 292.2l97.2 62.5c0 .3-.2.5-.3.8l.5-.6 7 4.4 9 5.8 4.5-9.6c32-68.4 40.3-134.5 25.9-192l23.9-4.9 6.2 23.8 55.4-46.6-73.9-24.4 7.6 29-24.6 5c-18-52.2-55.8-96-110.8-125.9l-7.7-4.2zm3.4 29.9c31.8 30.6 54.6 67 69 106l-136.6 21.3a63.1 63.1 0 0 0 8.3-32l59.3-95.3zm77.5 132.7a323.4 323.4 0 0 1 1.5 157.9l-113.6-73.1-4.1-61.8 116.2-23z"/></svg>
