<svg xmlns="http://www.w3.org/2000/svg" viewBox="0 0 512 512" style="height:512px;width:512px"><path d="M0 0h512v512H0z" fill="none"/><path d="M215.8 21a58.9 58.9 0 0 0-9.4 1l-35 60.5a53 53 0 0 1 61.8 29.4l39.2-67.8a65 65 0 0 0-27-17.6 90.2 90.2 0 0 0-29.7-5.4zm85.7 17.6c-1.6 0-3.1 0-4.5.2l-44.5 77.1a53 53 0 0 1 63 27.3l43-74.8a65 65 0 0 0-25.7-21.5 78.7 78.7 0 0 0-31.3-8.3zM139 67.9a56 56 0 0 0-32.5 12.3 157 157 0 0 0-32.3 34.3l47.8 16.3 34.7-60a53.5 53.5 0 0 0-17.7-2.9zm231.3 17.6-44.8 77.7a52.3 52.3 0 0 1 63.8 25.6l37-64a70.8 70.8 0 0 0-24.2-27 67.5 67.5 0 0 0-31.8-12.3zm-185.5 14c-19.3 0-34.7 15.4-34.7 34.8s15.4 34.7 34.7 34.7 34.7-15.4 34.7-34.8a34.6 34.6 0 0 0-34.7-34.7zM58.5 128.9c-10.2 50.5-9.2 102.1 6 146.1l.7 1.6.1-.2 7.2 10.2 2.7 3.8c-.8-41.2 10.6-89.3 37.5-143l-54.2-18.5zm209.2 3.5A34.6 34.6 0 0 0 233 167a34.6 34.6 0 0 0 34.7 34.7 34.6 34.6 0 0 0 34.7-34.7 34.6 34.6 0 0 0-34.7-34.7zM437 145l-41.8 72.3-.2 1.9a49.5 49.5 0 0 1 60.2 30.5l36.5-63.2a72.6 72.6 0 0 0-23.8-28.3 67.2 67.2 0 0 0-31-13.2zm-303.8 3.2C100 212 90 266.3 95.3 308.9l.5 3c20 18 47.2 36 76.2 51.8a664.7 664.7 0 0 0 118 50.1c42.1-15.2 84.4-46.5 119.3-96.5h-.8a50 50 0 0 1-49.8-53.6 53.1 53.1 0 0 1-69.2-48 53.5 53.5 0 0 1-74-37.9 53.6 53.6 0 0 1-82.2-29.7zM342.4 179c-19 0-34.2 15.3-34.2 34.3 0 19 15.2 34.3 34.2 34.3 19 0 34.3-15.2 34.3-34.3 0-19-15.2-34.3-34.3-34.3zm66 57.1a31.1 31.1 0 0 0-31.2 31.3 31.1 31.1 0 0 0 31.3 31.3 31.1 31.1 0 0 0 31.2-31.3 31.1 31.1 0 0 0-31.2-31.3zM65 307.3a505.8 505.8 0 0 0-20.3 28.4 84 84 0 0 0 20.6 30c14 13.9 33.8 28 57.8 41a535.6 535.6 0 0 0 152 52.6c3.1-9 5.9-18.4 8.3-28.3A674.2 674.2 0 0 1 163 380c-39.4-21.3-75.7-46-98.2-72.8zm-32.2 47.3c-4.4 7.5-8.5 14.8-12.1 22 1.5 9.1 8 20.2 19.6 31.8a226.5 226.5 0 0 0 51 36 481.8 481.8 0 0 0 152.3 49.2H261c2.6-5.3 5-10.8 7.4-16.5a550.5 550.5 0 0 1-154.2-54 272.2 272.2 0 0 1-62-44.2c-8-7.9-14.6-16-19.4-24.3zM18.2 412v34c1.1 2.4 3.2 5.6 7 9 5.2 5 13.1 10.5 22.8 15.6a240 240 0 0 0 70.6 23H161a456.8 456.8 0 0 1-78.6-32.8A242.6 242.6 0 0 1 27 421.7c-3.1-3.2-6-6.4-8.7-9.6zm0 61.8v19.7h34.4a183 183 0 0 1-34.3-19.7z"/></svg>
