<svg xmlns="http://www.w3.org/2000/svg" viewBox="0 0 512 512" style="height:512px;width:512px"><path d="M0 0h512v512H0z" fill="none"/><path d="M274.4 19.1a218.2 218.2 0 0 0-82.6 17.3l5.3 19.7a42.5 42.5 0 0 1 16.8-4.5 43.1 43.1 0 0 1 45 37 237.2 237.2 0 0 1 226.4 87A217.8 217.8 0 0 0 274.4 19.2zm-57.2 51a24.7 24.7 0 0 0-7 1 24 24 0 0 0-15 34.8c13.8 0 27.3 1.2 40.4 3.5a24.1 24.1 0 0 0 4.3-21.3 24 24 0 0 0-22.7-18zm-22 54.5c-10.2 0-20.1.8-29.8 2.1v20.5a43 43 0 0 1 51.3 47.4c88.2 8 162.6 64.5 196 142.6a217.5 217.5 0 0 0-217.5-212.6zm-21 40.4a24.3 24.3 0 0 0-21.5 35.4 238.4 238.4 0 0 1 32.8 10.3c7.6-4 12.8-12.1 12.8-21.5a24 24 0 0 0-24.2-24.2zm-49.6 49.4-5.2 19.7h.4a43 43 0 0 1 37.1 59 237.3 237.3 0 0 1 152.6 189 217.5 217.5 0 0 0-184.9-267.7zm-8.1 38.3a24.3 24.3 0 0 0-23 29.5 205.3 205.3 0 0 1 29.8 18.2 24 24 0 0 0 17.3-17.2 24 24 0 0 0-24.1-30.5zM67.2 291l-10.1 17.6c2.6 1 5.2 2 7.8 3.5A43 43 0 0 1 77.7 375a237 237 0 0 1 88 119.2h36.7A216.9 216.9 0 0 0 94.2 303.8c-8.7-5-17.8-9-27-12.7zm-23.8 34h-1.7a24 24 0 0 0-19.3 12.2 24 24 0 0 0 8.9 33 24 24 0 0 0 33-8.8 24.3 24.3 0 0 0-21-36.4z"/></svg>
