<svg xmlns="http://www.w3.org/2000/svg" viewBox="0 0 512 512" style="height:512px;width:512px"><path d="M0 0h512v512H0z" fill="none"/><path d="M134.7 22.1c-4.5-.1-9 1.4-14.8 7.2-5.6 5.6-11.9 21.8-15.3 36l-.6 2.9 114.2 105.3c-7.2-28.5-17.6-60-29.8-86.7-11.7-25.5-25.3-46.7-37.6-57-6-5.2-11.5-7.6-16-7.7zm-42.2 60L82.1 92.5l161.5 175.2 24-24.1L92.7 82zM68.2 104l-2.9.7c-14.2 3.4-30.4 9.7-36 15.3-5.8 5.8-7.3 10.3-7.2 14.8.1 4.6 2.5 10 7.6 16.1 10.4 12.3 31.6 25.9 57 37.6a519.4 519.4 0 0 0 86.8 29.8L68.2 103.9zm212.7 151.9L255.8 281l73.3 79.5 31.3-31.3-79.5-73.3zm92.7 85.5-32.3 32.3 2 2.3c.1 0 4.5 4.2 10.6 6.2 6.2 2.1 12.7 3 22-6.3 9.1-9.2 8.3-15.7 6.2-21.9-2-6.2-6.2-10.5-6.2-10.6l-2.3-2zm20.2 41a46.2 46.2 0 0 1-5.2 6.3 46.2 46.2 0 0 1-6.3 5.2l107.7 96-96.1-107.6z"/></svg>
