<svg xmlns="http://www.w3.org/2000/svg" viewBox="0 0 512 512" style="height:512px;width:512px" fill="#FFFFFF"><path d="M243.5 23.3a493.4 493.4 0 0 1-82.3 45.3 323 323 0 0 0-4 51.6c28.9 15.4 56 32.9 83.3 49.6l7 4.4-3.4 7.5A237 237 0 0 1 198 252l-5.2 5.5-6.5-4A785.5 785.5 0 0 0 73 199.6l6.8-17.3a807.6 807.6 0 0 1 108.1 51.5 212.7 212.7 0 0 0 34.8-53C179 154 136.4 127.5 87.9 110.3c-23 20.4-37.7 45.3-52 70.8a97.5 97.5 0 0 1-6.6 77.4c48.6-.6 98 2.3 150.7 10.3l5.7.8 1.7 5.5a190.1 190.1 0 0 1 8.4 83.6l-1 8.4-8.5-.2c-40.5-.9-80.2-2.1-118.2.2a96 96 0 0 1-7.7 45c13.4 28.6 27.4 55.9 48.3 79.5 41.3-19 73.6-31.3 116-42.9-3.5-13.7-7-26.4-11.2-33.6-5-9-10.2-13-17.8-15.3-15.3-4.4-44.5 2.3-92.9 19.5l-6.2-17.6c48.9-17.4 79.7-26.9 104.2-19.8a46 46 0 0 1 23.1 15.4 317 317 0 0 0 42-27c12.4-45.9 37.3-81.4 66.7-112-7.2-13.6-13.2-27.3-20.6-40.7l-3.4-6.2 5-5a280.2 280.2 0 0 1 71.9-52.4l8.4 16.7a264 264 0 0 0-61.8 45.2c12.4 23.9 22.3 45.5 39.5 64.8 37.4-27.1 74.9-51.4 116.8-75-14-30.4-31.3-58.3-56.3-79.4a164.4 164.4 0 0 1-92.6 12.3c-14.2 13.2-30 22.2-48.8 23.3-29 1.7-60.7-15.7-99.1-57.7l6.8-6.3 7-6.3c36.6 40 63.7 52.9 84.3 51.7 18.5-1.1 35-15 51.6-35.4-28.8-31.9-64.1-60-97.8-84.5zM39.3 277.9c-6 0-12 0-18.1.2 1.7 26.3 5.5 51.3 14 73.7 46-5.8 93.3-5 141.2-3.8a173 173 0 0 0-6-61.2c-45.6-6.6-88.7-9-131-9z"/></svg>
