<svg xmlns="http://www.w3.org/2000/svg" viewBox="0 0 512 512" style="height:512px;width:512px"><path d="m162.4 17-2.5 5.6a93 93 0 0 0-4.4 11.7 151 151 0 0 0-121 91.9C9.9 184.3 16.7 259.8 63 326.2L81.6 353l-1.8-32.7c-2.3-39.8 6.3-76 24.8-105.1 1.1 4.5 3 9 5.5 13.1a90.3 90.3 0 0 0 33 31.4 97.3 97.3 0 0 0 32.7 12L159 425.3l-.6 5.7 4.8 3.2 88.2 57.2 5 3.3 5.2-3.3 88.7-57.2 4.9-3.1-.6-5.8L338 272c11-1.6 22.6-5.7 33.8-12.2a90.3 90.3 0 0 0 33-31.4c2.3-3.8 4-7.8 5.2-11.8a175 175 0 0 1 24 103.8l-1.8 32.7 18.7-26.8c46.3-66.3 53-141.9 28.3-200a151 151 0 0 0-120.2-92 89.7 89.7 0 0 0-5.2-12.2l-2.7-5H162.4zm12.3 18.8h164.7c12.6 29.5 5.4 68.8-19.2 104.5l-7.5 10.7 12.6 3.6c18.4 5.1 34 12.4 45.4 20.5a92.6 92.6 0 0 0-40.3 13 90.4 90.4 0 0 0-34.4 33.4c-23.5 44.5-31.8 128.4-22.7 218.2l17.9-11.5c-5.3-63.3-1.2-123.2 9.1-164.2a37 37 0 0 0 19 8l16.1 149.6-2.7 1.8.1.1-71 45.8-5.2 3.3-5-3.3-70.7-45.8.1-.1-2.7-1.8 16.2-149.4c7.4-1 14.3-3.4 19.7-7.9 10.3 41.1 14.4 101 9 164.4l17.9 11.6c8.6-85 1.8-164.6-18.8-210.8a54.2 54.2 0 0 0-4.6-10 90.3 90.3 0 0 0-33.1-31.5 92.8 92.8 0 0 0-40-12.8c11.2-8 26.5-15 44.5-20l11-3.2-5.4-10.2c-21.6-40.7-31.1-75.7-20-106zm-23 17.6c-2.3 27.3 6.4 56.2 21 86A164.7 164.7 0 0 0 98 192.1l14.3-45-38.4 32 7.8-49-31.3 50.5-4.9-30.4c1.7-5.8 3.7-11.4 6-16.9a130.3 130.3 0 0 1 100.2-80zm211.7.3c47.7 8.7 81.4 39 98.7 79.7a151 151 0 0 1 7.5 22.4l-37.9-31.6 26 57.2-60.5-42 33.5 46.3L399 174c-3.7-3.4-7.5-6.6-11.6-9.7-6.4-5.3-13.7-10-21.9-14.2l-.4-.2-1-.5c-6.9-3.6-14-6.9-21.7-9.7 16.6-28 24.5-58.4 21-86.1zm-222.7 140c9.7 0 22.3 3.4 34.6 10.5a73.4 73.4 0 0 1 26.3 24.6c4.9 8.4 5.1 14.7 2.9 18.5-2.2 3.8-7.8 6.8-17.4 6.7-3 0-6.3-.3-9.7-1a19.9 19.9 0 1 0-35.2-16.5 65.8 65.8 0 0 1-16-17.6 30.5 30.5 0 0 1-4-10.2c0-3 .6-6 1.6-9 2.5-3.5 8-6 17-6zm233.5 0c9 0 14.5 2.5 17 6 1 3 1.5 6 1.5 9-.4 2.9-1.7 6.3-4 10.2a67 67 0 0 1-17.2 18.5 19.9 19.9 0 1 0-35.2 15.8c-3 .5-5.8.8-8.4.8-9.7 0-15.3-2.9-17.5-6.7-2.2-3.8-2-10.1 3-18.5a73.5 73.5 0 0 1 26.3-24.6 73.4 73.4 0 0 1 34.5-10.5z"/></svg>