<svg xmlns="http://www.w3.org/2000/svg" viewBox="0 0 512 512" style="height:512px;width:512px"><path d="M0 0h512v512H0z" fill="none"/><path d="M337 16a354 354 0 0 0-65.8 7.2 445 445 0 0 0-102 33.6 55.7 55.7 0 0 0-32.6-10.2c-13 0-25.7 4.3-35.3 12.3a41.7 41.7 0 0 0-15.5 31.7 39 39 0 0 0 3.6 16.2 251.8 251.8 0 0 0-59 67.8c-15 26.2-15.2 53.9-3.7 74.8A69.4 69.4 0 0 0 89 284.2c28.6 0 60-15.6 93.2-33.9 33.3-18.3 68.3-39.7 101-53.3 31.2-13 85.6-17.9 130-27.7 22.1-4.9 42-10.9 56.2-21.6a44 44 0 0 0 15.9-20.5c3-8.3 2.8-17.9-.2-27.9-11.7-38.5-42.3-63-80.8-74.6a225.7 225.7 0 0 0-67.3-8.6zm.2 18h4c21 .2 40.8 2.8 58 8 34.5 10.3 59 30.1 68.8 62.6 2.1 7.1 2 12.3.4 16.6a26.2 26.2 0 0 1-9.7 12.1c-10.1 7.6-28.2 13.8-49.4 18.4-36.2 8-81.1 12.3-116 22.7a596.5 596.5 0 0 0-108.1-70.8 38.5 38.5 0 0 0-3-32.6 422 422 0 0 1 92.5-30.2c21.5-4.2 42.6-6.6 62.5-6.7zM136.6 64.7c4.4 0 8.8.8 12.9 2.2-6.2 3.3-12.4 6.8-18.4 10.4L116 70.5c5.7-3.7 13.3-6 20.7-6zM165.8 79a20 20 0 0 1 3 16.3c-5.7-3-11.6-5.8-17.4-8.5a400 400 0 0 1 14.4-7.8zm-61.2 6.3 8.5 3.7c-3 2-5.9 4-8.8 6.2a19.9 19.9 0 0 1 .3-10zm28.2 12.6c8.6 4 17 8.1 25.5 12.3a39.3 39.3 0 0 1-43.4 0c5.8-4.2 11.8-8.3 18-12.3zm42.8 21.1a609 609 0 0 1 98 62.6c-33.8 14.4-68.1 35.5-100 53-32.7 18-63 31.6-84.5 31.7a50.6 50.6 0 0 1-46.7-25.4c-8.3-15.2-8.8-35.6 3.6-57.3 13-22.5 31.7-43.5 54.3-62l1 .8c9.6 8 22.3 12.4 35.3 12.4a55.2 55.2 0 0 0 39-15.8zm144.7 80.2a9 9 0 0 0-6 16c56 47.8 85.4 85.4 96.8 125 11.4 39.8 5.2 83.2-13.8 143.7a9 9 0 1 0 17.2 5.5c19.3-61.9 26.7-109.4 14-154-13-44.8-45.4-85.1-102.5-134a9 9 0 0 0-5.7-2.2z"/></svg>
