<svg xmlns="http://www.w3.org/2000/svg" viewBox="0 0 512 512" width="32" height="32" fill="#FFFFFF"><path d="M256 25C128.3 25 25 128.3 25 256s103.3 231 231 231 231-103.3 231-231S383.7 25 256 25zm0 14c119.7 0 217 97.3 217 217s-97.3 217-217 217S39 375.7 39 256 136.3 39 256 39zm0 18c-7.8 0-15.5.5-23 1.3V170a88.7 88.7 0 0 1 46 0V58.3a217 217 0 0 0-23-1.3zm-41 4.2A197.6 197.6 0 0 0 169 77v138h8a89.7 89.7 0 0 1 38-38V61.2zm82 0V177a89.7 89.7 0 0 1 38 38h8V77a200 200 0 0 0-46-15.8zM151 87a199.7 199.7 0 0 0-46 39.4v110.1l7.7-4.1c2.9-1.8 4.5-3.1 5.2-4.1.7-1 1.1-1.7 1.1-4.2v-9h32V86.9zm210 0v128h32v9c0 2.5.4 3.3 1.1 4.3.8 1 2.3 2.5 4.9 4.2l8 5V126.3A199.7 199.7 0 0 0 361 87zM87 151a198.4 198.4 0 0 0 0 210.2v-96.5l-2-1.5-9.7-7.2 9.7-7.2 2-1.5v-96.5zm338 0v101.4l3.7 3.7-3.7 3.7v101.5c19-30.5 30-66.6 30-105.2 0-38.6-11-74.7-30-105.2zm-169 34a70.9 70.9 0 1 0 71 71c0-39.3-31.7-71-71-71zm0 30c22.5 0 41 18.5 41 41s-18.5 41-41 41-41-18.5-41-41 18.5-41 41-41zm-120.6 18c-.8 2.1-1.7 4.1-3 5.8a34 34 0 0 1-10.5 9c-4.6 2.7-9.5 5.1-15 8.2 5.5 3 10.4 5.5 15 8.3a34 34 0 0 1 10.5 8.9c1.3 1.7 2.2 3.7 3 5.8H170a88.6 88.6 0 0 1 0-46h-34.6zm120.6 0c-12.8 0-23 10.2-23 23s10.2 23 23 23 23-10.2 23-23-10.2-23-23-23zm86 0a88.7 88.7 0 0 1 0 46h34.6c.7-2 1.6-4 2.8-5.7a33 33 0 0 1 9.6-8.8c4.3-2.8 8.6-5.3 13-8.5-4.4-3.2-8.7-5.7-13-8.5a34.3 34.3 0 0 1-9.6-8.8 21.6 21.6 0 0 1-2.8-5.7H342zm65 41.5-8 5a18.9 18.9 0 0 0-4.9 4.2c-.7 1-1.1 1.8-1.1 4.3v9h-32v128.1c17.3-10.7 32.8-24 46-39.4V274.5zm-302 1v110.2a199.7 199.7 0 0 0 46 39.4V297h-32v-9c0-2.5-.4-3.2-1-4.2-.8-1-2.4-2.3-5.3-4-2-1.3-4.7-2.6-7.7-4.3zm64 21.5v138a200 200 0 0 0 46 15.8V335a89.7 89.7 0 0 1-38-38h-8zm166 0a89.7 89.7 0 0 1-38 38v115.8c16.1-3.4 31.6-8.7 46-15.7V297h-8zm-102 45v111.7a201.7 201.7 0 0 0 46 0V342a88.7 88.7 0 0 1-46 0z"/></svg>
