<svg xmlns="http://www.w3.org/2000/svg" viewBox="0 0 512 512" style="height:512px;width:512px"><path d="M0 0h512v512H0z" fill="none"/><path d="M162 17c-33 0-64 9-89 25-29 18-50 47-56 84s3 82 31 133c20 35 45 63 60 93 12 26 18 47 16 75a32 32 0 1 0 18 2v-29c9-11 20-16 33-18 15-2 33 1 54 8l13 31a31 31 0 1 0 19-4c-4-12-9-22-14-33 10-9 27-16 47-20 22-4 47-6 68-6l20 20v7a30 30 0 1 0 11-23l-20-19c-1-49 13-88 38-119l27-10a32 32 0 0 0 54-23 32 32 0 1 0-63 7l-22 8c-15-20-17-36-13-53 5-19 18-39 30-62 7-4 12-9 17-15a32 32 0 1 0-11-16c-12 17-33 26-59 27-27 0-57-9-83-27-40-24-86-42-126-43zm47 25c18 5 37 13 54 24v14c-17-13-37-27-54-36zm-62 4 4 15c-11-5-22-9-35-12 11-2 21-4 31-3zm20 2c9 2 18 6 26 9l10 37-28-20zm-63 18c19 3 36 10 52 19l-11 18-41-37zm112 3 32 23 16 12v44l-36-33zm66 9c13 9 26 15 40 20l1 28c-13-9-27-19-41-31zM90 78l45 43-14 23c-13-22-24-45-31-66zm82 17c13 9 27 20 39 31-2 6-12 22-16 28l-36-37zm224 8c-8 14-15 28-19 44-12 0-23-4-35-10l-1-34c19 3 38 4 55-1zm-342 8c0 21 3 41 9 58l-16-3c0-20 3-39 7-55zm32 8c6 14 14 26 22 38l-14 6c-5-16-8-31-8-44zm196 0c15 11 27 21 41 29l1 46c-14-7-28-18-41-29zm-133 15 36 37-17 26c-12-11-24-23-35-36zm78 6 36 33-17 28c-13-10-25-22-37-33zm115 18c10 4 21 7 32 7 0 14 3 29 13 44-16 1-30-1-44-6zm-223 14c10 13 21 24 32 35l-23 8c-10-12-19-23-26-35zm80 12 37 34-13 20-40-29zm78 1c14 11 29 21 44 29l-16 28c-16-8-30-18-44-29l16-28zm-228 1 22 4c5 12 12 23 19 33l-28-2c-6-11-10-22-13-35zm118 35 36 26-24 8c-12-8-25-17-35-26zm172 0c15 5 32 7 46 7-7 12-14 25-19 39-15-4-30-10-44-16l17-30zm-88 8c14 11 29 21 45 30l-11 19-46-29 12-20zm-127 7c10 11 23 18 33 27l-7 2-26-29zm-49 5 29 2 23 25-26 1-26-28zm148 19 45 29-24 11-46-32zm89 7c16 7 32 13 49 18-3 13-6 27-6 42l-54-39 11-21zm-136 9 49 33-23 10-37-39zm-31 10 34 36h-25c-10-13-22-24-34-35l25-1zm-51 2 35 34h-17l-23-34h5zm193 13 54 39c-20 1-38 3-55 6-6-12-15-23-26-33l27-12zm-46 21c12 9 21 19 27 30-12 3-22 9-30 16l-24-34zm-118 19h22l17 25c-9 2-17 7-24 12-4-14-9-26-15-37zm46 0h26l20 26c-12-3-23-5-33-4l-13-22z"/></svg>