<svg xmlns="http://www.w3.org/2000/svg" viewBox="0 0 512 512" style="height:512px;width:512px"><path d="M0 0h512v512H0z" fill="none"/><path d="M473.8 38.2a36.7 36.7 0 0 0-6-4.9L462 43.6l2.4-12.1a21 21 0 0 0-16-1.8l-.9.8a39 39 0 0 0 11.4 22.6 38.2 38.2 0 0 0 22.6 11.4l.8-.8c2.8-8.5-1.4-18.4-8.5-25.5zm-41.1 7.2L277.9 200l6.7 6.7 40.3-40.3-31.5 49.2L312 234 466.6 79.3c-1.8-.7-3.7-1.6-5.5-2.5l-26.5 13.7 18.6-18.6a63.2 63.2 0 0 1-20.5-26.5zM265.2 212.9 249 229l48.6 16.2-32.4-32.4zm20.5 47.4-51-17-11.2 11.2 51 17 11.2-11.2zm-25.5 25.4-17.9-6-10.9 34.8 28.8-28.8zm-35-11.6-16-5.3-11.8 11.9 19.6 19.6 8.3-26.2zm-6.4 53.1-7.9-7.6-26.2-26.2-155 155c-3.4 10.1 3.4 22.3 13 29.3l61-61-53 65.1a20 20 0 0 0 13 .5l155-155z"/></svg>
