<svg xmlns="http://www.w3.org/2000/svg" viewBox="0 0 512 512"><path d="M825 413c-4-5-12-33-16-37-16-19-25-14-25-14l10 30-26-19s-99-55-118-56c-19-2-44 5-63 1-20-4-89-60-96-75s-10-25-26-43-70-65-87-69c-6-1-13-2-21-1-15-18-39-46-55-57-21-12-84-25-100-36-16-10-50-40-56-34-6 5 31 101 82 109 27 4 59 18 82 31l-3 2c-20 14-27 65-27 65s-17 38-30 40l-24-15c-18-10-141-2-141-2l-22-19-40 51s24 8 45-7c22-15 96 8 96 8l20 12-3 1-22 1-44 28-60 24-20-19-15-2-19 25s34 19 60 16c27-4 62-24 62-24l30-1 95-21s33 32 58 38 53 0 53 0 50 124 81 147c10 7 22 12 33 17 19 27 55 78 58 90 5 16 18 95 18 95l-14 37 33 21 8-32-7-37s-4-85-8-103l-4-14c18 26 37 56 40 64 4 16 17 95 17 95l-13 38 32 21 9-32-7-37s-5-85-9-104c-4-18-27-80-27-80l61-54 74 24 34 49v7s9 61 15 61c12 7 40 6 47 5 8-7 5-30 6-33l4-57 9-22s5-42-1-69c-3-11-9-14-23-28Zm-16 82c-3-12 7-19 7-19l9 32s-12 0-16-13Z"/></svg>