<svg xmlns="http://www.w3.org/2000/svg" viewBox="0 0 512 512" style="height:512px;width:512px" fill="#FFFFFF"><path d="M218.5 26.8c-36 0-72.6 10-102.1 28.2C74.6 80.6 47 121.2 51.1 172.7l9 27.7c15.8-42.6 42-79.2 75.8-103.8a165.7 165.7 0 0 1 132.7-29l-10.2-36.3a178.6 178.6 0 0 0-39.9-4.5zm61 13 8.5 30 18-.5-3.4-21zm42.4 15.4 3.6 22.1a41 41 0 0 1 11.3 9.3c3 4.1 2.8 5.6.6 9.8-4.4 8.5-23.5 22.3-46.9 35.7-23.4 13.4-50.8 27.4-72.4 42.9a124.6 124.6 0 0 0-27.2 25 43.6 43.6 0 0 0-9.8 31c7 62.8 61.8 105.2 113.1 132.1a503 503 0 0 0 79.7 32.7c2.8 2.7 11.9 11.2 23.8 19.8 14.2 10.2 31.5 21.5 49.5 19a60.1 60.1 0 0 0 30.2-14.4 41 41 0 0 0 10.7-13.7c2.4-5.4 3.3-12.1.8-18.4-4.6-11.7-16.3-17.3-27.9-19.4-5.9-1-12-1.3-18.3-1.2-6.2.2-12.6.7-18.8 1.6a300.4 300.4 0 0 0-44.6 9.6 473.4 473.4 0 0 1-76.7-31.6c-49-25.7-97.7-64.8-103.7-118.1-.6-5.7 1.4-11.5 6.4-18.2 5.1-6.8 13.3-14 23.2-21.1 20-14.3 47-28.3 70.9-42 23.9-13.6 45-25.8 54-43 4.5-8.6 4.3-20-2-28.6-5.9-8.1-15.4-14.6-29.5-21zm85.4 97c-12.8 0-23 10.2-23 23s10.2 23 23 23 23-10.2 23-23-10.2-23-23-23zm-71 39c-12.8 0-23 10.2-23 23s10.2 23 23 23 23-10.2 23-23-10.2-23-23-23zm-296.6 4.5-12.8 34.8L43.4 245l6.9-16.6zm392.6 27.5c-12.8 0-23 10.2-23 23s10.2 23 23 23 23-10.2 23-23-10.2-23-23-23zM22.8 251c-1.2 8.4-1.5 18-.8 28.4 1.6 21.2 8.3 45.3 24.5 65.1 45.8 56.3 82.3 75.5 121.7 82.2 35.9 6 73.2 2.5 125.2 10.4 3.7 4.9 9.2 12 15.9 19.3 11.9 13 26.5 27.5 44.7 28.7 10.6.6 22.4-2.5 32.5-8.2 5-2.9 9.7-6.4 13.2-11.2a24.7 24.7 0 0 0 4.5-18c-2.2-12.4-12.5-20.1-23.5-24.5-11-4.3-23.9-6.2-36.4-7.1-6.2-.4-12.4-.6-18.1-.6-17.3 0-30.7 1.5-30.7 1.5l-8.8.9c-49.1-6.4-84.7-3.8-115.5-9-35.8-6-66.5-21.5-110.8-75.8A99 99 0 0 1 40 278c-.3-4.2-.3-8.2-.2-12.1zm420.3 134.6h4c3.9 0 7.5.3 10.7.9 8.6 1.5 12.7 4.2 14.3 8.2.5 1.3.6 2.3-.4 4.4a25 25 0 0 1-6.1 7.5c-6 5.2-15.3 9.4-20.8 10.2-7.4 1-23.6-6.5-36.6-15.8-4-2.9-7.5-5.8-10.8-8.5 8.1-2 18.3-4.2 28.9-5.6 5.7-.7 11.4-1.2 16.8-1.3zm-116.8 47.9c5.3 0 11 .2 16.8.6 11.4.8 22.9 2.7 31 5.9 8 3.1 11.6 6.6 12.3 10.9.3 1.3.1 2.3-1.3 4.2-1.4 1.9-4 4.2-7.5 6.1-6.9 4-16.9 6.3-22.4 5.9-7.4-.5-21.8-11.1-32.6-22.8-3.4-3.7-6.3-7.2-8.9-10.5 3.8-.1 7.9-.3 12.6-.3z"/></svg>
