<svg xmlns="http://www.w3.org/2000/svg" viewBox="0 0 512 512" style="height:512px;width:512px"><path d="M0 0h512v512H0z" fill="none"/><path d="m28 52 27 106 72 162-43-45 21 84a67 67 0 0 1 74-26L28 52zm82 3 242 126a67 67 0 0 1-5-22L239 92l123 21 10-10-262-48zM86 81l183 212-72-58 118 161c3-18 11-34 23-47l-79-99 108 80c7-4 16-6 24-8L86 81zm328 26-7 1c-27 3-45 27-41 54a48 48 0 0 0 96-13 48 48 0 0 0-48-42zm-10 233h-4a71 71 0 0 0 0 143 71 71 0 1 0 4-143zm-244 9c-25 0-46 19-48 44a48 48 0 1 0 96 9 48 48 0 0 0-49-53z"/></svg>