<svg xmlns="http://www.w3.org/2000/svg" viewBox="0 0 512 512" style="height:512px;width:512px" fill="#FFFFFF"><path d="M261.6 64.3A191.8 191.8 0 0 0 64.2 256a191.8 191.8 0 1 0 383.6 0A191.8 191.8 0 0 0 261.6 64.3zm-4.7 9.1 9 5.2v10.3l-9 5.1-8.9-5V78.6l9-5.2zm3.6 29.3a153.4 153.4 0 0 1 149 153.3 153.4 153.4 0 0 1-307 0 153.4 153.4 0 0 1 158-153.3zm-11.6 20a133.6 133.6 0 0 0-65.1 20.9v224.6a133.6 133.6 0 0 0 65.1 21.1V122.7zm17.7.3v266.1a133.6 133.6 0 0 0 63.5-22V145a133.6 133.6 0 0 0-63.5-22zm-100.5 34.3a133.6 133.6 0 0 0-43.7 98.7 133.6 133.6 0 0 0 43.7 98.8V157.3zm-60.7 1.7 9 5.1v10.3l-9 5.2-9-5.2v-10.3l9-5.1zm300.5 0 9 5.1v10.3l-9 5.2-8.9-5.2v-10.3l9-5.1zm-58.2 0v194a133.6 133.6 0 0 0 41.9-97 133.6 133.6 0 0 0-41.9-97zm57.9 173.2 8.9 5.1v10.4l-9 5.1-8.8-5.1v-10.4l8.9-5.1zm-299.9.7 9 5.2v10.3l-9 5.1-8.9-5.1V338l9-5.2zm150 85.2 8.9 5.1v10.4l-9 5.1-8.8-5.1v-10.4l8.9-5.1z"/></svg>
