<svg xmlns="http://www.w3.org/2000/svg" viewBox="0 0 512 512" style="height:512px;width:512px"><path d="M234 51c-27 0-52 11-73 32l-3 2h-3c-50 6-84 33-90 85v4l-3 2c-36 36-44 79-16 129l2 3-1 4c-5 29-1 51 11 69s30 31 55 41l4 1 2 4c12 32 29 55 50 65h298c-37-38-97-66-154-83-33-9-64-15-89-19-26-3-46-3-53-1l-11 2v-12c-1-22-8-36-17-48-10-12-23-21-39-30l-10-5 7-10c10-12 12-26 10-41-2-16-7-32-13-49l-3-9 9-3c40-14 61-35 71-63l3-9 10 3c27 10 51 2 85-9l6-3 5 6a105 105 0 0 0 63 38c-57 49 11 194 145 148-89-10-55-56-46-94 10-41-14-70-51-70-5-23-19-40-36-52a99 99 0 0 0-68-15l-3 1-3-2c-17-8-34-12-51-12z"/></svg>