<svg xmlns="http://www.w3.org/2000/svg" viewBox="0 0 512 512" style="height:512px;width:512px" fill="#FFFFFF"><path d="M255.9 19.5C206 19.5 160 34.9 122 61.1a207 207 0 0 0 98.6 4.6c23-19.3 50.2-33.1 81.1-41.8a238 238 0 0 0-45.8-4.4zM340.2 35c-39.9 5.7-73.4 19-100.8 39.8a494 494 0 0 1 77 127l2.2 1 67.9 33.9c9.5-23.5 16.5-46.7 16-70.5a303.6 303.6 0 0 1-21.3-110.8c-12.9-8-26.6-15-41-20.4zm60 33.7c1.4 29 7.4 58 18.4 87.1l59.4 19.4a236.4 236.4 0 0 0-77.8-106.5zm-294.3 6.7c-4.5 30.8-4 59.9 2.7 90.8l137.2 72.4c19-5.4 37.2-15 54.1-27.8A475.8 475.8 0 0 0 223 84.3a227.3 227.3 0 0 1-117-8.9zm-20.7 17a235.3 235.3 0 0 0-65.4 155.4 330 330 0 0 0 35.7-32.3l-.1-.3.5-.2a402.5 402.5 0 0 0 35-42.2 265.1 265.1 0 0 1-5.7-80.5zm335.9 84a218.3 218.3 0 0 1-18.8 71.3c27 39.7 45 85 54.2 132.7A235.2 235.2 0 0 0 484.7 197l-63.6-20.7zm-316.3 9a454.5 454.5 0 0 1-27.7 34.2c17.7 47.9 24.4 96.9 27.7 145.7 19.4 2 44.6-1 65.2-9.2a383.4 383.4 0 0 1 59-105.3l-124.2-65.5zm210.8 36.8a185.5 185.5 0 0 1-68 35.2 356.3 356.3 0 0 0-58.8 102 221.6 221.6 0 0 1 66.4 61 922.1 922.1 0 0 1 175-69.7 329.6 329.6 0 0 0-43.8-93.2l-70.8-35.3zm-253 12.6c-13 13-27 25-42.4 36a234.8 234.8 0 0 0 36.9 112.4A61 61 0 0 0 86.3 369c-3-45.8-8.8-90.7-23.6-134.2zm372.3 134a909.4 909.4 0 0 0-174.6 70 101.4 101.4 0 0 0-13.9 52.8l9.5.2c75.2 0 142-35 185.3-89.7a363.5 363.5 0 0 0-6.3-33.3zm-258.8 4.9c-25.5 10-54.3 13-77.9 9.5a87.7 87.7 0 0 1-29.6 16.4 235.6 235.6 0 0 0 159.2 90.5c.6-18.2 3.7-37.2 14-56.1-15.9-24.5-38.9-43.6-65.7-60.3z"/></svg>
