<svg xmlns="http://www.w3.org/2000/svg" viewBox="0 0 512 512" style="height:512px;width:512px"><path d="M0 0h512v512H0z" fill="none"/><path d="M167 18.8c-20.4 0-36.8 17-36.8 37.3A36.7 36.7 0 0 0 167 93c12 0 22.9-5.7 29.8-14.6l73 19.6 35.7 47.8h186.8L330.6 52.2l-54 23.2L204.4 56c0-20.3-17-37.2-37.3-37.2zm0 18.7c10.3 0 18.7 8.3 18.7 18.6s-8.4 18.2-18.7 18.2-18.1-7.9-18.1-18.2c0-10.3 7.8-18.6 18.1-18.6zM64 69.9a43 43 0 0 0-2.4 86l22.8 84.8-27.6 63.9 109 188.6.2-217.9-55-40.8-22.9-85.7a43 43 0 0 0-24-79zm.3 19.2a24 24 0 1 1 .5 48.1 24 24 0 0 1-.5-48.1zm112.5 44.3a44.5 44.5 0 0 0-28 78.3 44.6 44.6 0 0 0 51.7 4.7l69 59.5 13.8 70.9 203.5 98-127-186.8-71-3-69.6-60a44.6 44.6 0 0 0-42.4-61.6zm.7 19.8a25 25 0 1 1 1.2 49.9 25 25 0 0 1-1.2-50z"/></svg>
