<svg xmlns="http://www.w3.org/2000/svg" viewBox="0 0 512 512" style="height:512px;width:512px"><path d="M143 20c0 56-28 101-64 137l39 4 15 2-8 13-34 52c31 3 55-2 89-15l12-5v13l1 45c20-13 36-30 50-50l5-7 8 4 54 32 11-30 3-12 11 7c30 21 66 31 102 34l-52-57-14-16h21l32 1c-18-18-36-40-50-63-17-28-29-59-28-89H143zm191 212-10 30-3 11-10-6-41-24c10 33 18 78 24 124 7 44 11 89 15 122 14-5 28-11 40-19 0-36-9-72-19-109 18 30 32 61 40 94 14-11 25-23 33-37-3-23-13-53-25-74 14 13 27 32 36 49 3-8 4-17 4-25 0-33-15-78-40-116-15-5-30-12-44-20zm-160 3c-14 5-27 8-39 10-28 40-45 89-45 123 0 29 15 57 38 79 7-23 19-46 34-67-8 28-14 56-13 84 16 11 34 20 54 26 4-33 8-78 15-124 6-42 13-84 22-116-14 16-31 30-52 41l-13 6v-15l-1-47zm82 28c-8 29-15 67-20 106-6 42-10 85-14 118 19-6 35-8 49-7 7 0 13 1 18 3a2082 2082 0 0 0-33-220z"/></svg>