<svg xmlns="http://www.w3.org/2000/svg" viewBox="45 25 424 462" width="32" height="32" fill="#FFFFFF"><path d="M157 26 89 39c0 59-2 120-43 168 58 40 143 54 201 42v-99L108 88l8-16 140 62 140-62 8 16-139 62v99c58 12 143-2 202-42-42-48-44-109-44-168l-68-13c-13 14-20 28-33 40-13 14-32 23-66 23-33 0-53-9-66-23-13-12-20-26-33-40zM54 233c22 48 42 104 49 160l65 23c4-53 28-104 63-146-55 6-122-6-177-37zm404 0c-55 31-122 43-177 36 35 43 59 94 63 147l66-23c6-57 26-112 48-160zm-202 36c-40 43-68 98-71 153l62 21V336h18v107l62-21c-3-55-31-110-71-153zm152 143-111 39v19l110-44 1-14zm-304 0 1 14 110 44v-19l-111-39zm175 45-23 8-23-7v19l23 9 23-9v-20z"/></svg>
